<?xml version="1.0" encoding="UTF-8" standalone="no"?>
<!DOCTYPE svg PUBLIC "-//W3C//DTD SVG 1.1//EN"
 "http://www.w3.org/Graphics/SVG/1.1/DTD/svg11.dtd">
<!-- Generated by graphviz version 2.47.3 (20210619.1520)
 -->
<!-- Title: dependencies Pages: 1 -->
<svg width="436pt" height="247pt"
 viewBox="0.00 0.00 436.00 246.80" xmlns="http://www.w3.org/2000/svg" xmlns:xlink="http://www.w3.org/1999/xlink">
<g id="graph0" class="graph" transform="scale(1 1) rotate(0) translate(4 242.8)">
<title>dependencies</title>
<polygon fill="white" stroke="transparent" points="-4,4 -4,-242.8 432,-242.8 432,4 -4,4"/>
<text text-anchor="middle" x="214" y="-8.2" font-family="sans-serif" font-size="14.00">dependencies</text>
<g id="clust1" class="cluster">
<title>cluster_DocumentModule</title>
<polygon fill="none" stroke="black" stroke-dasharray="1,5" points="8,-32.8 8,-230.8 420,-230.8 420,-32.8 8,-32.8"/>
</g>
<g id="clust5" class="cluster">
<title>cluster_DocumentModule_exports</title>
<polygon fill="none" stroke="black" points="104,-170.8 104,-222.8 324,-222.8 324,-170.8 104,-170.8"/>
</g>
<g id="clust2" class="cluster">
<title>cluster_DocumentModule_declarations</title>
<polygon fill="none" stroke="black" points="196,-40.8 196,-92.8 412,-92.8 412,-40.8 196,-40.8"/>
</g>
<g id="clust4" class="cluster">
<title>cluster_DocumentModule_imports</title>
<polygon fill="none" stroke="black" points="16,-40.8 16,-92.8 188,-92.8 188,-40.8 16,-40.8"/>
</g>
<!-- DocumentsOverviewComponent -->
<g id="node1" class="node">
<title>DocumentsOverviewComponent</title>
<polygon fill="#ffffb3" stroke="black" points="404.29,-84.8 203.71,-84.8 203.71,-48.8 404.29,-48.8 404.29,-84.8"/>
<text text-anchor="middle" x="304" y="-62.6" font-family="Times,serif" font-size="14.00">DocumentsOverviewComponent</text>
</g>
<!-- DocumentModule -->
<g id="node2" class="node">
<title>DocumentModule</title>
<polygon fill="#8dd3c7" stroke="black" points="272.87,-149.8 269.87,-153.8 248.87,-153.8 245.87,-149.8 155.13,-149.8 155.13,-113.8 272.87,-113.8 272.87,-149.8"/>
<text text-anchor="middle" x="214" y="-127.6" font-family="Times,serif" font-size="14.00">DocumentModule</text>
</g>
<!-- DocumentsOverviewComponent&#45;&gt;DocumentModule -->
<g id="edge1" class="edge">
<title>DocumentsOverviewComponent&#45;&gt;DocumentModule</title>
<path fill="none" stroke="black" d="M238.39,-84.91C238.39,-84.91 238.39,-103.79 238.39,-103.79"/>
<polygon fill="black" stroke="black" points="234.89,-103.79 238.39,-113.79 241.89,-103.79 234.89,-103.79"/>
</g>
<!-- DocumentsOverviewComponent  -->
<g id="node4" class="node">
<title>DocumentsOverviewComponent </title>
<polygon fill="#fb8072" stroke="black" points="315.79,-214.8 112.21,-214.8 112.21,-178.8 315.79,-178.8 315.79,-214.8"/>
<text text-anchor="middle" x="214" y="-192.6" font-family="Times,serif" font-size="14.00">DocumentsOverviewComponent </text>
</g>
<!-- DocumentModule&#45;&gt;DocumentsOverviewComponent  -->
<g id="edge3" class="edge">
<title>DocumentModule&#45;&gt;DocumentsOverviewComponent </title>
<path fill="none" stroke="black" stroke-dasharray="5,2" d="M214,-149.91C214,-149.91 214,-168.79 214,-168.79"/>
<polygon fill="black" stroke="black" points="210.5,-168.79 214,-178.79 217.5,-168.79 210.5,-168.79"/>
</g>
<!-- DocumentsTableModule -->
<g id="node3" class="node">
<title>DocumentsTableModule</title>
<polygon fill="#8dd3c7" stroke="black" points="179.68,-84.8 176.68,-88.8 155.68,-88.8 152.68,-84.8 24.32,-84.8 24.32,-48.8 179.68,-48.8 179.68,-84.8"/>
<text text-anchor="middle" x="102" y="-62.6" font-family="Times,serif" font-size="14.00">DocumentsTableModule</text>
</g>
<!-- DocumentsTableModule&#45;&gt;DocumentModule -->
<g id="edge2" class="edge">
<title>DocumentsTableModule&#45;&gt;DocumentModule</title>
<path fill="none" stroke="black" d="M167.33,-84.91C167.33,-84.91 167.33,-103.79 167.33,-103.79"/>
<polygon fill="black" stroke="black" points="163.83,-103.79 167.33,-113.79 170.83,-103.79 163.83,-103.79"/>
</g>
</g>
</svg>
