<?xml version="1.0" encoding="UTF-8" standalone="no"?>
<!DOCTYPE svg PUBLIC "-//W3C//DTD SVG 1.1//EN"
 "http://www.w3.org/Graphics/SVG/1.1/DTD/svg11.dtd">
<!-- Generated by graphviz version 2.47.3 (20210619.1520)
 -->
<!-- Title: dependencies Pages: 1 -->
<svg width="1189pt" height="247pt"
 viewBox="0.00 0.00 1189.00 246.80" xmlns="http://www.w3.org/2000/svg" xmlns:xlink="http://www.w3.org/1999/xlink">
<g id="graph0" class="graph" transform="scale(1 1) rotate(0) translate(4 242.8)">
<title>dependencies</title>
<polygon fill="white" stroke="transparent" points="-4,4 -4,-242.8 1185,-242.8 1185,4 -4,4"/>
<text text-anchor="middle" x="590.5" y="-8.2" font-family="sans-serif" font-size="14.00">dependencies</text>
<g id="clust1" class="cluster">
<title>cluster_ProductConfigurationModule</title>
<polygon fill="none" stroke="black" stroke-dasharray="1,5" points="8,-32.8 8,-230.8 1173,-230.8 1173,-32.8 8,-32.8"/>
</g>
<g id="clust7" class="cluster">
<title>cluster_ProductConfigurationModule_exports</title>
<polygon fill="none" stroke="black" points="75,-170.8 75,-222.8 893,-222.8 893,-170.8 75,-170.8"/>
</g>
<g id="clust2" class="cluster">
<title>cluster_ProductConfigurationModule_declarations</title>
<polygon fill="none" stroke="black" points="359,-40.8 359,-92.8 1165,-92.8 1165,-40.8 359,-40.8"/>
</g>
<g id="clust6" class="cluster">
<title>cluster_ProductConfigurationModule_imports</title>
<polygon fill="none" stroke="black" points="16,-40.8 16,-92.8 351,-92.8 351,-40.8 16,-40.8"/>
</g>
<!-- ProductConfigurationFormComponent -->
<g id="node1" class="node">
<title>ProductConfigurationFormComponent</title>
<polygon fill="#ffffb3" stroke="black" points="1156.76,-84.8 923.24,-84.8 923.24,-48.8 1156.76,-48.8 1156.76,-84.8"/>
<text text-anchor="middle" x="1040" y="-62.6" font-family="Times,serif" font-size="14.00">ProductConfigurationFormComponent</text>
</g>
<!-- ProductConfigurationModule -->
<g id="node4" class="node">
<title>ProductConfigurationModule</title>
<polygon fill="#8dd3c7" stroke="black" points="590.64,-149.8 587.64,-153.8 566.64,-153.8 563.64,-149.8 409.36,-149.8 409.36,-113.8 590.64,-113.8 590.64,-149.8"/>
<text text-anchor="middle" x="500" y="-127.6" font-family="Times,serif" font-size="14.00">ProductConfigurationModule</text>
</g>
<!-- ProductConfigurationFormComponent&#45;&gt;ProductConfigurationModule -->
<g id="edge1" class="edge">
<title>ProductConfigurationFormComponent&#45;&gt;ProductConfigurationModule</title>
<path fill="none" stroke="black" d="M1040,-84.91C1040,-104.14 1040,-131.8 1040,-131.8 1040,-131.8 600.69,-131.8 600.69,-131.8"/>
<polygon fill="black" stroke="black" points="600.69,-128.3 590.69,-131.8 600.69,-135.3 600.69,-128.3"/>
</g>
<!-- ProductConfigurationMiniCartComponent -->
<g id="node2" class="node">
<title>ProductConfigurationMiniCartComponent</title>
<polygon fill="#ffffb3" stroke="black" points="905.25,-84.8 650.75,-84.8 650.75,-48.8 905.25,-48.8 905.25,-84.8"/>
<text text-anchor="middle" x="778" y="-62.6" font-family="Times,serif" font-size="14.00">ProductConfigurationMiniCartComponent</text>
</g>
<!-- ProductConfigurationMiniCartComponent&#45;&gt;ProductConfigurationModule -->
<g id="edge2" class="edge">
<title>ProductConfigurationMiniCartComponent&#45;&gt;ProductConfigurationModule</title>
<path fill="none" stroke="black" d="M728.63,-84.83C728.63,-101.2 728.63,-122.8 728.63,-122.8 728.63,-122.8 600.69,-122.8 600.69,-122.8"/>
<polygon fill="black" stroke="black" points="600.69,-119.3 590.69,-122.8 600.69,-126.3 600.69,-119.3"/>
</g>
<!-- ProductConfigurationNavigationComponent -->
<g id="node3" class="node">
<title>ProductConfigurationNavigationComponent</title>
<polygon fill="#ffffb3" stroke="black" points="632.63,-84.8 367.37,-84.8 367.37,-48.8 632.63,-48.8 632.63,-84.8"/>
<text text-anchor="middle" x="500" y="-62.6" font-family="Times,serif" font-size="14.00">ProductConfigurationNavigationComponent</text>
</g>
<!-- ProductConfigurationNavigationComponent&#45;&gt;ProductConfigurationModule -->
<g id="edge3" class="edge">
<title>ProductConfigurationNavigationComponent&#45;&gt;ProductConfigurationModule</title>
<path fill="none" stroke="black" d="M500,-84.91C500,-84.91 500,-103.79 500,-103.79"/>
<polygon fill="black" stroke="black" points="496.5,-103.79 500,-113.79 503.5,-103.79 496.5,-103.79"/>
</g>
<!-- ProductConfigurationFormComponent  -->
<g id="node7" class="node">
<title>ProductConfigurationFormComponent </title>
<polygon fill="#fb8072" stroke="black" points="884.76,-214.8 647.24,-214.8 647.24,-178.8 884.76,-178.8 884.76,-214.8"/>
<text text-anchor="middle" x="766" y="-192.6" font-family="Times,serif" font-size="14.00">ProductConfigurationFormComponent </text>
</g>
<!-- ProductConfigurationModule&#45;&gt;ProductConfigurationFormComponent  -->
<g id="edge6" class="edge">
<title>ProductConfigurationModule&#45;&gt;ProductConfigurationFormComponent </title>
<path fill="none" stroke="black" stroke-dasharray="5,2" d="M590.75,-140.8C681.17,-140.8 806.63,-140.8 806.63,-140.8 806.63,-140.8 806.63,-168.77 806.63,-168.77"/>
<polygon fill="black" stroke="black" points="803.13,-168.77 806.63,-178.77 810.13,-168.77 803.13,-168.77"/>
</g>
<!-- ProductConfigurationMiniCartComponent  -->
<g id="node8" class="node">
<title>ProductConfigurationMiniCartComponent </title>
<polygon fill="#fb8072" stroke="black" points="629.25,-214.8 370.75,-214.8 370.75,-178.8 629.25,-178.8 629.25,-214.8"/>
<text text-anchor="middle" x="500" y="-192.6" font-family="Times,serif" font-size="14.00">ProductConfigurationMiniCartComponent </text>
</g>
<!-- ProductConfigurationModule&#45;&gt;ProductConfigurationMiniCartComponent  -->
<g id="edge7" class="edge">
<title>ProductConfigurationModule&#45;&gt;ProductConfigurationMiniCartComponent </title>
<path fill="none" stroke="black" stroke-dasharray="5,2" d="M500,-149.91C500,-149.91 500,-168.79 500,-168.79"/>
<polygon fill="black" stroke="black" points="496.5,-168.79 500,-178.79 503.5,-168.79 496.5,-168.79"/>
</g>
<!-- ProductConfigurationNavigationComponent  -->
<g id="node9" class="node">
<title>ProductConfigurationNavigationComponent </title>
<polygon fill="#fb8072" stroke="black" points="352.63,-214.8 83.37,-214.8 83.37,-178.8 352.63,-178.8 352.63,-214.8"/>
<text text-anchor="middle" x="218" y="-192.6" font-family="Times,serif" font-size="14.00">ProductConfigurationNavigationComponent </text>
</g>
<!-- ProductConfigurationModule&#45;&gt;ProductConfigurationNavigationComponent  -->
<g id="edge8" class="edge">
<title>ProductConfigurationModule&#45;&gt;ProductConfigurationNavigationComponent </title>
<path fill="none" stroke="black" stroke-dasharray="5,2" d="M409.14,-140.8C376.5,-140.8 347.58,-140.8 347.58,-140.8 347.58,-140.8 347.58,-168.77 347.58,-168.77"/>
<polygon fill="black" stroke="black" points="344.08,-168.77 347.58,-178.77 351.08,-168.77 344.08,-168.77"/>
</g>
<!-- DynamicFormModule -->
<g id="node5" class="node">
<title>DynamicFormModule</title>
<polygon fill="#8dd3c7" stroke="black" points="342.7,-84.8 339.7,-88.8 318.7,-88.8 315.7,-84.8 201.3,-84.8 201.3,-48.8 342.7,-48.8 342.7,-84.8"/>
<text text-anchor="middle" x="272" y="-62.6" font-family="Times,serif" font-size="14.00">DynamicFormModule</text>
</g>
<!-- DynamicFormModule&#45;&gt;ProductConfigurationModule -->
<g id="edge4" class="edge">
<title>DynamicFormModule&#45;&gt;ProductConfigurationModule</title>
<path fill="none" stroke="black" d="M272,-84.83C272,-101.2 272,-122.8 272,-122.8 272,-122.8 399.23,-122.8 399.23,-122.8"/>
<polygon fill="black" stroke="black" points="399.23,-126.3 409.23,-122.8 399.23,-119.3 399.23,-126.3"/>
</g>
<!-- FSDynamicformsModule -->
<g id="node6" class="node">
<title>FSDynamicformsModule</title>
<polygon fill="#8dd3c7" stroke="black" points="183.59,-84.8 180.59,-88.8 159.59,-88.8 156.59,-84.8 24.41,-84.8 24.41,-48.8 183.59,-48.8 183.59,-84.8"/>
<text text-anchor="middle" x="104" y="-62.6" font-family="Times,serif" font-size="14.00">FSDynamicformsModule</text>
</g>
<!-- FSDynamicformsModule&#45;&gt;ProductConfigurationModule -->
<g id="edge5" class="edge">
<title>FSDynamicformsModule&#45;&gt;ProductConfigurationModule</title>
<path fill="none" stroke="black" d="M133.49,-84.91C133.49,-104.14 133.49,-131.8 133.49,-131.8 133.49,-131.8 398.93,-131.8 398.93,-131.8"/>
<polygon fill="black" stroke="black" points="398.93,-135.3 408.93,-131.8 398.93,-128.3 398.93,-135.3"/>
</g>
</g>
</svg>
