<?xml version="1.0" encoding="UTF-8" standalone="no"?>
<!DOCTYPE svg PUBLIC "-//W3C//DTD SVG 1.1//EN"
 "http://www.w3.org/Graphics/SVG/1.1/DTD/svg11.dtd">
<!-- Generated by graphviz version 2.44.1 (20200629.0846)
 -->
<!-- Title: dependencies Pages: 1 -->
<svg width="1189pt" height="284pt"
 viewBox="0.00 0.00 1189.00 284.00" xmlns="http://www.w3.org/2000/svg" xmlns:xlink="http://www.w3.org/1999/xlink">
<g id="graph0" class="graph" transform="scale(1 1) rotate(0) translate(4 280)">
<title>dependencies</title>
<polygon fill="white" stroke="transparent" points="-4,4 -4,-280 1185,-280 1185,4 -4,4"/>
<text text-anchor="start" x="569.51" y="-42.4" font-family="sans-serif" font-weight="bold" font-size="14.00">Legend</text>
<polygon fill="#ffffb3" stroke="transparent" points="356.5,-10 356.5,-30 376.5,-30 376.5,-10 356.5,-10"/>
<text text-anchor="start" x="380.13" y="-15.4" font-family="sans-serif" font-size="14.00"> &#160;Declarations</text>
<polygon fill="#8dd3c7" stroke="transparent" points="469.5,-10 469.5,-30 489.5,-30 489.5,-10 469.5,-10"/>
<text text-anchor="start" x="493.23" y="-15.4" font-family="sans-serif" font-size="14.00"> &#160;Module</text>
<polygon fill="#80b1d3" stroke="transparent" points="555.5,-10 555.5,-30 575.5,-30 575.5,-10 555.5,-10"/>
<text text-anchor="start" x="579.28" y="-15.4" font-family="sans-serif" font-size="14.00"> &#160;Bootstrap</text>
<polygon fill="#fdb462" stroke="transparent" points="652.5,-10 652.5,-30 672.5,-30 672.5,-10 652.5,-10"/>
<text text-anchor="start" x="676.17" y="-15.4" font-family="sans-serif" font-size="14.00"> &#160;Providers</text>
<polygon fill="#fb8072" stroke="transparent" points="748.5,-10 748.5,-30 768.5,-30 768.5,-10 748.5,-10"/>
<text text-anchor="start" x="772.23" y="-15.4" font-family="sans-serif" font-size="14.00"> &#160;Exports</text>
<g id="clust1" class="cluster">
<title>cluster_ProductConfigurationModule</title>
<polygon fill="none" stroke="black" stroke-dasharray="1,5" points="8,-70 8,-268 1173,-268 1173,-70 8,-70"/>
</g>
<g id="clust7" class="cluster">
<title>cluster_ProductConfigurationModule_exports</title>
<polygon fill="none" stroke="black" points="75,-208 75,-260 893,-260 893,-208 75,-208"/>
</g>
<g id="clust2" class="cluster">
<title>cluster_ProductConfigurationModule_declarations</title>
<polygon fill="none" stroke="black" points="359,-78 359,-130 1165,-130 1165,-78 359,-78"/>
</g>
<g id="clust6" class="cluster">
<title>cluster_ProductConfigurationModule_imports</title>
<polygon fill="none" stroke="black" points="16,-78 16,-130 351,-130 351,-78 16,-78"/>
</g>
<!-- ProductConfigurationFormComponent -->
<g id="node1" class="node">
<title>ProductConfigurationFormComponent</title>
<polygon fill="#ffffb3" stroke="black" points="1156.76,-122 923.24,-122 923.24,-86 1156.76,-86 1156.76,-122"/>
<text text-anchor="middle" x="1040" y="-99.8" font-family="Times,serif" font-size="14.00">ProductConfigurationFormComponent</text>
</g>
<!-- ProductConfigurationModule -->
<g id="node4" class="node">
<title>ProductConfigurationModule</title>
<polygon fill="#8dd3c7" stroke="black" points="590.64,-187 587.64,-191 566.64,-191 563.64,-187 409.36,-187 409.36,-151 590.64,-151 590.64,-187"/>
<text text-anchor="middle" x="500" y="-164.8" font-family="Times,serif" font-size="14.00">ProductConfigurationModule</text>
</g>
<!-- ProductConfigurationFormComponent&#45;&gt;ProductConfigurationModule -->
<g id="edge1" class="edge">
<title>ProductConfigurationFormComponent&#45;&gt;ProductConfigurationModule</title>
<path fill="none" stroke="black" d="M1040,-122.11C1040,-141.34 1040,-169 1040,-169 1040,-169 600.69,-169 600.69,-169"/>
<polygon fill="black" stroke="black" points="600.69,-165.5 590.69,-169 600.69,-172.5 600.69,-165.5"/>
</g>
<!-- ProductConfigurationMiniCartComponent -->
<g id="node2" class="node">
<title>ProductConfigurationMiniCartComponent</title>
<polygon fill="#ffffb3" stroke="black" points="905.25,-122 650.75,-122 650.75,-86 905.25,-86 905.25,-122"/>
<text text-anchor="middle" x="778" y="-99.8" font-family="Times,serif" font-size="14.00">ProductConfigurationMiniCartComponent</text>
</g>
<!-- ProductConfigurationMiniCartComponent&#45;&gt;ProductConfigurationModule -->
<g id="edge2" class="edge">
<title>ProductConfigurationMiniCartComponent&#45;&gt;ProductConfigurationModule</title>
<path fill="none" stroke="black" d="M728.63,-122.03C728.63,-138.4 728.63,-160 728.63,-160 728.63,-160 600.69,-160 600.69,-160"/>
<polygon fill="black" stroke="black" points="600.69,-156.5 590.69,-160 600.69,-163.5 600.69,-156.5"/>
</g>
<!-- ProductConfigurationNavigationComponent -->
<g id="node3" class="node">
<title>ProductConfigurationNavigationComponent</title>
<polygon fill="#ffffb3" stroke="black" points="632.63,-122 367.37,-122 367.37,-86 632.63,-86 632.63,-122"/>
<text text-anchor="middle" x="500" y="-99.8" font-family="Times,serif" font-size="14.00">ProductConfigurationNavigationComponent</text>
</g>
<!-- ProductConfigurationNavigationComponent&#45;&gt;ProductConfigurationModule -->
<g id="edge3" class="edge">
<title>ProductConfigurationNavigationComponent&#45;&gt;ProductConfigurationModule</title>
<path fill="none" stroke="black" d="M500,-122.11C500,-122.11 500,-140.99 500,-140.99"/>
<polygon fill="black" stroke="black" points="496.5,-140.99 500,-150.99 503.5,-140.99 496.5,-140.99"/>
</g>
<!-- ProductConfigurationFormComponent  -->
<g id="node7" class="node">
<title>ProductConfigurationFormComponent </title>
<polygon fill="#fb8072" stroke="black" points="884.76,-252 647.24,-252 647.24,-216 884.76,-216 884.76,-252"/>
<text text-anchor="middle" x="766" y="-229.8" font-family="Times,serif" font-size="14.00">ProductConfigurationFormComponent </text>
</g>
<!-- ProductConfigurationModule&#45;&gt;ProductConfigurationFormComponent  -->
<g id="edge6" class="edge">
<title>ProductConfigurationModule&#45;&gt;ProductConfigurationFormComponent </title>
<path fill="none" stroke="black" stroke-dasharray="5,2" d="M590.75,-178C681.17,-178 806.63,-178 806.63,-178 806.63,-178 806.63,-205.97 806.63,-205.97"/>
<polygon fill="black" stroke="black" points="803.13,-205.97 806.63,-215.97 810.13,-205.97 803.13,-205.97"/>
</g>
<!-- ProductConfigurationMiniCartComponent  -->
<g id="node8" class="node">
<title>ProductConfigurationMiniCartComponent </title>
<polygon fill="#fb8072" stroke="black" points="629.25,-252 370.75,-252 370.75,-216 629.25,-216 629.25,-252"/>
<text text-anchor="middle" x="500" y="-229.8" font-family="Times,serif" font-size="14.00">ProductConfigurationMiniCartComponent </text>
</g>
<!-- ProductConfigurationModule&#45;&gt;ProductConfigurationMiniCartComponent  -->
<g id="edge7" class="edge">
<title>ProductConfigurationModule&#45;&gt;ProductConfigurationMiniCartComponent </title>
<path fill="none" stroke="black" stroke-dasharray="5,2" d="M500,-187.11C500,-187.11 500,-205.99 500,-205.99"/>
<polygon fill="black" stroke="black" points="496.5,-205.99 500,-215.99 503.5,-205.99 496.5,-205.99"/>
</g>
<!-- ProductConfigurationNavigationComponent  -->
<g id="node9" class="node">
<title>ProductConfigurationNavigationComponent </title>
<polygon fill="#fb8072" stroke="black" points="352.63,-252 83.37,-252 83.37,-216 352.63,-216 352.63,-252"/>
<text text-anchor="middle" x="218" y="-229.8" font-family="Times,serif" font-size="14.00">ProductConfigurationNavigationComponent </text>
</g>
<!-- ProductConfigurationModule&#45;&gt;ProductConfigurationNavigationComponent  -->
<g id="edge8" class="edge">
<title>ProductConfigurationModule&#45;&gt;ProductConfigurationNavigationComponent </title>
<path fill="none" stroke="black" stroke-dasharray="5,2" d="M409.14,-178C376.5,-178 347.58,-178 347.58,-178 347.58,-178 347.58,-205.97 347.58,-205.97"/>
<polygon fill="black" stroke="black" points="344.08,-205.97 347.58,-215.97 351.08,-205.97 344.08,-205.97"/>
</g>
<!-- DynamicFormModule -->
<g id="node5" class="node">
<title>DynamicFormModule</title>
<polygon fill="#8dd3c7" stroke="black" points="342.7,-122 339.7,-126 318.7,-126 315.7,-122 201.3,-122 201.3,-86 342.7,-86 342.7,-122"/>
<text text-anchor="middle" x="272" y="-99.8" font-family="Times,serif" font-size="14.00">DynamicFormModule</text>
</g>
<!-- DynamicFormModule&#45;&gt;ProductConfigurationModule -->
<g id="edge4" class="edge">
<title>DynamicFormModule&#45;&gt;ProductConfigurationModule</title>
<path fill="none" stroke="black" d="M272,-122.03C272,-138.4 272,-160 272,-160 272,-160 399.23,-160 399.23,-160"/>
<polygon fill="black" stroke="black" points="399.23,-163.5 409.23,-160 399.23,-156.5 399.23,-163.5"/>
</g>
<!-- FSDynamicformsModule -->
<g id="node6" class="node">
<title>FSDynamicformsModule</title>
<polygon fill="#8dd3c7" stroke="black" points="183.59,-122 180.59,-126 159.59,-126 156.59,-122 24.41,-122 24.41,-86 183.59,-86 183.59,-122"/>
<text text-anchor="middle" x="104" y="-99.8" font-family="Times,serif" font-size="14.00">FSDynamicformsModule</text>
</g>
<!-- FSDynamicformsModule&#45;&gt;ProductConfigurationModule -->
<g id="edge5" class="edge">
<title>FSDynamicformsModule&#45;&gt;ProductConfigurationModule</title>
<path fill="none" stroke="black" d="M133.49,-122.11C133.49,-141.34 133.49,-169 133.49,-169 133.49,-169 398.93,-169 398.93,-169"/>
<polygon fill="black" stroke="black" points="398.93,-172.5 408.93,-169 398.93,-165.5 398.93,-172.5"/>
</g>
</g>
</svg>
