<?xml version="1.0" encoding="UTF-8" standalone="no"?>
<!DOCTYPE svg PUBLIC "-//W3C//DTD SVG 1.1//EN"
 "http://www.w3.org/Graphics/SVG/1.1/DTD/svg11.dtd">
<!-- Generated by graphviz version 2.47.3 (20210619.1520)
 -->
<!-- Title: dependencies Pages: 1 -->
<svg width="420pt" height="247pt"
 viewBox="0.00 0.00 420.00 246.80" xmlns="http://www.w3.org/2000/svg" xmlns:xlink="http://www.w3.org/1999/xlink">
<g id="graph0" class="graph" transform="scale(1 1) rotate(0) translate(4 242.8)">
<title>dependencies</title>
<polygon fill="white" stroke="transparent" points="-4,4 -4,-242.8 416,-242.8 416,4 -4,4"/>
<text text-anchor="middle" x="206" y="-8.2" font-family="sans-serif" font-size="14.00">dependencies</text>
<g id="clust1" class="cluster">
<title>cluster_FSAddressBookModule</title>
<polygon fill="none" stroke="black" stroke-dasharray="1,5" points="8,-32.8 8,-230.8 404,-230.8 404,-32.8 8,-32.8"/>
</g>
<g id="clust2" class="cluster">
<title>cluster_FSAddressBookModule_declarations</title>
<polygon fill="none" stroke="black" points="19,-40.8 19,-92.8 393,-92.8 393,-40.8 19,-40.8"/>
</g>
<g id="clust6" class="cluster">
<title>cluster_FSAddressBookModule_exports</title>
<polygon fill="none" stroke="black" points="16,-170.8 16,-222.8 396,-222.8 396,-170.8 16,-170.8"/>
</g>
<!-- FSAddressFormComponent -->
<g id="node1" class="node">
<title>FSAddressFormComponent</title>
<polygon fill="#ffffb3" stroke="black" points="384.6,-84.8 211.4,-84.8 211.4,-48.8 384.6,-48.8 384.6,-84.8"/>
<text text-anchor="middle" x="298" y="-62.6" font-family="Times,serif" font-size="14.00">FSAddressFormComponent</text>
</g>
<!-- FSAddressBookModule -->
<g id="node3" class="node">
<title>FSAddressBookModule</title>
<polygon fill="#8dd3c7" stroke="black" points="186.82,-149.8 183.82,-153.8 162.82,-153.8 159.82,-149.8 35.18,-149.8 35.18,-113.8 186.82,-113.8 186.82,-149.8"/>
<text text-anchor="middle" x="111" y="-127.6" font-family="Times,serif" font-size="14.00">FSAddressBookModule</text>
</g>
<!-- FSAddressFormComponent&#45;&gt;FSAddressBookModule -->
<g id="edge1" class="edge">
<title>FSAddressFormComponent&#45;&gt;FSAddressBookModule</title>
<path fill="none" stroke="black" d="M326.93,-84.82C326.93,-102.17 326.93,-125.8 326.93,-125.8 326.93,-125.8 196.83,-125.8 196.83,-125.8"/>
<polygon fill="black" stroke="black" points="196.83,-122.3 186.83,-125.8 196.83,-129.3 196.83,-122.3"/>
</g>
<!-- FSAddressInfoComponent -->
<g id="node2" class="node">
<title>FSAddressInfoComponent</title>
<polygon fill="#ffffb3" stroke="black" points="193.09,-84.8 26.91,-84.8 26.91,-48.8 193.09,-48.8 193.09,-84.8"/>
<text text-anchor="middle" x="110" y="-62.6" font-family="Times,serif" font-size="14.00">FSAddressInfoComponent</text>
</g>
<!-- FSAddressInfoComponent&#45;&gt;FSAddressBookModule -->
<g id="edge2" class="edge">
<title>FSAddressInfoComponent&#45;&gt;FSAddressBookModule</title>
<path fill="none" stroke="black" d="M111,-84.91C111,-84.91 111,-103.79 111,-103.79"/>
<polygon fill="black" stroke="black" points="107.5,-103.79 111,-113.79 114.5,-103.79 107.5,-103.79"/>
</g>
<!-- FSAddressFormComponent  -->
<g id="node4" class="node">
<title>FSAddressFormComponent </title>
<polygon fill="#fb8072" stroke="black" points="388.1,-214.8 211.9,-214.8 211.9,-178.8 388.1,-178.8 388.1,-214.8"/>
<text text-anchor="middle" x="300" y="-192.6" font-family="Times,serif" font-size="14.00">FSAddressFormComponent </text>
</g>
<!-- FSAddressBookModule&#45;&gt;FSAddressFormComponent  -->
<g id="edge3" class="edge">
<title>FSAddressBookModule&#45;&gt;FSAddressFormComponent </title>
<path fill="none" stroke="black" stroke-dasharray="5,2" d="M186.91,-137.8C227.54,-137.8 269.32,-137.8 269.32,-137.8 269.32,-137.8 269.32,-168.78 269.32,-168.78"/>
<polygon fill="black" stroke="black" points="265.82,-168.78 269.32,-178.78 272.82,-168.78 265.82,-168.78"/>
</g>
<!-- FSAddressInfoComponent  -->
<g id="node5" class="node">
<title>FSAddressInfoComponent </title>
<polygon fill="#fb8072" stroke="black" points="193.59,-214.8 24.41,-214.8 24.41,-178.8 193.59,-178.8 193.59,-214.8"/>
<text text-anchor="middle" x="109" y="-192.6" font-family="Times,serif" font-size="14.00">FSAddressInfoComponent </text>
</g>
<!-- FSAddressBookModule&#45;&gt;FSAddressInfoComponent  -->
<g id="edge4" class="edge">
<title>FSAddressBookModule&#45;&gt;FSAddressInfoComponent </title>
<path fill="none" stroke="black" stroke-dasharray="5,2" d="M111,-149.91C111,-149.91 111,-168.79 111,-168.79"/>
<polygon fill="black" stroke="black" points="107.5,-168.79 111,-178.79 114.5,-168.79 107.5,-168.79"/>
</g>
</g>
</svg>
