<?xml version="1.0" encoding="UTF-8" standalone="no"?>
<!DOCTYPE svg PUBLIC "-//W3C//DTD SVG 1.1//EN"
 "http://www.w3.org/Graphics/SVG/1.1/DTD/svg11.dtd">
<!-- Generated by graphviz version 2.47.3 (20210619.1520)
 -->
<!-- Title: dependencies Pages: 1 -->
<svg width="1789pt" height="247pt"
 viewBox="0.00 0.00 1789.00 246.80" xmlns="http://www.w3.org/2000/svg" xmlns:xlink="http://www.w3.org/1999/xlink">
<g id="graph0" class="graph" transform="scale(1 1) rotate(0) translate(4 242.8)">
<title>dependencies</title>
<polygon fill="white" stroke="transparent" points="-4,4 -4,-242.8 1785,-242.8 1785,4 -4,4"/>
<text text-anchor="middle" x="890.5" y="-8.2" font-family="sans-serif" font-size="14.00">dependencies</text>
<g id="clust1" class="cluster">
<title>cluster_FnolModule</title>
<polygon fill="none" stroke="black" stroke-dasharray="1,5" points="8,-32.8 8,-230.8 1773,-230.8 1773,-32.8 8,-32.8"/>
</g>
<g id="clust2" class="cluster">
<title>cluster_FnolModule_declarations</title>
<polygon fill="none" stroke="black" points="963,-40.8 963,-92.8 1765,-92.8 1765,-40.8 963,-40.8"/>
</g>
<g id="clust7" class="cluster">
<title>cluster_FnolModule_imports</title>
<polygon fill="none" stroke="black" points="501,-40.8 501,-92.8 955,-92.8 955,-40.8 501,-40.8"/>
</g>
<g id="clust10" class="cluster">
<title>cluster_FnolModule_providers</title>
<polygon fill="none" stroke="black" points="16,-40.8 16,-92.8 493,-92.8 493,-40.8 16,-40.8"/>
</g>
<g id="clust8" class="cluster">
<title>cluster_FnolModule_exports</title>
<polygon fill="none" stroke="black" points="489,-170.8 489,-222.8 1305,-222.8 1305,-170.8 489,-170.8"/>
</g>
<!-- FNOLConfirmationComponent -->
<g id="node1" class="node">
<title>FNOLConfirmationComponent</title>
<polygon fill="#ffffb3" stroke="black" points="1756.82,-84.8 1563.18,-84.8 1563.18,-48.8 1756.82,-48.8 1756.82,-84.8"/>
<text text-anchor="middle" x="1660" y="-62.6" font-family="Times,serif" font-size="14.00">FNOLConfirmationComponent</text>
</g>
<!-- FnolModule -->
<g id="node5" class="node">
<title>FnolModule</title>
<polygon fill="#8dd3c7" stroke="black" points="930.72,-149.8 927.72,-153.8 906.72,-153.8 903.72,-149.8 845.28,-149.8 845.28,-113.8 930.72,-113.8 930.72,-149.8"/>
<text text-anchor="middle" x="888" y="-127.6" font-family="Times,serif" font-size="14.00">FnolModule</text>
</g>
<!-- FNOLConfirmationComponent&#45;&gt;FnolModule -->
<g id="edge1" class="edge">
<title>FNOLConfirmationComponent&#45;&gt;FnolModule</title>
<path fill="none" stroke="black" d="M1660,-85.08C1660,-106.12 1660,-137.8 1660,-137.8 1660,-137.8 940.88,-137.8 940.88,-137.8"/>
<polygon fill="black" stroke="black" points="940.88,-134.3 930.88,-137.8 940.88,-141.3 940.88,-134.3"/>
</g>
<!-- FNOLNavigationComponent -->
<g id="node2" class="node">
<title>FNOLNavigationComponent</title>
<polygon fill="#ffffb3" stroke="black" points="1545.09,-84.8 1364.91,-84.8 1364.91,-48.8 1545.09,-48.8 1545.09,-84.8"/>
<text text-anchor="middle" x="1455" y="-62.6" font-family="Times,serif" font-size="14.00">FNOLNavigationComponent</text>
</g>
<!-- FNOLNavigationComponent&#45;&gt;FnolModule -->
<g id="edge2" class="edge">
<title>FNOLNavigationComponent&#45;&gt;FnolModule</title>
<path fill="none" stroke="black" d="M1455,-84.91C1455,-104.14 1455,-131.8 1455,-131.8 1455,-131.8 940.62,-131.8 940.62,-131.8"/>
<polygon fill="black" stroke="black" points="940.62,-128.3 930.62,-131.8 940.62,-135.3 940.62,-128.3"/>
</g>
<!-- FNOLProgressBarComponent -->
<g id="node3" class="node">
<title>FNOLProgressBarComponent</title>
<polygon fill="#ffffb3" stroke="black" points="1347.3,-84.8 1160.7,-84.8 1160.7,-48.8 1347.3,-48.8 1347.3,-84.8"/>
<text text-anchor="middle" x="1254" y="-62.6" font-family="Times,serif" font-size="14.00">FNOLProgressBarComponent</text>
</g>
<!-- FNOLProgressBarComponent&#45;&gt;FnolModule -->
<g id="edge3" class="edge">
<title>FNOLProgressBarComponent&#45;&gt;FnolModule</title>
<path fill="none" stroke="black" d="M1229.13,-84.82C1229.13,-102.17 1229.13,-125.8 1229.13,-125.8 1229.13,-125.8 940.86,-125.8 940.86,-125.8"/>
<polygon fill="black" stroke="black" points="940.86,-122.3 930.86,-125.8 940.86,-129.3 940.86,-122.3"/>
</g>
<!-- FNOLSummaryComponent -->
<g id="node4" class="node">
<title>FNOLSummaryComponent</title>
<polygon fill="#ffffb3" stroke="black" points="1143.32,-84.8 970.68,-84.8 970.68,-48.8 1143.32,-48.8 1143.32,-84.8"/>
<text text-anchor="middle" x="1057" y="-62.6" font-family="Times,serif" font-size="14.00">FNOLSummaryComponent</text>
</g>
<!-- FNOLSummaryComponent&#45;&gt;FnolModule -->
<g id="edge4" class="edge">
<title>FNOLSummaryComponent&#45;&gt;FnolModule</title>
<path fill="none" stroke="black" d="M1026.82,-85.04C1026.82,-100.37 1026.82,-119.8 1026.82,-119.8 1026.82,-119.8 940.78,-119.8 940.78,-119.8"/>
<polygon fill="black" stroke="black" points="940.78,-116.3 930.78,-119.8 940.78,-123.3 940.78,-116.3"/>
</g>
<!-- FNOLConfirmationComponent  -->
<g id="node9" class="node">
<title>FNOLConfirmationComponent </title>
<polygon fill="#fb8072" stroke="black" points="1297.32,-214.8 1100.68,-214.8 1100.68,-178.8 1297.32,-178.8 1297.32,-214.8"/>
<text text-anchor="middle" x="1199" y="-192.6" font-family="Times,serif" font-size="14.00">FNOLConfirmationComponent </text>
</g>
<!-- FnolModule&#45;&gt;FNOLConfirmationComponent  -->
<g id="edge8" class="edge">
<title>FnolModule&#45;&gt;FNOLConfirmationComponent </title>
<path fill="none" stroke="black" stroke-dasharray="5,2" d="M930.62,-143.8C998.08,-143.8 1121.88,-143.8 1121.88,-143.8 1121.88,-143.8 1121.88,-168.56 1121.88,-168.56"/>
<polygon fill="black" stroke="black" points="1118.38,-168.56 1121.88,-178.56 1125.38,-168.56 1118.38,-168.56"/>
</g>
<!-- FNOLNavigationComponent  -->
<g id="node10" class="node">
<title>FNOLNavigationComponent </title>
<polygon fill="#fb8072" stroke="black" points="1082.59,-214.8 899.41,-214.8 899.41,-178.8 1082.59,-178.8 1082.59,-214.8"/>
<text text-anchor="middle" x="991" y="-192.6" font-family="Times,serif" font-size="14.00">FNOLNavigationComponent </text>
</g>
<!-- FnolModule&#45;&gt;FNOLNavigationComponent  -->
<g id="edge9" class="edge">
<title>FnolModule&#45;&gt;FNOLNavigationComponent </title>
<path fill="none" stroke="black" stroke-dasharray="5,2" d="M914.91,-149.91C914.91,-149.91 914.91,-168.79 914.91,-168.79"/>
<polygon fill="black" stroke="black" points="911.41,-168.79 914.91,-178.79 918.41,-168.79 911.41,-168.79"/>
</g>
<!-- FNOLProgressBarComponent  -->
<g id="node11" class="node">
<title>FNOLProgressBarComponent </title>
<polygon fill="#fb8072" stroke="black" points="880.8,-214.8 691.2,-214.8 691.2,-178.8 880.8,-178.8 880.8,-214.8"/>
<text text-anchor="middle" x="786" y="-192.6" font-family="Times,serif" font-size="14.00">FNOLProgressBarComponent </text>
</g>
<!-- FnolModule&#45;&gt;FNOLProgressBarComponent  -->
<g id="edge10" class="edge">
<title>FnolModule&#45;&gt;FNOLProgressBarComponent </title>
<path fill="none" stroke="black" stroke-dasharray="5,2" d="M863.14,-149.91C863.14,-149.91 863.14,-168.79 863.14,-168.79"/>
<polygon fill="black" stroke="black" points="859.64,-168.79 863.14,-178.79 866.64,-168.79 859.64,-168.79"/>
</g>
<!-- FNOLSummaryComponent  -->
<g id="node12" class="node">
<title>FNOLSummaryComponent </title>
<polygon fill="#fb8072" stroke="black" points="672.82,-214.8 497.18,-214.8 497.18,-178.8 672.82,-178.8 672.82,-214.8"/>
<text text-anchor="middle" x="585" y="-192.6" font-family="Times,serif" font-size="14.00">FNOLSummaryComponent </text>
</g>
<!-- FnolModule&#45;&gt;FNOLSummaryComponent  -->
<g id="edge11" class="edge">
<title>FnolModule&#45;&gt;FNOLSummaryComponent </title>
<path fill="none" stroke="black" stroke-dasharray="5,2" d="M845.33,-143.8C780.33,-143.8 663.96,-143.8 663.96,-143.8 663.96,-143.8 663.96,-168.56 663.96,-168.56"/>
<polygon fill="black" stroke="black" points="660.46,-168.56 663.96,-178.56 667.46,-168.56 660.46,-168.56"/>
</g>
<!-- AccordionModule -->
<g id="node6" class="node">
<title>AccordionModule</title>
<polygon fill="#8dd3c7" stroke="black" points="947.14,-84.8 944.14,-88.8 923.14,-88.8 920.14,-84.8 828.86,-84.8 828.86,-48.8 947.14,-48.8 947.14,-84.8"/>
<text text-anchor="middle" x="888" y="-62.6" font-family="Times,serif" font-size="14.00">AccordionModule</text>
</g>
<!-- AccordionModule&#45;&gt;FnolModule -->
<g id="edge5" class="edge">
<title>AccordionModule&#45;&gt;FnolModule</title>
<path fill="none" stroke="black" d="M888,-84.91C888,-84.91 888,-103.79 888,-103.79"/>
<polygon fill="black" stroke="black" points="884.5,-103.79 888,-113.79 891.5,-103.79 884.5,-103.79"/>
</g>
<!-- MyAccountStoreModule -->
<g id="node7" class="node">
<title>MyAccountStoreModule</title>
<polygon fill="#8dd3c7" stroke="black" points="810.97,-84.8 807.97,-88.8 786.97,-88.8 783.97,-84.8 655.03,-84.8 655.03,-48.8 810.97,-48.8 810.97,-84.8"/>
<text text-anchor="middle" x="733" y="-62.6" font-family="Times,serif" font-size="14.00">MyAccountStoreModule</text>
</g>
<!-- MyAccountStoreModule&#45;&gt;FnolModule -->
<g id="edge6" class="edge">
<title>MyAccountStoreModule&#45;&gt;FnolModule</title>
<path fill="none" stroke="black" d="M751.04,-85.04C751.04,-100.37 751.04,-119.8 751.04,-119.8 751.04,-119.8 835.04,-119.8 835.04,-119.8"/>
<polygon fill="black" stroke="black" points="835.04,-123.3 845.04,-119.8 835.04,-116.3 835.04,-123.3"/>
</g>
<!-- ProgressBarModule -->
<g id="node8" class="node">
<title>ProgressBarModule</title>
<polygon fill="#8dd3c7" stroke="black" points="636.97,-84.8 633.97,-88.8 612.97,-88.8 609.97,-84.8 509.03,-84.8 509.03,-48.8 636.97,-48.8 636.97,-84.8"/>
<text text-anchor="middle" x="573" y="-62.6" font-family="Times,serif" font-size="14.00">ProgressBarModule</text>
</g>
<!-- ProgressBarModule&#45;&gt;FnolModule -->
<g id="edge7" class="edge">
<title>ProgressBarModule&#45;&gt;FnolModule</title>
<path fill="none" stroke="black" d="M573,-84.82C573,-102.17 573,-125.8 573,-125.8 573,-125.8 835.19,-125.8 835.19,-125.8"/>
<polygon fill="black" stroke="black" points="835.19,-129.3 845.19,-125.8 835.19,-122.3 835.19,-129.3"/>
</g>
<!-- UserRequestNavigationService -->
<g id="node13" class="node">
<title>UserRequestNavigationService</title>
<ellipse fill="#fdb462" stroke="black" cx="353" cy="-66.8" rx="132.48" ry="18"/>
<text text-anchor="middle" x="353" y="-62.6" font-family="Times,serif" font-size="14.00">UserRequestNavigationService</text>
</g>
<!-- UserRequestNavigationService&#45;&gt;FnolModule -->
<g id="edge12" class="edge">
<title>UserRequestNavigationService&#45;&gt;FnolModule</title>
<path fill="none" stroke="black" d="M353,-84.91C353,-104.14 353,-131.8 353,-131.8 353,-131.8 835.12,-131.8 835.12,-131.8"/>
<polygon fill="black" stroke="black" points="835.12,-135.3 845.12,-131.8 835.12,-128.3 835.12,-135.3"/>
</g>
<!-- UserRequestService -->
<g id="node14" class="node">
<title>UserRequestService</title>
<ellipse fill="#fdb462" stroke="black" cx="113" cy="-66.8" rx="89.16" ry="18"/>
<text text-anchor="middle" x="113" y="-62.6" font-family="Times,serif" font-size="14.00">UserRequestService</text>
</g>
<!-- UserRequestService&#45;&gt;FnolModule -->
<g id="edge13" class="edge">
<title>UserRequestService&#45;&gt;FnolModule</title>
<path fill="none" stroke="black" d="M113,-85.08C113,-106.12 113,-137.8 113,-137.8 113,-137.8 835.23,-137.8 835.23,-137.8"/>
<polygon fill="black" stroke="black" points="835.23,-141.3 845.23,-137.8 835.23,-134.3 835.23,-141.3"/>
</g>
</g>
</svg>
