<?xml version="1.0" encoding="UTF-8" standalone="no"?>
<!DOCTYPE svg PUBLIC "-//W3C//DTD SVG 1.1//EN"
 "http://www.w3.org/Graphics/SVG/1.1/DTD/svg11.dtd">
<!-- Generated by graphviz version 2.46.0 (20210119.1425)
 -->
<!-- Title: dependencies Pages: 1 -->
<svg width="1789pt" height="284pt"
 viewBox="0.00 0.00 1789.00 284.00" xmlns="http://www.w3.org/2000/svg" xmlns:xlink="http://www.w3.org/1999/xlink">
<g id="graph0" class="graph" transform="scale(1 1) rotate(0) translate(4 280)">
<title>dependencies</title>
<polygon fill="white" stroke="transparent" points="-4,4 -4,-280 1785,-280 1785,4 -4,4"/>
<text text-anchor="start" x="869.51" y="-42.4" font-family="sans-serif" font-weight="bold" font-size="14.00">Legend</text>
<polygon fill="#ffffb3" stroke="transparent" points="656.5,-10 656.5,-30 676.5,-30 676.5,-10 656.5,-10"/>
<text text-anchor="start" x="680.13" y="-15.4" font-family="sans-serif" font-size="14.00"> &#160;Declarations</text>
<polygon fill="#8dd3c7" stroke="transparent" points="769.5,-10 769.5,-30 789.5,-30 789.5,-10 769.5,-10"/>
<text text-anchor="start" x="793.23" y="-15.4" font-family="sans-serif" font-size="14.00"> &#160;Module</text>
<polygon fill="#80b1d3" stroke="transparent" points="855.5,-10 855.5,-30 875.5,-30 875.5,-10 855.5,-10"/>
<text text-anchor="start" x="879.28" y="-15.4" font-family="sans-serif" font-size="14.00"> &#160;Bootstrap</text>
<polygon fill="#fdb462" stroke="transparent" points="952.5,-10 952.5,-30 972.5,-30 972.5,-10 952.5,-10"/>
<text text-anchor="start" x="976.17" y="-15.4" font-family="sans-serif" font-size="14.00"> &#160;Providers</text>
<polygon fill="#fb8072" stroke="transparent" points="1048.5,-10 1048.5,-30 1068.5,-30 1068.5,-10 1048.5,-10"/>
<text text-anchor="start" x="1072.23" y="-15.4" font-family="sans-serif" font-size="14.00"> &#160;Exports</text>
<g id="clust1" class="cluster">
<title>cluster_FnolModule</title>
<polygon fill="none" stroke="black" stroke-dasharray="1,5" points="8,-70 8,-268 1773,-268 1773,-70 8,-70"/>
</g>
<g id="clust2" class="cluster">
<title>cluster_FnolModule_declarations</title>
<polygon fill="none" stroke="black" points="963,-78 963,-130 1765,-130 1765,-78 963,-78"/>
</g>
<g id="clust8" class="cluster">
<title>cluster_FnolModule_exports</title>
<polygon fill="none" stroke="black" points="489,-208 489,-260 1305,-260 1305,-208 489,-208"/>
</g>
<g id="clust7" class="cluster">
<title>cluster_FnolModule_imports</title>
<polygon fill="none" stroke="black" points="501,-78 501,-130 955,-130 955,-78 501,-78"/>
</g>
<g id="clust10" class="cluster">
<title>cluster_FnolModule_providers</title>
<polygon fill="none" stroke="black" points="16,-78 16,-130 493,-130 493,-78 16,-78"/>
</g>
<!-- FNOLConfirmationComponent -->
<g id="node1" class="node">
<title>FNOLConfirmationComponent</title>
<polygon fill="#ffffb3" stroke="black" points="1756.82,-122 1563.18,-122 1563.18,-86 1756.82,-86 1756.82,-122"/>
<text text-anchor="middle" x="1660" y="-99.8" font-family="Times,serif" font-size="14.00">FNOLConfirmationComponent</text>
</g>
<!-- FnolModule -->
<g id="node5" class="node">
<title>FnolModule</title>
<polygon fill="#8dd3c7" stroke="black" points="930.72,-187 927.72,-191 906.72,-191 903.72,-187 845.28,-187 845.28,-151 930.72,-151 930.72,-187"/>
<text text-anchor="middle" x="888" y="-164.8" font-family="Times,serif" font-size="14.00">FnolModule</text>
</g>
<!-- FNOLConfirmationComponent&#45;&gt;FnolModule -->
<g id="edge1" class="edge">
<title>FNOLConfirmationComponent&#45;&gt;FnolModule</title>
<path fill="none" stroke="black" d="M1660,-122.28C1660,-143.32 1660,-175 1660,-175 1660,-175 940.88,-175 940.88,-175"/>
<polygon fill="black" stroke="black" points="940.88,-171.5 930.88,-175 940.88,-178.5 940.88,-171.5"/>
</g>
<!-- FNOLNavigationComponent -->
<g id="node2" class="node">
<title>FNOLNavigationComponent</title>
<polygon fill="#ffffb3" stroke="black" points="1545.09,-122 1364.91,-122 1364.91,-86 1545.09,-86 1545.09,-122"/>
<text text-anchor="middle" x="1455" y="-99.8" font-family="Times,serif" font-size="14.00">FNOLNavigationComponent</text>
</g>
<!-- FNOLNavigationComponent&#45;&gt;FnolModule -->
<g id="edge2" class="edge">
<title>FNOLNavigationComponent&#45;&gt;FnolModule</title>
<path fill="none" stroke="black" d="M1455,-122.11C1455,-141.34 1455,-169 1455,-169 1455,-169 940.62,-169 940.62,-169"/>
<polygon fill="black" stroke="black" points="940.62,-165.5 930.62,-169 940.62,-172.5 940.62,-165.5"/>
</g>
<!-- FNOLProgressBarComponent -->
<g id="node3" class="node">
<title>FNOLProgressBarComponent</title>
<polygon fill="#ffffb3" stroke="black" points="1347.3,-122 1160.7,-122 1160.7,-86 1347.3,-86 1347.3,-122"/>
<text text-anchor="middle" x="1254" y="-99.8" font-family="Times,serif" font-size="14.00">FNOLProgressBarComponent</text>
</g>
<!-- FNOLProgressBarComponent&#45;&gt;FnolModule -->
<g id="edge3" class="edge">
<title>FNOLProgressBarComponent&#45;&gt;FnolModule</title>
<path fill="none" stroke="black" d="M1229.13,-122.02C1229.13,-139.37 1229.13,-163 1229.13,-163 1229.13,-163 940.86,-163 940.86,-163"/>
<polygon fill="black" stroke="black" points="940.86,-159.5 930.86,-163 940.86,-166.5 940.86,-159.5"/>
</g>
<!-- FNOLSummaryComponent -->
<g id="node4" class="node">
<title>FNOLSummaryComponent</title>
<polygon fill="#ffffb3" stroke="black" points="1143.32,-122 970.68,-122 970.68,-86 1143.32,-86 1143.32,-122"/>
<text text-anchor="middle" x="1057" y="-99.8" font-family="Times,serif" font-size="14.00">FNOLSummaryComponent</text>
</g>
<!-- FNOLSummaryComponent&#45;&gt;FnolModule -->
<g id="edge4" class="edge">
<title>FNOLSummaryComponent&#45;&gt;FnolModule</title>
<path fill="none" stroke="black" d="M1026.82,-122.24C1026.82,-137.57 1026.82,-157 1026.82,-157 1026.82,-157 940.78,-157 940.78,-157"/>
<polygon fill="black" stroke="black" points="940.78,-153.5 930.78,-157 940.78,-160.5 940.78,-153.5"/>
</g>
<!-- FNOLConfirmationComponent  -->
<g id="node9" class="node">
<title>FNOLConfirmationComponent </title>
<polygon fill="#fb8072" stroke="black" points="1297.32,-252 1100.68,-252 1100.68,-216 1297.32,-216 1297.32,-252"/>
<text text-anchor="middle" x="1199" y="-229.8" font-family="Times,serif" font-size="14.00">FNOLConfirmationComponent </text>
</g>
<!-- FnolModule&#45;&gt;FNOLConfirmationComponent  -->
<g id="edge8" class="edge">
<title>FnolModule&#45;&gt;FNOLConfirmationComponent </title>
<path fill="none" stroke="black" stroke-dasharray="5,2" d="M930.62,-181C998.08,-181 1121.88,-181 1121.88,-181 1121.88,-181 1121.88,-205.76 1121.88,-205.76"/>
<polygon fill="black" stroke="black" points="1118.38,-205.76 1121.88,-215.76 1125.38,-205.76 1118.38,-205.76"/>
</g>
<!-- FNOLNavigationComponent  -->
<g id="node10" class="node">
<title>FNOLNavigationComponent </title>
<polygon fill="#fb8072" stroke="black" points="1082.59,-252 899.41,-252 899.41,-216 1082.59,-216 1082.59,-252"/>
<text text-anchor="middle" x="991" y="-229.8" font-family="Times,serif" font-size="14.00">FNOLNavigationComponent </text>
</g>
<!-- FnolModule&#45;&gt;FNOLNavigationComponent  -->
<g id="edge9" class="edge">
<title>FnolModule&#45;&gt;FNOLNavigationComponent </title>
<path fill="none" stroke="black" stroke-dasharray="5,2" d="M914.91,-187.11C914.91,-187.11 914.91,-205.99 914.91,-205.99"/>
<polygon fill="black" stroke="black" points="911.41,-205.99 914.91,-215.99 918.41,-205.99 911.41,-205.99"/>
</g>
<!-- FNOLProgressBarComponent  -->
<g id="node11" class="node">
<title>FNOLProgressBarComponent </title>
<polygon fill="#fb8072" stroke="black" points="880.8,-252 691.2,-252 691.2,-216 880.8,-216 880.8,-252"/>
<text text-anchor="middle" x="786" y="-229.8" font-family="Times,serif" font-size="14.00">FNOLProgressBarComponent </text>
</g>
<!-- FnolModule&#45;&gt;FNOLProgressBarComponent  -->
<g id="edge10" class="edge">
<title>FnolModule&#45;&gt;FNOLProgressBarComponent </title>
<path fill="none" stroke="black" stroke-dasharray="5,2" d="M863.14,-187.11C863.14,-187.11 863.14,-205.99 863.14,-205.99"/>
<polygon fill="black" stroke="black" points="859.64,-205.99 863.14,-215.99 866.64,-205.99 859.64,-205.99"/>
</g>
<!-- FNOLSummaryComponent  -->
<g id="node12" class="node">
<title>FNOLSummaryComponent </title>
<polygon fill="#fb8072" stroke="black" points="672.82,-252 497.18,-252 497.18,-216 672.82,-216 672.82,-252"/>
<text text-anchor="middle" x="585" y="-229.8" font-family="Times,serif" font-size="14.00">FNOLSummaryComponent </text>
</g>
<!-- FnolModule&#45;&gt;FNOLSummaryComponent  -->
<g id="edge11" class="edge">
<title>FnolModule&#45;&gt;FNOLSummaryComponent </title>
<path fill="none" stroke="black" stroke-dasharray="5,2" d="M845.33,-181C780.33,-181 663.96,-181 663.96,-181 663.96,-181 663.96,-205.76 663.96,-205.76"/>
<polygon fill="black" stroke="black" points="660.46,-205.76 663.96,-215.76 667.46,-205.76 660.46,-205.76"/>
</g>
<!-- AccordionModule -->
<g id="node6" class="node">
<title>AccordionModule</title>
<polygon fill="#8dd3c7" stroke="black" points="947.14,-122 944.14,-126 923.14,-126 920.14,-122 828.86,-122 828.86,-86 947.14,-86 947.14,-122"/>
<text text-anchor="middle" x="888" y="-99.8" font-family="Times,serif" font-size="14.00">AccordionModule</text>
</g>
<!-- AccordionModule&#45;&gt;FnolModule -->
<g id="edge5" class="edge">
<title>AccordionModule&#45;&gt;FnolModule</title>
<path fill="none" stroke="black" d="M888,-122.11C888,-122.11 888,-140.99 888,-140.99"/>
<polygon fill="black" stroke="black" points="884.5,-140.99 888,-150.99 891.5,-140.99 884.5,-140.99"/>
</g>
<!-- MyAccountStoreModule -->
<g id="node7" class="node">
<title>MyAccountStoreModule</title>
<polygon fill="#8dd3c7" stroke="black" points="810.97,-122 807.97,-126 786.97,-126 783.97,-122 655.03,-122 655.03,-86 810.97,-86 810.97,-122"/>
<text text-anchor="middle" x="733" y="-99.8" font-family="Times,serif" font-size="14.00">MyAccountStoreModule</text>
</g>
<!-- MyAccountStoreModule&#45;&gt;FnolModule -->
<g id="edge6" class="edge">
<title>MyAccountStoreModule&#45;&gt;FnolModule</title>
<path fill="none" stroke="black" d="M751.04,-122.24C751.04,-137.57 751.04,-157 751.04,-157 751.04,-157 835.04,-157 835.04,-157"/>
<polygon fill="black" stroke="black" points="835.04,-160.5 845.04,-157 835.04,-153.5 835.04,-160.5"/>
</g>
<!-- ProgressBarModule -->
<g id="node8" class="node">
<title>ProgressBarModule</title>
<polygon fill="#8dd3c7" stroke="black" points="636.97,-122 633.97,-126 612.97,-126 609.97,-122 509.03,-122 509.03,-86 636.97,-86 636.97,-122"/>
<text text-anchor="middle" x="573" y="-99.8" font-family="Times,serif" font-size="14.00">ProgressBarModule</text>
</g>
<!-- ProgressBarModule&#45;&gt;FnolModule -->
<g id="edge7" class="edge">
<title>ProgressBarModule&#45;&gt;FnolModule</title>
<path fill="none" stroke="black" d="M573,-122.02C573,-139.37 573,-163 573,-163 573,-163 835.19,-163 835.19,-163"/>
<polygon fill="black" stroke="black" points="835.19,-166.5 845.19,-163 835.19,-159.5 835.19,-166.5"/>
</g>
<!-- UserRequestNavigationService -->
<g id="node13" class="node">
<title>UserRequestNavigationService</title>
<ellipse fill="#fdb462" stroke="black" cx="353" cy="-104" rx="132.48" ry="18"/>
<text text-anchor="middle" x="353" y="-99.8" font-family="Times,serif" font-size="14.00">UserRequestNavigationService</text>
</g>
<!-- UserRequestNavigationService&#45;&gt;FnolModule -->
<g id="edge12" class="edge">
<title>UserRequestNavigationService&#45;&gt;FnolModule</title>
<path fill="none" stroke="black" d="M353,-122.11C353,-141.34 353,-169 353,-169 353,-169 835.12,-169 835.12,-169"/>
<polygon fill="black" stroke="black" points="835.12,-172.5 845.12,-169 835.12,-165.5 835.12,-172.5"/>
</g>
<!-- UserRequestService -->
<g id="node14" class="node">
<title>UserRequestService</title>
<ellipse fill="#fdb462" stroke="black" cx="113" cy="-104" rx="89.16" ry="18"/>
<text text-anchor="middle" x="113" y="-99.8" font-family="Times,serif" font-size="14.00">UserRequestService</text>
</g>
<!-- UserRequestService&#45;&gt;FnolModule -->
<g id="edge13" class="edge">
<title>UserRequestService&#45;&gt;FnolModule</title>
<path fill="none" stroke="black" d="M113,-122.28C113,-143.32 113,-175 113,-175 113,-175 835.23,-175 835.23,-175"/>
<polygon fill="black" stroke="black" points="835.23,-178.5 845.23,-175 835.23,-171.5 835.23,-178.5"/>
</g>
</g>
</svg>
