<?xml version="1.0" encoding="UTF-8" standalone="no"?>
<!DOCTYPE svg PUBLIC "-//W3C//DTD SVG 1.1//EN"
 "http://www.w3.org/Graphics/SVG/1.1/DTD/svg11.dtd">
<!-- Generated by graphviz version 2.44.1 (20200629.0846)
 -->
<!-- Title: dependencies Pages: 1 -->
<svg width="1789pt" height="284pt"
 viewBox="0.00 0.00 1789.00 284.00" xmlns="http://www.w3.org/2000/svg" xmlns:xlink="http://www.w3.org/1999/xlink">
<g id="graph0" class="graph" transform="scale(1 1) rotate(0) translate(4 280)">
<title>dependencies</title>
<polygon fill="white" stroke="transparent" points="-4,4 -4,-280 1785,-280 1785,4 -4,4"/>
<text text-anchor="start" x="869.51" y="-42.4" font-family="sans-serif" font-weight="bold" font-size="14.00">Legend</text>
<polygon fill="#ffffb3" stroke="transparent" points="656.5,-10 656.5,-30 676.5,-30 676.5,-10 656.5,-10"/>
<text text-anchor="start" x="680.13" y="-15.4" font-family="sans-serif" font-size="14.00"> &#160;Declarations</text>
<polygon fill="#8dd3c7" stroke="transparent" points="769.5,-10 769.5,-30 789.5,-30 789.5,-10 769.5,-10"/>
<text text-anchor="start" x="793.23" y="-15.4" font-family="sans-serif" font-size="14.00"> &#160;Module</text>
<polygon fill="#80b1d3" stroke="transparent" points="855.5,-10 855.5,-30 875.5,-30 875.5,-10 855.5,-10"/>
<text text-anchor="start" x="879.28" y="-15.4" font-family="sans-serif" font-size="14.00"> &#160;Bootstrap</text>
<polygon fill="#fdb462" stroke="transparent" points="952.5,-10 952.5,-30 972.5,-30 972.5,-10 952.5,-10"/>
<text text-anchor="start" x="976.17" y="-15.4" font-family="sans-serif" font-size="14.00"> &#160;Providers</text>
<polygon fill="#fb8072" stroke="transparent" points="1048.5,-10 1048.5,-30 1068.5,-30 1068.5,-10 1048.5,-10"/>
<text text-anchor="start" x="1072.23" y="-15.4" font-family="sans-serif" font-size="14.00"> &#160;Exports</text>
<g id="clust1" class="cluster">
<title>cluster_FnolModule</title>
<polygon fill="none" stroke="black" stroke-dasharray="1,5" points="8,-70 8,-268 1773,-268 1773,-70 8,-70"/>
</g>
<g id="clust7" class="cluster">
<title>cluster_FnolModule_imports</title>
<polygon fill="none" stroke="black" points="1311,-78 1311,-130 1765,-130 1765,-78 1311,-78"/>
</g>
<g id="clust8" class="cluster">
<title>cluster_FnolModule_exports</title>
<polygon fill="none" stroke="black" points="594,-208 594,-260 1410,-260 1410,-208 594,-208"/>
</g>
<g id="clust2" class="cluster">
<title>cluster_FnolModule_declarations</title>
<polygon fill="none" stroke="black" points="501,-78 501,-130 1303,-130 1303,-78 501,-78"/>
</g>
<g id="clust10" class="cluster">
<title>cluster_FnolModule_providers</title>
<polygon fill="none" stroke="black" points="16,-78 16,-130 493,-130 493,-78 16,-78"/>
</g>
<!-- FNOLConfirmationComponent -->
<g id="node1" class="node">
<title>FNOLConfirmationComponent</title>
<polygon fill="#ffffb3" stroke="black" points="1294.82,-122 1101.18,-122 1101.18,-86 1294.82,-86 1294.82,-122"/>
<text text-anchor="middle" x="1198" y="-99.8" font-family="Times,serif" font-size="14.00">FNOLConfirmationComponent</text>
</g>
<!-- FnolModule -->
<g id="node5" class="node">
<title>FnolModule</title>
<polygon fill="#8dd3c7" stroke="black" points="1035.72,-187 1032.72,-191 1011.72,-191 1008.72,-187 950.28,-187 950.28,-151 1035.72,-151 1035.72,-187"/>
<text text-anchor="middle" x="993" y="-164.8" font-family="Times,serif" font-size="14.00">FnolModule</text>
</g>
<!-- FNOLConfirmationComponent&#45;&gt;FnolModule -->
<g id="edge1" class="edge">
<title>FNOLConfirmationComponent&#45;&gt;FnolModule</title>
<path fill="none" stroke="black" d="M1144.57,-122.24C1144.57,-137.57 1144.57,-157 1144.57,-157 1144.57,-157 1045.62,-157 1045.62,-157"/>
<polygon fill="black" stroke="black" points="1045.62,-153.5 1035.62,-157 1045.62,-160.5 1045.62,-153.5"/>
</g>
<!-- FNOLNavigationComponent -->
<g id="node2" class="node">
<title>FNOLNavigationComponent</title>
<polygon fill="#ffffb3" stroke="black" points="1083.09,-122 902.91,-122 902.91,-86 1083.09,-86 1083.09,-122"/>
<text text-anchor="middle" x="993" y="-99.8" font-family="Times,serif" font-size="14.00">FNOLNavigationComponent</text>
</g>
<!-- FNOLNavigationComponent&#45;&gt;FnolModule -->
<g id="edge2" class="edge">
<title>FNOLNavigationComponent&#45;&gt;FnolModule</title>
<path fill="none" stroke="black" d="M993,-122.11C993,-122.11 993,-140.99 993,-140.99"/>
<polygon fill="black" stroke="black" points="989.5,-140.99 993,-150.99 996.5,-140.99 989.5,-140.99"/>
</g>
<!-- FNOLProgressBarComponent -->
<g id="node3" class="node">
<title>FNOLProgressBarComponent</title>
<polygon fill="#ffffb3" stroke="black" points="885.3,-122 698.7,-122 698.7,-86 885.3,-86 885.3,-122"/>
<text text-anchor="middle" x="792" y="-99.8" font-family="Times,serif" font-size="14.00">FNOLProgressBarComponent</text>
</g>
<!-- FNOLProgressBarComponent&#45;&gt;FnolModule -->
<g id="edge3" class="edge">
<title>FNOLProgressBarComponent&#45;&gt;FnolModule</title>
<path fill="none" stroke="black" d="M840.62,-122.24C840.62,-137.57 840.62,-157 840.62,-157 840.62,-157 940.15,-157 940.15,-157"/>
<polygon fill="black" stroke="black" points="940.15,-160.5 950.15,-157 940.15,-153.5 940.15,-160.5"/>
</g>
<!-- FNOLSummaryComponent -->
<g id="node4" class="node">
<title>FNOLSummaryComponent</title>
<polygon fill="#ffffb3" stroke="black" points="681.32,-122 508.68,-122 508.68,-86 681.32,-86 681.32,-122"/>
<text text-anchor="middle" x="595" y="-99.8" font-family="Times,serif" font-size="14.00">FNOLSummaryComponent</text>
</g>
<!-- FNOLSummaryComponent&#45;&gt;FnolModule -->
<g id="edge4" class="edge">
<title>FNOLSummaryComponent&#45;&gt;FnolModule</title>
<path fill="none" stroke="black" d="M641.62,-122.02C641.62,-139.37 641.62,-163 641.62,-163 641.62,-163 940.27,-163 940.27,-163"/>
<polygon fill="black" stroke="black" points="940.27,-166.5 950.27,-163 940.27,-159.5 940.27,-166.5"/>
</g>
<!-- FNOLConfirmationComponent  -->
<g id="node9" class="node">
<title>FNOLConfirmationComponent </title>
<polygon fill="#fb8072" stroke="black" points="1402.32,-252 1205.68,-252 1205.68,-216 1402.32,-216 1402.32,-252"/>
<text text-anchor="middle" x="1304" y="-229.8" font-family="Times,serif" font-size="14.00">FNOLConfirmationComponent </text>
</g>
<!-- FnolModule&#45;&gt;FNOLConfirmationComponent  -->
<g id="edge8" class="edge">
<title>FnolModule&#45;&gt;FNOLConfirmationComponent </title>
<path fill="none" stroke="black" stroke-dasharray="5,2" d="M1035.75,-181C1108.86,-181 1250.12,-181 1250.12,-181 1250.12,-181 1250.12,-205.76 1250.12,-205.76"/>
<polygon fill="black" stroke="black" points="1246.63,-205.76 1250.12,-215.76 1253.63,-205.76 1246.63,-205.76"/>
</g>
<!-- FNOLNavigationComponent  -->
<g id="node10" class="node">
<title>FNOLNavigationComponent </title>
<polygon fill="#fb8072" stroke="black" points="1187.59,-252 1004.41,-252 1004.41,-216 1187.59,-216 1187.59,-252"/>
<text text-anchor="middle" x="1096" y="-229.8" font-family="Times,serif" font-size="14.00">FNOLNavigationComponent </text>
</g>
<!-- FnolModule&#45;&gt;FNOLNavigationComponent  -->
<g id="edge9" class="edge">
<title>FnolModule&#45;&gt;FNOLNavigationComponent </title>
<path fill="none" stroke="black" stroke-dasharray="5,2" d="M1019.91,-187.11C1019.91,-187.11 1019.91,-205.99 1019.91,-205.99"/>
<polygon fill="black" stroke="black" points="1016.41,-205.99 1019.91,-215.99 1023.41,-205.99 1016.41,-205.99"/>
</g>
<!-- FNOLProgressBarComponent  -->
<g id="node11" class="node">
<title>FNOLProgressBarComponent </title>
<polygon fill="#fb8072" stroke="black" points="985.8,-252 796.2,-252 796.2,-216 985.8,-216 985.8,-252"/>
<text text-anchor="middle" x="891" y="-229.8" font-family="Times,serif" font-size="14.00">FNOLProgressBarComponent </text>
</g>
<!-- FnolModule&#45;&gt;FNOLProgressBarComponent  -->
<g id="edge10" class="edge">
<title>FnolModule&#45;&gt;FNOLProgressBarComponent </title>
<path fill="none" stroke="black" stroke-dasharray="5,2" d="M968.14,-187.11C968.14,-187.11 968.14,-205.99 968.14,-205.99"/>
<polygon fill="black" stroke="black" points="964.64,-205.99 968.14,-215.99 971.64,-205.99 964.64,-205.99"/>
</g>
<!-- FNOLSummaryComponent  -->
<g id="node12" class="node">
<title>FNOLSummaryComponent </title>
<polygon fill="#fb8072" stroke="black" points="777.82,-252 602.18,-252 602.18,-216 777.82,-216 777.82,-252"/>
<text text-anchor="middle" x="690" y="-229.8" font-family="Times,serif" font-size="14.00">FNOLSummaryComponent </text>
</g>
<!-- FnolModule&#45;&gt;FNOLSummaryComponent  -->
<g id="edge11" class="edge">
<title>FnolModule&#45;&gt;FNOLSummaryComponent </title>
<path fill="none" stroke="black" stroke-dasharray="5,2" d="M950.38,-181C877.9,-181 738.38,-181 738.38,-181 738.38,-181 738.38,-205.76 738.38,-205.76"/>
<polygon fill="black" stroke="black" points="734.88,-205.76 738.38,-215.76 741.88,-205.76 734.88,-205.76"/>
</g>
<!-- AccordionModule -->
<g id="node6" class="node">
<title>AccordionModule</title>
<polygon fill="#8dd3c7" stroke="black" points="1757.14,-122 1754.14,-126 1733.14,-126 1730.14,-122 1638.86,-122 1638.86,-86 1757.14,-86 1757.14,-122"/>
<text text-anchor="middle" x="1698" y="-99.8" font-family="Times,serif" font-size="14.00">AccordionModule</text>
</g>
<!-- AccordionModule&#45;&gt;FnolModule -->
<g id="edge5" class="edge">
<title>AccordionModule&#45;&gt;FnolModule</title>
<path fill="none" stroke="black" d="M1698,-122.28C1698,-143.32 1698,-175 1698,-175 1698,-175 1045.78,-175 1045.78,-175"/>
<polygon fill="black" stroke="black" points="1045.78,-171.5 1035.78,-175 1045.78,-178.5 1045.78,-171.5"/>
</g>
<!-- MyAccountStoreModule -->
<g id="node7" class="node">
<title>MyAccountStoreModule</title>
<polygon fill="#8dd3c7" stroke="black" points="1620.97,-122 1617.97,-126 1596.97,-126 1593.97,-122 1465.03,-122 1465.03,-86 1620.97,-86 1620.97,-122"/>
<text text-anchor="middle" x="1543" y="-99.8" font-family="Times,serif" font-size="14.00">MyAccountStoreModule</text>
</g>
<!-- MyAccountStoreModule&#45;&gt;FnolModule -->
<g id="edge6" class="edge">
<title>MyAccountStoreModule&#45;&gt;FnolModule</title>
<path fill="none" stroke="black" d="M1543,-122.11C1543,-141.34 1543,-169 1543,-169 1543,-169 1045.7,-169 1045.7,-169"/>
<polygon fill="black" stroke="black" points="1045.7,-165.5 1035.7,-169 1045.7,-172.5 1045.7,-165.5"/>
</g>
<!-- ProgressBarModule -->
<g id="node8" class="node">
<title>ProgressBarModule</title>
<polygon fill="#8dd3c7" stroke="black" points="1446.97,-122 1443.97,-126 1422.97,-126 1419.97,-122 1319.03,-122 1319.03,-86 1446.97,-86 1446.97,-122"/>
<text text-anchor="middle" x="1383" y="-99.8" font-family="Times,serif" font-size="14.00">ProgressBarModule</text>
</g>
<!-- ProgressBarModule&#45;&gt;FnolModule -->
<g id="edge7" class="edge">
<title>ProgressBarModule&#45;&gt;FnolModule</title>
<path fill="none" stroke="black" d="M1360.71,-122.02C1360.71,-139.37 1360.71,-163 1360.71,-163 1360.71,-163 1045.9,-163 1045.9,-163"/>
<polygon fill="black" stroke="black" points="1045.9,-159.5 1035.9,-163 1045.9,-166.5 1045.9,-159.5"/>
</g>
<!-- UserRequestNavigationService -->
<g id="node13" class="node">
<title>UserRequestNavigationService</title>
<ellipse fill="#fdb462" stroke="black" cx="353" cy="-104" rx="132.48" ry="18"/>
<text text-anchor="middle" x="353" y="-99.8" font-family="Times,serif" font-size="14.00">UserRequestNavigationService</text>
</g>
<!-- UserRequestNavigationService&#45;&gt;FnolModule -->
<g id="edge12" class="edge">
<title>UserRequestNavigationService&#45;&gt;FnolModule</title>
<path fill="none" stroke="black" d="M353,-122.11C353,-141.34 353,-169 353,-169 353,-169 940.01,-169 940.01,-169"/>
<polygon fill="black" stroke="black" points="940.01,-172.5 950.01,-169 940.01,-165.5 940.01,-172.5"/>
</g>
<!-- UserRequestService -->
<g id="node14" class="node">
<title>UserRequestService</title>
<ellipse fill="#fdb462" stroke="black" cx="113" cy="-104" rx="89.16" ry="18"/>
<text text-anchor="middle" x="113" y="-99.8" font-family="Times,serif" font-size="14.00">UserRequestService</text>
</g>
<!-- UserRequestService&#45;&gt;FnolModule -->
<g id="edge13" class="edge">
<title>UserRequestService&#45;&gt;FnolModule</title>
<path fill="none" stroke="black" d="M113,-122.28C113,-143.32 113,-175 113,-175 113,-175 940.26,-175 940.26,-175"/>
<polygon fill="black" stroke="black" points="940.26,-178.5 950.26,-175 940.26,-171.5 940.26,-178.5"/>
</g>
</g>
</svg>
