<?xml version="1.0" encoding="UTF-8" standalone="no"?>
<!DOCTYPE svg PUBLIC "-//W3C//DTD SVG 1.1//EN"
 "http://www.w3.org/Graphics/SVG/1.1/DTD/svg11.dtd">
<!-- Generated by graphviz version 2.46.0 (20210119.1425)
 -->
<!-- Title: dependencies Pages: 1 -->
<svg width="2900pt" height="284pt"
 viewBox="0.00 0.00 2900.00 284.00" xmlns="http://www.w3.org/2000/svg" xmlns:xlink="http://www.w3.org/1999/xlink">
<g id="graph0" class="graph" transform="scale(1 1) rotate(0) translate(4 280)">
<title>dependencies</title>
<polygon fill="white" stroke="transparent" points="-4,4 -4,-280 2896,-280 2896,4 -4,4"/>
<text text-anchor="start" x="1425.01" y="-42.4" font-family="sans-serif" font-weight="bold" font-size="14.00">Legend</text>
<polygon fill="#ffffb3" stroke="transparent" points="1212,-10 1212,-30 1232,-30 1232,-10 1212,-10"/>
<text text-anchor="start" x="1235.63" y="-15.4" font-family="sans-serif" font-size="14.00"> &#160;Declarations</text>
<polygon fill="#8dd3c7" stroke="transparent" points="1325,-10 1325,-30 1345,-30 1345,-10 1325,-10"/>
<text text-anchor="start" x="1348.73" y="-15.4" font-family="sans-serif" font-size="14.00"> &#160;Module</text>
<polygon fill="#80b1d3" stroke="transparent" points="1411,-10 1411,-30 1431,-30 1431,-10 1411,-10"/>
<text text-anchor="start" x="1434.78" y="-15.4" font-family="sans-serif" font-size="14.00"> &#160;Bootstrap</text>
<polygon fill="#fdb462" stroke="transparent" points="1508,-10 1508,-30 1528,-30 1528,-10 1508,-10"/>
<text text-anchor="start" x="1531.67" y="-15.4" font-family="sans-serif" font-size="14.00"> &#160;Providers</text>
<polygon fill="#fb8072" stroke="transparent" points="1604,-10 1604,-30 1624,-30 1624,-10 1604,-10"/>
<text text-anchor="start" x="1627.73" y="-15.4" font-family="sans-serif" font-size="14.00"> &#160;Exports</text>
<g id="clust1" class="cluster">
<title>cluster_CmsLibModule</title>
<polygon fill="none" stroke="black" stroke-dasharray="1,5" points="8,-70 8,-268 2884,-268 2884,-70 8,-70"/>
</g>
<g id="clust3" class="cluster">
<title>cluster_CmsLibModule_imports</title>
<polygon fill="none" stroke="black" points="118,-78 118,-130 2772,-130 2772,-78 118,-78"/>
</g>
<g id="clust4" class="cluster">
<title>cluster_CmsLibModule_exports</title>
<polygon fill="none" stroke="black" points="16,-208 16,-260 2876,-260 2876,-208 16,-208"/>
</g>
<!-- AgentModule -->
<g id="node1" class="node">
<title>AgentModule</title>
<polygon fill="#8dd3c7" stroke="black" points="2763.76,-122 2760.76,-126 2739.76,-126 2736.76,-122 2670.24,-122 2670.24,-86 2763.76,-86 2763.76,-122"/>
<text text-anchor="middle" x="2717" y="-99.8" font-family="Times,serif" font-size="14.00">AgentModule</text>
</g>
<!-- CmsLibModule -->
<g id="node18" class="node">
<title>CmsLibModule</title>
<polygon fill="#8dd3c7" stroke="black" points="1433.17,-187 1430.17,-191 1409.17,-191 1406.17,-187 1328.83,-187 1328.83,-151 1433.17,-151 1433.17,-187"/>
<text text-anchor="middle" x="1381" y="-164.8" font-family="Times,serif" font-size="14.00">CmsLibModule</text>
</g>
<!-- AgentModule&#45;&gt;CmsLibModule -->
<g id="edge1" class="edge">
<title>AgentModule&#45;&gt;CmsLibModule</title>
<path fill="none" stroke="black" d="M2711.43,-122.17C2711.43,-141.09 2711.43,-168 2711.43,-168 2711.43,-168 1443.56,-168 1443.56,-168"/>
<polygon fill="black" stroke="black" points="1443.56,-164.5 1433.56,-168 1443.56,-171.5 1443.56,-164.5"/>
</g>
<!-- BannerModule -->
<g id="node2" class="node">
<title>BannerModule</title>
<polygon fill="#8dd3c7" stroke="black" points="2651.98,-122 2648.98,-126 2627.98,-126 2624.98,-122 2552.02,-122 2552.02,-86 2651.98,-86 2651.98,-122"/>
<text text-anchor="middle" x="2602" y="-99.8" font-family="Times,serif" font-size="14.00">BannerModule</text>
</g>
<!-- BannerModule&#45;&gt;CmsLibModule -->
<g id="edge2" class="edge">
<title>BannerModule&#45;&gt;CmsLibModule</title>
<path fill="none" stroke="black" d="M2591.53,-122.27C2591.53,-140.56 2591.53,-166 2591.53,-166 2591.53,-166 1443.4,-166 1443.4,-166"/>
<polygon fill="black" stroke="black" points="1443.4,-162.5 1433.4,-166 1443.4,-169.5 1443.4,-162.5"/>
</g>
<!-- CategoryFeatureCarouselModule -->
<g id="node3" class="node">
<title>CategoryFeatureCarouselModule</title>
<polygon fill="#8dd3c7" stroke="black" points="2534.11,-122 2531.11,-126 2510.11,-126 2507.11,-122 2331.89,-122 2331.89,-86 2534.11,-86 2534.11,-122"/>
<text text-anchor="middle" x="2433" y="-99.8" font-family="Times,serif" font-size="14.00">CategoryFeatureCarouselModule</text>
</g>
<!-- CategoryFeatureCarouselModule&#45;&gt;CmsLibModule -->
<g id="edge3" class="edge">
<title>CategoryFeatureCarouselModule&#45;&gt;CmsLibModule</title>
<path fill="none" stroke="black" d="M2369.43,-122C2369.43,-139.68 2369.43,-164 2369.43,-164 2369.43,-164 1443.44,-164 1443.44,-164"/>
<polygon fill="black" stroke="black" points="1443.44,-160.5 1433.44,-164 1443.44,-167.5 1443.44,-160.5"/>
</g>
<!-- CategoryFeatureModule -->
<g id="node4" class="node">
<title>CategoryFeatureModule</title>
<polygon fill="#8dd3c7" stroke="black" points="2313.34,-122 2310.34,-126 2289.34,-126 2286.34,-122 2160.66,-122 2160.66,-86 2313.34,-86 2313.34,-122"/>
<text text-anchor="middle" x="2237" y="-99.8" font-family="Times,serif" font-size="14.00">CategoryFeatureModule</text>
</g>
<!-- CategoryFeatureModule&#45;&gt;CmsLibModule -->
<g id="edge4" class="edge">
<title>CategoryFeatureModule&#45;&gt;CmsLibModule</title>
<path fill="none" stroke="black" d="M2196.93,-122.03C2196.93,-139.06 2196.93,-162 2196.93,-162 2196.93,-162 1443.28,-162 1443.28,-162"/>
<polygon fill="black" stroke="black" points="1443.28,-158.5 1433.28,-162 1443.28,-165.5 1443.28,-158.5"/>
</g>
<!-- ChangeProcessModule -->
<g id="node5" class="node">
<title>ChangeProcessModule</title>
<polygon fill="#8dd3c7" stroke="black" points="2142.58,-122 2139.58,-126 2118.58,-126 2115.58,-122 1997.42,-122 1997.42,-86 2142.58,-86 2142.58,-122"/>
<text text-anchor="middle" x="2070" y="-99.8" font-family="Times,serif" font-size="14.00">ChangeProcessModule</text>
</g>
<!-- ChangeProcessModule&#45;&gt;CmsLibModule -->
<g id="edge5" class="edge">
<title>ChangeProcessModule&#45;&gt;CmsLibModule</title>
<path fill="none" stroke="black" d="M2032.11,-122.03C2032.11,-138.4 2032.11,-160 2032.11,-160 2032.11,-160 1443.18,-160 1443.18,-160"/>
<polygon fill="black" stroke="black" points="1443.18,-156.5 1433.18,-160 1443.18,-163.5 1443.18,-156.5"/>
</g>
<!-- CmsFormSubmitModule -->
<g id="node6" class="node">
<title>CmsFormSubmitModule</title>
<polygon fill="#8dd3c7" stroke="black" points="1979.01,-122 1976.01,-126 1955.01,-126 1952.01,-122 1822.99,-122 1822.99,-86 1979.01,-86 1979.01,-122"/>
<text text-anchor="middle" x="1901" y="-99.8" font-family="Times,serif" font-size="14.00">CmsFormSubmitModule</text>
</g>
<!-- CmsFormSubmitModule&#45;&gt;CmsLibModule -->
<g id="edge6" class="edge">
<title>CmsFormSubmitModule&#45;&gt;CmsLibModule</title>
<path fill="none" stroke="black" d="M1856.34,-122.28C1856.34,-137.95 1856.34,-158 1856.34,-158 1856.34,-158 1443.23,-158 1443.23,-158"/>
<polygon fill="black" stroke="black" points="1443.23,-154.5 1433.23,-158 1443.23,-161.5 1443.23,-154.5"/>
</g>
<!-- ComparisonTableModule -->
<g id="node7" class="node">
<title>ComparisonTableModule</title>
<polygon fill="#8dd3c7" stroke="black" points="1804.86,-122 1801.86,-126 1780.86,-126 1777.86,-122 1645.14,-122 1645.14,-86 1804.86,-86 1804.86,-122"/>
<text text-anchor="middle" x="1725" y="-99.8" font-family="Times,serif" font-size="14.00">ComparisonTableModule</text>
</g>
<!-- ComparisonTableModule&#45;&gt;CmsLibModule -->
<g id="edge7" class="edge">
<title>ComparisonTableModule&#45;&gt;CmsLibModule</title>
<path fill="none" stroke="black" d="M1676.49,-122.19C1676.49,-137.18 1676.49,-156 1676.49,-156 1676.49,-156 1443.49,-156 1443.49,-156"/>
<polygon fill="black" stroke="black" points="1443.49,-152.5 1433.49,-156 1443.49,-159.5 1443.49,-152.5"/>
</g>
<!-- CustomContainerModule -->
<g id="node8" class="node">
<title>CustomContainerModule</title>
<polygon fill="#8dd3c7" stroke="black" points="1627.32,-122 1624.32,-126 1603.32,-126 1600.32,-122 1468.68,-122 1468.68,-86 1627.32,-86 1627.32,-122"/>
<text text-anchor="middle" x="1548" y="-99.8" font-family="Times,serif" font-size="14.00">CustomContainerModule</text>
</g>
<!-- CustomContainerModule&#45;&gt;CmsLibModule -->
<g id="edge8" class="edge">
<title>CustomContainerModule&#45;&gt;CmsLibModule</title>
<path fill="none" stroke="black" d="M1498.52,-122.05C1498.52,-136.37 1498.52,-154 1498.52,-154 1498.52,-154 1443.23,-154 1443.23,-154"/>
<polygon fill="black" stroke="black" points="1443.23,-150.5 1433.23,-154 1443.23,-157.5 1443.23,-150.5"/>
</g>
<!-- FSLoginFormModule -->
<g id="node9" class="node">
<title>FSLoginFormModule</title>
<polygon fill="#8dd3c7" stroke="black" points="1450.39,-122 1447.39,-126 1426.39,-126 1423.39,-122 1311.61,-122 1311.61,-86 1450.39,-86 1450.39,-122"/>
<text text-anchor="middle" x="1381" y="-99.8" font-family="Times,serif" font-size="14.00">FSLoginFormModule</text>
</g>
<!-- FSLoginFormModule&#45;&gt;CmsLibModule -->
<g id="edge9" class="edge">
<title>FSLoginFormModule&#45;&gt;CmsLibModule</title>
<path fill="none" stroke="black" d="M1381,-122.11C1381,-122.11 1381,-140.99 1381,-140.99"/>
<polygon fill="black" stroke="black" points="1377.5,-140.99 1381,-150.99 1384.5,-140.99 1377.5,-140.99"/>
</g>
<!-- FSRegisterModule -->
<g id="node10" class="node">
<title>FSRegisterModule</title>
<polygon fill="#8dd3c7" stroke="black" points="1293.77,-122 1290.77,-126 1269.77,-126 1266.77,-122 1172.23,-122 1172.23,-86 1293.77,-86 1293.77,-122"/>
<text text-anchor="middle" x="1233" y="-99.8" font-family="Times,serif" font-size="14.00">FSRegisterModule</text>
</g>
<!-- FSRegisterModule&#45;&gt;CmsLibModule -->
<g id="edge10" class="edge">
<title>FSRegisterModule&#45;&gt;CmsLibModule</title>
<path fill="none" stroke="black" d="M1268.12,-122.05C1268.12,-136.37 1268.12,-154 1268.12,-154 1268.12,-154 1318.53,-154 1318.53,-154"/>
<polygon fill="black" stroke="black" points="1318.53,-157.5 1328.53,-154 1318.53,-150.5 1318.53,-157.5"/>
</g>
<!-- FnolModule -->
<g id="node11" class="node">
<title>FnolModule</title>
<polygon fill="#8dd3c7" stroke="black" points="1154.72,-122 1151.72,-126 1130.72,-126 1127.72,-122 1069.28,-122 1069.28,-86 1154.72,-86 1154.72,-122"/>
<text text-anchor="middle" x="1112" y="-99.8" font-family="Times,serif" font-size="14.00">FnolModule</text>
</g>
<!-- FnolModule&#45;&gt;CmsLibModule -->
<g id="edge11" class="edge">
<title>FnolModule&#45;&gt;CmsLibModule</title>
<path fill="none" stroke="black" d="M1145.12,-122.19C1145.12,-137.18 1145.12,-156 1145.12,-156 1145.12,-156 1318.65,-156 1318.65,-156"/>
<polygon fill="black" stroke="black" points="1318.65,-159.5 1328.65,-156 1318.65,-152.5 1318.65,-159.5"/>
</g>
<!-- GeneralInformationModule -->
<g id="node12" class="node">
<title>GeneralInformationModule</title>
<polygon fill="#8dd3c7" stroke="black" points="1051.22,-122 1048.22,-126 1027.22,-126 1024.22,-122 880.78,-122 880.78,-86 1051.22,-86 1051.22,-122"/>
<text text-anchor="middle" x="966" y="-99.8" font-family="Times,serif" font-size="14.00">GeneralInformationModule</text>
</g>
<!-- GeneralInformationModule&#45;&gt;CmsLibModule -->
<g id="edge12" class="edge">
<title>GeneralInformationModule&#45;&gt;CmsLibModule</title>
<path fill="none" stroke="black" d="M997.62,-122.28C997.62,-137.95 997.62,-158 997.62,-158 997.62,-158 1318.5,-158 1318.5,-158"/>
<polygon fill="black" stroke="black" points="1318.5,-161.5 1328.5,-158 1318.5,-154.5 1318.5,-161.5"/>
</g>
<!-- MyAccountModule -->
<g id="node13" class="node">
<title>MyAccountModule</title>
<polygon fill="#8dd3c7" stroke="black" points="862.42,-122 859.42,-126 838.42,-126 835.42,-122 735.58,-122 735.58,-86 862.42,-86 862.42,-122"/>
<text text-anchor="middle" x="799" y="-99.8" font-family="Times,serif" font-size="14.00">MyAccountModule</text>
</g>
<!-- MyAccountModule&#45;&gt;CmsLibModule -->
<g id="edge13" class="edge">
<title>MyAccountModule&#45;&gt;CmsLibModule</title>
<path fill="none" stroke="black" d="M829.12,-122.03C829.12,-138.4 829.12,-160 829.12,-160 829.12,-160 1318.58,-160 1318.58,-160"/>
<polygon fill="black" stroke="black" points="1318.58,-163.5 1328.58,-160 1318.58,-156.5 1318.58,-163.5"/>
</g>
<!-- NotFoundModule -->
<g id="node14" class="node">
<title>NotFoundModule</title>
<polygon fill="#8dd3c7" stroke="black" points="718.33,-122 715.33,-126 694.33,-126 691.33,-122 601.67,-122 601.67,-86 718.33,-86 718.33,-122"/>
<text text-anchor="middle" x="660" y="-99.8" font-family="Times,serif" font-size="14.00">NotFoundModule</text>
</g>
<!-- NotFoundModule&#45;&gt;CmsLibModule -->
<g id="edge14" class="edge">
<title>NotFoundModule&#45;&gt;CmsLibModule</title>
<path fill="none" stroke="black" d="M688.12,-122.03C688.12,-139.06 688.12,-162 688.12,-162 688.12,-162 1318.64,-162 1318.64,-162"/>
<polygon fill="black" stroke="black" points="1318.64,-165.5 1328.64,-162 1318.64,-158.5 1318.64,-165.5"/>
</g>
<!-- PersonalDetailsModule -->
<g id="node15" class="node">
<title>PersonalDetailsModule</title>
<polygon fill="#8dd3c7" stroke="black" points="583.91,-122 580.91,-126 559.91,-126 556.91,-122 436.09,-122 436.09,-86 583.91,-86 583.91,-122"/>
<text text-anchor="middle" x="510" y="-99.8" font-family="Times,serif" font-size="14.00">PersonalDetailsModule</text>
</g>
<!-- PersonalDetailsModule&#45;&gt;CmsLibModule -->
<g id="edge15" class="edge">
<title>PersonalDetailsModule&#45;&gt;CmsLibModule</title>
<path fill="none" stroke="black" d="M536.62,-122C536.62,-139.68 536.62,-164 536.62,-164 536.62,-164 1318.82,-164 1318.82,-164"/>
<polygon fill="black" stroke="black" points="1318.82,-167.5 1328.82,-164 1318.82,-160.5 1318.82,-167.5"/>
</g>
<!-- ProductAssignmentModule -->
<g id="node16" class="node">
<title>ProductAssignmentModule</title>
<polygon fill="#8dd3c7" stroke="black" points="417.98,-122 414.98,-126 393.98,-126 390.98,-122 248.02,-122 248.02,-86 417.98,-86 417.98,-122"/>
<text text-anchor="middle" x="333" y="-99.8" font-family="Times,serif" font-size="14.00">ProductAssignmentModule</text>
</g>
<!-- ProductAssignmentModule&#45;&gt;CmsLibModule -->
<g id="edge16" class="edge">
<title>ProductAssignmentModule&#45;&gt;CmsLibModule</title>
<path fill="none" stroke="black" d="M358.12,-122.27C358.12,-140.56 358.12,-166 358.12,-166 358.12,-166 1318.52,-166 1318.52,-166"/>
<polygon fill="black" stroke="black" points="1318.52,-169.5 1328.52,-166 1318.51,-162.5 1318.52,-169.5"/>
</g>
<!-- ProductModule -->
<g id="node17" class="node">
<title>ProductModule</title>
<polygon fill="#8dd3c7" stroke="black" points="229.6,-122 226.6,-126 205.6,-126 202.6,-122 126.4,-122 126.4,-86 229.6,-86 229.6,-122"/>
<text text-anchor="middle" x="178" y="-99.8" font-family="Times,serif" font-size="14.00">ProductModule</text>
</g>
<!-- ProductModule&#45;&gt;CmsLibModule -->
<g id="edge17" class="edge">
<title>ProductModule&#45;&gt;CmsLibModule</title>
<path fill="none" stroke="black" d="M201.62,-122.17C201.62,-141.09 201.62,-168 201.62,-168 201.62,-168 1318.8,-168 1318.8,-168"/>
<polygon fill="black" stroke="black" points="1318.8,-171.5 1328.8,-168 1318.8,-164.5 1318.8,-171.5"/>
</g>
<!-- AgentModule  -->
<g id="node19" class="node">
<title>AgentModule </title>
<polygon fill="#fb8072" stroke="black" points="2867.76,-252 2770.24,-252 2770.24,-216 2867.76,-216 2867.76,-252"/>
<text text-anchor="middle" x="2819" y="-229.8" font-family="Times,serif" font-size="14.00">AgentModule </text>
</g>
<!-- CmsLibModule&#45;&gt;AgentModule  -->
<g id="edge18" class="edge">
<title>CmsLibModule&#45;&gt;AgentModule </title>
<path fill="none" stroke="black" stroke-dasharray="5,2" d="M1433.46,-171C1692.08,-171 2819,-171 2819,-171 2819,-171 2819,-205.78 2819,-205.78"/>
<polygon fill="black" stroke="black" points="2815.5,-205.78 2819,-215.78 2822.5,-205.78 2815.5,-205.78"/>
</g>
<!-- BannerModule  -->
<g id="node20" class="node">
<title>BannerModule </title>
<polygon fill="#fb8072" stroke="black" points="2752.98,-252 2649.02,-252 2649.02,-216 2752.98,-216 2752.98,-252"/>
<text text-anchor="middle" x="2701" y="-229.8" font-family="Times,serif" font-size="14.00">BannerModule </text>
</g>
<!-- CmsLibModule&#45;&gt;BannerModule  -->
<g id="edge19" class="edge">
<title>CmsLibModule&#45;&gt;BannerModule </title>
<path fill="none" stroke="black" stroke-dasharray="5,2" d="M1433.57,-173C1674.44,-173 2661.05,-173 2661.05,-173 2661.05,-173 2661.05,-205.7 2661.05,-205.7"/>
<polygon fill="black" stroke="black" points="2657.55,-205.7 2661.05,-215.7 2664.55,-205.7 2657.55,-205.7"/>
</g>
<!-- CategoryFeatureCarouselModule  -->
<g id="node21" class="node">
<title>CategoryFeatureCarouselModule </title>
<polygon fill="#fb8072" stroke="black" points="2631.11,-252 2424.89,-252 2424.89,-216 2631.11,-216 2631.11,-252"/>
<text text-anchor="middle" x="2528" y="-229.8" font-family="Times,serif" font-size="14.00">CategoryFeatureCarouselModule </text>
</g>
<!-- CmsLibModule&#45;&gt;CategoryFeatureCarouselModule  -->
<g id="edge20" class="edge">
<title>CmsLibModule&#45;&gt;CategoryFeatureCarouselModule </title>
<path fill="none" stroke="black" stroke-dasharray="5,2" d="M1433.25,-175C1651.58,-175 2479.62,-175 2479.62,-175 2479.62,-175 2479.62,-205.98 2479.62,-205.98"/>
<polygon fill="black" stroke="black" points="2476.13,-205.98 2479.62,-215.98 2483.13,-205.98 2476.13,-205.98"/>
</g>
<!-- CategoryFeatureModule  -->
<g id="node22" class="node">
<title>CategoryFeatureModule </title>
<polygon fill="#fb8072" stroke="black" points="2407.34,-252 2250.66,-252 2250.66,-216 2407.34,-216 2407.34,-252"/>
<text text-anchor="middle" x="2329" y="-229.8" font-family="Times,serif" font-size="14.00">CategoryFeatureModule </text>
</g>
<!-- CmsLibModule&#45;&gt;CategoryFeatureModule  -->
<g id="edge21" class="edge">
<title>CmsLibModule&#45;&gt;CategoryFeatureModule </title>
<path fill="none" stroke="black" stroke-dasharray="5,2" d="M1433.34,-177C1625.67,-177 2282.12,-177 2282.12,-177 2282.12,-177 2282.12,-205.96 2282.12,-205.96"/>
<polygon fill="black" stroke="black" points="2278.63,-205.96 2282.12,-215.96 2285.63,-205.96 2278.63,-205.96"/>
</g>
<!-- ChangeProcessModule  -->
<g id="node23" class="node">
<title>ChangeProcessModule </title>
<polygon fill="#fb8072" stroke="black" points="2233.08,-252 2084.92,-252 2084.92,-216 2233.08,-216 2233.08,-252"/>
<text text-anchor="middle" x="2159" y="-229.8" font-family="Times,serif" font-size="14.00">ChangeProcessModule </text>
</g>
<!-- CmsLibModule&#45;&gt;ChangeProcessModule  -->
<g id="edge22" class="edge">
<title>CmsLibModule&#45;&gt;ChangeProcessModule </title>
<path fill="none" stroke="black" stroke-dasharray="5,2" d="M1433.39,-179C1601.07,-179 2113.62,-179 2113.62,-179 2113.62,-179 2113.62,-205.99 2113.62,-205.99"/>
<polygon fill="black" stroke="black" points="2110.13,-205.99 2113.62,-215.99 2117.13,-205.99 2110.13,-205.99"/>
</g>
<!-- CmsFormSubmitModule  -->
<g id="node24" class="node">
<title>CmsFormSubmitModule </title>
<polygon fill="#fb8072" stroke="black" points="2066.51,-252 1907.49,-252 1907.49,-216 2066.51,-216 2066.51,-252"/>
<text text-anchor="middle" x="1987" y="-229.8" font-family="Times,serif" font-size="14.00">CmsFormSubmitModule </text>
</g>
<!-- CmsLibModule&#45;&gt;CmsFormSubmitModule  -->
<g id="edge23" class="edge">
<title>CmsLibModule&#45;&gt;CmsFormSubmitModule </title>
<path fill="none" stroke="black" stroke-dasharray="5,2" d="M1433.38,-181C1572.93,-181 1943.12,-181 1943.12,-181 1943.12,-181 1943.12,-205.76 1943.12,-205.76"/>
<polygon fill="black" stroke="black" points="1939.63,-205.76 1943.12,-215.76 1946.63,-205.76 1939.63,-205.76"/>
</g>
<!-- ComparisonTableModule  -->
<g id="node25" class="node">
<title>ComparisonTableModule </title>
<polygon fill="#fb8072" stroke="black" points="1889.86,-252 1726.14,-252 1726.14,-216 1889.86,-216 1889.86,-252"/>
<text text-anchor="middle" x="1808" y="-229.8" font-family="Times,serif" font-size="14.00">ComparisonTableModule </text>
</g>
<!-- CmsLibModule&#45;&gt;ComparisonTableModule  -->
<g id="edge24" class="edge">
<title>CmsLibModule&#45;&gt;ComparisonTableModule </title>
<path fill="none" stroke="black" stroke-dasharray="5,2" d="M1433.27,-183C1538.44,-183 1765.62,-183 1765.62,-183 1765.62,-183 1765.62,-205.88 1765.62,-205.88"/>
<polygon fill="black" stroke="black" points="1762.13,-205.88 1765.62,-215.88 1769.13,-205.88 1762.13,-205.88"/>
</g>
<!-- CustomContainerModule  -->
<g id="node26" class="node">
<title>CustomContainerModule </title>
<polygon fill="#fb8072" stroke="black" points="1707.82,-252 1546.18,-252 1546.18,-216 1707.82,-216 1707.82,-252"/>
<text text-anchor="middle" x="1627" y="-229.8" font-family="Times,serif" font-size="14.00">CustomContainerModule </text>
</g>
<!-- CmsLibModule&#45;&gt;CustomContainerModule  -->
<g id="edge25" class="edge">
<title>CmsLibModule&#45;&gt;CustomContainerModule </title>
<path fill="none" stroke="black" stroke-dasharray="5,2" d="M1433.42,-185C1494.34,-185 1586.62,-185 1586.62,-185 1586.62,-185 1586.62,-205.75 1586.62,-205.75"/>
<polygon fill="black" stroke="black" points="1583.13,-205.75 1586.62,-215.75 1590.13,-205.75 1583.13,-205.75"/>
</g>
<!-- FSLoginFormModule  -->
<g id="node27" class="node">
<title>FSLoginFormModule </title>
<polygon fill="#fb8072" stroke="black" points="1528.39,-252 1385.61,-252 1385.61,-216 1528.39,-216 1528.39,-252"/>
<text text-anchor="middle" x="1457" y="-229.8" font-family="Times,serif" font-size="14.00">FSLoginFormModule </text>
</g>
<!-- CmsLibModule&#45;&gt;FSLoginFormModule  -->
<g id="edge26" class="edge">
<title>CmsLibModule&#45;&gt;FSLoginFormModule </title>
<path fill="none" stroke="black" stroke-dasharray="5,2" d="M1409.57,-187.11C1409.57,-187.11 1409.57,-205.99 1409.57,-205.99"/>
<polygon fill="black" stroke="black" points="1406.07,-205.99 1409.57,-215.99 1413.07,-205.99 1406.07,-205.99"/>
</g>
<!-- FSRegisterModule  -->
<g id="node28" class="node">
<title>FSRegisterModule </title>
<polygon fill="#fb8072" stroke="black" points="1367.77,-252 1242.23,-252 1242.23,-216 1367.77,-216 1367.77,-252"/>
<text text-anchor="middle" x="1305" y="-229.8" font-family="Times,serif" font-size="14.00">FSRegisterModule </text>
</g>
<!-- CmsLibModule&#45;&gt;FSRegisterModule  -->
<g id="edge27" class="edge">
<title>CmsLibModule&#45;&gt;FSRegisterModule </title>
<path fill="none" stroke="black" stroke-dasharray="5,2" d="M1348.15,-187.11C1348.15,-187.11 1348.15,-205.99 1348.15,-205.99"/>
<polygon fill="black" stroke="black" points="1344.65,-205.99 1348.15,-215.99 1351.65,-205.99 1344.65,-205.99"/>
</g>
<!-- FnolModule  -->
<g id="node29" class="node">
<title>FnolModule </title>
<polygon fill="#fb8072" stroke="black" points="1224.22,-252 1135.78,-252 1135.78,-216 1224.22,-216 1224.22,-252"/>
<text text-anchor="middle" x="1180" y="-229.8" font-family="Times,serif" font-size="14.00">FnolModule </text>
</g>
<!-- CmsLibModule&#45;&gt;FnolModule  -->
<g id="edge28" class="edge">
<title>CmsLibModule&#45;&gt;FnolModule </title>
<path fill="none" stroke="black" stroke-dasharray="5,2" d="M1328.63,-185C1274.62,-185 1198.24,-185 1198.24,-185 1198.24,-185 1198.24,-205.75 1198.24,-205.75"/>
<polygon fill="black" stroke="black" points="1194.74,-205.75 1198.24,-215.75 1201.74,-205.75 1194.74,-205.75"/>
</g>
<!-- GeneralInformationModule  -->
<g id="node30" class="node">
<title>GeneralInformationModule </title>
<polygon fill="#fb8072" stroke="black" points="1118.22,-252 943.78,-252 943.78,-216 1118.22,-216 1118.22,-252"/>
<text text-anchor="middle" x="1031" y="-229.8" font-family="Times,serif" font-size="14.00">GeneralInformationModule </text>
</g>
<!-- CmsLibModule&#45;&gt;GeneralInformationModule  -->
<g id="edge29" class="edge">
<title>CmsLibModule&#45;&gt;GeneralInformationModule </title>
<path fill="none" stroke="black" stroke-dasharray="5,2" d="M1328.65,-183C1245.79,-183 1093.75,-183 1093.75,-183 1093.75,-183 1093.75,-205.88 1093.75,-205.88"/>
<polygon fill="black" stroke="black" points="1090.25,-205.88 1093.75,-215.88 1097.25,-205.88 1090.25,-205.88"/>
</g>
<!-- MyAccountModule  -->
<g id="node31" class="node">
<title>MyAccountModule </title>
<polygon fill="#fb8072" stroke="black" points="925.92,-252 796.08,-252 796.08,-216 925.92,-216 925.92,-252"/>
<text text-anchor="middle" x="861" y="-229.8" font-family="Times,serif" font-size="14.00">MyAccountModule </text>
</g>
<!-- CmsLibModule&#45;&gt;MyAccountModule  -->
<g id="edge30" class="edge">
<title>CmsLibModule&#45;&gt;MyAccountModule </title>
<path fill="none" stroke="black" stroke-dasharray="5,2" d="M1328.51,-181C1204.42,-181 903.3,-181 903.3,-181 903.3,-181 903.3,-205.76 903.3,-205.76"/>
<polygon fill="black" stroke="black" points="899.8,-205.76 903.3,-215.76 906.8,-205.76 899.8,-205.76"/>
</g>
<!-- NotFoundModule  -->
<g id="node32" class="node">
<title>NotFoundModule </title>
<polygon fill="#fb8072" stroke="black" points="777.83,-252 658.17,-252 658.17,-216 777.83,-216 777.83,-252"/>
<text text-anchor="middle" x="718" y="-229.8" font-family="Times,serif" font-size="14.00">NotFoundModule </text>
</g>
<!-- CmsLibModule&#45;&gt;NotFoundModule  -->
<g id="edge31" class="edge">
<title>CmsLibModule&#45;&gt;NotFoundModule </title>
<path fill="none" stroke="black" stroke-dasharray="5,2" d="M1328.59,-179C1178.35,-179 756.85,-179 756.85,-179 756.85,-179 756.85,-205.99 756.85,-205.99"/>
<polygon fill="black" stroke="black" points="753.35,-205.99 756.85,-215.99 760.35,-205.99 753.35,-205.99"/>
</g>
<!-- PersonalDetailsModule  -->
<g id="node33" class="node">
<title>PersonalDetailsModule </title>
<polygon fill="#fb8072" stroke="black" points="640.41,-252 489.59,-252 489.59,-216 640.41,-216 640.41,-252"/>
<text text-anchor="middle" x="565" y="-229.8" font-family="Times,serif" font-size="14.00">PersonalDetailsModule </text>
</g>
<!-- CmsLibModule&#45;&gt;PersonalDetailsModule  -->
<g id="edge32" class="edge">
<title>CmsLibModule&#45;&gt;PersonalDetailsModule </title>
<path fill="none" stroke="black" stroke-dasharray="5,2" d="M1328.77,-177C1157.1,-177 621.14,-177 621.14,-177 621.14,-177 621.14,-205.96 621.14,-205.96"/>
<polygon fill="black" stroke="black" points="617.65,-205.96 621.14,-215.96 624.65,-205.96 617.65,-205.96"/>
</g>
<!-- ProductAssignmentModule  -->
<g id="node34" class="node">
<title>ProductAssignmentModule </title>
<polygon fill="#fb8072" stroke="black" points="471.98,-252 298.02,-252 298.02,-216 471.98,-216 471.98,-252"/>
<text text-anchor="middle" x="385" y="-229.8" font-family="Times,serif" font-size="14.00">ProductAssignmentModule </text>
</g>
<!-- CmsLibModule&#45;&gt;ProductAssignmentModule  -->
<g id="edge33" class="edge">
<title>CmsLibModule&#45;&gt;ProductAssignmentModule </title>
<path fill="none" stroke="black" stroke-dasharray="5,2" d="M1328.51,-175C1132.41,-175 454.02,-175 454.02,-175 454.02,-175 454.02,-205.98 454.02,-205.98"/>
<polygon fill="black" stroke="black" points="450.52,-205.98 454.02,-215.98 457.52,-205.98 450.52,-205.98"/>
</g>
<!-- ProductModule  -->
<g id="node35" class="node">
<title>ProductModule </title>
<polygon fill="#fb8072" stroke="black" points="280.1,-252 173.9,-252 173.9,-216 280.1,-216 280.1,-252"/>
<text text-anchor="middle" x="227" y="-229.8" font-family="Times,serif" font-size="14.00">ProductModule </text>
</g>
<!-- CmsLibModule&#45;&gt;ProductModule  -->
<g id="edge34" class="edge">
<title>CmsLibModule&#45;&gt;ProductModule </title>
<path fill="none" stroke="black" stroke-dasharray="5,2" d="M1328.63,-173C1107.83,-173 264.15,-173 264.15,-173 264.15,-173 264.15,-205.7 264.15,-205.7"/>
<polygon fill="black" stroke="black" points="260.65,-205.7 264.15,-215.7 267.65,-205.7 260.65,-205.7"/>
</g>
<!-- ProgressBarModule  -->
<g id="node36" class="node">
<title>ProgressBarModule </title>
<polygon fill="#fb8072" stroke="black" points="155.97,-252 24.03,-252 24.03,-216 155.97,-216 155.97,-252"/>
<text text-anchor="middle" x="90" y="-229.8" font-family="Times,serif" font-size="14.00">ProgressBarModule </text>
</g>
<!-- CmsLibModule&#45;&gt;ProgressBarModule  -->
<g id="edge35" class="edge">
<title>CmsLibModule&#45;&gt;ProgressBarModule </title>
<path fill="none" stroke="black" stroke-dasharray="5,2" d="M1328.51,-171C1092.52,-171 141.09,-171 141.09,-171 141.09,-171 141.09,-205.78 141.09,-205.78"/>
<polygon fill="black" stroke="black" points="137.59,-205.78 141.09,-215.78 144.59,-205.78 137.59,-205.78"/>
</g>
</g>
</svg>
