<?xml version="1.0" encoding="UTF-8" standalone="no"?>
<!DOCTYPE svg PUBLIC "-//W3C//DTD SVG 1.1//EN"
 "http://www.w3.org/Graphics/SVG/1.1/DTD/svg11.dtd">
<!-- Generated by graphviz version 2.47.3 (20210619.1520)
 -->
<!-- Title: dependencies Pages: 1 -->
<svg width="3514pt" height="247pt"
 viewBox="0.00 0.00 3514.00 246.80" xmlns="http://www.w3.org/2000/svg" xmlns:xlink="http://www.w3.org/1999/xlink">
<g id="graph0" class="graph" transform="scale(1 1) rotate(0) translate(4 242.8)">
<title>dependencies</title>
<polygon fill="white" stroke="transparent" points="-4,4 -4,-242.8 3510,-242.8 3510,4 -4,4"/>
<text text-anchor="middle" x="1753" y="-8.2" font-family="sans-serif" font-size="14.00">dependencies</text>
<g id="clust1" class="cluster">
<title>cluster_CmsLibModule</title>
<polygon fill="none" stroke="black" stroke-dasharray="1,5" points="8,-32.8 8,-230.8 3498,-230.8 3498,-32.8 8,-32.8"/>
</g>
<g id="clust3" class="cluster">
<title>cluster_CmsLibModule_imports</title>
<polygon fill="none" stroke="black" points="119,-40.8 119,-92.8 3377,-92.8 3377,-40.8 119,-40.8"/>
</g>
<g id="clust4" class="cluster">
<title>cluster_CmsLibModule_exports</title>
<polygon fill="none" stroke="black" points="16,-170.8 16,-222.8 3490,-222.8 3490,-170.8 16,-170.8"/>
</g>
<!-- AgentModule -->
<g id="node1" class="node">
<title>AgentModule</title>
<polygon fill="#8dd3c7" stroke="black" points="3368.76,-84.8 3365.76,-88.8 3344.76,-88.8 3341.76,-84.8 3275.24,-84.8 3275.24,-48.8 3368.76,-48.8 3368.76,-84.8"/>
<text text-anchor="middle" x="3322" y="-62.6" font-family="Times,serif" font-size="14.00">AgentModule</text>
</g>
<!-- CmsLibModule -->
<g id="node22" class="node">
<title>CmsLibModule</title>
<polygon fill="#8dd3c7" stroke="black" points="1790.17,-149.8 1787.17,-153.8 1766.17,-153.8 1763.17,-149.8 1685.83,-149.8 1685.83,-113.8 1790.17,-113.8 1790.17,-149.8"/>
<text text-anchor="middle" x="1738" y="-127.6" font-family="Times,serif" font-size="14.00">CmsLibModule</text>
</g>
<!-- AgentModule&#45;&gt;CmsLibModule -->
<g id="edge1" class="edge">
<title>AgentModule&#45;&gt;CmsLibModule</title>
<path fill="none" stroke="black" d="M3337.4,-84.91C3337.4,-104.14 3337.4,-131.8 3337.4,-131.8 3337.4,-131.8 1800.31,-131.8 1800.31,-131.8"/>
<polygon fill="black" stroke="black" points="1800.31,-128.3 1790.31,-131.8 1800.31,-135.3 1800.31,-128.3"/>
</g>
<!-- B2bModule -->
<g id="node2" class="node">
<title>B2bModule</title>
<polygon fill="#8dd3c7" stroke="black" points="3257.39,-84.8 3254.39,-88.8 3233.39,-88.8 3230.39,-84.8 3174.61,-84.8 3174.61,-48.8 3257.39,-48.8 3257.39,-84.8"/>
<text text-anchor="middle" x="3216" y="-62.6" font-family="Times,serif" font-size="14.00">B2bModule</text>
</g>
<!-- B2bModule&#45;&gt;CmsLibModule -->
<g id="edge2" class="edge">
<title>B2bModule&#45;&gt;CmsLibModule</title>
<path fill="none" stroke="black" d="M3216,-85.02C3216,-103.63 3216,-129.8 3216,-129.8 3216,-129.8 1800.17,-129.8 1800.17,-129.8"/>
<polygon fill="black" stroke="black" points="1800.17,-126.3 1790.17,-129.8 1800.17,-133.3 1800.17,-126.3"/>
</g>
<!-- BannerModule -->
<g id="node3" class="node">
<title>BannerModule</title>
<polygon fill="#8dd3c7" stroke="black" points="3156.98,-84.8 3153.98,-88.8 3132.98,-88.8 3129.98,-84.8 3057.02,-84.8 3057.02,-48.8 3156.98,-48.8 3156.98,-84.8"/>
<text text-anchor="middle" x="3107" y="-62.6" font-family="Times,serif" font-size="14.00">BannerModule</text>
</g>
<!-- BannerModule&#45;&gt;CmsLibModule -->
<g id="edge3" class="edge">
<title>BannerModule&#45;&gt;CmsLibModule</title>
<path fill="none" stroke="black" d="M3098.53,-85.1C3098.53,-103.07 3098.53,-127.8 3098.53,-127.8 3098.53,-127.8 1800.5,-127.8 1800.5,-127.8"/>
<polygon fill="black" stroke="black" points="1800.5,-124.3 1790.5,-127.8 1800.5,-131.3 1800.5,-124.3"/>
</g>
<!-- CategoryFeatureCarouselModule -->
<g id="node4" class="node">
<title>CategoryFeatureCarouselModule</title>
<polygon fill="#8dd3c7" stroke="black" points="3039.11,-84.8 3036.11,-88.8 3015.11,-88.8 3012.11,-84.8 2836.89,-84.8 2836.89,-48.8 3039.11,-48.8 3039.11,-84.8"/>
<text text-anchor="middle" x="2938" y="-62.6" font-family="Times,serif" font-size="14.00">CategoryFeatureCarouselModule</text>
</g>
<!-- CategoryFeatureCarouselModule&#45;&gt;CmsLibModule -->
<g id="edge4" class="edge">
<title>CategoryFeatureCarouselModule&#45;&gt;CmsLibModule</title>
<path fill="none" stroke="black" d="M2876.43,-84.82C2876.43,-102.17 2876.43,-125.8 2876.43,-125.8 2876.43,-125.8 1800.25,-125.8 1800.25,-125.8"/>
<polygon fill="black" stroke="black" points="1800.25,-122.3 1790.25,-125.8 1800.25,-129.3 1800.25,-122.3"/>
</g>
<!-- CategoryFeatureModule -->
<g id="node5" class="node">
<title>CategoryFeatureModule</title>
<polygon fill="#8dd3c7" stroke="black" points="2818.34,-84.8 2815.34,-88.8 2794.34,-88.8 2791.34,-84.8 2665.66,-84.8 2665.66,-48.8 2818.34,-48.8 2818.34,-84.8"/>
<text text-anchor="middle" x="2742" y="-62.6" font-family="Times,serif" font-size="14.00">CategoryFeatureModule</text>
</g>
<!-- CategoryFeatureModule&#45;&gt;CmsLibModule -->
<g id="edge5" class="edge">
<title>CategoryFeatureModule&#45;&gt;CmsLibModule</title>
<path fill="none" stroke="black" d="M2703.93,-84.83C2703.93,-101.86 2703.93,-124.8 2703.93,-124.8 2703.93,-124.8 1800.28,-124.8 1800.28,-124.8"/>
<polygon fill="black" stroke="black" points="1800.28,-121.3 1790.28,-124.8 1800.28,-128.3 1800.28,-121.3"/>
</g>
<!-- ChangeProcessModule -->
<g id="node6" class="node">
<title>ChangeProcessModule</title>
<polygon fill="#8dd3c7" stroke="black" points="2647.58,-84.8 2644.58,-88.8 2623.58,-88.8 2620.58,-84.8 2502.42,-84.8 2502.42,-48.8 2647.58,-48.8 2647.58,-84.8"/>
<text text-anchor="middle" x="2575" y="-62.6" font-family="Times,serif" font-size="14.00">ChangeProcessModule</text>
</g>
<!-- ChangeProcessModule&#45;&gt;CmsLibModule -->
<g id="edge6" class="edge">
<title>ChangeProcessModule&#45;&gt;CmsLibModule</title>
<path fill="none" stroke="black" d="M2539.11,-84.83C2539.11,-101.2 2539.11,-122.8 2539.11,-122.8 2539.11,-122.8 1800.25,-122.8 1800.25,-122.8"/>
<polygon fill="black" stroke="black" points="1800.25,-119.3 1790.25,-122.8 1800.25,-126.3 1800.25,-119.3"/>
</g>
<!-- CmsFormSubmitModule -->
<g id="node7" class="node">
<title>CmsFormSubmitModule</title>
<polygon fill="#8dd3c7" stroke="black" points="2484.01,-84.8 2481.01,-88.8 2460.01,-88.8 2457.01,-84.8 2327.99,-84.8 2327.99,-48.8 2484.01,-48.8 2484.01,-84.8"/>
<text text-anchor="middle" x="2406" y="-62.6" font-family="Times,serif" font-size="14.00">CmsFormSubmitModule</text>
</g>
<!-- CmsFormSubmitModule&#45;&gt;CmsLibModule -->
<g id="edge7" class="edge">
<title>CmsFormSubmitModule&#45;&gt;CmsLibModule</title>
<path fill="none" stroke="black" d="M2363.34,-85.08C2363.34,-100.75 2363.34,-120.8 2363.34,-120.8 2363.34,-120.8 1800.24,-120.8 1800.24,-120.8"/>
<polygon fill="black" stroke="black" points="1800.24,-117.3 1790.24,-120.8 1800.24,-124.3 1800.24,-117.3"/>
</g>
<!-- ComparisonTableModule -->
<g id="node8" class="node">
<title>ComparisonTableModule</title>
<polygon fill="#8dd3c7" stroke="black" points="2309.86,-84.8 2306.86,-88.8 2285.86,-88.8 2282.86,-84.8 2150.14,-84.8 2150.14,-48.8 2309.86,-48.8 2309.86,-84.8"/>
<text text-anchor="middle" x="2230" y="-62.6" font-family="Times,serif" font-size="14.00">ComparisonTableModule</text>
</g>
<!-- ComparisonTableModule&#45;&gt;CmsLibModule -->
<g id="edge8" class="edge">
<title>ComparisonTableModule&#45;&gt;CmsLibModule</title>
<path fill="none" stroke="black" d="M2183.49,-85.04C2183.49,-100.37 2183.49,-119.8 2183.49,-119.8 2183.49,-119.8 1800.41,-119.8 1800.41,-119.8"/>
<polygon fill="black" stroke="black" points="1800.41,-116.3 1790.41,-119.8 1800.41,-123.3 1800.41,-116.3"/>
</g>
<!-- CustomContainerModule -->
<g id="node9" class="node">
<title>CustomContainerModule</title>
<polygon fill="#8dd3c7" stroke="black" points="2132.32,-84.8 2129.32,-88.8 2108.32,-88.8 2105.32,-84.8 1973.68,-84.8 1973.68,-48.8 2132.32,-48.8 2132.32,-84.8"/>
<text text-anchor="middle" x="2053" y="-62.6" font-family="Times,serif" font-size="14.00">CustomContainerModule</text>
</g>
<!-- CustomContainerModule&#45;&gt;CmsLibModule -->
<g id="edge9" class="edge">
<title>CustomContainerModule&#45;&gt;CmsLibModule</title>
<path fill="none" stroke="black" d="M2005.52,-84.92C2005.52,-99.58 2005.52,-117.8 2005.52,-117.8 2005.52,-117.8 1800.22,-117.8 1800.22,-117.8"/>
<polygon fill="black" stroke="black" points="1800.22,-114.3 1790.22,-117.8 1800.22,-121.3 1800.22,-114.3"/>
</g>
<!-- FSLoginFormModule -->
<g id="node10" class="node">
<title>FSLoginFormModule</title>
<polygon fill="#8dd3c7" stroke="black" points="1955.39,-84.8 1952.39,-88.8 1931.39,-88.8 1928.39,-84.8 1816.61,-84.8 1816.61,-48.8 1955.39,-48.8 1955.39,-84.8"/>
<text text-anchor="middle" x="1886" y="-62.6" font-family="Times,serif" font-size="14.00">FSLoginFormModule</text>
</g>
<!-- FSLoginFormModule&#45;&gt;CmsLibModule -->
<g id="edge10" class="edge">
<title>FSLoginFormModule&#45;&gt;CmsLibModule</title>
<path fill="none" stroke="black" d="M1846.59,-85.05C1846.59,-98.98 1846.59,-115.8 1846.59,-115.8 1846.59,-115.8 1800.39,-115.8 1800.39,-115.8"/>
<polygon fill="black" stroke="black" points="1800.39,-112.3 1790.39,-115.8 1800.39,-119.3 1800.39,-112.3"/>
</g>
<!-- FSRegisterModule -->
<g id="node11" class="node">
<title>FSRegisterModule</title>
<polygon fill="#8dd3c7" stroke="black" points="1798.77,-84.8 1795.77,-88.8 1774.77,-88.8 1771.77,-84.8 1677.23,-84.8 1677.23,-48.8 1798.77,-48.8 1798.77,-84.8"/>
<text text-anchor="middle" x="1738" y="-62.6" font-family="Times,serif" font-size="14.00">FSRegisterModule</text>
</g>
<!-- FSRegisterModule&#45;&gt;CmsLibModule -->
<g id="edge11" class="edge">
<title>FSRegisterModule&#45;&gt;CmsLibModule</title>
<path fill="none" stroke="black" d="M1738,-84.91C1738,-84.91 1738,-103.79 1738,-103.79"/>
<polygon fill="black" stroke="black" points="1734.5,-103.79 1738,-113.79 1741.5,-103.79 1734.5,-103.79"/>
</g>
<!-- FSSearchBoxModule -->
<g id="node12" class="node">
<title>FSSearchBoxModule</title>
<polygon fill="#8dd3c7" stroke="black" points="1659.04,-84.8 1656.04,-88.8 1635.04,-88.8 1632.04,-84.8 1522.96,-84.8 1522.96,-48.8 1659.04,-48.8 1659.04,-84.8"/>
<text text-anchor="middle" x="1591" y="-62.6" font-family="Times,serif" font-size="14.00">FSSearchBoxModule</text>
</g>
<!-- FSSearchBoxModule&#45;&gt;CmsLibModule -->
<g id="edge12" class="edge">
<title>FSSearchBoxModule&#45;&gt;CmsLibModule</title>
<path fill="none" stroke="black" d="M1626.12,-85.05C1626.12,-98.98 1626.12,-115.8 1626.12,-115.8 1626.12,-115.8 1675.67,-115.8 1675.67,-115.8"/>
<polygon fill="black" stroke="black" points="1675.67,-119.3 1685.67,-115.8 1675.67,-112.3 1675.67,-119.3"/>
</g>
<!-- FnolModule -->
<g id="node13" class="node">
<title>FnolModule</title>
<polygon fill="#8dd3c7" stroke="black" points="1504.72,-84.8 1501.72,-88.8 1480.72,-88.8 1477.72,-84.8 1419.28,-84.8 1419.28,-48.8 1504.72,-48.8 1504.72,-84.8"/>
<text text-anchor="middle" x="1462" y="-62.6" font-family="Times,serif" font-size="14.00">FnolModule</text>
</g>
<!-- FnolModule&#45;&gt;CmsLibModule -->
<g id="edge13" class="edge">
<title>FnolModule&#45;&gt;CmsLibModule</title>
<path fill="none" stroke="black" d="M1495.62,-84.92C1495.62,-99.58 1495.62,-117.8 1495.62,-117.8 1495.62,-117.8 1675.71,-117.8 1675.71,-117.8"/>
<polygon fill="black" stroke="black" points="1675.71,-121.3 1685.71,-117.8 1675.71,-114.3 1675.71,-121.3"/>
</g>
<!-- GeneralInformationModule -->
<g id="node14" class="node">
<title>GeneralInformationModule</title>
<polygon fill="#8dd3c7" stroke="black" points="1401.22,-84.8 1398.22,-88.8 1377.22,-88.8 1374.22,-84.8 1230.78,-84.8 1230.78,-48.8 1401.22,-48.8 1401.22,-84.8"/>
<text text-anchor="middle" x="1316" y="-62.6" font-family="Times,serif" font-size="14.00">GeneralInformationModule</text>
</g>
<!-- GeneralInformationModule&#45;&gt;CmsLibModule -->
<g id="edge14" class="edge">
<title>GeneralInformationModule&#45;&gt;CmsLibModule</title>
<path fill="none" stroke="black" d="M1348.12,-85.04C1348.12,-100.37 1348.12,-119.8 1348.12,-119.8 1348.12,-119.8 1675.82,-119.8 1675.82,-119.8"/>
<polygon fill="black" stroke="black" points="1675.82,-123.3 1685.82,-119.8 1675.82,-116.3 1675.82,-123.3"/>
</g>
<!-- MessageNotificationModule -->
<g id="node15" class="node">
<title>MessageNotificationModule</title>
<polygon fill="#8dd3c7" stroke="black" points="1213.18,-84.8 1210.18,-88.8 1189.18,-88.8 1186.18,-84.8 1036.82,-84.8 1036.82,-48.8 1213.18,-48.8 1213.18,-84.8"/>
<text text-anchor="middle" x="1125" y="-62.6" font-family="Times,serif" font-size="14.00">MessageNotificationModule</text>
</g>
<!-- MessageNotificationModule&#45;&gt;CmsLibModule -->
<g id="edge15" class="edge">
<title>MessageNotificationModule&#45;&gt;CmsLibModule</title>
<path fill="none" stroke="black" d="M1155.12,-85.08C1155.12,-100.75 1155.12,-120.8 1155.12,-120.8 1155.12,-120.8 1675.76,-120.8 1675.76,-120.8"/>
<polygon fill="black" stroke="black" points="1675.76,-124.3 1685.76,-120.8 1675.76,-117.3 1675.76,-124.3"/>
</g>
<!-- MyAccountModule -->
<g id="node16" class="node">
<title>MyAccountModule</title>
<polygon fill="#8dd3c7" stroke="black" points="1019.42,-84.8 1016.42,-88.8 995.42,-88.8 992.42,-84.8 892.58,-84.8 892.58,-48.8 1019.42,-48.8 1019.42,-84.8"/>
<text text-anchor="middle" x="956" y="-62.6" font-family="Times,serif" font-size="14.00">MyAccountModule</text>
</g>
<!-- MyAccountModule&#45;&gt;CmsLibModule -->
<g id="edge16" class="edge">
<title>MyAccountModule&#45;&gt;CmsLibModule</title>
<path fill="none" stroke="black" d="M984.12,-84.83C984.12,-101.2 984.12,-122.8 984.12,-122.8 984.12,-122.8 1675.59,-122.8 1675.59,-122.8"/>
<polygon fill="black" stroke="black" points="1675.59,-126.3 1685.59,-122.8 1675.59,-119.3 1675.59,-126.3"/>
</g>
<!-- NavigationModule -->
<g id="node17" class="node">
<title>NavigationModule</title>
<polygon fill="#8dd3c7" stroke="black" points="874.76,-84.8 871.76,-88.8 850.76,-88.8 847.76,-84.8 753.24,-84.8 753.24,-48.8 874.76,-48.8 874.76,-84.8"/>
<text text-anchor="middle" x="814" y="-62.6" font-family="Times,serif" font-size="14.00">NavigationModule</text>
</g>
<!-- NavigationModule&#45;&gt;CmsLibModule -->
<g id="edge17" class="edge">
<title>NavigationModule&#45;&gt;CmsLibModule</title>
<path fill="none" stroke="black" d="M842.98,-84.83C842.98,-101.86 842.98,-124.8 842.98,-124.8 842.98,-124.8 1675.68,-124.8 1675.68,-124.8"/>
<polygon fill="black" stroke="black" points="1675.68,-128.3 1685.68,-124.8 1675.68,-121.3 1675.68,-128.3"/>
</g>
<!-- NotFoundModule -->
<g id="node18" class="node">
<title>NotFoundModule</title>
<polygon fill="#8dd3c7" stroke="black" points="735.33,-84.8 732.33,-88.8 711.33,-88.8 708.33,-84.8 618.67,-84.8 618.67,-48.8 735.33,-48.8 735.33,-84.8"/>
<text text-anchor="middle" x="677" y="-62.6" font-family="Times,serif" font-size="14.00">NotFoundModule</text>
</g>
<!-- NotFoundModule&#45;&gt;CmsLibModule -->
<g id="edge18" class="edge">
<title>NotFoundModule&#45;&gt;CmsLibModule</title>
<path fill="none" stroke="black" d="M688.86,-84.82C688.86,-102.17 688.86,-125.8 688.86,-125.8 688.86,-125.8 1675.61,-125.8 1675.61,-125.8"/>
<polygon fill="black" stroke="black" points="1675.61,-129.3 1685.61,-125.8 1675.61,-122.3 1675.61,-129.3"/>
</g>
<!-- PersonalDetailsModule -->
<g id="node19" class="node">
<title>PersonalDetailsModule</title>
<polygon fill="#8dd3c7" stroke="black" points="600.91,-84.8 597.91,-88.8 576.91,-88.8 573.91,-84.8 453.09,-84.8 453.09,-48.8 600.91,-48.8 600.91,-84.8"/>
<text text-anchor="middle" x="527" y="-62.6" font-family="Times,serif" font-size="14.00">PersonalDetailsModule</text>
</g>
<!-- PersonalDetailsModule&#45;&gt;CmsLibModule -->
<g id="edge19" class="edge">
<title>PersonalDetailsModule&#45;&gt;CmsLibModule</title>
<path fill="none" stroke="black" d="M559.2,-85.1C559.2,-103.07 559.2,-127.8 559.2,-127.8 559.2,-127.8 1675.83,-127.8 1675.83,-127.8"/>
<polygon fill="black" stroke="black" points="1675.83,-131.3 1685.83,-127.8 1675.83,-124.3 1675.83,-131.3"/>
</g>
<!-- ProductModule -->
<g id="node20" class="node">
<title>ProductModule</title>
<polygon fill="#8dd3c7" stroke="black" points="435.6,-84.8 432.6,-88.8 411.6,-88.8 408.6,-84.8 332.4,-84.8 332.4,-48.8 435.6,-48.8 435.6,-84.8"/>
<text text-anchor="middle" x="384" y="-62.6" font-family="Times,serif" font-size="14.00">ProductModule</text>
</g>
<!-- ProductModule&#45;&gt;CmsLibModule -->
<g id="edge20" class="edge">
<title>ProductModule&#45;&gt;CmsLibModule</title>
<path fill="none" stroke="black" d="M401.91,-85.02C401.91,-103.63 401.91,-129.8 401.91,-129.8 401.91,-129.8 1675.62,-129.8 1675.62,-129.8"/>
<polygon fill="black" stroke="black" points="1675.62,-133.3 1685.62,-129.8 1675.62,-126.3 1675.62,-133.3"/>
</g>
<!-- QuestionnaireCarouselModule -->
<g id="node21" class="node">
<title>QuestionnaireCarouselModule</title>
<polygon fill="#8dd3c7" stroke="black" points="314.84,-84.8 311.84,-88.8 290.84,-88.8 287.84,-84.8 127.16,-84.8 127.16,-48.8 314.84,-48.8 314.84,-84.8"/>
<text text-anchor="middle" x="221" y="-62.6" font-family="Times,serif" font-size="14.00">QuestionnaireCarouselModule</text>
</g>
<!-- QuestionnaireCarouselModule&#45;&gt;CmsLibModule -->
<g id="edge21" class="edge">
<title>QuestionnaireCarouselModule&#45;&gt;CmsLibModule</title>
<path fill="none" stroke="black" d="M237.12,-84.91C237.12,-104.14 237.12,-131.8 237.12,-131.8 237.12,-131.8 1675.46,-131.8 1675.46,-131.8"/>
<polygon fill="black" stroke="black" points="1675.46,-135.3 1685.46,-131.8 1675.46,-128.3 1675.46,-135.3"/>
</g>
<!-- AgentModule  -->
<g id="node23" class="node">
<title>AgentModule </title>
<polygon fill="#fb8072" stroke="black" points="3481.76,-214.8 3384.24,-214.8 3384.24,-178.8 3481.76,-178.8 3481.76,-214.8"/>
<text text-anchor="middle" x="3433" y="-192.6" font-family="Times,serif" font-size="14.00">AgentModule </text>
</g>
<!-- CmsLibModule&#45;&gt;AgentModule  -->
<g id="edge22" class="edge">
<title>CmsLibModule&#45;&gt;AgentModule </title>
<path fill="none" stroke="black" stroke-dasharray="5,2" d="M1790.59,-132.8C2076.68,-132.8 3433,-132.8 3433,-132.8 3433,-132.8 3433,-168.63 3433,-168.63"/>
<polygon fill="black" stroke="black" points="3429.5,-168.63 3433,-178.63 3436.5,-168.63 3429.5,-168.63"/>
</g>
<!-- B2bModule  -->
<g id="node24" class="node">
<title>B2bModule </title>
<polygon fill="#fb8072" stroke="black" points="3366.39,-214.8 3279.61,-214.8 3279.61,-178.8 3366.39,-178.8 3366.39,-214.8"/>
<text text-anchor="middle" x="3323" y="-192.6" font-family="Times,serif" font-size="14.00">B2bModule </text>
</g>
<!-- CmsLibModule&#45;&gt;B2bModule  -->
<g id="edge23" class="edge">
<title>CmsLibModule&#45;&gt;B2bModule </title>
<path fill="none" stroke="black" stroke-dasharray="5,2" d="M1790.26,-134.8C2062.78,-134.8 3308.6,-134.8 3308.6,-134.8 3308.6,-134.8 3308.6,-168.53 3308.6,-168.53"/>
<polygon fill="black" stroke="black" points="3305.1,-168.53 3308.6,-178.53 3312.1,-168.53 3305.1,-168.53"/>
</g>
<!-- BannerModule  -->
<g id="node25" class="node">
<title>BannerModule </title>
<polygon fill="#fb8072" stroke="black" points="3261.98,-214.8 3158.02,-214.8 3158.02,-178.8 3261.98,-178.8 3261.98,-214.8"/>
<text text-anchor="middle" x="3210" y="-192.6" font-family="Times,serif" font-size="14.00">BannerModule </text>
</g>
<!-- CmsLibModule&#45;&gt;BannerModule  -->
<g id="edge24" class="edge">
<title>CmsLibModule&#45;&gt;BannerModule </title>
<path fill="none" stroke="black" stroke-dasharray="5,2" d="M1790.53,-136.8C2048.24,-136.8 3166.41,-136.8 3166.41,-136.8 3166.41,-136.8 3166.41,-168.8 3166.41,-168.8"/>
<polygon fill="black" stroke="black" points="3162.91,-168.8 3166.41,-178.8 3169.91,-168.8 3162.91,-168.8"/>
</g>
<!-- CategoryFeatureCarouselModule  -->
<g id="node26" class="node">
<title>CategoryFeatureCarouselModule </title>
<polygon fill="#fb8072" stroke="black" points="3140.11,-214.8 2933.89,-214.8 2933.89,-178.8 3140.11,-178.8 3140.11,-214.8"/>
<text text-anchor="middle" x="3037" y="-192.6" font-family="Times,serif" font-size="14.00">CategoryFeatureCarouselModule </text>
</g>
<!-- CmsLibModule&#45;&gt;CategoryFeatureCarouselModule  -->
<g id="edge25" class="edge">
<title>CmsLibModule&#45;&gt;CategoryFeatureCarouselModule </title>
<path fill="none" stroke="black" stroke-dasharray="5,2" d="M1790.46,-137.8C2027.44,-137.8 2986.62,-137.8 2986.62,-137.8 2986.62,-137.8 2986.62,-168.78 2986.62,-168.78"/>
<polygon fill="black" stroke="black" points="2983.13,-168.78 2986.62,-178.78 2990.13,-168.78 2983.13,-168.78"/>
</g>
<!-- CategoryFeatureModule  -->
<g id="node27" class="node">
<title>CategoryFeatureModule </title>
<polygon fill="#fb8072" stroke="black" points="2916.34,-214.8 2759.66,-214.8 2759.66,-178.8 2916.34,-178.8 2916.34,-214.8"/>
<text text-anchor="middle" x="2838" y="-192.6" font-family="Times,serif" font-size="14.00">CategoryFeatureModule </text>
</g>
<!-- CmsLibModule&#45;&gt;CategoryFeatureModule  -->
<g id="edge26" class="edge">
<title>CmsLibModule&#45;&gt;CategoryFeatureModule </title>
<path fill="none" stroke="black" stroke-dasharray="5,2" d="M1790.49,-139.8C2003.11,-139.8 2789.12,-139.8 2789.12,-139.8 2789.12,-139.8 2789.12,-168.76 2789.12,-168.76"/>
<polygon fill="black" stroke="black" points="2785.63,-168.76 2789.12,-178.76 2792.63,-168.76 2785.63,-168.76"/>
</g>
<!-- ChangeProcessModule  -->
<g id="node28" class="node">
<title>ChangeProcessModule </title>
<polygon fill="#fb8072" stroke="black" points="2742.08,-214.8 2593.92,-214.8 2593.92,-178.8 2742.08,-178.8 2742.08,-214.8"/>
<text text-anchor="middle" x="2668" y="-192.6" font-family="Times,serif" font-size="14.00">ChangeProcessModule </text>
</g>
<!-- CmsLibModule&#45;&gt;ChangeProcessModule  -->
<g id="edge27" class="edge">
<title>CmsLibModule&#45;&gt;ChangeProcessModule </title>
<path fill="none" stroke="black" stroke-dasharray="5,2" d="M1790.24,-141.8C1979.85,-141.8 2620.62,-141.8 2620.62,-141.8 2620.62,-141.8 2620.62,-168.79 2620.62,-168.79"/>
<polygon fill="black" stroke="black" points="2617.13,-168.79 2620.62,-178.79 2624.13,-168.79 2617.13,-168.79"/>
</g>
<!-- CmsFormSubmitModule  -->
<g id="node29" class="node">
<title>CmsFormSubmitModule </title>
<polygon fill="#fb8072" stroke="black" points="2575.51,-214.8 2416.49,-214.8 2416.49,-178.8 2575.51,-178.8 2575.51,-214.8"/>
<text text-anchor="middle" x="2496" y="-192.6" font-family="Times,serif" font-size="14.00">CmsFormSubmitModule </text>
</g>
<!-- CmsLibModule&#45;&gt;CmsFormSubmitModule  -->
<g id="edge28" class="edge">
<title>CmsLibModule&#45;&gt;CmsFormSubmitModule </title>
<path fill="none" stroke="black" stroke-dasharray="5,2" d="M1790.36,-143.8C1954.82,-143.8 2450.12,-143.8 2450.12,-143.8 2450.12,-143.8 2450.12,-168.56 2450.12,-168.56"/>
<polygon fill="black" stroke="black" points="2446.63,-168.56 2450.12,-178.56 2453.63,-168.56 2446.63,-168.56"/>
</g>
<!-- ComparisonTableModule  -->
<g id="node30" class="node">
<title>ComparisonTableModule </title>
<polygon fill="#fb8072" stroke="black" points="2398.86,-214.8 2235.14,-214.8 2235.14,-178.8 2398.86,-178.8 2398.86,-214.8"/>
<text text-anchor="middle" x="2317" y="-192.6" font-family="Times,serif" font-size="14.00">ComparisonTableModule </text>
</g>
<!-- CmsLibModule&#45;&gt;ComparisonTableModule  -->
<g id="edge29" class="edge">
<title>CmsLibModule&#45;&gt;ComparisonTableModule </title>
<path fill="none" stroke="black" stroke-dasharray="5,2" d="M1790.24,-144.8C1924.76,-144.8 2272.62,-144.8 2272.62,-144.8 2272.62,-144.8 2272.62,-168.61 2272.62,-168.61"/>
<polygon fill="black" stroke="black" points="2269.13,-168.61 2272.62,-178.61 2276.13,-168.61 2269.13,-168.61"/>
</g>
<!-- CustomContainerModule  -->
<g id="node31" class="node">
<title>CustomContainerModule </title>
<polygon fill="#fb8072" stroke="black" points="2216.82,-214.8 2055.18,-214.8 2055.18,-178.8 2216.82,-178.8 2216.82,-214.8"/>
<text text-anchor="middle" x="2136" y="-192.6" font-family="Times,serif" font-size="14.00">CustomContainerModule </text>
</g>
<!-- CmsLibModule&#45;&gt;CustomContainerModule  -->
<g id="edge30" class="edge">
<title>CmsLibModule&#45;&gt;CustomContainerModule </title>
<path fill="none" stroke="black" stroke-dasharray="5,2" d="M1790.47,-146.8C1889.4,-146.8 2093.62,-146.8 2093.62,-146.8 2093.62,-146.8 2093.62,-168.75 2093.62,-168.75"/>
<polygon fill="black" stroke="black" points="2090.13,-168.75 2093.62,-178.75 2097.13,-168.75 2090.13,-168.75"/>
</g>
<!-- FSLoginFormModule  -->
<g id="node32" class="node">
<title>FSLoginFormModule </title>
<polygon fill="#fb8072" stroke="black" points="2037.39,-214.8 1894.61,-214.8 1894.61,-178.8 2037.39,-178.8 2037.39,-214.8"/>
<text text-anchor="middle" x="1966" y="-192.6" font-family="Times,serif" font-size="14.00">FSLoginFormModule </text>
</g>
<!-- CmsLibModule&#45;&gt;FSLoginFormModule  -->
<g id="edge31" class="edge">
<title>CmsLibModule&#45;&gt;FSLoginFormModule </title>
<path fill="none" stroke="black" stroke-dasharray="5,2" d="M1790.62,-148.8C1845.97,-148.8 1925.12,-148.8 1925.12,-148.8 1925.12,-148.8 1925.12,-168.65 1925.12,-168.65"/>
<polygon fill="black" stroke="black" points="1921.63,-168.65 1925.12,-178.65 1928.63,-168.65 1921.63,-168.65"/>
</g>
<!-- FSRegisterModule  -->
<g id="node33" class="node">
<title>FSRegisterModule </title>
<polygon fill="#fb8072" stroke="black" points="1876.77,-214.8 1751.23,-214.8 1751.23,-178.8 1876.77,-178.8 1876.77,-214.8"/>
<text text-anchor="middle" x="1814" y="-192.6" font-family="Times,serif" font-size="14.00">FSRegisterModule </text>
</g>
<!-- CmsLibModule&#45;&gt;FSRegisterModule  -->
<g id="edge32" class="edge">
<title>CmsLibModule&#45;&gt;FSRegisterModule </title>
<path fill="none" stroke="black" stroke-dasharray="5,2" d="M1770.85,-149.91C1770.85,-149.91 1770.85,-168.79 1770.85,-168.79"/>
<polygon fill="black" stroke="black" points="1767.35,-168.79 1770.85,-178.79 1774.35,-168.79 1767.35,-168.79"/>
</g>
<!-- FSSearchBoxModule  -->
<g id="node34" class="node">
<title>FSSearchBoxModule </title>
<polygon fill="#fb8072" stroke="black" points="1733.04,-214.8 1592.96,-214.8 1592.96,-178.8 1733.04,-178.8 1733.04,-214.8"/>
<text text-anchor="middle" x="1663" y="-192.6" font-family="Times,serif" font-size="14.00">FSSearchBoxModule </text>
</g>
<!-- CmsLibModule&#45;&gt;FSSearchBoxModule  -->
<g id="edge33" class="edge">
<title>CmsLibModule&#45;&gt;FSSearchBoxModule </title>
<path fill="none" stroke="black" stroke-dasharray="5,2" d="M1709.34,-149.91C1709.34,-149.91 1709.34,-168.79 1709.34,-168.79"/>
<polygon fill="black" stroke="black" points="1705.84,-168.79 1709.34,-178.79 1712.84,-168.79 1705.84,-168.79"/>
</g>
<!-- FnolModule  -->
<g id="node35" class="node">
<title>FnolModule </title>
<polygon fill="#fb8072" stroke="black" points="1575.22,-214.8 1486.78,-214.8 1486.78,-178.8 1575.22,-178.8 1575.22,-214.8"/>
<text text-anchor="middle" x="1531" y="-192.6" font-family="Times,serif" font-size="14.00">FnolModule </text>
</g>
<!-- CmsLibModule&#45;&gt;FnolModule  -->
<g id="edge34" class="edge">
<title>CmsLibModule&#45;&gt;FnolModule </title>
<path fill="none" stroke="black" stroke-dasharray="5,2" d="M1685.62,-148.8C1629.7,-148.8 1549.05,-148.8 1549.05,-148.8 1549.05,-148.8 1549.05,-168.65 1549.05,-168.65"/>
<polygon fill="black" stroke="black" points="1545.55,-168.65 1549.05,-178.65 1552.55,-168.65 1545.55,-168.65"/>
</g>
<!-- GeneralInformationModule  -->
<g id="node36" class="node">
<title>GeneralInformationModule </title>
<polygon fill="#fb8072" stroke="black" points="1469.22,-214.8 1294.78,-214.8 1294.78,-178.8 1469.22,-178.8 1469.22,-214.8"/>
<text text-anchor="middle" x="1382" y="-192.6" font-family="Times,serif" font-size="14.00">GeneralInformationModule </text>
</g>
<!-- CmsLibModule&#45;&gt;GeneralInformationModule  -->
<g id="edge35" class="edge">
<title>CmsLibModule&#45;&gt;GeneralInformationModule </title>
<path fill="none" stroke="black" stroke-dasharray="5,2" d="M1685.82,-146.8C1601.41,-146.8 1444.25,-146.8 1444.25,-146.8 1444.25,-146.8 1444.25,-168.75 1444.25,-168.75"/>
<polygon fill="black" stroke="black" points="1440.75,-168.75 1444.25,-178.75 1447.75,-168.75 1440.75,-168.75"/>
</g>
<!-- MessageNotificationModule  -->
<g id="node37" class="node">
<title>MessageNotificationModule </title>
<polygon fill="#fb8072" stroke="black" points="1276.68,-214.8 1097.32,-214.8 1097.32,-178.8 1276.68,-178.8 1276.68,-214.8"/>
<text text-anchor="middle" x="1187" y="-192.6" font-family="Times,serif" font-size="14.00">MessageNotificationModule </text>
</g>
<!-- CmsLibModule&#45;&gt;MessageNotificationModule  -->
<g id="edge36" class="edge">
<title>CmsLibModule&#45;&gt;MessageNotificationModule </title>
<path fill="none" stroke="black" stroke-dasharray="5,2" d="M1685.72,-144.8C1560.5,-144.8 1253.74,-144.8 1253.74,-144.8 1253.74,-144.8 1253.74,-168.61 1253.74,-168.61"/>
<polygon fill="black" stroke="black" points="1250.24,-168.61 1253.74,-178.61 1257.24,-168.61 1250.24,-168.61"/>
</g>
<!-- MyAccountModule  -->
<g id="node38" class="node">
<title>MyAccountModule </title>
<polygon fill="#fb8072" stroke="black" points="1078.92,-214.8 949.08,-214.8 949.08,-178.8 1078.92,-178.8 1078.92,-214.8"/>
<text text-anchor="middle" x="1014" y="-192.6" font-family="Times,serif" font-size="14.00">MyAccountModule </text>
</g>
<!-- CmsLibModule&#45;&gt;MyAccountModule  -->
<g id="edge37" class="edge">
<title>CmsLibModule&#45;&gt;MyAccountModule </title>
<path fill="none" stroke="black" stroke-dasharray="5,2" d="M1685.77,-143.8C1526.52,-143.8 1057.94,-143.8 1057.94,-143.8 1057.94,-143.8 1057.94,-168.56 1057.94,-168.56"/>
<polygon fill="black" stroke="black" points="1054.44,-168.56 1057.94,-178.56 1061.44,-168.56 1054.44,-168.56"/>
</g>
<!-- NotFoundModule  -->
<g id="node39" class="node">
<title>NotFoundModule </title>
<polygon fill="#fb8072" stroke="black" points="930.83,-214.8 811.17,-214.8 811.17,-178.8 930.83,-178.8 930.83,-214.8"/>
<text text-anchor="middle" x="871" y="-192.6" font-family="Times,serif" font-size="14.00">NotFoundModule </text>
</g>
<!-- CmsLibModule&#45;&gt;NotFoundModule  -->
<g id="edge38" class="edge">
<title>CmsLibModule&#45;&gt;NotFoundModule </title>
<path fill="none" stroke="black" stroke-dasharray="5,2" d="M1685.69,-141.8C1504.09,-141.8 911.85,-141.8 911.85,-141.8 911.85,-141.8 911.85,-168.79 911.85,-168.79"/>
<polygon fill="black" stroke="black" points="908.35,-168.79 911.85,-178.79 915.35,-168.79 908.35,-168.79"/>
</g>
<!-- PersonalDetailsModule  -->
<g id="node40" class="node">
<title>PersonalDetailsModule </title>
<polygon fill="#fb8072" stroke="black" points="793.41,-214.8 642.59,-214.8 642.59,-178.8 793.41,-178.8 793.41,-214.8"/>
<text text-anchor="middle" x="718" y="-192.6" font-family="Times,serif" font-size="14.00">PersonalDetailsModule </text>
</g>
<!-- CmsLibModule&#45;&gt;PersonalDetailsModule  -->
<g id="edge39" class="edge">
<title>CmsLibModule&#45;&gt;PersonalDetailsModule </title>
<path fill="none" stroke="black" stroke-dasharray="5,2" d="M1685.79,-139.8C1484.94,-139.8 773.29,-139.8 773.29,-139.8 773.29,-139.8 773.29,-168.76 773.29,-168.76"/>
<polygon fill="black" stroke="black" points="769.79,-168.76 773.29,-178.76 776.79,-168.76 769.79,-168.76"/>
</g>
<!-- ProductModule  -->
<g id="node41" class="node">
<title>ProductModule </title>
<polygon fill="#fb8072" stroke="black" points="624.1,-214.8 517.9,-214.8 517.9,-178.8 624.1,-178.8 624.1,-214.8"/>
<text text-anchor="middle" x="571" y="-192.6" font-family="Times,serif" font-size="14.00">ProductModule </text>
</g>
<!-- CmsLibModule&#45;&gt;ProductModule  -->
<g id="edge40" class="edge">
<title>CmsLibModule&#45;&gt;ProductModule </title>
<path fill="none" stroke="black" stroke-dasharray="5,2" d="M1685.47,-137.8C1463,-137.8 609.77,-137.8 609.77,-137.8 609.77,-137.8 609.77,-168.78 609.77,-168.78"/>
<polygon fill="black" stroke="black" points="606.27,-168.78 609.77,-178.78 613.27,-168.78 606.27,-168.78"/>
</g>
<!-- ProgressBarModule  -->
<g id="node42" class="node">
<title>ProgressBarModule </title>
<polygon fill="#fb8072" stroke="black" points="499.97,-214.8 368.03,-214.8 368.03,-178.8 499.97,-178.8 499.97,-214.8"/>
<text text-anchor="middle" x="434" y="-192.6" font-family="Times,serif" font-size="14.00">ProgressBarModule </text>
</g>
<!-- CmsLibModule&#45;&gt;ProgressBarModule  -->
<g id="edge41" class="edge">
<title>CmsLibModule&#45;&gt;ProgressBarModule </title>
<path fill="none" stroke="black" stroke-dasharray="5,2" d="M1685.8,-136.8C1447.74,-136.8 476.51,-136.8 476.51,-136.8 476.51,-136.8 476.51,-168.8 476.51,-168.8"/>
<polygon fill="black" stroke="black" points="473.01,-168.8 476.51,-178.8 480.01,-168.8 473.01,-168.8"/>
</g>
<!-- QuestionnaireCarouselModule  -->
<g id="node43" class="node">
<title>QuestionnaireCarouselModule </title>
<polygon fill="#fb8072" stroke="black" points="350.84,-214.8 159.16,-214.8 159.16,-178.8 350.84,-178.8 350.84,-214.8"/>
<text text-anchor="middle" x="255" y="-192.6" font-family="Times,serif" font-size="14.00">QuestionnaireCarouselModule </text>
</g>
<!-- CmsLibModule&#45;&gt;QuestionnaireCarouselModule  -->
<g id="edge42" class="edge">
<title>CmsLibModule&#45;&gt;QuestionnaireCarouselModule </title>
<path fill="none" stroke="black" stroke-dasharray="5,2" d="M1685.81,-134.8C1432.3,-134.8 341.56,-134.8 341.56,-134.8 341.56,-134.8 341.56,-168.53 341.56,-168.53"/>
<polygon fill="black" stroke="black" points="338.06,-168.53 341.56,-178.53 345.06,-168.53 338.06,-168.53"/>
</g>
<!-- SyncPilotModule  -->
<g id="node44" class="node">
<title>SyncPilotModule </title>
<polygon fill="#fb8072" stroke="black" points="141.5,-214.8 24.5,-214.8 24.5,-178.8 141.5,-178.8 141.5,-214.8"/>
<text text-anchor="middle" x="83" y="-192.6" font-family="Times,serif" font-size="14.00">SyncPilotModule </text>
</g>
<!-- CmsLibModule&#45;&gt;SyncPilotModule  -->
<g id="edge43" class="edge">
<title>CmsLibModule&#45;&gt;SyncPilotModule </title>
<path fill="none" stroke="black" stroke-dasharray="5,2" d="M1685.56,-132.8C1409.19,-132.8 134.42,-132.8 134.42,-132.8 134.42,-132.8 134.42,-168.63 134.42,-168.63"/>
<polygon fill="black" stroke="black" points="130.92,-168.63 134.42,-178.63 137.92,-168.63 130.92,-168.63"/>
</g>
</g>
</svg>
