<?xml version="1.0" encoding="UTF-8" standalone="no"?>
<!DOCTYPE svg PUBLIC "-//W3C//DTD SVG 1.1//EN"
 "http://www.w3.org/Graphics/SVG/1.1/DTD/svg11.dtd">
<!-- Generated by graphviz version 2.47.3 (20210619.1520)
 -->
<!-- Title: dependencies Pages: 1 -->
<svg width="4177pt" height="247pt"
 viewBox="0.00 0.00 4177.00 246.80" xmlns="http://www.w3.org/2000/svg" xmlns:xlink="http://www.w3.org/1999/xlink">
<g id="graph0" class="graph" transform="scale(1 1) rotate(0) translate(4 242.8)">
<title>dependencies</title>
<polygon fill="white" stroke="transparent" points="-4,4 -4,-242.8 4173,-242.8 4173,4 -4,4"/>
<text text-anchor="middle" x="2084.5" y="-8.2" font-family="sans-serif" font-size="14.00">dependencies</text>
<g id="clust1" class="cluster">
<title>cluster_CmsLibModule</title>
<polygon fill="none" stroke="black" stroke-dasharray="1,5" points="8,-32.8 8,-230.8 4161,-230.8 4161,-32.8 8,-32.8"/>
</g>
<g id="clust4" class="cluster">
<title>cluster_CmsLibModule_exports</title>
<polygon fill="none" stroke="black" points="16,-170.8 16,-222.8 4153,-222.8 4153,-170.8 16,-170.8"/>
</g>
<g id="clust3" class="cluster">
<title>cluster_CmsLibModule_imports</title>
<polygon fill="none" stroke="black" points="78,-40.8 78,-92.8 4116,-92.8 4116,-40.8 78,-40.8"/>
</g>
<!-- AgentModule -->
<g id="node1" class="node">
<title>AgentModule</title>
<polygon fill="#8dd3c7" stroke="black" points="4107.76,-84.8 4104.76,-88.8 4083.76,-88.8 4080.76,-84.8 4014.24,-84.8 4014.24,-48.8 4107.76,-48.8 4107.76,-84.8"/>
<text text-anchor="middle" x="4061" y="-62.6" font-family="Times,serif" font-size="14.00">AgentModule</text>
</g>
<!-- CmsLibModule -->
<g id="node27" class="node">
<title>CmsLibModule</title>
<polygon fill="#8dd3c7" stroke="black" points="2087.17,-149.8 2084.17,-153.8 2063.17,-153.8 2060.17,-149.8 1982.83,-149.8 1982.83,-113.8 2087.17,-113.8 2087.17,-149.8"/>
<text text-anchor="middle" x="2035" y="-127.6" font-family="Times,serif" font-size="14.00">CmsLibModule</text>
</g>
<!-- AgentModule&#45;&gt;CmsLibModule -->
<g id="edge1" class="edge">
<title>AgentModule&#45;&gt;CmsLibModule</title>
<path fill="none" stroke="black" d="M4021.93,-84.91C4021.93,-104.14 4021.93,-131.8 4021.93,-131.8 4021.93,-131.8 2097.38,-131.8 2097.38,-131.8"/>
<polygon fill="black" stroke="black" points="2097.38,-128.3 2087.38,-131.8 2097.38,-135.3 2097.38,-128.3"/>
</g>
<!-- AssetsTableModule -->
<g id="node2" class="node">
<title>AssetsTableModule</title>
<polygon fill="#8dd3c7" stroke="black" points="3995.97,-84.8 3992.97,-88.8 3971.97,-88.8 3968.97,-84.8 3868.03,-84.8 3868.03,-48.8 3995.97,-48.8 3995.97,-84.8"/>
<text text-anchor="middle" x="3932" y="-62.6" font-family="Times,serif" font-size="14.00">AssetsTableModule</text>
</g>
<!-- AssetsTableModule&#45;&gt;CmsLibModule -->
<g id="edge2" class="edge">
<title>AssetsTableModule&#45;&gt;CmsLibModule</title>
<path fill="none" stroke="black" d="M3874.1,-85.02C3874.1,-103.63 3874.1,-129.8 3874.1,-129.8 3874.1,-129.8 2097.57,-129.8 2097.57,-129.8"/>
<polygon fill="black" stroke="black" points="2097.57,-126.3 2087.57,-129.8 2097.57,-133.3 2097.57,-126.3"/>
</g>
<!-- B2bModule -->
<g id="node3" class="node">
<title>B2bModule</title>
<polygon fill="#8dd3c7" stroke="black" points="3850.39,-84.8 3847.39,-88.8 3826.39,-88.8 3823.39,-84.8 3767.61,-84.8 3767.61,-48.8 3850.39,-48.8 3850.39,-84.8"/>
<text text-anchor="middle" x="3809" y="-62.6" font-family="Times,serif" font-size="14.00">B2bModule</text>
</g>
<!-- B2bModule&#45;&gt;CmsLibModule -->
<g id="edge3" class="edge">
<title>B2bModule&#45;&gt;CmsLibModule</title>
<path fill="none" stroke="black" d="M3771.65,-85.07C3771.65,-103.36 3771.65,-128.8 3771.65,-128.8 3771.65,-128.8 2097.45,-128.8 2097.45,-128.8"/>
<polygon fill="black" stroke="black" points="2097.45,-125.3 2087.45,-128.8 2097.45,-132.3 2097.45,-125.3"/>
</g>
<!-- BannerModule -->
<g id="node4" class="node">
<title>BannerModule</title>
<polygon fill="#8dd3c7" stroke="black" points="3749.98,-84.8 3746.98,-88.8 3725.98,-88.8 3722.98,-84.8 3650.02,-84.8 3650.02,-48.8 3749.98,-48.8 3749.98,-84.8"/>
<text text-anchor="middle" x="3700" y="-62.6" font-family="Times,serif" font-size="14.00">BannerModule</text>
</g>
<!-- BannerModule&#45;&gt;CmsLibModule -->
<g id="edge4" class="edge">
<title>BannerModule&#45;&gt;CmsLibModule</title>
<path fill="none" stroke="black" d="M3663.16,-84.8C3663.16,-102.48 3663.16,-126.8 3663.16,-126.8 3663.16,-126.8 2097.33,-126.8 2097.33,-126.8"/>
<polygon fill="black" stroke="black" points="2097.33,-123.3 2087.33,-126.8 2097.33,-130.3 2097.33,-123.3"/>
</g>
<!-- CategoryFeatureCarouselModule -->
<g id="node5" class="node">
<title>CategoryFeatureCarouselModule</title>
<polygon fill="#8dd3c7" stroke="black" points="3632.11,-84.8 3629.11,-88.8 3608.11,-88.8 3605.11,-84.8 3429.89,-84.8 3429.89,-48.8 3632.11,-48.8 3632.11,-84.8"/>
<text text-anchor="middle" x="3531" y="-62.6" font-family="Times,serif" font-size="14.00">CategoryFeatureCarouselModule</text>
</g>
<!-- CategoryFeatureCarouselModule&#45;&gt;CmsLibModule -->
<g id="edge5" class="edge">
<title>CategoryFeatureCarouselModule&#45;&gt;CmsLibModule</title>
<path fill="none" stroke="black" d="M3439.06,-84.82C3439.06,-102.17 3439.06,-125.8 3439.06,-125.8 3439.06,-125.8 2097.48,-125.8 2097.48,-125.8"/>
<polygon fill="black" stroke="black" points="2097.48,-122.3 2087.48,-125.8 2097.48,-129.3 2097.48,-122.3"/>
</g>
<!-- CategoryFeatureModule -->
<g id="node6" class="node">
<title>CategoryFeatureModule</title>
<polygon fill="#8dd3c7" stroke="black" points="3411.34,-84.8 3408.34,-88.8 3387.34,-88.8 3384.34,-84.8 3258.66,-84.8 3258.66,-48.8 3411.34,-48.8 3411.34,-84.8"/>
<text text-anchor="middle" x="3335" y="-62.6" font-family="Times,serif" font-size="14.00">CategoryFeatureModule</text>
</g>
<!-- CategoryFeatureModule&#45;&gt;CmsLibModule -->
<g id="edge6" class="edge">
<title>CategoryFeatureModule&#45;&gt;CmsLibModule</title>
<path fill="none" stroke="black" d="M3266.2,-84.83C3266.2,-101.86 3266.2,-124.8 3266.2,-124.8 3266.2,-124.8 2097.51,-124.8 2097.51,-124.8"/>
<polygon fill="black" stroke="black" points="2097.51,-121.3 2087.51,-124.8 2097.51,-128.3 2097.51,-121.3"/>
</g>
<!-- ChangeProcessModule -->
<g id="node7" class="node">
<title>ChangeProcessModule</title>
<polygon fill="#8dd3c7" stroke="black" points="3240.58,-84.8 3237.58,-88.8 3216.58,-88.8 3213.58,-84.8 3095.42,-84.8 3095.42,-48.8 3240.58,-48.8 3240.58,-84.8"/>
<text text-anchor="middle" x="3168" y="-62.6" font-family="Times,serif" font-size="14.00">ChangeProcessModule</text>
</g>
<!-- ChangeProcessModule&#45;&gt;CmsLibModule -->
<g id="edge7" class="edge">
<title>ChangeProcessModule&#45;&gt;CmsLibModule</title>
<path fill="none" stroke="black" d="M3101.59,-84.83C3101.59,-101.2 3101.59,-122.8 3101.59,-122.8 3101.59,-122.8 2097.17,-122.8 2097.17,-122.8"/>
<polygon fill="black" stroke="black" points="2097.17,-119.3 2087.17,-122.8 2097.17,-126.3 2097.17,-119.3"/>
</g>
<!-- CmsFormSubmitModule -->
<g id="node8" class="node">
<title>CmsFormSubmitModule</title>
<polygon fill="#8dd3c7" stroke="black" points="3077.01,-84.8 3074.01,-88.8 3053.01,-88.8 3050.01,-84.8 2920.99,-84.8 2920.99,-48.8 3077.01,-48.8 3077.01,-84.8"/>
<text text-anchor="middle" x="2999" y="-62.6" font-family="Times,serif" font-size="14.00">CmsFormSubmitModule</text>
</g>
<!-- CmsFormSubmitModule&#45;&gt;CmsLibModule -->
<g id="edge8" class="edge">
<title>CmsFormSubmitModule&#45;&gt;CmsLibModule</title>
<path fill="none" stroke="black" d="M2925.62,-84.81C2925.62,-100.85 2925.62,-121.8 2925.62,-121.8 2925.62,-121.8 2097.39,-121.8 2097.39,-121.8"/>
<polygon fill="black" stroke="black" points="2097.39,-118.3 2087.39,-121.8 2097.39,-125.3 2097.39,-118.3"/>
</g>
<!-- CmsSyncPilotModule -->
<g id="node9" class="node">
<title>CmsSyncPilotModule</title>
<polygon fill="#8dd3c7" stroke="black" points="2902.67,-84.8 2899.67,-88.8 2878.67,-88.8 2875.67,-84.8 2763.33,-84.8 2763.33,-48.8 2902.67,-48.8 2902.67,-84.8"/>
<text text-anchor="middle" x="2833" y="-62.6" font-family="Times,serif" font-size="14.00">CmsSyncPilotModule</text>
</g>
<!-- CmsSyncPilotModule&#45;&gt;CmsLibModule -->
<g id="edge9" class="edge">
<title>CmsSyncPilotModule&#45;&gt;CmsLibModule</title>
<path fill="none" stroke="black" d="M2858.36,-85.04C2858.36,-100.37 2858.36,-119.8 2858.36,-119.8 2858.36,-119.8 2097.44,-119.8 2097.44,-119.8"/>
<polygon fill="black" stroke="black" points="2097.44,-116.3 2087.44,-119.8 2097.44,-123.3 2097.44,-116.3"/>
</g>
<!-- ComparisonTableModule -->
<g id="node10" class="node">
<title>ComparisonTableModule</title>
<polygon fill="#8dd3c7" stroke="black" points="2744.86,-84.8 2741.86,-88.8 2720.86,-88.8 2717.86,-84.8 2585.14,-84.8 2585.14,-48.8 2744.86,-48.8 2744.86,-84.8"/>
<text text-anchor="middle" x="2665" y="-62.6" font-family="Times,serif" font-size="14.00">ComparisonTableModule</text>
</g>
<!-- ComparisonTableModule&#45;&gt;CmsLibModule -->
<g id="edge10" class="edge">
<title>ComparisonTableModule&#45;&gt;CmsLibModule</title>
<path fill="none" stroke="black" d="M2692.73,-84.99C2692.73,-99.98 2692.73,-118.8 2692.73,-118.8 2692.73,-118.8 2097.44,-118.8 2097.44,-118.8"/>
<polygon fill="black" stroke="black" points="2097.44,-115.3 2087.44,-118.8 2097.44,-122.3 2097.44,-115.3"/>
</g>
<!-- CustomContainerModule -->
<g id="node11" class="node">
<title>CustomContainerModule</title>
<polygon fill="#8dd3c7" stroke="black" points="2567.32,-84.8 2564.32,-88.8 2543.32,-88.8 2540.32,-84.8 2408.68,-84.8 2408.68,-48.8 2567.32,-48.8 2567.32,-84.8"/>
<text text-anchor="middle" x="2488" y="-62.6" font-family="Times,serif" font-size="14.00">CustomContainerModule</text>
</g>
<!-- CustomContainerModule&#45;&gt;CmsLibModule -->
<g id="edge11" class="edge">
<title>CustomContainerModule&#45;&gt;CmsLibModule</title>
<path fill="none" stroke="black" d="M2514.39,-84.85C2514.39,-99.17 2514.39,-116.8 2514.39,-116.8 2514.39,-116.8 2097.22,-116.8 2097.22,-116.8"/>
<polygon fill="black" stroke="black" points="2097.22,-113.3 2087.22,-116.8 2097.22,-120.3 2097.22,-113.3"/>
</g>
<!-- DashboardLinkModule -->
<g id="node12" class="node">
<title>DashboardLinkModule</title>
<polygon fill="#8dd3c7" stroke="black" points="2391.13,-84.8 2388.13,-88.8 2367.13,-88.8 2364.13,-84.8 2244.87,-84.8 2244.87,-48.8 2391.13,-48.8 2391.13,-84.8"/>
<text text-anchor="middle" x="2318" y="-62.6" font-family="Times,serif" font-size="14.00">DashboardLinkModule</text>
</g>
<!-- DashboardLinkModule&#45;&gt;CmsLibModule -->
<g id="edge12" class="edge">
<title>DashboardLinkModule&#45;&gt;CmsLibModule</title>
<path fill="none" stroke="black" d="M2293.14,-85.05C2293.14,-98.98 2293.14,-115.8 2293.14,-115.8 2293.14,-115.8 2097.24,-115.8 2097.24,-115.8"/>
<polygon fill="black" stroke="black" points="2097.24,-112.3 2087.24,-115.8 2097.24,-119.3 2097.24,-112.3"/>
</g>
<!-- FSLoginFormModule -->
<g id="node13" class="node">
<title>FSLoginFormModule</title>
<polygon fill="#8dd3c7" stroke="black" points="2226.39,-84.8 2223.39,-88.8 2202.39,-88.8 2199.39,-84.8 2087.61,-84.8 2087.61,-48.8 2226.39,-48.8 2226.39,-84.8"/>
<text text-anchor="middle" x="2157" y="-62.6" font-family="Times,serif" font-size="14.00">FSLoginFormModule</text>
</g>
<!-- FSLoginFormModule&#45;&gt;CmsLibModule -->
<g id="edge13" class="edge">
<title>FSLoginFormModule&#45;&gt;CmsLibModule</title>
<path fill="none" stroke="black" d="M2087.6,-66.8C2082.1,-66.8 2078.61,-66.8 2078.61,-66.8 2078.61,-66.8 2078.61,-103.69 2078.61,-103.69"/>
<polygon fill="black" stroke="black" points="2075.11,-103.69 2078.61,-113.69 2082.11,-103.69 2075.11,-103.69"/>
</g>
<!-- FSRegisterModule -->
<g id="node14" class="node">
<title>FSRegisterModule</title>
<polygon fill="#8dd3c7" stroke="black" points="2069.77,-84.8 2066.77,-88.8 2045.77,-88.8 2042.77,-84.8 1948.23,-84.8 1948.23,-48.8 2069.77,-48.8 2069.77,-84.8"/>
<text text-anchor="middle" x="2009" y="-62.6" font-family="Times,serif" font-size="14.00">FSRegisterModule</text>
</g>
<!-- FSRegisterModule&#45;&gt;CmsLibModule -->
<g id="edge14" class="edge">
<title>FSRegisterModule&#45;&gt;CmsLibModule</title>
<path fill="none" stroke="black" d="M2026.28,-84.91C2026.28,-84.91 2026.28,-103.79 2026.28,-103.79"/>
<polygon fill="black" stroke="black" points="2022.78,-103.79 2026.28,-113.79 2029.78,-103.79 2022.78,-103.79"/>
</g>
<!-- FSSearchBoxModule -->
<g id="node15" class="node">
<title>FSSearchBoxModule</title>
<polygon fill="#8dd3c7" stroke="black" points="1930.04,-84.8 1927.04,-88.8 1906.04,-88.8 1903.04,-84.8 1793.96,-84.8 1793.96,-48.8 1930.04,-48.8 1930.04,-84.8"/>
<text text-anchor="middle" x="1862" y="-62.6" font-family="Times,serif" font-size="14.00">FSSearchBoxModule</text>
</g>
<!-- FSSearchBoxModule&#45;&gt;CmsLibModule -->
<g id="edge15" class="edge">
<title>FSSearchBoxModule&#45;&gt;CmsLibModule</title>
<path fill="none" stroke="black" d="M1924.14,-85.05C1924.14,-98.98 1924.14,-115.8 1924.14,-115.8 1924.14,-115.8 1972.82,-115.8 1972.82,-115.8"/>
<polygon fill="black" stroke="black" points="1972.82,-119.3 1982.82,-115.8 1972.82,-112.3 1972.82,-119.3"/>
</g>
<!-- FnolModule -->
<g id="node16" class="node">
<title>FnolModule</title>
<polygon fill="#8dd3c7" stroke="black" points="1775.72,-84.8 1772.72,-88.8 1751.72,-88.8 1748.72,-84.8 1690.28,-84.8 1690.28,-48.8 1775.72,-48.8 1775.72,-84.8"/>
<text text-anchor="middle" x="1733" y="-62.6" font-family="Times,serif" font-size="14.00">FnolModule</text>
</g>
<!-- FnolModule&#45;&gt;CmsLibModule -->
<g id="edge16" class="edge">
<title>FnolModule&#45;&gt;CmsLibModule</title>
<path fill="none" stroke="black" d="M1767.99,-84.85C1767.99,-99.17 1767.99,-116.8 1767.99,-116.8 1767.99,-116.8 1972.57,-116.8 1972.57,-116.8"/>
<polygon fill="black" stroke="black" points="1972.57,-120.3 1982.57,-116.8 1972.57,-113.3 1972.57,-120.3"/>
</g>
<!-- GeneralInformationModule -->
<g id="node17" class="node">
<title>GeneralInformationModule</title>
<polygon fill="#8dd3c7" stroke="black" points="1672.22,-84.8 1669.22,-88.8 1648.22,-88.8 1645.22,-84.8 1501.78,-84.8 1501.78,-48.8 1672.22,-48.8 1672.22,-84.8"/>
<text text-anchor="middle" x="1587" y="-62.6" font-family="Times,serif" font-size="14.00">GeneralInformationModule</text>
</g>
<!-- GeneralInformationModule&#45;&gt;CmsLibModule -->
<g id="edge17" class="edge">
<title>GeneralInformationModule&#45;&gt;CmsLibModule</title>
<path fill="none" stroke="black" d="M1662.87,-84.99C1662.87,-99.98 1662.87,-118.8 1662.87,-118.8 1662.87,-118.8 1972.47,-118.8 1972.47,-118.8"/>
<polygon fill="black" stroke="black" points="1972.47,-122.3 1982.47,-118.8 1972.47,-115.3 1972.47,-122.3"/>
</g>
<!-- MessageNotificationModule -->
<g id="node18" class="node">
<title>MessageNotificationModule</title>
<polygon fill="#8dd3c7" stroke="black" points="1484.18,-84.8 1481.18,-88.8 1460.18,-88.8 1457.18,-84.8 1307.82,-84.8 1307.82,-48.8 1484.18,-48.8 1484.18,-84.8"/>
<text text-anchor="middle" x="1396" y="-62.6" font-family="Times,serif" font-size="14.00">MessageNotificationModule</text>
</g>
<!-- MessageNotificationModule&#45;&gt;CmsLibModule -->
<g id="edge18" class="edge">
<title>MessageNotificationModule&#45;&gt;CmsLibModule</title>
<path fill="none" stroke="black" d="M1470.86,-85.04C1470.86,-100.37 1470.86,-119.8 1470.86,-119.8 1470.86,-119.8 1972.69,-119.8 1972.69,-119.8"/>
<polygon fill="black" stroke="black" points="1972.69,-123.3 1982.69,-119.8 1972.69,-116.3 1972.69,-123.3"/>
</g>
<!-- MyAccountModule -->
<g id="node19" class="node">
<title>MyAccountModule</title>
<polygon fill="#8dd3c7" stroke="black" points="1290.42,-84.8 1287.42,-88.8 1266.42,-88.8 1263.42,-84.8 1163.58,-84.8 1163.58,-48.8 1290.42,-48.8 1290.42,-84.8"/>
<text text-anchor="middle" x="1227" y="-62.6" font-family="Times,serif" font-size="14.00">MyAccountModule</text>
</g>
<!-- MyAccountModule&#45;&gt;CmsLibModule -->
<g id="edge19" class="edge">
<title>MyAccountModule&#45;&gt;CmsLibModule</title>
<path fill="none" stroke="black" d="M1286.19,-84.81C1286.19,-100.85 1286.19,-121.8 1286.19,-121.8 1286.19,-121.8 1972.64,-121.8 1972.64,-121.8"/>
<polygon fill="black" stroke="black" points="1972.64,-125.3 1982.64,-121.8 1972.64,-118.3 1972.64,-125.3"/>
</g>
<!-- NavigationModule -->
<g id="node20" class="node">
<title>NavigationModule</title>
<polygon fill="#8dd3c7" stroke="black" points="1145.76,-84.8 1142.76,-88.8 1121.76,-88.8 1118.76,-84.8 1024.24,-84.8 1024.24,-48.8 1145.76,-48.8 1145.76,-84.8"/>
<text text-anchor="middle" x="1085" y="-62.6" font-family="Times,serif" font-size="14.00">NavigationModule</text>
</g>
<!-- NavigationModule&#45;&gt;CmsLibModule -->
<g id="edge20" class="edge">
<title>NavigationModule&#45;&gt;CmsLibModule</title>
<path fill="none" stroke="black" d="M1139.96,-84.83C1139.96,-101.2 1139.96,-122.8 1139.96,-122.8 1139.96,-122.8 1972.68,-122.8 1972.68,-122.8"/>
<polygon fill="black" stroke="black" points="1972.68,-126.3 1982.68,-122.8 1972.68,-119.3 1972.68,-126.3"/>
</g>
<!-- NotFoundModule -->
<g id="node21" class="node">
<title>NotFoundModule</title>
<polygon fill="#8dd3c7" stroke="black" points="1006.33,-84.8 1003.33,-88.8 982.33,-88.8 979.33,-84.8 889.67,-84.8 889.67,-48.8 1006.33,-48.8 1006.33,-84.8"/>
<text text-anchor="middle" x="948" y="-62.6" font-family="Times,serif" font-size="14.00">NotFoundModule</text>
</g>
<!-- NotFoundModule&#45;&gt;CmsLibModule -->
<g id="edge21" class="edge">
<title>NotFoundModule&#45;&gt;CmsLibModule</title>
<path fill="none" stroke="black" d="M1001.12,-84.83C1001.12,-101.86 1001.12,-124.8 1001.12,-124.8 1001.12,-124.8 1972.67,-124.8 1972.67,-124.8"/>
<polygon fill="black" stroke="black" points="1972.67,-128.3 1982.67,-124.8 1972.67,-121.3 1972.67,-128.3"/>
</g>
<!-- PersonalDetailsModule -->
<g id="node22" class="node">
<title>PersonalDetailsModule</title>
<polygon fill="#8dd3c7" stroke="black" points="871.91,-84.8 868.91,-88.8 847.91,-88.8 844.91,-84.8 724.09,-84.8 724.09,-48.8 871.91,-48.8 871.91,-84.8"/>
<text text-anchor="middle" x="798" y="-62.6" font-family="Times,serif" font-size="14.00">PersonalDetailsModule</text>
</g>
<!-- PersonalDetailsModule&#45;&gt;CmsLibModule -->
<g id="edge22" class="edge">
<title>PersonalDetailsModule&#45;&gt;CmsLibModule</title>
<path fill="none" stroke="black" d="M849.62,-84.82C849.62,-102.17 849.62,-125.8 849.62,-125.8 849.62,-125.8 1972.54,-125.8 1972.54,-125.8"/>
<polygon fill="black" stroke="black" points="1972.54,-129.3 1982.54,-125.8 1972.54,-122.3 1972.54,-129.3"/>
</g>
<!-- ProductModule -->
<g id="node23" class="node">
<title>ProductModule</title>
<polygon fill="#8dd3c7" stroke="black" points="706.6,-84.8 703.6,-88.8 682.6,-88.8 679.6,-84.8 603.4,-84.8 603.4,-48.8 706.6,-48.8 706.6,-84.8"/>
<text text-anchor="middle" x="655" y="-62.6" font-family="Times,serif" font-size="14.00">ProductModule</text>
</g>
<!-- ProductModule&#45;&gt;CmsLibModule -->
<g id="edge23" class="edge">
<title>ProductModule&#45;&gt;CmsLibModule</title>
<path fill="none" stroke="black" d="M693.72,-84.8C693.72,-102.48 693.72,-126.8 693.72,-126.8 693.72,-126.8 1972.83,-126.8 1972.83,-126.8"/>
<polygon fill="black" stroke="black" points="1972.83,-130.3 1982.83,-126.8 1972.83,-123.3 1972.83,-130.3"/>
</g>
<!-- QuestionnaireCarouselModule -->
<g id="node24" class="node">
<title>QuestionnaireCarouselModule</title>
<polygon fill="#8dd3c7" stroke="black" points="585.84,-84.8 582.84,-88.8 561.84,-88.8 558.84,-84.8 398.16,-84.8 398.16,-48.8 585.84,-48.8 585.84,-84.8"/>
<text text-anchor="middle" x="492" y="-62.6" font-family="Times,serif" font-size="14.00">QuestionnaireCarouselModule</text>
</g>
<!-- QuestionnaireCarouselModule&#45;&gt;CmsLibModule -->
<g id="edge24" class="edge">
<title>QuestionnaireCarouselModule&#45;&gt;CmsLibModule</title>
<path fill="none" stroke="black" d="M569.59,-85.07C569.59,-103.36 569.59,-128.8 569.59,-128.8 569.59,-128.8 1972.41,-128.8 1972.41,-128.8"/>
<polygon fill="black" stroke="black" points="1972.41,-132.3 1982.41,-128.8 1972.41,-125.3 1972.41,-132.3"/>
</g>
<!-- SellerDashboardModule -->
<g id="node25" class="node">
<title>SellerDashboardModule</title>
<polygon fill="#8dd3c7" stroke="black" points="380.34,-84.8 377.34,-88.8 356.34,-88.8 353.34,-84.8 227.66,-84.8 227.66,-48.8 380.34,-48.8 380.34,-84.8"/>
<text text-anchor="middle" x="304" y="-62.6" font-family="Times,serif" font-size="14.00">SellerDashboardModule</text>
</g>
<!-- SellerDashboardModule&#45;&gt;CmsLibModule -->
<g id="edge25" class="edge">
<title>SellerDashboardModule&#45;&gt;CmsLibModule</title>
<path fill="none" stroke="black" d="M362.38,-85.02C362.38,-103.63 362.38,-129.8 362.38,-129.8 362.38,-129.8 1972.64,-129.8 1972.64,-129.8"/>
<polygon fill="black" stroke="black" points="1972.64,-133.3 1982.64,-129.8 1972.64,-126.3 1972.64,-133.3"/>
</g>
<!-- UserProfileModule -->
<g id="node26" class="node">
<title>UserProfileModule</title>
<polygon fill="#8dd3c7" stroke="black" points="210.08,-84.8 207.08,-88.8 186.08,-88.8 183.08,-84.8 85.92,-84.8 85.92,-48.8 210.08,-48.8 210.08,-84.8"/>
<text text-anchor="middle" x="148" y="-62.6" font-family="Times,serif" font-size="14.00">UserProfileModule</text>
</g>
<!-- UserProfileModule&#45;&gt;CmsLibModule -->
<g id="edge26" class="edge">
<title>UserProfileModule&#45;&gt;CmsLibModule</title>
<path fill="none" stroke="black" d="M189.93,-84.91C189.93,-104.14 189.93,-131.8 189.93,-131.8 189.93,-131.8 1972.75,-131.8 1972.75,-131.8"/>
<polygon fill="black" stroke="black" points="1972.75,-135.3 1982.75,-131.8 1972.75,-128.3 1972.75,-135.3"/>
</g>
<!-- AgentModule  -->
<g id="node28" class="node">
<title>AgentModule </title>
<polygon fill="#fb8072" stroke="black" points="4144.76,-214.8 4047.24,-214.8 4047.24,-178.8 4144.76,-178.8 4144.76,-214.8"/>
<text text-anchor="middle" x="4096" y="-192.6" font-family="Times,serif" font-size="14.00">AgentModule </text>
</g>
<!-- CmsLibModule&#45;&gt;AgentModule  -->
<g id="edge27" class="edge">
<title>CmsLibModule&#45;&gt;AgentModule </title>
<path fill="none" stroke="black" stroke-dasharray="5,2" d="M2087.29,-132.8C2406.36,-132.8 4077.62,-132.8 4077.62,-132.8 4077.62,-132.8 4077.62,-168.63 4077.62,-168.63"/>
<polygon fill="black" stroke="black" points="4074.13,-168.63 4077.62,-178.63 4081.13,-168.63 4074.13,-168.63"/>
</g>
<!-- AssetsTableModule  -->
<g id="node29" class="node">
<title>AssetsTableModule </title>
<polygon fill="#fb8072" stroke="black" points="4029.97,-214.8 3898.03,-214.8 3898.03,-178.8 4029.97,-178.8 4029.97,-214.8"/>
<text text-anchor="middle" x="3964" y="-192.6" font-family="Times,serif" font-size="14.00">AssetsTableModule </text>
</g>
<!-- CmsLibModule&#45;&gt;AssetsTableModule  -->
<g id="edge28" class="edge">
<title>CmsLibModule&#45;&gt;AssetsTableModule </title>
<path fill="none" stroke="black" stroke-dasharray="5,2" d="M2087.64,-134.8C2395.28,-134.8 3947.12,-134.8 3947.12,-134.8 3947.12,-134.8 3947.12,-168.53 3947.12,-168.53"/>
<polygon fill="black" stroke="black" points="3943.63,-168.53 3947.12,-178.53 3950.63,-168.53 3943.63,-168.53"/>
</g>
<!-- B2bModule  -->
<g id="node30" class="node">
<title>B2bModule </title>
<polygon fill="#fb8072" stroke="black" points="3880.39,-214.8 3793.61,-214.8 3793.61,-178.8 3880.39,-178.8 3880.39,-214.8"/>
<text text-anchor="middle" x="3837" y="-192.6" font-family="Times,serif" font-size="14.00">B2bModule </text>
</g>
<!-- CmsLibModule&#45;&gt;B2bModule  -->
<g id="edge29" class="edge">
<title>CmsLibModule&#45;&gt;B2bModule </title>
<path fill="none" stroke="black" stroke-dasharray="5,2" d="M2087.52,-135.8C2382.71,-135.8 3822.12,-135.8 3822.12,-135.8 3822.12,-135.8 3822.12,-168.5 3822.12,-168.5"/>
<polygon fill="black" stroke="black" points="3818.63,-168.5 3822.12,-178.5 3825.63,-168.5 3818.63,-168.5"/>
</g>
<!-- BannerModule  -->
<g id="node31" class="node">
<title>BannerModule </title>
<polygon fill="#fb8072" stroke="black" points="3775.98,-214.8 3672.02,-214.8 3672.02,-178.8 3775.98,-178.8 3775.98,-214.8"/>
<text text-anchor="middle" x="3724" y="-192.6" font-family="Times,serif" font-size="14.00">BannerModule </text>
</g>
<!-- CmsLibModule&#45;&gt;BannerModule  -->
<g id="edge30" class="edge">
<title>CmsLibModule&#45;&gt;BannerModule </title>
<path fill="none" stroke="black" stroke-dasharray="5,2" d="M2087.47,-137.8C2371.38,-137.8 3711.12,-137.8 3711.12,-137.8 3711.12,-137.8 3711.12,-168.78 3711.12,-168.78"/>
<polygon fill="black" stroke="black" points="3707.63,-168.78 3711.12,-178.78 3714.63,-168.78 3707.63,-168.78"/>
</g>
<!-- CategoryFeatureCarouselModule  -->
<g id="node32" class="node">
<title>CategoryFeatureCarouselModule </title>
<polygon fill="#fb8072" stroke="black" points="3654.11,-214.8 3447.89,-214.8 3447.89,-178.8 3654.11,-178.8 3654.11,-214.8"/>
<text text-anchor="middle" x="3551" y="-192.6" font-family="Times,serif" font-size="14.00">CategoryFeatureCarouselModule </text>
</g>
<!-- CmsLibModule&#45;&gt;CategoryFeatureCarouselModule  -->
<g id="edge31" class="edge">
<title>CmsLibModule&#45;&gt;CategoryFeatureCarouselModule </title>
<path fill="none" stroke="black" stroke-dasharray="5,2" d="M2087.25,-138.8C2352.78,-138.8 3540.12,-138.8 3540.12,-138.8 3540.12,-138.8 3540.12,-168.77 3540.12,-168.77"/>
<polygon fill="black" stroke="black" points="3536.63,-168.77 3540.12,-178.77 3543.63,-168.77 3536.63,-168.77"/>
</g>
<!-- CategoryFeatureModule  -->
<g id="node33" class="node">
<title>CategoryFeatureModule </title>
<polygon fill="#fb8072" stroke="black" points="3430.34,-214.8 3273.66,-214.8 3273.66,-178.8 3430.34,-178.8 3430.34,-214.8"/>
<text text-anchor="middle" x="3352" y="-192.6" font-family="Times,serif" font-size="14.00">CategoryFeatureModule </text>
</g>
<!-- CmsLibModule&#45;&gt;CategoryFeatureModule  -->
<g id="edge32" class="edge">
<title>CmsLibModule&#45;&gt;CategoryFeatureModule </title>
<path fill="none" stroke="black" stroke-dasharray="5,2" d="M2087.47,-139.8C2331.39,-139.8 3342.62,-139.8 3342.62,-139.8 3342.62,-139.8 3342.62,-168.76 3342.62,-168.76"/>
<polygon fill="black" stroke="black" points="3339.13,-168.76 3342.62,-178.76 3346.13,-168.76 3339.13,-168.76"/>
</g>
<!-- ChangeProcessModule  -->
<g id="node34" class="node">
<title>ChangeProcessModule </title>
<polygon fill="#fb8072" stroke="black" points="3256.08,-214.8 3107.92,-214.8 3107.92,-178.8 3256.08,-178.8 3256.08,-214.8"/>
<text text-anchor="middle" x="3182" y="-192.6" font-family="Times,serif" font-size="14.00">ChangeProcessModule </text>
</g>
<!-- CmsLibModule&#45;&gt;ChangeProcessModule  -->
<g id="edge33" class="edge">
<title>CmsLibModule&#45;&gt;ChangeProcessModule </title>
<path fill="none" stroke="black" stroke-dasharray="5,2" d="M2087.28,-141.8C2310.72,-141.8 3174.12,-141.8 3174.12,-141.8 3174.12,-141.8 3174.12,-168.79 3174.12,-168.79"/>
<polygon fill="black" stroke="black" points="3170.63,-168.79 3174.12,-178.79 3177.63,-168.79 3170.63,-168.79"/>
</g>
<!-- CmsFormSubmitModule  -->
<g id="node35" class="node">
<title>CmsFormSubmitModule </title>
<polygon fill="#fb8072" stroke="black" points="3089.51,-214.8 2930.49,-214.8 2930.49,-178.8 3089.51,-178.8 3089.51,-214.8"/>
<text text-anchor="middle" x="3010" y="-192.6" font-family="Times,serif" font-size="14.00">CmsFormSubmitModule </text>
</g>
<!-- CmsLibModule&#45;&gt;CmsFormSubmitModule  -->
<g id="edge34" class="edge">
<title>CmsLibModule&#45;&gt;CmsFormSubmitModule </title>
<path fill="none" stroke="black" stroke-dasharray="5,2" d="M2087.42,-142.8C2289.08,-142.8 3003.62,-142.8 3003.62,-142.8 3003.62,-142.8 3003.62,-168.52 3003.62,-168.52"/>
<polygon fill="black" stroke="black" points="3000.13,-168.52 3003.62,-178.52 3007.13,-168.52 3000.13,-168.52"/>
</g>
<!-- CmsSyncPilotModule  -->
<g id="node36" class="node">
<title>CmsSyncPilotModule </title>
<polygon fill="#fb8072" stroke="black" points="2912.67,-214.8 2769.33,-214.8 2769.33,-178.8 2912.67,-178.8 2912.67,-214.8"/>
<text text-anchor="middle" x="2841" y="-192.6" font-family="Times,serif" font-size="14.00">CmsSyncPilotModule </text>
</g>
<!-- CmsLibModule&#45;&gt;CmsSyncPilotModule  -->
<g id="edge35" class="edge">
<title>CmsLibModule&#45;&gt;CmsSyncPilotModule </title>
<path fill="none" stroke="black" stroke-dasharray="5,2" d="M2087.31,-144.8C2261.95,-144.8 2813.89,-144.8 2813.89,-144.8 2813.89,-144.8 2813.89,-168.61 2813.89,-168.61"/>
<polygon fill="black" stroke="black" points="2810.39,-168.61 2813.89,-178.61 2817.39,-168.61 2810.39,-168.61"/>
</g>
<!-- ComparisonTableModule  -->
<g id="node37" class="node">
<title>ComparisonTableModule </title>
<polygon fill="#fb8072" stroke="black" points="2751.86,-214.8 2588.14,-214.8 2588.14,-178.8 2751.86,-178.8 2751.86,-214.8"/>
<text text-anchor="middle" x="2670" y="-192.6" font-family="Times,serif" font-size="14.00">ComparisonTableModule </text>
</g>
<!-- CmsLibModule&#45;&gt;ComparisonTableModule  -->
<g id="edge36" class="edge">
<title>CmsLibModule&#45;&gt;ComparisonTableModule </title>
<path fill="none" stroke="black" stroke-dasharray="5,2" d="M2087.41,-145.8C2234.51,-145.8 2640.52,-145.8 2640.52,-145.8 2640.52,-145.8 2640.52,-168.68 2640.52,-168.68"/>
<polygon fill="black" stroke="black" points="2637.02,-168.68 2640.52,-178.68 2644.02,-168.68 2637.02,-168.68"/>
</g>
<!-- CustomContainerModule  -->
<g id="node38" class="node">
<title>CustomContainerModule </title>
<polygon fill="#fb8072" stroke="black" points="2569.82,-214.8 2408.18,-214.8 2408.18,-178.8 2569.82,-178.8 2569.82,-214.8"/>
<text text-anchor="middle" x="2489" y="-192.6" font-family="Times,serif" font-size="14.00">CustomContainerModule </text>
</g>
<!-- CmsLibModule&#45;&gt;CustomContainerModule  -->
<g id="edge37" class="edge">
<title>CmsLibModule&#45;&gt;CustomContainerModule </title>
<path fill="none" stroke="black" stroke-dasharray="5,2" d="M2087.31,-147.8C2201.23,-147.8 2461.61,-147.8 2461.61,-147.8 2461.61,-147.8 2461.61,-168.55 2461.61,-168.55"/>
<polygon fill="black" stroke="black" points="2458.11,-168.55 2461.61,-178.55 2465.11,-168.55 2458.11,-168.55"/>
</g>
<!-- DashboardLinkModule  -->
<g id="node39" class="node">
<title>DashboardLinkModule </title>
<polygon fill="#fb8072" stroke="black" points="2390.13,-214.8 2239.87,-214.8 2239.87,-178.8 2390.13,-178.8 2390.13,-214.8"/>
<text text-anchor="middle" x="2315" y="-192.6" font-family="Times,serif" font-size="14.00">DashboardLinkModule </text>
</g>
<!-- CmsLibModule&#45;&gt;DashboardLinkModule  -->
<g id="edge38" class="edge">
<title>CmsLibModule&#45;&gt;DashboardLinkModule </title>
<path fill="none" stroke="black" stroke-dasharray="5,2" d="M2087.36,-148.8C2174.93,-148.8 2341.61,-148.8 2341.61,-148.8 2341.61,-148.8 2341.61,-168.65 2341.61,-168.65"/>
<polygon fill="black" stroke="black" points="2338.11,-168.65 2341.61,-178.65 2345.11,-168.65 2338.11,-168.65"/>
</g>
<!-- FSLoginFormModule  -->
<g id="node40" class="node">
<title>FSLoginFormModule </title>
<polygon fill="#fb8072" stroke="black" points="2222.39,-214.8 2079.61,-214.8 2079.61,-178.8 2222.39,-178.8 2222.39,-214.8"/>
<text text-anchor="middle" x="2151" y="-192.6" font-family="Times,serif" font-size="14.00">FSLoginFormModule </text>
</g>
<!-- CmsLibModule&#45;&gt;FSLoginFormModule  -->
<g id="edge39" class="edge">
<title>CmsLibModule&#45;&gt;FSLoginFormModule </title>
<path fill="none" stroke="black" stroke-dasharray="5,2" d="M2083.57,-149.91C2083.57,-149.91 2083.57,-168.79 2083.57,-168.79"/>
<polygon fill="black" stroke="black" points="2080.07,-168.79 2083.57,-178.79 2087.07,-168.79 2080.07,-168.79"/>
</g>
<!-- FSRegisterModule  -->
<g id="node41" class="node">
<title>FSRegisterModule </title>
<polygon fill="#fb8072" stroke="black" points="2061.77,-214.8 1936.23,-214.8 1936.23,-178.8 2061.77,-178.8 2061.77,-214.8"/>
<text text-anchor="middle" x="1999" y="-192.6" font-family="Times,serif" font-size="14.00">FSRegisterModule </text>
</g>
<!-- CmsLibModule&#45;&gt;FSRegisterModule  -->
<g id="edge40" class="edge">
<title>CmsLibModule&#45;&gt;FSRegisterModule </title>
<path fill="none" stroke="black" stroke-dasharray="5,2" d="M2022.15,-149.91C2022.15,-149.91 2022.15,-168.79 2022.15,-168.79"/>
<polygon fill="black" stroke="black" points="2018.65,-168.79 2022.15,-178.79 2025.65,-168.79 2018.65,-168.79"/>
</g>
<!-- FSSearchBoxModule  -->
<g id="node42" class="node">
<title>FSSearchBoxModule </title>
<polygon fill="#fb8072" stroke="black" points="1918.04,-214.8 1777.96,-214.8 1777.96,-178.8 1918.04,-178.8 1918.04,-214.8"/>
<text text-anchor="middle" x="1848" y="-192.6" font-family="Times,serif" font-size="14.00">FSSearchBoxModule </text>
</g>
<!-- CmsLibModule&#45;&gt;FSSearchBoxModule  -->
<g id="edge41" class="edge">
<title>CmsLibModule&#45;&gt;FSSearchBoxModule </title>
<path fill="none" stroke="black" stroke-dasharray="5,2" d="M1982.71,-148.8C1929.84,-148.8 1855.88,-148.8 1855.88,-148.8 1855.88,-148.8 1855.88,-168.65 1855.88,-168.65"/>
<polygon fill="black" stroke="black" points="1852.38,-168.65 1855.88,-178.65 1859.38,-168.65 1852.38,-168.65"/>
</g>
<!-- FnolModule  -->
<g id="node43" class="node">
<title>FnolModule </title>
<polygon fill="#fb8072" stroke="black" points="1760.22,-214.8 1671.78,-214.8 1671.78,-178.8 1760.22,-178.8 1760.22,-214.8"/>
<text text-anchor="middle" x="1716" y="-192.6" font-family="Times,serif" font-size="14.00">FnolModule </text>
</g>
<!-- CmsLibModule&#45;&gt;FnolModule  -->
<g id="edge42" class="edge">
<title>CmsLibModule&#45;&gt;FnolModule </title>
<path fill="none" stroke="black" stroke-dasharray="5,2" d="M1982.83,-147.8C1894.59,-147.8 1725.38,-147.8 1725.38,-147.8 1725.38,-147.8 1725.38,-168.55 1725.38,-168.55"/>
<polygon fill="black" stroke="black" points="1721.88,-168.55 1725.38,-178.55 1728.88,-168.55 1721.88,-168.55"/>
</g>
<!-- GeneralInformationModule  -->
<g id="node44" class="node">
<title>GeneralInformationModule </title>
<polygon fill="#fb8072" stroke="black" points="1654.22,-214.8 1479.78,-214.8 1479.78,-178.8 1654.22,-178.8 1654.22,-214.8"/>
<text text-anchor="middle" x="1567" y="-192.6" font-family="Times,serif" font-size="14.00">GeneralInformationModule </text>
</g>
<!-- CmsLibModule&#45;&gt;GeneralInformationModule  -->
<g id="edge43" class="edge">
<title>CmsLibModule&#45;&gt;GeneralInformationModule </title>
<path fill="none" stroke="black" stroke-dasharray="5,2" d="M1982.56,-145.8C1862.49,-145.8 1577.88,-145.8 1577.88,-145.8 1577.88,-145.8 1577.88,-168.68 1577.88,-168.68"/>
<polygon fill="black" stroke="black" points="1574.38,-168.68 1577.88,-178.68 1581.38,-168.68 1574.38,-168.68"/>
</g>
<!-- MessageNotificationModule  -->
<g id="node45" class="node">
<title>MessageNotificationModule </title>
<polygon fill="#fb8072" stroke="black" points="1461.68,-214.8 1282.32,-214.8 1282.32,-178.8 1461.68,-178.8 1461.68,-214.8"/>
<text text-anchor="middle" x="1372" y="-192.6" font-family="Times,serif" font-size="14.00">MessageNotificationModule </text>
</g>
<!-- CmsLibModule&#45;&gt;MessageNotificationModule  -->
<g id="edge44" class="edge">
<title>CmsLibModule&#45;&gt;MessageNotificationModule </title>
<path fill="none" stroke="black" stroke-dasharray="5,2" d="M1982.62,-144.8C1828.1,-144.8 1384.88,-144.8 1384.88,-144.8 1384.88,-144.8 1384.88,-168.61 1384.88,-168.61"/>
<polygon fill="black" stroke="black" points="1381.38,-168.61 1384.88,-178.61 1388.38,-168.61 1381.38,-168.61"/>
</g>
<!-- MyAccountModule  -->
<g id="node46" class="node">
<title>MyAccountModule </title>
<polygon fill="#fb8072" stroke="black" points="1263.92,-214.8 1134.08,-214.8 1134.08,-178.8 1263.92,-178.8 1263.92,-214.8"/>
<text text-anchor="middle" x="1199" y="-192.6" font-family="Times,serif" font-size="14.00">MyAccountModule </text>
</g>
<!-- CmsLibModule&#45;&gt;MyAccountModule  -->
<g id="edge45" class="edge">
<title>CmsLibModule&#45;&gt;MyAccountModule </title>
<path fill="none" stroke="black" stroke-dasharray="5,2" d="M1982.7,-142.8C1801.83,-142.8 1213.88,-142.8 1213.88,-142.8 1213.88,-142.8 1213.88,-168.52 1213.88,-168.52"/>
<polygon fill="black" stroke="black" points="1210.38,-168.52 1213.88,-178.52 1217.38,-168.52 1210.38,-168.52"/>
</g>
<!-- NotFoundModule  -->
<g id="node47" class="node">
<title>NotFoundModule </title>
<polygon fill="#fb8072" stroke="black" points="1115.83,-214.8 996.17,-214.8 996.17,-178.8 1115.83,-178.8 1115.83,-214.8"/>
<text text-anchor="middle" x="1056" y="-192.6" font-family="Times,serif" font-size="14.00">NotFoundModule </text>
</g>
<!-- CmsLibModule&#45;&gt;NotFoundModule  -->
<g id="edge46" class="edge">
<title>CmsLibModule&#45;&gt;NotFoundModule </title>
<path fill="none" stroke="black" stroke-dasharray="5,2" d="M1982.78,-141.8C1781.87,-141.8 1070.02,-141.8 1070.02,-141.8 1070.02,-141.8 1070.02,-168.79 1070.02,-168.79"/>
<polygon fill="black" stroke="black" points="1066.52,-168.79 1070.02,-178.79 1073.52,-168.79 1066.52,-168.79"/>
</g>
<!-- PersonalDetailsModule  -->
<g id="node48" class="node">
<title>PersonalDetailsModule </title>
<polygon fill="#fb8072" stroke="black" points="978.41,-214.8 827.59,-214.8 827.59,-178.8 978.41,-178.8 978.41,-214.8"/>
<text text-anchor="middle" x="903" y="-192.6" font-family="Times,serif" font-size="14.00">PersonalDetailsModule </text>
</g>
<!-- CmsLibModule&#45;&gt;PersonalDetailsModule  -->
<g id="edge47" class="edge">
<title>CmsLibModule&#45;&gt;PersonalDetailsModule </title>
<path fill="none" stroke="black" stroke-dasharray="5,2" d="M1982.64,-139.8C1763.87,-139.8 934.14,-139.8 934.14,-139.8 934.14,-139.8 934.14,-168.76 934.14,-168.76"/>
<polygon fill="black" stroke="black" points="930.65,-168.76 934.14,-178.76 937.65,-168.76 930.65,-168.76"/>
</g>
<!-- ProductModule  -->
<g id="node49" class="node">
<title>ProductModule </title>
<polygon fill="#fb8072" stroke="black" points="809.1,-214.8 702.9,-214.8 702.9,-178.8 809.1,-178.8 809.1,-214.8"/>
<text text-anchor="middle" x="756" y="-192.6" font-family="Times,serif" font-size="14.00">ProductModule </text>
</g>
<!-- CmsLibModule&#45;&gt;ProductModule  -->
<g id="edge48" class="edge">
<title>CmsLibModule&#45;&gt;ProductModule </title>
<path fill="none" stroke="black" stroke-dasharray="5,2" d="M1982.52,-138.8C1743.19,-138.8 766.8,-138.8 766.8,-138.8 766.8,-138.8 766.8,-168.77 766.8,-168.77"/>
<polygon fill="black" stroke="black" points="763.3,-168.77 766.8,-178.77 770.3,-168.77 763.3,-168.77"/>
</g>
<!-- ProgressBarModule  -->
<g id="node50" class="node">
<title>ProgressBarModule </title>
<polygon fill="#fb8072" stroke="black" points="684.97,-214.8 553.03,-214.8 553.03,-178.8 684.97,-178.8 684.97,-214.8"/>
<text text-anchor="middle" x="619" y="-192.6" font-family="Times,serif" font-size="14.00">ProgressBarModule </text>
</g>
<!-- CmsLibModule&#45;&gt;ProgressBarModule  -->
<g id="edge49" class="edge">
<title>CmsLibModule&#45;&gt;ProgressBarModule </title>
<path fill="none" stroke="black" stroke-dasharray="5,2" d="M1982.59,-137.8C1729.31,-137.8 644.09,-137.8 644.09,-137.8 644.09,-137.8 644.09,-168.78 644.09,-168.78"/>
<polygon fill="black" stroke="black" points="640.59,-168.78 644.09,-178.78 647.59,-168.78 640.59,-168.78"/>
</g>
<!-- QuestionnaireCarouselModule  -->
<g id="node51" class="node">
<title>QuestionnaireCarouselModule </title>
<polygon fill="#fb8072" stroke="black" points="535.84,-214.8 344.16,-214.8 344.16,-178.8 535.84,-178.8 535.84,-214.8"/>
<text text-anchor="middle" x="440" y="-192.6" font-family="Times,serif" font-size="14.00">QuestionnaireCarouselModule </text>
</g>
<!-- CmsLibModule&#45;&gt;QuestionnaireCarouselModule  -->
<g id="edge50" class="edge">
<title>CmsLibModule&#45;&gt;QuestionnaireCarouselModule </title>
<path fill="none" stroke="black" stroke-dasharray="5,2" d="M1982.83,-135.8C1710.73,-135.8 466.88,-135.8 466.88,-135.8 466.88,-135.8 466.88,-168.5 466.88,-168.5"/>
<polygon fill="black" stroke="black" points="463.38,-168.5 466.88,-178.5 470.38,-168.5 463.38,-168.5"/>
</g>
<!-- SellerDashboardModule  -->
<g id="node52" class="node">
<title>SellerDashboardModule </title>
<polygon fill="#fb8072" stroke="black" points="326.34,-214.8 169.66,-214.8 169.66,-178.8 326.34,-178.8 326.34,-214.8"/>
<text text-anchor="middle" x="248" y="-192.6" font-family="Times,serif" font-size="14.00">SellerDashboardModule </text>
</g>
<!-- CmsLibModule&#45;&gt;SellerDashboardModule  -->
<g id="edge51" class="edge">
<title>CmsLibModule&#45;&gt;SellerDashboardModule </title>
<path fill="none" stroke="black" stroke-dasharray="5,2" d="M1982.38,-134.8C1689.85,-134.8 276.88,-134.8 276.88,-134.8 276.88,-134.8 276.88,-168.53 276.88,-168.53"/>
<polygon fill="black" stroke="black" points="273.38,-168.53 276.88,-178.53 280.38,-168.53 273.38,-168.53"/>
</g>
<!-- UserProfileModule  -->
<g id="node53" class="node">
<title>UserProfileModule </title>
<polygon fill="#fb8072" stroke="black" points="151.58,-214.8 24.42,-214.8 24.42,-178.8 151.58,-178.8 151.58,-214.8"/>
<text text-anchor="middle" x="88" y="-192.6" font-family="Times,serif" font-size="14.00">UserProfileModule </text>
</g>
<!-- CmsLibModule&#45;&gt;UserProfileModule  -->
<g id="edge52" class="edge">
<title>CmsLibModule&#45;&gt;UserProfileModule </title>
<path fill="none" stroke="black" stroke-dasharray="5,2" d="M1982.75,-132.8C1675.66,-132.8 118.88,-132.8 118.88,-132.8 118.88,-132.8 118.88,-168.63 118.88,-168.63"/>
<polygon fill="black" stroke="black" points="115.38,-168.63 118.88,-178.63 122.38,-168.63 115.38,-168.63"/>
</g>
</g>
</svg>
