<?xml version="1.0" encoding="UTF-8" standalone="no"?>
<!DOCTYPE svg PUBLIC "-//W3C//DTD SVG 1.1//EN"
 "http://www.w3.org/Graphics/SVG/1.1/DTD/svg11.dtd">
<!-- Generated by graphviz version 2.47.3 (20210619.1520)
 -->
<!-- Title: dependencies Pages: 1 -->
<svg width="394pt" height="247pt"
 viewBox="0.00 0.00 394.00 246.80" xmlns="http://www.w3.org/2000/svg" xmlns:xlink="http://www.w3.org/1999/xlink">
<g id="graph0" class="graph" transform="scale(1 1) rotate(0) translate(4 242.8)">
<title>dependencies</title>
<polygon fill="white" stroke="transparent" points="-4,4 -4,-242.8 390,-242.8 390,4 -4,4"/>
<text text-anchor="middle" x="193" y="-8.2" font-family="sans-serif" font-size="14.00">dependencies</text>
<g id="clust1" class="cluster">
<title>cluster_CmsSyncPilotModule</title>
<polygon fill="none" stroke="black" stroke-dasharray="1,5" points="8,-32.8 8,-230.8 378,-230.8 378,-32.8 8,-32.8"/>
</g>
<g id="clust5" class="cluster">
<title>cluster_CmsSyncPilotModule_exports</title>
<polygon fill="none" stroke="black" points="103,-170.8 103,-222.8 283,-222.8 283,-170.8 103,-170.8"/>
</g>
<g id="clust4" class="cluster">
<title>cluster_CmsSyncPilotModule_imports</title>
<polygon fill="none" stroke="black" points="202,-40.8 202,-92.8 370,-92.8 370,-40.8 202,-40.8"/>
</g>
<g id="clust2" class="cluster">
<title>cluster_CmsSyncPilotModule_declarations</title>
<polygon fill="none" stroke="black" points="16,-40.8 16,-92.8 194,-92.8 194,-40.8 16,-40.8"/>
</g>
<!-- CmsSyncPilotComponent -->
<g id="node1" class="node">
<title>CmsSyncPilotComponent</title>
<polygon fill="#ffffb3" stroke="black" points="185.96,-84.8 24.04,-84.8 24.04,-48.8 185.96,-48.8 185.96,-84.8"/>
<text text-anchor="middle" x="105" y="-62.6" font-family="Times,serif" font-size="14.00">CmsSyncPilotComponent</text>
</g>
<!-- CmsSyncPilotModule -->
<g id="node2" class="node">
<title>CmsSyncPilotModule</title>
<polygon fill="#8dd3c7" stroke="black" points="262.67,-149.8 259.67,-153.8 238.67,-153.8 235.67,-149.8 123.33,-149.8 123.33,-113.8 262.67,-113.8 262.67,-149.8"/>
<text text-anchor="middle" x="193" y="-127.6" font-family="Times,serif" font-size="14.00">CmsSyncPilotModule</text>
</g>
<!-- CmsSyncPilotComponent&#45;&gt;CmsSyncPilotModule -->
<g id="edge1" class="edge">
<title>CmsSyncPilotComponent&#45;&gt;CmsSyncPilotModule</title>
<path fill="none" stroke="black" d="M154.45,-84.91C154.45,-84.91 154.45,-103.79 154.45,-103.79"/>
<polygon fill="black" stroke="black" points="150.95,-103.79 154.45,-113.79 157.95,-103.79 150.95,-103.79"/>
</g>
<!-- CmsSyncPilotComponent  -->
<g id="node4" class="node">
<title>CmsSyncPilotComponent </title>
<polygon fill="#fb8072" stroke="black" points="275.46,-214.8 110.54,-214.8 110.54,-178.8 275.46,-178.8 275.46,-214.8"/>
<text text-anchor="middle" x="193" y="-192.6" font-family="Times,serif" font-size="14.00">CmsSyncPilotComponent </text>
</g>
<!-- CmsSyncPilotModule&#45;&gt;CmsSyncPilotComponent  -->
<g id="edge3" class="edge">
<title>CmsSyncPilotModule&#45;&gt;CmsSyncPilotComponent </title>
<path fill="none" stroke="black" stroke-dasharray="5,2" d="M193,-149.91C193,-149.91 193,-168.79 193,-168.79"/>
<polygon fill="black" stroke="black" points="189.5,-168.79 193,-178.79 196.5,-168.79 189.5,-168.79"/>
</g>
<!-- SyncPilotDialogModule -->
<g id="node3" class="node">
<title>SyncPilotDialogModule</title>
<polygon fill="#8dd3c7" stroke="black" points="362.1,-84.8 359.1,-88.8 338.1,-88.8 335.1,-84.8 209.9,-84.8 209.9,-48.8 362.1,-48.8 362.1,-84.8"/>
<text text-anchor="middle" x="286" y="-62.6" font-family="Times,serif" font-size="14.00">SyncPilotDialogModule</text>
</g>
<!-- SyncPilotDialogModule&#45;&gt;CmsSyncPilotModule -->
<g id="edge2" class="edge">
<title>SyncPilotDialogModule&#45;&gt;CmsSyncPilotModule</title>
<path fill="none" stroke="black" d="M236.39,-84.91C236.39,-84.91 236.39,-103.79 236.39,-103.79"/>
<polygon fill="black" stroke="black" points="232.89,-103.79 236.39,-113.79 239.89,-103.79 232.89,-103.79"/>
</g>
</g>
</svg>
