<?xml version="1.0" encoding="UTF-8" standalone="no"?>
<!DOCTYPE svg PUBLIC "-//W3C//DTD SVG 1.1//EN"
 "http://www.w3.org/Graphics/SVG/1.1/DTD/svg11.dtd">
<!-- Generated by graphviz version 2.47.3 (20210619.1520)
 -->
<!-- Title: dependencies Pages: 1 -->
<svg width="412pt" height="247pt"
 viewBox="0.00 0.00 412.00 246.80" xmlns="http://www.w3.org/2000/svg" xmlns:xlink="http://www.w3.org/1999/xlink">
<g id="graph0" class="graph" transform="scale(1 1) rotate(0) translate(4 242.8)">
<title>dependencies</title>
<polygon fill="white" stroke="transparent" points="-4,4 -4,-242.8 408,-242.8 408,4 -4,4"/>
<text text-anchor="middle" x="202" y="-8.2" font-family="sans-serif" font-size="14.00">dependencies</text>
<g id="clust1" class="cluster">
<title>cluster_GenericSyncPilotModule</title>
<polygon fill="none" stroke="black" stroke-dasharray="1,5" points="8,-32.8 8,-230.8 396,-230.8 396,-32.8 8,-32.8"/>
</g>
<g id="clust2" class="cluster">
<title>cluster_GenericSyncPilotModule_declarations</title>
<polygon fill="none" stroke="black" points="192,-40.8 192,-92.8 388,-92.8 388,-40.8 192,-40.8"/>
</g>
<g id="clust5" class="cluster">
<title>cluster_GenericSyncPilotModule_exports</title>
<polygon fill="none" stroke="black" points="102,-170.8 102,-222.8 302,-222.8 302,-170.8 102,-170.8"/>
</g>
<g id="clust4" class="cluster">
<title>cluster_GenericSyncPilotModule_imports</title>
<polygon fill="none" stroke="black" points="16,-40.8 16,-92.8 184,-92.8 184,-40.8 16,-40.8"/>
</g>
<!-- GenericSyncPilotComponent -->
<g id="node1" class="node">
<title>GenericSyncPilotComponent</title>
<polygon fill="#ffffb3" stroke="black" points="380.09,-84.8 199.91,-84.8 199.91,-48.8 380.09,-48.8 380.09,-84.8"/>
<text text-anchor="middle" x="290" y="-62.6" font-family="Times,serif" font-size="14.00">GenericSyncPilotComponent</text>
</g>
<!-- GenericSyncPilotModule -->
<g id="node2" class="node">
<title>GenericSyncPilotModule</title>
<polygon fill="#8dd3c7" stroke="black" points="281.3,-149.8 278.3,-153.8 257.3,-153.8 254.3,-149.8 122.7,-149.8 122.7,-113.8 281.3,-113.8 281.3,-149.8"/>
<text text-anchor="middle" x="202" y="-127.6" font-family="Times,serif" font-size="14.00">GenericSyncPilotModule</text>
</g>
<!-- GenericSyncPilotComponent&#45;&gt;GenericSyncPilotModule -->
<g id="edge1" class="edge">
<title>GenericSyncPilotComponent&#45;&gt;GenericSyncPilotModule</title>
<path fill="none" stroke="black" d="M240.55,-84.91C240.55,-84.91 240.55,-103.79 240.55,-103.79"/>
<polygon fill="black" stroke="black" points="237.05,-103.79 240.55,-113.79 244.05,-103.79 237.05,-103.79"/>
</g>
<!-- GenericSyncPilotComponent  -->
<g id="node4" class="node">
<title>GenericSyncPilotComponent </title>
<polygon fill="#fb8072" stroke="black" points="293.59,-214.8 110.41,-214.8 110.41,-178.8 293.59,-178.8 293.59,-214.8"/>
<text text-anchor="middle" x="202" y="-192.6" font-family="Times,serif" font-size="14.00">GenericSyncPilotComponent </text>
</g>
<!-- GenericSyncPilotModule&#45;&gt;GenericSyncPilotComponent  -->
<g id="edge3" class="edge">
<title>GenericSyncPilotModule&#45;&gt;GenericSyncPilotComponent </title>
<path fill="none" stroke="black" stroke-dasharray="5,2" d="M202,-149.91C202,-149.91 202,-168.79 202,-168.79"/>
<polygon fill="black" stroke="black" points="198.5,-168.79 202,-178.79 205.5,-168.79 198.5,-168.79"/>
</g>
<!-- SyncPilotDialogModule -->
<g id="node3" class="node">
<title>SyncPilotDialogModule</title>
<polygon fill="#8dd3c7" stroke="black" points="176.1,-84.8 173.1,-88.8 152.1,-88.8 149.1,-84.8 23.9,-84.8 23.9,-48.8 176.1,-48.8 176.1,-84.8"/>
<text text-anchor="middle" x="100" y="-62.6" font-family="Times,serif" font-size="14.00">SyncPilotDialogModule</text>
</g>
<!-- SyncPilotDialogModule&#45;&gt;GenericSyncPilotModule -->
<g id="edge2" class="edge">
<title>SyncPilotDialogModule&#45;&gt;GenericSyncPilotModule</title>
<path fill="none" stroke="black" d="M149.45,-84.91C149.45,-84.91 149.45,-103.79 149.45,-103.79"/>
<polygon fill="black" stroke="black" points="145.95,-103.79 149.45,-113.79 152.95,-103.79 145.95,-103.79"/>
</g>
</g>
</svg>
