<?xml version="1.0" encoding="UTF-8" standalone="no"?>
<!DOCTYPE svg PUBLIC "-//W3C//DTD SVG 1.1//EN"
 "http://www.w3.org/Graphics/SVG/1.1/DTD/svg11.dtd">
<!-- Generated by graphviz version 2.47.3 (20210619.1520)
 -->
<!-- Title: dependencies Pages: 1 -->
<svg width="528pt" height="174pt"
 viewBox="0.00 0.00 528.00 173.80" xmlns="http://www.w3.org/2000/svg" xmlns:xlink="http://www.w3.org/1999/xlink">
<g id="graph0" class="graph" transform="scale(1 1) rotate(0) translate(4 169.8)">
<title>dependencies</title>
<polygon fill="white" stroke="transparent" points="-4,4 -4,-169.8 524,-169.8 524,4 -4,4"/>
<text text-anchor="middle" x="260" y="-8.2" font-family="sans-serif" font-size="14.00">dependencies</text>
<g id="clust1" class="cluster">
<title>cluster_FSUserComponentsModule</title>
<polygon fill="none" stroke="black" stroke-dasharray="1,5" points="8,-32.8 8,-157.8 512,-157.8 512,-32.8 8,-32.8"/>
</g>
<g id="clust3" class="cluster">
<title>cluster_FSUserComponentsModule_imports</title>
<polygon fill="none" stroke="black" points="16,-40.8 16,-92.8 504,-92.8 504,-40.8 16,-40.8"/>
</g>
<!-- FSUnitUserCreateModule -->
<g id="node1" class="node">
<title>FSUnitUserCreateModule</title>
<polygon fill="#8dd3c7" stroke="black" points="496.46,-84.8 493.46,-88.8 472.46,-88.8 469.46,-84.8 333.54,-84.8 333.54,-48.8 496.46,-48.8 496.46,-84.8"/>
<text text-anchor="middle" x="415" y="-62.6" font-family="Times,serif" font-size="14.00">FSUnitUserCreateModule</text>
</g>
<!-- FSUserComponentsModule -->
<g id="node4" class="node">
<title>FSUserComponentsModule</title>
<polygon fill="#8dd3c7" stroke="black" points="331.32,-149.8 328.32,-153.8 307.32,-153.8 304.32,-149.8 158.68,-149.8 158.68,-113.8 331.32,-113.8 331.32,-149.8"/>
<text text-anchor="middle" x="245" y="-127.6" font-family="Times,serif" font-size="14.00">FSUserComponentsModule</text>
</g>
<!-- FSUnitUserCreateModule&#45;&gt;FSUserComponentsModule -->
<g id="edge1" class="edge">
<title>FSUnitUserCreateModule&#45;&gt;FSUserComponentsModule</title>
<path fill="none" stroke="black" d="M333.53,-66.8C327.31,-66.8 323.38,-66.8 323.38,-66.8 323.38,-66.8 323.38,-103.69 323.38,-103.69"/>
<polygon fill="black" stroke="black" points="319.88,-103.69 323.38,-113.69 326.88,-103.69 319.88,-103.69"/>
</g>
<!-- FSUserDetailsModule -->
<g id="node2" class="node">
<title>FSUserDetailsModule</title>
<polygon fill="#8dd3c7" stroke="black" points="315.69,-84.8 312.69,-88.8 291.69,-88.8 288.69,-84.8 174.31,-84.8 174.31,-48.8 315.69,-48.8 315.69,-84.8"/>
<text text-anchor="middle" x="245" y="-62.6" font-family="Times,serif" font-size="14.00">FSUserDetailsModule</text>
</g>
<!-- FSUserDetailsModule&#45;&gt;FSUserComponentsModule -->
<g id="edge2" class="edge">
<title>FSUserDetailsModule&#45;&gt;FSUserComponentsModule</title>
<path fill="none" stroke="black" d="M245,-84.91C245,-84.91 245,-103.79 245,-103.79"/>
<polygon fill="black" stroke="black" points="241.5,-103.79 245,-113.79 248.5,-103.79 241.5,-103.79"/>
</g>
<!-- FSUserFormModule -->
<g id="node3" class="node">
<title>FSUserFormModule</title>
<polygon fill="#8dd3c7" stroke="black" points="155.88,-84.8 152.88,-88.8 131.88,-88.8 128.88,-84.8 24.12,-84.8 24.12,-48.8 155.88,-48.8 155.88,-84.8"/>
<text text-anchor="middle" x="90" y="-62.6" font-family="Times,serif" font-size="14.00">FSUserFormModule</text>
</g>
<!-- FSUserFormModule&#45;&gt;FSUserComponentsModule -->
<g id="edge3" class="edge">
<title>FSUserFormModule&#45;&gt;FSUserComponentsModule</title>
<path fill="none" stroke="black" d="M155.97,-66.8C162.41,-66.8 166.62,-66.8 166.62,-66.8 166.62,-66.8 166.62,-103.69 166.62,-103.69"/>
<polygon fill="black" stroke="black" points="163.12,-103.69 166.62,-113.69 170.12,-103.69 163.12,-103.69"/>
</g>
</g>
</svg>
