<?xml version="1.0" encoding="UTF-8" standalone="no"?>
<!DOCTYPE svg PUBLIC "-//W3C//DTD SVG 1.1//EN"
 "http://www.w3.org/Graphics/SVG/1.1/DTD/svg11.dtd">
<!-- Generated by graphviz version 2.47.3 (20210619.1520)
 -->
<!-- Title: dependencies Pages: 1 -->
<svg width="392pt" height="247pt"
 viewBox="0.00 0.00 392.00 246.80" xmlns="http://www.w3.org/2000/svg" xmlns:xlink="http://www.w3.org/1999/xlink">
<g id="graph0" class="graph" transform="scale(1 1) rotate(0) translate(4 242.8)">
<title>dependencies</title>
<polygon fill="white" stroke="transparent" points="-4,4 -4,-242.8 388,-242.8 388,4 -4,4"/>
<text text-anchor="middle" x="192" y="-8.2" font-family="sans-serif" font-size="14.00">dependencies</text>
<g id="clust1" class="cluster">
<title>cluster_PersonalDetailsModule</title>
<polygon fill="none" stroke="black" stroke-dasharray="1,5" points="8,-32.8 8,-230.8 376,-230.8 376,-32.8 8,-32.8"/>
</g>
<g id="clust5" class="cluster">
<title>cluster_PersonalDetailsModule_exports</title>
<polygon fill="none" stroke="black" points="98,-170.8 98,-222.8 286,-222.8 286,-170.8 98,-170.8"/>
</g>
<g id="clust2" class="cluster">
<title>cluster_PersonalDetailsModule_declarations</title>
<polygon fill="none" stroke="black" points="182,-40.8 182,-92.8 368,-92.8 368,-40.8 182,-40.8"/>
</g>
<g id="clust4" class="cluster">
<title>cluster_PersonalDetailsModule_imports</title>
<polygon fill="none" stroke="black" points="16,-40.8 16,-92.8 174,-92.8 174,-40.8 16,-40.8"/>
</g>
<!-- PersonalDetailsComponent -->
<g id="node1" class="node">
<title>PersonalDetailsComponent</title>
<polygon fill="#ffffb3" stroke="black" points="359.69,-84.8 190.31,-84.8 190.31,-48.8 359.69,-48.8 359.69,-84.8"/>
<text text-anchor="middle" x="275" y="-62.6" font-family="Times,serif" font-size="14.00">PersonalDetailsComponent</text>
</g>
<!-- PersonalDetailsModule -->
<g id="node2" class="node">
<title>PersonalDetailsModule</title>
<polygon fill="#8dd3c7" stroke="black" points="265.91,-149.8 262.91,-153.8 241.91,-153.8 238.91,-149.8 118.09,-149.8 118.09,-113.8 265.91,-113.8 265.91,-149.8"/>
<text text-anchor="middle" x="192" y="-127.6" font-family="Times,serif" font-size="14.00">PersonalDetailsModule</text>
</g>
<!-- PersonalDetailsComponent&#45;&gt;PersonalDetailsModule -->
<g id="edge1" class="edge">
<title>PersonalDetailsComponent&#45;&gt;PersonalDetailsModule</title>
<path fill="none" stroke="black" d="M228.05,-84.91C228.05,-84.91 228.05,-103.79 228.05,-103.79"/>
<polygon fill="black" stroke="black" points="224.55,-103.79 228.05,-113.79 231.55,-103.79 224.55,-103.79"/>
</g>
<!-- PersonalDetailsComponent  -->
<g id="node4" class="node">
<title>PersonalDetailsComponent </title>
<polygon fill="#fb8072" stroke="black" points="278.19,-214.8 105.81,-214.8 105.81,-178.8 278.19,-178.8 278.19,-214.8"/>
<text text-anchor="middle" x="192" y="-192.6" font-family="Times,serif" font-size="14.00">PersonalDetailsComponent </text>
</g>
<!-- PersonalDetailsModule&#45;&gt;PersonalDetailsComponent  -->
<g id="edge3" class="edge">
<title>PersonalDetailsModule&#45;&gt;PersonalDetailsComponent </title>
<path fill="none" stroke="black" stroke-dasharray="5,2" d="M192,-149.91C192,-149.91 192,-168.79 192,-168.79"/>
<polygon fill="black" stroke="black" points="188.5,-168.79 192,-178.79 195.5,-168.79 188.5,-168.79"/>
</g>
<!-- DynamicFormModule -->
<g id="node3" class="node">
<title>DynamicFormModule</title>
<polygon fill="#8dd3c7" stroke="black" points="165.7,-84.8 162.7,-88.8 141.7,-88.8 138.7,-84.8 24.3,-84.8 24.3,-48.8 165.7,-48.8 165.7,-84.8"/>
<text text-anchor="middle" x="95" y="-62.6" font-family="Times,serif" font-size="14.00">DynamicFormModule</text>
</g>
<!-- DynamicFormModule&#45;&gt;PersonalDetailsModule -->
<g id="edge2" class="edge">
<title>DynamicFormModule&#45;&gt;PersonalDetailsModule</title>
<path fill="none" stroke="black" d="M141.95,-84.91C141.95,-84.91 141.95,-103.79 141.95,-103.79"/>
<polygon fill="black" stroke="black" points="138.45,-103.79 141.95,-113.79 145.45,-103.79 138.45,-103.79"/>
</g>
</g>
</svg>
