<?xml version="1.0" encoding="UTF-8" standalone="no"?>
<!DOCTYPE svg PUBLIC "-//W3C//DTD SVG 1.1//EN"
 "http://www.w3.org/Graphics/SVG/1.1/DTD/svg11.dtd">
<!-- Generated by graphviz version 2.46.0 (20210119.1425)
 -->
<!-- Title: dependencies Pages: 1 -->
<svg width="504pt" height="284pt"
 viewBox="0.00 0.00 504.00 284.00" xmlns="http://www.w3.org/2000/svg" xmlns:xlink="http://www.w3.org/1999/xlink">
<g id="graph0" class="graph" transform="scale(1 1) rotate(0) translate(4 280)">
<title>dependencies</title>
<polygon fill="white" stroke="transparent" points="-4,4 -4,-280 500,-280 500,4 -4,4"/>
<text text-anchor="start" x="227.01" y="-42.4" font-family="sans-serif" font-weight="bold" font-size="14.00">Legend</text>
<polygon fill="#ffffb3" stroke="transparent" points="14,-10 14,-30 34,-30 34,-10 14,-10"/>
<text text-anchor="start" x="37.63" y="-15.4" font-family="sans-serif" font-size="14.00"> &#160;Declarations</text>
<polygon fill="#8dd3c7" stroke="transparent" points="127,-10 127,-30 147,-30 147,-10 127,-10"/>
<text text-anchor="start" x="150.73" y="-15.4" font-family="sans-serif" font-size="14.00"> &#160;Module</text>
<polygon fill="#80b1d3" stroke="transparent" points="213,-10 213,-30 233,-30 233,-10 213,-10"/>
<text text-anchor="start" x="236.78" y="-15.4" font-family="sans-serif" font-size="14.00"> &#160;Bootstrap</text>
<polygon fill="#fdb462" stroke="transparent" points="310,-10 310,-30 330,-30 330,-10 310,-10"/>
<text text-anchor="start" x="333.67" y="-15.4" font-family="sans-serif" font-size="14.00"> &#160;Providers</text>
<polygon fill="#fb8072" stroke="transparent" points="406,-10 406,-30 426,-30 426,-10 406,-10"/>
<text text-anchor="start" x="429.73" y="-15.4" font-family="sans-serif" font-size="14.00"> &#160;Exports</text>
<g id="clust1" class="cluster">
<title>cluster_PersonalDetailsModule</title>
<polygon fill="none" stroke="black" stroke-dasharray="1,5" points="64,-70 64,-268 432,-268 432,-70 64,-70"/>
</g>
<g id="clust5" class="cluster">
<title>cluster_PersonalDetailsModule_exports</title>
<polygon fill="none" stroke="black" points="154,-208 154,-260 342,-260 342,-208 154,-208"/>
</g>
<g id="clust2" class="cluster">
<title>cluster_PersonalDetailsModule_declarations</title>
<polygon fill="none" stroke="black" points="238,-78 238,-130 424,-130 424,-78 238,-78"/>
</g>
<g id="clust4" class="cluster">
<title>cluster_PersonalDetailsModule_imports</title>
<polygon fill="none" stroke="black" points="72,-78 72,-130 230,-130 230,-78 72,-78"/>
</g>
<!-- PersonalDetailsComponent -->
<g id="node1" class="node">
<title>PersonalDetailsComponent</title>
<polygon fill="#ffffb3" stroke="black" points="415.69,-122 246.31,-122 246.31,-86 415.69,-86 415.69,-122"/>
<text text-anchor="middle" x="331" y="-99.8" font-family="Times,serif" font-size="14.00">PersonalDetailsComponent</text>
</g>
<!-- PersonalDetailsModule -->
<g id="node2" class="node">
<title>PersonalDetailsModule</title>
<polygon fill="#8dd3c7" stroke="black" points="321.91,-187 318.91,-191 297.91,-191 294.91,-187 174.09,-187 174.09,-151 321.91,-151 321.91,-187"/>
<text text-anchor="middle" x="248" y="-164.8" font-family="Times,serif" font-size="14.00">PersonalDetailsModule</text>
</g>
<!-- PersonalDetailsComponent&#45;&gt;PersonalDetailsModule -->
<g id="edge1" class="edge">
<title>PersonalDetailsComponent&#45;&gt;PersonalDetailsModule</title>
<path fill="none" stroke="black" d="M284.05,-122.11C284.05,-122.11 284.05,-140.99 284.05,-140.99"/>
<polygon fill="black" stroke="black" points="280.55,-140.99 284.05,-150.99 287.55,-140.99 280.55,-140.99"/>
</g>
<!-- PersonalDetailsComponent  -->
<g id="node4" class="node">
<title>PersonalDetailsComponent </title>
<polygon fill="#fb8072" stroke="black" points="334.19,-252 161.81,-252 161.81,-216 334.19,-216 334.19,-252"/>
<text text-anchor="middle" x="248" y="-229.8" font-family="Times,serif" font-size="14.00">PersonalDetailsComponent </text>
</g>
<!-- PersonalDetailsModule&#45;&gt;PersonalDetailsComponent  -->
<g id="edge3" class="edge">
<title>PersonalDetailsModule&#45;&gt;PersonalDetailsComponent </title>
<path fill="none" stroke="black" stroke-dasharray="5,2" d="M248,-187.11C248,-187.11 248,-205.99 248,-205.99"/>
<polygon fill="black" stroke="black" points="244.5,-205.99 248,-215.99 251.5,-205.99 244.5,-205.99"/>
</g>
<!-- DynamicFormModule -->
<g id="node3" class="node">
<title>DynamicFormModule</title>
<polygon fill="#8dd3c7" stroke="black" points="221.7,-122 218.7,-126 197.7,-126 194.7,-122 80.3,-122 80.3,-86 221.7,-86 221.7,-122"/>
<text text-anchor="middle" x="151" y="-99.8" font-family="Times,serif" font-size="14.00">DynamicFormModule</text>
</g>
<!-- DynamicFormModule&#45;&gt;PersonalDetailsModule -->
<g id="edge2" class="edge">
<title>DynamicFormModule&#45;&gt;PersonalDetailsModule</title>
<path fill="none" stroke="black" d="M197.95,-122.11C197.95,-122.11 197.95,-140.99 197.95,-140.99"/>
<polygon fill="black" stroke="black" points="194.45,-140.99 197.95,-150.99 201.45,-140.99 194.45,-140.99"/>
</g>
</g>
</svg>
