<?xml version="1.0" encoding="UTF-8" standalone="no"?>
<!DOCTYPE svg PUBLIC "-//W3C//DTD SVG 1.1//EN"
 "http://www.w3.org/Graphics/SVG/1.1/DTD/svg11.dtd">
<!-- Generated by graphviz version 2.47.3 (20210619.1520)
 -->
<!-- Title: dependencies Pages: 1 -->
<svg width="691pt" height="358pt"
 viewBox="0.00 0.00 691.00 358.39" xmlns="http://www.w3.org/2000/svg" xmlns:xlink="http://www.w3.org/1999/xlink">
<g id="graph0" class="graph" transform="scale(1 1) rotate(0) translate(4 354.39)">
<title>dependencies</title>
<polygon fill="white" stroke="transparent" points="-4,4 -4,-354.39 687,-354.39 687,4 -4,4"/>
<text text-anchor="middle" x="341.5" y="-8.2" font-family="sans-serif" font-size="14.00">dependencies</text>
<g id="clust1" class="cluster">
<title>cluster_ProductAssignmentsModule</title>
<polygon fill="none" stroke="black" stroke-dasharray="1,5" points="8,-32.8 8,-342.39 675,-342.39 675,-32.8 8,-32.8"/>
</g>
<g id="clust2" class="cluster">
<title>cluster_ProductAssignmentsModule_declarations</title>
<polygon fill="none" stroke="black" points="22,-152.39 22,-204.39 661,-204.39 661,-152.39 22,-152.39"/>
</g>
<g id="clust7" class="cluster">
<title>cluster_ProductAssignmentsModule_exports</title>
<polygon fill="none" stroke="black" points="16,-282.39 16,-334.39 667,-334.39 667,-282.39 16,-282.39"/>
</g>
<g id="clust4" class="cluster">
<title>cluster_ProductAssignmentsModule_ProductAssignmentsComponent_providers</title>
<polygon fill="none" stroke="black" points="45,-40.8 45,-139.39 637,-139.39 637,-40.8 45,-40.8"/>
</g>
<!-- ActivateProductCellComponent -->
<g id="node1" class="node">
<title>ActivateProductCellComponent</title>
<polygon fill="#ffffb3" stroke="black" points="652.64,-196.39 457.36,-196.39 457.36,-160.39 652.64,-160.39 652.64,-196.39"/>
<text text-anchor="middle" x="555" y="-174.19" font-family="Times,serif" font-size="14.00">ActivateProductCellComponent</text>
</g>
<!-- ProductAssignmentsModule -->
<g id="node4" class="node">
<title>ProductAssignmentsModule</title>
<polygon fill="#8dd3c7" stroke="black" points="428.93,-261.39 425.93,-265.39 404.93,-265.39 401.93,-261.39 253.07,-261.39 253.07,-225.39 428.93,-225.39 428.93,-261.39"/>
<text text-anchor="middle" x="341" y="-239.19" font-family="Times,serif" font-size="14.00">ProductAssignmentsModule</text>
</g>
<!-- ActivateProductCellComponent&#45;&gt;ProductAssignmentsModule -->
<g id="edge1" class="edge">
<title>ActivateProductCellComponent&#45;&gt;ProductAssignmentsModule</title>
<path fill="none" stroke="black" d="M588.36,-196.41C588.36,-213.76 588.36,-237.39 588.36,-237.39 588.36,-237.39 438.9,-237.39 438.9,-237.39"/>
<polygon fill="black" stroke="black" points="438.9,-233.89 428.9,-237.39 438.9,-240.89 438.9,-233.89"/>
</g>
<!-- ProductAssignmentsComponent -->
<g id="node2" class="node">
<title>ProductAssignmentsComponent</title>
<polygon fill="#ffffb3" stroke="black" points="439.71,-196.39 242.29,-196.39 242.29,-160.39 439.71,-160.39 439.71,-196.39"/>
<text text-anchor="middle" x="341" y="-174.19" font-family="Times,serif" font-size="14.00">ProductAssignmentsComponent</text>
</g>
<!-- ProductAssignmentsComponent&#45;&gt;ProductAssignmentsModule -->
<g id="edge2" class="edge">
<title>ProductAssignmentsComponent&#45;&gt;ProductAssignmentsModule</title>
<path fill="none" stroke="black" d="M341,-196.5C341,-196.5 341,-215.38 341,-215.38"/>
<polygon fill="black" stroke="black" points="337.5,-215.38 341,-225.38 344.5,-215.38 337.5,-215.38"/>
</g>
<!-- RemoveProductCellComponent -->
<g id="node3" class="node">
<title>RemoveProductCellComponent</title>
<polygon fill="#ffffb3" stroke="black" points="224.37,-196.39 29.63,-196.39 29.63,-160.39 224.37,-160.39 224.37,-196.39"/>
<text text-anchor="middle" x="127" y="-174.19" font-family="Times,serif" font-size="14.00">RemoveProductCellComponent</text>
</g>
<!-- RemoveProductCellComponent&#45;&gt;ProductAssignmentsModule -->
<g id="edge4" class="edge">
<title>RemoveProductCellComponent&#45;&gt;ProductAssignmentsModule</title>
<path fill="none" stroke="black" d="M157.98,-196.41C157.98,-213.76 157.98,-237.39 157.98,-237.39 157.98,-237.39 243.24,-237.39 243.24,-237.39"/>
<polygon fill="black" stroke="black" points="243.24,-240.89 253.24,-237.39 243.24,-233.89 243.24,-240.89"/>
</g>
<!-- ActivateProductCellComponent  -->
<g id="node6" class="node">
<title>ActivateProductCellComponent </title>
<polygon fill="#fb8072" stroke="black" points="658.64,-326.39 459.36,-326.39 459.36,-290.39 658.64,-290.39 658.64,-326.39"/>
<text text-anchor="middle" x="559" y="-304.19" font-family="Times,serif" font-size="14.00">ActivateProductCellComponent </text>
</g>
<!-- ProductAssignmentsModule&#45;&gt;ActivateProductCellComponent  -->
<g id="edge5" class="edge">
<title>ProductAssignmentsModule&#45;&gt;ActivateProductCellComponent </title>
<path fill="none" stroke="black" stroke-dasharray="5,2" d="M428.96,-249.39C475.82,-249.39 523.89,-249.39 523.89,-249.39 523.89,-249.39 523.89,-280.37 523.89,-280.37"/>
<polygon fill="black" stroke="black" points="520.39,-280.37 523.89,-290.37 527.39,-280.37 520.39,-280.37"/>
</g>
<!-- ProductAssignmentsComponent  -->
<g id="node7" class="node">
<title>ProductAssignmentsComponent </title>
<polygon fill="#fb8072" stroke="black" points="441.21,-326.39 240.79,-326.39 240.79,-290.39 441.21,-290.39 441.21,-326.39"/>
<text text-anchor="middle" x="341" y="-304.19" font-family="Times,serif" font-size="14.00">ProductAssignmentsComponent </text>
</g>
<!-- ProductAssignmentsModule&#45;&gt;ProductAssignmentsComponent  -->
<g id="edge6" class="edge">
<title>ProductAssignmentsModule&#45;&gt;ProductAssignmentsComponent </title>
<path fill="none" stroke="black" stroke-dasharray="5,2" d="M341,-261.5C341,-261.5 341,-280.38 341,-280.38"/>
<polygon fill="black" stroke="black" points="337.5,-280.38 341,-290.38 344.5,-280.38 337.5,-280.38"/>
</g>
<!-- RemoveProductCellComponent  -->
<g id="node8" class="node">
<title>RemoveProductCellComponent </title>
<polygon fill="#fb8072" stroke="black" points="222.37,-326.39 23.63,-326.39 23.63,-290.39 222.37,-290.39 222.37,-326.39"/>
<text text-anchor="middle" x="123" y="-304.19" font-family="Times,serif" font-size="14.00">RemoveProductCellComponent </text>
</g>
<!-- ProductAssignmentsModule&#45;&gt;RemoveProductCellComponent  -->
<g id="edge7" class="edge">
<title>ProductAssignmentsModule&#45;&gt;RemoveProductCellComponent </title>
<path fill="none" stroke="black" stroke-dasharray="5,2" d="M253.14,-249.39C182.08,-249.39 93.77,-249.39 93.77,-249.39 93.77,-249.39 93.77,-280.37 93.77,-280.37"/>
<polygon fill="black" stroke="black" points="90.27,-280.37 93.77,-290.37 97.27,-280.37 90.27,-280.37"/>
</g>
<!-- {
 &#160;&#160;&#160;provide: ListService, useExisting: ProductAssignmentsListService,
} -->
<g id="node5" class="node">
<title>{
 &#160;&#160;&#160;provide: ListService, useExisting: ProductAssignmentsListService,
}</title>
<ellipse fill="#fdb462" stroke="black" cx="341" cy="-90.1" rx="287.75" ry="41.09"/>
<text text-anchor="middle" x="341" y="-102.7" font-family="Times,serif" font-size="14.00">{</text>
<text text-anchor="middle" x="341" y="-85.9" font-family="Times,serif" font-size="14.00"> &#160;&#160;&#160;provide: ListService, useExisting: ProductAssignmentsListService,</text>
<text text-anchor="middle" x="341" y="-69.1" font-family="Times,serif" font-size="14.00">}</text>
</g>
<!-- {
 &#160;&#160;&#160;provide: ListService, useExisting: ProductAssignmentsListService,
}&#45;&gt;ProductAssignmentsComponent -->
<g id="edge3" class="edge">
<title>{
 &#160;&#160;&#160;provide: ListService, useExisting: ProductAssignmentsListService,
}&#45;&gt;ProductAssignmentsComponent</title>
<path fill="none" stroke="black" d="M341,-131.4C341,-131.4 341,-150.06 341,-150.06"/>
<polygon fill="black" stroke="black" points="337.5,-150.06 341,-160.06 344.5,-150.06 337.5,-150.06"/>
</g>
</g>
</svg>
