<?xml version="1.0" encoding="UTF-8" standalone="no"?>
<!DOCTYPE svg PUBLIC "-//W3C//DTD SVG 1.1//EN"
 "http://www.w3.org/Graphics/SVG/1.1/DTD/svg11.dtd">
<!-- Generated by graphviz version 2.47.3 (20210619.1520)
 -->
<!-- Title: dependencies Pages: 1 -->
<svg width="1064pt" height="358pt"
 viewBox="0.00 0.00 1064.00 358.39" xmlns="http://www.w3.org/2000/svg" xmlns:xlink="http://www.w3.org/1999/xlink">
<g id="graph0" class="graph" transform="scale(1 1) rotate(0) translate(4 354.39)">
<title>dependencies</title>
<polygon fill="white" stroke="transparent" points="-4,4 -4,-354.39 1060,-354.39 1060,4 -4,4"/>
<text text-anchor="middle" x="528" y="-8.2" font-family="sans-serif" font-size="14.00">dependencies</text>
<g id="clust1" class="cluster">
<title>cluster_ProductAssignmentsModule</title>
<polygon fill="none" stroke="black" stroke-dasharray="1,5" points="8,-32.8 8,-342.39 1048,-342.39 1048,-32.8 8,-32.8"/>
</g>
<g id="clust7" class="cluster">
<title>cluster_ProductAssignmentsModule_exports</title>
<polygon fill="none" stroke="black" points="16,-282.39 16,-334.39 667,-334.39 667,-282.39 16,-282.39"/>
</g>
<g id="clust4" class="cluster">
<title>cluster_ProductAssignmentsModule_ProductAssignmentsComponent_providers</title>
<polygon fill="none" stroke="black" points="448,-40.8 448,-204.39 1040,-204.39 1040,-40.8 448,-40.8"/>
</g>
<g id="clust2" class="cluster">
<title>cluster_ProductAssignmentsModule_declarations</title>
<polygon fill="none" stroke="black" points="16,-152.39 16,-204.39 440,-204.39 440,-152.39 16,-152.39"/>
</g>
<!-- ActivateProductCellComponent -->
<g id="node1" class="node">
<title>ActivateProductCellComponent</title>
<polygon fill="#ffffb3" stroke="black" points="431.64,-196.39 236.36,-196.39 236.36,-160.39 431.64,-160.39 431.64,-196.39"/>
<text text-anchor="middle" x="334" y="-174.19" font-family="Times,serif" font-size="14.00">ActivateProductCellComponent</text>
</g>
<!-- ProductAssignmentsModule -->
<g id="node4" class="node">
<title>ProductAssignmentsModule</title>
<polygon fill="#8dd3c7" stroke="black" points="424.93,-261.39 421.93,-265.39 400.93,-265.39 397.93,-261.39 249.07,-261.39 249.07,-225.39 424.93,-225.39 424.93,-261.39"/>
<text text-anchor="middle" x="337" y="-239.19" font-family="Times,serif" font-size="14.00">ProductAssignmentsModule</text>
</g>
<!-- ActivateProductCellComponent&#45;&gt;ProductAssignmentsModule -->
<g id="edge1" class="edge">
<title>ActivateProductCellComponent&#45;&gt;ProductAssignmentsModule</title>
<path fill="none" stroke="black" d="M337,-196.5C337,-196.5 337,-215.38 337,-215.38"/>
<polygon fill="black" stroke="black" points="333.5,-215.38 337,-225.38 340.5,-215.38 333.5,-215.38"/>
</g>
<!-- ProductAssignmentsComponent -->
<g id="node2" class="node">
<title>ProductAssignmentsComponent</title>
<polygon fill="#ffffb3" stroke="black" points="747.71,-196.39 550.29,-196.39 550.29,-160.39 747.71,-160.39 747.71,-196.39"/>
<text text-anchor="middle" x="649" y="-174.19" font-family="Times,serif" font-size="14.00">ProductAssignmentsComponent</text>
</g>
<!-- ProductAssignmentsComponent&#45;&gt;ProductAssignmentsModule -->
<g id="edge2" class="edge">
<title>ProductAssignmentsComponent&#45;&gt;ProductAssignmentsModule</title>
<path fill="none" stroke="black" d="M604.48,-196.41C604.48,-213.76 604.48,-237.39 604.48,-237.39 604.48,-237.39 434.95,-237.39 434.95,-237.39"/>
<polygon fill="black" stroke="black" points="434.95,-233.89 424.95,-237.39 434.95,-240.89 434.95,-233.89"/>
</g>
<!-- RemoveProductCellComponent -->
<g id="node3" class="node">
<title>RemoveProductCellComponent</title>
<polygon fill="#ffffb3" stroke="black" points="218.37,-196.39 23.63,-196.39 23.63,-160.39 218.37,-160.39 218.37,-196.39"/>
<text text-anchor="middle" x="121" y="-174.19" font-family="Times,serif" font-size="14.00">RemoveProductCellComponent</text>
</g>
<!-- RemoveProductCellComponent&#45;&gt;ProductAssignmentsModule -->
<g id="edge4" class="edge">
<title>RemoveProductCellComponent&#45;&gt;ProductAssignmentsModule</title>
<path fill="none" stroke="black" d="M88.69,-196.41C88.69,-213.76 88.69,-237.39 88.69,-237.39 88.69,-237.39 239.11,-237.39 239.11,-237.39"/>
<polygon fill="black" stroke="black" points="239.11,-240.89 249.11,-237.39 239.11,-233.89 239.11,-240.89"/>
</g>
<!-- ActivateProductCellComponent  -->
<g id="node6" class="node">
<title>ActivateProductCellComponent </title>
<polygon fill="#fb8072" stroke="black" points="658.64,-326.39 459.36,-326.39 459.36,-290.39 658.64,-290.39 658.64,-326.39"/>
<text text-anchor="middle" x="559" y="-304.19" font-family="Times,serif" font-size="14.00">ActivateProductCellComponent </text>
</g>
<!-- ProductAssignmentsModule&#45;&gt;ActivateProductCellComponent  -->
<g id="edge5" class="edge">
<title>ProductAssignmentsModule&#45;&gt;ActivateProductCellComponent </title>
<path fill="none" stroke="black" stroke-dasharray="5,2" d="M424.89,-249.39C465.52,-249.39 504.91,-249.39 504.91,-249.39 504.91,-249.39 504.91,-280.37 504.91,-280.37"/>
<polygon fill="black" stroke="black" points="501.41,-280.37 504.91,-290.37 508.41,-280.37 501.41,-280.37"/>
</g>
<!-- ProductAssignmentsComponent  -->
<g id="node7" class="node">
<title>ProductAssignmentsComponent </title>
<polygon fill="#fb8072" stroke="black" points="441.21,-326.39 240.79,-326.39 240.79,-290.39 441.21,-290.39 441.21,-326.39"/>
<text text-anchor="middle" x="341" y="-304.19" font-family="Times,serif" font-size="14.00">ProductAssignmentsComponent </text>
</g>
<!-- ProductAssignmentsModule&#45;&gt;ProductAssignmentsComponent  -->
<g id="edge6" class="edge">
<title>ProductAssignmentsModule&#45;&gt;ProductAssignmentsComponent </title>
<path fill="none" stroke="black" stroke-dasharray="5,2" d="M337,-261.5C337,-261.5 337,-280.38 337,-280.38"/>
<polygon fill="black" stroke="black" points="333.5,-280.38 337,-290.38 340.5,-280.38 333.5,-280.38"/>
</g>
<!-- RemoveProductCellComponent  -->
<g id="node8" class="node">
<title>RemoveProductCellComponent </title>
<polygon fill="#fb8072" stroke="black" points="222.37,-326.39 23.63,-326.39 23.63,-290.39 222.37,-290.39 222.37,-326.39"/>
<text text-anchor="middle" x="123" y="-304.19" font-family="Times,serif" font-size="14.00">RemoveProductCellComponent </text>
</g>
<!-- ProductAssignmentsModule&#45;&gt;RemoveProductCellComponent  -->
<g id="edge7" class="edge">
<title>ProductAssignmentsModule&#45;&gt;RemoveProductCellComponent </title>
<path fill="none" stroke="black" stroke-dasharray="5,2" d="M249.04,-249.39C201.96,-249.39 153.56,-249.39 153.56,-249.39 153.56,-249.39 153.56,-280.37 153.56,-280.37"/>
<polygon fill="black" stroke="black" points="150.06,-280.37 153.56,-290.37 157.06,-280.37 150.06,-280.37"/>
</g>
<!-- {
 &#160;&#160;&#160;provide: ListService, useExisting: ProductAssignmentsListService,
} -->
<g id="node5" class="node">
<title>{
 &#160;&#160;&#160;provide: ListService, useExisting: ProductAssignmentsListService,
}</title>
<ellipse fill="#fdb462" stroke="black" cx="744" cy="-90.1" rx="287.75" ry="41.09"/>
<text text-anchor="middle" x="744" y="-102.7" font-family="Times,serif" font-size="14.00">{</text>
<text text-anchor="middle" x="744" y="-85.9" font-family="Times,serif" font-size="14.00"> &#160;&#160;&#160;provide: ListService, useExisting: ProductAssignmentsListService,</text>
<text text-anchor="middle" x="744" y="-69.1" font-family="Times,serif" font-size="14.00">}</text>
</g>
<!-- {
 &#160;&#160;&#160;provide: ListService, useExisting: ProductAssignmentsListService,
}&#45;&gt;ProductAssignmentsComponent -->
<g id="edge3" class="edge">
<title>{
 &#160;&#160;&#160;provide: ListService, useExisting: ProductAssignmentsListService,
}&#45;&gt;ProductAssignmentsComponent</title>
<path fill="none" stroke="black" d="M649,-129.08C649,-129.08 649,-150.36 649,-150.36"/>
<polygon fill="black" stroke="black" points="645.5,-150.36 649,-160.36 652.5,-150.36 645.5,-150.36"/>
</g>
</g>
</svg>
