<?xml version="1.0" encoding="UTF-8" standalone="no"?>
<!DOCTYPE svg PUBLIC "-//W3C//DTD SVG 1.1//EN"
 "http://www.w3.org/Graphics/SVG/1.1/DTD/svg11.dtd">
<!-- Generated by graphviz version 2.47.3 (20210619.1520)
 -->
<!-- Title: dependencies Pages: 1 -->
<svg width="192pt" height="247pt"
 viewBox="0.00 0.00 192.00 246.80" xmlns="http://www.w3.org/2000/svg" xmlns:xlink="http://www.w3.org/1999/xlink">
<g id="graph0" class="graph" transform="scale(1 1) rotate(0) translate(4 242.8)">
<title>dependencies</title>
<polygon fill="white" stroke="transparent" points="-4,4 -4,-242.8 188,-242.8 188,4 -4,4"/>
<text text-anchor="middle" x="92" y="-8.2" font-family="sans-serif" font-size="14.00">dependencies</text>
<g id="clust1" class="cluster">
<title>cluster_MiniCartModule</title>
<polygon fill="none" stroke="black" stroke-dasharray="1,5" points="8,-32.8 8,-230.8 176,-230.8 176,-32.8 8,-32.8"/>
</g>
<g id="clust2" class="cluster">
<title>cluster_MiniCartModule_declarations</title>
<polygon fill="none" stroke="black" points="18,-40.8 18,-92.8 166,-92.8 166,-40.8 18,-40.8"/>
</g>
<g id="clust5" class="cluster">
<title>cluster_MiniCartModule_exports</title>
<polygon fill="none" stroke="black" points="16,-170.8 16,-222.8 168,-222.8 168,-170.8 16,-170.8"/>
</g>
<!-- MiniCartComponent -->
<g id="node1" class="node">
<title>MiniCartComponent</title>
<polygon fill="#ffffb3" stroke="black" points="158.16,-84.8 25.84,-84.8 25.84,-48.8 158.16,-48.8 158.16,-84.8"/>
<text text-anchor="middle" x="92" y="-62.6" font-family="Times,serif" font-size="14.00">MiniCartComponent</text>
</g>
<!-- MiniCartModule -->
<g id="node2" class="node">
<title>MiniCartModule</title>
<polygon fill="#8dd3c7" stroke="black" points="147.38,-149.8 144.38,-153.8 123.38,-153.8 120.38,-149.8 36.62,-149.8 36.62,-113.8 147.38,-113.8 147.38,-149.8"/>
<text text-anchor="middle" x="92" y="-127.6" font-family="Times,serif" font-size="14.00">MiniCartModule</text>
</g>
<!-- MiniCartComponent&#45;&gt;MiniCartModule -->
<g id="edge1" class="edge">
<title>MiniCartComponent&#45;&gt;MiniCartModule</title>
<path fill="none" stroke="black" d="M92,-84.91C92,-84.91 92,-103.79 92,-103.79"/>
<polygon fill="black" stroke="black" points="88.5,-103.79 92,-113.79 95.5,-103.79 88.5,-103.79"/>
</g>
<!-- MiniCartComponent  -->
<g id="node3" class="node">
<title>MiniCartComponent </title>
<polygon fill="#fb8072" stroke="black" points="160.16,-214.8 23.84,-214.8 23.84,-178.8 160.16,-178.8 160.16,-214.8"/>
<text text-anchor="middle" x="92" y="-192.6" font-family="Times,serif" font-size="14.00">MiniCartComponent </text>
</g>
<!-- MiniCartModule&#45;&gt;MiniCartComponent  -->
<g id="edge2" class="edge">
<title>MiniCartModule&#45;&gt;MiniCartComponent </title>
<path fill="none" stroke="black" stroke-dasharray="5,2" d="M92,-149.91C92,-149.91 92,-168.79 92,-168.79"/>
<polygon fill="black" stroke="black" points="88.5,-168.79 92,-178.79 95.5,-168.79 88.5,-168.79"/>
</g>
</g>
</svg>
