<?xml version="1.0" encoding="UTF-8" standalone="no"?>
<!DOCTYPE svg PUBLIC "-//W3C//DTD SVG 1.1//EN"
 "http://www.w3.org/Graphics/SVG/1.1/DTD/svg11.dtd">
<!-- Generated by graphviz version 2.46.0 (20210119.1425)
 -->
<!-- Title: dependencies Pages: 1 -->
<svg width="1462pt" height="284pt"
 viewBox="0.00 0.00 1462.00 284.00" xmlns="http://www.w3.org/2000/svg" xmlns:xlink="http://www.w3.org/1999/xlink">
<g id="graph0" class="graph" transform="scale(1 1) rotate(0) translate(4 280)">
<title>dependencies</title>
<polygon fill="white" stroke="transparent" points="-4,4 -4,-280 1458,-280 1458,4 -4,4"/>
<text text-anchor="start" x="706.01" y="-42.4" font-family="sans-serif" font-weight="bold" font-size="14.00">Legend</text>
<polygon fill="#ffffb3" stroke="transparent" points="493,-10 493,-30 513,-30 513,-10 493,-10"/>
<text text-anchor="start" x="516.63" y="-15.4" font-family="sans-serif" font-size="14.00"> &#160;Declarations</text>
<polygon fill="#8dd3c7" stroke="transparent" points="606,-10 606,-30 626,-30 626,-10 606,-10"/>
<text text-anchor="start" x="629.73" y="-15.4" font-family="sans-serif" font-size="14.00"> &#160;Module</text>
<polygon fill="#80b1d3" stroke="transparent" points="692,-10 692,-30 712,-30 712,-10 692,-10"/>
<text text-anchor="start" x="715.78" y="-15.4" font-family="sans-serif" font-size="14.00"> &#160;Bootstrap</text>
<polygon fill="#fdb462" stroke="transparent" points="789,-10 789,-30 809,-30 809,-10 789,-10"/>
<text text-anchor="start" x="812.67" y="-15.4" font-family="sans-serif" font-size="14.00"> &#160;Providers</text>
<polygon fill="#fb8072" stroke="transparent" points="885,-10 885,-30 905,-30 905,-10 885,-10"/>
<text text-anchor="start" x="908.73" y="-15.4" font-family="sans-serif" font-size="14.00"> &#160;Exports</text>
<g id="clust1" class="cluster">
<title>cluster_ClaimModule</title>
<polygon fill="none" stroke="black" stroke-dasharray="1,5" points="8,-70 8,-268 1446,-268 1446,-70 8,-70"/>
</g>
<g id="clust2" class="cluster">
<title>cluster_ClaimModule_declarations</title>
<polygon fill="none" stroke="black" points="745,-78 745,-130 1438,-130 1438,-78 745,-78"/>
</g>
<g id="clust8" class="cluster">
<title>cluster_ClaimModule_exports</title>
<polygon fill="none" stroke="black" points="455,-208 455,-260 989,-260 989,-208 455,-208"/>
</g>
<g id="clust7" class="cluster">
<title>cluster_ClaimModule_imports</title>
<polygon fill="none" stroke="black" points="517,-78 517,-130 737,-130 737,-78 517,-78"/>
</g>
<g id="clust10" class="cluster">
<title>cluster_ClaimModule_providers</title>
<polygon fill="none" stroke="black" points="16,-78 16,-130 509,-130 509,-78 16,-78"/>
</g>
<!-- ClaimPoliciesComponent -->
<g id="node1" class="node">
<title>ClaimPoliciesComponent</title>
<polygon fill="#ffffb3" stroke="black" points="1429.88,-122 1270.12,-122 1270.12,-86 1429.88,-86 1429.88,-122"/>
<text text-anchor="middle" x="1350" y="-99.8" font-family="Times,serif" font-size="14.00">ClaimPoliciesComponent</text>
</g>
<!-- ClaimModule -->
<g id="node5" class="node">
<title>ClaimModule</title>
<polygon fill="#8dd3c7" stroke="black" points="783.77,-187 780.77,-191 759.77,-191 756.77,-187 690.23,-187 690.23,-151 783.77,-151 783.77,-187"/>
<text text-anchor="middle" x="737" y="-164.8" font-family="Times,serif" font-size="14.00">ClaimModule</text>
</g>
<!-- ClaimPoliciesComponent&#45;&gt;ClaimModule -->
<g id="edge1" class="edge">
<title>ClaimPoliciesComponent&#45;&gt;ClaimModule</title>
<path fill="none" stroke="black" d="M1350,-122.13C1350,-142.57 1350,-173 1350,-173 1350,-173 793.83,-173 793.83,-173"/>
<polygon fill="black" stroke="black" points="793.83,-169.5 783.83,-173 793.83,-176.5 793.83,-169.5"/>
</g>
<!-- ClaimsComponent -->
<g id="node2" class="node">
<title>ClaimsComponent</title>
<polygon fill="#ffffb3" stroke="black" points="1252.5,-122 1131.5,-122 1131.5,-86 1252.5,-86 1252.5,-122"/>
<text text-anchor="middle" x="1192" y="-99.8" font-family="Times,serif" font-size="14.00">ClaimsComponent</text>
</g>
<!-- ClaimsComponent&#45;&gt;ClaimModule -->
<g id="edge2" class="edge">
<title>ClaimsComponent&#45;&gt;ClaimModule</title>
<path fill="none" stroke="black" d="M1192,-122.27C1192,-140.56 1192,-166 1192,-166 1192,-166 793.98,-166 793.98,-166"/>
<polygon fill="black" stroke="black" points="793.98,-162.5 783.98,-166 793.98,-169.5 793.98,-162.5"/>
</g>
<!-- CreateClaimComponent -->
<g id="node3" class="node">
<title>CreateClaimComponent</title>
<polygon fill="#ffffb3" stroke="black" points="1113.09,-122 960.91,-122 960.91,-86 1113.09,-86 1113.09,-122"/>
<text text-anchor="middle" x="1037" y="-99.8" font-family="Times,serif" font-size="14.00">CreateClaimComponent</text>
</g>
<!-- CreateClaimComponent&#45;&gt;ClaimModule -->
<g id="edge3" class="edge">
<title>CreateClaimComponent&#45;&gt;ClaimModule</title>
<path fill="none" stroke="black" d="M970.82,-122.01C970.82,-138.05 970.82,-159 970.82,-159 970.82,-159 794.04,-159 794.04,-159"/>
<polygon fill="black" stroke="black" points="794.04,-155.5 784.04,-159 794.04,-162.5 794.04,-155.5"/>
</g>
<!-- DeleteClaimDialogComponent -->
<g id="node4" class="node">
<title>DeleteClaimDialogComponent</title>
<polygon fill="#ffffb3" stroke="black" points="943.19,-122 752.81,-122 752.81,-86 943.19,-86 943.19,-122"/>
<text text-anchor="middle" x="848" y="-99.8" font-family="Times,serif" font-size="14.00">DeleteClaimDialogComponent</text>
</g>
<!-- DeleteClaimDialogComponent&#45;&gt;ClaimModule -->
<g id="edge4" class="edge">
<title>DeleteClaimDialogComponent&#45;&gt;ClaimModule</title>
<path fill="none" stroke="black" d="M768.4,-122.11C768.4,-122.11 768.4,-140.99 768.4,-140.99"/>
<polygon fill="black" stroke="black" points="764.9,-140.99 768.4,-150.99 771.9,-140.99 764.9,-140.99"/>
</g>
<!-- ClaimPoliciesComponent  -->
<g id="node7" class="node">
<title>ClaimPoliciesComponent </title>
<polygon fill="#fb8072" stroke="black" points="980.88,-252 817.12,-252 817.12,-216 980.88,-216 980.88,-252"/>
<text text-anchor="middle" x="899" y="-229.8" font-family="Times,serif" font-size="14.00">ClaimPoliciesComponent </text>
</g>
<!-- ClaimModule&#45;&gt;ClaimPoliciesComponent  -->
<g id="edge6" class="edge">
<title>ClaimModule&#45;&gt;ClaimPoliciesComponent </title>
<path fill="none" stroke="black" stroke-dasharray="5,2" d="M783.89,-180C825.65,-180 880.2,-180 880.2,-180 880.2,-180 880.2,-205.72 880.2,-205.72"/>
<polygon fill="black" stroke="black" points="876.7,-205.72 880.2,-215.72 883.7,-205.72 876.7,-205.72"/>
</g>
<!-- ClaimsComponent  -->
<g id="node8" class="node">
<title>ClaimsComponent </title>
<polygon fill="#fb8072" stroke="black" points="799,-252 675,-252 675,-216 799,-216 799,-252"/>
<text text-anchor="middle" x="737" y="-229.8" font-family="Times,serif" font-size="14.00">ClaimsComponent </text>
</g>
<!-- ClaimModule&#45;&gt;ClaimsComponent  -->
<g id="edge7" class="edge">
<title>ClaimModule&#45;&gt;ClaimsComponent </title>
<path fill="none" stroke="black" stroke-dasharray="5,2" d="M737,-187.11C737,-187.11 737,-205.99 737,-205.99"/>
<polygon fill="black" stroke="black" points="733.5,-205.99 737,-215.99 740.5,-205.99 733.5,-205.99"/>
</g>
<!-- DeleteClaimDialogComponent  -->
<g id="node9" class="node">
<title>DeleteClaimDialogComponent </title>
<polygon fill="#fb8072" stroke="black" points="656.69,-252 463.31,-252 463.31,-216 656.69,-216 656.69,-252"/>
<text text-anchor="middle" x="560" y="-229.8" font-family="Times,serif" font-size="14.00">DeleteClaimDialogComponent </text>
</g>
<!-- ClaimModule&#45;&gt;DeleteClaimDialogComponent  -->
<g id="edge8" class="edge">
<title>ClaimModule&#45;&gt;DeleteClaimDialogComponent </title>
<path fill="none" stroke="black" stroke-dasharray="5,2" d="M689.9,-180C647.13,-180 590.68,-180 590.68,-180 590.68,-180 590.68,-205.72 590.68,-205.72"/>
<polygon fill="black" stroke="black" points="587.18,-205.72 590.68,-215.72 594.18,-205.72 587.18,-205.72"/>
</g>
<!-- DateFormatConfigurationModule -->
<g id="node6" class="node">
<title>DateFormatConfigurationModule</title>
<polygon fill="#8dd3c7" stroke="black" points="729.46,-122 726.46,-126 705.46,-126 702.46,-122 524.54,-122 524.54,-86 729.46,-86 729.46,-122"/>
<text text-anchor="middle" x="627" y="-99.8" font-family="Times,serif" font-size="14.00">DateFormatConfigurationModule</text>
</g>
<!-- DateFormatConfigurationModule&#45;&gt;ClaimModule -->
<g id="edge5" class="edge">
<title>DateFormatConfigurationModule&#45;&gt;ClaimModule</title>
<path fill="none" stroke="black" d="M709.8,-122.11C709.8,-122.11 709.8,-140.99 709.8,-140.99"/>
<polygon fill="black" stroke="black" points="706.3,-140.99 709.8,-150.99 713.3,-140.99 706.3,-140.99"/>
</g>
<!-- ClaimConnector -->
<g id="node10" class="node">
<title>ClaimConnector</title>
<ellipse fill="#fdb462" stroke="black" cx="426" cy="-104" rx="74.74" ry="18"/>
<text text-anchor="middle" x="426" y="-99.8" font-family="Times,serif" font-size="14.00">ClaimConnector</text>
</g>
<!-- ClaimConnector&#45;&gt;ClaimModule -->
<g id="edge9" class="edge">
<title>ClaimConnector&#45;&gt;ClaimModule</title>
<path fill="none" stroke="black" d="M482.01,-116.21C482.01,-132.41 482.01,-159 482.01,-159 482.01,-159 679.93,-159 679.93,-159"/>
<polygon fill="black" stroke="black" points="679.93,-162.5 689.93,-159 679.93,-155.5 679.93,-162.5"/>
</g>
<!-- ClaimDataService -->
<g id="node11" class="node">
<title>ClaimDataService</title>
<ellipse fill="#fdb462" stroke="black" cx="251" cy="-104" rx="81.65" ry="18"/>
<text text-anchor="middle" x="251" y="-99.8" font-family="Times,serif" font-size="14.00">ClaimDataService</text>
</g>
<!-- ClaimDataService&#45;&gt;ClaimModule -->
<g id="edge10" class="edge">
<title>ClaimDataService&#45;&gt;ClaimModule</title>
<path fill="none" stroke="black" d="M251,-122.27C251,-140.56 251,-166 251,-166 251,-166 679.96,-166 679.96,-166"/>
<polygon fill="black" stroke="black" points="679.96,-169.5 689.96,-166 679.96,-162.5 679.96,-169.5"/>
</g>
<!-- ClaimService -->
<g id="node12" class="node">
<title>ClaimService</title>
<ellipse fill="#fdb462" stroke="black" cx="88" cy="-104" rx="63.7" ry="18"/>
<text text-anchor="middle" x="88" y="-99.8" font-family="Times,serif" font-size="14.00">ClaimService</text>
</g>
<!-- ClaimService&#45;&gt;ClaimModule -->
<g id="edge11" class="edge">
<title>ClaimService&#45;&gt;ClaimModule</title>
<path fill="none" stroke="black" d="M88,-122.13C88,-142.57 88,-173 88,-173 88,-173 680.06,-173 680.06,-173"/>
<polygon fill="black" stroke="black" points="680.06,-176.5 690.06,-173 680.06,-169.5 680.06,-176.5"/>
</g>
</g>
</svg>
