<?xml version="1.0" encoding="UTF-8" standalone="no"?>
<!DOCTYPE svg PUBLIC "-//W3C//DTD SVG 1.1//EN"
 "http://www.w3.org/Graphics/SVG/1.1/DTD/svg11.dtd">
<!-- Generated by graphviz version 2.47.3 (20210619.1520)
 -->
<!-- Title: dependencies Pages: 1 -->
<svg width="2185pt" height="247pt"
 viewBox="0.00 0.00 2185.00 246.80" xmlns="http://www.w3.org/2000/svg" xmlns:xlink="http://www.w3.org/1999/xlink">
<g id="graph0" class="graph" transform="scale(1 1) rotate(0) translate(4 242.8)">
<title>dependencies</title>
<polygon fill="white" stroke="transparent" points="-4,4 -4,-242.8 2181,-242.8 2181,4 -4,4"/>
<text text-anchor="middle" x="1088.5" y="-8.2" font-family="sans-serif" font-size="14.00">dependencies</text>
<g id="clust1" class="cluster">
<title>cluster_ClaimModule</title>
<polygon fill="none" stroke="black" stroke-dasharray="1,5" points="8,-32.8 8,-230.8 2169,-230.8 2169,-32.8 8,-32.8"/>
</g>
<g id="clust2" class="cluster">
<title>cluster_ClaimModule_declarations</title>
<polygon fill="none" stroke="black" points="1056,-40.8 1056,-92.8 2161,-92.8 2161,-40.8 1056,-40.8"/>
</g>
<g id="clust9" class="cluster">
<title>cluster_ClaimModule_imports</title>
<polygon fill="none" stroke="black" points="517,-40.8 517,-92.8 1048,-92.8 1048,-40.8 517,-40.8"/>
</g>
<g id="clust12" class="cluster">
<title>cluster_ClaimModule_providers</title>
<polygon fill="none" stroke="black" points="16,-40.8 16,-92.8 509,-92.8 509,-40.8 16,-40.8"/>
</g>
<g id="clust10" class="cluster">
<title>cluster_ClaimModule_exports</title>
<polygon fill="none" stroke="black" points="533,-170.8 533,-222.8 1659,-222.8 1659,-170.8 533,-170.8"/>
</g>
<!-- ChangeClaimNavigationComponent -->
<g id="node1" class="node">
<title>ChangeClaimNavigationComponent</title>
<polygon fill="#ffffb3" stroke="black" points="2153.03,-84.8 1932.97,-84.8 1932.97,-48.8 2153.03,-48.8 2153.03,-84.8"/>
<text text-anchor="middle" x="2043" y="-62.6" font-family="Times,serif" font-size="14.00">ChangeClaimNavigationComponent</text>
</g>
<!-- ClaimModule -->
<g id="node7" class="node">
<title>ClaimModule</title>
<polygon fill="#8dd3c7" stroke="black" points="1116.77,-149.8 1113.77,-153.8 1092.77,-153.8 1089.77,-149.8 1023.23,-149.8 1023.23,-113.8 1116.77,-113.8 1116.77,-149.8"/>
<text text-anchor="middle" x="1070" y="-127.6" font-family="Times,serif" font-size="14.00">ClaimModule</text>
</g>
<!-- ChangeClaimNavigationComponent&#45;&gt;ClaimModule -->
<g id="edge1" class="edge">
<title>ChangeClaimNavigationComponent&#45;&gt;ClaimModule</title>
<path fill="none" stroke="black" d="M2043,-84.83C2043,-105.57 2043,-136.8 2043,-136.8 2043,-136.8 1126.93,-136.8 1126.93,-136.8"/>
<polygon fill="black" stroke="black" points="1126.93,-133.3 1116.93,-136.8 1126.93,-140.3 1126.93,-133.3"/>
</g>
<!-- ClaimDetailsComponent -->
<g id="node2" class="node">
<title>ClaimDetailsComponent</title>
<polygon fill="#ffffb3" stroke="black" points="1914.71,-84.8 1759.29,-84.8 1759.29,-48.8 1914.71,-48.8 1914.71,-84.8"/>
<text text-anchor="middle" x="1837" y="-62.6" font-family="Times,serif" font-size="14.00">ClaimDetailsComponent</text>
</g>
<!-- ClaimDetailsComponent&#45;&gt;ClaimModule -->
<g id="edge2" class="edge">
<title>ClaimDetailsComponent&#45;&gt;ClaimModule</title>
<path fill="none" stroke="black" d="M1837,-84.91C1837,-104.14 1837,-131.8 1837,-131.8 1837,-131.8 1126.82,-131.8 1126.82,-131.8"/>
<polygon fill="black" stroke="black" points="1126.82,-128.3 1116.82,-131.8 1126.82,-135.3 1126.82,-128.3"/>
</g>
<!-- ClaimPoliciesComponent -->
<g id="node3" class="node">
<title>ClaimPoliciesComponent</title>
<polygon fill="#ffffb3" stroke="black" points="1740.88,-84.8 1581.12,-84.8 1581.12,-48.8 1740.88,-48.8 1740.88,-84.8"/>
<text text-anchor="middle" x="1661" y="-62.6" font-family="Times,serif" font-size="14.00">ClaimPoliciesComponent</text>
</g>
<!-- ClaimPoliciesComponent&#45;&gt;ClaimModule -->
<g id="edge3" class="edge">
<title>ClaimPoliciesComponent&#45;&gt;ClaimModule</title>
<path fill="none" stroke="black" d="M1616.04,-85.1C1616.04,-103.07 1616.04,-127.8 1616.04,-127.8 1616.04,-127.8 1127.03,-127.8 1127.03,-127.8"/>
<polygon fill="black" stroke="black" points="1127.03,-124.3 1117.03,-127.8 1127.03,-131.3 1127.03,-124.3"/>
</g>
<!-- ClaimsComponent -->
<g id="node4" class="node">
<title>ClaimsComponent</title>
<polygon fill="#ffffb3" stroke="black" points="1563.5,-84.8 1442.5,-84.8 1442.5,-48.8 1563.5,-48.8 1563.5,-84.8"/>
<text text-anchor="middle" x="1503" y="-62.6" font-family="Times,serif" font-size="14.00">ClaimsComponent</text>
</g>
<!-- ClaimsComponent&#45;&gt;ClaimModule -->
<g id="edge4" class="edge">
<title>ClaimsComponent&#45;&gt;ClaimModule</title>
<path fill="none" stroke="black" d="M1503,-84.83C1503,-101.2 1503,-122.8 1503,-122.8 1503,-122.8 1127.16,-122.8 1127.16,-122.8"/>
<polygon fill="black" stroke="black" points="1127.16,-119.3 1117.16,-122.8 1127.16,-126.3 1127.16,-119.3"/>
</g>
<!-- CreateClaimComponent -->
<g id="node5" class="node">
<title>CreateClaimComponent</title>
<polygon fill="#ffffb3" stroke="black" points="1424.09,-84.8 1271.91,-84.8 1271.91,-48.8 1424.09,-48.8 1424.09,-84.8"/>
<text text-anchor="middle" x="1348" y="-62.6" font-family="Times,serif" font-size="14.00">CreateClaimComponent</text>
</g>
<!-- CreateClaimComponent&#45;&gt;ClaimModule -->
<g id="edge5" class="edge">
<title>CreateClaimComponent&#45;&gt;ClaimModule</title>
<path fill="none" stroke="black" d="M1340.66,-84.99C1340.66,-99.98 1340.66,-118.8 1340.66,-118.8 1340.66,-118.8 1126.84,-118.8 1126.84,-118.8"/>
<polygon fill="black" stroke="black" points="1126.84,-115.3 1116.84,-118.8 1126.84,-122.3 1126.84,-115.3"/>
</g>
<!-- DeleteClaimDialogComponent -->
<g id="node6" class="node">
<title>DeleteClaimDialogComponent</title>
<polygon fill="#ffffb3" stroke="black" points="1254.19,-84.8 1063.81,-84.8 1063.81,-48.8 1254.19,-48.8 1254.19,-84.8"/>
<text text-anchor="middle" x="1159" y="-62.6" font-family="Times,serif" font-size="14.00">DeleteClaimDialogComponent</text>
</g>
<!-- DeleteClaimDialogComponent&#45;&gt;ClaimModule -->
<g id="edge6" class="edge">
<title>DeleteClaimDialogComponent&#45;&gt;ClaimModule</title>
<path fill="none" stroke="black" d="M1090.4,-84.91C1090.4,-84.91 1090.4,-103.79 1090.4,-103.79"/>
<polygon fill="black" stroke="black" points="1086.9,-103.79 1090.4,-113.79 1093.9,-103.79 1086.9,-103.79"/>
</g>
<!-- ChangeClaimNavigationComponent  -->
<g id="node11" class="node">
<title>ChangeClaimNavigationComponent </title>
<polygon fill="#fb8072" stroke="black" points="1651.03,-214.8 1426.97,-214.8 1426.97,-178.8 1651.03,-178.8 1651.03,-214.8"/>
<text text-anchor="middle" x="1539" y="-192.6" font-family="Times,serif" font-size="14.00">ChangeClaimNavigationComponent </text>
</g>
<!-- ClaimModule&#45;&gt;ChangeClaimNavigationComponent  -->
<g id="edge10" class="edge">
<title>ClaimModule&#45;&gt;ChangeClaimNavigationComponent </title>
<path fill="none" stroke="black" stroke-dasharray="5,2" d="M1116.94,-140.8C1215.45,-140.8 1434.74,-140.8 1434.74,-140.8 1434.74,-140.8 1434.74,-168.77 1434.74,-168.77"/>
<polygon fill="black" stroke="black" points="1431.24,-168.77 1434.74,-178.77 1438.24,-168.77 1431.24,-168.77"/>
</g>
<!-- ClaimDetailsComponent  -->
<g id="node12" class="node">
<title>ClaimDetailsComponent </title>
<polygon fill="#fb8072" stroke="black" points="1409.21,-214.8 1250.79,-214.8 1250.79,-178.8 1409.21,-178.8 1409.21,-214.8"/>
<text text-anchor="middle" x="1330" y="-192.6" font-family="Times,serif" font-size="14.00">ClaimDetailsComponent </text>
</g>
<!-- ClaimModule&#45;&gt;ClaimDetailsComponent  -->
<g id="edge11" class="edge">
<title>ClaimModule&#45;&gt;ClaimDetailsComponent </title>
<path fill="none" stroke="black" stroke-dasharray="5,2" d="M1117.22,-145.8C1174.36,-145.8 1263.03,-145.8 1263.03,-145.8 1263.03,-145.8 1263.03,-168.68 1263.03,-168.68"/>
<polygon fill="black" stroke="black" points="1259.53,-168.68 1263.03,-178.68 1266.53,-168.68 1259.53,-168.68"/>
</g>
<!-- ClaimPoliciesComponent  -->
<g id="node13" class="node">
<title>ClaimPoliciesComponent </title>
<polygon fill="#fb8072" stroke="black" points="1232.88,-214.8 1069.12,-214.8 1069.12,-178.8 1232.88,-178.8 1232.88,-214.8"/>
<text text-anchor="middle" x="1151" y="-192.6" font-family="Times,serif" font-size="14.00">ClaimPoliciesComponent </text>
</g>
<!-- ClaimModule&#45;&gt;ClaimPoliciesComponent  -->
<g id="edge12" class="edge">
<title>ClaimModule&#45;&gt;ClaimPoliciesComponent </title>
<path fill="none" stroke="black" stroke-dasharray="5,2" d="M1093.1,-149.91C1093.1,-149.91 1093.1,-168.79 1093.1,-168.79"/>
<polygon fill="black" stroke="black" points="1089.6,-168.79 1093.1,-178.79 1096.6,-168.79 1089.6,-168.79"/>
</g>
<!-- ClaimsComponent  -->
<g id="node14" class="node">
<title>ClaimsComponent </title>
<polygon fill="#fb8072" stroke="black" points="1051,-214.8 927,-214.8 927,-178.8 1051,-178.8 1051,-214.8"/>
<text text-anchor="middle" x="989" y="-192.6" font-family="Times,serif" font-size="14.00">ClaimsComponent </text>
</g>
<!-- ClaimModule&#45;&gt;ClaimsComponent  -->
<g id="edge13" class="edge">
<title>ClaimModule&#45;&gt;ClaimsComponent </title>
<path fill="none" stroke="black" stroke-dasharray="5,2" d="M1037.18,-149.91C1037.18,-149.91 1037.18,-168.79 1037.18,-168.79"/>
<polygon fill="black" stroke="black" points="1033.68,-168.79 1037.18,-178.79 1040.68,-168.79 1033.68,-168.79"/>
</g>
<!-- CreateClaimComponent  -->
<g id="node15" class="node">
<title>CreateClaimComponent </title>
<polygon fill="#fb8072" stroke="black" points="908.59,-214.8 753.41,-214.8 753.41,-178.8 908.59,-178.8 908.59,-214.8"/>
<text text-anchor="middle" x="831" y="-192.6" font-family="Times,serif" font-size="14.00">CreateClaimComponent </text>
</g>
<!-- ClaimModule&#45;&gt;CreateClaimComponent  -->
<g id="edge14" class="edge">
<title>ClaimModule&#45;&gt;CreateClaimComponent </title>
<path fill="none" stroke="black" stroke-dasharray="5,2" d="M1023,-145.8C959.29,-145.8 853.39,-145.8 853.39,-145.8 853.39,-145.8 853.39,-168.68 853.39,-168.68"/>
<polygon fill="black" stroke="black" points="849.89,-168.68 853.39,-178.68 856.89,-168.68 849.89,-168.68"/>
</g>
<!-- DeleteClaimDialogComponent  -->
<g id="node16" class="node">
<title>DeleteClaimDialogComponent </title>
<polygon fill="#fb8072" stroke="black" points="734.69,-214.8 541.31,-214.8 541.31,-178.8 734.69,-178.8 734.69,-214.8"/>
<text text-anchor="middle" x="638" y="-192.6" font-family="Times,serif" font-size="14.00">DeleteClaimDialogComponent </text>
</g>
<!-- ClaimModule&#45;&gt;DeleteClaimDialogComponent  -->
<g id="edge15" class="edge">
<title>ClaimModule&#45;&gt;DeleteClaimDialogComponent </title>
<path fill="none" stroke="black" stroke-dasharray="5,2" d="M1023.08,-140.8C926.97,-140.8 716.68,-140.8 716.68,-140.8 716.68,-140.8 716.68,-168.77 716.68,-168.77"/>
<polygon fill="black" stroke="black" points="713.18,-168.77 716.68,-178.77 720.18,-168.77 713.18,-168.77"/>
</g>
<!-- AccordionModule -->
<g id="node8" class="node">
<title>AccordionModule</title>
<polygon fill="#8dd3c7" stroke="black" points="1040.14,-84.8 1037.14,-88.8 1016.14,-88.8 1013.14,-84.8 921.86,-84.8 921.86,-48.8 1040.14,-48.8 1040.14,-84.8"/>
<text text-anchor="middle" x="981" y="-62.6" font-family="Times,serif" font-size="14.00">AccordionModule</text>
</g>
<!-- AccordionModule&#45;&gt;ClaimModule -->
<g id="edge7" class="edge">
<title>AccordionModule&#45;&gt;ClaimModule</title>
<path fill="none" stroke="black" d="M1031.72,-84.91C1031.72,-84.91 1031.72,-103.79 1031.72,-103.79"/>
<polygon fill="black" stroke="black" points="1028.22,-103.79 1031.72,-113.79 1035.22,-103.79 1028.22,-103.79"/>
</g>
<!-- DateFormatConfigurationModule -->
<g id="node9" class="node">
<title>DateFormatConfigurationModule</title>
<polygon fill="#8dd3c7" stroke="black" points="903.46,-84.8 900.46,-88.8 879.46,-88.8 876.46,-84.8 698.54,-84.8 698.54,-48.8 903.46,-48.8 903.46,-84.8"/>
<text text-anchor="middle" x="801" y="-62.6" font-family="Times,serif" font-size="14.00">DateFormatConfigurationModule</text>
</g>
<!-- DateFormatConfigurationModule&#45;&gt;ClaimModule -->
<g id="edge8" class="edge">
<title>DateFormatConfigurationModule&#45;&gt;ClaimModule</title>
<path fill="none" stroke="black" d="M803.3,-84.99C803.3,-99.98 803.3,-118.8 803.3,-118.8 803.3,-118.8 1012.93,-118.8 1012.93,-118.8"/>
<polygon fill="black" stroke="black" points="1012.93,-122.3 1022.93,-118.8 1012.93,-115.3 1012.93,-122.3"/>
</g>
<!-- DocumentsTableModule -->
<g id="node10" class="node">
<title>DocumentsTableModule</title>
<polygon fill="#8dd3c7" stroke="black" points="680.68,-84.8 677.68,-88.8 656.68,-88.8 653.68,-84.8 525.32,-84.8 525.32,-48.8 680.68,-48.8 680.68,-84.8"/>
<text text-anchor="middle" x="603" y="-62.6" font-family="Times,serif" font-size="14.00">DocumentsTableModule</text>
</g>
<!-- DocumentsTableModule&#45;&gt;ClaimModule -->
<g id="edge9" class="edge">
<title>DocumentsTableModule&#45;&gt;ClaimModule</title>
<path fill="none" stroke="black" d="M610.87,-84.83C610.87,-101.2 610.87,-122.8 610.87,-122.8 610.87,-122.8 1013.02,-122.8 1013.02,-122.8"/>
<polygon fill="black" stroke="black" points="1013.02,-126.3 1023.02,-122.8 1013.02,-119.3 1013.02,-126.3"/>
</g>
<!-- ClaimConnector -->
<g id="node17" class="node">
<title>ClaimConnector</title>
<ellipse fill="#fdb462" stroke="black" cx="426" cy="-66.8" rx="74.74" ry="18"/>
<text text-anchor="middle" x="426" y="-62.6" font-family="Times,serif" font-size="14.00">ClaimConnector</text>
</g>
<!-- ClaimConnector&#45;&gt;ClaimModule -->
<g id="edge16" class="edge">
<title>ClaimConnector&#45;&gt;ClaimModule</title>
<path fill="none" stroke="black" d="M426,-85.1C426,-103.07 426,-127.8 426,-127.8 426,-127.8 1013.17,-127.8 1013.17,-127.8"/>
<polygon fill="black" stroke="black" points="1013.17,-131.3 1023.17,-127.8 1013.17,-124.3 1013.17,-131.3"/>
</g>
<!-- ClaimDataService -->
<g id="node18" class="node">
<title>ClaimDataService</title>
<ellipse fill="#fdb462" stroke="black" cx="251" cy="-66.8" rx="81.65" ry="18"/>
<text text-anchor="middle" x="251" y="-62.6" font-family="Times,serif" font-size="14.00">ClaimDataService</text>
</g>
<!-- ClaimDataService&#45;&gt;ClaimModule -->
<g id="edge17" class="edge">
<title>ClaimDataService&#45;&gt;ClaimModule</title>
<path fill="none" stroke="black" d="M251,-84.91C251,-104.14 251,-131.8 251,-131.8 251,-131.8 1013.03,-131.8 1013.03,-131.8"/>
<polygon fill="black" stroke="black" points="1013.03,-135.3 1023.03,-131.8 1013.03,-128.3 1013.03,-135.3"/>
</g>
<!-- ClaimService -->
<g id="node19" class="node">
<title>ClaimService</title>
<ellipse fill="#fdb462" stroke="black" cx="88" cy="-66.8" rx="63.7" ry="18"/>
<text text-anchor="middle" x="88" y="-62.6" font-family="Times,serif" font-size="14.00">ClaimService</text>
</g>
<!-- ClaimService&#45;&gt;ClaimModule -->
<g id="edge18" class="edge">
<title>ClaimService&#45;&gt;ClaimModule</title>
<path fill="none" stroke="black" d="M88,-84.83C88,-105.57 88,-136.8 88,-136.8 88,-136.8 1012.97,-136.8 1012.97,-136.8"/>
<polygon fill="black" stroke="black" points="1012.97,-140.3 1022.97,-136.8 1012.97,-133.3 1012.97,-140.3"/>
</g>
</g>
</svg>
