<?xml version="1.0" encoding="UTF-8" standalone="no"?>
<!DOCTYPE svg PUBLIC "-//W3C//DTD SVG 1.1//EN"
 "http://www.w3.org/Graphics/SVG/1.1/DTD/svg11.dtd">
<!-- Generated by graphviz version 2.44.1 (20200629.0846)
 -->
<!-- Title: dependencies Pages: 1 -->
<svg width="1350pt" height="284pt"
 viewBox="0.00 0.00 1350.00 284.00" xmlns="http://www.w3.org/2000/svg" xmlns:xlink="http://www.w3.org/1999/xlink">
<g id="graph0" class="graph" transform="scale(1 1) rotate(0) translate(4 280)">
<title>dependencies</title>
<polygon fill="white" stroke="transparent" points="-4,4 -4,-280 1346,-280 1346,4 -4,4"/>
<text text-anchor="start" x="650.01" y="-42.4" font-family="sans-serif" font-weight="bold" font-size="14.00">Legend</text>
<polygon fill="#ffffb3" stroke="transparent" points="437,-10 437,-30 457,-30 457,-10 437,-10"/>
<text text-anchor="start" x="460.63" y="-15.4" font-family="sans-serif" font-size="14.00"> &#160;Declarations</text>
<polygon fill="#8dd3c7" stroke="transparent" points="550,-10 550,-30 570,-30 570,-10 550,-10"/>
<text text-anchor="start" x="573.73" y="-15.4" font-family="sans-serif" font-size="14.00"> &#160;Module</text>
<polygon fill="#80b1d3" stroke="transparent" points="636,-10 636,-30 656,-30 656,-10 636,-10"/>
<text text-anchor="start" x="659.78" y="-15.4" font-family="sans-serif" font-size="14.00"> &#160;Bootstrap</text>
<polygon fill="#fdb462" stroke="transparent" points="733,-10 733,-30 753,-30 753,-10 733,-10"/>
<text text-anchor="start" x="756.67" y="-15.4" font-family="sans-serif" font-size="14.00"> &#160;Providers</text>
<polygon fill="#fb8072" stroke="transparent" points="829,-10 829,-30 849,-30 849,-10 829,-10"/>
<text text-anchor="start" x="852.73" y="-15.4" font-family="sans-serif" font-size="14.00"> &#160;Exports</text>
<g id="clust1" class="cluster">
<title>cluster_ClaimModule</title>
<polygon fill="none" stroke="black" stroke-dasharray="1,5" points="8,-70 8,-268 1334,-268 1334,-70 8,-70"/>
</g>
<g id="clust9" class="cluster">
<title>cluster_ClaimModule_exports</title>
<polygon fill="none" stroke="black" points="343,-208 343,-260 996,-260 996,-208 343,-208"/>
</g>
<g id="clust2" class="cluster">
<title>cluster_ClaimModule_declarations</title>
<polygon fill="none" stroke="black" points="517,-78 517,-130 1326,-130 1326,-78 517,-78"/>
</g>
<g id="clust11" class="cluster">
<title>cluster_ClaimModule_providers</title>
<polygon fill="none" stroke="black" points="16,-78 16,-130 509,-130 509,-78 16,-78"/>
</g>
<!-- ClaimPoliciesComponent -->
<g id="node1" class="node">
<title>ClaimPoliciesComponent</title>
<polygon fill="#ffffb3" stroke="black" points="1317.88,-122 1158.12,-122 1158.12,-86 1317.88,-86 1317.88,-122"/>
<text text-anchor="middle" x="1238" y="-99.8" font-family="Times,serif" font-size="14.00">ClaimPoliciesComponent</text>
</g>
<!-- ClaimModule -->
<g id="node6" class="node">
<title>ClaimModule</title>
<polygon fill="#8dd3c7" stroke="black" points="701.77,-187 698.77,-191 677.77,-191 674.77,-187 608.23,-187 608.23,-151 701.77,-151 701.77,-187"/>
<text text-anchor="middle" x="655" y="-164.8" font-family="Times,serif" font-size="14.00">ClaimModule</text>
</g>
<!-- ClaimPoliciesComponent&#45;&gt;ClaimModule -->
<g id="edge1" class="edge">
<title>ClaimPoliciesComponent&#45;&gt;ClaimModule</title>
<path fill="none" stroke="black" d="M1238,-122.13C1238,-142.57 1238,-173 1238,-173 1238,-173 712.22,-173 712.22,-173"/>
<polygon fill="black" stroke="black" points="712.22,-169.5 702.22,-173 712.22,-176.5 712.22,-169.5"/>
</g>
<!-- ClaimsComponent -->
<g id="node2" class="node">
<title>ClaimsComponent</title>
<polygon fill="#ffffb3" stroke="black" points="1140.5,-122 1019.5,-122 1019.5,-86 1140.5,-86 1140.5,-122"/>
<text text-anchor="middle" x="1080" y="-99.8" font-family="Times,serif" font-size="14.00">ClaimsComponent</text>
</g>
<!-- ClaimsComponent&#45;&gt;ClaimModule -->
<g id="edge2" class="edge">
<title>ClaimsComponent&#45;&gt;ClaimModule</title>
<path fill="none" stroke="black" d="M1080,-122.27C1080,-140.56 1080,-166 1080,-166 1080,-166 712.11,-166 712.11,-166"/>
<polygon fill="black" stroke="black" points="712.11,-162.5 702.11,-166 712.11,-169.5 712.11,-162.5"/>
</g>
<!-- CreateClaimComponent -->
<g id="node3" class="node">
<title>CreateClaimComponent</title>
<polygon fill="#ffffb3" stroke="black" points="1001.09,-122 848.91,-122 848.91,-86 1001.09,-86 1001.09,-122"/>
<text text-anchor="middle" x="925" y="-99.8" font-family="Times,serif" font-size="14.00">CreateClaimComponent</text>
</g>
<!-- CreateClaimComponent&#45;&gt;ClaimModule -->
<g id="edge3" class="edge">
<title>CreateClaimComponent&#45;&gt;ClaimModule</title>
<path fill="none" stroke="black" d="M918.32,-122.01C918.32,-138.05 918.32,-159 918.32,-159 918.32,-159 711.77,-159 711.77,-159"/>
<polygon fill="black" stroke="black" points="711.77,-155.5 701.77,-159 711.77,-162.5 711.77,-155.5"/>
</g>
<!-- DeleteClaimDialogComponent -->
<g id="node4" class="node">
<title>DeleteClaimDialogComponent</title>
<polygon fill="#ffffb3" stroke="black" points="831.19,-122 640.81,-122 640.81,-86 831.19,-86 831.19,-122"/>
<text text-anchor="middle" x="736" y="-99.8" font-family="Times,serif" font-size="14.00">DeleteClaimDialogComponent</text>
</g>
<!-- DeleteClaimDialogComponent&#45;&gt;ClaimModule -->
<g id="edge4" class="edge">
<title>DeleteClaimDialogComponent&#45;&gt;ClaimModule</title>
<path fill="none" stroke="black" d="M671.4,-122.11C671.4,-122.11 671.4,-140.99 671.4,-140.99"/>
<polygon fill="black" stroke="black" points="667.9,-140.99 671.4,-150.99 674.9,-140.99 667.9,-140.99"/>
</g>
<!-- ParseDatePipe -->
<g id="node5" class="node">
<title>ParseDatePipe</title>
<polygon fill="#ffffb3" stroke="black" points="622.63,-122 525.37,-122 525.37,-86 622.63,-86 622.63,-122"/>
<text text-anchor="middle" x="574" y="-99.8" font-family="Times,serif" font-size="14.00">ParseDatePipe</text>
</g>
<!-- ParseDatePipe&#45;&gt;ClaimModule -->
<g id="edge5" class="edge">
<title>ParseDatePipe&#45;&gt;ClaimModule</title>
<path fill="none" stroke="black" d="M615.46,-122.11C615.46,-122.11 615.46,-140.99 615.46,-140.99"/>
<polygon fill="black" stroke="black" points="611.96,-140.99 615.46,-150.99 618.96,-140.99 611.96,-140.99"/>
</g>
<!-- ClaimPoliciesComponent  -->
<g id="node7" class="node">
<title>ClaimPoliciesComponent </title>
<polygon fill="#fb8072" stroke="black" points="987.88,-252 824.12,-252 824.12,-216 987.88,-216 987.88,-252"/>
<text text-anchor="middle" x="906" y="-229.8" font-family="Times,serif" font-size="14.00">ClaimPoliciesComponent </text>
</g>
<!-- ClaimModule&#45;&gt;ClaimPoliciesComponent  -->
<g id="edge6" class="edge">
<title>ClaimModule&#45;&gt;ClaimPoliciesComponent </title>
<path fill="none" stroke="black" stroke-dasharray="5,2" d="M702.17,-180C756.99,-180 840.03,-180 840.03,-180 840.03,-180 840.03,-205.72 840.03,-205.72"/>
<polygon fill="black" stroke="black" points="836.53,-205.72 840.03,-215.72 843.53,-205.72 836.53,-205.72"/>
</g>
<!-- ClaimsComponent  -->
<g id="node8" class="node">
<title>ClaimsComponent </title>
<polygon fill="#fb8072" stroke="black" points="806,-252 682,-252 682,-216 806,-216 806,-252"/>
<text text-anchor="middle" x="744" y="-229.8" font-family="Times,serif" font-size="14.00">ClaimsComponent </text>
</g>
<!-- ClaimModule&#45;&gt;ClaimsComponent  -->
<g id="edge7" class="edge">
<title>ClaimModule&#45;&gt;ClaimsComponent </title>
<path fill="none" stroke="black" stroke-dasharray="5,2" d="M691.82,-187.11C691.82,-187.11 691.82,-205.99 691.82,-205.99"/>
<polygon fill="black" stroke="black" points="688.32,-205.99 691.82,-215.99 695.32,-205.99 688.32,-205.99"/>
</g>
<!-- DeleteClaimDialogComponent  -->
<g id="node9" class="node">
<title>DeleteClaimDialogComponent </title>
<polygon fill="#fb8072" stroke="black" points="663.69,-252 470.31,-252 470.31,-216 663.69,-216 663.69,-252"/>
<text text-anchor="middle" x="567" y="-229.8" font-family="Times,serif" font-size="14.00">DeleteClaimDialogComponent </text>
</g>
<!-- ClaimModule&#45;&gt;DeleteClaimDialogComponent  -->
<g id="edge8" class="edge">
<title>ClaimModule&#45;&gt;DeleteClaimDialogComponent </title>
<path fill="none" stroke="black" stroke-dasharray="5,2" d="M635.98,-187.11C635.98,-187.11 635.98,-205.99 635.98,-205.99"/>
<polygon fill="black" stroke="black" points="632.48,-205.99 635.98,-215.99 639.48,-205.99 632.48,-205.99"/>
</g>
<!-- ParseDatePipe  -->
<g id="node10" class="node">
<title>ParseDatePipe </title>
<polygon fill="#fb8072" stroke="black" points="452.63,-252 351.37,-252 351.37,-216 452.63,-216 452.63,-252"/>
<text text-anchor="middle" x="402" y="-229.8" font-family="Times,serif" font-size="14.00">ParseDatePipe </text>
</g>
<!-- ClaimModule&#45;&gt;ParseDatePipe  -->
<g id="edge9" class="edge">
<title>ClaimModule&#45;&gt;ParseDatePipe </title>
<path fill="none" stroke="black" stroke-dasharray="5,2" d="M608.01,-180C534.84,-180 402,-180 402,-180 402,-180 402,-205.72 402,-205.72"/>
<polygon fill="black" stroke="black" points="398.5,-205.72 402,-215.72 405.5,-205.72 398.5,-205.72"/>
</g>
<!-- ClaimConnector -->
<g id="node11" class="node">
<title>ClaimConnector</title>
<ellipse fill="#fdb462" stroke="black" cx="426" cy="-104" rx="74.74" ry="18"/>
<text text-anchor="middle" x="426" y="-99.8" font-family="Times,serif" font-size="14.00">ClaimConnector</text>
</g>
<!-- ClaimConnector&#45;&gt;ClaimModule -->
<g id="edge10" class="edge">
<title>ClaimConnector&#45;&gt;ClaimModule</title>
<path fill="none" stroke="black" d="M485.51,-115.13C485.51,-131.2 485.51,-159 485.51,-159 485.51,-159 597.79,-159 597.79,-159"/>
<polygon fill="black" stroke="black" points="597.79,-162.5 607.79,-159 597.79,-155.5 597.79,-162.5"/>
</g>
<!-- ClaimDataService -->
<g id="node12" class="node">
<title>ClaimDataService</title>
<ellipse fill="#fdb462" stroke="black" cx="251" cy="-104" rx="81.65" ry="18"/>
<text text-anchor="middle" x="251" y="-99.8" font-family="Times,serif" font-size="14.00">ClaimDataService</text>
</g>
<!-- ClaimDataService&#45;&gt;ClaimModule -->
<g id="edge11" class="edge">
<title>ClaimDataService&#45;&gt;ClaimModule</title>
<path fill="none" stroke="black" d="M251,-122.27C251,-140.56 251,-166 251,-166 251,-166 597.87,-166 597.87,-166"/>
<polygon fill="black" stroke="black" points="597.87,-169.5 607.87,-166 597.87,-162.5 597.87,-169.5"/>
</g>
<!-- ClaimService -->
<g id="node13" class="node">
<title>ClaimService</title>
<ellipse fill="#fdb462" stroke="black" cx="88" cy="-104" rx="63.7" ry="18"/>
<text text-anchor="middle" x="88" y="-99.8" font-family="Times,serif" font-size="14.00">ClaimService</text>
</g>
<!-- ClaimService&#45;&gt;ClaimModule -->
<g id="edge12" class="edge">
<title>ClaimService&#45;&gt;ClaimModule</title>
<path fill="none" stroke="black" d="M88,-122.13C88,-142.57 88,-173 88,-173 88,-173 598.12,-173 598.12,-173"/>
<polygon fill="black" stroke="black" points="598.12,-176.5 608.12,-173 598.12,-169.5 598.12,-176.5"/>
</g>
</g>
</svg>
