<?xml version="1.0" encoding="UTF-8" standalone="no"?>
<!DOCTYPE svg PUBLIC "-//W3C//DTD SVG 1.1//EN"
 "http://www.w3.org/Graphics/SVG/1.1/DTD/svg11.dtd">
<!-- Generated by graphviz version 2.47.3 (20210619.1520)
 -->
<!-- Title: dependencies Pages: 1 -->
<svg width="1947pt" height="247pt"
 viewBox="0.00 0.00 1947.00 246.80" xmlns="http://www.w3.org/2000/svg" xmlns:xlink="http://www.w3.org/1999/xlink">
<g id="graph0" class="graph" transform="scale(1 1) rotate(0) translate(4 242.8)">
<title>dependencies</title>
<polygon fill="white" stroke="transparent" points="-4,4 -4,-242.8 1943,-242.8 1943,4 -4,4"/>
<text text-anchor="middle" x="969.5" y="-8.2" font-family="sans-serif" font-size="14.00">dependencies</text>
<g id="clust1" class="cluster">
<title>cluster_ClaimModule</title>
<polygon fill="none" stroke="black" stroke-dasharray="1,5" points="8,-32.8 8,-230.8 1931,-230.8 1931,-32.8 8,-32.8"/>
</g>
<g id="clust2" class="cluster">
<title>cluster_ClaimModule_declarations</title>
<polygon fill="none" stroke="black" points="1056,-40.8 1056,-92.8 1923,-92.8 1923,-40.8 1056,-40.8"/>
</g>
<g id="clust9" class="cluster">
<title>cluster_ClaimModule_exports</title>
<polygon fill="none" stroke="black" points="525,-170.8 525,-222.8 1409,-222.8 1409,-170.8 525,-170.8"/>
</g>
<g id="clust8" class="cluster">
<title>cluster_ClaimModule_imports</title>
<polygon fill="none" stroke="black" points="517,-40.8 517,-92.8 1048,-92.8 1048,-40.8 517,-40.8"/>
</g>
<g id="clust11" class="cluster">
<title>cluster_ClaimModule_providers</title>
<polygon fill="none" stroke="black" points="16,-40.8 16,-92.8 509,-92.8 509,-40.8 16,-40.8"/>
</g>
<!-- ClaimDetailsComponent -->
<g id="node1" class="node">
<title>ClaimDetailsComponent</title>
<polygon fill="#ffffb3" stroke="black" points="1914.71,-84.8 1759.29,-84.8 1759.29,-48.8 1914.71,-48.8 1914.71,-84.8"/>
<text text-anchor="middle" x="1837" y="-62.6" font-family="Times,serif" font-size="14.00">ClaimDetailsComponent</text>
</g>
<!-- ClaimModule -->
<g id="node6" class="node">
<title>ClaimModule</title>
<polygon fill="#8dd3c7" stroke="black" points="1027.77,-149.8 1024.77,-153.8 1003.77,-153.8 1000.77,-149.8 934.23,-149.8 934.23,-113.8 1027.77,-113.8 1027.77,-149.8"/>
<text text-anchor="middle" x="981" y="-127.6" font-family="Times,serif" font-size="14.00">ClaimModule</text>
</g>
<!-- ClaimDetailsComponent&#45;&gt;ClaimModule -->
<g id="edge1" class="edge">
<title>ClaimDetailsComponent&#45;&gt;ClaimModule</title>
<path fill="none" stroke="black" d="M1837,-84.83C1837,-105.57 1837,-136.8 1837,-136.8 1837,-136.8 1037.94,-136.8 1037.94,-136.8"/>
<polygon fill="black" stroke="black" points="1037.94,-133.3 1027.94,-136.8 1037.94,-140.3 1037.94,-133.3"/>
</g>
<!-- ClaimPoliciesComponent -->
<g id="node2" class="node">
<title>ClaimPoliciesComponent</title>
<polygon fill="#ffffb3" stroke="black" points="1740.88,-84.8 1581.12,-84.8 1581.12,-48.8 1740.88,-48.8 1740.88,-84.8"/>
<text text-anchor="middle" x="1661" y="-62.6" font-family="Times,serif" font-size="14.00">ClaimPoliciesComponent</text>
</g>
<!-- ClaimPoliciesComponent&#45;&gt;ClaimModule -->
<g id="edge2" class="edge">
<title>ClaimPoliciesComponent&#45;&gt;ClaimModule</title>
<path fill="none" stroke="black" d="M1661,-84.91C1661,-104.14 1661,-131.8 1661,-131.8 1661,-131.8 1038.01,-131.8 1038.01,-131.8"/>
<polygon fill="black" stroke="black" points="1038.01,-128.3 1028.01,-131.8 1038.01,-135.3 1038.01,-128.3"/>
</g>
<!-- ClaimsComponent -->
<g id="node3" class="node">
<title>ClaimsComponent</title>
<polygon fill="#ffffb3" stroke="black" points="1563.5,-84.8 1442.5,-84.8 1442.5,-48.8 1563.5,-48.8 1563.5,-84.8"/>
<text text-anchor="middle" x="1503" y="-62.6" font-family="Times,serif" font-size="14.00">ClaimsComponent</text>
</g>
<!-- ClaimsComponent&#45;&gt;ClaimModule -->
<g id="edge3" class="edge">
<title>ClaimsComponent&#45;&gt;ClaimModule</title>
<path fill="none" stroke="black" d="M1503,-85.1C1503,-103.07 1503,-127.8 1503,-127.8 1503,-127.8 1037.78,-127.8 1037.78,-127.8"/>
<polygon fill="black" stroke="black" points="1037.78,-124.3 1027.78,-127.8 1037.78,-131.3 1037.78,-124.3"/>
</g>
<!-- CreateClaimComponent -->
<g id="node4" class="node">
<title>CreateClaimComponent</title>
<polygon fill="#ffffb3" stroke="black" points="1424.09,-84.8 1271.91,-84.8 1271.91,-48.8 1424.09,-48.8 1424.09,-84.8"/>
<text text-anchor="middle" x="1348" y="-62.6" font-family="Times,serif" font-size="14.00">CreateClaimComponent</text>
</g>
<!-- CreateClaimComponent&#45;&gt;ClaimModule -->
<g id="edge4" class="edge">
<title>CreateClaimComponent&#45;&gt;ClaimModule</title>
<path fill="none" stroke="black" d="M1336.66,-84.83C1336.66,-101.2 1336.66,-122.8 1336.66,-122.8 1336.66,-122.8 1037.86,-122.8 1037.86,-122.8"/>
<polygon fill="black" stroke="black" points="1037.86,-119.3 1027.86,-122.8 1037.86,-126.3 1037.86,-119.3"/>
</g>
<!-- DeleteClaimDialogComponent -->
<g id="node5" class="node">
<title>DeleteClaimDialogComponent</title>
<polygon fill="#ffffb3" stroke="black" points="1254.19,-84.8 1063.81,-84.8 1063.81,-48.8 1254.19,-48.8 1254.19,-84.8"/>
<text text-anchor="middle" x="1159" y="-62.6" font-family="Times,serif" font-size="14.00">DeleteClaimDialogComponent</text>
</g>
<!-- DeleteClaimDialogComponent&#45;&gt;ClaimModule -->
<g id="edge5" class="edge">
<title>DeleteClaimDialogComponent&#45;&gt;ClaimModule</title>
<path fill="none" stroke="black" d="M1117.5,-84.99C1117.5,-99.98 1117.5,-118.8 1117.5,-118.8 1117.5,-118.8 1037.98,-118.8 1037.98,-118.8"/>
<polygon fill="black" stroke="black" points="1037.98,-115.3 1027.98,-118.8 1037.98,-122.3 1037.98,-115.3"/>
</g>
<!-- ClaimDetailsComponent  -->
<g id="node10" class="node">
<title>ClaimDetailsComponent </title>
<polygon fill="#fb8072" stroke="black" points="1401.21,-214.8 1242.79,-214.8 1242.79,-178.8 1401.21,-178.8 1401.21,-214.8"/>
<text text-anchor="middle" x="1322" y="-192.6" font-family="Times,serif" font-size="14.00">ClaimDetailsComponent </text>
</g>
<!-- ClaimModule&#45;&gt;ClaimDetailsComponent  -->
<g id="edge9" class="edge">
<title>ClaimModule&#45;&gt;ClaimDetailsComponent </title>
<path fill="none" stroke="black" stroke-dasharray="5,2" d="M1027.88,-140.8C1104.56,-140.8 1248.37,-140.8 1248.37,-140.8 1248.37,-140.8 1248.37,-168.77 1248.37,-168.77"/>
<polygon fill="black" stroke="black" points="1244.87,-168.77 1248.37,-178.77 1251.87,-168.77 1244.87,-168.77"/>
</g>
<!-- ClaimPoliciesComponent  -->
<g id="node11" class="node">
<title>ClaimPoliciesComponent </title>
<polygon fill="#fb8072" stroke="black" points="1224.88,-214.8 1061.12,-214.8 1061.12,-178.8 1224.88,-178.8 1224.88,-214.8"/>
<text text-anchor="middle" x="1143" y="-192.6" font-family="Times,serif" font-size="14.00">ClaimPoliciesComponent </text>
</g>
<!-- ClaimModule&#45;&gt;ClaimPoliciesComponent  -->
<g id="edge10" class="edge">
<title>ClaimModule&#45;&gt;ClaimPoliciesComponent </title>
<path fill="none" stroke="black" stroke-dasharray="5,2" d="M1027.99,-145.8C1084.28,-145.8 1171.1,-145.8 1171.1,-145.8 1171.1,-145.8 1171.1,-168.68 1171.1,-168.68"/>
<polygon fill="black" stroke="black" points="1167.6,-168.68 1171.1,-178.68 1174.6,-168.68 1167.6,-168.68"/>
</g>
<!-- ClaimsComponent  -->
<g id="node12" class="node">
<title>ClaimsComponent </title>
<polygon fill="#fb8072" stroke="black" points="1043,-214.8 919,-214.8 919,-178.8 1043,-178.8 1043,-214.8"/>
<text text-anchor="middle" x="981" y="-192.6" font-family="Times,serif" font-size="14.00">ClaimsComponent </text>
</g>
<!-- ClaimModule&#45;&gt;ClaimsComponent  -->
<g id="edge11" class="edge">
<title>ClaimModule&#45;&gt;ClaimsComponent </title>
<path fill="none" stroke="black" stroke-dasharray="5,2" d="M981,-149.91C981,-149.91 981,-168.79 981,-168.79"/>
<polygon fill="black" stroke="black" points="977.5,-168.79 981,-178.79 984.5,-168.79 977.5,-168.79"/>
</g>
<!-- CreateClaimComponent  -->
<g id="node13" class="node">
<title>CreateClaimComponent </title>
<polygon fill="#fb8072" stroke="black" points="900.59,-214.8 745.41,-214.8 745.41,-178.8 900.59,-178.8 900.59,-214.8"/>
<text text-anchor="middle" x="823" y="-192.6" font-family="Times,serif" font-size="14.00">CreateClaimComponent </text>
</g>
<!-- ClaimModule&#45;&gt;CreateClaimComponent  -->
<g id="edge12" class="edge">
<title>ClaimModule&#45;&gt;CreateClaimComponent </title>
<path fill="none" stroke="black" stroke-dasharray="5,2" d="M934.07,-145.8C896.11,-145.8 848.93,-145.8 848.93,-145.8 848.93,-145.8 848.93,-168.68 848.93,-168.68"/>
<polygon fill="black" stroke="black" points="845.43,-168.68 848.93,-178.68 852.43,-168.68 845.43,-168.68"/>
</g>
<!-- DeleteClaimDialogComponent  -->
<g id="node14" class="node">
<title>DeleteClaimDialogComponent </title>
<polygon fill="#fb8072" stroke="black" points="726.69,-214.8 533.31,-214.8 533.31,-178.8 726.69,-178.8 726.69,-214.8"/>
<text text-anchor="middle" x="630" y="-192.6" font-family="Times,serif" font-size="14.00">DeleteClaimDialogComponent </text>
</g>
<!-- ClaimModule&#45;&gt;DeleteClaimDialogComponent  -->
<g id="edge13" class="edge">
<title>ClaimModule&#45;&gt;DeleteClaimDialogComponent </title>
<path fill="none" stroke="black" stroke-dasharray="5,2" d="M933.96,-140.8C857,-140.8 712.68,-140.8 712.68,-140.8 712.68,-140.8 712.68,-168.77 712.68,-168.77"/>
<polygon fill="black" stroke="black" points="709.18,-168.77 712.68,-178.77 716.18,-168.77 709.18,-168.77"/>
</g>
<!-- AccordionModule -->
<g id="node7" class="node">
<title>AccordionModule</title>
<polygon fill="#8dd3c7" stroke="black" points="1040.14,-84.8 1037.14,-88.8 1016.14,-88.8 1013.14,-84.8 921.86,-84.8 921.86,-48.8 1040.14,-48.8 1040.14,-84.8"/>
<text text-anchor="middle" x="981" y="-62.6" font-family="Times,serif" font-size="14.00">AccordionModule</text>
</g>
<!-- AccordionModule&#45;&gt;ClaimModule -->
<g id="edge6" class="edge">
<title>AccordionModule&#45;&gt;ClaimModule</title>
<path fill="none" stroke="black" d="M981,-84.91C981,-84.91 981,-103.79 981,-103.79"/>
<polygon fill="black" stroke="black" points="977.5,-103.79 981,-113.79 984.5,-103.79 977.5,-103.79"/>
</g>
<!-- DateFormatConfigurationModule -->
<g id="node8" class="node">
<title>DateFormatConfigurationModule</title>
<polygon fill="#8dd3c7" stroke="black" points="903.46,-84.8 900.46,-88.8 879.46,-88.8 876.46,-84.8 698.54,-84.8 698.54,-48.8 903.46,-48.8 903.46,-84.8"/>
<text text-anchor="middle" x="801" y="-62.6" font-family="Times,serif" font-size="14.00">DateFormatConfigurationModule</text>
</g>
<!-- DateFormatConfigurationModule&#45;&gt;ClaimModule -->
<g id="edge7" class="edge">
<title>DateFormatConfigurationModule&#45;&gt;ClaimModule</title>
<path fill="none" stroke="black" d="M797.07,-84.99C797.07,-99.98 797.07,-118.8 797.07,-118.8 797.07,-118.8 924.11,-118.8 924.11,-118.8"/>
<polygon fill="black" stroke="black" points="924.11,-122.3 934.11,-118.8 924.11,-115.3 924.11,-122.3"/>
</g>
<!-- DocumentsTableModule -->
<g id="node9" class="node">
<title>DocumentsTableModule</title>
<polygon fill="#8dd3c7" stroke="black" points="680.68,-84.8 677.68,-88.8 656.68,-88.8 653.68,-84.8 525.32,-84.8 525.32,-48.8 680.68,-48.8 680.68,-84.8"/>
<text text-anchor="middle" x="603" y="-62.6" font-family="Times,serif" font-size="14.00">DocumentsTableModule</text>
</g>
<!-- DocumentsTableModule&#45;&gt;ClaimModule -->
<g id="edge8" class="edge">
<title>DocumentsTableModule&#45;&gt;ClaimModule</title>
<path fill="none" stroke="black" d="M606.87,-84.83C606.87,-101.2 606.87,-122.8 606.87,-122.8 606.87,-122.8 924,-122.8 924,-122.8"/>
<polygon fill="black" stroke="black" points="924,-126.3 934,-122.8 924,-119.3 924,-126.3"/>
</g>
<!-- ClaimConnector -->
<g id="node15" class="node">
<title>ClaimConnector</title>
<ellipse fill="#fdb462" stroke="black" cx="426" cy="-66.8" rx="74.74" ry="18"/>
<text text-anchor="middle" x="426" y="-62.6" font-family="Times,serif" font-size="14.00">ClaimConnector</text>
</g>
<!-- ClaimConnector&#45;&gt;ClaimModule -->
<g id="edge14" class="edge">
<title>ClaimConnector&#45;&gt;ClaimModule</title>
<path fill="none" stroke="black" d="M426,-85.1C426,-103.07 426,-127.8 426,-127.8 426,-127.8 924.16,-127.8 924.16,-127.8"/>
<polygon fill="black" stroke="black" points="924.16,-131.3 934.16,-127.8 924.16,-124.3 924.16,-131.3"/>
</g>
<!-- ClaimDataService -->
<g id="node16" class="node">
<title>ClaimDataService</title>
<ellipse fill="#fdb462" stroke="black" cx="251" cy="-66.8" rx="81.65" ry="18"/>
<text text-anchor="middle" x="251" y="-62.6" font-family="Times,serif" font-size="14.00">ClaimDataService</text>
</g>
<!-- ClaimDataService&#45;&gt;ClaimModule -->
<g id="edge15" class="edge">
<title>ClaimDataService&#45;&gt;ClaimModule</title>
<path fill="none" stroke="black" d="M251,-84.91C251,-104.14 251,-131.8 251,-131.8 251,-131.8 924.22,-131.8 924.22,-131.8"/>
<polygon fill="black" stroke="black" points="924.22,-135.3 934.22,-131.8 924.22,-128.3 924.22,-135.3"/>
</g>
<!-- ClaimService -->
<g id="node17" class="node">
<title>ClaimService</title>
<ellipse fill="#fdb462" stroke="black" cx="88" cy="-66.8" rx="63.7" ry="18"/>
<text text-anchor="middle" x="88" y="-62.6" font-family="Times,serif" font-size="14.00">ClaimService</text>
</g>
<!-- ClaimService&#45;&gt;ClaimModule -->
<g id="edge16" class="edge">
<title>ClaimService&#45;&gt;ClaimModule</title>
<path fill="none" stroke="black" d="M88,-84.83C88,-105.57 88,-136.8 88,-136.8 88,-136.8 923.93,-136.8 923.93,-136.8"/>
<polygon fill="black" stroke="black" points="923.93,-140.3 933.93,-136.8 923.93,-133.3 923.93,-140.3"/>
</g>
</g>
</svg>
