<?xml version="1.0" encoding="UTF-8" standalone="no"?>
<!DOCTYPE svg PUBLIC "-//W3C//DTD SVG 1.1//EN"
 "http://www.w3.org/Graphics/SVG/1.1/DTD/svg11.dtd">
<!-- Generated by graphviz version 2.47.3 (20210619.1520)
 -->
<!-- Title: dependencies Pages: 1 -->
<svg width="234pt" height="247pt"
 viewBox="0.00 0.00 234.00 246.80" xmlns="http://www.w3.org/2000/svg" xmlns:xlink="http://www.w3.org/1999/xlink">
<g id="graph0" class="graph" transform="scale(1 1) rotate(0) translate(4 242.8)">
<title>dependencies</title>
<polygon fill="white" stroke="transparent" points="-4,4 -4,-242.8 230,-242.8 230,4 -4,4"/>
<text text-anchor="middle" x="113" y="-8.2" font-family="sans-serif" font-size="14.00">dependencies</text>
<g id="clust1" class="cluster">
<title>cluster_CategoryFeatureModule</title>
<polygon fill="none" stroke="black" stroke-dasharray="1,5" points="8,-32.8 8,-230.8 218,-230.8 218,-32.8 8,-32.8"/>
</g>
<g id="clust2" class="cluster">
<title>cluster_CategoryFeatureModule_declarations</title>
<polygon fill="none" stroke="black" points="18,-40.8 18,-92.8 208,-92.8 208,-40.8 18,-40.8"/>
</g>
<g id="clust5" class="cluster">
<title>cluster_CategoryFeatureModule_exports</title>
<polygon fill="none" stroke="black" points="16,-170.8 16,-222.8 210,-222.8 210,-170.8 16,-170.8"/>
</g>
<!-- CategoryFeatureComponent -->
<g id="node1" class="node">
<title>CategoryFeatureComponent</title>
<polygon fill="#ffffb3" stroke="black" points="200.13,-84.8 25.87,-84.8 25.87,-48.8 200.13,-48.8 200.13,-84.8"/>
<text text-anchor="middle" x="113" y="-62.6" font-family="Times,serif" font-size="14.00">CategoryFeatureComponent</text>
</g>
<!-- CategoryFeatureModule -->
<g id="node2" class="node">
<title>CategoryFeatureModule</title>
<polygon fill="#8dd3c7" stroke="black" points="189.34,-149.8 186.34,-153.8 165.34,-153.8 162.34,-149.8 36.66,-149.8 36.66,-113.8 189.34,-113.8 189.34,-149.8"/>
<text text-anchor="middle" x="113" y="-127.6" font-family="Times,serif" font-size="14.00">CategoryFeatureModule</text>
</g>
<!-- CategoryFeatureComponent&#45;&gt;CategoryFeatureModule -->
<g id="edge1" class="edge">
<title>CategoryFeatureComponent&#45;&gt;CategoryFeatureModule</title>
<path fill="none" stroke="black" d="M113,-84.91C113,-84.91 113,-103.79 113,-103.79"/>
<polygon fill="black" stroke="black" points="109.5,-103.79 113,-113.79 116.5,-103.79 109.5,-103.79"/>
</g>
<!-- CategoryFeatureComponent  -->
<g id="node3" class="node">
<title>CategoryFeatureComponent </title>
<polygon fill="#fb8072" stroke="black" points="202.13,-214.8 23.87,-214.8 23.87,-178.8 202.13,-178.8 202.13,-214.8"/>
<text text-anchor="middle" x="113" y="-192.6" font-family="Times,serif" font-size="14.00">CategoryFeatureComponent </text>
</g>
<!-- CategoryFeatureModule&#45;&gt;CategoryFeatureComponent  -->
<g id="edge2" class="edge">
<title>CategoryFeatureModule&#45;&gt;CategoryFeatureComponent </title>
<path fill="none" stroke="black" stroke-dasharray="5,2" d="M113,-149.91C113,-149.91 113,-168.79 113,-168.79"/>
<polygon fill="black" stroke="black" points="109.5,-168.79 113,-178.79 116.5,-168.79 109.5,-168.79"/>
</g>
</g>
</svg>
