<?xml version="1.0" encoding="UTF-8" standalone="no"?>
<!DOCTYPE svg PUBLIC "-//W3C//DTD SVG 1.1//EN"
 "http://www.w3.org/Graphics/SVG/1.1/DTD/svg11.dtd">
<!-- Generated by graphviz version 2.47.3 (20210619.1520)
 -->
<!-- Title: dependencies Pages: 1 -->
<svg width="404pt" height="247pt"
 viewBox="0.00 0.00 404.00 246.80" xmlns="http://www.w3.org/2000/svg" xmlns:xlink="http://www.w3.org/1999/xlink">
<g id="graph0" class="graph" transform="scale(1 1) rotate(0) translate(4 242.8)">
<title>dependencies</title>
<polygon fill="white" stroke="transparent" points="-4,4 -4,-242.8 400,-242.8 400,4 -4,4"/>
<text text-anchor="middle" x="198" y="-8.2" font-family="sans-serif" font-size="14.00">dependencies</text>
<g id="clust1" class="cluster">
<title>cluster_CmsFormSubmitModule</title>
<polygon fill="none" stroke="black" stroke-dasharray="1,5" points="8,-32.8 8,-230.8 388,-230.8 388,-32.8 8,-32.8"/>
</g>
<g id="clust5" class="cluster">
<title>cluster_CmsFormSubmitModule_exports</title>
<polygon fill="none" stroke="black" points="97,-170.8 97,-222.8 299,-222.8 299,-170.8 97,-170.8"/>
</g>
<g id="clust2" class="cluster">
<title>cluster_CmsFormSubmitModule_declarations</title>
<polygon fill="none" stroke="black" points="182,-40.8 182,-92.8 380,-92.8 380,-40.8 182,-40.8"/>
</g>
<g id="clust4" class="cluster">
<title>cluster_CmsFormSubmitModule_imports</title>
<polygon fill="none" stroke="black" points="16,-40.8 16,-92.8 174,-92.8 174,-40.8 16,-40.8"/>
</g>
<!-- CMSFormSubmitComponent -->
<g id="node1" class="node">
<title>CMSFormSubmitComponent</title>
<polygon fill="#ffffb3" stroke="black" points="371.68,-84.8 190.32,-84.8 190.32,-48.8 371.68,-48.8 371.68,-84.8"/>
<text text-anchor="middle" x="281" y="-62.6" font-family="Times,serif" font-size="14.00">CMSFormSubmitComponent</text>
</g>
<!-- CmsFormSubmitModule -->
<g id="node2" class="node">
<title>CmsFormSubmitModule</title>
<polygon fill="#8dd3c7" stroke="black" points="276.01,-149.8 273.01,-153.8 252.01,-153.8 249.01,-149.8 119.99,-149.8 119.99,-113.8 276.01,-113.8 276.01,-149.8"/>
<text text-anchor="middle" x="198" y="-127.6" font-family="Times,serif" font-size="14.00">CmsFormSubmitModule</text>
</g>
<!-- CMSFormSubmitComponent&#45;&gt;CmsFormSubmitModule -->
<g id="edge1" class="edge">
<title>CMSFormSubmitComponent&#45;&gt;CmsFormSubmitModule</title>
<path fill="none" stroke="black" d="M233.08,-84.91C233.08,-84.91 233.08,-103.79 233.08,-103.79"/>
<polygon fill="black" stroke="black" points="229.58,-103.79 233.08,-113.79 236.58,-103.79 229.58,-103.79"/>
</g>
<!-- CMSFormSubmitComponent  -->
<g id="node4" class="node">
<title>CMSFormSubmitComponent </title>
<polygon fill="#fb8072" stroke="black" points="290.68,-214.8 105.32,-214.8 105.32,-178.8 290.68,-178.8 290.68,-214.8"/>
<text text-anchor="middle" x="198" y="-192.6" font-family="Times,serif" font-size="14.00">CMSFormSubmitComponent </text>
</g>
<!-- CmsFormSubmitModule&#45;&gt;CMSFormSubmitComponent  -->
<g id="edge3" class="edge">
<title>CmsFormSubmitModule&#45;&gt;CMSFormSubmitComponent </title>
<path fill="none" stroke="black" stroke-dasharray="5,2" d="M198,-149.91C198,-149.91 198,-168.79 198,-168.79"/>
<polygon fill="black" stroke="black" points="194.5,-168.79 198,-178.79 201.5,-168.79 194.5,-168.79"/>
</g>
<!-- DynamicFormModule -->
<g id="node3" class="node">
<title>DynamicFormModule</title>
<polygon fill="#8dd3c7" stroke="black" points="165.7,-84.8 162.7,-88.8 141.7,-88.8 138.7,-84.8 24.3,-84.8 24.3,-48.8 165.7,-48.8 165.7,-84.8"/>
<text text-anchor="middle" x="95" y="-62.6" font-family="Times,serif" font-size="14.00">DynamicFormModule</text>
</g>
<!-- DynamicFormModule&#45;&gt;CmsFormSubmitModule -->
<g id="edge2" class="edge">
<title>DynamicFormModule&#45;&gt;CmsFormSubmitModule</title>
<path fill="none" stroke="black" d="M142.8,-84.91C142.8,-84.91 142.8,-103.79 142.8,-103.79"/>
<polygon fill="black" stroke="black" points="139.3,-103.79 142.8,-113.79 146.3,-103.79 139.3,-103.79"/>
</g>
</g>
</svg>
