<?xml version="1.0" encoding="UTF-8" standalone="no"?>
<!DOCTYPE svg PUBLIC "-//W3C//DTD SVG 1.1//EN"
 "http://www.w3.org/Graphics/SVG/1.1/DTD/svg11.dtd">
<!-- Generated by graphviz version 2.46.0 (20210119.1425)
 -->
<!-- Title: dependencies Pages: 1 -->
<svg width="504pt" height="284pt"
 viewBox="0.00 0.00 504.00 284.00" xmlns="http://www.w3.org/2000/svg" xmlns:xlink="http://www.w3.org/1999/xlink">
<g id="graph0" class="graph" transform="scale(1 1) rotate(0) translate(4 280)">
<title>dependencies</title>
<polygon fill="white" stroke="transparent" points="-4,4 -4,-280 500,-280 500,4 -4,4"/>
<text text-anchor="start" x="227.01" y="-42.4" font-family="sans-serif" font-weight="bold" font-size="14.00">Legend</text>
<polygon fill="#ffffb3" stroke="transparent" points="14,-10 14,-30 34,-30 34,-10 14,-10"/>
<text text-anchor="start" x="37.63" y="-15.4" font-family="sans-serif" font-size="14.00"> &#160;Declarations</text>
<polygon fill="#8dd3c7" stroke="transparent" points="127,-10 127,-30 147,-30 147,-10 127,-10"/>
<text text-anchor="start" x="150.73" y="-15.4" font-family="sans-serif" font-size="14.00"> &#160;Module</text>
<polygon fill="#80b1d3" stroke="transparent" points="213,-10 213,-30 233,-30 233,-10 213,-10"/>
<text text-anchor="start" x="236.78" y="-15.4" font-family="sans-serif" font-size="14.00"> &#160;Bootstrap</text>
<polygon fill="#fdb462" stroke="transparent" points="310,-10 310,-30 330,-30 330,-10 310,-10"/>
<text text-anchor="start" x="333.67" y="-15.4" font-family="sans-serif" font-size="14.00"> &#160;Providers</text>
<polygon fill="#fb8072" stroke="transparent" points="406,-10 406,-30 426,-30 426,-10 406,-10"/>
<text text-anchor="start" x="429.73" y="-15.4" font-family="sans-serif" font-size="14.00"> &#160;Exports</text>
<g id="clust1" class="cluster">
<title>cluster_CmsFormSubmitModule</title>
<polygon fill="none" stroke="black" stroke-dasharray="1,5" points="58,-70 58,-268 438,-268 438,-70 58,-70"/>
</g>
<g id="clust2" class="cluster">
<title>cluster_CmsFormSubmitModule_declarations</title>
<polygon fill="none" stroke="black" points="232,-78 232,-130 430,-130 430,-78 232,-78"/>
</g>
<g id="clust5" class="cluster">
<title>cluster_CmsFormSubmitModule_exports</title>
<polygon fill="none" stroke="black" points="147,-208 147,-260 349,-260 349,-208 147,-208"/>
</g>
<g id="clust4" class="cluster">
<title>cluster_CmsFormSubmitModule_imports</title>
<polygon fill="none" stroke="black" points="66,-78 66,-130 224,-130 224,-78 66,-78"/>
</g>
<!-- CMSFormSubmitComponent -->
<g id="node1" class="node">
<title>CMSFormSubmitComponent</title>
<polygon fill="#ffffb3" stroke="black" points="421.68,-122 240.32,-122 240.32,-86 421.68,-86 421.68,-122"/>
<text text-anchor="middle" x="331" y="-99.8" font-family="Times,serif" font-size="14.00">CMSFormSubmitComponent</text>
</g>
<!-- CmsFormSubmitModule -->
<g id="node2" class="node">
<title>CmsFormSubmitModule</title>
<polygon fill="#8dd3c7" stroke="black" points="326.01,-187 323.01,-191 302.01,-191 299.01,-187 169.99,-187 169.99,-151 326.01,-151 326.01,-187"/>
<text text-anchor="middle" x="248" y="-164.8" font-family="Times,serif" font-size="14.00">CmsFormSubmitModule</text>
</g>
<!-- CMSFormSubmitComponent&#45;&gt;CmsFormSubmitModule -->
<g id="edge1" class="edge">
<title>CMSFormSubmitComponent&#45;&gt;CmsFormSubmitModule</title>
<path fill="none" stroke="black" d="M283.08,-122.11C283.08,-122.11 283.08,-140.99 283.08,-140.99"/>
<polygon fill="black" stroke="black" points="279.58,-140.99 283.08,-150.99 286.58,-140.99 279.58,-140.99"/>
</g>
<!-- CMSFormSubmitComponent  -->
<g id="node4" class="node">
<title>CMSFormSubmitComponent </title>
<polygon fill="#fb8072" stroke="black" points="340.68,-252 155.32,-252 155.32,-216 340.68,-216 340.68,-252"/>
<text text-anchor="middle" x="248" y="-229.8" font-family="Times,serif" font-size="14.00">CMSFormSubmitComponent </text>
</g>
<!-- CmsFormSubmitModule&#45;&gt;CMSFormSubmitComponent  -->
<g id="edge3" class="edge">
<title>CmsFormSubmitModule&#45;&gt;CMSFormSubmitComponent </title>
<path fill="none" stroke="black" stroke-dasharray="5,2" d="M248,-187.11C248,-187.11 248,-205.99 248,-205.99"/>
<polygon fill="black" stroke="black" points="244.5,-205.99 248,-215.99 251.5,-205.99 244.5,-205.99"/>
</g>
<!-- DynamicFormModule -->
<g id="node3" class="node">
<title>DynamicFormModule</title>
<polygon fill="#8dd3c7" stroke="black" points="215.7,-122 212.7,-126 191.7,-126 188.7,-122 74.3,-122 74.3,-86 215.7,-86 215.7,-122"/>
<text text-anchor="middle" x="145" y="-99.8" font-family="Times,serif" font-size="14.00">DynamicFormModule</text>
</g>
<!-- DynamicFormModule&#45;&gt;CmsFormSubmitModule -->
<g id="edge2" class="edge">
<title>DynamicFormModule&#45;&gt;CmsFormSubmitModule</title>
<path fill="none" stroke="black" d="M192.8,-122.11C192.8,-122.11 192.8,-140.99 192.8,-140.99"/>
<polygon fill="black" stroke="black" points="189.3,-140.99 192.8,-150.99 196.3,-140.99 189.3,-140.99"/>
</g>
</g>
</svg>
