<?xml version="1.0" encoding="UTF-8" standalone="no"?>
<!DOCTYPE svg PUBLIC "-//W3C//DTD SVG 1.1//EN"
 "http://www.w3.org/Graphics/SVG/1.1/DTD/svg11.dtd">
<!-- Generated by graphviz version 2.44.1 (20200629.0846)
 -->
<!-- Title: dependencies Pages: 1 -->
<svg width="1790pt" height="284pt"
 viewBox="0.00 0.00 1790.00 284.00" xmlns="http://www.w3.org/2000/svg" xmlns:xlink="http://www.w3.org/1999/xlink">
<g id="graph0" class="graph" transform="scale(1 1) rotate(0) translate(4 280)">
<title>dependencies</title>
<polygon fill="white" stroke="transparent" points="-4,4 -4,-280 1786,-280 1786,4 -4,4"/>
<text text-anchor="start" x="870.01" y="-42.4" font-family="sans-serif" font-weight="bold" font-size="14.00">Legend</text>
<polygon fill="#ffffb3" stroke="transparent" points="657,-10 657,-30 677,-30 677,-10 657,-10"/>
<text text-anchor="start" x="680.63" y="-15.4" font-family="sans-serif" font-size="14.00"> &#160;Declarations</text>
<polygon fill="#8dd3c7" stroke="transparent" points="770,-10 770,-30 790,-30 790,-10 770,-10"/>
<text text-anchor="start" x="793.73" y="-15.4" font-family="sans-serif" font-size="14.00"> &#160;Module</text>
<polygon fill="#80b1d3" stroke="transparent" points="856,-10 856,-30 876,-30 876,-10 856,-10"/>
<text text-anchor="start" x="879.78" y="-15.4" font-family="sans-serif" font-size="14.00"> &#160;Bootstrap</text>
<polygon fill="#fdb462" stroke="transparent" points="953,-10 953,-30 973,-30 973,-10 953,-10"/>
<text text-anchor="start" x="976.67" y="-15.4" font-family="sans-serif" font-size="14.00"> &#160;Providers</text>
<polygon fill="#fb8072" stroke="transparent" points="1049,-10 1049,-30 1069,-30 1069,-10 1049,-10"/>
<text text-anchor="start" x="1072.73" y="-15.4" font-family="sans-serif" font-size="14.00"> &#160;Exports</text>
<g id="clust1" class="cluster">
<title>cluster_FormContainerModule</title>
<polygon fill="none" stroke="black" stroke-dasharray="1,5" points="8,-70 8,-268 1774,-268 1774,-70 8,-70"/>
</g>
<g id="clust2" class="cluster">
<title>cluster_FormContainerModule_declarations</title>
<polygon fill="none" stroke="black" points="1458,-78 1458,-130 1766,-130 1766,-78 1458,-78"/>
</g>
<g id="clust8" class="cluster">
<title>cluster_FormContainerModule_providers</title>
<polygon fill="none" stroke="black" points="16,-78 16,-130 1450,-130 1450,-78 16,-78"/>
</g>
<g id="clust6" class="cluster">
<title>cluster_FormContainerModule_exports</title>
<polygon fill="none" stroke="black" points="724,-208 724,-260 1040,-260 1040,-208 724,-208"/>
</g>
<!-- DynamicFormComponent -->
<g id="node1" class="node">
<title>DynamicFormComponent</title>
<polygon fill="#ffffb3" stroke="black" points="1758.48,-122 1595.52,-122 1595.52,-86 1758.48,-86 1758.48,-122"/>
<text text-anchor="middle" x="1677" y="-99.8" font-family="Times,serif" font-size="14.00">DynamicFormComponent</text>
</g>
<!-- FormContainerModule -->
<g id="node3" class="node">
<title>FormContainerModule</title>
<polygon fill="#8dd3c7" stroke="black" points="942.59,-187 939.59,-191 918.59,-191 915.59,-187 797.41,-187 797.41,-151 942.59,-151 942.59,-187"/>
<text text-anchor="middle" x="870" y="-164.8" font-family="Times,serif" font-size="14.00">FormContainerModule</text>
</g>
<!-- DynamicFormComponent&#45;&gt;FormContainerModule -->
<g id="edge1" class="edge">
<title>DynamicFormComponent&#45;&gt;FormContainerModule</title>
<path fill="none" stroke="black" d="M1677,-122.01C1677,-144.49 1677,-180 1677,-180 1677,-180 952.68,-180 952.68,-180"/>
<polygon fill="black" stroke="black" points="952.68,-176.5 942.68,-180 952.68,-183.5 952.68,-176.5"/>
</g>
<!-- FormComponent -->
<g id="node2" class="node">
<title>FormComponent</title>
<polygon fill="#ffffb3" stroke="black" points="1577.67,-122 1466.33,-122 1466.33,-86 1577.67,-86 1577.67,-122"/>
<text text-anchor="middle" x="1522" y="-99.8" font-family="Times,serif" font-size="14.00">FormComponent</text>
</g>
<!-- FormComponent&#45;&gt;FormContainerModule -->
<g id="edge2" class="edge">
<title>FormComponent&#45;&gt;FormContainerModule</title>
<path fill="none" stroke="black" d="M1522,-122.13C1522,-142.57 1522,-173 1522,-173 1522,-173 952.58,-173 952.58,-173"/>
<polygon fill="black" stroke="black" points="952.58,-169.5 942.58,-173 952.58,-176.5 952.58,-169.5"/>
</g>
<!-- DynamicFormComponent  -->
<g id="node4" class="node">
<title>DynamicFormComponent </title>
<polygon fill="#fb8072" stroke="black" points="1032.48,-252 865.52,-252 865.52,-216 1032.48,-216 1032.48,-252"/>
<text text-anchor="middle" x="949" y="-229.8" font-family="Times,serif" font-size="14.00">DynamicFormComponent </text>
</g>
<!-- FormContainerModule&#45;&gt;DynamicFormComponent  -->
<g id="edge3" class="edge">
<title>FormContainerModule&#45;&gt;DynamicFormComponent </title>
<path fill="none" stroke="black" stroke-dasharray="5,2" d="M904.15,-187.11C904.15,-187.11 904.15,-205.99 904.15,-205.99"/>
<polygon fill="black" stroke="black" points="900.65,-205.99 904.15,-215.99 907.65,-205.99 900.65,-205.99"/>
</g>
<!-- FormComponent  -->
<g id="node5" class="node">
<title>FormComponent </title>
<polygon fill="#fb8072" stroke="black" points="847.67,-252 732.33,-252 732.33,-216 847.67,-216 847.67,-252"/>
<text text-anchor="middle" x="790" y="-229.8" font-family="Times,serif" font-size="14.00">FormComponent </text>
</g>
<!-- FormContainerModule&#45;&gt;FormComponent  -->
<g id="edge4" class="edge">
<title>FormContainerModule&#45;&gt;FormComponent </title>
<path fill="none" stroke="black" stroke-dasharray="5,2" d="M822.52,-187.11C822.52,-187.11 822.52,-205.99 822.52,-205.99"/>
<polygon fill="black" stroke="black" points="819.02,-205.99 822.52,-215.99 826.02,-205.99 819.02,-205.99"/>
</g>
<!-- FieldDependencyResolverService -->
<g id="node6" class="node">
<title>FieldDependencyResolverService</title>
<ellipse fill="#fdb462" stroke="black" cx="1300" cy="-104" rx="142.36" ry="18"/>
<text text-anchor="middle" x="1300" y="-99.8" font-family="Times,serif" font-size="14.00">FieldDependencyResolverService</text>
</g>
<!-- FieldDependencyResolverService&#45;&gt;FormContainerModule -->
<g id="edge5" class="edge">
<title>FieldDependencyResolverService&#45;&gt;FormContainerModule</title>
<path fill="none" stroke="black" d="M1300,-122.27C1300,-140.56 1300,-166 1300,-166 1300,-166 952.94,-166 952.94,-166"/>
<polygon fill="black" stroke="black" points="952.94,-162.5 942.94,-166 952.94,-169.5 952.94,-162.5"/>
</g>
<!-- FormBuilderService -->
<g id="node7" class="node">
<title>FormBuilderService</title>
<ellipse fill="#fdb462" stroke="black" cx="1050" cy="-104" rx="89.76" ry="18"/>
<text text-anchor="middle" x="1050" y="-99.8" font-family="Times,serif" font-size="14.00">FormBuilderService</text>
</g>
<!-- FormBuilderService&#45;&gt;FormContainerModule -->
<g id="edge6" class="edge">
<title>FormBuilderService&#45;&gt;FormContainerModule</title>
<path fill="none" stroke="black" d="M996.18,-118.45C996.18,-134.75 996.18,-159 996.18,-159 996.18,-159 952.67,-159 952.67,-159"/>
<polygon fill="black" stroke="black" points="952.67,-155.5 942.67,-159 952.67,-162.5 952.67,-155.5"/>
</g>
<!-- FormConnector -->
<g id="node8" class="node">
<title>FormConnector</title>
<ellipse fill="#fdb462" stroke="black" cx="870" cy="-104" rx="72.37" ry="18"/>
<text text-anchor="middle" x="870" y="-99.8" font-family="Times,serif" font-size="14.00">FormConnector</text>
</g>
<!-- FormConnector&#45;&gt;FormContainerModule -->
<g id="edge7" class="edge">
<title>FormConnector&#45;&gt;FormContainerModule</title>
<path fill="none" stroke="black" d="M870,-122.11C870,-122.11 870,-140.99 870,-140.99"/>
<polygon fill="black" stroke="black" points="866.5,-140.99 870,-150.99 873.5,-140.99 866.5,-140.99"/>
</g>
<!-- FormDataService -->
<g id="node9" class="node">
<title>FormDataService</title>
<ellipse fill="#fdb462" stroke="black" cx="701" cy="-104" rx="79.29" ry="18"/>
<text text-anchor="middle" x="701" y="-99.8" font-family="Times,serif" font-size="14.00">FormDataService</text>
</g>
<!-- FormDataService&#45;&gt;FormContainerModule -->
<g id="edge8" class="edge">
<title>FormDataService&#45;&gt;FormContainerModule</title>
<path fill="none" stroke="black" d="M756.28,-117.03C756.28,-133.3 756.28,-159 756.28,-159 756.28,-159 787.34,-159 787.34,-159"/>
<polygon fill="black" stroke="black" points="787.34,-162.5 797.34,-159 787.34,-155.5 787.34,-162.5"/>
</g>
<!-- FormDataStorageService -->
<g id="node10" class="node">
<title>FormDataStorageService</title>
<ellipse fill="#fdb462" stroke="black" cx="495" cy="-104" rx="108.78" ry="18"/>
<text text-anchor="middle" x="495" y="-99.8" font-family="Times,serif" font-size="14.00">FormDataStorageService</text>
</g>
<!-- FormDataStorageService&#45;&gt;FormContainerModule -->
<g id="edge9" class="edge">
<title>FormDataStorageService&#45;&gt;FormContainerModule</title>
<path fill="none" stroke="black" d="M495,-122.27C495,-140.56 495,-166 495,-166 495,-166 787.25,-166 787.25,-166"/>
<polygon fill="black" stroke="black" points="787.25,-169.5 797.25,-166 787.25,-162.5 787.25,-169.5"/>
</g>
<!-- FormService -->
<g id="node11" class="node">
<title>FormService</title>
<ellipse fill="#fdb462" stroke="black" cx="307" cy="-104" rx="60.83" ry="18"/>
<text text-anchor="middle" x="307" y="-99.8" font-family="Times,serif" font-size="14.00">FormService</text>
</g>
<!-- FormService&#45;&gt;FormContainerModule -->
<g id="edge10" class="edge">
<title>FormService&#45;&gt;FormContainerModule</title>
<path fill="none" stroke="black" d="M307,-122.13C307,-142.57 307,-173 307,-173 307,-173 787.26,-173 787.26,-173"/>
<polygon fill="black" stroke="black" points="787.26,-176.5 797.26,-173 787.26,-169.5 787.26,-176.5"/>
</g>
<!-- FormValidationService -->
<g id="node12" class="node">
<title>FormValidationService</title>
<ellipse fill="#fdb462" stroke="black" cx="126" cy="-104" rx="101.86" ry="18"/>
<text text-anchor="middle" x="126" y="-99.8" font-family="Times,serif" font-size="14.00">FormValidationService</text>
</g>
<!-- FormValidationService&#45;&gt;FormContainerModule -->
<g id="edge11" class="edge">
<title>FormValidationService&#45;&gt;FormContainerModule</title>
<path fill="none" stroke="black" d="M126,-122.01C126,-144.49 126,-180 126,-180 126,-180 787.31,-180 787.31,-180"/>
<polygon fill="black" stroke="black" points="787.31,-183.5 797.31,-180 787.31,-176.5 787.31,-183.5"/>
</g>
</g>
</svg>
