<?xml version="1.0" encoding="UTF-8" standalone="no"?>
<!DOCTYPE svg PUBLIC "-//W3C//DTD SVG 1.1//EN"
 "http://www.w3.org/Graphics/SVG/1.1/DTD/svg11.dtd">
<!-- Generated by graphviz version 2.46.0 (20210119.1425)
 -->
<!-- Title: dependencies Pages: 1 -->
<svg width="1918pt" height="284pt"
 viewBox="0.00 0.00 1918.00 284.00" xmlns="http://www.w3.org/2000/svg" xmlns:xlink="http://www.w3.org/1999/xlink">
<g id="graph0" class="graph" transform="scale(1 1) rotate(0) translate(4 280)">
<title>dependencies</title>
<polygon fill="white" stroke="transparent" points="-4,4 -4,-280 1914,-280 1914,4 -4,4"/>
<text text-anchor="start" x="934.01" y="-42.4" font-family="sans-serif" font-weight="bold" font-size="14.00">Legend</text>
<polygon fill="#ffffb3" stroke="transparent" points="721,-10 721,-30 741,-30 741,-10 721,-10"/>
<text text-anchor="start" x="744.63" y="-15.4" font-family="sans-serif" font-size="14.00"> &#160;Declarations</text>
<polygon fill="#8dd3c7" stroke="transparent" points="834,-10 834,-30 854,-30 854,-10 834,-10"/>
<text text-anchor="start" x="857.73" y="-15.4" font-family="sans-serif" font-size="14.00"> &#160;Module</text>
<polygon fill="#80b1d3" stroke="transparent" points="920,-10 920,-30 940,-30 940,-10 920,-10"/>
<text text-anchor="start" x="943.78" y="-15.4" font-family="sans-serif" font-size="14.00"> &#160;Bootstrap</text>
<polygon fill="#fdb462" stroke="transparent" points="1017,-10 1017,-30 1037,-30 1037,-10 1017,-10"/>
<text text-anchor="start" x="1040.67" y="-15.4" font-family="sans-serif" font-size="14.00"> &#160;Providers</text>
<polygon fill="#fb8072" stroke="transparent" points="1113,-10 1113,-30 1133,-30 1133,-10 1113,-10"/>
<text text-anchor="start" x="1136.73" y="-15.4" font-family="sans-serif" font-size="14.00"> &#160;Exports</text>
<g id="clust1" class="cluster">
<title>cluster_FormContainerModule</title>
<polygon fill="none" stroke="black" stroke-dasharray="1,5" points="8,-70 8,-268 1902,-268 1902,-70 8,-70"/>
</g>
<g id="clust2" class="cluster">
<title>cluster_FormContainerModule_declarations</title>
<polygon fill="none" stroke="black" points="1586,-78 1586,-130 1894,-130 1894,-78 1586,-78"/>
</g>
<g id="clust6" class="cluster">
<title>cluster_FormContainerModule_exports</title>
<polygon fill="none" stroke="black" points="814,-208 814,-260 1130,-260 1130,-208 814,-208"/>
</g>
<g id="clust8" class="cluster">
<title>cluster_FormContainerModule_providers</title>
<polygon fill="none" stroke="black" points="16,-78 16,-130 1578,-130 1578,-78 16,-78"/>
</g>
<!-- DynamicFormComponent -->
<g id="node1" class="node">
<title>DynamicFormComponent</title>
<polygon fill="#ffffb3" stroke="black" points="1886.48,-122 1723.52,-122 1723.52,-86 1886.48,-86 1886.48,-122"/>
<text text-anchor="middle" x="1805" y="-99.8" font-family="Times,serif" font-size="14.00">DynamicFormComponent</text>
</g>
<!-- FormContainerModule -->
<g id="node3" class="node">
<title>FormContainerModule</title>
<polygon fill="#8dd3c7" stroke="black" points="1032.59,-187 1029.59,-191 1008.59,-191 1005.59,-187 887.41,-187 887.41,-151 1032.59,-151 1032.59,-187"/>
<text text-anchor="middle" x="960" y="-164.8" font-family="Times,serif" font-size="14.00">FormContainerModule</text>
</g>
<!-- DynamicFormComponent&#45;&gt;FormContainerModule -->
<g id="edge1" class="edge">
<title>DynamicFormComponent&#45;&gt;FormContainerModule</title>
<path fill="none" stroke="black" d="M1805,-122.01C1805,-144.49 1805,-180 1805,-180 1805,-180 1042.78,-180 1042.78,-180"/>
<polygon fill="black" stroke="black" points="1042.78,-176.5 1032.78,-180 1042.78,-183.5 1042.78,-176.5"/>
</g>
<!-- FormComponent -->
<g id="node2" class="node">
<title>FormComponent</title>
<polygon fill="#ffffb3" stroke="black" points="1705.67,-122 1594.33,-122 1594.33,-86 1705.67,-86 1705.67,-122"/>
<text text-anchor="middle" x="1650" y="-99.8" font-family="Times,serif" font-size="14.00">FormComponent</text>
</g>
<!-- FormComponent&#45;&gt;FormContainerModule -->
<g id="edge2" class="edge">
<title>FormComponent&#45;&gt;FormContainerModule</title>
<path fill="none" stroke="black" d="M1650,-122.13C1650,-142.57 1650,-173 1650,-173 1650,-173 1042.86,-173 1042.86,-173"/>
<polygon fill="black" stroke="black" points="1042.86,-169.5 1032.86,-173 1042.86,-176.5 1042.86,-169.5"/>
</g>
<!-- DynamicFormComponent  -->
<g id="node4" class="node">
<title>DynamicFormComponent </title>
<polygon fill="#fb8072" stroke="black" points="1122.48,-252 955.52,-252 955.52,-216 1122.48,-216 1122.48,-252"/>
<text text-anchor="middle" x="1039" y="-229.8" font-family="Times,serif" font-size="14.00">DynamicFormComponent </text>
</g>
<!-- FormContainerModule&#45;&gt;DynamicFormComponent  -->
<g id="edge3" class="edge">
<title>FormContainerModule&#45;&gt;DynamicFormComponent </title>
<path fill="none" stroke="black" stroke-dasharray="5,2" d="M994.15,-187.11C994.15,-187.11 994.15,-205.99 994.15,-205.99"/>
<polygon fill="black" stroke="black" points="990.65,-205.99 994.15,-215.99 997.65,-205.99 990.65,-205.99"/>
</g>
<!-- FormComponent  -->
<g id="node5" class="node">
<title>FormComponent </title>
<polygon fill="#fb8072" stroke="black" points="937.67,-252 822.33,-252 822.33,-216 937.67,-216 937.67,-252"/>
<text text-anchor="middle" x="880" y="-229.8" font-family="Times,serif" font-size="14.00">FormComponent </text>
</g>
<!-- FormContainerModule&#45;&gt;FormComponent  -->
<g id="edge4" class="edge">
<title>FormContainerModule&#45;&gt;FormComponent </title>
<path fill="none" stroke="black" stroke-dasharray="5,2" d="M912.52,-187.11C912.52,-187.11 912.52,-205.99 912.52,-205.99"/>
<polygon fill="black" stroke="black" points="909.02,-205.99 912.52,-215.99 916.02,-205.99 909.02,-205.99"/>
</g>
<!-- FieldDependencyResolverService -->
<g id="node6" class="node">
<title>FieldDependencyResolverService</title>
<ellipse fill="#fdb462" stroke="black" cx="1428" cy="-104" rx="142.36" ry="18"/>
<text text-anchor="middle" x="1428" y="-99.8" font-family="Times,serif" font-size="14.00">FieldDependencyResolverService</text>
</g>
<!-- FieldDependencyResolverService&#45;&gt;FormContainerModule -->
<g id="edge5" class="edge">
<title>FieldDependencyResolverService&#45;&gt;FormContainerModule</title>
<path fill="none" stroke="black" d="M1428,-122.27C1428,-140.56 1428,-166 1428,-166 1428,-166 1042.61,-166 1042.61,-166"/>
<polygon fill="black" stroke="black" points="1042.61,-162.5 1032.61,-166 1042.61,-169.5 1042.61,-162.5"/>
</g>
<!-- FileService -->
<g id="node7" class="node">
<title>FileService</title>
<ellipse fill="#fdb462" stroke="black" cx="1213" cy="-104" rx="55.03" ry="18"/>
<text text-anchor="middle" x="1213" y="-99.8" font-family="Times,serif" font-size="14.00">FileService</text>
</g>
<!-- FileService&#45;&gt;FormContainerModule -->
<g id="edge6" class="edge">
<title>FileService&#45;&gt;FormContainerModule</title>
<path fill="none" stroke="black" d="M1213,-122.01C1213,-138.05 1213,-159 1213,-159 1213,-159 1042.84,-159 1042.84,-159"/>
<polygon fill="black" stroke="black" points="1042.84,-155.5 1032.84,-159 1042.84,-162.5 1042.84,-155.5"/>
</g>
<!-- FormBuilderService -->
<g id="node8" class="node">
<title>FormBuilderService</title>
<ellipse fill="#fdb462" stroke="black" cx="1050" cy="-104" rx="89.76" ry="18"/>
<text text-anchor="middle" x="1050" y="-99.8" font-family="Times,serif" font-size="14.00">FormBuilderService</text>
</g>
<!-- FormBuilderService&#45;&gt;FormContainerModule -->
<g id="edge7" class="edge">
<title>FormBuilderService&#45;&gt;FormContainerModule</title>
<path fill="none" stroke="black" d="M996.33,-118.75C996.33,-118.75 996.33,-140.59 996.33,-140.59"/>
<polygon fill="black" stroke="black" points="992.83,-140.59 996.33,-150.59 999.83,-140.59 992.83,-140.59"/>
</g>
<!-- FormConnector -->
<g id="node9" class="node">
<title>FormConnector</title>
<ellipse fill="#fdb462" stroke="black" cx="870" cy="-104" rx="72.37" ry="18"/>
<text text-anchor="middle" x="870" y="-99.8" font-family="Times,serif" font-size="14.00">FormConnector</text>
</g>
<!-- FormConnector&#45;&gt;FormContainerModule -->
<g id="edge8" class="edge">
<title>FormConnector&#45;&gt;FormContainerModule</title>
<path fill="none" stroke="black" d="M914.82,-118.43C914.82,-118.43 914.82,-140.89 914.82,-140.89"/>
<polygon fill="black" stroke="black" points="911.32,-140.89 914.82,-150.89 918.32,-140.89 911.32,-140.89"/>
</g>
<!-- FormDataService -->
<g id="node10" class="node">
<title>FormDataService</title>
<ellipse fill="#fdb462" stroke="black" cx="701" cy="-104" rx="79.29" ry="18"/>
<text text-anchor="middle" x="701" y="-99.8" font-family="Times,serif" font-size="14.00">FormDataService</text>
</g>
<!-- FormDataService&#45;&gt;FormContainerModule -->
<g id="edge9" class="edge">
<title>FormDataService&#45;&gt;FormContainerModule</title>
<path fill="none" stroke="black" d="M701,-122.01C701,-138.05 701,-159 701,-159 701,-159 877.16,-159 877.16,-159"/>
<polygon fill="black" stroke="black" points="877.16,-162.5 887.16,-159 877.16,-155.5 877.16,-162.5"/>
</g>
<!-- FormDataStorageService -->
<g id="node11" class="node">
<title>FormDataStorageService</title>
<ellipse fill="#fdb462" stroke="black" cx="495" cy="-104" rx="108.78" ry="18"/>
<text text-anchor="middle" x="495" y="-99.8" font-family="Times,serif" font-size="14.00">FormDataStorageService</text>
</g>
<!-- FormDataStorageService&#45;&gt;FormContainerModule -->
<g id="edge10" class="edge">
<title>FormDataStorageService&#45;&gt;FormContainerModule</title>
<path fill="none" stroke="black" d="M495,-122.27C495,-140.56 495,-166 495,-166 495,-166 877.34,-166 877.34,-166"/>
<polygon fill="black" stroke="black" points="877.34,-169.5 887.34,-166 877.34,-162.5 877.34,-169.5"/>
</g>
<!-- FormService -->
<g id="node12" class="node">
<title>FormService</title>
<ellipse fill="#fdb462" stroke="black" cx="307" cy="-104" rx="60.83" ry="18"/>
<text text-anchor="middle" x="307" y="-99.8" font-family="Times,serif" font-size="14.00">FormService</text>
</g>
<!-- FormService&#45;&gt;FormContainerModule -->
<g id="edge11" class="edge">
<title>FormService&#45;&gt;FormContainerModule</title>
<path fill="none" stroke="black" d="M307,-122.13C307,-142.57 307,-173 307,-173 307,-173 877.31,-173 877.31,-173"/>
<polygon fill="black" stroke="black" points="877.31,-176.5 887.31,-173 877.31,-169.5 877.31,-176.5"/>
</g>
<!-- FormValidationService -->
<g id="node13" class="node">
<title>FormValidationService</title>
<ellipse fill="#fdb462" stroke="black" cx="126" cy="-104" rx="101.86" ry="18"/>
<text text-anchor="middle" x="126" y="-99.8" font-family="Times,serif" font-size="14.00">FormValidationService</text>
</g>
<!-- FormValidationService&#45;&gt;FormContainerModule -->
<g id="edge12" class="edge">
<title>FormValidationService&#45;&gt;FormContainerModule</title>
<path fill="none" stroke="black" d="M126,-122.01C126,-144.49 126,-180 126,-180 126,-180 877.45,-180 877.45,-180"/>
<polygon fill="black" stroke="black" points="877.45,-183.5 887.45,-180 877.45,-176.5 877.45,-183.5"/>
</g>
</g>
</svg>
