<?xml version="1.0" encoding="UTF-8" standalone="no"?>
<!DOCTYPE svg PUBLIC "-//W3C//DTD SVG 1.1//EN"
 "http://www.w3.org/Graphics/SVG/1.1/DTD/svg11.dtd">
<!-- Generated by graphviz version 2.47.3 (20210619.1520)
 -->
<!-- Title: dependencies Pages: 1 -->
<svg width="1918pt" height="247pt"
 viewBox="0.00 0.00 1918.00 246.80" xmlns="http://www.w3.org/2000/svg" xmlns:xlink="http://www.w3.org/1999/xlink">
<g id="graph0" class="graph" transform="scale(1 1) rotate(0) translate(4 242.8)">
<title>dependencies</title>
<polygon fill="white" stroke="transparent" points="-4,4 -4,-242.8 1914,-242.8 1914,4 -4,4"/>
<text text-anchor="middle" x="955" y="-8.2" font-family="sans-serif" font-size="14.00">dependencies</text>
<g id="clust1" class="cluster">
<title>cluster_FormContainerModule</title>
<polygon fill="none" stroke="black" stroke-dasharray="1,5" points="8,-32.8 8,-230.8 1902,-230.8 1902,-32.8 8,-32.8"/>
</g>
<g id="clust8" class="cluster">
<title>cluster_FormContainerModule_providers</title>
<polygon fill="none" stroke="black" points="332,-40.8 332,-92.8 1894,-92.8 1894,-40.8 332,-40.8"/>
</g>
<g id="clust2" class="cluster">
<title>cluster_FormContainerModule_declarations</title>
<polygon fill="none" stroke="black" points="16,-40.8 16,-92.8 324,-92.8 324,-40.8 16,-40.8"/>
</g>
<g id="clust6" class="cluster">
<title>cluster_FormContainerModule_exports</title>
<polygon fill="none" stroke="black" points="768,-170.8 768,-222.8 1084,-222.8 1084,-170.8 768,-170.8"/>
</g>
<!-- DynamicFormComponent -->
<g id="node1" class="node">
<title>DynamicFormComponent</title>
<polygon fill="#ffffb3" stroke="black" points="316.48,-84.8 153.52,-84.8 153.52,-48.8 316.48,-48.8 316.48,-84.8"/>
<text text-anchor="middle" x="235" y="-62.6" font-family="Times,serif" font-size="14.00">DynamicFormComponent</text>
</g>
<!-- FormContainerModule -->
<g id="node3" class="node">
<title>FormContainerModule</title>
<polygon fill="#8dd3c7" stroke="black" points="986.59,-149.8 983.59,-153.8 962.59,-153.8 959.59,-149.8 841.41,-149.8 841.41,-113.8 986.59,-113.8 986.59,-149.8"/>
<text text-anchor="middle" x="914" y="-127.6" font-family="Times,serif" font-size="14.00">FormContainerModule</text>
</g>
<!-- DynamicFormComponent&#45;&gt;FormContainerModule -->
<g id="edge1" class="edge">
<title>DynamicFormComponent&#45;&gt;FormContainerModule</title>
<path fill="none" stroke="black" d="M235,-84.93C235,-105.37 235,-135.8 235,-135.8 235,-135.8 831.34,-135.8 831.34,-135.8"/>
<polygon fill="black" stroke="black" points="831.34,-139.3 841.34,-135.8 831.34,-132.3 831.34,-139.3"/>
</g>
<!-- FormComponent -->
<g id="node2" class="node">
<title>FormComponent</title>
<polygon fill="#ffffb3" stroke="black" points="135.67,-84.8 24.33,-84.8 24.33,-48.8 135.67,-48.8 135.67,-84.8"/>
<text text-anchor="middle" x="80" y="-62.6" font-family="Times,serif" font-size="14.00">FormComponent</text>
</g>
<!-- FormComponent&#45;&gt;FormContainerModule -->
<g id="edge2" class="edge">
<title>FormComponent&#45;&gt;FormContainerModule</title>
<path fill="none" stroke="black" d="M80,-84.81C80,-107.29 80,-142.8 80,-142.8 80,-142.8 831.45,-142.8 831.45,-142.8"/>
<polygon fill="black" stroke="black" points="831.45,-146.3 841.45,-142.8 831.45,-139.3 831.45,-146.3"/>
</g>
<!-- DynamicFormComponent  -->
<g id="node4" class="node">
<title>DynamicFormComponent </title>
<polygon fill="#fb8072" stroke="black" points="1076.48,-214.8 909.52,-214.8 909.52,-178.8 1076.48,-178.8 1076.48,-214.8"/>
<text text-anchor="middle" x="993" y="-192.6" font-family="Times,serif" font-size="14.00">DynamicFormComponent </text>
</g>
<!-- FormContainerModule&#45;&gt;DynamicFormComponent  -->
<g id="edge3" class="edge">
<title>FormContainerModule&#45;&gt;DynamicFormComponent </title>
<path fill="none" stroke="black" stroke-dasharray="5,2" d="M948.15,-149.91C948.15,-149.91 948.15,-168.79 948.15,-168.79"/>
<polygon fill="black" stroke="black" points="944.65,-168.79 948.15,-178.79 951.65,-168.79 944.65,-168.79"/>
</g>
<!-- FormComponent  -->
<g id="node5" class="node">
<title>FormComponent </title>
<polygon fill="#fb8072" stroke="black" points="891.67,-214.8 776.33,-214.8 776.33,-178.8 891.67,-178.8 891.67,-214.8"/>
<text text-anchor="middle" x="834" y="-192.6" font-family="Times,serif" font-size="14.00">FormComponent </text>
</g>
<!-- FormContainerModule&#45;&gt;FormComponent  -->
<g id="edge4" class="edge">
<title>FormContainerModule&#45;&gt;FormComponent </title>
<path fill="none" stroke="black" stroke-dasharray="5,2" d="M866.52,-149.91C866.52,-149.91 866.52,-168.79 866.52,-168.79"/>
<polygon fill="black" stroke="black" points="863.02,-168.79 866.52,-178.79 870.02,-168.79 863.02,-168.79"/>
</g>
<!-- FieldDependencyResolverService -->
<g id="node6" class="node">
<title>FieldDependencyResolverService</title>
<ellipse fill="#fdb462" stroke="black" cx="1744" cy="-66.8" rx="142.36" ry="18"/>
<text text-anchor="middle" x="1744" y="-62.6" font-family="Times,serif" font-size="14.00">FieldDependencyResolverService</text>
</g>
<!-- FieldDependencyResolverService&#45;&gt;FormContainerModule -->
<g id="edge5" class="edge">
<title>FieldDependencyResolverService&#45;&gt;FormContainerModule</title>
<path fill="none" stroke="black" d="M1744,-84.81C1744,-107.29 1744,-142.8 1744,-142.8 1744,-142.8 996.57,-142.8 996.57,-142.8"/>
<polygon fill="black" stroke="black" points="996.57,-139.3 986.57,-142.8 996.57,-146.3 996.57,-139.3"/>
</g>
<!-- FileService -->
<g id="node7" class="node">
<title>FileService</title>
<ellipse fill="#fdb462" stroke="black" cx="1529" cy="-66.8" rx="55.03" ry="18"/>
<text text-anchor="middle" x="1529" y="-62.6" font-family="Times,serif" font-size="14.00">FileService</text>
</g>
<!-- FileService&#45;&gt;FormContainerModule -->
<g id="edge6" class="edge">
<title>FileService&#45;&gt;FormContainerModule</title>
<path fill="none" stroke="black" d="M1529,-84.93C1529,-105.37 1529,-135.8 1529,-135.8 1529,-135.8 996.66,-135.8 996.66,-135.8"/>
<polygon fill="black" stroke="black" points="996.66,-132.3 986.66,-135.8 996.66,-139.3 996.66,-132.3"/>
</g>
<!-- FormBuilderService -->
<g id="node8" class="node">
<title>FormBuilderService</title>
<ellipse fill="#fdb462" stroke="black" cx="1366" cy="-66.8" rx="89.76" ry="18"/>
<text text-anchor="middle" x="1366" y="-62.6" font-family="Times,serif" font-size="14.00">FormBuilderService</text>
</g>
<!-- FormBuilderService&#45;&gt;FormContainerModule -->
<g id="edge7" class="edge">
<title>FormBuilderService&#45;&gt;FormContainerModule</title>
<path fill="none" stroke="black" d="M1366,-85.07C1366,-103.36 1366,-128.8 1366,-128.8 1366,-128.8 996.62,-128.8 996.62,-128.8"/>
<polygon fill="black" stroke="black" points="996.62,-125.3 986.62,-128.8 996.62,-132.3 996.62,-125.3"/>
</g>
<!-- FormConnector -->
<g id="node9" class="node">
<title>FormConnector</title>
<ellipse fill="#fdb462" stroke="black" cx="1186" cy="-66.8" rx="72.37" ry="18"/>
<text text-anchor="middle" x="1186" y="-62.6" font-family="Times,serif" font-size="14.00">FormConnector</text>
</g>
<!-- FormConnector&#45;&gt;FormContainerModule -->
<g id="edge8" class="edge">
<title>FormConnector&#45;&gt;FormContainerModule</title>
<path fill="none" stroke="black" d="M1186,-84.81C1186,-100.85 1186,-121.8 1186,-121.8 1186,-121.8 996.89,-121.8 996.89,-121.8"/>
<polygon fill="black" stroke="black" points="996.89,-118.3 986.89,-121.8 996.89,-125.3 996.89,-118.3"/>
</g>
<!-- FormDataService -->
<g id="node10" class="node">
<title>FormDataService</title>
<ellipse fill="#fdb462" stroke="black" cx="1017" cy="-66.8" rx="79.29" ry="18"/>
<text text-anchor="middle" x="1017" y="-62.6" font-family="Times,serif" font-size="14.00">FormDataService</text>
</g>
<!-- FormDataService&#45;&gt;FormContainerModule -->
<g id="edge9" class="edge">
<title>FormDataService&#45;&gt;FormContainerModule</title>
<path fill="none" stroke="black" d="M962.2,-79.95C962.2,-79.95 962.2,-103.49 962.2,-103.49"/>
<polygon fill="black" stroke="black" points="958.7,-103.49 962.2,-113.49 965.7,-103.49 958.7,-103.49"/>
</g>
<!-- FormDataStorageService -->
<g id="node11" class="node">
<title>FormDataStorageService</title>
<ellipse fill="#fdb462" stroke="black" cx="811" cy="-66.8" rx="108.78" ry="18"/>
<text text-anchor="middle" x="811" y="-62.6" font-family="Times,serif" font-size="14.00">FormDataStorageService</text>
</g>
<!-- FormDataStorageService&#45;&gt;FormContainerModule -->
<g id="edge10" class="edge">
<title>FormDataStorageService&#45;&gt;FormContainerModule</title>
<path fill="none" stroke="black" d="M880.55,-80.9C880.55,-80.9 880.55,-103.52 880.55,-103.52"/>
<polygon fill="black" stroke="black" points="877.05,-103.52 880.55,-113.52 884.05,-103.52 877.05,-103.52"/>
</g>
<!-- FormService -->
<g id="node12" class="node">
<title>FormService</title>
<ellipse fill="#fdb462" stroke="black" cx="623" cy="-66.8" rx="60.83" ry="18"/>
<text text-anchor="middle" x="623" y="-62.6" font-family="Times,serif" font-size="14.00">FormService</text>
</g>
<!-- FormService&#45;&gt;FormContainerModule -->
<g id="edge11" class="edge">
<title>FormService&#45;&gt;FormContainerModule</title>
<path fill="none" stroke="black" d="M623,-84.81C623,-100.85 623,-121.8 623,-121.8 623,-121.8 831.32,-121.8 831.32,-121.8"/>
<polygon fill="black" stroke="black" points="831.32,-125.3 841.32,-121.8 831.32,-118.3 831.32,-125.3"/>
</g>
<!-- FormValidationService -->
<g id="node13" class="node">
<title>FormValidationService</title>
<ellipse fill="#fdb462" stroke="black" cx="442" cy="-66.8" rx="101.86" ry="18"/>
<text text-anchor="middle" x="442" y="-62.6" font-family="Times,serif" font-size="14.00">FormValidationService</text>
</g>
<!-- FormValidationService&#45;&gt;FormContainerModule -->
<g id="edge12" class="edge">
<title>FormValidationService&#45;&gt;FormContainerModule</title>
<path fill="none" stroke="black" d="M442,-85.07C442,-103.36 442,-128.8 442,-128.8 442,-128.8 831.28,-128.8 831.28,-128.8"/>
<polygon fill="black" stroke="black" points="831.28,-132.3 841.28,-128.8 831.28,-125.3 831.28,-132.3"/>
</g>
</g>
</svg>
