<?xml version="1.0" encoding="UTF-8" standalone="no"?>
<!DOCTYPE svg PUBLIC "-//W3C//DTD SVG 1.1//EN"
 "http://www.w3.org/Graphics/SVG/1.1/DTD/svg11.dtd">
<!-- Generated by graphviz version 2.47.3 (20210619.1520)
 -->
<!-- Title: dependencies Pages: 1 -->
<svg width="284pt" height="247pt"
 viewBox="0.00 0.00 284.00 246.80" xmlns="http://www.w3.org/2000/svg" xmlns:xlink="http://www.w3.org/1999/xlink">
<g id="graph0" class="graph" transform="scale(1 1) rotate(0) translate(4 242.8)">
<title>dependencies</title>
<polygon fill="white" stroke="transparent" points="-4,4 -4,-242.8 280,-242.8 280,4 -4,4"/>
<text text-anchor="middle" x="138" y="-8.2" font-family="sans-serif" font-size="14.00">dependencies</text>
<g id="clust1" class="cluster">
<title>cluster_CategoryFeatureCarouselModule</title>
<polygon fill="none" stroke="black" stroke-dasharray="1,5" points="8,-32.8 8,-230.8 268,-230.8 268,-32.8 8,-32.8"/>
</g>
<g id="clust2" class="cluster">
<title>cluster_CategoryFeatureCarouselModule_declarations</title>
<polygon fill="none" stroke="black" points="18,-40.8 18,-92.8 258,-92.8 258,-40.8 18,-40.8"/>
</g>
<g id="clust5" class="cluster">
<title>cluster_CategoryFeatureCarouselModule_exports</title>
<polygon fill="none" stroke="black" points="16,-170.8 16,-222.8 260,-222.8 260,-170.8 16,-170.8"/>
</g>
<!-- CategoryFeatureCarouselComponent -->
<g id="node1" class="node">
<title>CategoryFeatureCarouselComponent</title>
<polygon fill="#ffffb3" stroke="black" points="250.39,-84.8 25.61,-84.8 25.61,-48.8 250.39,-48.8 250.39,-84.8"/>
<text text-anchor="middle" x="138" y="-62.6" font-family="Times,serif" font-size="14.00">CategoryFeatureCarouselComponent</text>
</g>
<!-- CategoryFeatureCarouselModule -->
<g id="node2" class="node">
<title>CategoryFeatureCarouselModule</title>
<polygon fill="#8dd3c7" stroke="black" points="239.11,-149.8 236.11,-153.8 215.11,-153.8 212.11,-149.8 36.89,-149.8 36.89,-113.8 239.11,-113.8 239.11,-149.8"/>
<text text-anchor="middle" x="138" y="-127.6" font-family="Times,serif" font-size="14.00">CategoryFeatureCarouselModule</text>
</g>
<!-- CategoryFeatureCarouselComponent&#45;&gt;CategoryFeatureCarouselModule -->
<g id="edge1" class="edge">
<title>CategoryFeatureCarouselComponent&#45;&gt;CategoryFeatureCarouselModule</title>
<path fill="none" stroke="black" d="M138,-84.91C138,-84.91 138,-103.79 138,-103.79"/>
<polygon fill="black" stroke="black" points="134.5,-103.79 138,-113.79 141.5,-103.79 134.5,-103.79"/>
</g>
<!-- CategoryFeatureCarouselComponent  -->
<g id="node3" class="node">
<title>CategoryFeatureCarouselComponent </title>
<polygon fill="#fb8072" stroke="black" points="251.89,-214.8 24.11,-214.8 24.11,-178.8 251.89,-178.8 251.89,-214.8"/>
<text text-anchor="middle" x="138" y="-192.6" font-family="Times,serif" font-size="14.00">CategoryFeatureCarouselComponent </text>
</g>
<!-- CategoryFeatureCarouselModule&#45;&gt;CategoryFeatureCarouselComponent  -->
<g id="edge2" class="edge">
<title>CategoryFeatureCarouselModule&#45;&gt;CategoryFeatureCarouselComponent </title>
<path fill="none" stroke="black" stroke-dasharray="5,2" d="M138,-149.91C138,-149.91 138,-168.79 138,-168.79"/>
<polygon fill="black" stroke="black" points="134.5,-168.79 138,-178.79 141.5,-168.79 134.5,-168.79"/>
</g>
</g>
</svg>
