<?xml version="1.0" encoding="UTF-8" standalone="no"?>
<!DOCTYPE svg PUBLIC "-//W3C//DTD SVG 1.1//EN"
 "http://www.w3.org/Graphics/SVG/1.1/DTD/svg11.dtd">
<!-- Generated by graphviz version 2.47.3 (20210619.1520)
 -->
<!-- Title: dependencies Pages: 1 -->
<svg width="396pt" height="247pt"
 viewBox="0.00 0.00 396.00 246.80" xmlns="http://www.w3.org/2000/svg" xmlns:xlink="http://www.w3.org/1999/xlink">
<g id="graph0" class="graph" transform="scale(1 1) rotate(0) translate(4 242.8)">
<title>dependencies</title>
<polygon fill="white" stroke="transparent" points="-4,4 -4,-242.8 392,-242.8 392,4 -4,4"/>
<text text-anchor="middle" x="194" y="-8.2" font-family="sans-serif" font-size="14.00">dependencies</text>
<g id="clust1" class="cluster">
<title>cluster_FSUnitUserCreateModule</title>
<polygon fill="none" stroke="black" stroke-dasharray="1,5" points="8,-32.8 8,-230.8 380,-230.8 380,-32.8 8,-32.8"/>
</g>
<g id="clust4" class="cluster">
<title>cluster_FSUnitUserCreateModule_imports</title>
<polygon fill="none" stroke="black" points="224,-40.8 224,-92.8 372,-92.8 372,-40.8 224,-40.8"/>
</g>
<g id="clust2" class="cluster">
<title>cluster_FSUnitUserCreateModule_declarations</title>
<polygon fill="none" stroke="black" points="16,-40.8 16,-92.8 216,-92.8 216,-40.8 16,-40.8"/>
</g>
<g id="clust5" class="cluster">
<title>cluster_FSUnitUserCreateModule_exports</title>
<polygon fill="none" stroke="black" points="92,-170.8 92,-222.8 296,-222.8 296,-170.8 92,-170.8"/>
</g>
<!-- FSUnitUserCreateComponent -->
<g id="node1" class="node">
<title>FSUnitUserCreateComponent</title>
<polygon fill="#ffffb3" stroke="black" points="208.24,-84.8 23.76,-84.8 23.76,-48.8 208.24,-48.8 208.24,-84.8"/>
<text text-anchor="middle" x="116" y="-62.6" font-family="Times,serif" font-size="14.00">FSUnitUserCreateComponent</text>
</g>
<!-- FSUnitUserCreateModule -->
<g id="node2" class="node">
<title>FSUnitUserCreateModule</title>
<polygon fill="#8dd3c7" stroke="black" points="275.46,-149.8 272.46,-153.8 251.46,-153.8 248.46,-149.8 112.54,-149.8 112.54,-113.8 275.46,-113.8 275.46,-149.8"/>
<text text-anchor="middle" x="194" y="-127.6" font-family="Times,serif" font-size="14.00">FSUnitUserCreateModule</text>
</g>
<!-- FSUnitUserCreateComponent&#45;&gt;FSUnitUserCreateModule -->
<g id="edge1" class="edge">
<title>FSUnitUserCreateComponent&#45;&gt;FSUnitUserCreateModule</title>
<path fill="none" stroke="black" d="M160.45,-84.91C160.45,-84.91 160.45,-103.79 160.45,-103.79"/>
<polygon fill="black" stroke="black" points="156.95,-103.79 160.45,-113.79 163.95,-103.79 156.95,-103.79"/>
</g>
<!-- FSUnitUserCreateComponent  -->
<g id="node4" class="node">
<title>FSUnitUserCreateComponent </title>
<polygon fill="#fb8072" stroke="black" points="288.24,-214.8 99.76,-214.8 99.76,-178.8 288.24,-178.8 288.24,-214.8"/>
<text text-anchor="middle" x="194" y="-192.6" font-family="Times,serif" font-size="14.00">FSUnitUserCreateComponent </text>
</g>
<!-- FSUnitUserCreateModule&#45;&gt;FSUnitUserCreateComponent  -->
<g id="edge3" class="edge">
<title>FSUnitUserCreateModule&#45;&gt;FSUnitUserCreateComponent </title>
<path fill="none" stroke="black" stroke-dasharray="5,2" d="M194,-149.91C194,-149.91 194,-168.79 194,-168.79"/>
<polygon fill="black" stroke="black" points="190.5,-168.79 194,-178.79 197.5,-168.79 190.5,-168.79"/>
</g>
<!-- FSUserFormModule -->
<g id="node3" class="node">
<title>FSUserFormModule</title>
<polygon fill="#8dd3c7" stroke="black" points="363.88,-84.8 360.88,-88.8 339.88,-88.8 336.88,-84.8 232.12,-84.8 232.12,-48.8 363.88,-48.8 363.88,-84.8"/>
<text text-anchor="middle" x="298" y="-62.6" font-family="Times,serif" font-size="14.00">FSUserFormModule</text>
</g>
<!-- FSUserFormModule&#45;&gt;FSUnitUserCreateModule -->
<g id="edge2" class="edge">
<title>FSUserFormModule&#45;&gt;FSUnitUserCreateModule</title>
<path fill="none" stroke="black" d="M253.77,-84.91C253.77,-84.91 253.77,-103.79 253.77,-103.79"/>
<polygon fill="black" stroke="black" points="250.27,-103.79 253.77,-113.79 257.27,-103.79 250.27,-103.79"/>
</g>
</g>
</svg>
