<?xml version="1.0" encoding="UTF-8" standalone="no"?>
<!DOCTYPE svg PUBLIC "-//W3C//DTD SVG 1.1//EN"
 "http://www.w3.org/Graphics/SVG/1.1/DTD/svg11.dtd">
<!-- Generated by graphviz version 2.47.3 (20210619.1520)
 -->
<!-- Title: dependencies Pages: 1 -->
<svg width="744pt" height="358pt"
 viewBox="0.00 0.00 744.00 358.39" xmlns="http://www.w3.org/2000/svg" xmlns:xlink="http://www.w3.org/1999/xlink">
<g id="graph0" class="graph" transform="scale(1 1) rotate(0) translate(4 354.39)">
<title>dependencies</title>
<polygon fill="white" stroke="transparent" points="-4,4 -4,-354.39 740,-354.39 740,4 -4,4"/>
<text text-anchor="middle" x="368" y="-8.2" font-family="sans-serif" font-size="14.00">dependencies</text>
<g id="clust1" class="cluster">
<title>cluster_FSUnitUserCreateModule</title>
<polygon fill="none" stroke="black" stroke-dasharray="1,5" points="8,-32.8 8,-342.39 728,-342.39 728,-32.8 8,-32.8"/>
</g>
<g id="clust3" class="cluster">
<title>cluster_FSUnitUserCreateModule_FSUnitUserCreateComponent_providers</title>
<polygon fill="none" stroke="black" points="172,-40.8 172,-204.39 720,-204.39 720,-40.8 172,-40.8"/>
</g>
<g id="clust5" class="cluster">
<title>cluster_FSUnitUserCreateModule_exports</title>
<polygon fill="none" stroke="black" points="93,-282.39 93,-334.39 297,-334.39 297,-282.39 93,-282.39"/>
</g>
<g id="clust4" class="cluster">
<title>cluster_FSUnitUserCreateModule_imports</title>
<polygon fill="none" stroke="black" points="16,-152.39 16,-204.39 164,-204.39 164,-152.39 16,-152.39"/>
</g>
<!-- FSUnitUserCreateComponent -->
<g id="node1" class="node">
<title>FSUnitUserCreateComponent</title>
<polygon fill="#ffffb3" stroke="black" points="451.24,-196.39 266.76,-196.39 266.76,-160.39 451.24,-160.39 451.24,-196.39"/>
<text text-anchor="middle" x="359" y="-174.19" font-family="Times,serif" font-size="14.00">FSUnitUserCreateComponent</text>
</g>
<!-- FSUnitUserCreateModule -->
<g id="node2" class="node">
<title>FSUnitUserCreateModule</title>
<polygon fill="#8dd3c7" stroke="black" points="276.46,-261.39 273.46,-265.39 252.46,-265.39 249.46,-261.39 113.54,-261.39 113.54,-225.39 276.46,-225.39 276.46,-261.39"/>
<text text-anchor="middle" x="195" y="-239.19" font-family="Times,serif" font-size="14.00">FSUnitUserCreateModule</text>
</g>
<!-- FSUnitUserCreateComponent&#45;&gt;FSUnitUserCreateModule -->
<g id="edge1" class="edge">
<title>FSUnitUserCreateComponent&#45;&gt;FSUnitUserCreateModule</title>
<path fill="none" stroke="black" d="M271.55,-196.5C271.55,-196.5 271.55,-215.38 271.55,-215.38"/>
<polygon fill="black" stroke="black" points="268.05,-215.38 271.55,-225.38 275.05,-215.38 268.05,-215.38"/>
</g>
<!-- FSUnitUserCreateComponent  -->
<g id="node5" class="node">
<title>FSUnitUserCreateComponent </title>
<polygon fill="#fb8072" stroke="black" points="289.24,-326.39 100.76,-326.39 100.76,-290.39 289.24,-290.39 289.24,-326.39"/>
<text text-anchor="middle" x="195" y="-304.19" font-family="Times,serif" font-size="14.00">FSUnitUserCreateComponent </text>
</g>
<!-- FSUnitUserCreateModule&#45;&gt;FSUnitUserCreateComponent  -->
<g id="edge4" class="edge">
<title>FSUnitUserCreateModule&#45;&gt;FSUnitUserCreateComponent </title>
<path fill="none" stroke="black" stroke-dasharray="5,2" d="M195,-261.5C195,-261.5 195,-280.38 195,-280.38"/>
<polygon fill="black" stroke="black" points="191.5,-280.38 195,-290.38 198.5,-280.38 191.5,-280.38"/>
</g>
<!-- {
 &#160;&#160;&#160;provide: UserItemService, useExisting: UnitUserItemService,
} -->
<g id="node3" class="node">
<title>{
 &#160;&#160;&#160;provide: UserItemService, useExisting: UnitUserItemService,
}</title>
<ellipse fill="#fdb462" stroke="black" cx="446" cy="-90.1" rx="266.29" ry="41.09"/>
<text text-anchor="middle" x="446" y="-102.7" font-family="Times,serif" font-size="14.00">{</text>
<text text-anchor="middle" x="446" y="-85.9" font-family="Times,serif" font-size="14.00"> &#160;&#160;&#160;provide: UserItemService, useExisting: UnitUserItemService,</text>
<text text-anchor="middle" x="446" y="-69.1" font-family="Times,serif" font-size="14.00">}</text>
</g>
<!-- {
 &#160;&#160;&#160;provide: UserItemService, useExisting: UnitUserItemService,
}&#45;&gt;FSUnitUserCreateComponent -->
<g id="edge2" class="edge">
<title>{
 &#160;&#160;&#160;provide: UserItemService, useExisting: UnitUserItemService,
}&#45;&gt;FSUnitUserCreateComponent</title>
<path fill="none" stroke="black" d="M359,-129.34C359,-129.34 359,-150.01 359,-150.01"/>
<polygon fill="black" stroke="black" points="355.5,-150.01 359,-160.01 362.5,-150.01 355.5,-150.01"/>
</g>
<!-- FSUserFormModule -->
<g id="node4" class="node">
<title>FSUserFormModule</title>
<polygon fill="#8dd3c7" stroke="black" points="155.88,-196.39 152.88,-200.39 131.88,-200.39 128.88,-196.39 24.12,-196.39 24.12,-160.39 155.88,-160.39 155.88,-196.39"/>
<text text-anchor="middle" x="90" y="-174.19" font-family="Times,serif" font-size="14.00">FSUserFormModule</text>
</g>
<!-- FSUserFormModule&#45;&gt;FSUnitUserCreateModule -->
<g id="edge3" class="edge">
<title>FSUserFormModule&#45;&gt;FSUnitUserCreateModule</title>
<path fill="none" stroke="black" d="M134.73,-196.5C134.73,-196.5 134.73,-215.38 134.73,-215.38"/>
<polygon fill="black" stroke="black" points="131.23,-215.38 134.73,-225.38 138.23,-215.38 131.23,-215.38"/>
</g>
</g>
</svg>
