<?xml version="1.0" encoding="UTF-8" standalone="no"?>
<!DOCTYPE svg PUBLIC "-//W3C//DTD SVG 1.1//EN"
 "http://www.w3.org/Graphics/SVG/1.1/DTD/svg11.dtd">
<!-- Generated by graphviz version 2.47.3 (20210619.1520)
 -->
<!-- Title: dependencies Pages: 1 -->
<svg width="590pt" height="174pt"
 viewBox="0.00 0.00 590.00 173.80" xmlns="http://www.w3.org/2000/svg" xmlns:xlink="http://www.w3.org/1999/xlink">
<g id="graph0" class="graph" transform="scale(1 1) rotate(0) translate(4 169.8)">
<title>dependencies</title>
<polygon fill="white" stroke="transparent" points="-4,4 -4,-169.8 586,-169.8 586,4 -4,4"/>
<text text-anchor="middle" x="291" y="-8.2" font-family="sans-serif" font-size="14.00">dependencies</text>
<g id="clust1" class="cluster">
<title>cluster_FSUnitsComponentsModule</title>
<polygon fill="none" stroke="black" stroke-dasharray="1,5" points="8,-32.8 8,-157.8 574,-157.8 574,-32.8 8,-32.8"/>
</g>
<g id="clust3" class="cluster">
<title>cluster_FSUnitsComponentsModule_imports</title>
<polygon fill="none" stroke="black" points="16,-40.8 16,-92.8 566,-92.8 566,-40.8 16,-40.8"/>
</g>
<!-- FSUnitDetailsModule -->
<g id="node1" class="node">
<title>FSUnitDetailsModule</title>
<polygon fill="#8dd3c7" stroke="black" points="557.66,-84.8 554.66,-88.8 533.66,-88.8 530.66,-84.8 418.34,-84.8 418.34,-48.8 557.66,-48.8 557.66,-84.8"/>
<text text-anchor="middle" x="488" y="-62.6" font-family="Times,serif" font-size="14.00">FSUnitDetailsModule</text>
</g>
<!-- FSUnitsComponentsModule -->
<g id="node4" class="node">
<title>FSUnitsComponentsModule</title>
<polygon fill="#8dd3c7" stroke="black" points="397.22,-149.8 394.22,-153.8 373.22,-153.8 370.22,-149.8 220.78,-149.8 220.78,-113.8 397.22,-113.8 397.22,-149.8"/>
<text text-anchor="middle" x="309" y="-127.6" font-family="Times,serif" font-size="14.00">FSUnitsComponentsModule</text>
</g>
<!-- FSUnitDetailsModule&#45;&gt;FSUnitsComponentsModule -->
<g id="edge1" class="edge">
<title>FSUnitDetailsModule&#45;&gt;FSUnitsComponentsModule</title>
<path fill="none" stroke="black" d="M488,-84.91C488,-104.14 488,-131.8 488,-131.8 488,-131.8 407.19,-131.8 407.19,-131.8"/>
<polygon fill="black" stroke="black" points="407.19,-128.3 397.19,-131.8 407.19,-135.3 407.19,-128.3"/>
</g>
<!-- PotentialAssignmentsModule -->
<g id="node2" class="node">
<title>PotentialAssignmentsModule</title>
<polygon fill="#8dd3c7" stroke="black" points="399.65,-84.8 396.65,-88.8 375.65,-88.8 372.65,-84.8 218.35,-84.8 218.35,-48.8 399.65,-48.8 399.65,-84.8"/>
<text text-anchor="middle" x="309" y="-62.6" font-family="Times,serif" font-size="14.00">PotentialAssignmentsModule</text>
</g>
<!-- PotentialAssignmentsModule&#45;&gt;FSUnitsComponentsModule -->
<g id="edge2" class="edge">
<title>PotentialAssignmentsModule&#45;&gt;FSUnitsComponentsModule</title>
<path fill="none" stroke="black" d="M309,-84.91C309,-84.91 309,-103.79 309,-103.79"/>
<polygon fill="black" stroke="black" points="305.5,-103.79 309,-113.79 312.5,-103.79 305.5,-103.79"/>
</g>
<!-- ProductAssignmentsModule -->
<g id="node3" class="node">
<title>ProductAssignmentsModule</title>
<polygon fill="#8dd3c7" stroke="black" points="199.93,-84.8 196.93,-88.8 175.93,-88.8 172.93,-84.8 24.07,-84.8 24.07,-48.8 199.93,-48.8 199.93,-84.8"/>
<text text-anchor="middle" x="112" y="-62.6" font-family="Times,serif" font-size="14.00">ProductAssignmentsModule</text>
</g>
<!-- ProductAssignmentsModule&#45;&gt;FSUnitsComponentsModule -->
<g id="edge3" class="edge">
<title>ProductAssignmentsModule&#45;&gt;FSUnitsComponentsModule</title>
<path fill="none" stroke="black" d="M112,-84.91C112,-104.14 112,-131.8 112,-131.8 112,-131.8 210.87,-131.8 210.87,-131.8"/>
<polygon fill="black" stroke="black" points="210.87,-135.3 220.87,-131.8 210.87,-128.3 210.87,-135.3"/>
</g>
</g>
</svg>
