<?xml version="1.0" encoding="UTF-8" standalone="no"?>
<!DOCTYPE svg PUBLIC "-//W3C//DTD SVG 1.1//EN"
 "http://www.w3.org/Graphics/SVG/1.1/DTD/svg11.dtd">
<!-- Generated by graphviz version 2.47.3 (20210619.1520)
 -->
<!-- Title: dependencies Pages: 1 -->
<svg width="1869pt" height="174pt"
 viewBox="0.00 0.00 1869.00 173.80" xmlns="http://www.w3.org/2000/svg" xmlns:xlink="http://www.w3.org/1999/xlink">
<g id="graph0" class="graph" transform="scale(1 1) rotate(0) translate(4 169.8)">
<title>dependencies</title>
<polygon fill="white" stroke="transparent" points="-4,4 -4,-169.8 1865,-169.8 1865,4 -4,4"/>
<text text-anchor="middle" x="930.5" y="-8.2" font-family="sans-serif" font-size="14.00">dependencies</text>
<g id="clust1" class="cluster">
<title>cluster_ComparisonTableModule</title>
<polygon fill="none" stroke="black" stroke-dasharray="1,5" points="8,-32.8 8,-157.8 1853,-157.8 1853,-32.8 8,-32.8"/>
</g>
<g id="clust2" class="cluster">
<title>cluster_ComparisonTableModule_declarations</title>
<polygon fill="none" stroke="black" points="883,-40.8 883,-92.8 1845,-92.8 1845,-40.8 883,-40.8"/>
</g>
<g id="clust7" class="cluster">
<title>cluster_ComparisonTableModule_imports</title>
<polygon fill="none" stroke="black" points="745,-40.8 745,-92.8 875,-92.8 875,-40.8 745,-40.8"/>
</g>
<g id="clust10" class="cluster">
<title>cluster_ComparisonTableModule_providers</title>
<polygon fill="none" stroke="black" points="16,-40.8 16,-92.8 737,-92.8 737,-40.8 16,-40.8"/>
</g>
<!-- ComparisonTableContainerComponent -->
<g id="node1" class="node">
<title>ComparisonTableContainerComponent</title>
<polygon fill="#ffffb3" stroke="black" points="1837.35,-84.8 1600.65,-84.8 1600.65,-48.8 1837.35,-48.8 1837.35,-84.8"/>
<text text-anchor="middle" x="1719" y="-62.6" font-family="Times,serif" font-size="14.00">ComparisonTableContainerComponent</text>
</g>
<!-- ComparisonTableModule -->
<g id="node5" class="node">
<title>ComparisonTableModule</title>
<polygon fill="#8dd3c7" stroke="black" points="889.86,-149.8 886.86,-153.8 865.86,-153.8 862.86,-149.8 730.14,-149.8 730.14,-113.8 889.86,-113.8 889.86,-149.8"/>
<text text-anchor="middle" x="810" y="-127.6" font-family="Times,serif" font-size="14.00">ComparisonTableModule</text>
</g>
<!-- ComparisonTableContainerComponent&#45;&gt;ComparisonTableModule -->
<g id="edge1" class="edge">
<title>ComparisonTableContainerComponent&#45;&gt;ComparisonTableModule</title>
<path fill="none" stroke="black" d="M1719,-85.09C1719,-107.01 1719,-140.8 1719,-140.8 1719,-140.8 899.87,-140.8 899.87,-140.8"/>
<polygon fill="black" stroke="black" points="899.87,-137.3 889.87,-140.8 899.87,-144.3 899.87,-137.3"/>
</g>
<!-- ComparisonTablePanelComponent -->
<g id="node2" class="node">
<title>ComparisonTablePanelComponent</title>
<polygon fill="#ffffb3" stroke="black" points="1582.24,-84.8 1369.76,-84.8 1369.76,-48.8 1582.24,-48.8 1582.24,-84.8"/>
<text text-anchor="middle" x="1476" y="-62.6" font-family="Times,serif" font-size="14.00">ComparisonTablePanelComponent</text>
</g>
<!-- ComparisonTablePanelComponent&#45;&gt;ComparisonTableModule -->
<g id="edge2" class="edge">
<title>ComparisonTablePanelComponent&#45;&gt;ComparisonTableModule</title>
<path fill="none" stroke="black" d="M1476,-84.91C1476,-104.14 1476,-131.8 1476,-131.8 1476,-131.8 900,-131.8 900,-131.8"/>
<polygon fill="black" stroke="black" points="900,-128.3 890,-131.8 900,-135.3 900,-128.3"/>
</g>
<!-- ComparisonTablePanelItemComponent -->
<g id="node3" class="node">
<title>ComparisonTablePanelItemComponent</title>
<polygon fill="#ffffb3" stroke="black" points="1351.4,-84.8 1112.6,-84.8 1112.6,-48.8 1351.4,-48.8 1351.4,-84.8"/>
<text text-anchor="middle" x="1232" y="-62.6" font-family="Times,serif" font-size="14.00">ComparisonTablePanelItemComponent</text>
</g>
<!-- ComparisonTablePanelItemComponent&#45;&gt;ComparisonTableModule -->
<g id="edge3" class="edge">
<title>ComparisonTablePanelItemComponent&#45;&gt;ComparisonTableModule</title>
<path fill="none" stroke="black" d="M1232,-84.83C1232,-101.2 1232,-122.8 1232,-122.8 1232,-122.8 899.87,-122.8 899.87,-122.8"/>
<polygon fill="black" stroke="black" points="899.87,-119.3 889.87,-122.8 899.87,-126.3 899.87,-119.3"/>
</g>
<!-- ComparisonTableTabComponent -->
<g id="node4" class="node">
<title>ComparisonTableTabComponent</title>
<polygon fill="#ffffb3" stroke="black" points="1094.91,-84.8 891.09,-84.8 891.09,-48.8 1094.91,-48.8 1094.91,-84.8"/>
<text text-anchor="middle" x="993" y="-62.6" font-family="Times,serif" font-size="14.00">ComparisonTableTabComponent</text>
</g>
<!-- ComparisonTableTabComponent&#45;&gt;ComparisonTableModule -->
<g id="edge4" class="edge">
<title>ComparisonTableTabComponent&#45;&gt;ComparisonTableModule</title>
<path fill="none" stroke="black" d="M891.16,-66.8C883.37,-66.8 878.47,-66.8 878.47,-66.8 878.47,-66.8 878.47,-103.69 878.47,-103.69"/>
<polygon fill="black" stroke="black" points="874.97,-103.69 878.47,-113.69 881.97,-103.69 874.97,-103.69"/>
</g>
<!-- SyncPilotModule -->
<g id="node6" class="node">
<title>SyncPilotModule</title>
<polygon fill="#8dd3c7" stroke="black" points="867,-84.8 864,-88.8 843,-88.8 840,-84.8 753,-84.8 753,-48.8 867,-48.8 867,-84.8"/>
<text text-anchor="middle" x="810" y="-62.6" font-family="Times,serif" font-size="14.00">SyncPilotModule</text>
</g>
<!-- SyncPilotModule&#45;&gt;ComparisonTableModule -->
<g id="edge5" class="edge">
<title>SyncPilotModule&#45;&gt;ComparisonTableModule</title>
<path fill="none" stroke="black" d="M810,-84.91C810,-84.91 810,-103.79 810,-103.79"/>
<polygon fill="black" stroke="black" points="806.5,-103.79 810,-113.79 813.5,-103.79 806.5,-103.79"/>
</g>
<!-- ComparisonTableService -->
<g id="node7" class="node">
<title>ComparisonTableService</title>
<ellipse fill="#fdb462" stroke="black" cx="620" cy="-66.8" rx="109.37" ry="18"/>
<text text-anchor="middle" x="620" y="-62.6" font-family="Times,serif" font-size="14.00">ComparisonTableService</text>
</g>
<!-- ComparisonTableService&#45;&gt;ComparisonTableModule -->
<g id="edge6" class="edge">
<title>ComparisonTableService&#45;&gt;ComparisonTableModule</title>
<path fill="none" stroke="black" d="M729.44,-66.8C736.9,-66.8 741.53,-66.8 741.53,-66.8 741.53,-66.8 741.53,-103.69 741.53,-103.69"/>
<polygon fill="black" stroke="black" points="738.03,-103.69 741.53,-113.69 745.03,-103.69 738.03,-103.69"/>
</g>
<!-- FSCartService -->
<g id="node8" class="node">
<title>FSCartService</title>
<ellipse fill="#fdb462" stroke="black" cx="425" cy="-66.8" rx="67.21" ry="18"/>
<text text-anchor="middle" x="425" y="-62.6" font-family="Times,serif" font-size="14.00">FSCartService</text>
</g>
<!-- FSCartService&#45;&gt;ComparisonTableModule -->
<g id="edge7" class="edge">
<title>FSCartService&#45;&gt;ComparisonTableModule</title>
<path fill="none" stroke="black" d="M425,-84.83C425,-101.2 425,-122.8 425,-122.8 425,-122.8 719.76,-122.8 719.76,-122.8"/>
<polygon fill="black" stroke="black" points="719.76,-126.3 729.76,-122.8 719.76,-119.3 719.76,-126.3"/>
</g>
<!-- FSProductService -->
<g id="node9" class="node">
<title>FSProductService</title>
<ellipse fill="#fdb462" stroke="black" cx="259" cy="-66.8" rx="80.54" ry="18"/>
<text text-anchor="middle" x="259" y="-62.6" font-family="Times,serif" font-size="14.00">FSProductService</text>
</g>
<!-- FSProductService&#45;&gt;ComparisonTableModule -->
<g id="edge8" class="edge">
<title>FSProductService&#45;&gt;ComparisonTableModule</title>
<path fill="none" stroke="black" d="M259,-84.91C259,-104.14 259,-131.8 259,-131.8 259,-131.8 719.88,-131.8 719.88,-131.8"/>
<polygon fill="black" stroke="black" points="719.88,-135.3 729.88,-131.8 719.88,-128.3 719.88,-135.3"/>
</g>
<!-- PricingService -->
<g id="node10" class="node">
<title>PricingService</title>
<ellipse fill="#fdb462" stroke="black" cx="92" cy="-66.8" rx="67.77" ry="18"/>
<text text-anchor="middle" x="92" y="-62.6" font-family="Times,serif" font-size="14.00">PricingService</text>
</g>
<!-- PricingService&#45;&gt;ComparisonTableModule -->
<g id="edge9" class="edge">
<title>PricingService&#45;&gt;ComparisonTableModule</title>
<path fill="none" stroke="black" d="M92,-85.09C92,-107.01 92,-140.8 92,-140.8 92,-140.8 720.07,-140.8 720.07,-140.8"/>
<polygon fill="black" stroke="black" points="720.07,-144.3 730.07,-140.8 720.07,-137.3 720.07,-144.3"/>
</g>
</g>
</svg>
