<?xml version="1.0" encoding="UTF-8" standalone="no"?>
<!DOCTYPE svg PUBLIC "-//W3C//DTD SVG 1.1//EN"
 "http://www.w3.org/Graphics/SVG/1.1/DTD/svg11.dtd">
<!-- Generated by graphviz version 2.47.3 (20210619.1520)
 -->
<!-- Title: dependencies Pages: 1 -->
<svg width="1913pt" height="247pt"
 viewBox="0.00 0.00 1913.00 246.80" xmlns="http://www.w3.org/2000/svg" xmlns:xlink="http://www.w3.org/1999/xlink">
<g id="graph0" class="graph" transform="scale(1 1) rotate(0) translate(4 242.8)">
<title>dependencies</title>
<polygon fill="white" stroke="transparent" points="-4,4 -4,-242.8 1909,-242.8 1909,4 -4,4"/>
<text text-anchor="middle" x="952.5" y="-8.2" font-family="sans-serif" font-size="14.00">dependencies</text>
<g id="clust1" class="cluster">
<title>cluster_ComparisonTableModule</title>
<polygon fill="none" stroke="black" stroke-dasharray="1,5" points="8,-32.8 8,-230.8 1897,-230.8 1897,-32.8 8,-32.8"/>
</g>
<g id="clust2" class="cluster">
<title>cluster_ComparisonTableModule_declarations</title>
<polygon fill="none" stroke="black" points="927,-40.8 927,-92.8 1889,-92.8 1889,-40.8 927,-40.8"/>
</g>
<g id="clust7" class="cluster">
<title>cluster_ComparisonTableModule_imports</title>
<polygon fill="none" stroke="black" points="745,-40.8 745,-92.8 919,-92.8 919,-40.8 745,-40.8"/>
</g>
<g id="clust10" class="cluster">
<title>cluster_ComparisonTableModule_providers</title>
<polygon fill="none" stroke="black" points="16,-40.8 16,-92.8 737,-92.8 737,-40.8 16,-40.8"/>
</g>
<g id="clust8" class="cluster">
<title>cluster_ComparisonTableModule_exports</title>
<polygon fill="none" stroke="black" points="356,-170.8 356,-222.8 1330,-222.8 1330,-170.8 356,-170.8"/>
</g>
<!-- ComparisonTableContainerComponent -->
<g id="node1" class="node">
<title>ComparisonTableContainerComponent</title>
<polygon fill="#ffffb3" stroke="black" points="1881.35,-84.8 1644.65,-84.8 1644.65,-48.8 1881.35,-48.8 1881.35,-84.8"/>
<text text-anchor="middle" x="1763" y="-62.6" font-family="Times,serif" font-size="14.00">ComparisonTableContainerComponent</text>
</g>
<!-- ComparisonTableModule -->
<g id="node5" class="node">
<title>ComparisonTableModule</title>
<polygon fill="#8dd3c7" stroke="black" points="911.86,-149.8 908.86,-153.8 887.86,-153.8 884.86,-149.8 752.14,-149.8 752.14,-113.8 911.86,-113.8 911.86,-149.8"/>
<text text-anchor="middle" x="832" y="-127.6" font-family="Times,serif" font-size="14.00">ComparisonTableModule</text>
</g>
<!-- ComparisonTableContainerComponent&#45;&gt;ComparisonTableModule -->
<g id="edge1" class="edge">
<title>ComparisonTableContainerComponent&#45;&gt;ComparisonTableModule</title>
<path fill="none" stroke="black" d="M1763,-85.08C1763,-106.12 1763,-137.8 1763,-137.8 1763,-137.8 922.18,-137.8 922.18,-137.8"/>
<polygon fill="black" stroke="black" points="922.18,-134.3 912.18,-137.8 922.18,-141.3 922.18,-134.3"/>
</g>
<!-- ComparisonTablePanelComponent -->
<g id="node2" class="node">
<title>ComparisonTablePanelComponent</title>
<polygon fill="#ffffb3" stroke="black" points="1626.24,-84.8 1413.76,-84.8 1413.76,-48.8 1626.24,-48.8 1626.24,-84.8"/>
<text text-anchor="middle" x="1520" y="-62.6" font-family="Times,serif" font-size="14.00">ComparisonTablePanelComponent</text>
</g>
<!-- ComparisonTablePanelComponent&#45;&gt;ComparisonTableModule -->
<g id="edge2" class="edge">
<title>ComparisonTablePanelComponent&#45;&gt;ComparisonTableModule</title>
<path fill="none" stroke="black" d="M1520,-84.91C1520,-104.14 1520,-131.8 1520,-131.8 1520,-131.8 921.93,-131.8 921.93,-131.8"/>
<polygon fill="black" stroke="black" points="921.93,-128.3 911.93,-131.8 921.93,-135.3 921.93,-128.3"/>
</g>
<!-- ComparisonTablePanelItemComponent -->
<g id="node3" class="node">
<title>ComparisonTablePanelItemComponent</title>
<polygon fill="#ffffb3" stroke="black" points="1395.4,-84.8 1156.6,-84.8 1156.6,-48.8 1395.4,-48.8 1395.4,-84.8"/>
<text text-anchor="middle" x="1276" y="-62.6" font-family="Times,serif" font-size="14.00">ComparisonTablePanelItemComponent</text>
</g>
<!-- ComparisonTablePanelItemComponent&#45;&gt;ComparisonTableModule -->
<g id="edge3" class="edge">
<title>ComparisonTablePanelItemComponent&#45;&gt;ComparisonTableModule</title>
<path fill="none" stroke="black" d="M1239.49,-84.82C1239.49,-102.17 1239.49,-125.8 1239.49,-125.8 1239.49,-125.8 922.02,-125.8 922.02,-125.8"/>
<polygon fill="black" stroke="black" points="922.02,-122.3 912.02,-125.8 922.02,-129.3 922.02,-122.3"/>
</g>
<!-- ComparisonTableTabComponent -->
<g id="node4" class="node">
<title>ComparisonTableTabComponent</title>
<polygon fill="#ffffb3" stroke="black" points="1138.91,-84.8 935.09,-84.8 935.09,-48.8 1138.91,-48.8 1138.91,-84.8"/>
<text text-anchor="middle" x="1037" y="-62.6" font-family="Times,serif" font-size="14.00">ComparisonTableTabComponent</text>
</g>
<!-- ComparisonTableTabComponent&#45;&gt;ComparisonTableModule -->
<g id="edge4" class="edge">
<title>ComparisonTableTabComponent&#45;&gt;ComparisonTableModule</title>
<path fill="none" stroke="black" d="M999.71,-85.04C999.71,-100.37 999.71,-119.8 999.71,-119.8 999.71,-119.8 921.93,-119.8 921.93,-119.8"/>
<polygon fill="black" stroke="black" points="921.93,-116.3 911.93,-119.8 921.92,-123.3 921.93,-116.3"/>
</g>
<!-- ComparisonTableContainerComponent  -->
<g id="node7" class="node">
<title>ComparisonTableContainerComponent </title>
<polygon fill="#fb8072" stroke="black" points="1322.35,-214.8 1081.65,-214.8 1081.65,-178.8 1322.35,-178.8 1322.35,-214.8"/>
<text text-anchor="middle" x="1202" y="-192.6" font-family="Times,serif" font-size="14.00">ComparisonTableContainerComponent </text>
</g>
<!-- ComparisonTableModule&#45;&gt;ComparisonTableContainerComponent  -->
<g id="edge6" class="edge">
<title>ComparisonTableModule&#45;&gt;ComparisonTableContainerComponent </title>
<path fill="none" stroke="black" stroke-dasharray="5,2" d="M912.11,-143.8C994.32,-143.8 1110.26,-143.8 1110.26,-143.8 1110.26,-143.8 1110.26,-168.56 1110.26,-168.56"/>
<polygon fill="black" stroke="black" points="1106.76,-168.56 1110.26,-178.56 1113.76,-168.56 1106.76,-168.56"/>
</g>
<!-- ComparisonTablePanelComponent  -->
<g id="node8" class="node">
<title>ComparisonTablePanelComponent </title>
<polygon fill="#fb8072" stroke="black" points="1064.24,-214.8 847.76,-214.8 847.76,-178.8 1064.24,-178.8 1064.24,-214.8"/>
<text text-anchor="middle" x="956" y="-192.6" font-family="Times,serif" font-size="14.00">ComparisonTablePanelComponent </text>
</g>
<!-- ComparisonTableModule&#45;&gt;ComparisonTablePanelComponent  -->
<g id="edge7" class="edge">
<title>ComparisonTableModule&#45;&gt;ComparisonTablePanelComponent </title>
<path fill="none" stroke="black" stroke-dasharray="5,2" d="M879.9,-149.91C879.9,-149.91 879.9,-168.79 879.9,-168.79"/>
<polygon fill="black" stroke="black" points="876.4,-168.79 879.9,-178.79 883.4,-168.79 876.4,-168.79"/>
</g>
<!-- ComparisonTablePanelItemComponent  -->
<g id="node9" class="node">
<title>ComparisonTablePanelItemComponent </title>
<polygon fill="#fb8072" stroke="black" points="829.9,-214.8 588.1,-214.8 588.1,-178.8 829.9,-178.8 829.9,-214.8"/>
<text text-anchor="middle" x="709" y="-192.6" font-family="Times,serif" font-size="14.00">ComparisonTablePanelItemComponent </text>
</g>
<!-- ComparisonTableModule&#45;&gt;ComparisonTablePanelItemComponent  -->
<g id="edge8" class="edge">
<title>ComparisonTableModule&#45;&gt;ComparisonTablePanelItemComponent </title>
<path fill="none" stroke="black" stroke-dasharray="5,2" d="M791.01,-149.91C791.01,-149.91 791.01,-168.79 791.01,-168.79"/>
<polygon fill="black" stroke="black" points="787.51,-168.79 791.01,-178.79 794.51,-168.79 787.51,-168.79"/>
</g>
<!-- ComparisonTableTabComponent  -->
<g id="node10" class="node">
<title>ComparisonTableTabComponent </title>
<polygon fill="#fb8072" stroke="black" points="570.41,-214.8 363.59,-214.8 363.59,-178.8 570.41,-178.8 570.41,-214.8"/>
<text text-anchor="middle" x="467" y="-192.6" font-family="Times,serif" font-size="14.00">ComparisonTableTabComponent </text>
</g>
<!-- ComparisonTableModule&#45;&gt;ComparisonTableTabComponent  -->
<g id="edge9" class="edge">
<title>ComparisonTableModule&#45;&gt;ComparisonTableTabComponent </title>
<path fill="none" stroke="black" stroke-dasharray="5,2" d="M752,-143.8C665.74,-143.8 540.64,-143.8 540.64,-143.8 540.64,-143.8 540.64,-168.56 540.64,-168.56"/>
<polygon fill="black" stroke="black" points="537.14,-168.56 540.64,-178.56 544.14,-168.56 537.14,-168.56"/>
</g>
<!-- GenericSyncPilotModule -->
<g id="node6" class="node">
<title>GenericSyncPilotModule</title>
<polygon fill="#8dd3c7" stroke="black" points="911.3,-84.8 908.3,-88.8 887.3,-88.8 884.3,-84.8 752.7,-84.8 752.7,-48.8 911.3,-48.8 911.3,-84.8"/>
<text text-anchor="middle" x="832" y="-62.6" font-family="Times,serif" font-size="14.00">GenericSyncPilotModule</text>
</g>
<!-- GenericSyncPilotModule&#45;&gt;ComparisonTableModule -->
<g id="edge5" class="edge">
<title>GenericSyncPilotModule&#45;&gt;ComparisonTableModule</title>
<path fill="none" stroke="black" d="M832,-84.91C832,-84.91 832,-103.79 832,-103.79"/>
<polygon fill="black" stroke="black" points="828.5,-103.79 832,-113.79 835.5,-103.79 828.5,-103.79"/>
</g>
<!-- ComparisonTableService -->
<g id="node11" class="node">
<title>ComparisonTableService</title>
<ellipse fill="#fdb462" stroke="black" cx="620" cy="-66.8" rx="109.37" ry="18"/>
<text text-anchor="middle" x="620" y="-62.6" font-family="Times,serif" font-size="14.00">ComparisonTableService</text>
</g>
<!-- ComparisonTableService&#45;&gt;ComparisonTableModule -->
<g id="edge10" class="edge">
<title>ComparisonTableService&#45;&gt;ComparisonTableModule</title>
<path fill="none" stroke="black" d="M658.62,-83.86C658.62,-99.35 658.62,-119.8 658.62,-119.8 658.62,-119.8 741.91,-119.8 741.91,-119.8"/>
<polygon fill="black" stroke="black" points="741.91,-123.3 751.91,-119.8 741.91,-116.3 741.91,-123.3"/>
</g>
<!-- FSCartService -->
<g id="node12" class="node">
<title>FSCartService</title>
<ellipse fill="#fdb462" stroke="black" cx="425" cy="-66.8" rx="67.21" ry="18"/>
<text text-anchor="middle" x="425" y="-62.6" font-family="Times,serif" font-size="14.00">FSCartService</text>
</g>
<!-- FSCartService&#45;&gt;ComparisonTableModule -->
<g id="edge11" class="edge">
<title>FSCartService&#45;&gt;ComparisonTableModule</title>
<path fill="none" stroke="black" d="M427.95,-84.82C427.95,-102.17 427.95,-125.8 427.95,-125.8 427.95,-125.8 741.69,-125.8 741.69,-125.8"/>
<polygon fill="black" stroke="black" points="741.69,-129.3 751.69,-125.8 741.69,-122.3 741.69,-129.3"/>
</g>
<!-- FSProductService -->
<g id="node13" class="node">
<title>FSProductService</title>
<ellipse fill="#fdb462" stroke="black" cx="259" cy="-66.8" rx="80.54" ry="18"/>
<text text-anchor="middle" x="259" y="-62.6" font-family="Times,serif" font-size="14.00">FSProductService</text>
</g>
<!-- FSProductService&#45;&gt;ComparisonTableModule -->
<g id="edge12" class="edge">
<title>FSProductService&#45;&gt;ComparisonTableModule</title>
<path fill="none" stroke="black" d="M259,-84.91C259,-104.14 259,-131.8 259,-131.8 259,-131.8 742.03,-131.8 742.03,-131.8"/>
<polygon fill="black" stroke="black" points="742.03,-135.3 752.03,-131.8 742.03,-128.3 742.03,-135.3"/>
</g>
<!-- PricingService -->
<g id="node14" class="node">
<title>PricingService</title>
<ellipse fill="#fdb462" stroke="black" cx="92" cy="-66.8" rx="67.77" ry="18"/>
<text text-anchor="middle" x="92" y="-62.6" font-family="Times,serif" font-size="14.00">PricingService</text>
</g>
<!-- PricingService&#45;&gt;ComparisonTableModule -->
<g id="edge13" class="edge">
<title>PricingService&#45;&gt;ComparisonTableModule</title>
<path fill="none" stroke="black" d="M92,-85.08C92,-106.12 92,-137.8 92,-137.8 92,-137.8 742.1,-137.8 742.1,-137.8"/>
<polygon fill="black" stroke="black" points="742.1,-141.3 752.1,-137.8 742.1,-134.3 742.1,-141.3"/>
</g>
</g>
</svg>
