<?xml version="1.0" encoding="UTF-8" standalone="no"?>
<!DOCTYPE svg PUBLIC "-//W3C//DTD SVG 1.1//EN"
 "http://www.w3.org/Graphics/SVG/1.1/DTD/svg11.dtd">
<!-- Generated by graphviz version 2.46.0 (20210119.1425)
 -->
<!-- Title: dependencies Pages: 1 -->
<svg width="1731pt" height="211pt"
 viewBox="0.00 0.00 1731.00 211.00" xmlns="http://www.w3.org/2000/svg" xmlns:xlink="http://www.w3.org/1999/xlink">
<g id="graph0" class="graph" transform="scale(1 1) rotate(0) translate(4 207)">
<title>dependencies</title>
<polygon fill="white" stroke="transparent" points="-4,4 -4,-207 1727,-207 1727,4 -4,4"/>
<text text-anchor="start" x="840.51" y="-42.4" font-family="sans-serif" font-weight="bold" font-size="14.00">Legend</text>
<polygon fill="#ffffb3" stroke="transparent" points="627.5,-10 627.5,-30 647.5,-30 647.5,-10 627.5,-10"/>
<text text-anchor="start" x="651.13" y="-15.4" font-family="sans-serif" font-size="14.00"> &#160;Declarations</text>
<polygon fill="#8dd3c7" stroke="transparent" points="740.5,-10 740.5,-30 760.5,-30 760.5,-10 740.5,-10"/>
<text text-anchor="start" x="764.23" y="-15.4" font-family="sans-serif" font-size="14.00"> &#160;Module</text>
<polygon fill="#80b1d3" stroke="transparent" points="826.5,-10 826.5,-30 846.5,-30 846.5,-10 826.5,-10"/>
<text text-anchor="start" x="850.28" y="-15.4" font-family="sans-serif" font-size="14.00"> &#160;Bootstrap</text>
<polygon fill="#fdb462" stroke="transparent" points="923.5,-10 923.5,-30 943.5,-30 943.5,-10 923.5,-10"/>
<text text-anchor="start" x="947.17" y="-15.4" font-family="sans-serif" font-size="14.00"> &#160;Providers</text>
<polygon fill="#fb8072" stroke="transparent" points="1019.5,-10 1019.5,-30 1039.5,-30 1039.5,-10 1019.5,-10"/>
<text text-anchor="start" x="1043.23" y="-15.4" font-family="sans-serif" font-size="14.00"> &#160;Exports</text>
<g id="clust1" class="cluster">
<title>cluster_ComparisonTableModule</title>
<polygon fill="none" stroke="black" stroke-dasharray="1,5" points="8,-70 8,-195 1715,-195 1715,-70 8,-70"/>
</g>
<g id="clust2" class="cluster">
<title>cluster_ComparisonTableModule_declarations</title>
<polygon fill="none" stroke="black" points="745,-78 745,-130 1707,-130 1707,-78 745,-78"/>
</g>
<g id="clust10" class="cluster">
<title>cluster_ComparisonTableModule_providers</title>
<polygon fill="none" stroke="black" points="16,-78 16,-130 737,-130 737,-78 16,-78"/>
</g>
<!-- ComparisonTableContainerComponent -->
<g id="node1" class="node">
<title>ComparisonTableContainerComponent</title>
<polygon fill="#ffffb3" stroke="black" points="1699.35,-122 1462.65,-122 1462.65,-86 1699.35,-86 1699.35,-122"/>
<text text-anchor="middle" x="1581" y="-99.8" font-family="Times,serif" font-size="14.00">ComparisonTableContainerComponent</text>
</g>
<!-- ComparisonTableModule -->
<g id="node5" class="node">
<title>ComparisonTableModule</title>
<polygon fill="#8dd3c7" stroke="black" points="816.86,-187 813.86,-191 792.86,-191 789.86,-187 657.14,-187 657.14,-151 816.86,-151 816.86,-187"/>
<text text-anchor="middle" x="737" y="-164.8" font-family="Times,serif" font-size="14.00">ComparisonTableModule</text>
</g>
<!-- ComparisonTableContainerComponent&#45;&gt;ComparisonTableModule -->
<g id="edge1" class="edge">
<title>ComparisonTableContainerComponent&#45;&gt;ComparisonTableModule</title>
<path fill="none" stroke="black" d="M1581,-122.29C1581,-144.21 1581,-178 1581,-178 1581,-178 827.16,-178 827.16,-178"/>
<polygon fill="black" stroke="black" points="827.16,-174.5 817.16,-178 827.16,-181.5 827.16,-174.5"/>
</g>
<!-- ComparisonTablePanelComponent -->
<g id="node2" class="node">
<title>ComparisonTablePanelComponent</title>
<polygon fill="#ffffb3" stroke="black" points="1444.24,-122 1231.76,-122 1231.76,-86 1444.24,-86 1444.24,-122"/>
<text text-anchor="middle" x="1338" y="-99.8" font-family="Times,serif" font-size="14.00">ComparisonTablePanelComponent</text>
</g>
<!-- ComparisonTablePanelComponent&#45;&gt;ComparisonTableModule -->
<g id="edge2" class="edge">
<title>ComparisonTablePanelComponent&#45;&gt;ComparisonTableModule</title>
<path fill="none" stroke="black" d="M1338,-122.11C1338,-141.34 1338,-169 1338,-169 1338,-169 827.12,-169 827.12,-169"/>
<polygon fill="black" stroke="black" points="827.12,-165.5 817.12,-169 827.12,-172.5 827.12,-165.5"/>
</g>
<!-- ComparisonTablePanelItemComponent -->
<g id="node3" class="node">
<title>ComparisonTablePanelItemComponent</title>
<polygon fill="#ffffb3" stroke="black" points="1213.4,-122 974.6,-122 974.6,-86 1213.4,-86 1213.4,-122"/>
<text text-anchor="middle" x="1094" y="-99.8" font-family="Times,serif" font-size="14.00">ComparisonTablePanelItemComponent</text>
</g>
<!-- ComparisonTablePanelItemComponent&#45;&gt;ComparisonTableModule -->
<g id="edge3" class="edge">
<title>ComparisonTablePanelItemComponent&#45;&gt;ComparisonTableModule</title>
<path fill="none" stroke="black" d="M1094,-122.03C1094,-138.4 1094,-160 1094,-160 1094,-160 827.12,-160 827.12,-160"/>
<polygon fill="black" stroke="black" points="827.12,-156.5 817.12,-160 827.12,-163.5 827.12,-156.5"/>
</g>
<!-- ComparisonTableTabComponent -->
<g id="node4" class="node">
<title>ComparisonTableTabComponent</title>
<polygon fill="#ffffb3" stroke="black" points="956.91,-122 753.09,-122 753.09,-86 956.91,-86 956.91,-122"/>
<text text-anchor="middle" x="855" y="-99.8" font-family="Times,serif" font-size="14.00">ComparisonTableTabComponent</text>
</g>
<!-- ComparisonTableTabComponent&#45;&gt;ComparisonTableModule -->
<g id="edge4" class="edge">
<title>ComparisonTableTabComponent&#45;&gt;ComparisonTableModule</title>
<path fill="none" stroke="black" d="M785.11,-122.11C785.11,-122.11 785.11,-140.99 785.11,-140.99"/>
<polygon fill="black" stroke="black" points="781.61,-140.99 785.11,-150.99 788.61,-140.99 781.61,-140.99"/>
</g>
<!-- ComparisonTableService -->
<g id="node6" class="node">
<title>ComparisonTableService</title>
<ellipse fill="#fdb462" stroke="black" cx="620" cy="-104" rx="109.37" ry="18"/>
<text text-anchor="middle" x="620" y="-99.8" font-family="Times,serif" font-size="14.00">ComparisonTableService</text>
</g>
<!-- ComparisonTableService&#45;&gt;ComparisonTableModule -->
<g id="edge5" class="edge">
<title>ComparisonTableService&#45;&gt;ComparisonTableModule</title>
<path fill="none" stroke="black" d="M693.13,-117.47C693.13,-117.47 693.13,-140.86 693.13,-140.86"/>
<polygon fill="black" stroke="black" points="689.63,-140.86 693.13,-150.86 696.63,-140.86 689.63,-140.86"/>
</g>
<!-- FSCartService -->
<g id="node7" class="node">
<title>FSCartService</title>
<ellipse fill="#fdb462" stroke="black" cx="425" cy="-104" rx="67.21" ry="18"/>
<text text-anchor="middle" x="425" y="-99.8" font-family="Times,serif" font-size="14.00">FSCartService</text>
</g>
<!-- FSCartService&#45;&gt;ComparisonTableModule -->
<g id="edge6" class="edge">
<title>FSCartService&#45;&gt;ComparisonTableModule</title>
<path fill="none" stroke="black" d="M425,-122.03C425,-138.4 425,-160 425,-160 425,-160 647.06,-160 647.06,-160"/>
<polygon fill="black" stroke="black" points="647.06,-163.5 657.06,-160 647.06,-156.5 647.06,-163.5"/>
</g>
<!-- FSProductService -->
<g id="node8" class="node">
<title>FSProductService</title>
<ellipse fill="#fdb462" stroke="black" cx="259" cy="-104" rx="80.54" ry="18"/>
<text text-anchor="middle" x="259" y="-99.8" font-family="Times,serif" font-size="14.00">FSProductService</text>
</g>
<!-- FSProductService&#45;&gt;ComparisonTableModule -->
<g id="edge7" class="edge">
<title>FSProductService&#45;&gt;ComparisonTableModule</title>
<path fill="none" stroke="black" d="M259,-122.11C259,-141.34 259,-169 259,-169 259,-169 646.99,-169 646.99,-169"/>
<polygon fill="black" stroke="black" points="646.99,-172.5 656.99,-169 646.99,-165.5 646.99,-172.5"/>
</g>
<!-- PricingService -->
<g id="node9" class="node">
<title>PricingService</title>
<ellipse fill="#fdb462" stroke="black" cx="92" cy="-104" rx="67.77" ry="18"/>
<text text-anchor="middle" x="92" y="-99.8" font-family="Times,serif" font-size="14.00">PricingService</text>
</g>
<!-- PricingService&#45;&gt;ComparisonTableModule -->
<g id="edge8" class="edge">
<title>PricingService&#45;&gt;ComparisonTableModule</title>
<path fill="none" stroke="black" d="M92,-122.29C92,-144.21 92,-178 92,-178 92,-178 646.94,-178 646.94,-178"/>
<polygon fill="black" stroke="black" points="646.94,-181.5 656.94,-178 646.94,-174.5 646.94,-181.5"/>
</g>
</g>
</svg>
