<?xml version="1.0" encoding="UTF-8" standalone="no"?>
<!DOCTYPE svg PUBLIC "-//W3C//DTD SVG 1.1//EN"
 "http://www.w3.org/Graphics/SVG/1.1/DTD/svg11.dtd">
<!-- Generated by graphviz version 2.44.1 (20200629.0846)
 -->
<!-- Title: dependencies Pages: 1 -->
<svg width="1731pt" height="211pt"
 viewBox="0.00 0.00 1731.00 211.00" xmlns="http://www.w3.org/2000/svg" xmlns:xlink="http://www.w3.org/1999/xlink">
<g id="graph0" class="graph" transform="scale(1 1) rotate(0) translate(4 207)">
<title>dependencies</title>
<polygon fill="white" stroke="transparent" points="-4,4 -4,-207 1727,-207 1727,4 -4,4"/>
<text text-anchor="start" x="840.51" y="-42.4" font-family="sans-serif" font-weight="bold" font-size="14.00">Legend</text>
<polygon fill="#ffffb3" stroke="transparent" points="627.5,-10 627.5,-30 647.5,-30 647.5,-10 627.5,-10"/>
<text text-anchor="start" x="651.13" y="-15.4" font-family="sans-serif" font-size="14.00"> &#160;Declarations</text>
<polygon fill="#8dd3c7" stroke="transparent" points="740.5,-10 740.5,-30 760.5,-30 760.5,-10 740.5,-10"/>
<text text-anchor="start" x="764.23" y="-15.4" font-family="sans-serif" font-size="14.00"> &#160;Module</text>
<polygon fill="#80b1d3" stroke="transparent" points="826.5,-10 826.5,-30 846.5,-30 846.5,-10 826.5,-10"/>
<text text-anchor="start" x="850.28" y="-15.4" font-family="sans-serif" font-size="14.00"> &#160;Bootstrap</text>
<polygon fill="#fdb462" stroke="transparent" points="923.5,-10 923.5,-30 943.5,-30 943.5,-10 923.5,-10"/>
<text text-anchor="start" x="947.17" y="-15.4" font-family="sans-serif" font-size="14.00"> &#160;Providers</text>
<polygon fill="#fb8072" stroke="transparent" points="1019.5,-10 1019.5,-30 1039.5,-30 1039.5,-10 1019.5,-10"/>
<text text-anchor="start" x="1043.23" y="-15.4" font-family="sans-serif" font-size="14.00"> &#160;Exports</text>
<g id="clust1" class="cluster">
<title>cluster_ComparisonTableModule</title>
<polygon fill="none" stroke="black" stroke-dasharray="1,5" points="8,-70 8,-195 1715,-195 1715,-70 8,-70"/>
</g>
<g id="clust10" class="cluster">
<title>cluster_ComparisonTableModule_providers</title>
<polygon fill="none" stroke="black" points="986,-78 986,-130 1707,-130 1707,-78 986,-78"/>
</g>
<g id="clust2" class="cluster">
<title>cluster_ComparisonTableModule_declarations</title>
<polygon fill="none" stroke="black" points="16,-78 16,-130 978,-130 978,-78 16,-78"/>
</g>
<!-- ComparisonTableContainerComponent -->
<g id="node1" class="node">
<title>ComparisonTableContainerComponent</title>
<polygon fill="#ffffb3" stroke="black" points="970.35,-122 733.65,-122 733.65,-86 970.35,-86 970.35,-122"/>
<text text-anchor="middle" x="852" y="-99.8" font-family="Times,serif" font-size="14.00">ComparisonTableContainerComponent</text>
</g>
<!-- ComparisonTableModule -->
<g id="node5" class="node">
<title>ComparisonTableModule</title>
<polygon fill="#8dd3c7" stroke="black" points="1036.86,-187 1033.86,-191 1012.86,-191 1009.86,-187 877.14,-187 877.14,-151 1036.86,-151 1036.86,-187"/>
<text text-anchor="middle" x="957" y="-164.8" font-family="Times,serif" font-size="14.00">ComparisonTableModule</text>
</g>
<!-- ComparisonTableContainerComponent&#45;&gt;ComparisonTableModule -->
<g id="edge1" class="edge">
<title>ComparisonTableContainerComponent&#45;&gt;ComparisonTableModule</title>
<path fill="none" stroke="black" d="M923.75,-122.11C923.75,-122.11 923.75,-140.99 923.75,-140.99"/>
<polygon fill="black" stroke="black" points="920.25,-140.99 923.75,-150.99 927.25,-140.99 920.25,-140.99"/>
</g>
<!-- ComparisonTablePanelComponent -->
<g id="node2" class="node">
<title>ComparisonTablePanelComponent</title>
<polygon fill="#ffffb3" stroke="black" points="715.24,-122 502.76,-122 502.76,-86 715.24,-86 715.24,-122"/>
<text text-anchor="middle" x="609" y="-99.8" font-family="Times,serif" font-size="14.00">ComparisonTablePanelComponent</text>
</g>
<!-- ComparisonTablePanelComponent&#45;&gt;ComparisonTableModule -->
<g id="edge2" class="edge">
<title>ComparisonTablePanelComponent&#45;&gt;ComparisonTableModule</title>
<path fill="none" stroke="black" d="M609,-122.03C609,-138.4 609,-160 609,-160 609,-160 866.72,-160 866.72,-160"/>
<polygon fill="black" stroke="black" points="866.72,-163.5 876.72,-160 866.72,-156.5 866.72,-163.5"/>
</g>
<!-- ComparisonTablePanelItemComponent -->
<g id="node3" class="node">
<title>ComparisonTablePanelItemComponent</title>
<polygon fill="#ffffb3" stroke="black" points="484.4,-122 245.6,-122 245.6,-86 484.4,-86 484.4,-122"/>
<text text-anchor="middle" x="365" y="-99.8" font-family="Times,serif" font-size="14.00">ComparisonTablePanelItemComponent</text>
</g>
<!-- ComparisonTablePanelItemComponent&#45;&gt;ComparisonTableModule -->
<g id="edge3" class="edge">
<title>ComparisonTablePanelItemComponent&#45;&gt;ComparisonTableModule</title>
<path fill="none" stroke="black" d="M365,-122.11C365,-141.34 365,-169 365,-169 365,-169 866.85,-169 866.85,-169"/>
<polygon fill="black" stroke="black" points="866.85,-172.5 876.85,-169 866.85,-165.5 866.85,-172.5"/>
</g>
<!-- ComparisonTableTabComponent -->
<g id="node4" class="node">
<title>ComparisonTableTabComponent</title>
<polygon fill="#ffffb3" stroke="black" points="227.91,-122 24.09,-122 24.09,-86 227.91,-86 227.91,-122"/>
<text text-anchor="middle" x="126" y="-99.8" font-family="Times,serif" font-size="14.00">ComparisonTableTabComponent</text>
</g>
<!-- ComparisonTableTabComponent&#45;&gt;ComparisonTableModule -->
<g id="edge4" class="edge">
<title>ComparisonTableTabComponent&#45;&gt;ComparisonTableModule</title>
<path fill="none" stroke="black" d="M126,-122.29C126,-144.21 126,-178 126,-178 126,-178 866.94,-178 866.94,-178"/>
<polygon fill="black" stroke="black" points="866.94,-181.5 876.94,-178 866.94,-174.5 866.94,-181.5"/>
</g>
<!-- ComparisonTableService -->
<g id="node6" class="node">
<title>ComparisonTableService</title>
<ellipse fill="#fdb462" stroke="black" cx="1590" cy="-104" rx="109.37" ry="18"/>
<text text-anchor="middle" x="1590" y="-99.8" font-family="Times,serif" font-size="14.00">ComparisonTableService</text>
</g>
<!-- ComparisonTableService&#45;&gt;ComparisonTableModule -->
<g id="edge5" class="edge">
<title>ComparisonTableService&#45;&gt;ComparisonTableModule</title>
<path fill="none" stroke="black" d="M1590,-122.29C1590,-144.21 1590,-178 1590,-178 1590,-178 1047.17,-178 1047.17,-178"/>
<polygon fill="black" stroke="black" points="1047.17,-174.5 1037.17,-178 1047.17,-181.5 1047.17,-174.5"/>
</g>
<!-- FSCartService -->
<g id="node7" class="node">
<title>FSCartService</title>
<ellipse fill="#fdb462" stroke="black" cx="1395" cy="-104" rx="67.21" ry="18"/>
<text text-anchor="middle" x="1395" y="-99.8" font-family="Times,serif" font-size="14.00">FSCartService</text>
</g>
<!-- FSCartService&#45;&gt;ComparisonTableModule -->
<g id="edge6" class="edge">
<title>FSCartService&#45;&gt;ComparisonTableModule</title>
<path fill="none" stroke="black" d="M1395,-122.11C1395,-141.34 1395,-169 1395,-169 1395,-169 1047.08,-169 1047.08,-169"/>
<polygon fill="black" stroke="black" points="1047.08,-165.5 1037.08,-169 1047.08,-172.5 1047.08,-165.5"/>
</g>
<!-- FSProductService -->
<g id="node8" class="node">
<title>FSProductService</title>
<ellipse fill="#fdb462" stroke="black" cx="1229" cy="-104" rx="80.54" ry="18"/>
<text text-anchor="middle" x="1229" y="-99.8" font-family="Times,serif" font-size="14.00">FSProductService</text>
</g>
<!-- FSProductService&#45;&gt;ComparisonTableModule -->
<g id="edge7" class="edge">
<title>FSProductService&#45;&gt;ComparisonTableModule</title>
<path fill="none" stroke="black" d="M1229,-122.03C1229,-138.4 1229,-160 1229,-160 1229,-160 1047.14,-160 1047.14,-160"/>
<polygon fill="black" stroke="black" points="1047.14,-156.5 1037.14,-160 1047.14,-163.5 1047.14,-156.5"/>
</g>
<!-- PricingService -->
<g id="node9" class="node">
<title>PricingService</title>
<ellipse fill="#fdb462" stroke="black" cx="1062" cy="-104" rx="67.77" ry="18"/>
<text text-anchor="middle" x="1062" y="-99.8" font-family="Times,serif" font-size="14.00">PricingService</text>
</g>
<!-- PricingService&#45;&gt;ComparisonTableModule -->
<g id="edge8" class="edge">
<title>PricingService&#45;&gt;ComparisonTableModule</title>
<path fill="none" stroke="black" d="M1015.52,-117.15C1015.52,-117.15 1015.52,-140.69 1015.52,-140.69"/>
<polygon fill="black" stroke="black" points="1012.02,-140.69 1015.52,-150.69 1019.02,-140.69 1012.02,-140.69"/>
</g>
</g>
</svg>
