<?xml version="1.0" encoding="UTF-8" standalone="no"?>
<!DOCTYPE svg PUBLIC "-//W3C//DTD SVG 1.1//EN"
 "http://www.w3.org/Graphics/SVG/1.1/DTD/svg11.dtd">
<!-- Generated by graphviz version 2.44.1 (20200629.0846)
 -->
<!-- Title: dependencies Pages: 1 -->
<svg width="504pt" height="284pt"
 viewBox="0.00 0.00 504.00 284.00" xmlns="http://www.w3.org/2000/svg" xmlns:xlink="http://www.w3.org/1999/xlink">
<g id="graph0" class="graph" transform="scale(1 1) rotate(0) translate(4 280)">
<title>dependencies</title>
<polygon fill="white" stroke="transparent" points="-4,4 -4,-280 500,-280 500,4 -4,4"/>
<text text-anchor="start" x="227.01" y="-42.4" font-family="sans-serif" font-weight="bold" font-size="14.00">Legend</text>
<polygon fill="#ffffb3" stroke="transparent" points="14,-10 14,-30 34,-30 34,-10 14,-10"/>
<text text-anchor="start" x="37.63" y="-15.4" font-family="sans-serif" font-size="14.00"> &#160;Declarations</text>
<polygon fill="#8dd3c7" stroke="transparent" points="127,-10 127,-30 147,-30 147,-10 127,-10"/>
<text text-anchor="start" x="150.73" y="-15.4" font-family="sans-serif" font-size="14.00"> &#160;Module</text>
<polygon fill="#80b1d3" stroke="transparent" points="213,-10 213,-30 233,-30 233,-10 213,-10"/>
<text text-anchor="start" x="236.78" y="-15.4" font-family="sans-serif" font-size="14.00"> &#160;Bootstrap</text>
<polygon fill="#fdb462" stroke="transparent" points="310,-10 310,-30 330,-30 330,-10 310,-10"/>
<text text-anchor="start" x="333.67" y="-15.4" font-family="sans-serif" font-size="14.00"> &#160;Providers</text>
<polygon fill="#fb8072" stroke="transparent" points="406,-10 406,-30 426,-30 426,-10 406,-10"/>
<text text-anchor="start" x="429.73" y="-15.4" font-family="sans-serif" font-size="14.00"> &#160;Exports</text>
<g id="clust1" class="cluster">
<title>cluster_LegalModule</title>
<polygon fill="none" stroke="black" stroke-dasharray="1,5" points="40,-70 40,-268 456,-268 456,-70 40,-70"/>
</g>
<g id="clust6" class="cluster">
<title>cluster_LegalModule_exports</title>
<polygon fill="none" stroke="black" points="48,-208 48,-260 448,-260 448,-208 48,-208"/>
</g>
<g id="clust2" class="cluster">
<title>cluster_LegalModule_declarations</title>
<polygon fill="none" stroke="black" points="52,-78 52,-130 444,-130 444,-78 52,-78"/>
</g>
<!-- LegalCheckboxesComponent -->
<g id="node1" class="node">
<title>LegalCheckboxesComponent</title>
<polygon fill="#ffffb3" stroke="black" points="435.63,-122 254.37,-122 254.37,-86 435.63,-86 435.63,-122"/>
<text text-anchor="middle" x="345" y="-99.8" font-family="Times,serif" font-size="14.00">LegalCheckboxesComponent</text>
</g>
<!-- LegalModule -->
<g id="node3" class="node">
<title>LegalModule</title>
<polygon fill="#8dd3c7" stroke="black" points="194.92,-187 191.92,-191 170.92,-191 167.92,-187 103.08,-187 103.08,-151 194.92,-151 194.92,-187"/>
<text text-anchor="middle" x="149" y="-164.8" font-family="Times,serif" font-size="14.00">LegalModule</text>
</g>
<!-- LegalCheckboxesComponent&#45;&gt;LegalModule -->
<g id="edge1" class="edge">
<title>LegalCheckboxesComponent&#45;&gt;LegalModule</title>
<path fill="none" stroke="black" d="M375.35,-122.02C375.35,-139.37 375.35,-163 375.35,-163 375.35,-163 204.81,-163 204.81,-163"/>
<polygon fill="black" stroke="black" points="204.81,-159.5 194.81,-163 204.81,-166.5 204.81,-159.5"/>
</g>
<!-- LegalDocumentsComponent -->
<g id="node2" class="node">
<title>LegalDocumentsComponent</title>
<polygon fill="#ffffb3" stroke="black" points="236.47,-122 59.53,-122 59.53,-86 236.47,-86 236.47,-122"/>
<text text-anchor="middle" x="148" y="-99.8" font-family="Times,serif" font-size="14.00">LegalDocumentsComponent</text>
</g>
<!-- LegalDocumentsComponent&#45;&gt;LegalModule -->
<g id="edge2" class="edge">
<title>LegalDocumentsComponent&#45;&gt;LegalModule</title>
<path fill="none" stroke="black" d="M149,-122.11C149,-122.11 149,-140.99 149,-140.99"/>
<polygon fill="black" stroke="black" points="145.5,-140.99 149,-150.99 152.5,-140.99 145.5,-140.99"/>
</g>
<!-- LegalCheckboxesComponent  -->
<g id="node4" class="node">
<title>LegalCheckboxesComponent </title>
<polygon fill="#fb8072" stroke="black" points="439.63,-252 254.37,-252 254.37,-216 439.63,-216 439.63,-252"/>
<text text-anchor="middle" x="347" y="-229.8" font-family="Times,serif" font-size="14.00">LegalCheckboxesComponent </text>
</g>
<!-- LegalModule&#45;&gt;LegalCheckboxesComponent  -->
<g id="edge3" class="edge">
<title>LegalModule&#45;&gt;LegalCheckboxesComponent </title>
<path fill="none" stroke="black" stroke-dasharray="5,2" d="M194.77,-175C243.87,-175 314.9,-175 314.9,-175 314.9,-175 314.9,-205.98 314.9,-205.98"/>
<polygon fill="black" stroke="black" points="311.4,-205.98 314.9,-215.98 318.4,-205.98 311.4,-205.98"/>
</g>
<!-- LegalDocumentsComponent  -->
<g id="node5" class="node">
<title>LegalDocumentsComponent </title>
<polygon fill="#fb8072" stroke="black" points="236.47,-252 55.53,-252 55.53,-216 236.47,-216 236.47,-252"/>
<text text-anchor="middle" x="146" y="-229.8" font-family="Times,serif" font-size="14.00">LegalDocumentsComponent </text>
</g>
<!-- LegalModule&#45;&gt;LegalDocumentsComponent  -->
<g id="edge4" class="edge">
<title>LegalModule&#45;&gt;LegalDocumentsComponent </title>
<path fill="none" stroke="black" stroke-dasharray="5,2" d="M149,-187.11C149,-187.11 149,-205.99 149,-205.99"/>
<polygon fill="black" stroke="black" points="145.5,-205.99 149,-215.99 152.5,-205.99 145.5,-205.99"/>
</g>
</g>
</svg>
