<?xml version="1.0" encoding="UTF-8" standalone="no"?>
<!DOCTYPE svg PUBLIC "-//W3C//DTD SVG 1.1//EN"
 "http://www.w3.org/Graphics/SVG/1.1/DTD/svg11.dtd">
<!-- Generated by graphviz version 2.47.3 (20210619.1520)
 -->
<!-- Title: dependencies Pages: 1 -->
<svg width="440pt" height="247pt"
 viewBox="0.00 0.00 440.00 246.80" xmlns="http://www.w3.org/2000/svg" xmlns:xlink="http://www.w3.org/1999/xlink">
<g id="graph0" class="graph" transform="scale(1 1) rotate(0) translate(4 242.8)">
<title>dependencies</title>
<polygon fill="white" stroke="transparent" points="-4,4 -4,-242.8 436,-242.8 436,4 -4,4"/>
<text text-anchor="middle" x="216" y="-8.2" font-family="sans-serif" font-size="14.00">dependencies</text>
<g id="clust1" class="cluster">
<title>cluster_LegalModule</title>
<polygon fill="none" stroke="black" stroke-dasharray="1,5" points="8,-32.8 8,-230.8 424,-230.8 424,-32.8 8,-32.8"/>
</g>
<g id="clust2" class="cluster">
<title>cluster_LegalModule_declarations</title>
<polygon fill="none" stroke="black" points="20,-40.8 20,-92.8 412,-92.8 412,-40.8 20,-40.8"/>
</g>
<g id="clust6" class="cluster">
<title>cluster_LegalModule_exports</title>
<polygon fill="none" stroke="black" points="16,-170.8 16,-222.8 416,-222.8 416,-170.8 16,-170.8"/>
</g>
<!-- LegalCheckboxesComponent -->
<g id="node1" class="node">
<title>LegalCheckboxesComponent</title>
<polygon fill="#ffffb3" stroke="black" points="403.63,-84.8 222.37,-84.8 222.37,-48.8 403.63,-48.8 403.63,-84.8"/>
<text text-anchor="middle" x="313" y="-62.6" font-family="Times,serif" font-size="14.00">LegalCheckboxesComponent</text>
</g>
<!-- LegalModule -->
<g id="node3" class="node">
<title>LegalModule</title>
<polygon fill="#8dd3c7" stroke="black" points="162.92,-149.8 159.92,-153.8 138.92,-153.8 135.92,-149.8 71.08,-149.8 71.08,-113.8 162.92,-113.8 162.92,-149.8"/>
<text text-anchor="middle" x="117" y="-127.6" font-family="Times,serif" font-size="14.00">LegalModule</text>
</g>
<!-- LegalCheckboxesComponent&#45;&gt;LegalModule -->
<g id="edge1" class="edge">
<title>LegalCheckboxesComponent&#45;&gt;LegalModule</title>
<path fill="none" stroke="black" d="M343.35,-84.82C343.35,-102.17 343.35,-125.8 343.35,-125.8 343.35,-125.8 172.81,-125.8 172.81,-125.8"/>
<polygon fill="black" stroke="black" points="172.81,-122.3 162.81,-125.8 172.81,-129.3 172.81,-122.3"/>
</g>
<!-- LegalDocumentsComponent -->
<g id="node2" class="node">
<title>LegalDocumentsComponent</title>
<polygon fill="#ffffb3" stroke="black" points="204.47,-84.8 27.53,-84.8 27.53,-48.8 204.47,-48.8 204.47,-84.8"/>
<text text-anchor="middle" x="116" y="-62.6" font-family="Times,serif" font-size="14.00">LegalDocumentsComponent</text>
</g>
<!-- LegalDocumentsComponent&#45;&gt;LegalModule -->
<g id="edge2" class="edge">
<title>LegalDocumentsComponent&#45;&gt;LegalModule</title>
<path fill="none" stroke="black" d="M117,-84.91C117,-84.91 117,-103.79 117,-103.79"/>
<polygon fill="black" stroke="black" points="113.5,-103.79 117,-113.79 120.5,-103.79 113.5,-103.79"/>
</g>
<!-- LegalCheckboxesComponent  -->
<g id="node4" class="node">
<title>LegalCheckboxesComponent </title>
<polygon fill="#fb8072" stroke="black" points="407.63,-214.8 222.37,-214.8 222.37,-178.8 407.63,-178.8 407.63,-214.8"/>
<text text-anchor="middle" x="315" y="-192.6" font-family="Times,serif" font-size="14.00">LegalCheckboxesComponent </text>
</g>
<!-- LegalModule&#45;&gt;LegalCheckboxesComponent  -->
<g id="edge3" class="edge">
<title>LegalModule&#45;&gt;LegalCheckboxesComponent </title>
<path fill="none" stroke="black" stroke-dasharray="5,2" d="M162.77,-137.8C211.87,-137.8 282.9,-137.8 282.9,-137.8 282.9,-137.8 282.9,-168.78 282.9,-168.78"/>
<polygon fill="black" stroke="black" points="279.4,-168.78 282.9,-178.78 286.4,-168.78 279.4,-168.78"/>
</g>
<!-- LegalDocumentsComponent  -->
<g id="node5" class="node">
<title>LegalDocumentsComponent </title>
<polygon fill="#fb8072" stroke="black" points="204.47,-214.8 23.53,-214.8 23.53,-178.8 204.47,-178.8 204.47,-214.8"/>
<text text-anchor="middle" x="114" y="-192.6" font-family="Times,serif" font-size="14.00">LegalDocumentsComponent </text>
</g>
<!-- LegalModule&#45;&gt;LegalDocumentsComponent  -->
<g id="edge4" class="edge">
<title>LegalModule&#45;&gt;LegalDocumentsComponent </title>
<path fill="none" stroke="black" stroke-dasharray="5,2" d="M117,-149.91C117,-149.91 117,-168.79 117,-168.79"/>
<polygon fill="black" stroke="black" points="113.5,-168.79 117,-178.79 120.5,-168.79 113.5,-168.79"/>
</g>
</g>
</svg>
