<?xml version="1.0" encoding="UTF-8" standalone="no"?>
<!DOCTYPE svg PUBLIC "-//W3C//DTD SVG 1.1//EN"
 "http://www.w3.org/Graphics/SVG/1.1/DTD/svg11.dtd">
<!-- Generated by graphviz version 2.47.3 (20210619.1520)
 -->
<!-- Title: dependencies Pages: 1 -->
<svg width="350pt" height="247pt"
 viewBox="0.00 0.00 350.00 246.80" xmlns="http://www.w3.org/2000/svg" xmlns:xlink="http://www.w3.org/1999/xlink">
<g id="graph0" class="graph" transform="scale(1 1) rotate(0) translate(4 242.8)">
<title>dependencies</title>
<polygon fill="white" stroke="transparent" points="-4,4 -4,-242.8 346,-242.8 346,4 -4,4"/>
<text text-anchor="middle" x="171" y="-8.2" font-family="sans-serif" font-size="14.00">dependencies</text>
<g id="clust1" class="cluster">
<title>cluster_FSSearchBoxModule</title>
<polygon fill="none" stroke="black" stroke-dasharray="1,5" points="8,-32.8 8,-230.8 334,-230.8 334,-32.8 8,-32.8"/>
</g>
<g id="clust6" class="cluster">
<title>cluster_FSSearchBoxModule_exports</title>
<polygon fill="none" stroke="black" points="16,-170.8 16,-222.8 326,-222.8 326,-170.8 16,-170.8"/>
</g>
<g id="clust2" class="cluster">
<title>cluster_FSSearchBoxModule_declarations</title>
<polygon fill="none" stroke="black" points="20,-40.8 20,-92.8 322,-92.8 322,-40.8 20,-40.8"/>
</g>
<!-- FSHighlightPipe -->
<g id="node1" class="node">
<title>FSHighlightPipe</title>
<polygon fill="#ffffb3" stroke="black" points="314.12,-84.8 203.88,-84.8 203.88,-48.8 314.12,-48.8 314.12,-84.8"/>
<text text-anchor="middle" x="259" y="-62.6" font-family="Times,serif" font-size="14.00">FSHighlightPipe</text>
</g>
<!-- FSSearchBoxModule -->
<g id="node3" class="node">
<title>FSSearchBoxModule</title>
<polygon fill="#8dd3c7" stroke="black" points="176.04,-149.8 173.04,-153.8 152.04,-153.8 149.04,-149.8 39.96,-149.8 39.96,-113.8 176.04,-113.8 176.04,-149.8"/>
<text text-anchor="middle" x="108" y="-127.6" font-family="Times,serif" font-size="14.00">FSSearchBoxModule</text>
</g>
<!-- FSHighlightPipe&#45;&gt;FSSearchBoxModule -->
<g id="edge1" class="edge">
<title>FSHighlightPipe&#45;&gt;FSSearchBoxModule</title>
<path fill="none" stroke="black" d="M277.44,-84.82C277.44,-102.17 277.44,-125.8 277.44,-125.8 277.44,-125.8 186.43,-125.8 186.43,-125.8"/>
<polygon fill="black" stroke="black" points="186.43,-122.3 176.43,-125.8 186.43,-129.3 186.43,-122.3"/>
</g>
<!-- FSSearchBoxComponent -->
<g id="node2" class="node">
<title>FSSearchBoxComponent</title>
<polygon fill="#ffffb3" stroke="black" points="186.32,-84.8 27.68,-84.8 27.68,-48.8 186.32,-48.8 186.32,-84.8"/>
<text text-anchor="middle" x="107" y="-62.6" font-family="Times,serif" font-size="14.00">FSSearchBoxComponent</text>
</g>
<!-- FSSearchBoxComponent&#45;&gt;FSSearchBoxModule -->
<g id="edge2" class="edge">
<title>FSSearchBoxComponent&#45;&gt;FSSearchBoxModule</title>
<path fill="none" stroke="black" d="M108,-84.91C108,-84.91 108,-103.79 108,-103.79"/>
<polygon fill="black" stroke="black" points="104.5,-103.79 108,-113.79 111.5,-103.79 104.5,-103.79"/>
</g>
<!-- FSHighlightPipe  -->
<g id="node4" class="node">
<title>FSHighlightPipe </title>
<polygon fill="#fb8072" stroke="black" points="317.62,-214.8 204.38,-214.8 204.38,-178.8 317.62,-178.8 317.62,-214.8"/>
<text text-anchor="middle" x="261" y="-192.6" font-family="Times,serif" font-size="14.00">FSHighlightPipe </text>
</g>
<!-- FSSearchBoxModule&#45;&gt;FSHighlightPipe  -->
<g id="edge3" class="edge">
<title>FSSearchBoxModule&#45;&gt;FSHighlightPipe </title>
<path fill="none" stroke="black" stroke-dasharray="5,2" d="M176.35,-137.8C208.89,-137.8 240.81,-137.8 240.81,-137.8 240.81,-137.8 240.81,-168.78 240.81,-168.78"/>
<polygon fill="black" stroke="black" points="237.31,-168.78 240.81,-178.78 244.31,-168.78 237.31,-168.78"/>
</g>
<!-- FSSearchBoxComponent  -->
<g id="node5" class="node">
<title>FSSearchBoxComponent </title>
<polygon fill="#fb8072" stroke="black" points="185.82,-214.8 24.18,-214.8 24.18,-178.8 185.82,-178.8 185.82,-214.8"/>
<text text-anchor="middle" x="105" y="-192.6" font-family="Times,serif" font-size="14.00">FSSearchBoxComponent </text>
</g>
<!-- FSSearchBoxModule&#45;&gt;FSSearchBoxComponent  -->
<g id="edge4" class="edge">
<title>FSSearchBoxModule&#45;&gt;FSSearchBoxComponent </title>
<path fill="none" stroke="black" stroke-dasharray="5,2" d="M108,-149.91C108,-149.91 108,-168.79 108,-168.79"/>
<polygon fill="black" stroke="black" points="104.5,-168.79 108,-178.79 111.5,-168.79 104.5,-168.79"/>
</g>
</g>
</svg>
