<?xml version="1.0" encoding="UTF-8" standalone="no"?>
<!DOCTYPE svg PUBLIC "-//W3C//DTD SVG 1.1//EN"
 "http://www.w3.org/Graphics/SVG/1.1/DTD/svg11.dtd">
<!-- Generated by graphviz version 2.47.3 (20210619.1520)
 -->
<!-- Title: dependencies Pages: 1 -->
<svg width="873pt" height="247pt"
 viewBox="0.00 0.00 873.00 246.80" xmlns="http://www.w3.org/2000/svg" xmlns:xlink="http://www.w3.org/1999/xlink">
<g id="graph0" class="graph" transform="scale(1 1) rotate(0) translate(4 242.8)">
<title>dependencies</title>
<polygon fill="white" stroke="transparent" points="-4,4 -4,-242.8 869,-242.8 869,4 -4,4"/>
<text text-anchor="middle" x="432.5" y="-8.2" font-family="sans-serif" font-size="14.00">dependencies</text>
<g id="clust1" class="cluster">
<title>cluster_FSOrderModule</title>
<polygon fill="none" stroke="black" stroke-dasharray="1,5" points="8,-32.8 8,-230.8 857,-230.8 857,-32.8 8,-32.8"/>
</g>
<g id="clust8" class="cluster">
<title>cluster_FSOrderModule_exports</title>
<polygon fill="none" stroke="black" points="16,-170.8 16,-222.8 849,-222.8 849,-170.8 16,-170.8"/>
</g>
<g id="clust2" class="cluster">
<title>cluster_FSOrderModule_declarations</title>
<polygon fill="none" stroke="black" points="24,-40.8 24,-92.8 843,-92.8 843,-40.8 24,-40.8"/>
</g>
<!-- FSOrderDetailItemsComponent -->
<g id="node1" class="node">
<title>FSOrderDetailItemsComponent</title>
<polygon fill="#ffffb3" stroke="black" points="835.35,-84.8 640.65,-84.8 640.65,-48.8 835.35,-48.8 835.35,-84.8"/>
<text text-anchor="middle" x="738" y="-62.6" font-family="Times,serif" font-size="14.00">FSOrderDetailItemsComponent</text>
</g>
<!-- FSOrderModule -->
<g id="node5" class="node">
<title>FSOrderModule</title>
<polygon fill="#8dd3c7" stroke="black" points="375.76,-149.8 372.76,-153.8 351.76,-153.8 348.76,-149.8 268.24,-149.8 268.24,-113.8 375.76,-113.8 375.76,-149.8"/>
<text text-anchor="middle" x="322" y="-127.6" font-family="Times,serif" font-size="14.00">FSOrderModule</text>
</g>
<!-- FSOrderDetailItemsComponent&#45;&gt;FSOrderModule -->
<g id="edge1" class="edge">
<title>FSOrderDetailItemsComponent&#45;&gt;FSOrderModule</title>
<path fill="none" stroke="black" d="M771.22,-85.07C771.22,-103.36 771.22,-128.8 771.22,-128.8 771.22,-128.8 386.19,-128.8 386.19,-128.8"/>
<polygon fill="black" stroke="black" points="386.19,-125.3 376.19,-128.8 386.19,-132.3 386.19,-125.3"/>
</g>
<!-- FSOrderDetailTotalsComponent -->
<g id="node2" class="node">
<title>FSOrderDetailTotalsComponent</title>
<polygon fill="#ffffb3" stroke="black" points="622.24,-84.8 423.76,-84.8 423.76,-48.8 622.24,-48.8 622.24,-84.8"/>
<text text-anchor="middle" x="523" y="-62.6" font-family="Times,serif" font-size="14.00">FSOrderDetailTotalsComponent</text>
</g>
<!-- FSOrderDetailTotalsComponent&#45;&gt;FSOrderModule -->
<g id="edge2" class="edge">
<title>FSOrderDetailTotalsComponent&#45;&gt;FSOrderModule</title>
<path fill="none" stroke="black" d="M556.12,-84.81C556.12,-100.85 556.12,-121.8 556.12,-121.8 556.12,-121.8 386.01,-121.8 386.01,-121.8"/>
<polygon fill="black" stroke="black" points="386.01,-118.3 376.01,-121.8 386.01,-125.3 386.01,-118.3"/>
</g>
<!-- FSOrderHistoryComponent -->
<g id="node3" class="node">
<title>FSOrderHistoryComponent</title>
<polygon fill="#ffffb3" stroke="black" points="405.53,-84.8 234.47,-84.8 234.47,-48.8 405.53,-48.8 405.53,-84.8"/>
<text text-anchor="middle" x="320" y="-62.6" font-family="Times,serif" font-size="14.00">FSOrderHistoryComponent</text>
</g>
<!-- FSOrderHistoryComponent&#45;&gt;FSOrderModule -->
<g id="edge3" class="edge">
<title>FSOrderHistoryComponent&#45;&gt;FSOrderModule</title>
<path fill="none" stroke="black" d="M322,-84.91C322,-84.91 322,-103.79 322,-103.79"/>
<polygon fill="black" stroke="black" points="318.5,-103.79 322,-113.79 325.5,-103.79 318.5,-103.79"/>
</g>
<!-- FSOrderSummaryComponent -->
<g id="node4" class="node">
<title>FSOrderSummaryComponent</title>
<polygon fill="#ffffb3" stroke="black" points="215.98,-84.8 32.02,-84.8 32.02,-48.8 215.98,-48.8 215.98,-84.8"/>
<text text-anchor="middle" x="124" y="-62.6" font-family="Times,serif" font-size="14.00">FSOrderSummaryComponent</text>
</g>
<!-- FSOrderSummaryComponent&#45;&gt;FSOrderModule -->
<g id="edge4" class="edge">
<title>FSOrderSummaryComponent&#45;&gt;FSOrderModule</title>
<path fill="none" stroke="black" d="M151.83,-84.82C151.83,-102.17 151.83,-125.8 151.83,-125.8 151.83,-125.8 258.16,-125.8 258.16,-125.8"/>
<polygon fill="black" stroke="black" points="258.16,-129.3 268.16,-125.8 258.16,-122.3 258.16,-129.3"/>
</g>
<!-- FSOrderDetailItemsComponent  -->
<g id="node6" class="node">
<title>FSOrderDetailItemsComponent </title>
<polygon fill="#fb8072" stroke="black" points="841.35,-214.8 642.65,-214.8 642.65,-178.8 841.35,-178.8 841.35,-214.8"/>
<text text-anchor="middle" x="742" y="-192.6" font-family="Times,serif" font-size="14.00">FSOrderDetailItemsComponent </text>
</g>
<!-- FSOrderModule&#45;&gt;FSOrderDetailItemsComponent  -->
<g id="edge5" class="edge">
<title>FSOrderModule&#45;&gt;FSOrderDetailItemsComponent </title>
<path fill="none" stroke="black" stroke-dasharray="5,2" d="M375.94,-135.8C481.91,-135.8 707.03,-135.8 707.03,-135.8 707.03,-135.8 707.03,-168.5 707.03,-168.5"/>
<polygon fill="black" stroke="black" points="703.53,-168.5 707.03,-178.5 710.53,-168.5 703.53,-168.5"/>
</g>
<!-- FSOrderDetailTotalsComponent  -->
<g id="node7" class="node">
<title>FSOrderDetailTotalsComponent </title>
<polygon fill="#fb8072" stroke="black" points="625.24,-214.8 422.76,-214.8 422.76,-178.8 625.24,-178.8 625.24,-214.8"/>
<text text-anchor="middle" x="524" y="-192.6" font-family="Times,serif" font-size="14.00">FSOrderDetailTotalsComponent </text>
</g>
<!-- FSOrderModule&#45;&gt;FSOrderDetailTotalsComponent  -->
<g id="edge6" class="edge">
<title>FSOrderModule&#45;&gt;FSOrderDetailTotalsComponent </title>
<path fill="none" stroke="black" stroke-dasharray="5,2" d="M376.04,-142.8C425.12,-142.8 489.88,-142.8 489.88,-142.8 489.88,-142.8 489.88,-168.52 489.88,-168.52"/>
<polygon fill="black" stroke="black" points="486.38,-168.52 489.88,-178.52 493.38,-168.52 486.38,-168.52"/>
</g>
<!-- FSOrderHistoryComponent  -->
<g id="node8" class="node">
<title>FSOrderHistoryComponent </title>
<polygon fill="#fb8072" stroke="black" points="404.53,-214.8 229.47,-214.8 229.47,-178.8 404.53,-178.8 404.53,-214.8"/>
<text text-anchor="middle" x="317" y="-192.6" font-family="Times,serif" font-size="14.00">FSOrderHistoryComponent </text>
</g>
<!-- FSOrderModule&#45;&gt;FSOrderHistoryComponent  -->
<g id="edge7" class="edge">
<title>FSOrderModule&#45;&gt;FSOrderHistoryComponent </title>
<path fill="none" stroke="black" stroke-dasharray="5,2" d="M322,-149.91C322,-149.91 322,-168.79 322,-168.79"/>
<polygon fill="black" stroke="black" points="318.5,-168.79 322,-178.79 325.5,-168.79 318.5,-168.79"/>
</g>
<!-- FSOrderSummaryComponent  -->
<g id="node9" class="node">
<title>FSOrderSummaryComponent </title>
<polygon fill="#fb8072" stroke="black" points="211.98,-214.8 24.02,-214.8 24.02,-178.8 211.98,-178.8 211.98,-214.8"/>
<text text-anchor="middle" x="118" y="-192.6" font-family="Times,serif" font-size="14.00">FSOrderSummaryComponent </text>
</g>
<!-- FSOrderModule&#45;&gt;FSOrderSummaryComponent  -->
<g id="edge8" class="edge">
<title>FSOrderModule&#45;&gt;FSOrderSummaryComponent </title>
<path fill="none" stroke="black" stroke-dasharray="5,2" d="M268.06,-137.8C200.05,-137.8 91.92,-137.8 91.92,-137.8 91.92,-137.8 91.92,-168.78 91.92,-168.78"/>
<polygon fill="black" stroke="black" points="88.42,-168.78 91.92,-178.78 95.42,-168.78 88.42,-168.78"/>
</g>
</g>
</svg>
