<?xml version="1.0" encoding="UTF-8" standalone="no"?>
<!DOCTYPE svg PUBLIC "-//W3C//DTD SVG 1.1//EN"
 "http://www.w3.org/Graphics/SVG/1.1/DTD/svg11.dtd">
<!-- Generated by graphviz version 2.47.3 (20210619.1520)
 -->
<!-- Title: dependencies Pages: 1 -->
<svg width="476pt" height="247pt"
 viewBox="0.00 0.00 476.00 246.80" xmlns="http://www.w3.org/2000/svg" xmlns:xlink="http://www.w3.org/1999/xlink">
<g id="graph0" class="graph" transform="scale(1 1) rotate(0) translate(4 242.8)">
<title>dependencies</title>
<polygon fill="white" stroke="transparent" points="-4,4 -4,-242.8 472,-242.8 472,4 -4,4"/>
<text text-anchor="middle" x="234" y="-8.2" font-family="sans-serif" font-size="14.00">dependencies</text>
<g id="clust1" class="cluster">
<title>cluster_UserIdentificationModule</title>
<polygon fill="none" stroke="black" stroke-dasharray="1,5" points="8,-32.8 8,-230.8 460,-230.8 460,-32.8 8,-32.8"/>
</g>
<g id="clust2" class="cluster">
<title>cluster_UserIdentificationModule_declarations</title>
<polygon fill="none" stroke="black" points="216,-40.8 216,-92.8 452,-92.8 452,-40.8 216,-40.8"/>
</g>
<g id="clust5" class="cluster">
<title>cluster_UserIdentificationModule_exports</title>
<polygon fill="none" stroke="black" points="114,-170.8 114,-222.8 354,-222.8 354,-170.8 114,-170.8"/>
</g>
<g id="clust7" class="cluster">
<title>cluster_UserIdentificationModule_providers</title>
<polygon fill="none" stroke="black" points="16,-40.8 16,-92.8 208,-92.8 208,-40.8 16,-40.8"/>
</g>
<!-- SelectIdentificationTypeComponent -->
<g id="node1" class="node">
<title>SelectIdentificationTypeComponent</title>
<polygon fill="#ffffb3" stroke="black" points="443.73,-84.8 224.27,-84.8 224.27,-48.8 443.73,-48.8 443.73,-84.8"/>
<text text-anchor="middle" x="334" y="-62.6" font-family="Times,serif" font-size="14.00">SelectIdentificationTypeComponent</text>
</g>
<!-- UserIdentificationModule -->
<g id="node2" class="node">
<title>UserIdentificationModule</title>
<polygon fill="#8dd3c7" stroke="black" points="314.89,-149.8 311.89,-153.8 290.89,-153.8 287.89,-149.8 153.11,-149.8 153.11,-113.8 314.89,-113.8 314.89,-149.8"/>
<text text-anchor="middle" x="234" y="-127.6" font-family="Times,serif" font-size="14.00">UserIdentificationModule</text>
</g>
<!-- SelectIdentificationTypeComponent&#45;&gt;UserIdentificationModule -->
<g id="edge1" class="edge">
<title>SelectIdentificationTypeComponent&#45;&gt;UserIdentificationModule</title>
<path fill="none" stroke="black" d="M269.42,-84.91C269.42,-84.91 269.42,-103.79 269.42,-103.79"/>
<polygon fill="black" stroke="black" points="265.92,-103.79 269.42,-113.79 272.92,-103.79 265.92,-103.79"/>
</g>
<!-- SelectIdentificationTypeComponent  -->
<g id="node3" class="node">
<title>SelectIdentificationTypeComponent </title>
<polygon fill="#fb8072" stroke="black" points="345.73,-214.8 122.27,-214.8 122.27,-178.8 345.73,-178.8 345.73,-214.8"/>
<text text-anchor="middle" x="234" y="-192.6" font-family="Times,serif" font-size="14.00">SelectIdentificationTypeComponent </text>
</g>
<!-- UserIdentificationModule&#45;&gt;SelectIdentificationTypeComponent  -->
<g id="edge2" class="edge">
<title>UserIdentificationModule&#45;&gt;SelectIdentificationTypeComponent </title>
<path fill="none" stroke="black" stroke-dasharray="5,2" d="M234,-149.91C234,-149.91 234,-168.79 234,-168.79"/>
<polygon fill="black" stroke="black" points="230.5,-168.79 234,-178.79 237.5,-168.79 230.5,-168.79"/>
</g>
<!-- FSCheckoutService -->
<g id="node4" class="node">
<title>FSCheckoutService</title>
<ellipse fill="#fdb462" stroke="black" cx="112" cy="-66.8" rx="87.98" ry="18"/>
<text text-anchor="middle" x="112" y="-62.6" font-family="Times,serif" font-size="14.00">FSCheckoutService</text>
</g>
<!-- FSCheckoutService&#45;&gt;UserIdentificationModule -->
<g id="edge3" class="edge">
<title>FSCheckoutService&#45;&gt;UserIdentificationModule</title>
<path fill="none" stroke="black" d="M176.52,-79.03C176.52,-79.03 176.52,-103.48 176.52,-103.48"/>
<polygon fill="black" stroke="black" points="173.02,-103.48 176.52,-113.48 180.02,-103.48 173.02,-103.48"/>
</g>
</g>
</svg>
