<?xml version="1.0" encoding="UTF-8" standalone="no"?>
<!DOCTYPE svg PUBLIC "-//W3C//DTD SVG 1.1//EN"
 "http://www.w3.org/Graphics/SVG/1.1/DTD/svg11.dtd">
<!-- Generated by graphviz version 2.44.1 (20200629.0846)
 -->
<!-- Title: dependencies Pages: 1 -->
<svg width="504pt" height="284pt"
 viewBox="0.00 0.00 504.00 284.00" xmlns="http://www.w3.org/2000/svg" xmlns:xlink="http://www.w3.org/1999/xlink">
<g id="graph0" class="graph" transform="scale(1 1) rotate(0) translate(4 280)">
<title>dependencies</title>
<polygon fill="white" stroke="transparent" points="-4,4 -4,-280 500,-280 500,4 -4,4"/>
<text text-anchor="start" x="227.01" y="-42.4" font-family="sans-serif" font-weight="bold" font-size="14.00">Legend</text>
<polygon fill="#ffffb3" stroke="transparent" points="14,-10 14,-30 34,-30 34,-10 14,-10"/>
<text text-anchor="start" x="37.63" y="-15.4" font-family="sans-serif" font-size="14.00"> &#160;Declarations</text>
<polygon fill="#8dd3c7" stroke="transparent" points="127,-10 127,-30 147,-30 147,-10 127,-10"/>
<text text-anchor="start" x="150.73" y="-15.4" font-family="sans-serif" font-size="14.00"> &#160;Module</text>
<polygon fill="#80b1d3" stroke="transparent" points="213,-10 213,-30 233,-30 233,-10 213,-10"/>
<text text-anchor="start" x="236.78" y="-15.4" font-family="sans-serif" font-size="14.00"> &#160;Bootstrap</text>
<polygon fill="#fdb462" stroke="transparent" points="310,-10 310,-30 330,-30 330,-10 310,-10"/>
<text text-anchor="start" x="333.67" y="-15.4" font-family="sans-serif" font-size="14.00"> &#160;Providers</text>
<polygon fill="#fb8072" stroke="transparent" points="406,-10 406,-30 426,-30 426,-10 406,-10"/>
<text text-anchor="start" x="429.73" y="-15.4" font-family="sans-serif" font-size="14.00"> &#160;Exports</text>
<g id="clust1" class="cluster">
<title>cluster_QuoteModule</title>
<polygon fill="none" stroke="black" stroke-dasharray="1,5" points="12.5,-70 12.5,-268 483.5,-268 483.5,-70 12.5,-70"/>
</g>
<g id="clust7" class="cluster">
<title>cluster_QuoteModule_providers</title>
<polygon fill="none" stroke="black" points="164.5,-78 164.5,-130 475.5,-130 475.5,-78 164.5,-78"/>
</g>
<g id="clust5" class="cluster">
<title>cluster_QuoteModule_exports</title>
<polygon fill="none" stroke="black" points="166.5,-208 166.5,-260 306.5,-260 306.5,-208 166.5,-208"/>
</g>
<g id="clust2" class="cluster">
<title>cluster_QuoteModule_declarations</title>
<polygon fill="none" stroke="black" points="20.5,-78 20.5,-130 156.5,-130 156.5,-78 20.5,-78"/>
</g>
<!-- QuotesComponent -->
<g id="node1" class="node">
<title>QuotesComponent</title>
<polygon fill="#ffffb3" stroke="black" points="148.99,-122 28.01,-122 28.01,-86 148.99,-86 148.99,-122"/>
<text text-anchor="middle" x="88.5" y="-99.8" font-family="Times,serif" font-size="14.00">QuotesComponent</text>
</g>
<!-- QuoteModule -->
<g id="node2" class="node">
<title>QuoteModule</title>
<polygon fill="#8dd3c7" stroke="black" points="283.26,-187 280.26,-191 259.26,-191 256.26,-187 189.74,-187 189.74,-151 283.26,-151 283.26,-187"/>
<text text-anchor="middle" x="236.5" y="-164.8" font-family="Times,serif" font-size="14.00">QuoteModule</text>
</g>
<!-- QuotesComponent&#45;&gt;QuoteModule -->
<g id="edge1" class="edge">
<title>QuotesComponent&#45;&gt;QuoteModule</title>
<path fill="none" stroke="black" d="M88.5,-122.11C88.5,-141.34 88.5,-169 88.5,-169 88.5,-169 179.67,-169 179.67,-169"/>
<polygon fill="black" stroke="black" points="179.67,-172.5 189.67,-169 179.67,-165.5 179.67,-172.5"/>
</g>
<!-- QuotesComponent  -->
<g id="node3" class="node">
<title>QuotesComponent </title>
<polygon fill="#fb8072" stroke="black" points="298.99,-252 174.01,-252 174.01,-216 298.99,-216 298.99,-252"/>
<text text-anchor="middle" x="236.5" y="-229.8" font-family="Times,serif" font-size="14.00">QuotesComponent </text>
</g>
<!-- QuoteModule&#45;&gt;QuotesComponent  -->
<g id="edge2" class="edge">
<title>QuoteModule&#45;&gt;QuotesComponent </title>
<path fill="none" stroke="black" stroke-dasharray="5,2" d="M236.5,-187.11C236.5,-187.11 236.5,-205.99 236.5,-205.99"/>
<polygon fill="black" stroke="black" points="233,-205.99 236.5,-215.99 240,-205.99 233,-205.99"/>
</g>
<!-- QuoteConnector -->
<g id="node4" class="node">
<title>QuoteConnector</title>
<ellipse fill="#fdb462" stroke="black" cx="392.5" cy="-104" rx="74.72" ry="18"/>
<text text-anchor="middle" x="392.5" y="-99.8" font-family="Times,serif" font-size="14.00">QuoteConnector</text>
</g>
<!-- QuoteConnector&#45;&gt;QuoteModule -->
<g id="edge3" class="edge">
<title>QuoteConnector&#45;&gt;QuoteModule</title>
<path fill="none" stroke="black" d="M392.5,-122.11C392.5,-141.34 392.5,-169 392.5,-169 392.5,-169 293.31,-169 293.31,-169"/>
<polygon fill="black" stroke="black" points="293.31,-165.5 283.31,-169 293.31,-172.5 293.31,-165.5"/>
</g>
<!-- QuoteService -->
<g id="node5" class="node">
<title>QuoteService</title>
<ellipse fill="#fdb462" stroke="black" cx="236.5" cy="-104" rx="63.68" ry="18"/>
<text text-anchor="middle" x="236.5" y="-99.8" font-family="Times,serif" font-size="14.00">QuoteService</text>
</g>
<!-- QuoteService&#45;&gt;QuoteModule -->
<g id="edge4" class="edge">
<title>QuoteService&#45;&gt;QuoteModule</title>
<path fill="none" stroke="black" d="M236.5,-122.11C236.5,-122.11 236.5,-140.99 236.5,-140.99"/>
<polygon fill="black" stroke="black" points="233,-140.99 236.5,-150.99 240,-140.99 233,-140.99"/>
</g>
</g>
</svg>
