<?xml version="1.0" encoding="UTF-8" standalone="no"?>
<!DOCTYPE svg PUBLIC "-//W3C//DTD SVG 1.1//EN"
 "http://www.w3.org/Graphics/SVG/1.1/DTD/svg11.dtd">
<!-- Generated by graphviz version 2.47.3 (20210619.1520)
 -->
<!-- Title: dependencies Pages: 1 -->
<svg width="1403pt" height="247pt"
 viewBox="0.00 0.00 1403.00 246.80" xmlns="http://www.w3.org/2000/svg" xmlns:xlink="http://www.w3.org/1999/xlink">
<g id="graph0" class="graph" transform="scale(1 1) rotate(0) translate(4 242.8)">
<title>dependencies</title>
<polygon fill="white" stroke="transparent" points="-4,4 -4,-242.8 1399,-242.8 1399,4 -4,4"/>
<text text-anchor="middle" x="697.5" y="-8.2" font-family="sans-serif" font-size="14.00">dependencies</text>
<g id="clust1" class="cluster">
<title>cluster_QuoteModule</title>
<polygon fill="none" stroke="black" stroke-dasharray="1,5" points="8,-32.8 8,-230.8 1387,-230.8 1387,-32.8 8,-32.8"/>
</g>
<g id="clust2" class="cluster">
<title>cluster_QuoteModule_declarations</title>
<polygon fill="none" stroke="black" points="703,-40.8 703,-92.8 1379,-92.8 1379,-40.8 703,-40.8"/>
</g>
<g id="clust8" class="cluster">
<title>cluster_QuoteModule_exports</title>
<polygon fill="none" stroke="black" points="469,-170.8 469,-222.8 992,-222.8 992,-170.8 469,-170.8"/>
</g>
<g id="clust7" class="cluster">
<title>cluster_QuoteModule_imports</title>
<polygon fill="none" stroke="black" points="561,-40.8 561,-92.8 695,-92.8 695,-40.8 561,-40.8"/>
</g>
<g id="clust10" class="cluster">
<title>cluster_QuoteModule_providers</title>
<polygon fill="none" stroke="black" points="16,-40.8 16,-92.8 553,-92.8 553,-40.8 16,-40.8"/>
</g>
<!-- BillingEventValuePipe -->
<g id="node1" class="node">
<title>BillingEventValuePipe</title>
<polygon fill="#ffffb3" stroke="black" points="1370.87,-84.8 1225.13,-84.8 1225.13,-48.8 1370.87,-48.8 1370.87,-84.8"/>
<text text-anchor="middle" x="1298" y="-62.6" font-family="Times,serif" font-size="14.00">BillingEventValuePipe</text>
</g>
<!-- QuoteModule -->
<g id="node5" class="node">
<title>QuoteModule</title>
<polygon fill="#8dd3c7" stroke="black" points="745.76,-149.8 742.76,-153.8 721.76,-153.8 718.76,-149.8 652.24,-149.8 652.24,-113.8 745.76,-113.8 745.76,-149.8"/>
<text text-anchor="middle" x="699" y="-127.6" font-family="Times,serif" font-size="14.00">QuoteModule</text>
</g>
<!-- BillingEventValuePipe&#45;&gt;QuoteModule -->
<g id="edge1" class="edge">
<title>BillingEventValuePipe&#45;&gt;QuoteModule</title>
<path fill="none" stroke="black" d="M1298,-84.93C1298,-105.37 1298,-135.8 1298,-135.8 1298,-135.8 756,-135.8 756,-135.8"/>
<polygon fill="black" stroke="black" points="756,-132.3 746,-135.8 756,-139.3 756,-132.3"/>
</g>
<!-- QuoteComparisonComponent -->
<g id="node2" class="node">
<title>QuoteComparisonComponent</title>
<polygon fill="#ffffb3" stroke="black" points="1206.98,-84.8 1023.02,-84.8 1023.02,-48.8 1206.98,-48.8 1206.98,-84.8"/>
<text text-anchor="middle" x="1115" y="-62.6" font-family="Times,serif" font-size="14.00">QuoteComparisonComponent</text>
</g>
<!-- QuoteComparisonComponent&#45;&gt;QuoteModule -->
<g id="edge2" class="edge">
<title>QuoteComparisonComponent&#45;&gt;QuoteModule</title>
<path fill="none" stroke="black" d="M1115,-85.07C1115,-103.36 1115,-128.8 1115,-128.8 1115,-128.8 755.91,-128.8 755.91,-128.8"/>
<polygon fill="black" stroke="black" points="755.91,-125.3 745.91,-128.8 755.91,-132.3 755.91,-125.3"/>
</g>
<!-- QuoteDetailsComponent -->
<g id="node3" class="node">
<title>QuoteDetailsComponent</title>
<polygon fill="#ffffb3" stroke="black" points="1004.7,-84.8 849.3,-84.8 849.3,-48.8 1004.7,-48.8 1004.7,-84.8"/>
<text text-anchor="middle" x="927" y="-62.6" font-family="Times,serif" font-size="14.00">QuoteDetailsComponent</text>
</g>
<!-- QuoteDetailsComponent&#45;&gt;QuoteModule -->
<g id="edge3" class="edge">
<title>QuoteDetailsComponent&#45;&gt;QuoteModule</title>
<path fill="none" stroke="black" d="M916.57,-84.81C916.57,-100.85 916.57,-121.8 916.57,-121.8 916.57,-121.8 755.94,-121.8 755.94,-121.8"/>
<polygon fill="black" stroke="black" points="755.94,-118.3 745.94,-121.8 755.94,-125.3 755.94,-118.3"/>
</g>
<!-- QuotesComponent -->
<g id="node4" class="node">
<title>QuotesComponent</title>
<polygon fill="#ffffb3" stroke="black" points="831.49,-84.8 710.51,-84.8 710.51,-48.8 831.49,-48.8 831.49,-84.8"/>
<text text-anchor="middle" x="771" y="-62.6" font-family="Times,serif" font-size="14.00">QuotesComponent</text>
</g>
<!-- QuotesComponent&#45;&gt;QuoteModule -->
<g id="edge4" class="edge">
<title>QuotesComponent&#45;&gt;QuoteModule</title>
<path fill="none" stroke="black" d="M728.19,-84.91C728.19,-84.91 728.19,-103.79 728.19,-103.79"/>
<polygon fill="black" stroke="black" points="724.69,-103.79 728.19,-113.79 731.69,-103.79 724.69,-103.79"/>
</g>
<!-- QuoteComparisonComponent  -->
<g id="node7" class="node">
<title>QuoteComparisonComponent </title>
<polygon fill="#fb8072" stroke="black" points="983.98,-214.8 796.02,-214.8 796.02,-178.8 983.98,-178.8 983.98,-214.8"/>
<text text-anchor="middle" x="890" y="-192.6" font-family="Times,serif" font-size="14.00">QuoteComparisonComponent </text>
</g>
<!-- QuoteModule&#45;&gt;QuoteComparisonComponent  -->
<g id="edge6" class="edge">
<title>QuoteModule&#45;&gt;QuoteComparisonComponent </title>
<path fill="none" stroke="black" stroke-dasharray="5,2" d="M746.06,-142.8C777.78,-142.8 813.88,-142.8 813.88,-142.8 813.88,-142.8 813.88,-168.52 813.88,-168.52"/>
<polygon fill="black" stroke="black" points="810.38,-168.52 813.88,-178.52 817.38,-168.52 810.38,-168.52"/>
</g>
<!-- QuoteDetailsComponent  -->
<g id="node8" class="node">
<title>QuoteDetailsComponent </title>
<polygon fill="#fb8072" stroke="black" points="778.2,-214.8 619.8,-214.8 619.8,-178.8 778.2,-178.8 778.2,-214.8"/>
<text text-anchor="middle" x="699" y="-192.6" font-family="Times,serif" font-size="14.00">QuoteDetailsComponent </text>
</g>
<!-- QuoteModule&#45;&gt;QuoteDetailsComponent  -->
<g id="edge7" class="edge">
<title>QuoteModule&#45;&gt;QuoteDetailsComponent </title>
<path fill="none" stroke="black" stroke-dasharray="5,2" d="M699,-149.91C699,-149.91 699,-168.79 699,-168.79"/>
<polygon fill="black" stroke="black" points="695.5,-168.79 699,-178.79 702.5,-168.79 695.5,-168.79"/>
</g>
<!-- QuotesComponent  -->
<g id="node9" class="node">
<title>QuotesComponent </title>
<polygon fill="#fb8072" stroke="black" points="601.49,-214.8 476.51,-214.8 476.51,-178.8 601.49,-178.8 601.49,-214.8"/>
<text text-anchor="middle" x="539" y="-192.6" font-family="Times,serif" font-size="14.00">QuotesComponent </text>
</g>
<!-- QuoteModule&#45;&gt;QuotesComponent  -->
<g id="edge8" class="edge">
<title>QuoteModule&#45;&gt;QuotesComponent </title>
<path fill="none" stroke="black" stroke-dasharray="5,2" d="M651.96,-142.8C620.55,-142.8 584.96,-142.8 584.96,-142.8 584.96,-142.8 584.96,-168.52 584.96,-168.52"/>
<polygon fill="black" stroke="black" points="581.46,-168.52 584.96,-178.52 588.46,-168.52 581.46,-168.52"/>
</g>
<!-- AccordionModule -->
<g id="node6" class="node">
<title>AccordionModule</title>
<polygon fill="#8dd3c7" stroke="black" points="687.14,-84.8 684.14,-88.8 663.14,-88.8 660.14,-84.8 568.86,-84.8 568.86,-48.8 687.14,-48.8 687.14,-84.8"/>
<text text-anchor="middle" x="628" y="-62.6" font-family="Times,serif" font-size="14.00">AccordionModule</text>
</g>
<!-- AccordionModule&#45;&gt;QuoteModule -->
<g id="edge5" class="edge">
<title>AccordionModule&#45;&gt;QuoteModule</title>
<path fill="none" stroke="black" d="M669.72,-84.91C669.72,-84.91 669.72,-103.79 669.72,-103.79"/>
<polygon fill="black" stroke="black" points="666.22,-103.79 669.72,-113.79 673.22,-103.79 666.22,-103.79"/>
</g>
<!-- PolicyChartDataService -->
<g id="node10" class="node">
<title>PolicyChartDataService</title>
<ellipse fill="#fdb462" stroke="black" cx="441" cy="-66.8" rx="104.21" ry="18"/>
<text text-anchor="middle" x="441" y="-62.6" font-family="Times,serif" font-size="14.00">PolicyChartDataService</text>
</g>
<!-- PolicyChartDataService&#45;&gt;QuoteModule -->
<g id="edge9" class="edge">
<title>PolicyChartDataService&#45;&gt;QuoteModule</title>
<path fill="none" stroke="black" d="M511.05,-80.4C511.05,-96.68 511.05,-121.8 511.05,-121.8 511.05,-121.8 642.06,-121.8 642.06,-121.8"/>
<polygon fill="black" stroke="black" points="642.06,-125.3 652.06,-121.8 642.06,-118.3 642.06,-125.3"/>
</g>
<!-- QuoteConnector -->
<g id="node11" class="node">
<title>QuoteConnector</title>
<ellipse fill="#fdb462" stroke="black" cx="244" cy="-66.8" rx="74.72" ry="18"/>
<text text-anchor="middle" x="244" y="-62.6" font-family="Times,serif" font-size="14.00">QuoteConnector</text>
</g>
<!-- QuoteConnector&#45;&gt;QuoteModule -->
<g id="edge10" class="edge">
<title>QuoteConnector&#45;&gt;QuoteModule</title>
<path fill="none" stroke="black" d="M244,-85.07C244,-103.36 244,-128.8 244,-128.8 244,-128.8 642.02,-128.8 642.02,-128.8"/>
<polygon fill="black" stroke="black" points="642.02,-132.3 652.02,-128.8 642.02,-125.3 642.02,-132.3"/>
</g>
<!-- QuoteService -->
<g id="node12" class="node">
<title>QuoteService</title>
<ellipse fill="#fdb462" stroke="black" cx="88" cy="-66.8" rx="63.68" ry="18"/>
<text text-anchor="middle" x="88" y="-62.6" font-family="Times,serif" font-size="14.00">QuoteService</text>
</g>
<!-- QuoteService&#45;&gt;QuoteModule -->
<g id="edge11" class="edge">
<title>QuoteService&#45;&gt;QuoteModule</title>
<path fill="none" stroke="black" d="M88,-84.93C88,-105.37 88,-135.8 88,-135.8 88,-135.8 642.07,-135.8 642.07,-135.8"/>
<polygon fill="black" stroke="black" points="642.07,-139.3 652.07,-135.8 642.07,-132.3 642.07,-139.3"/>
</g>
</g>
</svg>
