<?xml version="1.0" encoding="UTF-8" standalone="no"?>
<!DOCTYPE svg PUBLIC "-//W3C//DTD SVG 1.1//EN"
 "http://www.w3.org/Graphics/SVG/1.1/DTD/svg11.dtd">
<!-- Generated by graphviz version 2.47.3 (20210619.1520)
 -->
<!-- Title: dependencies Pages: 1 -->
<svg width="287pt" height="247pt"
 viewBox="0.00 0.00 287.00 246.80" xmlns="http://www.w3.org/2000/svg" xmlns:xlink="http://www.w3.org/1999/xlink">
<g id="graph0" class="graph" transform="scale(1 1) rotate(0) translate(4 242.8)">
<title>dependencies</title>
<polygon fill="white" stroke="transparent" points="-4,4 -4,-242.8 283,-242.8 283,4 -4,4"/>
<text text-anchor="middle" x="139.5" y="-8.2" font-family="sans-serif" font-size="14.00">dependencies</text>
<g id="clust1" class="cluster">
<title>cluster_DateFormatConfigurationModule</title>
<polygon fill="none" stroke="black" stroke-dasharray="1,5" points="8,-32.8 8,-230.8 271,-230.8 271,-32.8 8,-32.8"/>
</g>
<g id="clust2" class="cluster">
<title>cluster_DateFormatConfigurationModule_declarations</title>
<polygon fill="none" stroke="black" points="19,-40.8 19,-92.8 259,-92.8 259,-40.8 19,-40.8"/>
</g>
<g id="clust6" class="cluster">
<title>cluster_DateFormatConfigurationModule_exports</title>
<polygon fill="none" stroke="black" points="16,-170.8 16,-222.8 263,-222.8 263,-170.8 16,-170.8"/>
</g>
<!-- FormatDatePipe -->
<g id="node1" class="node">
<title>FormatDatePipe</title>
<polygon fill="#ffffb3" stroke="black" points="250.75,-84.8 143.25,-84.8 143.25,-48.8 250.75,-48.8 250.75,-84.8"/>
<text text-anchor="middle" x="197" y="-62.6" font-family="Times,serif" font-size="14.00">FormatDatePipe</text>
</g>
<!-- DateFormatConfigurationModule -->
<g id="node3" class="node">
<title>DateFormatConfigurationModule</title>
<polygon fill="#8dd3c7" stroke="black" points="241.46,-149.8 238.46,-153.8 217.46,-153.8 214.46,-149.8 36.54,-149.8 36.54,-113.8 241.46,-113.8 241.46,-149.8"/>
<text text-anchor="middle" x="139" y="-127.6" font-family="Times,serif" font-size="14.00">DateFormatConfigurationModule</text>
</g>
<!-- FormatDatePipe&#45;&gt;DateFormatConfigurationModule -->
<g id="edge1" class="edge">
<title>FormatDatePipe&#45;&gt;DateFormatConfigurationModule</title>
<path fill="none" stroke="black" d="M192.3,-84.91C192.3,-84.91 192.3,-103.79 192.3,-103.79"/>
<polygon fill="black" stroke="black" points="188.8,-103.79 192.3,-113.79 195.8,-103.79 188.8,-103.79"/>
</g>
<!-- ParseDatePipe -->
<g id="node2" class="node">
<title>ParseDatePipe</title>
<polygon fill="#ffffb3" stroke="black" points="124.63,-84.8 27.37,-84.8 27.37,-48.8 124.63,-48.8 124.63,-84.8"/>
<text text-anchor="middle" x="76" y="-62.6" font-family="Times,serif" font-size="14.00">ParseDatePipe</text>
</g>
<!-- ParseDatePipe&#45;&gt;DateFormatConfigurationModule -->
<g id="edge2" class="edge">
<title>ParseDatePipe&#45;&gt;DateFormatConfigurationModule</title>
<path fill="none" stroke="black" d="M80.67,-84.91C80.67,-84.91 80.67,-103.79 80.67,-103.79"/>
<polygon fill="black" stroke="black" points="77.17,-103.79 80.67,-113.79 84.17,-103.79 77.17,-103.79"/>
</g>
<!-- FormatDatePipe  -->
<g id="node4" class="node">
<title>FormatDatePipe </title>
<polygon fill="#fb8072" stroke="black" points="254.75,-214.8 143.25,-214.8 143.25,-178.8 254.75,-178.8 254.75,-214.8"/>
<text text-anchor="middle" x="199" y="-192.6" font-family="Times,serif" font-size="14.00">FormatDatePipe </text>
</g>
<!-- DateFormatConfigurationModule&#45;&gt;FormatDatePipe  -->
<g id="edge3" class="edge">
<title>DateFormatConfigurationModule&#45;&gt;FormatDatePipe </title>
<path fill="none" stroke="black" stroke-dasharray="5,2" d="M192.43,-149.91C192.43,-149.91 192.43,-168.79 192.43,-168.79"/>
<polygon fill="black" stroke="black" points="188.93,-168.79 192.43,-178.79 195.93,-168.79 188.93,-168.79"/>
</g>
<!-- ParseDatePipe  -->
<g id="node5" class="node">
<title>ParseDatePipe </title>
<polygon fill="#fb8072" stroke="black" points="125.63,-214.8 24.37,-214.8 24.37,-178.8 125.63,-178.8 125.63,-214.8"/>
<text text-anchor="middle" x="75" y="-192.6" font-family="Times,serif" font-size="14.00">ParseDatePipe </text>
</g>
<!-- DateFormatConfigurationModule&#45;&gt;ParseDatePipe  -->
<g id="edge4" class="edge">
<title>DateFormatConfigurationModule&#45;&gt;ParseDatePipe </title>
<path fill="none" stroke="black" stroke-dasharray="5,2" d="M81.04,-149.91C81.04,-149.91 81.04,-168.79 81.04,-168.79"/>
<polygon fill="black" stroke="black" points="77.54,-168.79 81.04,-178.79 84.54,-168.79 77.54,-168.79"/>
</g>
</g>
</svg>
