<?xml version="1.0" encoding="UTF-8" standalone="no"?>
<!DOCTYPE svg PUBLIC "-//W3C//DTD SVG 1.1//EN"
 "http://www.w3.org/Graphics/SVG/1.1/DTD/svg11.dtd">
<!-- Generated by graphviz version 2.47.3 (20210619.1520)
 -->
<!-- Title: dependencies Pages: 1 -->
<svg width="204pt" height="247pt"
 viewBox="0.00 0.00 204.00 246.80" xmlns="http://www.w3.org/2000/svg" xmlns:xlink="http://www.w3.org/1999/xlink">
<g id="graph0" class="graph" transform="scale(1 1) rotate(0) translate(4 242.8)">
<title>dependencies</title>
<polygon fill="white" stroke="transparent" points="-4,4 -4,-242.8 200,-242.8 200,4 -4,4"/>
<text text-anchor="middle" x="98" y="-8.2" font-family="sans-serif" font-size="14.00">dependencies</text>
<g id="clust1" class="cluster">
<title>cluster_FSRegisterModule</title>
<polygon fill="none" stroke="black" stroke-dasharray="1,5" points="8,-32.8 8,-230.8 188,-230.8 188,-32.8 8,-32.8"/>
</g>
<g id="clust2" class="cluster">
<title>cluster_FSRegisterModule_declarations</title>
<polygon fill="none" stroke="black" points="18,-40.8 18,-92.8 178,-92.8 178,-40.8 18,-40.8"/>
</g>
<g id="clust5" class="cluster">
<title>cluster_FSRegisterModule_exports</title>
<polygon fill="none" stroke="black" points="16,-170.8 16,-222.8 180,-222.8 180,-170.8 16,-170.8"/>
</g>
<!-- FSRegisterComponent -->
<g id="node1" class="node">
<title>FSRegisterComponent</title>
<polygon fill="#ffffb3" stroke="black" points="169.55,-84.8 26.45,-84.8 26.45,-48.8 169.55,-48.8 169.55,-84.8"/>
<text text-anchor="middle" x="98" y="-62.6" font-family="Times,serif" font-size="14.00">FSRegisterComponent</text>
</g>
<!-- FSRegisterModule -->
<g id="node2" class="node">
<title>FSRegisterModule</title>
<polygon fill="#8dd3c7" stroke="black" points="158.77,-149.8 155.77,-153.8 134.77,-153.8 131.77,-149.8 37.23,-149.8 37.23,-113.8 158.77,-113.8 158.77,-149.8"/>
<text text-anchor="middle" x="98" y="-127.6" font-family="Times,serif" font-size="14.00">FSRegisterModule</text>
</g>
<!-- FSRegisterComponent&#45;&gt;FSRegisterModule -->
<g id="edge1" class="edge">
<title>FSRegisterComponent&#45;&gt;FSRegisterModule</title>
<path fill="none" stroke="black" d="M98,-84.91C98,-84.91 98,-103.79 98,-103.79"/>
<polygon fill="black" stroke="black" points="94.5,-103.79 98,-113.79 101.5,-103.79 94.5,-103.79"/>
</g>
<!-- FSRegisterComponent  -->
<g id="node3" class="node">
<title>FSRegisterComponent </title>
<polygon fill="#fb8072" stroke="black" points="171.55,-214.8 24.45,-214.8 24.45,-178.8 171.55,-178.8 171.55,-214.8"/>
<text text-anchor="middle" x="98" y="-192.6" font-family="Times,serif" font-size="14.00">FSRegisterComponent </text>
</g>
<!-- FSRegisterModule&#45;&gt;FSRegisterComponent  -->
<g id="edge2" class="edge">
<title>FSRegisterModule&#45;&gt;FSRegisterComponent </title>
<path fill="none" stroke="black" stroke-dasharray="5,2" d="M98,-149.91C98,-149.91 98,-168.79 98,-168.79"/>
<polygon fill="black" stroke="black" points="94.5,-168.79 98,-178.79 101.5,-168.79 94.5,-168.79"/>
</g>
</g>
</svg>
