<?xml version="1.0" encoding="UTF-8" standalone="no"?>
<!DOCTYPE svg PUBLIC "-//W3C//DTD SVG 1.1//EN"
 "http://www.w3.org/Graphics/SVG/1.1/DTD/svg11.dtd">
<!-- Generated by graphviz version 2.47.3 (20210619.1520)
 -->
<!-- Title: dependencies Pages: 1 -->
<svg width="2586pt" height="174pt"
 viewBox="0.00 0.00 2586.00 173.80" xmlns="http://www.w3.org/2000/svg" xmlns:xlink="http://www.w3.org/1999/xlink">
<g id="graph0" class="graph" transform="scale(1 1) rotate(0) translate(4 169.8)">
<title>dependencies</title>
<polygon fill="white" stroke="transparent" points="-4,4 -4,-169.8 2582,-169.8 2582,4 -4,4"/>
<text text-anchor="middle" x="1289" y="-8.2" font-family="sans-serif" font-size="14.00">dependencies</text>
<g id="clust1" class="cluster">
<title>cluster_OccModule</title>
<polygon fill="none" stroke="black" stroke-dasharray="1,5" points="8,-32.8 8,-157.8 2570,-157.8 2570,-32.8 8,-32.8"/>
</g>
<g id="clust3" class="cluster">
<title>cluster_OccModule_imports</title>
<polygon fill="none" stroke="black" points="228,-40.8 228,-92.8 2562,-92.8 2562,-40.8 228,-40.8"/>
</g>
<g id="clust6" class="cluster">
<title>cluster_OccModule_providers</title>
<polygon fill="none" stroke="black" points="16,-40.8 16,-92.8 220,-92.8 220,-40.8 16,-40.8"/>
</g>
<!-- AgentOccModule -->
<g id="node1" class="node">
<title>AgentOccModule</title>
<polygon fill="#8dd3c7" stroke="black" points="2554.3,-84.8 2551.3,-88.8 2530.3,-88.8 2527.3,-84.8 2437.7,-84.8 2437.7,-48.8 2554.3,-48.8 2554.3,-84.8"/>
<text text-anchor="middle" x="2496" y="-62.6" font-family="Times,serif" font-size="14.00">AgentOccModule</text>
</g>
<!-- OccModule -->
<g id="node16" class="node">
<title>OccModule</title>
<polygon fill="#8dd3c7" stroke="black" points="1375.09,-149.8 1372.09,-153.8 1351.09,-153.8 1348.09,-149.8 1292.91,-149.8 1292.91,-113.8 1375.09,-113.8 1375.09,-149.8"/>
<text text-anchor="middle" x="1334" y="-127.6" font-family="Times,serif" font-size="14.00">OccModule</text>
</g>
<!-- AgentOccModule&#45;&gt;OccModule -->
<g id="edge1" class="edge">
<title>AgentOccModule&#45;&gt;OccModule</title>
<path fill="none" stroke="black" d="M2496,-85.12C2496,-108.46 2496,-145.8 2496,-145.8 2496,-145.8 1385.36,-145.8 1385.36,-145.8"/>
<polygon fill="black" stroke="black" points="1385.36,-142.3 1375.36,-145.8 1385.36,-149.3 1385.36,-142.3"/>
</g>
<!-- BillingTimeOccModule -->
<g id="node2" class="node">
<title>BillingTimeOccModule</title>
<polygon fill="#8dd3c7" stroke="black" points="2420.03,-84.8 2417.03,-88.8 2396.03,-88.8 2393.03,-84.8 2269.97,-84.8 2269.97,-48.8 2420.03,-48.8 2420.03,-84.8"/>
<text text-anchor="middle" x="2345" y="-62.6" font-family="Times,serif" font-size="14.00">BillingTimeOccModule</text>
</g>
<!-- BillingTimeOccModule&#45;&gt;OccModule -->
<g id="edge2" class="edge">
<title>BillingTimeOccModule&#45;&gt;OccModule</title>
<path fill="none" stroke="black" d="M2345,-85.09C2345,-107.01 2345,-140.8 2345,-140.8 2345,-140.8 1385.2,-140.8 1385.2,-140.8"/>
<polygon fill="black" stroke="black" points="1385.2,-137.3 1375.2,-140.8 1385.2,-144.3 1385.2,-137.3"/>
</g>
<!-- ChangeRequestOccModule -->
<g id="node3" class="node">
<title>ChangeRequestOccModule</title>
<polygon fill="#8dd3c7" stroke="black" points="2251.95,-84.8 2248.95,-88.8 2227.95,-88.8 2224.95,-84.8 2082.05,-84.8 2082.05,-48.8 2251.95,-48.8 2251.95,-84.8"/>
<text text-anchor="middle" x="2167" y="-62.6" font-family="Times,serif" font-size="14.00">ChangeRequestOccModule</text>
</g>
<!-- ChangeRequestOccModule&#45;&gt;OccModule -->
<g id="edge3" class="edge">
<title>ChangeRequestOccModule&#45;&gt;OccModule</title>
<path fill="none" stroke="black" d="M2167,-84.83C2167,-105.57 2167,-136.8 2167,-136.8 2167,-136.8 1385.31,-136.8 1385.31,-136.8"/>
<polygon fill="black" stroke="black" points="1385.31,-133.3 1375.31,-136.8 1385.31,-140.3 1385.31,-133.3"/>
</g>
<!-- CheckoutOccModule -->
<g id="node4" class="node">
<title>CheckoutOccModule</title>
<polygon fill="#8dd3c7" stroke="black" points="2063.74,-84.8 2060.74,-88.8 2039.74,-88.8 2036.74,-84.8 1928.26,-84.8 1928.26,-48.8 2063.74,-48.8 2063.74,-84.8"/>
<text text-anchor="middle" x="1996" y="-62.6" font-family="Times,serif" font-size="14.00">CheckoutOccModule</text>
</g>
<!-- CheckoutOccModule&#45;&gt;OccModule -->
<g id="edge4" class="edge">
<title>CheckoutOccModule&#45;&gt;OccModule</title>
<path fill="none" stroke="black" d="M1996,-84.91C1996,-104.14 1996,-131.8 1996,-131.8 1996,-131.8 1385.41,-131.8 1385.41,-131.8"/>
<polygon fill="black" stroke="black" points="1385.41,-128.3 1375.41,-131.8 1385.41,-135.3 1385.41,-128.3"/>
</g>
<!-- ClaimOccModule -->
<g id="node5" class="node">
<title>ClaimOccModule</title>
<polygon fill="#8dd3c7" stroke="black" points="1910.31,-84.8 1907.31,-88.8 1886.31,-88.8 1883.31,-84.8 1793.69,-84.8 1793.69,-48.8 1910.31,-48.8 1910.31,-84.8"/>
<text text-anchor="middle" x="1852" y="-62.6" font-family="Times,serif" font-size="14.00">ClaimOccModule</text>
</g>
<!-- ClaimOccModule&#45;&gt;OccModule -->
<g id="edge5" class="edge">
<title>ClaimOccModule&#45;&gt;OccModule</title>
<path fill="none" stroke="black" d="M1852,-85.1C1852,-103.07 1852,-127.8 1852,-127.8 1852,-127.8 1385.08,-127.8 1385.08,-127.8"/>
<polygon fill="black" stroke="black" points="1385.08,-124.3 1375.08,-127.8 1385.08,-131.3 1385.08,-124.3"/>
</g>
<!-- CsTicketOccModule -->
<g id="node6" class="node">
<title>CsTicketOccModule</title>
<polygon fill="#8dd3c7" stroke="black" points="1776.13,-84.8 1773.13,-88.8 1752.13,-88.8 1749.13,-84.8 1643.87,-84.8 1643.87,-48.8 1776.13,-48.8 1776.13,-84.8"/>
<text text-anchor="middle" x="1710" y="-62.6" font-family="Times,serif" font-size="14.00">CsTicketOccModule</text>
</g>
<!-- CsTicketOccModule&#45;&gt;OccModule -->
<g id="edge6" class="edge">
<title>CsTicketOccModule&#45;&gt;OccModule</title>
<path fill="none" stroke="black" d="M1710,-84.83C1710,-101.2 1710,-122.8 1710,-122.8 1710,-122.8 1385.31,-122.8 1385.31,-122.8"/>
<polygon fill="black" stroke="black" points="1385.31,-119.3 1375.31,-122.8 1385.31,-126.3 1385.31,-119.3"/>
</g>
<!-- FSProductOccModule -->
<g id="node7" class="node">
<title>FSProductOccModule</title>
<polygon fill="#8dd3c7" stroke="black" points="1625.7,-84.8 1622.7,-88.8 1601.7,-88.8 1598.7,-84.8 1484.3,-84.8 1484.3,-48.8 1625.7,-48.8 1625.7,-84.8"/>
<text text-anchor="middle" x="1555" y="-62.6" font-family="Times,serif" font-size="14.00">FSProductOccModule</text>
</g>
<!-- FSProductOccModule&#45;&gt;OccModule -->
<g id="edge7" class="edge">
<title>FSProductOccModule&#45;&gt;OccModule</title>
<path fill="none" stroke="black" d="M1555,-84.99C1555,-99.98 1555,-118.8 1555,-118.8 1555,-118.8 1385.05,-118.8 1385.05,-118.8"/>
<polygon fill="black" stroke="black" points="1385.05,-115.3 1375.05,-118.8 1385.05,-122.3 1385.05,-115.3"/>
</g>
<!-- FSUserOccModule -->
<g id="node8" class="node">
<title>FSUserOccModule</title>
<polygon fill="#8dd3c7" stroke="black" points="1466.08,-84.8 1463.08,-88.8 1442.08,-88.8 1439.08,-84.8 1341.92,-84.8 1341.92,-48.8 1466.08,-48.8 1466.08,-84.8"/>
<text text-anchor="middle" x="1404" y="-62.6" font-family="Times,serif" font-size="14.00">FSUserOccModule</text>
</g>
<!-- FSUserOccModule&#45;&gt;OccModule -->
<g id="edge8" class="edge">
<title>FSUserOccModule&#45;&gt;OccModule</title>
<path fill="none" stroke="black" d="M1358.5,-84.91C1358.5,-84.91 1358.5,-103.79 1358.5,-103.79"/>
<polygon fill="black" stroke="black" points="1355,-103.79 1358.5,-113.79 1362,-103.79 1355,-103.79"/>
</g>
<!-- FsCartOccModule -->
<g id="node9" class="node">
<title>FsCartOccModule</title>
<polygon fill="#8dd3c7" stroke="black" points="1323.92,-84.8 1320.92,-88.8 1299.92,-88.8 1296.92,-84.8 1204.08,-84.8 1204.08,-48.8 1323.92,-48.8 1323.92,-84.8"/>
<text text-anchor="middle" x="1264" y="-62.6" font-family="Times,serif" font-size="14.00">FsCartOccModule</text>
</g>
<!-- FsCartOccModule&#45;&gt;OccModule -->
<g id="edge9" class="edge">
<title>FsCartOccModule&#45;&gt;OccModule</title>
<path fill="none" stroke="black" d="M1308.33,-84.91C1308.33,-84.91 1308.33,-103.79 1308.33,-103.79"/>
<polygon fill="black" stroke="black" points="1304.83,-103.79 1308.33,-113.79 1311.83,-103.79 1304.83,-103.79"/>
</g>
<!-- InboxOccModule -->
<g id="node10" class="node">
<title>InboxOccModule</title>
<polygon fill="#8dd3c7" stroke="black" points="1186.25,-84.8 1183.25,-88.8 1162.25,-88.8 1159.25,-84.8 1071.75,-84.8 1071.75,-48.8 1186.25,-48.8 1186.25,-84.8"/>
<text text-anchor="middle" x="1129" y="-62.6" font-family="Times,serif" font-size="14.00">InboxOccModule</text>
</g>
<!-- InboxOccModule&#45;&gt;OccModule -->
<g id="edge10" class="edge">
<title>InboxOccModule&#45;&gt;OccModule</title>
<path fill="none" stroke="black" d="M1129,-84.99C1129,-99.98 1129,-118.8 1129,-118.8 1129,-118.8 1282.52,-118.8 1282.52,-118.8"/>
<polygon fill="black" stroke="black" points="1282.52,-122.3 1292.52,-118.8 1282.52,-115.3 1282.52,-122.3"/>
</g>
<!-- PolicyOccModule -->
<g id="node11" class="node">
<title>PolicyOccModule</title>
<polygon fill="#8dd3c7" stroke="black" points="1053.86,-84.8 1050.86,-88.8 1029.86,-88.8 1026.86,-84.8 936.14,-84.8 936.14,-48.8 1053.86,-48.8 1053.86,-84.8"/>
<text text-anchor="middle" x="995" y="-62.6" font-family="Times,serif" font-size="14.00">PolicyOccModule</text>
</g>
<!-- PolicyOccModule&#45;&gt;OccModule -->
<g id="edge11" class="edge">
<title>PolicyOccModule&#45;&gt;OccModule</title>
<path fill="none" stroke="black" d="M995,-84.83C995,-101.2 995,-122.8 995,-122.8 995,-122.8 1282.77,-122.8 1282.77,-122.8"/>
<polygon fill="black" stroke="black" points="1282.77,-126.3 1292.77,-122.8 1282.77,-119.3 1282.77,-126.3"/>
</g>
<!-- ProductAssignmentOccModule -->
<g id="node12" class="node">
<title>ProductAssignmentOccModule</title>
<polygon fill="#8dd3c7" stroke="black" points="918.02,-84.8 915.02,-88.8 894.02,-88.8 891.02,-84.8 725.98,-84.8 725.98,-48.8 918.02,-48.8 918.02,-84.8"/>
<text text-anchor="middle" x="822" y="-62.6" font-family="Times,serif" font-size="14.00">ProductAssignmentOccModule</text>
</g>
<!-- ProductAssignmentOccModule&#45;&gt;OccModule -->
<g id="edge12" class="edge">
<title>ProductAssignmentOccModule&#45;&gt;OccModule</title>
<path fill="none" stroke="black" d="M822,-85.1C822,-103.07 822,-127.8 822,-127.8 822,-127.8 1282.53,-127.8 1282.53,-127.8"/>
<polygon fill="black" stroke="black" points="1282.53,-131.3 1292.53,-127.8 1282.53,-124.3 1282.53,-131.3"/>
</g>
<!-- ProductPricingOccModule -->
<g id="node13" class="node">
<title>ProductPricingOccModule</title>
<polygon fill="#8dd3c7" stroke="black" points="708.07,-84.8 705.07,-88.8 684.07,-88.8 681.07,-84.8 541.93,-84.8 541.93,-48.8 708.07,-48.8 708.07,-84.8"/>
<text text-anchor="middle" x="625" y="-62.6" font-family="Times,serif" font-size="14.00">ProductPricingOccModule</text>
</g>
<!-- ProductPricingOccModule&#45;&gt;OccModule -->
<g id="edge13" class="edge">
<title>ProductPricingOccModule&#45;&gt;OccModule</title>
<path fill="none" stroke="black" d="M625,-84.91C625,-104.14 625,-131.8 625,-131.8 625,-131.8 1282.82,-131.8 1282.82,-131.8"/>
<polygon fill="black" stroke="black" points="1282.82,-135.3 1292.82,-131.8 1282.82,-128.3 1282.82,-135.3"/>
</g>
<!-- QuoteOccModule -->
<g id="node14" class="node">
<title>QuoteOccModule</title>
<polygon fill="#8dd3c7" stroke="black" points="524.3,-84.8 521.3,-88.8 500.3,-88.8 497.3,-84.8 407.7,-84.8 407.7,-48.8 524.3,-48.8 524.3,-84.8"/>
<text text-anchor="middle" x="466" y="-62.6" font-family="Times,serif" font-size="14.00">QuoteOccModule</text>
</g>
<!-- QuoteOccModule&#45;&gt;OccModule -->
<g id="edge14" class="edge">
<title>QuoteOccModule&#45;&gt;OccModule</title>
<path fill="none" stroke="black" d="M466,-84.83C466,-105.57 466,-136.8 466,-136.8 466,-136.8 1282.72,-136.8 1282.72,-136.8"/>
<polygon fill="black" stroke="black" points="1282.72,-140.3 1292.72,-136.8 1282.72,-133.3 1282.72,-140.3"/>
</g>
<!-- UserRequestOccModule -->
<g id="node15" class="node">
<title>UserRequestOccModule</title>
<polygon fill="#8dd3c7" stroke="black" points="389.61,-84.8 386.61,-88.8 365.61,-88.8 362.61,-84.8 236.39,-84.8 236.39,-48.8 389.61,-48.8 389.61,-84.8"/>
<text text-anchor="middle" x="313" y="-62.6" font-family="Times,serif" font-size="14.00">UserRequestOccModule</text>
</g>
<!-- UserRequestOccModule&#45;&gt;OccModule -->
<g id="edge15" class="edge">
<title>UserRequestOccModule&#45;&gt;OccModule</title>
<path fill="none" stroke="black" d="M313,-85.09C313,-107.01 313,-140.8 313,-140.8 313,-140.8 1282.71,-140.8 1282.71,-140.8"/>
<polygon fill="black" stroke="black" points="1282.71,-144.3 1292.71,-140.8 1282.71,-137.3 1282.71,-144.3"/>
</g>
<!-- OccValueListService -->
<g id="node17" class="node">
<title>OccValueListService</title>
<ellipse fill="#fdb462" stroke="black" cx="118" cy="-66.8" rx="93.73" ry="18"/>
<text text-anchor="middle" x="118" y="-62.6" font-family="Times,serif" font-size="14.00">OccValueListService</text>
</g>
<!-- OccValueListService&#45;&gt;OccModule -->
<g id="edge16" class="edge">
<title>OccValueListService&#45;&gt;OccModule</title>
<path fill="none" stroke="black" d="M118,-85.12C118,-108.46 118,-145.8 118,-145.8 118,-145.8 1282.84,-145.8 1282.84,-145.8"/>
<polygon fill="black" stroke="black" points="1282.84,-149.3 1292.84,-145.8 1282.84,-142.3 1282.84,-149.3"/>
</g>
</g>
</svg>
