<?xml version="1.0" encoding="UTF-8" standalone="no"?>
<!DOCTYPE svg PUBLIC "-//W3C//DTD SVG 1.1//EN"
 "http://www.w3.org/Graphics/SVG/1.1/DTD/svg11.dtd">
<!-- Generated by graphviz version 2.46.0 (20210119.1425)
 -->
<!-- Title: dependencies Pages: 1 -->
<svg width="2426pt" height="211pt"
 viewBox="0.00 0.00 2426.00 211.00" xmlns="http://www.w3.org/2000/svg" xmlns:xlink="http://www.w3.org/1999/xlink">
<g id="graph0" class="graph" transform="scale(1 1) rotate(0) translate(4 207)">
<title>dependencies</title>
<polygon fill="white" stroke="transparent" points="-4,4 -4,-207 2422,-207 2422,4 -4,4"/>
<text text-anchor="start" x="1188.01" y="-42.4" font-family="sans-serif" font-weight="bold" font-size="14.00">Legend</text>
<polygon fill="#ffffb3" stroke="transparent" points="975,-10 975,-30 995,-30 995,-10 975,-10"/>
<text text-anchor="start" x="998.63" y="-15.4" font-family="sans-serif" font-size="14.00"> &#160;Declarations</text>
<polygon fill="#8dd3c7" stroke="transparent" points="1088,-10 1088,-30 1108,-30 1108,-10 1088,-10"/>
<text text-anchor="start" x="1111.73" y="-15.4" font-family="sans-serif" font-size="14.00"> &#160;Module</text>
<polygon fill="#80b1d3" stroke="transparent" points="1174,-10 1174,-30 1194,-30 1194,-10 1174,-10"/>
<text text-anchor="start" x="1197.78" y="-15.4" font-family="sans-serif" font-size="14.00"> &#160;Bootstrap</text>
<polygon fill="#fdb462" stroke="transparent" points="1271,-10 1271,-30 1291,-30 1291,-10 1271,-10"/>
<text text-anchor="start" x="1294.67" y="-15.4" font-family="sans-serif" font-size="14.00"> &#160;Providers</text>
<polygon fill="#fb8072" stroke="transparent" points="1367,-10 1367,-30 1387,-30 1387,-10 1367,-10"/>
<text text-anchor="start" x="1390.73" y="-15.4" font-family="sans-serif" font-size="14.00"> &#160;Exports</text>
<g id="clust1" class="cluster">
<title>cluster_OccModule</title>
<polygon fill="none" stroke="black" stroke-dasharray="1,5" points="8,-70 8,-195 2410,-195 2410,-70 8,-70"/>
</g>
<g id="clust6" class="cluster">
<title>cluster_OccModule_providers</title>
<polygon fill="none" stroke="black" points="2198,-78 2198,-130 2402,-130 2402,-78 2198,-78"/>
</g>
<g id="clust3" class="cluster">
<title>cluster_OccModule_imports</title>
<polygon fill="none" stroke="black" points="16,-78 16,-130 2190,-130 2190,-78 16,-78"/>
</g>
<!-- AgentOccModule -->
<g id="node1" class="node">
<title>AgentOccModule</title>
<polygon fill="#8dd3c7" stroke="black" points="2182.3,-122 2179.3,-126 2158.3,-126 2155.3,-122 2065.7,-122 2065.7,-86 2182.3,-86 2182.3,-122"/>
<text text-anchor="middle" x="2124" y="-99.8" font-family="Times,serif" font-size="14.00">AgentOccModule</text>
</g>
<!-- OccModule -->
<g id="node15" class="node">
<title>OccModule</title>
<polygon fill="#8dd3c7" stroke="black" points="1233.09,-187 1230.09,-191 1209.09,-191 1206.09,-187 1150.91,-187 1150.91,-151 1233.09,-151 1233.09,-187"/>
<text text-anchor="middle" x="1192" y="-164.8" font-family="Times,serif" font-size="14.00">OccModule</text>
</g>
<!-- AgentOccModule&#45;&gt;OccModule -->
<g id="edge1" class="edge">
<title>AgentOccModule&#45;&gt;OccModule</title>
<path fill="none" stroke="black" d="M2124,-122.29C2124,-144.21 2124,-178 2124,-178 2124,-178 1243.25,-178 1243.25,-178"/>
<polygon fill="black" stroke="black" points="1243.25,-174.5 1233.25,-178 1243.25,-181.5 1243.25,-174.5"/>
</g>
<!-- BillingTimeOccModule -->
<g id="node2" class="node">
<title>BillingTimeOccModule</title>
<polygon fill="#8dd3c7" stroke="black" points="2048.03,-122 2045.03,-126 2024.03,-126 2021.03,-122 1897.97,-122 1897.97,-86 2048.03,-86 2048.03,-122"/>
<text text-anchor="middle" x="1973" y="-99.8" font-family="Times,serif" font-size="14.00">BillingTimeOccModule</text>
</g>
<!-- BillingTimeOccModule&#45;&gt;OccModule -->
<g id="edge2" class="edge">
<title>BillingTimeOccModule&#45;&gt;OccModule</title>
<path fill="none" stroke="black" d="M1973,-122.03C1973,-142.77 1973,-174 1973,-174 1973,-174 1243.16,-174 1243.16,-174"/>
<polygon fill="black" stroke="black" points="1243.16,-170.5 1233.16,-174 1243.16,-177.5 1243.16,-170.5"/>
</g>
<!-- ChangeRequestOccModule -->
<g id="node3" class="node">
<title>ChangeRequestOccModule</title>
<polygon fill="#8dd3c7" stroke="black" points="1879.95,-122 1876.95,-126 1855.95,-126 1852.95,-122 1710.05,-122 1710.05,-86 1879.95,-86 1879.95,-122"/>
<text text-anchor="middle" x="1795" y="-99.8" font-family="Times,serif" font-size="14.00">ChangeRequestOccModule</text>
</g>
<!-- ChangeRequestOccModule&#45;&gt;OccModule -->
<g id="edge3" class="edge">
<title>ChangeRequestOccModule&#45;&gt;OccModule</title>
<path fill="none" stroke="black" d="M1795,-122.11C1795,-141.34 1795,-169 1795,-169 1795,-169 1243.45,-169 1243.45,-169"/>
<polygon fill="black" stroke="black" points="1243.45,-165.5 1233.45,-169 1243.45,-172.5 1243.45,-165.5"/>
</g>
<!-- CheckoutOccModule -->
<g id="node4" class="node">
<title>CheckoutOccModule</title>
<polygon fill="#8dd3c7" stroke="black" points="1691.74,-122 1688.74,-126 1667.74,-126 1664.74,-122 1556.26,-122 1556.26,-86 1691.74,-86 1691.74,-122"/>
<text text-anchor="middle" x="1624" y="-99.8" font-family="Times,serif" font-size="14.00">CheckoutOccModule</text>
</g>
<!-- CheckoutOccModule&#45;&gt;OccModule -->
<g id="edge4" class="edge">
<title>CheckoutOccModule&#45;&gt;OccModule</title>
<path fill="none" stroke="black" d="M1624,-122.3C1624,-140.27 1624,-165 1624,-165 1624,-165 1243.42,-165 1243.42,-165"/>
<polygon fill="black" stroke="black" points="1243.42,-161.5 1233.42,-165 1243.42,-168.5 1243.42,-161.5"/>
</g>
<!-- ClaimOccModule -->
<g id="node5" class="node">
<title>ClaimOccModule</title>
<polygon fill="#8dd3c7" stroke="black" points="1538.31,-122 1535.31,-126 1514.31,-126 1511.31,-122 1421.69,-122 1421.69,-86 1538.31,-86 1538.31,-122"/>
<text text-anchor="middle" x="1480" y="-99.8" font-family="Times,serif" font-size="14.00">ClaimOccModule</text>
</g>
<!-- ClaimOccModule&#45;&gt;OccModule -->
<g id="edge5" class="edge">
<title>ClaimOccModule&#45;&gt;OccModule</title>
<path fill="none" stroke="black" d="M1480,-122.03C1480,-138.4 1480,-160 1480,-160 1480,-160 1243.26,-160 1243.26,-160"/>
<polygon fill="black" stroke="black" points="1243.26,-156.5 1233.26,-160 1243.26,-163.5 1243.26,-156.5"/>
</g>
<!-- CsTicketOccModule -->
<g id="node6" class="node">
<title>CsTicketOccModule</title>
<polygon fill="#8dd3c7" stroke="black" points="1404.13,-122 1401.13,-126 1380.13,-126 1377.13,-122 1271.87,-122 1271.87,-86 1404.13,-86 1404.13,-122"/>
<text text-anchor="middle" x="1338" y="-99.8" font-family="Times,serif" font-size="14.00">CsTicketOccModule</text>
</g>
<!-- CsTicketOccModule&#45;&gt;OccModule -->
<g id="edge6" class="edge">
<title>CsTicketOccModule&#45;&gt;OccModule</title>
<path fill="none" stroke="black" d="M1338,-122.19C1338,-137.18 1338,-156 1338,-156 1338,-156 1243.06,-156 1243.06,-156"/>
<polygon fill="black" stroke="black" points="1243.06,-152.5 1233.06,-156 1243.06,-159.5 1243.06,-152.5"/>
</g>
<!-- FSUserOccModule -->
<g id="node7" class="node">
<title>FSUserOccModule</title>
<polygon fill="#8dd3c7" stroke="black" points="1254.08,-122 1251.08,-126 1230.08,-126 1227.08,-122 1129.92,-122 1129.92,-86 1254.08,-86 1254.08,-122"/>
<text text-anchor="middle" x="1192" y="-99.8" font-family="Times,serif" font-size="14.00">FSUserOccModule</text>
</g>
<!-- FSUserOccModule&#45;&gt;OccModule -->
<g id="edge7" class="edge">
<title>FSUserOccModule&#45;&gt;OccModule</title>
<path fill="none" stroke="black" d="M1192,-122.11C1192,-122.11 1192,-140.99 1192,-140.99"/>
<polygon fill="black" stroke="black" points="1188.5,-140.99 1192,-150.99 1195.5,-140.99 1188.5,-140.99"/>
</g>
<!-- FsCartOccModule -->
<g id="node8" class="node">
<title>FsCartOccModule</title>
<polygon fill="#8dd3c7" stroke="black" points="1111.92,-122 1108.92,-126 1087.92,-126 1084.92,-122 992.08,-122 992.08,-86 1111.92,-86 1111.92,-122"/>
<text text-anchor="middle" x="1052" y="-99.8" font-family="Times,serif" font-size="14.00">FsCartOccModule</text>
</g>
<!-- FsCartOccModule&#45;&gt;OccModule -->
<g id="edge8" class="edge">
<title>FsCartOccModule&#45;&gt;OccModule</title>
<path fill="none" stroke="black" d="M1052,-122.19C1052,-137.18 1052,-156 1052,-156 1052,-156 1140.75,-156 1140.75,-156"/>
<polygon fill="black" stroke="black" points="1140.75,-159.5 1150.75,-156 1140.75,-152.5 1140.75,-159.5"/>
</g>
<!-- InboxOccModule -->
<g id="node9" class="node">
<title>InboxOccModule</title>
<polygon fill="#8dd3c7" stroke="black" points="974.25,-122 971.25,-126 950.25,-126 947.25,-122 859.75,-122 859.75,-86 974.25,-86 974.25,-122"/>
<text text-anchor="middle" x="917" y="-99.8" font-family="Times,serif" font-size="14.00">InboxOccModule</text>
</g>
<!-- InboxOccModule&#45;&gt;OccModule -->
<g id="edge9" class="edge">
<title>InboxOccModule&#45;&gt;OccModule</title>
<path fill="none" stroke="black" d="M917,-122.03C917,-138.4 917,-160 917,-160 917,-160 1140.83,-160 1140.83,-160"/>
<polygon fill="black" stroke="black" points="1140.83,-163.5 1150.83,-160 1140.83,-156.5 1140.83,-163.5"/>
</g>
<!-- PolicyOccModule -->
<g id="node10" class="node">
<title>PolicyOccModule</title>
<polygon fill="#8dd3c7" stroke="black" points="841.86,-122 838.86,-126 817.86,-126 814.86,-122 724.14,-122 724.14,-86 841.86,-86 841.86,-122"/>
<text text-anchor="middle" x="783" y="-99.8" font-family="Times,serif" font-size="14.00">PolicyOccModule</text>
</g>
<!-- PolicyOccModule&#45;&gt;OccModule -->
<g id="edge10" class="edge">
<title>PolicyOccModule&#45;&gt;OccModule</title>
<path fill="none" stroke="black" d="M783,-122.3C783,-140.27 783,-165 783,-165 783,-165 1140.91,-165 1140.91,-165"/>
<polygon fill="black" stroke="black" points="1140.91,-168.5 1150.91,-165 1140.91,-161.5 1140.91,-168.5"/>
</g>
<!-- ProductAssignmentOccModule -->
<g id="node11" class="node">
<title>ProductAssignmentOccModule</title>
<polygon fill="#8dd3c7" stroke="black" points="706.02,-122 703.02,-126 682.02,-126 679.02,-122 513.98,-122 513.98,-86 706.02,-86 706.02,-122"/>
<text text-anchor="middle" x="610" y="-99.8" font-family="Times,serif" font-size="14.00">ProductAssignmentOccModule</text>
</g>
<!-- ProductAssignmentOccModule&#45;&gt;OccModule -->
<g id="edge11" class="edge">
<title>ProductAssignmentOccModule&#45;&gt;OccModule</title>
<path fill="none" stroke="black" d="M610,-122.11C610,-141.34 610,-169 610,-169 610,-169 1140.61,-169 1140.61,-169"/>
<polygon fill="black" stroke="black" points="1140.61,-172.5 1150.61,-169 1140.61,-165.5 1140.61,-172.5"/>
</g>
<!-- ProductPricingOccModule -->
<g id="node12" class="node">
<title>ProductPricingOccModule</title>
<polygon fill="#8dd3c7" stroke="black" points="496.07,-122 493.07,-126 472.07,-126 469.07,-122 329.93,-122 329.93,-86 496.07,-86 496.07,-122"/>
<text text-anchor="middle" x="413" y="-99.8" font-family="Times,serif" font-size="14.00">ProductPricingOccModule</text>
</g>
<!-- ProductPricingOccModule&#45;&gt;OccModule -->
<g id="edge12" class="edge">
<title>ProductPricingOccModule&#45;&gt;OccModule</title>
<path fill="none" stroke="black" d="M413,-122.03C413,-142.77 413,-174 413,-174 413,-174 1140.94,-174 1140.94,-174"/>
<polygon fill="black" stroke="black" points="1140.94,-177.5 1150.94,-174 1140.94,-170.5 1140.94,-177.5"/>
</g>
<!-- QuoteOccModule -->
<g id="node13" class="node">
<title>QuoteOccModule</title>
<polygon fill="#8dd3c7" stroke="black" points="312.3,-122 309.3,-126 288.3,-126 285.3,-122 195.7,-122 195.7,-86 312.3,-86 312.3,-122"/>
<text text-anchor="middle" x="254" y="-99.8" font-family="Times,serif" font-size="14.00">QuoteOccModule</text>
</g>
<!-- QuoteOccModule&#45;&gt;OccModule -->
<g id="edge13" class="edge">
<title>QuoteOccModule&#45;&gt;OccModule</title>
<path fill="none" stroke="black" d="M254,-122.29C254,-144.21 254,-178 254,-178 254,-178 1140.79,-178 1140.79,-178"/>
<polygon fill="black" stroke="black" points="1140.79,-181.5 1150.79,-178 1140.79,-174.5 1140.79,-181.5"/>
</g>
<!-- UserRequestOccModule -->
<g id="node14" class="node">
<title>UserRequestOccModule</title>
<polygon fill="#8dd3c7" stroke="black" points="177.61,-122 174.61,-126 153.61,-126 150.61,-122 24.39,-122 24.39,-86 177.61,-86 177.61,-122"/>
<text text-anchor="middle" x="101" y="-99.8" font-family="Times,serif" font-size="14.00">UserRequestOccModule</text>
</g>
<!-- UserRequestOccModule&#45;&gt;OccModule -->
<g id="edge14" class="edge">
<title>UserRequestOccModule&#45;&gt;OccModule</title>
<path fill="none" stroke="black" d="M101,-122.32C101,-145.66 101,-183 101,-183 101,-183 1140.89,-183 1140.89,-183"/>
<polygon fill="black" stroke="black" points="1140.89,-186.5 1150.89,-183 1140.89,-179.5 1140.89,-186.5"/>
</g>
<!-- OccValueListService -->
<g id="node16" class="node">
<title>OccValueListService</title>
<ellipse fill="#fdb462" stroke="black" cx="2300" cy="-104" rx="93.73" ry="18"/>
<text text-anchor="middle" x="2300" y="-99.8" font-family="Times,serif" font-size="14.00">OccValueListService</text>
</g>
<!-- OccValueListService&#45;&gt;OccModule -->
<g id="edge15" class="edge">
<title>OccValueListService&#45;&gt;OccModule</title>
<path fill="none" stroke="black" d="M2300,-122.32C2300,-145.66 2300,-183 2300,-183 2300,-183 1243.08,-183 1243.08,-183"/>
<polygon fill="black" stroke="black" points="1243.08,-179.5 1233.08,-183 1243.08,-186.5 1243.08,-179.5"/>
</g>
</g>
</svg>
