<?xml version="1.0" standalone="no"?>
<!DOCTYPE svg PUBLIC "-//W3C//DTD SVG 1.1//EN" "http://www.w3.org/Graphics/SVG/1.1/DTD/svg11.dtd" >
<svg xmlns="http://www.w3.org/2000/svg">
<metadata>Generated by IcoMoon</metadata>
<defs>
<font id="font-FSA" horiz-adv-x="1024">
<font-face units-per-em="1024" ascent="960" descent="-64" />
<missing-glyph horiz-adv-x="1024" />
<glyph unicode="&#x20;" horiz-adv-x="512" d="" />
<glyph unicode="&#xe900;" glyph-name="FSA-heart" horiz-adv-x="1083" d="M857.084 381.119l-85.944-94.537c-6.139-7.379-15.961-11.050-25.796-9.822-9.822 1.228-18.416 6.139-23.315 14.721l-69.983 122.777-67.527-89.627c-7.367-9.822-19.644-13.506-30.694-12.277-11.050 2.455-20.871 11.050-23.328 22.1l-51.566 207.505-67.527-317.991c-2.455-13.506-14.733-23.315-28.238-24.555-1.228 1.228-1.228 1.228-2.455 1.228-13.506 0-24.555 8.594-29.467 20.871l-77.35 244.325-58.933-74.894c-6.139-7.379-14.733-11.050-24.555-11.050h-16.022c143.783-195.719 347.519-459.184 364.708-459.184 18.061 0 223.134 264.914 367.065 460.412h-49.074zM803.063 944.663c-106.816 0-200.125-63.844-240.643-157.154 0 0-7.379-20.871-22.1-20.871-15.961 0-22.1 20.871-22.1 20.871-40.516 92.082-132.598 157.154-240.643 157.154-146.104 1.228-263.969-116.637-263.969-261.514 0-33.15 0-60.16 20.871-101.904 8.631-17.594 45.28-70.854 95.165-139.965h46.029l85.944 108.043c7.367 8.594 18.416 13.506 29.467 11.050s19.644-9.822 23.328-20.871l60.16-187.848 71.211 335.18c2.455 13.506 14.733 24.555 29.467 24.555s27.011-9.822 30.694-23.328l67.527-273.791 56.477 74.894c6.139 8.594 15.961 12.277 25.783 12.277s19.657-6.139 24.555-14.733l73.666-127.688 67.527 73.666c6.139 6.139 13.518 9.822 22.1 9.822h105.588c0.59 0 1.13-0.135 1.695-0.172 49.332 68.178 85.502 120.554 94.071 137.682 13.506 31.922 20.871 66.299 20.871 101.904 0 144.877-117.865 262.742-262.742 262.742z" />
<glyph unicode="&#xe901;" glyph-name="FSA-agent" horiz-adv-x="956" d="M465.185 453.757c-129.751 0-235.591 105.84-235.591 235.591s105.84 235.591 235.591 235.591 235.591-105.84 235.591-235.591-105.84-235.591-235.591-235.591zM465.185 861.646c-94.94 0-172.298-77.359-172.298-172.298s77.359-172.298 172.298-172.298 172.298 77.359 172.298 172.298-77.359 172.298-172.298 172.298zM915.622-58.919l-94.589 94.589c19.339 25.317 30.592 56.964 30.592 91.072 0 83.336-67.865 151.201-151.201 151.201s-151.201-67.865-151.201-151.201 67.865-151.201 151.201-151.201c28.833 0 55.909 8.088 78.764 22.152l96.698-96.698 39.734 40.086zM605.837 126.741c0 52.392 42.547 94.94 94.94 94.94s94.94-42.547 94.94-94.94-42.547-94.94-94.94-94.94-94.94 42.547-94.94 94.94zM496.832-27.975c0 0-0.352 0 0 0l-404.373 0.703c-17.582 0-31.647 14.065-31.647 31.647 0 102.675 42.195 200.077 118.498 274.622 76.655 74.546 177.925 115.686 285.171 115.686 48.876 0 96.698-8.088 142.409-24.263 16.527-5.977 24.966-23.911 19.339-40.437-5.977-16.527-23.911-24.966-40.437-19.339-38.679 13.714-79.468 20.746-120.961 20.746-90.72 0-176.166-34.812-241.218-97.753-56.26-54.503-90.369-123.773-97.753-197.616l371.32-0.703c17.582 0 31.647-14.065 31.647-31.647-0.703-17.23-14.769-31.647-31.998-31.647z" />
<glyph unicode="&#xe902;" glyph-name="FSA-lock" horiz-adv-x="956" d="M574.010 287.501c0 51.95-42.164 94.115-94.115 94.115s-94.115-42.164-94.115-94.115c0-33.88 18.071-63.997 45.175-80.562v-66.256c0-24.845 20.328-45.175 45.175-45.175h7.528c24.845 0 45.175 20.328 45.175 45.175v66.256c27.105 16.565 45.175 46.68 45.175 80.562zM786.709 556.667h-22.586v111.056c0 158.865-129.126 287.991-287.991 287.991s-287.991-129.126-287.991-287.991v-111.056h-18.824c-41.411 0-75.291-33.88-75.291-75.291v-474.335c0-41.411 33.88-75.291 75.291-75.291h617.39c41.411 0 75.291 33.88 75.291 75.291v474.335c0 41.411-33.88 75.291-75.291 75.291zM278.491 667.723c0 108.795 88.843 197.64 197.64 197.64s197.64-88.843 197.64-197.64v-111.056h-395.279v111.056zM801.768 7.039c0-8.281-6.776-15.058-15.058-15.058h-617.39c-8.281 0-15.058 6.776-15.058 15.058v474.335c0 8.281 6.776 15.058 15.058 15.058h617.39c8.281 0 15.058-6.776 15.058-15.058v-474.335z" />
<glyph unicode="&#xe903;" glyph-name="FSA-auto" horiz-adv-x="1083" d="M1081.42 511.864c-13.082 46.38-80.867 35.675-120.111 26.164-8.323 38.057-35.675 142.709-95.141 190.277-11.893 9.512-83.248 57.085-317.525 51.138-8.323 0-66.596 1.189-132.004-3.57-134.386-8.323-177.196-30.921-197.412-47.569-59.462-47.569-88.002-153.409-95.141-191.465-39.245 9.512-109.411 21.405-122.492-26.164-8.323-32.11 17.84-47.569 40.433-53.515 15.459-4.758 24.975-21.405 19.028-36.868-5.947-20.216-13.082-45.191-13.082-63.031 0-35.675 0-83.248 0-83.248v-136.763c0-16.652 13.082-29.728 29.728-29.728h130.816c16.652 0 29.728 13.082 29.728 29.728 0 13.082 0 26.164 0 29.728 0-11.893 195.036-23.786 302.066-23.786s302.066 11.893 302.066 23.786c0-3.57 0-16.652 0-29.728 0-16.652 13.082-29.728 29.728-29.728h130.816c16.652 0 29.728 13.082 29.728 29.728v136.763c0 0 0 47.569 0 83.248 0 19.028-5.947 44.003-13.082 63.031-4.758 15.459 3.57 32.11 19.028 36.868 24.975 8.323 51.138 22.594 42.814 54.703zM297.711 274.019c-11.893-23.786-130.816 23.786-142.709 47.569s-35.675 59.462-11.893 59.462 154.602-47.569 154.602-47.569c15.459-11.893 11.893-35.675 0-59.462zM611.67 612.948c-20.216-13.082-28.54-33.298-32.11-49.95-3.57-13.082-24.975-21.405-38.057-21.405s-34.487 8.323-38.057 21.405c-3.57 15.459-13.082 35.675-32.11 49.95-35.675 23.786-142.709 23.786-190.277-11.893-23.786-17.84-29.728-35.675-29.728-48.757 0-14.27-10.705-26.164-23.786-28.54l-22.594-4.758c8.323 35.675 30.921 116.546 66.596 143.897 29.728 23.786 166.492 35.675 275.903 32.11h2.377c104.653 2.377 235.468-9.512 264.010-32.11 32.11-26.164 57.085-98.706 66.596-145.086 0 0-1.189 0-1.189 0l-22.594 4.758c-13.082 2.377-23.786 14.27-23.786 28.54 0 13.082-5.947 30.921-29.728 48.757-48.757 36.868-155.791 36.868-191.465 13.082zM914.928 321.587c-11.893-23.786-130.816-71.355-142.709-47.569s-16.652 47.569 0 59.462c0 0 130.816 47.569 154.602 47.569s0-35.675-11.893-59.462z" />
<glyph unicode="&#xe904;" glyph-name="FSA-event" horiz-adv-x="1083" d="M505.142-65.953c-10.922 0-21.844 3.64-29.126 12.136-25.484 25.484-66.745 25.484-92.229 0-15.776-15.776-42.475-15.776-59.463 0l-281.543 281.543c-15.776 15.776-15.776 42.475 0 59.463 25.484 25.484 25.484 66.745 0 92.229-15.776 15.776-15.776 42.475 0 59.463l507.261 507.261c15.776 15.776 42.475 15.776 59.463 0 25.484-25.484 66.745-25.484 92.229 0 15.776 15.776 42.475 15.776 59.463 0l281.543-281.543c15.776-15.776 15.776-42.475 0-59.463-25.484-25.484-25.484-66.745 0-92.229 15.776-15.776 15.776-42.475 0-59.463l-508.475-507.261c-7.282-8.495-18.202-12.136-29.126-12.136zM126.516 261.703l231.788-231.788c44.902 24.27 98.298 24.27 143.2 0l457.507 457.507c-12.136 21.844-18.202 46.115-18.202 71.599s6.068 49.754 18.202 71.599l-231.788 230.574c-21.844-12.136-46.115-18.202-71.599-18.202s-49.754 6.068-71.599 18.202l-457.507-457.507c24.27-43.686 24.27-98.298 0-141.985zM425.047 128.213l-200.236 200.236c-24.27 24.27-24.27 61.891 0 86.163l349.501 349.501c24.27 24.27 61.891 24.27 86.163 0l200.236-200.236c24.27-24.27 24.27-61.891 0-86.163l-350.714-349.501c-23.058-24.27-61.891-24.27-84.948 0zM393.495 341.796l251.203 251.203c12.136 12.136 12.136 30.339 0 42.475s-30.339 12.136-42.475 0l-251.203-251.203c-12.136-12.136-12.136-30.339 0-42.475 6.068-6.068 13.351-8.495 20.63-8.495s15.776 2.426 21.844 8.495zM537.908 315.1l133.49 133.49c12.136 12.136 12.136 30.339 0 42.475s-30.339 12.136-42.475 0l-133.49-133.49c-12.136-12.136-12.136-30.339 0-42.475 6.068-6.068 13.351-8.495 20.63-8.495s15.776 2.426 21.844 8.495z" />
<glyph unicode="&#xe905;" glyph-name="FSA-house" horiz-adv-x="1083" d="M146.135 499.726l392.541 281.997 395.924-281.997v-533.538h-154.534l-1.125 356.445h-182.734v-356.445h-450.068v533.538zM504.836 132v180.477c0 6.77-4.511 11.28-11.28 11.28h-180.477c-6.77 0-11.28-4.511-11.28-11.28v-180.477c0-6.77 4.511-11.28 11.28-11.28h180.477c6.77 0 11.28 4.511 11.28 11.28zM762.016 771.57v98.136h122.951v-186.119l181.607-130.847c18.048-12.408 21.432-37.224 9.024-55.272-7.896-11.28-20.306-16.92-31.584-16.92-7.896 0-15.792 2.256-22.557 7.896l-480.523 344.037-478.268-344.037c-18.048-13.536-42.864-9.024-55.272 9.024s-9.024 42.864 9.024 55.272l501.955 360.956c13.536 10.153 32.711 10.153 46.247 0l197.398-142.128z" />
<glyph unicode="&#xe906;" glyph-name="FSA-key" horiz-adv-x="1083" d="M727.778 955.718c-180.119 0-326.926-146.808-326.926-326.926 0-44.411 8.635-86.359 24.674-124.601l-397.245-397.245v-175.183h150.509v123.368h123.368v123.368h135.705l152.976 152.976c41.944-19.739 87.592-29.608 136.937-29.608 180.119 0 326.926 146.808 326.926 326.926 0 181.352-146.808 326.926-326.926 326.926zM814.134 597.951c-57.983 0-104.862 46.879-104.862 106.096 0 57.983 46.879 104.862 104.862 104.862s104.862-46.879 104.862-104.862c0-59.217-46.879-106.096-104.862-106.096z" />
<glyph unicode="&#xe907;" glyph-name="FSA-plane" horiz-adv-x="1083" d="M1027.74 935.389c-38.221 38.221-92.47 14.794-114.664-7.399-12.328-12.328-215.766-205.902-215.766-205.902l-532.633 82.608-76.442-92.47 413.037-184.942-292.209-311.936-173.846-28.358v-61.648l145.489-46.852 59.182-146.721h61.648l14.794 176.312 305.771 293.441 183.71-417.969 91.239 77.675-69.046 538.798c0 0 181.242 208.369 191.107 218.232 24.659 23.427 45.62 78.908 8.631 117.128z" />
<glyph unicode="&#xe908;" glyph-name="FSA-facebook" d="M392.734 9.389v475.908h-79.52v110.848h79.492v25.317c0 75.922 20.468 151.813 71.103 200.006 43.405 40.935 101.21 56.614 152.972 56.614 39.776 0 71.073-6.336 93.978-13.569l-9.639-107.1c-16.868 6.039-28.887 9.877-56.554 9.877-73.509 0-104.837-68.722-104.837-140.984v-30.137h127.685v-110.848h-126.467v-475.936h-148.214z" />
<glyph unicode="&#xe909;" glyph-name="FSA-google-plus" d="M325.257 508.728v-128.808h175.576c-27.347-83.627-70.549-129.205-175.576-129.205-106.817 0-193.411 86.595-193.411 193.411s86.595 193.411 193.411 193.411c0.774 0.012 1.687 0.018 2.601 0.018 47.578 0 90.934-18.068 123.585-47.714 26.402 27.087 24.419 30.652 92.194 95.256-57.477 52.118-134.125 84.023-218.222 84.023-179.708 0-325.393-145.682-325.393-325.393 0-179.514 145.365-325.073 324.805-325.389 268.349 0 334.141 234.233 312.341 389.997zM911.040 502.386v112.955h-80.456v-112.955h-115.73v-80.852h115.73v-116.127h80.456v116.127h112.955v80.852h-112.955z" />
<glyph unicode="&#xe90a;" glyph-name="FSA-linkedin" d="M104.199 613.93h160.929v-573.69h-160.929v573.69zM925.583 40.24h-156.271v292.804c0 61.955-3.247 101.988-10.058 120.161-6.639 18.174-17.407 32.304-32.482 42.424-15.075 10.058-33.102 15.135-54.194 15.135-27.142 0-51.421-7.229-72.868-21.594-21.505-14.427-36.286-33.484-44.253-57.233-7.995-23.777-11.92-67.736-11.92-131.874v-259.791h-156.33v573.66h145.149v-84.257c51.541 64.816 116.441 97.237 194.653 97.237 34.488 0 66.025-6.046 94.551-18.113s50.125-27.467 64.816-46.169c14.573-18.733 24.84-39.946 30.595-63.722 5.693-23.777 8.555-57.795 8.555-102.105v-356.557zM275.428 758.725c0-48.88-39.625-88.505-88.505-88.505s-88.505 39.625-88.505 88.505c0 48.88 39.625 88.505 88.505 88.505s88.505-39.625 88.505-88.505z" />
<glyph unicode="&#xe90b;" glyph-name="FSA-newsfeed" d="M96.033 859.702v-166.82c177.268-0.765 343.821-70.016 469.344-195.339 125.655-125.555 195.038-292.308 195.538-469.776h167.052c-1.099 458.595-372.839 830.335-831.932 831.932zM208.777 252.922c-62.296 0-112.744-50.416-112.744-112.578 0-62.129 50.448-112.578 112.744-112.578s112.71 50.448 112.71 112.578c-0.033 62.162-50.416 112.578-112.71 112.578zM96.033 576.146v-166.82c209.714-2.13 379.893-172.112 382.058-381.558h166.986c-2.196 301.893-246.753 546.214-549.043 548.377z" />
<glyph unicode="&#xe90c;" glyph-name="FSA-twitter" d="M968.637 660.433c0-110.747-89.779-200.527-200.527-200.527s-200.527 89.779-200.527 200.527c0 110.747 89.779 200.527 200.527 200.527s200.527-89.779 200.527-200.527zM1023.982 774.957l-98.718-84.913-33.617-11.409-9.493-35.664-99.545-21.685 43.328 92.228-51.471 87.962 101.114-12.715 121.622 45.375-53.561-65.885zM949.434 573.385c-121.406-793.53-1006.553-490.062-946.504-488.971 189.248 4.048 284.221-5.922 314.31 190.643 30.046 196.65 42.675 132.509 231.923 186.505 183.544 52.342 430.271 308.388 400.269 111.823zM413.824 340.244c-10.276-49.512 106.425-115.831-179.363-56.522-88.789 18.464-152.453 73.68-142.132 123.322s-5.922-12.585 82.911-31.005c88.745-18.464 248.906 13.892 238.587-35.795zM668.522 541.075c-42.499-119.49 120.491-286.79-330.858-126.499-140.042 49.772-219.251 187.288-176.793 306.864 42.587 119.662-16.286-30.090 123.93-79.949 140.216-49.817 426.137 19.204 383.723-100.414zM429.5 437.306c-22.383-68.15 89.267-166.127-207.406-68.846-92.098 30.177-148.664 109.997-126.283 178.232 22.338 68.193-9.275-17.112 82.867-47.291 92.186-30.265 273.206 6.009 250.822-62.095z" />
<glyph unicode="&#xe90d;" glyph-name="FSA-youtube" d="M414.679 955.726h-63.47l-42.314-148.095-50.777 148.095h-67.699c12.693-33.852 29.618-71.933 42.314-105.781 21.156-55.007 33.852-93.088 38.081-122.707v-156.558h63.47v156.558l80.395 228.49zM583.933 663.769v101.551c0 29.618-4.23 50.777-16.925 67.699-16.925 21.156-38.081 29.618-67.699 29.618s-50.777-8.463-67.699-29.618c-12.693-12.693-16.925-38.081-16.925-67.699v-101.551c0-29.618 4.23-50.777 16.925-67.699 16.925-21.156 38.081-29.618 67.699-29.618s50.777 8.463 67.699 29.618c12.693 16.925 16.925 38.081 16.925 67.699zM524.693 655.307c0-25.388-8.463-38.081-29.618-38.081s-25.388 12.693-25.388 38.081v118.476c0 25.388 8.463 38.081 29.618 38.081 16.925 0 29.618-12.693 29.618-38.081l-4.23-118.476zM799.728 570.681v287.728h-59.237v-215.795c-12.693-16.925-25.388-25.388-38.081-25.388-8.463 0-12.693 4.23-12.693 12.693 0 0 0 8.463 0 21.156v211.565h-59.237v-224.258c0-21.156 0-33.852 4.23-42.314 4.23-12.693 16.925-21.156 38.081-21.156s42.314 12.693 67.699 33.852v-38.081h59.237zM617.781 287.184c-8.463 0-21.156-4.23-29.618-12.693v-173.484c12.693-8.463 21.156-12.693 29.618-12.693 16.925 0 25.388 12.693 25.388 38.081v122.707c0 25.388-8.463 38.081-25.388 38.081zM968.979 426.817c-12.693 46.544-50.777 80.395-101.551 84.626-118.476 12.693-236.954 12.693-355.428 12.693s-236.954 0-355.428-12.693c-50.777-8.463-88.858-38.081-101.551-84.626-16.925-63.47-16.925-135.403-16.925-198.872s0-135.403 16.925-198.872c12.693-46.544 50.777-80.395 101.551-84.626 118.476-12.693 236.954-12.693 355.428-12.693s236.954 0 355.428 12.693c46.544 8.463 88.858 38.081 101.551 84.626 16.925 63.47 16.925 131.169 16.925 198.872 0 63.47 0 135.403-16.925 198.872zM308.898 367.58h-67.699v-325.809h-63.47v325.809h-67.699v55.007h198.872v-55.007zM486.612 46.001h-63.47v29.618c-21.156-25.388-46.544-33.852-63.47-33.852s-29.618 8.463-38.081 21.156c-4.23 8.463-4.23 21.156-4.23 42.314v224.258h59.237v-207.332c0-12.693 0-16.925 0-21.156 0-8.463 4.23-12.693 12.693-12.693 12.693 0 25.388 8.463 38.081 25.388v215.795h59.237v-283.497zM698.177 130.626c0-29.618 0-46.544-4.23-55.007-8.463-16.925-25.388-29.618-46.544-29.618s-38.081 8.463-59.237 29.618v-25.388h-59.237v376.586h59.237v-122.707c16.925 21.156 38.081 29.618 59.237 29.618 25.388 0 38.081-12.693 46.544-33.852 4.23-8.463 4.23-29.618 4.23-55.007v-114.244zM913.973 177.17h-114.244v-50.777c0-25.388 8.463-38.081 29.618-38.081 12.693 0 21.156 8.463 25.388 21.156 0 0 0 12.693 0 33.852h59.237v-8.463c0-16.925 0-29.618-4.23-38.081 0-8.463-4.23-21.156-12.693-29.618-12.693-21.156-38.081-29.618-67.699-29.618s-50.777 8.463-67.699 29.618c-12.693 16.925-16.925 38.081-16.925 67.699v97.321c0 29.618 4.23 55.007 16.925 67.699 16.925 21.156 38.081 29.618 67.699 29.618s50.777-8.463 67.699-29.618c12.693-16.925 16.925-38.081 16.925-67.699v-55.007zM829.346 282.954c-21.156 0-29.618-12.693-29.618-38.081v-25.388h59.237v25.388c0 25.388-12.693 38.081-29.618 38.081z" />
<glyph unicode="&#xe90e;" glyph-name="fsa-envelope-open" d="M977.455 614.402l-418.909 325.818c-25.859 20.687-64.646 20.687-90.505 0l-421.495-325.818h930.909zM946.424-68.265h-868.848c-12.929 0-23.273 7.758-28.444 18.101l271.515 217.212c12.929 10.343 15.515 31.030 5.172 43.96v0c-10.343 12.929-31.030 15.515-43.96 5.172l-235.313-188.768v576.646l424.081-367.192c23.273-20.687 56.889-20.687 80.162 0l426.667 367.192v-576.646l-235.313 188.768c-12.929 10.343-33.616 7.758-43.96-5.172v0c-10.343-12.929-7.758-33.616 5.172-43.96l271.515-217.212c-5.172-10.343-15.515-18.101-28.444-18.101z" />
<glyph unicode="&#xe90f;" glyph-name="icon-FSA-arrow-left" d="M1022.294 294.687h-512v-256.854l-512 382.294 512 386.56v-256.001h512v-256.001z" />
<glyph unicode="&#xe910;" glyph-name="icon-FSA-arrow-up" d="M907.377 426.667h-253.155v-512h-255.996v512h-253.155l383.999 512 378.31-512z" />
<glyph unicode="&#xe911;" glyph-name="icon-FSA-briefcase" d="M682.666 721.067h256c22.755 0 42.666-8.534 59.734-25.6s25.6-36.977 25.6-59.734v-341.332h-426.665v85.334h-170.666v-85.334h-426.665v341.332c0 22.755 8.534 42.666 25.6 59.734s36.977 25.6 59.734 25.6h256v85.334c0 22.755 8.534 42.666 25.6 59.734s36.977 25.6 59.734 25.6h170.666c22.755 0 42.666-8.534 59.734-25.6s25.6-36.977 25.6-59.734v-85.334zM1023.998 209.069v-170.666c0-22.755-8.534-42.666-25.6-59.734s-36.977-25.6-59.734-25.6h-853.331c-22.755 0-42.666 8.534-59.734 25.6s-25.6 36.977-25.6 59.734v170.666h1023.997zM426.666 721.067h170.666v85.334h-170.666v-85.334z" />
<glyph unicode="&#xe912;" glyph-name="icon-FSA-list" d="M111.069 656.932c59.598 0 108.36 48.762 108.36 108.36s-48.762 108.36-108.36 108.36c-59.598 0-108.36-48.762-108.36-108.36s48.762-108.36 108.36-108.36c0 0 0 0 0 0zM111.069 824.889c32.508 0 59.598-27.090 59.598-59.598s-27.090-59.598-59.598-59.598-59.598 27.090-59.598 59.598c0 0 0 0 0 0 0 32.508 27.090 59.598 59.598 59.598zM111.069 315.599c59.598 0 108.36 48.762 108.36 108.36s-48.762 108.36-108.36 108.36c-59.598 0-108.36-48.762-108.36-108.36s48.762-108.36 108.36-108.36zM111.069 483.556c32.508 0 59.598-27.090 59.598-59.598s-27.090-59.598-59.598-59.598c-32.508 0-59.598 27.090-59.598 59.598 0 0 0 0 0 0 0 37.925 27.090 59.598 59.598 59.598v0zM111.069-20.316c59.598 0 108.36 48.762 108.36 108.36s-48.762 108.36-108.36 108.36c-59.598 0-108.36-48.762-108.36-108.36s48.762-108.36 108.36-108.36zM111.069 147.64c32.508 0 59.598-27.090 59.598-59.598s-27.090-59.598-59.598-59.598c-32.508 0-59.598 27.090-59.598 59.598s27.090 59.598 59.598 59.598zM371.132 738.201h628.486c16.254 0 27.090 10.836 27.090 27.090s-10.836 27.090-27.090 27.090h-628.486c-16.254 0-27.090-10.836-27.090-27.090s10.836-27.090 27.090-27.090zM371.132 402.286h628.486c16.254 0 27.090 10.836 27.090 27.090s-10.836 27.090-27.090 27.090h-628.486c-16.254 0-27.090-10.836-27.090-27.090s10.836-27.090 27.090-27.090zM371.132 60.953h628.486c16.254 0 27.090 10.836 27.090 27.090s-10.836 27.090-27.090 27.090h-628.486c-16.254 0-27.090-10.836-27.090-27.090s10.836-27.090 27.090-27.090z" />
<glyph unicode="&#xe913;" glyph-name="icon-FSA-credit-card" d="M0.001 635.735v128c0 11.377 2.845 22.755 11.377 31.289s19.911 11.377 31.289 11.377h938.664c11.377 0 22.755-2.845 31.289-11.377s11.377-17.066 11.377-31.289v-128h-1023.998zM1023.999 550.402v-469.333c0-11.377-5.689-22.755-11.377-31.289-8.534-8.534-19.911-11.377-31.289-11.377h-938.664c-11.377 0-22.755 2.845-31.289 11.377s-11.377 17.066-11.377 31.289v469.333h1023.998zM85.335 123.736h341.333v170.666h-341.333v-170.666z" />
<glyph unicode="&#xe914;" glyph-name="icon-FSA-edit" d="M923.279 472.762v-190.251c0-92.328-33.574-170.667-97.923-237.814-67.147-64.35-145.487-97.923-237.814-97.923h-251.804c-92.328 0-170.667 33.574-237.814 97.923-64.35 64.35-97.923 145.487-97.923 237.814v251.804c0 92.328 33.574 170.667 97.923 237.814 64.35 64.35 145.487 97.923 237.814 97.923 204.241-2.798 316.154-8.394 332.94-11.191l-156.678-156.678h-260.198c-22.382 0-41.967-8.394-58.755-25.18s-25.18-36.371-25.18-58.755v-419.672c0-22.382 8.394-41.967 25.18-58.755s36.371-25.18 58.755-25.18h419.672c22.382 0 41.967 8.394 58.755 25.18s25.18 36.371 25.18 58.755v106.317l167.868 167.868zM366.513 234.948l134.296 41.967 346.929 346.929-97.923 95.126-338.536-341.334-44.765-142.688zM928.875 704.982l95.126 95.126-16.787 72.743-78.339 22.382-95.126-95.126 95.126-95.126z" />
<glyph unicode="&#xe915;" glyph-name="icon-FSA-envelope" d="M512 334.507l-512 514.56h1024l-512-514.56zM0 678.402v-512l256 256-256 256zM512 166.402l-170.665 170.665-341.335-341.335h1024l-341.335 341.335-170.665-170.665zM768 422.402l256-256v512l-256-256z" />
<glyph unicode="&#xe916;" glyph-name="icon-FSA-exclamation-sign" d="M310.753 892.969c62.153 26.637 130.22 41.432 198.289 41.432s136.137-14.8 198.289-41.432 118.384-62.153 162.774-109.505 82.869-100.626 109.505-162.774 41.432-130.22 41.432-198.289c0-71.031-14.8-136.137-41.432-198.289s-62.153-118.384-109.505-162.774-100.626-82.869-162.774-109.505-130.22-41.432-198.289-41.432-136.137 14.8-198.289 41.432c-62.153 26.637-118.384 62.153-162.774 109.505s-82.869 100.626-109.505 162.774-41.432 130.22-41.432 198.289 11.837 136.137 41.432 198.289 62.153 118.384 109.505 162.774 100.626 82.869 162.774 109.505zM585.989 378.008l50.31 269.321c2.958 11.837 0 23.673-5.921 29.595s-17.758 11.837-29.595 11.837h-183.489c-11.837 0-20.716-2.958-29.595-11.837s-8.879-17.758-5.921-29.595l50.31-269.321c2.958-11.837 8.879-23.673 17.758-29.595 11.837-8.879 20.716-11.837 32.553-11.837h47.353c11.837 0 23.673 2.958 32.553 11.837 14.8 5.921 20.716 17.758 23.673 29.595zM597.826 244.829h-177.573v-88.784h177.573v88.784z" />
<glyph unicode="&#xe917;" glyph-name="icon-FSA-file" d="M554.736 507.737h341.326v-576.050c0-6.228-2.049-11.333-5.926-15.429s-9.147-5.926-15.429-5.926h-725.417c-6.228 0-11.333 2.049-15.429 5.926s-5.926 9.147-5.926 15.429v981.291c0 6.228 2.049 11.333 5.926 15.429s9.147 5.926 15.429 5.926h405.377v-426.678zM896.079 593.063h-256.008v256.008l256.008-256.008z" />
<glyph unicode="&#xe918;" glyph-name="icon-FSA-user" d="M1024 32.713v-122.311h-1024v122.311l341.334 219.022v85.334c-19.911 0-39.822 19.911-59.734 62.577-17.066 42.666-25.6 76.8-25.6 108.089v170.666c0 71.111 25.6 130.845 73.955 182.045 51.2 51.2 110.934 73.955 182.045 73.955s130.845-25.6 182.045-73.955c51.2-51.2 73.955-110.934 73.955-182.045v-170.666c0-28.445-8.534-65.422-25.6-108.089s-36.977-62.577-59.734-62.577v-85.334l341.334-219.022z" />
<glyph unicode="&#xe919;" glyph-name="icon-FSA-folder-close" d="M1023.978 806.397v-85.33h-1023.956v85.33h170.659c0 22.768 8.535 42.676 25.606 59.746s36.978 25.606 59.746 25.606h255.989c22.768 0 42.676-8.535 59.746-25.606s25.606-36.978 25.606-59.746h426.648zM0.022 635.715h1023.956v-682.638h-1023.956v682.638z" />
<glyph unicode="&#xe91a;" glyph-name="icon-FSA-folder-open" d="M136.517 614.289l-136.532-273.004v409.505h136.532c0 18.749 6.735 34.697 20.204 48.022s29.644 20.204 48.022 20.204h204.775c18.749 0 34.697-6.735 48.022-20.204s20.204-29.644 20.204-48.022h341.292v-136.532h-682.568zM1023.985 546.184l-204.775-477.809h-819.1l204.775 477.809h819.1z" />
<glyph unicode="&#xe91b;" glyph-name="icon-FSA-list1" d="M-0.003 763.736v85.335c0 11.946 3.982 21.904 12.231 30.153s18.487 12.516 30.433 12.516h85.335c11.946 0 21.904-4.267 30.433-12.516 8.249-8.249 12.231-18.207 12.231-30.153v-85.335c0-11.377-4.267-21.335-12.231-29.868-8.534-8.534-18.487-12.801-30.433-12.801h-85.335c-11.946 0-22.184 4.267-30.433 12.801s-12.231 18.487-12.231 29.868zM-0.003 507.737v85.335c0 11.946 3.982 21.904 12.231 30.153s18.487 12.516 30.433 12.516h85.335c11.946 0 21.904-4.267 30.433-12.516 8.249-8.249 12.231-18.207 12.231-30.153v-85.335c0-11.377-4.267-21.335-12.231-29.868-8.534-8.534-18.487-12.801-30.433-12.801h-85.335c-11.946 0-22.184 4.267-30.433 12.801s-12.231 18.487-12.231 29.868zM-0.003 251.733v85.335c0 11.946 3.982 21.904 12.231 30.153s18.487 12.516 30.433 12.516h85.335c11.946 0 21.904-4.267 30.433-12.516 8.249-8.249 12.231-18.207 12.231-30.153v-85.335c0-11.377-4.267-21.335-12.231-29.868-8.534-8.534-18.487-12.801-30.433-12.801h-85.335c-11.946 0-22.184 4.267-30.433 12.801s-12.231 18.487-12.231 29.868zM-0.003-4.266v85.335c0 11.946 3.982 21.904 12.231 30.153s18.487 12.516 30.433 12.516h85.335c11.946 0 21.904-4.267 30.433-12.516 8.249-8.249 12.231-18.487 12.231-30.153v-85.335c0-11.377-4.267-21.335-12.231-29.868-8.534-8.534-18.487-12.801-30.433-12.801h-85.335c-11.946 0-22.184 4.267-30.433 12.801s-12.231 18.487-12.231 29.868zM256.001 763.736v85.335c0 11.946 3.982 21.904 12.231 30.153s18.487 12.516 30.433 12.516h682.667c11.946 0 21.904-4.267 30.433-12.516 8.249-8.249 12.231-18.207 12.231-30.153v-85.335c0-11.377-4.267-21.335-12.231-29.868-8.534-8.534-18.487-12.801-30.433-12.801h-682.667c-11.946 0-22.184 4.267-30.433 12.801s-12.231 18.487-12.231 29.868zM256.001 507.737v85.335c0 11.946 3.982 21.904 12.231 30.153s18.487 12.516 30.433 12.516h682.667c11.946 0 21.904-4.267 30.433-12.516 8.249-8.249 12.231-18.207 12.231-30.153v-85.335c0-11.377-4.267-21.335-12.231-29.868-8.534-8.534-18.487-12.801-30.433-12.801h-682.667c-11.946 0-22.184 4.267-30.433 12.801s-12.231 18.487-12.231 29.868zM256.001 251.733v85.335c0 11.946 3.982 21.904 12.231 30.153s18.487 12.516 30.433 12.516h682.667c11.946 0 21.904-4.267 30.433-12.516 8.249-8.249 12.231-18.207 12.231-30.153v-85.335c0-11.377-4.267-21.335-12.231-29.868-8.534-8.534-18.487-12.801-30.433-12.801h-682.667c-11.946 0-22.184 4.267-30.433 12.801s-12.231 18.487-12.231 29.868zM256.001-4.266v85.335c0 11.946 3.982 21.904 12.231 30.153s18.487 12.516 30.433 12.516h682.667c11.946 0 21.904-4.267 30.433-12.516 8.249-8.249 12.231-18.487 12.231-30.153v-85.335c0-11.377-4.267-21.335-12.231-29.868-8.534-8.534-18.487-12.801-30.433-12.801h-682.667c-11.946 0-22.184 4.267-30.433 12.801s-12.231 18.487-12.231 29.868z" />
<glyph unicode="&#xe91c;" glyph-name="icon-FSA-list-alt" d="M981.335 934.4v-1024h-938.664v1024h938.664zM895.999 763.734h-767.999v-767.999h767.999v767.999zM298.666 678.403h-85.335v-85.335h85.335v85.335zM298.666 507.737h-85.335v-85.335h85.335v85.335zM298.666 337.067h-85.335v-85.335h85.335v85.335zM298.666 166.401h-85.335v-85.335h85.335v85.335zM810.664 678.403h-426.667v-85.335h426.667v85.335zM810.664 507.737h-426.667v-85.335h426.667v85.335zM810.664 337.067h-426.667v-85.335h426.667v85.335zM810.664 81.070h-426.667v85.335h426.667v-85.335z" />
<glyph unicode="&#xe91d;" glyph-name="icon-FSA-log-out" d="M551.414 443.735l-315.036-275.714v157.564h-236.375v236.375h236.375v157.564l315.036-275.714zM393.838 876.922h315.036c86.624 0 161.026-30.677 222.374-92.754 61.647-61.44 92.754-135.716 92.754-222.374v-236.375c0-86.624-31.039-160.658-92.754-222.374-61.44-61.647-135.716-92.754-222.374-92.754h-315.036v157.564h393.864c21.573 0 40.143 7.554 55.614 23.031s23.031 34.133 23.031 55.614v393.864c0 21.573-7.554 39.959-23.031 55.614-15.562 15.562-34.133 23.031-55.614 23.031h-393.864v157.564z" />
<glyph unicode="&#xe91e;" glyph-name="icon-FSA-map-marker" d="M512 934.262c68.471 0 131.654-17.537 189.546-52.606s103.54-82.387 137.217-141.672c33.677-59.284 50.658-123.024 50.658-191.775 0-68.471-20.32-144.176-60.956-227.119-40.636-63.46-87.119-129.426-139.169-197.897s-94.078-121.077-125.807-157.817l-47.595-55.109c-5.567 5.011-13.081 12.245-22.544 21.711s-27.835 29.226-55.39 58.728c-27.555 29.782-54.273 60.12-80.16 91.014s-54.833 68.471-86.839 113.006c-32.010 44.535-60.12 87.675-84.056 129.426-35.069 77.376-52.606 150.302-52.606 218.773 0 69.027 16.977 133.322 50.658 193.166s79.604 107.715 137.777 143.62c58.172 36.74 121.352 54.553 189.267 54.553zM511.164 350.592c59.564 0 110.222 20.876 152.25 63.183 42.028 42.028 62.904 92.686 62.904 152.526 0 59.564-20.876 110.222-62.904 151.97s-92.966 62.624-152.25 62.624c-59.564 0-110.222-21.152-151.97-63.183s-62.624-92.686-62.624-151.414c0-59.564 20.876-110.499 63.183-152.526 42.028-42.307 92.405-63.183 151.414-63.183z" />
<glyph unicode="&#xe91f;" glyph-name="icon-FSA-person" d="M946.424 204.284c-46.545 41.374-103.435 72.405-160.323 98.262-41.374 20.686-82.747 41.374-124.121 67.232 62.061 72.405 103.435 160.323 108.606 258.586 5.171 62.061-5.171 129.292-31.030 186.182s-93.091 124.121-232.727 124.121-201.697-67.232-227.556-124.121c-25.859-56.889-36.202-124.121-31.030-186.182 5.171-93.091 41.374-186.182 108.606-258.586-41.374-25.859-77.576-46.545-124.121-67.232-56.889-25.859-108.606-56.889-160.323-98.262-46.545-56.889-72.405-129.292-72.405-201.697 0-46.545 36.202-82.747 82.747-87.92 0 0 0 0 0 0h848.162c46.545 0 82.747 36.202 82.747 82.747 0 0 0 0 0 0 5.171 77.576-20.686 149.98-67.232 206.868zM951.596-12.929c-5.171-5.171-10.344-5.171-15.515-5.171h-848.162c-5.171 0-10.344 0-15.515 5.171s-5.171 10.344-5.171 15.515c0 56.889 20.686 113.777 51.717 155.152 41.374 36.202 93.091 62.061 144.808 82.747 46.545 20.686 93.091 46.545 139.636 77.576l41.374 41.374-36.202 46.545c-51.717 62.061-87.92 139.636-93.091 217.212-5.171 51.717 5.171 108.606 25.859 160.323 36.202 62.061 103.435 93.091 175.838 87.92 72.405 10.344 139.636-25.859 175.838-87.92 20.686-51.717 31.030-103.435 25.859-160.323-5.171-82.747-36.202-160.323-93.091-217.212l-36.202-46.545 41.374-41.374c41.374-31.030 87.92-56.889 139.636-77.576s98.262-51.717 144.808-82.747c36.202-46.545 51.717-98.262 51.717-155.152-10.344-5.171-10.344-10.344-15.515-15.515z" />
<glyph unicode="&#xe920;" glyph-name="icon-FSA-menu-hamburger" d="M85.26 891.731h853.644c23.276 0 43.412-8.093 60.255-24.922 16.679-16.679 24.922-36.842 24.922-60.255v-85.342c0-23.276-8.093-43.412-24.922-60.255-17.008-16.679-36.842-24.922-60.255-24.922h-853.644c-23.276 0-43.412 8.093-60.255 24.922s-24.922 36.842-24.922 60.255v85.342c0 23.276 8.093 43.412 24.922 60.255s36.842 24.922 60.255 24.922zM85.26 550.347h853.644c23.276 0 43.412-8.093 60.255-24.922 16.679-16.679 24.922-36.814 24.922-60.255v-85.342c0-23.276-8.093-43.412-24.922-60.255-17.008-16.679-36.842-24.922-60.255-24.922h-853.644c-23.276 0-43.412 8.093-60.255 24.922s-24.922 36.842-24.922 60.255v85.342c0 23.276 8.093 43.412 24.922 60.255s36.842 24.922 60.255 24.922zM85.26 208.95h853.644c23.276 0 43.412-8.093 60.255-24.922 16.679-16.679 24.922-36.814 24.922-60.255v-85.342c0-23.276-8.093-43.412-24.922-60.255-17.008-16.679-36.842-24.922-60.255-24.922h-853.644c-23.276 0-43.412 8.093-60.255 24.922s-24.922 36.842-24.922 60.255v85.342c0 23.276 8.093 43.412 24.922 60.255s36.842 24.922 60.255 24.922z" />
<glyph unicode="&#xe921;" glyph-name="icon-FSA-selected-item" d="M954.292 657.428v0c0 4.807-4.807 4.807-4.807 9.616l-144.226 245.183c-9.616 19.23-28.845 28.845-48.075 28.845h-490.367c-19.23 0-38.461-9.616-48.075-28.845l-144.226-249.991c0 0 0-4.807-4.807-4.807 0-4.807-4.807-9.616-4.807-19.23v-649.015c0-38.461 33.652-72.113 72.113-72.113h749.973c38.461 0 72.113 33.652 72.113 72.113v649.015c0 0 0 0 0 4.807 0 0 0 9.616-4.807 14.423zM540.845 878.573h211.531l110.573-192.3h-326.912v192.3zM266.817 878.573h216.338v-192.3h-326.912l110.573 192.3zM896.602-15.625c0-4.807-4.807-9.616-9.616-9.616h-749.973c-4.807 0-9.616 4.807-9.616 9.616v639.4h769.203v-639.4zM649.735 399.985c-9.616 9.616-28.845 9.616-43.268 0l-134.61-134.61-52.883 52.883c-9.616 9.616-28.845 9.616-43.268 0s-9.616-28.845 0-43.268l72.113-72.113c9.616-9.616 28.845-9.616 43.268 0 0 0 0 0 0 0l153.841 153.841c14.423 9.616 14.423 28.845 4.807 43.268 0 0 0 0 0 0z" />
<glyph unicode="&#xe922;" glyph-name="icon-FSA-ok" d="M-0.138 342.932l175.495 175.495 170.528-171.357 502.481 502.481 175.495-175.495-677.148-678.804-346.852 347.68z" />
<glyph unicode="&#xe923;" glyph-name="icon-FSA-paperclip" d="M450.467 13.081l205.745 208.185 204.931 202.492c49.335 49.335 75.901 101.382 79.695 156.138 4.337 53.13-9.487 100.568-41.474 142.584s-73.732 67.497-125.236 76.985c-12.47 2.168-25.481 3.253-39.035 3.253-29.276 0-58.552-7.319-87.286-21.685-29.004-14.366-51.775-29.004-68.31-43.914s-38.763-36.595-67.226-64.515l-283-283c-10.843-10.843-22.771-21.957-35.781-33.342-20.601-19.517-35.781-34.155-45.54-43.914s-21.143-23.313-34.155-40.661c-13.012-17.349-21.415-34.427-25.752-51.233-4.066-16.806-4.879-34.697-1.898-53.672 4.879-34.155 19.517-60.178 43.914-78.069s51.504-26.836 81.322-26.836c39.577 0 73.461 14.096 101.652 42.288l444.831 444.831c19.517 19.517 24.939 39.848 16.264 60.991-8.133 19.517-22.499 29.276-43.1 29.276-14.638 0-28.192-6.235-40.661-18.704-10.301-8.675-20.873-18.975-31.716-30.902l-306.583-303.331-56.112 54.486 5.693 5.693 315.53 322.035c18.433 18.433 36.595 32.258 54.757 41.474s39.577 13.824 64.787 13.824c4.879 0 12.74-0.542 23.583-1.626 48.793-9.217 80.509-37.408 95.147-84.574 8.133-25.481 8.945-51.504 2.44-78.069s-19.246-49.335-38.221-68.31l-320.409-320.679c-9.217-9.217-24.668-25.752-46.354-49.607-21.143-23.313-37.408-40.661-48.522-52.046s-25.481-23.855-42.558-36.866c-17.349-13.282-34.969-24.397-52.859-33.071-30.36-15.18-62.618-22.771-96.773-22.771-37.951 0-72.918 8.675-104.905 26.023s-57.468 41.474-76.443 72.376c-26.023 42.288-35.511 89.183-28.462 140.687s29.004 95.689 65.871 132.555l416.368 416.64c38.493 38.493 68.582 64.245 90.267 77.255 48.793 29.818 102.194 44.727 160.204 44.727 44.998 0 86.202-8.945 123.609-26.836 42.83-19.517 78.069-47.438 105.719-83.762s45.811-78.069 54.486-125.236c9.217-50.419 6.235-100.026-8.945-148.819s-40.932-91.351-77.255-127.676l-420.705-415.826-56.112 48.793-5.421 5.963z" />
<glyph unicode="&#xe924;" glyph-name="icon-FSA-play" d="M93.091-89.598v1023.999l837.817-512-837.817-512z" />
<glyph unicode="&#xe925;" glyph-name="icon-FSA-remove" d="M804.276-89.598l-292.276 292.276-292.276-292.276-219.724 219.724 292.276 292.276-292.276 292.276 219.724 219.724 292.276-292.276 292.276 292.276 219.724-219.724-292.276-292.276 292.276-292.276-219.724-219.724z" />
<glyph unicode="&#xe926;" glyph-name="icon-FSA-search" d="M761.228 296.933l256.641-256.641c3.992-4.563 5.989-9.695 5.989-15.398s-1.996-10.836-5.989-15.398l-93.247-93.247c-4.563-3.992-9.695-5.989-15.398-5.989s-10.836 1.996-15.398 5.989l-256.641 256.641c-67.867-44.485-142.293-66.727-223.278-66.727-114.063 0-211.586 40.492-292.571 121.477s-121.477 178.509-121.477 292.571c0 114.063 40.492 211.586 121.477 292.571s178.509 121.477 292.571 121.477 211.586-40.492 292.571-121.477c80.985-80.985 121.477-178.509 121.477-292.571 0.286-80.985-21.957-155.411-66.727-223.278zM214.010 320.886c55.321-55.321 122.047-82.981 200.18-82.981s144.859 27.375 199.61 82.695c55.035 55.035 82.695 121.477 82.695 199.61s-27.66 144.575-82.695 199.61c-55.035 55.035-121.477 82.411-199.61 82.411s-144.859-27.66-200.18-82.981c-55.321-55.321-82.981-121.762-82.981-199.324 0-77.278 27.375-143.719 82.981-199.040z" />
<glyph unicode="&#xe927;" glyph-name="icon-FSA-trash" d="M708.775 776.859h216.452c5.247 0 9.97-2.099 13.905-6.034 3.673-3.673 5.772-8.396 5.772-13.643v-39.355c0-5.772-1.837-10.495-5.51-14.168s-8.396-5.51-14.168-5.51h-826.44c-5.772 0-10.495 1.837-14.168 5.51s-5.51 8.396-5.51 14.168v39.355c0 5.247 2.099 9.97 5.772 13.643 3.935 3.935 8.658 6.034 13.905 6.034h216.452v78.71c0 21.514 7.609 39.88 23.088 55.622 15.48 15.48 33.845 23.088 55.622 23.088h236.129c21.514 0 40.142-7.871 55.622-23.088 15.217-15.48 23.088-34.108 23.088-55.622v-78.71zM157.819 619.439h708.375v-629.665c0-21.514-7.871-40.142-23.088-55.884-15.48-15.742-33.845-23.613-55.622-23.613h-550.956c-21.514 0-40.142 7.871-55.622 23.613-15.48 16.004-23.088 34.37-23.088 55.884v629.665zM236.516-10.227h78.71v550.956h-78.71v-550.956zM630.065 776.859v78.71h-236.129v-78.71h236.129zM393.935-10.227h78.71v550.956h-78.71v-550.956zM551.355-10.227h78.71v550.956h-78.71v-550.956zM708.775-10.227h78.71v550.956h-78.71v-550.956z" />
<glyph unicode="&#xe928;" glyph-name="icon-FSA-triangle-bottom" d="M512 159.885l-512.001 525.033h1024z" />
<glyph unicode="&#xe929;" glyph-name="icon-FSA-unchecked" d="M372.364 934.403h279.273c99.297 0 186.181-37.237 260.655-111.709s111.709-161.358 111.709-260.655v-279.273c0-102.4-37.237-189.285-111.709-263.757-71.37-71.37-158.254-108.605-260.655-108.605h-279.273c-102.4 0-189.285 37.237-263.757 108.605-71.37 74.472-108.605 161.358-108.605 263.757v279.273c0 102.4 37.237 189.285 108.605 263.757 74.472 71.37 161.358 108.605 263.757 108.605zM744.728 748.22h-465.454c-24.824 0-46.545-9.31-65.164-27.927s-27.927-40.339-27.927-65.164v-465.454c0-24.824 9.31-46.545 27.927-65.164s40.339-27.927 65.164-27.927h465.454c24.824 0 46.545 9.31 65.164 27.927s27.927 40.339 27.927 65.164v465.454c0 24.824-9.31 46.545-27.927 65.164s-40.339 27.927-65.164 27.927z" />
<glyph unicode="&#xe92a;" glyph-name="icon-FSA-card-verify" d="M775.314-46.323c-68.267 0-126.781 29.257-170.667 82.896-43.886 48.761-68.267 112.153-68.267 175.543v156.039c0 14.629 9.753 29.257 24.381 39.010l199.924 87.771c4.876 4.876 14.629 4.876 19.504 4.876s14.629 0 19.504-4.876l199.924-87.771c14.629-4.876 24.381-19.504 24.381-39.010v-156.039c0-63.39-24.381-126.781-68.267-175.543s-107.276-78.019-170.667-82.896h-9.753zM614.4 338.896v-126.781c0-92.647 68.267-170.667 160.914-175.543h4.876c92.647 9.753 160.914 87.771 160.914 175.543v126.781l-160.914 73.143-165.79-73.143zM160.914 158.477c-87.771 0-160.914 68.267-160.914 156.039v429.104c0 87.771 73.143 156.039 160.914 156.039h697.296c87.771 0 160.914-68.267 160.914-156.039v-209.676c0-19.504-19.504-39.010-39.010-39.010s-39.010 19.504-39.010 39.010v78.019h-858.21v-297.447c0-43.886 34.133-78.019 78.019-78.019h263.314c19.504 0 39.010-19.504 39.010-39.010s-19.504-39.010-39.010-39.010h-263.314zM82.896 743.62v-53.639h858.21v53.639c0 43.886-34.133 78.019-78.019 78.019h-702.171c-43.886 0-78.019-34.133-78.019-78.019v0z" />
<glyph unicode="&#xe92b;" glyph-name="icon-FSA-payment-cards" d="M913.129 835.966h-802.259c-63.593-4.891-112.512-63.593-107.62-127.188v-562.559c-4.891-63.593 44.026-122.295 107.62-127.188h807.15c63.593 4.891 112.512 63.593 107.62 127.188v562.559c0 63.593-44.026 122.295-112.512 127.188zM976.723 146.219c4.891-39.135-24.46-73.377-63.593-78.269h-802.259c-39.135 4.891-68.486 39.135-63.593 78.269v562.559c-4.891 39.135 24.46 73.377 63.593 78.269h807.15c39.135-4.891 68.486-39.135 63.593-78.269l-4.891-562.559zM1001.182 682.705h-978.365c-14.675 0-24.46-14.675-19.567-24.46v-151.646c0-14.675 9.784-24.46 19.567-24.46h978.365c14.675 0 24.46 14.675 19.567 24.46v151.646c0 9.784-9.784 24.46-19.567 24.46zM976.723 531.059h-934.338v102.728h934.338v-102.728zM489.156 325.113h-308.185c-14.675 0-24.46-9.784-24.46-24.46s9.784-24.46 24.46-24.46h308.185c14.675 0 24.46 9.784 24.46 24.46s-9.784 24.46-24.46 24.46zM489.156 222.923h-308.185c-14.675 0-24.46-9.784-24.46-24.46s9.784-24.46 24.46-24.46h308.185c14.675 0 24.46 9.784 24.46 24.46s-9.784 24.46-24.46 24.46zM792.204 376.183h-48.918c-44.026 0-78.269-34.242-78.269-78.269v-48.918c0-44.026 34.242-78.269 78.269-78.269h48.918c44.026 0 78.269 34.242 78.269 78.269v48.918c0 44.026-34.242 78.269-78.269 78.269zM816.662 248.996c0-14.675-9.784-24.46-24.46-24.46v0h-48.918c-14.675 0-24.46 9.784-24.46 24.46v0 48.918c0 14.675 9.784 24.46 24.46 24.46v0h48.918c14.675 0 24.46-9.784 24.46-24.46v0-48.918z" />
<glyph unicode="&#xe92c;" glyph-name="icon-FSA-review" d="M785.288 396.549v457.788h-686.683v-861.366h313.223c24.094 0 42.164-18.071 42.164-42.164s-18.071-36.141-42.164-42.164h-355.389c-24.094 0-42.164 18.071-42.164 42.164v939.672c0 24.094 18.071 42.164 42.164 42.164h771.013c24.094 0 42.164-18.071 42.164-42.164v-499.954c0-24.094-18.071-42.164-42.164-42.164-24.094 6.023-42.164 24.094-42.164 48.189 0 0 0 0 0 0zM996.112 294.15c-18.071 18.071-42.164 12.048-60.235-6.023 0 0 0 0 0 0l-228.895-252.989-114.447 108.424c-18.071 18.071-42.164 18.071-60.235 0s-18.071-42.164 0-60.235l144.565-138.542c6.023-6.023 18.071-12.048 30.118-12.048v0c12.048 0 24.094 6.023 30.118 12.048l252.989 283.107c24.094 24.094 24.094 54.212 6.023 66.259 0 0 0 0 0 0v0zM634.7 697.726h-373.46c-24.094 0-42.164-18.071-42.164-42.164s18.071-42.164 42.164-42.164c0 0 0 0 6.023 0h373.46c24.094 0 42.164 18.071 42.164 42.164-6.023 24.094-24.094 42.164-48.189 42.164 0 0 0 0 0 0zM670.841 432.69c0 24.094-18.071 42.164-42.164 42.164h-373.46c-24.094 0-42.164-18.071-42.164-42.164s18.071-42.164 42.164-42.164c0 0 0 0 6.023 0h373.46c18.071 0 36.141 18.071 36.141 42.164zM261.24 251.984c-24.094 0-42.164-18.071-42.164-42.164s18.071-42.164 42.164-42.164c0 0 0 0 6.023 0h108.424c24.094 0 42.164 18.071 42.164 42.164s-18.071 36.141-42.164 42.164h-114.447z" />
<glyph unicode="&#xe92d;" glyph-name="icon-FSA-shield" d="M949.998 662.512v0c0 9.627 0 19.252 0 33.692 0 57.758-43.319 101.077-101.077 105.889-105.889 0-211.78 43.319-288.79 120.329v0c-24.066 24.066-62.571 24.066-91.45 0v0c-77.010-77.010-178.087-120.329-288.79-120.329-57.758-4.813-101.077-48.131-101.077-105.889 0-9.627 0-24.066 0-33.692v0c0-120.329-4.813-269.538 43.319-404.306 24.066-72.198 67.385-139.582 125.143-192.526 67.385-67.385 154.022-115.516 240.659-144.395 4.813 0 4.813 0 9.627-4.813 9.627 0 19.252 0 28.879 0 4.813 0 4.813 0 9.627 4.813 91.45 28.879 173.274 77.010 240.659 144.395 52.945 52.945 96.264 120.329 125.143 192.526 52.945 134.768 48.131 283.977 48.131 404.306zM844.109 277.459c-52.945-144.395-158.835-240.659-327.296-298.417 0 0 0 0 0 0s-4.813 0-4.813 0c0 0 0 0 0 0-168.461 57.758-279.163 158.835-332.109 298.417-48.131 125.143-43.319 264.724-43.319 385.054v0c0 9.627 0 19.252 0 33.692 0 24.066 19.252 48.131 43.319 48.131 62.571 4.813 120.329 14.44 178.087 38.506 52.945 24.066 105.889 57.758 144.395 96.264 0 0 4.813 0 9.627 0 43.319-43.319 91.45-77.010 144.395-96.264 57.758-24.066 115.516-38.506 178.087-38.506 24.066 0 43.319-24.066 43.319-48.131 0-14.44 0-24.066 0-33.692 14.44-125.143 14.44-259.911-33.692-385.054v0zM512 681.765c-139.582 0-255.098-115.516-255.098-255.098s115.516-255.098 255.098-255.098c139.582 0 255.098 115.516 255.098 255.098s-115.516 255.098-255.098 255.098zM512 229.327c-105.889 0-197.34 86.637-197.34 197.34s86.637 197.34 197.34 197.34c105.889 0 197.34-86.637 197.34-197.34 0-105.889-91.45-197.34-197.34-197.34zM584.198 503.677l-120.329-120.329-33.692 33.692c-14.44 9.627-28.879 9.627-43.319 0-9.627-9.627-9.627-28.879 0-43.319l52.945-52.945c9.627-9.627 28.879-9.627 43.319 0l139.582 139.582c9.627 14.44 9.627 28.879 0 43.319s-24.066 14.44-38.506 0z" />
<glyph unicode="&#xe92e;" glyph-name="icon-attachment" d="M805.197 894.905c-43.761-4.375-87.52-30.633-118.153-61.265l-472.616-472.616c-21.881-21.881-35.009-48.136-43.761-74.393-13.127-91.897 61.265-170.668 153.162-153.162 30.633 4.375 56.89 21.881 74.393 39.384l437.607 428.853c8.752 8.752 8.752 21.881 0 30.633l-30.633 30.633c-8.752 8.752-21.881 8.752-30.633 0l-437.607-437.607c-8.752-8.752-21.881-13.127-35.009-13.127-26.257 0-48.136 21.881-48.136 48.136 0 13.127 4.375 26.257 13.127 35.009l485.743 485.743c21.881 21.881 48.136 30.633 78.769 30.633 61.265 0 109.402-48.136 109.402-109.402 0-26.257-8.752-56.89-30.633-74.393l-507.625-525.128c-30.633-30.633-70.017-52.512-113.778-61.265-113.778-13.127-214.428 83.145-205.674 196.923 4.375 43.761 26.257 87.52 56.89 118.153l472.616 472.616c8.752 8.752 8.752 21.881 0 30.633l-30.633 30.633c-8.752 8.752-21.881 8.752-30.633 0l-472.616-472.616c-52.512-52.512-78.769-118.153-78.769-192.546 0-70.017 26.257-135.659 78.769-183.795 118.153-118.153 288.821-100.651 385.094 0l507.625 525.128c35.009 35.009 52.512 83.145 52.512 135.659 0 113.778-100.651 205.674-218.804 192.546z" />
<glyph unicode="&#xe92f;" glyph-name="icon-external-link" d="M787.692 352.274h-35.009c-4.376 0-8.752 0-13.128-4.376s-8.752-8.752-8.752-13.128v-183.794c0-26.257-8.752-48.137-26.257-65.641s-39.384-26.257-65.641-26.257h-472.616c-26.257 0-48.137 8.752-65.641 26.257-17.504 21.88-26.257 43.761-26.257 65.641v476.991c0 26.257 8.752 48.137 26.257 65.641s39.384 26.257 65.641 26.257h402.598c4.376 0 8.752 0 13.128 4.376s4.376 8.752 4.376 13.128v35.009c0 4.376 0 8.752-4.376 13.128s-8.752 4.376-13.128 4.376h-402.598c-48.137 4.376-87.521-13.128-118.153-43.761-30.632-35.009-48.137-74.393-48.137-118.153v-476.991c0-43.761 17.504-83.146 48.137-118.153 30.632-30.632 70.017-43.761 118.153-43.761h476.991c43.761 0 83.146 17.504 118.153 48.137 30.632 30.632 48.137 70.017 48.137 118.153v183.794c0 4.376 0 8.752-4.376 13.128-8.752 0-13.128 0-17.504 0zM1015.248 855.521c-8.752 4.376-17.504 8.752-26.257 8.752h-293.197c-8.752 0-17.504-4.376-26.257-8.752-8.752-8.752-8.752-17.504-8.752-26.257s4.376-17.504 8.752-26.257l100.65-100.65-371.966-371.966c-4.376-4.376-4.376-8.752-4.376-13.128s0-8.752 4.376-13.128l65.641-65.641c4.376-4.376 8.752-4.376 13.128-4.376s8.752 0 13.128 4.376l371.966 371.966 100.65-100.65c8.752-8.752 17.504-8.752 26.257-8.752s17.504 4.376 26.257 8.752c8.752 8.752 8.752 17.504 8.752 26.257v293.197c0 8.752-4.376 17.504-8.752 26.257z" />
</font>
</defs>
</svg>
