<?xml version="1.0" standalone="no"?>
<!DOCTYPE svg PUBLIC "-//W3C//DTD SVG 1.1//EN" "http://www.w3.org/Graphics/SVG/1.1/DTD/svg11.dtd" >
<svg xmlns="http://www.w3.org/2000/svg">
<metadata>Generated by IcoMoon</metadata>
<defs>
<font id="fs-font" horiz-adv-x="1024">
<font-face units-per-em="1024" ascent="960" descent="-64" />
<missing-glyph horiz-adv-x="1024" />
<glyph unicode="&#x20;" horiz-adv-x="512" d="" />
<glyph unicode="&#xe900;" glyph-name="icon-bin" d="M352 640h64v-512h-64v512zM480 640h64v-512h-64v512zM608 640h64v-512h-64v512zM89.6 832h844.8v-64h-844.8v64zM672 800h-57.6v64c0 19.2-12.8 32-32 32 0 0 0 0 0 0h-134.4c-19.2 0-32-12.8-32-32 0 0 0 0 0 0v-64h-64v64c0 51.2 44.8 96 96 96h128c51.2 0 96-44.8 96-96v-64zM704-64h-384c-51.2 0-96 44.8-102.4 96l-57.6 768 64 6.4 57.6-768c0-25.6 19.2-38.4 38.4-38.4h384c19.2 0 32 12.8 38.4 32l57.6 768 64-6.4-57.6-768c0-51.2-44.8-89.6-102.4-89.6z" />
<glyph unicode="&#xe901;" glyph-name="icon-heart" horiz-adv-x="1083" d="M857.084 406.717l-85.944-94.537c-6.139-7.379-15.961-11.050-25.796-9.822-9.822 1.228-18.416 6.139-23.315 14.721l-69.983 122.777-67.527-89.627c-7.367-9.822-19.644-13.506-30.694-12.277-11.050 2.455-20.871 11.050-23.328 22.1l-51.566 207.505-67.527-317.991c-2.455-13.506-14.733-23.315-28.238-24.555-1.228 1.228-1.228 1.228-2.455 1.228-13.506 0-24.555 8.594-29.467 20.871l-77.35 244.325-58.933-74.894c-6.139-7.379-14.733-11.050-24.555-11.050h-16.022c143.783-195.719 347.519-459.184 364.708-459.184 18.061 0 223.134 264.914 367.065 460.412h-49.074zM803.063 970.261c-106.816 0-200.125-63.844-240.643-157.154 0 0-7.379-20.871-22.1-20.871-15.961 0-22.1 20.871-22.1 20.871-40.516 92.082-132.598 157.154-240.643 157.154-146.104 1.228-263.969-116.637-263.969-261.514 0-33.15 0-60.16 20.871-101.904 8.631-17.594 45.28-70.854 95.165-139.965h46.029l85.944 108.043c7.367 8.594 18.416 13.506 29.467 11.050s19.644-9.822 23.328-20.871l60.16-187.848 71.211 335.18c2.455 13.506 14.733 24.555 29.467 24.555s27.011-9.822 30.694-23.328l67.527-273.791 56.477 74.894c6.139 8.594 15.961 12.277 25.783 12.277s19.657-6.139 24.555-14.733l73.666-127.688 67.527 73.666c6.139 6.139 13.518 9.822 22.1 9.822h105.588c0.59 0 1.13-0.135 1.695-0.172 49.332 68.178 85.502 120.554 94.071 137.682 13.506 31.922 20.871 66.299 20.871 101.904 0 144.877-117.865 262.742-262.742 262.742z" />
<glyph unicode="&#xe902;" glyph-name="icon-person" d="M946.424 229.882c-46.545 41.374-103.435 72.405-160.323 98.262-41.374 20.686-82.747 41.374-124.121 67.232 62.061 72.405 103.435 160.323 108.606 258.586 5.171 62.061-5.171 129.292-31.030 186.182s-93.091 124.121-232.727 124.121-201.697-67.232-227.556-124.121c-25.859-56.889-36.202-124.121-31.030-186.182 5.171-93.091 41.374-186.182 108.606-258.586-41.374-25.859-77.576-46.545-124.121-67.232-56.889-25.859-108.606-56.889-160.323-98.262-46.545-56.889-72.405-129.292-72.405-201.697 0-46.545 36.202-82.747 82.747-87.92 0 0 0 0 0 0h848.162c46.545 0 82.747 36.202 82.747 82.747 0 0 0 0 0 0 5.171 77.576-20.686 149.98-67.232 206.868zM951.596 12.669c-5.171-5.171-10.344-5.171-15.515-5.171h-848.162c-5.171 0-10.344 0-15.515 5.171s-5.171 10.344-5.171 15.515c0 56.889 20.686 113.777 51.717 155.152 41.374 36.202 93.091 62.061 144.808 82.747 46.545 20.686 93.091 46.545 139.636 77.576l41.374 41.374-36.202 46.545c-51.717 62.061-87.92 139.636-93.091 217.212-5.171 51.717 5.171 108.606 25.859 160.323 36.202 62.061 103.435 93.091 175.838 87.92 72.405 10.344 139.636-25.859 175.838-87.92 20.686-51.717 31.030-103.435 25.859-160.323-5.171-82.747-36.202-160.323-93.091-217.212l-36.202-46.545 41.374-41.374c41.374-31.030 87.92-56.889 139.636-77.576s98.262-51.717 144.808-82.747c36.202-46.545 51.717-98.262 51.717-155.152-10.344-5.171-10.344-10.344-15.515-15.515z" />
<glyph unicode="&#xe903;" glyph-name="icon-auto" horiz-adv-x="1083" d="M1081.42 537.462c-13.082 46.38-80.867 35.675-120.111 26.164-8.323 38.057-35.675 142.709-95.141 190.277-11.893 9.512-83.248 57.085-317.525 51.138-8.323 0-66.596 1.189-132.004-3.57-134.386-8.323-177.196-30.921-197.412-47.569-59.462-47.569-88.002-153.409-95.141-191.465-39.245 9.512-109.411 21.405-122.492-26.164-8.323-32.11 17.84-47.569 40.433-53.515 15.459-4.758 24.975-21.405 19.028-36.868-5.947-20.216-13.082-45.191-13.082-63.031 0-35.675 0-83.248 0-83.248v-136.763c0-16.652 13.082-29.728 29.728-29.728h130.816c16.652 0 29.728 13.082 29.728 29.728 0 13.082 0 26.164 0 29.728 0-11.893 195.036-23.786 302.066-23.786s302.066 11.893 302.066 23.786c0-3.57 0-16.652 0-29.728 0-16.652 13.082-29.728 29.728-29.728h130.816c16.652 0 29.728 13.082 29.728 29.728v136.763c0 0 0 47.569 0 83.248 0 19.028-5.947 44.003-13.082 63.031-4.758 15.459 3.57 32.11 19.028 36.868 24.975 8.323 51.138 22.594 42.814 54.703zM297.711 299.617c-11.893-23.786-130.816 23.786-142.709 47.569s-35.675 59.462-11.893 59.462 154.602-47.569 154.602-47.569c15.459-11.893 11.893-35.675 0-59.462zM611.67 638.546c-20.216-13.082-28.54-33.298-32.11-49.95-3.57-13.082-24.975-21.405-38.057-21.405s-34.487 8.323-38.057 21.405c-3.57 15.459-13.082 35.675-32.11 49.95-35.675 23.786-142.709 23.786-190.277-11.893-23.786-17.84-29.728-35.675-29.728-48.757 0-14.27-10.705-26.164-23.786-28.54l-22.594-4.758c8.323 35.675 30.921 116.546 66.596 143.897 29.728 23.786 166.492 35.675 275.903 32.11h2.377c104.653 2.377 235.468-9.512 264.010-32.11 32.11-26.164 57.085-98.706 66.596-145.086 0 0-1.189 0-1.189 0l-22.594 4.758c-13.082 2.377-23.786 14.27-23.786 28.54 0 13.082-5.947 30.921-29.728 48.757-48.757 36.868-155.791 36.868-191.465 13.082zM914.928 347.185c-11.893-23.786-130.816-71.355-142.709-47.569s-16.652 47.569 0 59.462c0 0 130.816 47.569 154.602 47.569s0-35.675-11.893-59.462z" />
<glyph unicode="&#xe904;" glyph-name="icon-event" horiz-adv-x="1083" d="M505.142-40.355c-10.922 0-21.844 3.64-29.126 12.136-25.484 25.484-66.745 25.484-92.229 0-15.776-15.776-42.475-15.776-59.463 0l-281.543 281.543c-15.776 15.776-15.776 42.475 0 59.463 25.484 25.484 25.484 66.745 0 92.229-15.776 15.776-15.776 42.475 0 59.463l507.261 507.261c15.776 15.776 42.475 15.776 59.463 0 25.484-25.484 66.745-25.484 92.229 0 15.776 15.776 42.475 15.776 59.463 0l281.543-281.543c15.776-15.776 15.776-42.475 0-59.463-25.484-25.484-25.484-66.745 0-92.229 15.776-15.776 15.776-42.475 0-59.463l-508.475-507.261c-7.282-8.495-18.202-12.136-29.126-12.136zM126.516 287.301l231.788-231.788c44.902 24.27 98.298 24.27 143.2 0l457.507 457.507c-12.136 21.844-18.202 46.115-18.202 71.599s6.068 49.754 18.202 71.599l-231.788 230.574c-21.844-12.136-46.115-18.202-71.599-18.202s-49.754 6.068-71.599 18.202l-457.507-457.507c24.27-43.686 24.27-98.298 0-141.985zM425.047 153.811l-200.236 200.236c-24.27 24.27-24.27 61.891 0 86.163l349.501 349.501c24.27 24.27 61.891 24.27 86.163 0l200.236-200.236c24.27-24.27 24.27-61.891 0-86.163l-350.714-349.501c-23.058-24.27-61.891-24.27-84.948 0zM393.495 367.394l251.203 251.203c12.136 12.136 12.136 30.339 0 42.475s-30.339 12.136-42.475 0l-251.203-251.203c-12.136-12.136-12.136-30.339 0-42.475 6.068-6.068 13.351-8.495 20.63-8.495s15.776 2.426 21.844 8.495zM537.908 340.698l133.49 133.49c12.136 12.136 12.136 30.339 0 42.475s-30.339 12.136-42.475 0l-133.49-133.49c-12.136-12.136-12.136-30.339 0-42.475 6.068-6.068 13.351-8.495 20.63-8.495s15.776 2.426 21.844 8.495z" />
<glyph unicode="&#xe905;" glyph-name="icon-house" horiz-adv-x="1083" d="M146.135 525.324l392.541 281.997 395.924-281.997v-533.538h-154.534l-1.125 356.445h-182.734v-356.445h-450.068v533.538zM504.836 157.598v180.477c0 6.77-4.511 11.28-11.28 11.28h-180.477c-6.77 0-11.28-4.511-11.28-11.28v-180.477c0-6.77 4.511-11.28 11.28-11.28h180.477c6.77 0 11.28 4.511 11.28 11.28zM762.016 797.168v98.136h122.951v-186.119l181.607-130.847c18.048-12.408 21.432-37.224 9.024-55.272-7.896-11.28-20.306-16.92-31.584-16.92-7.896 0-15.792 2.256-22.557 7.896l-480.523 344.037-478.268-344.037c-18.048-13.536-42.864-9.024-55.272 9.024s-9.024 42.864 9.024 55.272l501.955 360.956c13.536 10.153 32.711 10.153 46.247 0l197.398-142.128z" />
<glyph unicode="&#xe906;" glyph-name="icon-key" horiz-adv-x="1083" d="M727.778 981.316c-180.119 0-326.926-146.808-326.926-326.926 0-44.411 8.635-86.359 24.674-124.601l-397.245-397.245v-175.183h150.509v123.368h123.368v123.368h135.705l152.976 152.976c41.944-19.739 87.592-29.608 136.937-29.608 180.119 0 326.926 146.808 326.926 326.926 0 181.352-146.808 326.926-326.926 326.926zM814.134 623.549c-57.983 0-104.862 46.879-104.862 106.096 0 57.983 46.879 104.862 104.862 104.862s104.862-46.879 104.862-104.862c0-59.217-46.879-106.096-104.862-106.096z" />
<glyph unicode="&#xe907;" glyph-name="icon-plane" horiz-adv-x="1083" d="M1027.74 960.987c-38.221 38.221-92.47 14.794-114.664-7.399-12.328-12.328-215.766-205.902-215.766-205.902l-532.633 82.608-76.442-92.47 413.037-184.942-292.209-311.936-173.846-28.358v-61.648l145.489-46.852 59.182-146.721h61.648l14.794 176.312 305.771 293.441 183.71-417.969 91.239 77.675-69.046 538.798c0 0 181.242 208.369 191.107 218.232 24.659 23.427 45.62 78.908 8.631 117.128z" />
<glyph unicode="&#xe908;" glyph-name="icon-legal-id" d="M495.933 632.235h-428.452v166.025h429.523v-166.025zM728.369 433.005c10.712 0 18.209-2.142 26.779-7.498l115.682-76.050c12.854-7.498 28.921-12.854 44.987-12.854h108.184v34.276h-109.255c-10.712 0-18.209 2.142-26.779 7.498l-47.129 32.134v549.49h-626.611v-99.615h-213.155v-924.385h626.611v99.615h213.155v139.247h3.213l76.050 18.209c16.067 5.355 34.276 5.355 52.486 5.355h50.343v35.347h-50.343c-21.422 0-39.632-2.142-61.054-7.498l-76.050-18.209c-39.632-10.712-81.406-7.498-121.037 5.355l-28.921 10.712c-26.779 7.498-52.486 12.854-79.263 12.854h-144.603c0 26.779 21.422 50.343 50.343 50.343h182.092c26.779 0 50.343 21.422 50.343 50.343 0 26.779-18.209 47.129-44.987 50.343l12.854 50.343 16.067-5.355zM706.945 180.217c26.779-7.498 52.486-12.854 79.263-12.854 7.498 0 16.067 0 23.565 2.142v-99.615h-182.092v55.699c5.355 7.498 10.712 16.067 12.854 23.565l12.854 50.343c7.498-2.142 16.067-2.142 26.779-7.498l26.779-11.782zM620.184 201.64l-12.854-44.987c-2.142-12.854-12.854-21.422-26.779-21.422h-5.355c-16.067 0-26.779 12.854-26.779 26.779 0 2.142 0 5.355 0 7.498l7.498 32.134h52.486c6.427 0 8.569 0 11.782 0v0zM524.854 201.64l-5.355-23.565c-7.498-26.779 5.355-55.699 28.921-68.553l-5.355-21.422 32.134-7.498 5.355 21.422h2.142c5.355 0 7.498 0 12.854 2.142v-133.891h-562.343v857.975h216.369v100.687h561.272v-500.217l-36.419 23.565c-12.854 7.498-28.921 12.854-44.987 12.854v0l68.553 254.929c7.498 32.134-10.712 65.339-41.774 73.908-5.355 2.142-10.712 2.142-16.067 2.142h-5.355c-26.779 0-50.343-18.209-57.841-44.987l-47.129-171.381v282.778h-349.188v-34.276h313.841v-363.113h-34.276c-18.209 0-34.276-5.355-50.343-16.067h-163.883v-34.276h128.536l-34.276-34.276h-97.473v-34.276h63.196l-26.779-26.779c-21.422-18.209-21.422-52.486 0-73.908 12.854-12.854 34.276-18.209 52.486-12.854v-2.142c0-18.209 16.067-34.276 34.276-34.276l58.912 5.355zM651.247 317.322h-61.054l68.553 258.143 57.841-18.209-65.339-239.933zM524.854 418.008c10.712 10.712 21.422 12.854 34.276 12.854h26.779l-12.854-50.343c-21.422 0-39.632-7.498-55.699-23.565l-84.62-84.62c-7.498-7.498-18.209-7.498-26.779 0-2.142 2.142-5.355 7.498-5.355 12.854s2.142 10.712 5.355 12.854l118.895 119.967zM540.921 336.603c5.355 5.355 12.854 10.712 23.565 12.854l-7.498-32.134h-32.134l16.067 19.28zM762.644 728.636l-21.422-73.908-57.841 18.209 18.209 70.695c2.142 12.854 12.854 21.422 26.779 21.422h5.355c16.067 0 26.779-12.854 26.779-26.779 4.285-4.285 4.285-7.498 2.142-9.64v0zM678.025 641.875l57.841-18.209-7.498-34.276-61.054 18.209 10.712 34.276zM699.448 349.456c7.498 0 16.067-7.498 16.067-16.067s-7.498-16.067-16.067-16.067h-12.854l7.498 34.276h5.355v-2.142zM67.481 531.548h197.088v-197.088h-197.088c0 0 0 197.088 0 197.088zM340.619 570.109l-23.565 23.565-153.171-152.101-21.422 18.209-23.565-23.565 44.987-44.987 176.736 178.878zM67.481 249.841h197.088v-197.088h-197.088c0 0 0 197.088 0 197.088zM320.268 311.966l-156.385-152.101-21.422 21.422-23.565-23.565 44.987-44.987 176.736 175.665-20.352 23.565zM528.067 53.824h34.276v-34.276h-34.276v34.276zM314.912 53.824h182.092v-34.276h-182.092v34.276zM345.975 515.481h213.155v-34.276h-213.155c0 0 0 34.276 0 34.276z" />
<glyph unicode="&#xe909;" glyph-name="icon-bank-branch" d="M923.305 35.629v66.064h-31.967v361.224h31.967v107.621l-216.308 98.031-12.787-28.77 198.194-89.507v-55.409h-219.504v-31.967h21.311v-361.224h-31.967v279.176h-31.967v-279.176h-229.094v279.176h-31.967v-279.176h-31.967v361.224h21.311v31.967h-218.44v57.54l198.194 89.507-12.787 28.77-216.308-98.031v-107.621h31.967v-361.224h-31.967v-66.064h-31.967v-98.031h886.544v98.031l-40.491-2.131zM857.241 101.694h-31.967v361.224h31.967v-361.224zM725.111 462.917h66.064v-361.224h-66.064v361.224zM298.889 101.694h-66.064v361.224h66.064v-361.224zM166.759 462.917h31.967v-361.224h-31.967v361.224zM923.305-30.435h-822.611v31.967h722.448v31.967h-688.35v31.967h754.415v-31.967h-31.967v-31.967h66.064c0-1.066 0-31.967 0-31.967zM504.541 834.797h26.639v-26.639h-26.639v26.639zM517.327 808.158c123.604 0 223.767-94.834 223.767-210.98s-100.163-210.98-223.767-210.98-223.767 94.834-223.767 210.98 100.163 210.98 223.767 210.98zM512 609.964c-18.114 0-31.967 15.983-31.967 31.967 0 18.114 15.983 31.967 31.967 31.967 18.114 0 31.967-15.983 31.967-31.967v0h31.967c0 28.77-21.311 55.409-50.081 62.868v34.098h-31.967v-34.098c-34.098-7.459-55.409-44.753-47.95-78.851 8.524-28.77 34.098-50.081 63.933-50.081 18.114 0 31.967-15.983 31.967-31.967 0-18.114-15.983-31.967-31.967-31.967-18.114 0-31.967 15.983-31.967 31.967v0h-31.967c0-28.77 21.311-55.409 50.081-62.868v-34.098h31.967v34.098c34.098 7.459 55.409 44.753 47.95 78.851-8.524 31.967-35.163 50.081-63.933 50.081v0zM635.604 623.817h26.639v-52.213h-26.639v52.213zM372.412 623.817h26.639v-52.213h-26.639v52.213zM161.432 702.668h52.213v-26.639h-52.213v26.639zM100.695 625.948c0 26.639-21.311 50.081-50.081 50.081-26.639 0-50.081-21.311-50.081-50.081 0-21.311 12.787-39.426 31.967-47.95v-184.341h31.967v185.407c23.443 9.59 36.229 28.77 36.229 46.884zM52.745 609.964c-7.459 0-15.983 7.459-15.983 15.983 0 7.459 7.459 15.983 15.983 15.983 7.459 0 15.983-7.459 15.983-15.983 0-7.459-7.459-15.983-15.983-15.983v0zM363.887 905.124c0 26.639-21.311 50.081-50.081 50.081s-50.081-21.311-50.081-50.081c0-21.311 12.787-39.426 31.967-47.95v-36.229h31.967v37.294c23.443 7.459 36.229 26.639 36.229 46.884zM313.806 890.207c-7.459 0-15.983 7.459-15.983 15.983 0 7.459 7.459 15.983 15.983 15.983 7.459 0 15.983-7.459 15.983-15.983 3.197-8.524-5.327-15.983-15.983-15.983v0zM182.743 874.223c-26.639 0-50.081-21.311-50.081-50.081 0-21.311 12.787-39.426 31.967-47.95v-53.278h31.967v53.278c26.639 7.459 39.426 37.294 28.77 62.868-1.066 21.311-22.377 35.163-42.623 35.163zM182.743 808.158c-7.459 0-15.983 7.459-15.983 15.983s7.459 15.983 15.983 15.983c7.459 0 15.983-7.459 15.983-15.983s-5.327-15.983-15.983-15.983v0zM293.56 808.158h52.213v-52.213h-52.213v52.213zM29.303 359.559h52.213v-26.639h-52.213v26.639zM810.356 702.668h52.213v-26.639h-52.213v26.639zM960.6 579.064v-184.341h31.967v184.341c18.114 7.459 31.967 26.639 31.967 47.95 0 28.77-23.443 50.081-50.081 50.081-28.77 0-50.081-23.443-50.081-50.081-1.066-19.18 11.721-38.36 36.229-47.95zM971.255 609.964c-7.459 0-15.983 7.459-15.983 15.983 0 7.459 7.459 15.983 15.983 15.983 7.459 0 15.983-7.459 15.983-15.983 0-7.459-8.524-15.983-15.983-15.983v0zM696.341 858.24v-37.294h31.967v37.294c18.114 7.459 31.967 26.639 31.967 47.95 0 28.77-21.311 50.081-50.081 50.081s-50.081-23.443-50.081-50.081c0-21.311 12.787-40.491 36.229-47.95zM710.194 890.207c-10.656 0-18.114 7.459-15.983 15.983 0 7.459 7.459 15.983 15.983 15.983 7.459 0 15.983-7.459 15.983-15.983-1.066-8.524-8.524-15.983-15.983-15.983v0zM799.7 840.125c-10.656-26.639 2.131-55.409 28.77-62.868v-53.278h31.967v53.278c18.114 7.459 31.967 26.639 31.967 47.95 0 28.77-23.443 50.081-50.081 50.081-21.311-1.066-42.623-14.917-42.623-35.163zM841.257 808.158c-10.656 0-15.983 7.459-15.983 15.983s7.459 15.983 15.983 15.983c7.459 0 15.983-7.459 15.983-15.983s-7.459-15.983-15.983-15.983v0zM678.227 808.158h52.213v-52.213h-52.213v52.213zM941.42 359.559h52.213v-26.639h-52.213v26.639z" />
<glyph unicode="&#xe90a;" glyph-name="icon-video-id" d="M754.512 630.416v97.883c0 5.378 2.151 12.908 10.757 15.058-25.815 87.126-118.319 136.605-205.445 110.79-68.841-20.437-118.319-84.975-118.319-157.042v-81.748c10.757 0 15.058-7.53 15.058-15.058v0-81.748h15.058c12.908 10.757 27.966 18.285 44.101 22.588l38.723 10.757 10.757 44.101c-27.966 12.908-44.101 40.874-44.101 72.068v48.403l5.378 2.151c27.966 10.757 57.008 25.815 77.445 48.403 20.437-20.437 48.403-38.723 77.445-48.403l5.378-2.151v-48.403c0-31.193-18.285-59.16-44.101-72.068v0l10.757-44.101 38.723-10.757c31.193-7.53 53.781-27.966 66.689-57.008h10.757v131.227c-9.681 0-15.058 7.53-15.058 15.058zM101.109 859.966h33.345v-33.345h-33.345v33.345zM167.798 859.966h33.345v-33.345h-33.345v33.345zM232.336 859.966h33.345v-33.345h-33.345v33.345zM922.891 695.395h33.345v-33.345h-33.345v33.345zM856.202 695.395h33.345v-33.345h-33.345v33.345zM791.664 695.395h33.345v-33.345h-33.345v33.345zM989.58 762.085v131.227c0 18.285-15.058 33.345-33.345 33.345h-590.521c0 18.285-15.058 33.345-33.345 33.345h-297.95c-18.285 0-33.345-15.058-33.345-33.345v-164.572c0-18.285 15.058-33.345 33.345-33.345h107.563l53.781-53.781c15.058-15.058 40.874-15.058 57.008 0 7.53 7.53 12.908 18.285 12.908 27.966v25.815h33.345v-100.034h-81.748c-57.008 0-105.411-40.874-112.941-97.883h-3.227c-35.496 0-66.689-27.966-66.689-66.689v-66.689c0-35.496 27.966-66.689 66.689-66.689h31.193c15.058-33.345 38.723-64.538 66.689-87.126l-10.757-44.101c-102.185-6.454-185.009-91.429-185.009-196.84v-66.689h559.328v66.689c0 102.185-79.596 190.387-185.009 197.916l-10.757 44.101c27.966 25.815 51.63 53.781 66.689 87.126h31.193c22.588 0 44.101 12.908 57.008 33.345h40.874v-67.765h-66.689v-27.966h295.798v33.345h-66.689v66.689h231.26c18.285 0 33.345 15.058 33.345 33.345v197.916c18.285 0 33.345 15.058 33.345 33.345v97.883c-2.151 15.058-15.058 30.118-33.345 30.118zM232.336 762.085v-59.16c0-5.378-2.151-7.53-7.53-7.53-2.151 0-2.151 0-5.378 2.151l-64.538 64.538h-120.471v164.572h297.95v-164.572h-100.034zM101.109 367.328c-18.285 0-33.345 15.058-33.345 33.345v66.689c0 18.285 15.058 33.345 33.345 33.345v-35.496c0-33.345 5.378-64.538 15.058-94.656l-15.058-3.227zM334.521 236.101l7.53-33.345h-122.622l7.53 33.345h107.563zM527.058 4.84v-33.345h-66.689v66.689h-33.345v-66.689h-292.571v66.689h-33.345v-66.689h-66.689v33.345c0 90.353 74.219 164.572 164.572 164.572h164.572c91.429 0 163.496-74.219 163.496-164.572v0zM342.051 269.445h-120.471c-57.008 48.403-87.126 120.471-87.126 194.69v51.63c0 46.252 35.496 81.748 81.748 81.748h212.975v-133.379c1.076-76.369-30.118-146.286-87.126-194.69zM496.942 400.673c0-18.285-15.058-33.345-33.345-33.345h-16.134c10.757 31.193 15.058 64.538 15.058 94.656v35.496c18.285 0 33.345-15.058 33.345-33.345v-63.462zM501.243 518.992c2.151 0 5.378 2.151 10.757 2.151l48.403 12.908 7.53 33.345c18.285-5.378 35.496-5.378 53.781 0l8.605-33.345 48.403-12.908c15.058-2.151 27.966-10.757 38.723-22.588 0 0 0 0 0-2.151h-200.067c-3.227 9.681-7.53 17.21-16.134 22.588v0zM593.748 739.496c20.437-18.285 40.874-31.193 66.689-38.723v-38.723c0-35.496-27.966-66.689-66.689-66.689-35.496 0-66.689 27.966-66.689 66.689v0 38.723c25.815 7.53 46.252 20.437 66.689 38.723v0zM691.63 300.639h-97.883v66.689h97.883v-66.689zM527.058 400.673v66.689h425.95v-66.689h-425.95zM956.235 498.554h-197.916c-15.058 27.966-40.874 48.403-72.068 57.008l-27.966 7.53-5.378 20.437c25.815 18.285 40.874 48.403 40.874 79.596v61.311l-15.058 5.378c-25.815 7.53-46.252 20.437-66.689 38.723v25.815h-33.345v-25.815c-18.285-18.285-40.874-31.193-66.689-38.723l-15.058-5.378v-61.311c0-31.193 15.058-61.311 40.874-79.596l-5.378-20.437-27.966-7.53c-15.058-2.151-27.966-10.757-38.723-18.285v61.311c0 18.285-15.058 33.345-33.345 33.345h-100.034v97.883c18.285 0 33.345 15.058 33.345 33.345v130.152h590.521v-131.227h-197.916c-18.285 0-33.345-15.058-33.345-33.345v-100.034c0-18.285 15.058-33.345 33.345-33.345h33.345v-25.815c0-22.588 18.285-38.723 38.723-38.723 10.757 0 20.437 5.378 27.966 12.908l53.781 53.781h44.101v-98.958zM989.58 628.706h-90.353l-64.538-64.538c-2.151-2.151-7.53-2.151-10.757 0 0 0-2.151 2.151-2.151 5.378v59.16h-66.689v97.883h231.26l3.227-97.883z" />
<glyph unicode="&#xe90e;" glyph-name="icon-envelope-open" d="M977.455 640l-418.909 325.818c-25.859 20.687-64.646 20.687-90.505 0l-421.495-325.818h930.909zM946.424-42.667h-868.848c-12.929 0-23.273 7.758-28.444 18.101l271.515 217.212c12.929 10.343 15.515 31.030 5.172 43.96v0c-10.343 12.929-31.030 15.515-43.96 5.172l-235.313-188.768v576.646l424.081-367.192c23.273-20.687 56.889-20.687 80.162 0l426.667 367.192v-576.646l-235.313 188.768c-12.929 10.343-33.616 7.758-43.96-5.172v0c-10.343-12.929-7.758-33.616 5.172-43.96l271.515-217.212c-5.172-10.343-15.515-18.101-28.444-18.101z" />
<glyph unicode="&#xe913;" glyph-name="icon-credit-card" d="M0.001 661.333v128c0 11.377 2.845 22.755 11.377 31.289s19.911 11.377 31.289 11.377h938.664c11.377 0 22.755-2.845 31.289-11.377s11.377-17.066 11.377-31.289v-128h-1023.998zM1023.999 576v-469.333c0-11.377-5.689-22.755-11.377-31.289-8.534-8.534-19.911-11.377-31.289-11.377h-938.664c-11.377 0-22.755 2.845-31.289 11.377s-11.377 17.066-11.377 31.289v469.333h1023.998zM85.335 149.334h341.333v170.666h-341.333v-170.666z" />
<glyph unicode="&#xe914;" glyph-name="icon-edit" d="M923.279 498.36v-190.251c0-92.328-33.574-170.667-97.923-237.814-67.147-64.35-145.487-97.923-237.814-97.923h-251.804c-92.328 0-170.667 33.574-237.814 97.923-64.35 64.35-97.923 145.487-97.923 237.814v251.804c0 92.328 33.574 170.667 97.923 237.814 64.35 64.35 145.487 97.923 237.814 97.923 204.241-2.798 316.154-8.394 332.94-11.191l-156.678-156.678h-260.198c-22.382 0-41.967-8.394-58.755-25.18s-25.18-36.371-25.18-58.755v-419.672c0-22.382 8.394-41.967 25.18-58.755s36.371-25.18 58.755-25.18h419.672c22.382 0 41.967 8.394 58.755 25.18s25.18 36.371 25.18 58.755v106.317l167.868 167.868zM366.513 260.546l134.296 41.967 346.929 346.929-97.923 95.126-338.536-341.334-44.765-142.688zM928.875 730.58l95.126 95.126-16.787 72.743-78.339 22.382-95.126-95.126 95.126-95.126z" />
<glyph unicode="&#xe915;" glyph-name="icon-envelope" d="M512 360.105l-512 514.56h1024l-512-514.56zM0 704v-512l256 256-256 256zM512 192l-170.665 170.665-341.335-341.335h1024l-341.335 341.335-170.665-170.665zM768 448l256-256v512l-256-256z" />
<glyph unicode="&#xe917;" glyph-name="icon-file" d="M554.736 533.335h341.326v-576.050c0-6.228-2.049-11.333-5.926-15.429s-9.147-5.926-15.429-5.926h-725.417c-6.228 0-11.333 2.049-15.429 5.926s-5.926 9.147-5.926 15.429v981.291c0 6.228 2.049 11.333 5.926 15.429s9.147 5.926 15.429 5.926h405.377v-426.678zM896.079 618.661h-256.008v256.008l256.008-256.008z" />
<glyph unicode="&#xe91c;" glyph-name="icon-list-alt" d="M981.335 959.998v-1024h-938.664v1024h938.664zM895.999 789.332h-767.999v-767.999h767.999v767.999zM298.666 704.001h-85.335v-85.335h85.335v85.335zM298.666 533.335h-85.335v-85.335h85.335v85.335zM298.666 362.665h-85.335v-85.335h85.335v85.335zM298.666 191.999h-85.335v-85.335h85.335v85.335zM810.664 704.001h-426.667v-85.335h426.667v85.335zM810.664 533.335h-426.667v-85.335h426.667v85.335zM810.664 362.665h-426.667v-85.335h426.667v85.335zM810.664 106.668h-426.667v85.335h426.667v-85.335z" />
<glyph unicode="&#xe91e;" glyph-name="icon-map-marker" d="M512 959.86c68.471 0 131.654-17.537 189.546-52.606s103.54-82.387 137.217-141.672c33.677-59.284 50.658-123.024 50.658-191.775 0-68.471-20.32-144.176-60.956-227.119-40.636-63.46-87.119-129.426-139.169-197.897s-94.078-121.077-125.807-157.817l-47.595-55.109c-5.567 5.011-13.081 12.245-22.544 21.711s-27.835 29.226-55.39 58.728c-27.555 29.782-54.273 60.12-80.16 91.014s-54.833 68.471-86.839 113.006c-32.010 44.535-60.12 87.675-84.056 129.426-35.069 77.376-52.606 150.302-52.606 218.773 0 69.027 16.977 133.322 50.658 193.166s79.604 107.715 137.777 143.62c58.172 36.74 121.352 54.553 189.267 54.553zM511.164 376.19c59.564 0 110.222 20.876 152.25 63.183 42.028 42.028 62.904 92.686 62.904 152.526 0 59.564-20.876 110.222-62.904 151.97s-92.966 62.624-152.25 62.624c-59.564 0-110.222-21.152-151.97-63.183s-62.624-92.686-62.624-151.414c0-59.564 20.876-110.499 63.183-152.526 42.028-42.307 92.405-63.183 151.414-63.183z" />
<glyph unicode="&#xe921;" glyph-name="icon-selected-item" d="M954.292 683.026v0c0 4.807-4.807 4.807-4.807 9.616l-144.226 245.183c-9.616 19.23-28.845 28.845-48.075 28.845h-490.367c-19.23 0-38.461-9.616-48.075-28.845l-144.226-249.991c0 0 0-4.807-4.807-4.807 0-4.807-4.807-9.616-4.807-19.23v-649.015c0-38.461 33.652-72.113 72.113-72.113h749.973c38.461 0 72.113 33.652 72.113 72.113v649.015c0 0 0 0 0 4.807 0 0 0 9.616-4.807 14.423zM540.845 904.171h211.531l110.573-192.3h-326.912v192.3zM266.817 904.171h216.338v-192.3h-326.912l110.573 192.3zM896.602 9.973c0-4.807-4.807-9.616-9.616-9.616h-749.973c-4.807 0-9.616 4.807-9.616 9.616v639.4h769.203v-639.4zM649.735 425.583c-9.616 9.616-28.845 9.616-43.268 0l-134.61-134.61-52.883 52.883c-9.616 9.616-28.845 9.616-43.268 0s-9.616-28.845 0-43.268l72.113-72.113c9.616-9.616 28.845-9.616 43.268 0 0 0 0 0 0 0l153.841 153.841c14.423 9.616 14.423 28.845 4.807 43.268 0 0 0 0 0 0z" />
<glyph unicode="&#xe922;" glyph-name="icon-ok" d="M-0.138 368.53l175.495 175.495 170.528-171.357 502.481 502.481 175.495-175.495-677.148-678.804-346.852 347.68z" />
<glyph unicode="&#xe925;" glyph-name="icon-remove" d="M804.276-64l-292.276 292.276-292.276-292.276-219.724 219.724 292.276 292.276-292.276 292.276 219.724 219.724 292.276-292.276 292.276 292.276 219.724-219.724-292.276-292.276 292.276-292.276-219.724-219.724z" />
<glyph unicode="&#xe928;" glyph-name="icon-triangle-bottom" d="M512 185.483l-512.001 525.033h1024z" />
<glyph unicode="&#xe929;" glyph-name="icon-unchecked" d="M372.364 960.001h279.273c99.297 0 186.181-37.237 260.655-111.709s111.709-161.358 111.709-260.655v-279.273c0-102.4-37.237-189.285-111.709-263.757-71.37-71.37-158.254-108.605-260.655-108.605h-279.273c-102.4 0-189.285 37.237-263.757 108.605-71.37 74.472-108.605 161.358-108.605 263.757v279.273c0 102.4 37.237 189.285 108.605 263.757 74.472 71.37 161.358 108.605 263.757 108.605zM744.728 773.818h-465.454c-24.824 0-46.545-9.31-65.164-27.927s-27.927-40.339-27.927-65.164v-465.454c0-24.824 9.31-46.545 27.927-65.164s40.339-27.927 65.164-27.927h465.454c24.824 0 46.545 9.31 65.164 27.927s27.927 40.339 27.927 65.164v465.454c0 24.824-9.31 46.545-27.927 65.164s-40.339 27.927-65.164 27.927z" />
<glyph unicode="&#xe92a;" glyph-name="icon-card-verify" d="M775.314-20.725c-68.267 0-126.781 29.257-170.667 82.896-43.886 48.761-68.267 112.153-68.267 175.543v156.039c0 14.629 9.753 29.257 24.381 39.010l199.924 87.771c4.876 4.876 14.629 4.876 19.504 4.876s14.629 0 19.504-4.876l199.924-87.771c14.629-4.876 24.381-19.504 24.381-39.010v-156.039c0-63.39-24.381-126.781-68.267-175.543s-107.276-78.019-170.667-82.896h-9.753zM614.4 364.494v-126.781c0-92.647 68.267-170.667 160.914-175.543h4.876c92.647 9.753 160.914 87.771 160.914 175.543v126.781l-160.914 73.143-165.79-73.143zM160.914 184.075c-87.771 0-160.914 68.267-160.914 156.039v429.104c0 87.771 73.143 156.039 160.914 156.039h697.296c87.771 0 160.914-68.267 160.914-156.039v-209.676c0-19.504-19.504-39.010-39.010-39.010s-39.010 19.504-39.010 39.010v78.019h-858.21v-297.447c0-43.886 34.133-78.019 78.019-78.019h263.314c19.504 0 39.010-19.504 39.010-39.010s-19.504-39.010-39.010-39.010h-263.314zM82.896 769.218v-53.639h858.21v53.639c0 43.886-34.133 78.019-78.019 78.019h-702.171c-43.886 0-78.019-34.133-78.019-78.019v0z" />
<glyph unicode="&#xe92b;" glyph-name="icon-payment-cards" d="M913.129 861.564h-802.259c-63.593-4.891-112.512-63.593-107.62-127.188v-562.559c-4.891-63.593 44.026-122.295 107.62-127.188h807.15c63.593 4.891 112.512 63.593 107.62 127.188v562.559c0 63.593-44.026 122.295-112.512 127.188zM976.723 171.817c4.891-39.135-24.46-73.377-63.593-78.269h-802.259c-39.135 4.891-68.486 39.135-63.593 78.269v562.559c-4.891 39.135 24.46 73.377 63.593 78.269h807.15c39.135-4.891 68.486-39.135 63.593-78.269l-4.891-562.559zM1001.182 708.303h-978.365c-14.675 0-24.46-14.675-19.567-24.46v-151.646c0-14.675 9.784-24.46 19.567-24.46h978.365c14.675 0 24.46 14.675 19.567 24.46v151.646c0 9.784-9.784 24.46-19.567 24.46zM976.723 556.657h-934.338v102.728h934.338v-102.728zM489.156 350.711h-308.185c-14.675 0-24.46-9.784-24.46-24.46s9.784-24.46 24.46-24.46h308.185c14.675 0 24.46 9.784 24.46 24.46s-9.784 24.46-24.46 24.46zM489.156 248.521h-308.185c-14.675 0-24.46-9.784-24.46-24.46s9.784-24.46 24.46-24.46h308.185c14.675 0 24.46 9.784 24.46 24.46s-9.784 24.46-24.46 24.46zM792.204 401.781h-48.918c-44.026 0-78.269-34.242-78.269-78.269v-48.918c0-44.026 34.242-78.269 78.269-78.269h48.918c44.026 0 78.269 34.242 78.269 78.269v48.918c0 44.026-34.242 78.269-78.269 78.269zM816.662 274.594c0-14.675-9.784-24.46-24.46-24.46v0h-48.918c-14.675 0-24.46 9.784-24.46 24.46v0 48.918c0 14.675 9.784 24.46 24.46 24.46v0h48.918c14.675 0 24.46-9.784 24.46-24.46v0-48.918z" />
<glyph unicode="&#xe92c;" glyph-name="icon-review" d="M785.288 422.147v457.788h-686.683v-861.366h313.223c24.094 0 42.164-18.071 42.164-42.164s-18.071-36.141-42.164-42.164h-355.389c-24.094 0-42.164 18.071-42.164 42.164v939.672c0 24.094 18.071 42.164 42.164 42.164h771.013c24.094 0 42.164-18.071 42.164-42.164v-499.954c0-24.094-18.071-42.164-42.164-42.164-24.094 6.023-42.164 24.094-42.164 48.189 0 0 0 0 0 0zM996.112 319.748c-18.071 18.071-42.164 12.048-60.235-6.023 0 0 0 0 0 0l-228.895-252.989-114.447 108.424c-18.071 18.071-42.164 18.071-60.235 0s-18.071-42.164 0-60.235l144.565-138.542c6.023-6.023 18.071-12.048 30.118-12.048v0c12.048 0 24.094 6.023 30.118 12.048l252.989 283.107c24.094 24.094 24.094 54.212 6.023 66.259 0 0 0 0 0 0v0zM634.7 723.324h-373.46c-24.094 0-42.164-18.071-42.164-42.164s18.071-42.164 42.164-42.164c0 0 0 0 6.023 0h373.46c24.094 0 42.164 18.071 42.164 42.164-6.023 24.094-24.094 42.164-48.189 42.164 0 0 0 0 0 0zM670.841 458.288c0 24.094-18.071 42.164-42.164 42.164h-373.46c-24.094 0-42.164-18.071-42.164-42.164s18.071-42.164 42.164-42.164c0 0 0 0 6.023 0h373.46c18.071 0 36.141 18.071 36.141 42.164zM261.24 277.582c-24.094 0-42.164-18.071-42.164-42.164s18.071-42.164 42.164-42.164c0 0 0 0 6.023 0h108.424c24.094 0 42.164 18.071 42.164 42.164s-18.071 36.141-42.164 42.164h-114.447z" />
<glyph unicode="&#xe92d;" glyph-name="icon-shield" d="M949.998 688.11v0c0 9.627 0 19.252 0 33.692 0 57.758-43.319 101.077-101.077 105.889-105.889 0-211.78 43.319-288.79 120.329v0c-24.066 24.066-62.571 24.066-91.45 0v0c-77.010-77.010-178.087-120.329-288.79-120.329-57.758-4.813-101.077-48.131-101.077-105.889 0-9.627 0-24.066 0-33.692v0c0-120.329-4.813-269.538 43.319-404.306 24.066-72.198 67.385-139.582 125.143-192.526 67.385-67.385 154.022-115.516 240.659-144.395 4.813 0 4.813 0 9.627-4.813 9.627 0 19.252 0 28.879 0 4.813 0 4.813 0 9.627 4.813 91.45 28.879 173.274 77.010 240.659 144.395 52.945 52.945 96.264 120.329 125.143 192.526 52.945 134.768 48.131 283.977 48.131 404.306zM844.109 303.057c-52.945-144.395-158.835-240.659-327.296-298.417 0 0 0 0 0 0s-4.813 0-4.813 0c0 0 0 0 0 0-168.461 57.758-279.163 158.835-332.109 298.417-48.131 125.143-43.319 264.724-43.319 385.054v0c0 9.627 0 19.252 0 33.692 0 24.066 19.252 48.131 43.319 48.131 62.571 4.813 120.329 14.44 178.087 38.506 52.945 24.066 105.889 57.758 144.395 96.264 0 0 4.813 0 9.627 0 43.319-43.319 91.45-77.010 144.395-96.264 57.758-24.066 115.516-38.506 178.087-38.506 24.066 0 43.319-24.066 43.319-48.131 0-14.44 0-24.066 0-33.692 14.44-125.143 14.44-259.911-33.692-385.054v0zM512 707.363c-139.582 0-255.098-115.516-255.098-255.098s115.516-255.098 255.098-255.098c139.582 0 255.098 115.516 255.098 255.098s-115.516 255.098-255.098 255.098zM512 254.925c-105.889 0-197.34 86.637-197.34 197.34s86.637 197.34 197.34 197.34c105.889 0 197.34-86.637 197.34-197.34 0-105.889-91.45-197.34-197.34-197.34zM584.198 529.275l-120.329-120.329-33.692 33.692c-14.44 9.627-28.879 9.627-43.319 0-9.627-9.627-9.627-28.879 0-43.319l52.945-52.945c9.627-9.627 28.879-9.627 43.319 0l139.582 139.582c9.627 14.44 9.627 28.879 0 43.319s-24.066 14.44-38.506 0z" />
<glyph unicode="&#xe92e;" glyph-name="icon-attachment" d="M805.197 920.503c-43.761-4.375-87.52-30.633-118.153-61.265l-472.616-472.616c-21.881-21.881-35.009-48.136-43.761-74.393-13.127-91.897 61.265-170.668 153.162-153.162 30.633 4.375 56.89 21.881 74.393 39.384l437.607 428.853c8.752 8.752 8.752 21.881 0 30.633l-30.633 30.633c-8.752 8.752-21.881 8.752-30.633 0l-437.607-437.607c-8.752-8.752-21.881-13.127-35.009-13.127-26.257 0-48.136 21.881-48.136 48.136 0 13.127 4.375 26.257 13.127 35.009l485.743 485.743c21.881 21.881 48.136 30.633 78.769 30.633 61.265 0 109.402-48.136 109.402-109.402 0-26.257-8.752-56.89-30.633-74.393l-507.625-525.128c-30.633-30.633-70.017-52.512-113.778-61.265-113.778-13.127-214.428 83.145-205.674 196.923 4.375 43.761 26.257 87.52 56.89 118.153l472.616 472.616c8.752 8.752 8.752 21.881 0 30.633l-30.633 30.633c-8.752 8.752-21.881 8.752-30.633 0l-472.616-472.616c-52.512-52.512-78.769-118.153-78.769-192.546 0-70.017 26.257-135.659 78.769-183.795 118.153-118.153 288.821-100.651 385.094 0l507.625 525.128c35.009 35.009 52.512 83.145 52.512 135.659 0 113.778-100.651 205.674-218.804 192.546z" />
<glyph unicode="&#xe92f;" glyph-name="icon-external-link" d="M787.692 377.872h-35.009c-4.376 0-8.752 0-13.128-4.376s-8.752-8.752-8.752-13.128v-183.794c0-26.257-8.752-48.137-26.257-65.641s-39.384-26.257-65.641-26.257h-472.616c-26.257 0-48.137 8.752-65.641 26.257-17.504 21.88-26.257 43.761-26.257 65.641v476.991c0 26.257 8.752 48.137 26.257 65.641s39.384 26.257 65.641 26.257h402.598c4.376 0 8.752 0 13.128 4.376s4.376 8.752 4.376 13.128v35.009c0 4.376 0 8.752-4.376 13.128s-8.752 4.376-13.128 4.376h-402.598c-48.137 4.376-87.521-13.128-118.153-43.761-30.632-35.009-48.137-74.393-48.137-118.153v-476.991c0-43.761 17.504-83.146 48.137-118.153 30.632-30.632 70.017-43.761 118.153-43.761h476.991c43.761 0 83.146 17.504 118.153 48.137 30.632 30.632 48.137 70.017 48.137 118.153v183.794c0 4.376 0 8.752-4.376 13.128-8.752 0-13.128 0-17.504 0zM1015.248 881.119c-8.752 4.376-17.504 8.752-26.257 8.752h-293.197c-8.752 0-17.504-4.376-26.257-8.752-8.752-8.752-8.752-17.504-8.752-26.257s4.376-17.504 8.752-26.257l100.65-100.65-371.966-371.966c-4.376-4.376-4.376-8.752-4.376-13.128s0-8.752 4.376-13.128l65.641-65.641c4.376-4.376 8.752-4.376 13.128-4.376s8.752 0 13.128 4.376l371.966 371.966 100.65-100.65c8.752-8.752 17.504-8.752 26.257-8.752s17.504 4.376 26.257 8.752c8.752 8.752 8.752 17.504 8.752 26.257v293.197c0 8.752-4.376 17.504-8.752 26.257z" />
</font>
</defs>
</svg>
