<?xml version="1.0" standalone="no"?>
<!DOCTYPE svg PUBLIC "-//W3C//DTD SVG 1.1//EN" "http://www.w3.org/Graphics/SVG/1.1/DTD/svg11.dtd" >
<svg xmlns="http://www.w3.org/2000/svg">
<metadata>Generated by IcoMoon</metadata>
<defs>
<font id="fsa-font" horiz-adv-x="1024">
<font-face units-per-em="1024" ascent="960" descent="-64" />
<missing-glyph horiz-adv-x="1024" />
<glyph unicode="&#x20;" horiz-adv-x="512" d="" />
<glyph unicode="&#xe900;" glyph-name="icon-heart" horiz-adv-x="1083" d="M857.084 402.452l-85.944-94.537c-6.139-7.379-15.961-11.050-25.796-9.822-9.822 1.228-18.416 6.139-23.315 14.721l-69.983 122.777-67.527-89.627c-7.367-9.822-19.644-13.506-30.694-12.277-11.050 2.455-20.871 11.050-23.328 22.1l-51.566 207.505-67.527-317.991c-2.455-13.506-14.733-23.315-28.238-24.555-1.228 1.228-1.228 1.228-2.455 1.228-13.506 0-24.555 8.594-29.467 20.871l-77.35 244.325-58.933-74.894c-6.139-7.379-14.733-11.050-24.555-11.050h-16.022c143.783-195.719 347.519-459.184 364.708-459.184 18.061 0 223.134 264.914 367.065 460.412h-49.074zM803.063 965.996c-106.816 0-200.125-63.844-240.643-157.154 0 0-7.379-20.871-22.1-20.871-15.961 0-22.1 20.871-22.1 20.871-40.516 92.082-132.598 157.154-240.643 157.154-146.104 1.228-263.969-116.637-263.969-261.514 0-33.15 0-60.16 20.871-101.904 8.631-17.594 45.28-70.854 95.165-139.965h46.029l85.944 108.043c7.367 8.594 18.416 13.506 29.467 11.050s19.644-9.822 23.328-20.871l60.16-187.848 71.211 335.18c2.455 13.506 14.733 24.555 29.467 24.555s27.011-9.822 30.694-23.328l67.527-273.791 56.477 74.894c6.139 8.594 15.961 12.277 25.783 12.277s19.657-6.139 24.555-14.733l73.666-127.688 67.527 73.666c6.139 6.139 13.518 9.822 22.1 9.822h105.588c0.59 0 1.13-0.135 1.695-0.172 49.332 68.178 85.502 120.554 94.071 137.682 13.506 31.922 20.871 66.299 20.871 101.904 0 144.877-117.865 262.742-262.742 262.742z" />
<glyph unicode="&#xe901;" glyph-name="icon-person" d="M946.424 225.617c-46.545 41.374-103.435 72.405-160.323 98.262-41.374 20.686-82.747 41.374-124.121 67.232 62.061 72.405 103.435 160.323 108.606 258.586 5.171 62.061-5.171 129.292-31.030 186.182s-93.091 124.121-232.727 124.121-201.697-67.232-227.556-124.121c-25.859-56.889-36.202-124.121-31.030-186.182 5.171-93.091 41.374-186.182 108.606-258.586-41.374-25.859-77.576-46.545-124.121-67.232-56.889-25.859-108.606-56.889-160.323-98.262-46.545-56.889-72.405-129.292-72.405-201.697 0-46.545 36.202-82.747 82.747-87.92 0 0 0 0 0 0h848.162c46.545 0 82.747 36.202 82.747 82.747 0 0 0 0 0 0 5.171 77.576-20.686 149.98-67.232 206.868zM951.596 8.404c-5.171-5.171-10.344-5.171-15.515-5.171h-848.162c-5.171 0-10.344 0-15.515 5.171s-5.171 10.344-5.171 15.515c0 56.889 20.686 113.777 51.717 155.152 41.374 36.202 93.091 62.061 144.808 82.747 46.545 20.686 93.091 46.545 139.636 77.576l41.374 41.374-36.202 46.545c-51.717 62.061-87.92 139.636-93.091 217.212-5.171 51.717 5.171 108.606 25.859 160.323 36.202 62.061 103.435 93.091 175.838 87.92 72.405 10.344 139.636-25.859 175.838-87.92 20.686-51.717 31.030-103.435 25.859-160.323-5.171-82.747-36.202-160.323-93.091-217.212l-36.202-46.545 41.374-41.374c41.374-31.030 87.92-56.889 139.636-77.576s98.262-51.717 144.808-82.747c36.202-46.545 51.717-98.262 51.717-155.152-10.344-5.171-10.344-10.344-15.515-15.515z" />
<glyph unicode="&#xe903;" glyph-name="icon-auto" horiz-adv-x="1083" d="M1081.42 533.197c-13.082 46.38-80.867 35.675-120.111 26.164-8.323 38.057-35.675 142.709-95.141 190.277-11.893 9.512-83.248 57.085-317.525 51.138-8.323 0-66.596 1.189-132.004-3.57-134.386-8.323-177.196-30.921-197.412-47.569-59.462-47.569-88.002-153.409-95.141-191.465-39.245 9.512-109.411 21.405-122.492-26.164-8.323-32.11 17.84-47.569 40.433-53.515 15.459-4.758 24.975-21.405 19.028-36.868-5.947-20.216-13.082-45.191-13.082-63.031 0-35.675 0-83.248 0-83.248v-136.763c0-16.652 13.082-29.728 29.728-29.728h130.816c16.652 0 29.728 13.082 29.728 29.728 0 13.082 0 26.164 0 29.728 0-11.893 195.036-23.786 302.066-23.786s302.066 11.893 302.066 23.786c0-3.57 0-16.652 0-29.728 0-16.652 13.082-29.728 29.728-29.728h130.816c16.652 0 29.728 13.082 29.728 29.728v136.763c0 0 0 47.569 0 83.248 0 19.028-5.947 44.003-13.082 63.031-4.758 15.459 3.57 32.11 19.028 36.868 24.975 8.323 51.138 22.594 42.814 54.703zM297.711 295.352c-11.893-23.786-130.816 23.786-142.709 47.569s-35.675 59.462-11.893 59.462 154.602-47.569 154.602-47.569c15.459-11.893 11.893-35.675 0-59.462zM611.67 634.281c-20.216-13.082-28.54-33.298-32.11-49.95-3.57-13.082-24.975-21.405-38.057-21.405s-34.487 8.323-38.057 21.405c-3.57 15.459-13.082 35.675-32.11 49.95-35.675 23.786-142.709 23.786-190.277-11.893-23.786-17.84-29.728-35.675-29.728-48.757 0-14.27-10.705-26.164-23.786-28.54l-22.594-4.758c8.323 35.675 30.921 116.546 66.596 143.897 29.728 23.786 166.492 35.675 275.903 32.11h2.377c104.653 2.377 235.468-9.512 264.010-32.11 32.11-26.164 57.085-98.706 66.596-145.086 0 0-1.189 0-1.189 0l-22.594 4.758c-13.082 2.377-23.786 14.27-23.786 28.54 0 13.082-5.947 30.921-29.728 48.757-48.757 36.868-155.791 36.868-191.465 13.082zM914.928 342.92c-11.893-23.786-130.816-71.355-142.709-47.569s-16.652 47.569 0 59.462c0 0 130.816 47.569 154.602 47.569s0-35.675-11.893-59.462z" />
<glyph unicode="&#xe904;" glyph-name="icon-event" horiz-adv-x="1083" d="M505.142-44.62c-10.922 0-21.844 3.64-29.126 12.136-25.484 25.484-66.745 25.484-92.229 0-15.776-15.776-42.475-15.776-59.463 0l-281.543 281.543c-15.776 15.776-15.776 42.475 0 59.463 25.484 25.484 25.484 66.745 0 92.229-15.776 15.776-15.776 42.475 0 59.463l507.261 507.261c15.776 15.776 42.475 15.776 59.463 0 25.484-25.484 66.745-25.484 92.229 0 15.776 15.776 42.475 15.776 59.463 0l281.543-281.543c15.776-15.776 15.776-42.475 0-59.463-25.484-25.484-25.484-66.745 0-92.229 15.776-15.776 15.776-42.475 0-59.463l-508.475-507.261c-7.282-8.495-18.202-12.136-29.126-12.136zM126.516 283.036l231.788-231.788c44.902 24.27 98.298 24.27 143.2 0l457.507 457.507c-12.136 21.844-18.202 46.115-18.202 71.599s6.068 49.754 18.202 71.599l-231.788 230.574c-21.844-12.136-46.115-18.202-71.599-18.202s-49.754 6.068-71.599 18.202l-457.507-457.507c24.27-43.686 24.27-98.298 0-141.985zM425.047 149.546l-200.236 200.236c-24.27 24.27-24.27 61.891 0 86.163l349.501 349.501c24.27 24.27 61.891 24.27 86.163 0l200.236-200.236c24.27-24.27 24.27-61.891 0-86.163l-350.714-349.501c-23.058-24.27-61.891-24.27-84.948 0zM393.495 363.129l251.203 251.203c12.136 12.136 12.136 30.339 0 42.475s-30.339 12.136-42.475 0l-251.203-251.203c-12.136-12.136-12.136-30.339 0-42.475 6.068-6.068 13.351-8.495 20.63-8.495s15.776 2.426 21.844 8.495zM537.908 336.433l133.49 133.49c12.136 12.136 12.136 30.339 0 42.475s-30.339 12.136-42.475 0l-133.49-133.49c-12.136-12.136-12.136-30.339 0-42.475 6.068-6.068 13.351-8.495 20.63-8.495s15.776 2.426 21.844 8.495z" />
<glyph unicode="&#xe905;" glyph-name="icon-house" horiz-adv-x="1083" d="M146.135 521.059l392.541 281.997 395.924-281.997v-533.538h-154.534l-1.125 356.445h-182.734v-356.445h-450.068v533.538zM504.836 153.333v180.477c0 6.77-4.511 11.28-11.28 11.28h-180.477c-6.77 0-11.28-4.511-11.28-11.28v-180.477c0-6.77 4.511-11.28 11.28-11.28h180.477c6.77 0 11.28 4.511 11.28 11.28zM762.016 792.903v98.136h122.951v-186.119l181.607-130.847c18.048-12.408 21.432-37.224 9.024-55.272-7.896-11.28-20.306-16.92-31.584-16.92-7.896 0-15.792 2.256-22.557 7.896l-480.523 344.037-478.268-344.037c-18.048-13.536-42.864-9.024-55.272 9.024s-9.024 42.864 9.024 55.272l501.955 360.956c13.536 10.153 32.711 10.153 46.247 0l197.398-142.128z" />
<glyph unicode="&#xe906;" glyph-name="icon-key" horiz-adv-x="1083" d="M727.778 977.051c-180.119 0-326.926-146.808-326.926-326.926 0-44.411 8.635-86.359 24.674-124.601l-397.245-397.245v-175.183h150.509v123.368h123.368v123.368h135.705l152.976 152.976c41.944-19.739 87.592-29.608 136.937-29.608 180.119 0 326.926 146.808 326.926 326.926 0 181.352-146.808 326.926-326.926 326.926zM814.134 619.284c-57.983 0-104.862 46.879-104.862 106.096 0 57.983 46.879 104.862 104.862 104.862s104.862-46.879 104.862-104.862c0-59.217-46.879-106.096-104.862-106.096z" />
<glyph unicode="&#xe907;" glyph-name="icon-plane" horiz-adv-x="1083" d="M1027.74 956.722c-38.221 38.221-92.47 14.794-114.664-7.399-12.328-12.328-215.766-205.902-215.766-205.902l-532.633 82.608-76.442-92.47 413.037-184.942-292.209-311.936-173.846-28.358v-61.648l145.489-46.852 59.182-146.721h61.648l14.794 176.312 305.771 293.441 183.71-417.969 91.239 77.675-69.046 538.798c0 0 181.242 208.369 191.107 218.232 24.659 23.427 45.62 78.908 8.631 117.128z" />
<glyph unicode="&#xe90e;" glyph-name="icon-envelope-open" d="M977.455 635.735l-418.909 325.818c-25.859 20.687-64.646 20.687-90.505 0l-421.495-325.818h930.909zM946.424-46.932h-868.848c-12.929 0-23.273 7.758-28.444 18.101l271.515 217.212c12.929 10.343 15.515 31.030 5.172 43.96v0c-10.343 12.929-31.030 15.515-43.96 5.172l-235.313-188.768v576.646l424.081-367.192c23.273-20.687 56.889-20.687 80.162 0l426.667 367.192v-576.646l-235.313 188.768c-12.929 10.343-33.616 7.758-43.96-5.172v0c-10.343-12.929-7.758-33.616 5.172-43.96l271.515-217.212c-5.172-10.343-15.515-18.101-28.444-18.101z" />
<glyph unicode="&#xe913;" glyph-name="icon-credit-card" d="M0.001 657.068v128c0 11.377 2.845 22.755 11.377 31.289s19.911 11.377 31.289 11.377h938.664c11.377 0 22.755-2.845 31.289-11.377s11.377-17.066 11.377-31.289v-128h-1023.998zM1023.999 571.735v-469.333c0-11.377-5.689-22.755-11.377-31.289-8.534-8.534-19.911-11.377-31.289-11.377h-938.664c-11.377 0-22.755 2.845-31.289 11.377s-11.377 17.066-11.377 31.289v469.333h1023.998zM85.335 145.069h341.333v170.666h-341.333v-170.666z" />
<glyph unicode="&#xe914;" glyph-name="icon-edit" d="M923.279 494.095v-190.251c0-92.328-33.574-170.667-97.923-237.814-67.147-64.35-145.487-97.923-237.814-97.923h-251.804c-92.328 0-170.667 33.574-237.814 97.923-64.35 64.35-97.923 145.487-97.923 237.814v251.804c0 92.328 33.574 170.667 97.923 237.814 64.35 64.35 145.487 97.923 237.814 97.923 204.241-2.798 316.154-8.394 332.94-11.191l-156.678-156.678h-260.198c-22.382 0-41.967-8.394-58.755-25.18s-25.18-36.371-25.18-58.755v-419.672c0-22.382 8.394-41.967 25.18-58.755s36.371-25.18 58.755-25.18h419.672c22.382 0 41.967 8.394 58.755 25.18s25.18 36.371 25.18 58.755v106.317l167.868 167.868zM366.513 256.281l134.296 41.967 346.929 346.929-97.923 95.126-338.536-341.334-44.765-142.688zM928.875 726.315l95.126 95.126-16.787 72.743-78.339 22.382-95.126-95.126 95.126-95.126z" />
<glyph unicode="&#xe915;" glyph-name="icon-envelope" d="M512 355.84l-512 514.56h1024l-512-514.56zM0 699.735v-512l256 256-256 256zM512 187.735l-170.665 170.665-341.335-341.335h1024l-341.335 341.335-170.665-170.665zM768 443.735l256-256v512l-256-256z" />
<glyph unicode="&#xe917;" glyph-name="icon-file" d="M554.736 529.070h341.326v-576.050c0-6.228-2.049-11.333-5.926-15.429s-9.147-5.926-15.429-5.926h-725.417c-6.228 0-11.333 2.049-15.429 5.926s-5.926 9.147-5.926 15.429v981.291c0 6.228 2.049 11.333 5.926 15.429s9.147 5.926 15.429 5.926h405.377v-426.678zM896.079 614.396h-256.008v256.008l256.008-256.008z" />
<glyph unicode="&#xe91c;" glyph-name="icon-list-alt" d="M981.335 955.733v-1024h-938.664v1024h938.664zM895.999 785.067h-767.999v-767.999h767.999v767.999zM298.666 699.736h-85.335v-85.335h85.335v85.335zM298.666 529.070h-85.335v-85.335h85.335v85.335zM298.666 358.4h-85.335v-85.335h85.335v85.335zM298.666 187.734h-85.335v-85.335h85.335v85.335zM810.664 699.736h-426.667v-85.335h426.667v85.335zM810.664 529.070h-426.667v-85.335h426.667v85.335zM810.664 358.4h-426.667v-85.335h426.667v85.335zM810.664 102.403h-426.667v85.335h426.667v-85.335z" />
<glyph unicode="&#xe91e;" glyph-name="icon-map-marker" d="M512 955.595c68.471 0 131.654-17.537 189.546-52.606s103.54-82.387 137.217-141.672c33.677-59.284 50.658-123.024 50.658-191.775 0-68.471-20.32-144.176-60.956-227.119-40.636-63.46-87.119-129.426-139.169-197.897s-94.078-121.077-125.807-157.817l-47.595-55.109c-5.567 5.011-13.081 12.245-22.544 21.711s-27.835 29.226-55.39 58.728c-27.555 29.782-54.273 60.12-80.16 91.014s-54.833 68.471-86.839 113.006c-32.010 44.535-60.12 87.675-84.056 129.426-35.069 77.376-52.606 150.302-52.606 218.773 0 69.027 16.977 133.322 50.658 193.166s79.604 107.715 137.777 143.62c58.172 36.74 121.352 54.553 189.267 54.553zM511.164 371.925c59.564 0 110.222 20.876 152.25 63.183 42.028 42.028 62.904 92.686 62.904 152.526 0 59.564-20.876 110.222-62.904 151.97s-92.966 62.624-152.25 62.624c-59.564 0-110.222-21.152-151.97-63.183s-62.624-92.686-62.624-151.414c0-59.564 20.876-110.499 63.183-152.526 42.028-42.307 92.405-63.183 151.414-63.183z" />
<glyph unicode="&#xe921;" glyph-name="icon-selected-item" d="M954.292 678.761v0c0 4.807-4.807 4.807-4.807 9.616l-144.226 245.183c-9.616 19.23-28.845 28.845-48.075 28.845h-490.367c-19.23 0-38.461-9.616-48.075-28.845l-144.226-249.991c0 0 0-4.807-4.807-4.807 0-4.807-4.807-9.616-4.807-19.23v-649.015c0-38.461 33.652-72.113 72.113-72.113h749.973c38.461 0 72.113 33.652 72.113 72.113v649.015c0 0 0 0 0 4.807 0 0 0 9.616-4.807 14.423zM540.845 899.906h211.531l110.573-192.3h-326.912v192.3zM266.817 899.906h216.338v-192.3h-326.912l110.573 192.3zM896.602 5.708c0-4.807-4.807-9.616-9.616-9.616h-749.973c-4.807 0-9.616 4.807-9.616 9.616v639.4h769.203v-639.4zM649.735 421.318c-9.616 9.616-28.845 9.616-43.268 0l-134.61-134.61-52.883 52.883c-9.616 9.616-28.845 9.616-43.268 0s-9.616-28.845 0-43.268l72.113-72.113c9.616-9.616 28.845-9.616 43.268 0 0 0 0 0 0 0l153.841 153.841c14.423 9.616 14.423 28.845 4.807 43.268 0 0 0 0 0 0z" />
<glyph unicode="&#xe922;" glyph-name="icon-ok" d="M-0.138 364.265l175.495 175.495 170.528-171.357 502.481 502.481 175.495-175.495-677.148-678.804-346.852 347.68z" />
<glyph unicode="&#xe925;" glyph-name="icon-remove" d="M804.276-68.265l-292.276 292.276-292.276-292.276-219.724 219.724 292.276 292.276-292.276 292.276 219.724 219.724 292.276-292.276 292.276 292.276 219.724-219.724-292.276-292.276 292.276-292.276-219.724-219.724z" />
<glyph unicode="&#xe928;" glyph-name="icon-triangle-bottom" d="M512 181.218l-512.001 525.033h1024z" />
<glyph unicode="&#xe929;" glyph-name="icon-unchecked" d="M372.364 955.736h279.273c99.297 0 186.181-37.237 260.655-111.709s111.709-161.358 111.709-260.655v-279.273c0-102.4-37.237-189.285-111.709-263.757-71.37-71.37-158.254-108.605-260.655-108.605h-279.273c-102.4 0-189.285 37.237-263.757 108.605-71.37 74.472-108.605 161.358-108.605 263.757v279.273c0 102.4 37.237 189.285 108.605 263.757 74.472 71.37 161.358 108.605 263.757 108.605zM744.728 769.553h-465.454c-24.824 0-46.545-9.31-65.164-27.927s-27.927-40.339-27.927-65.164v-465.454c0-24.824 9.31-46.545 27.927-65.164s40.339-27.927 65.164-27.927h465.454c24.824 0 46.545 9.31 65.164 27.927s27.927 40.339 27.927 65.164v465.454c0 24.824-9.31 46.545-27.927 65.164s-40.339 27.927-65.164 27.927z" />
<glyph unicode="&#xe92a;" glyph-name="icon-card-verify" d="M775.314-24.99c-68.267 0-126.781 29.257-170.667 82.896-43.886 48.761-68.267 112.153-68.267 175.543v156.039c0 14.629 9.753 29.257 24.381 39.010l199.924 87.771c4.876 4.876 14.629 4.876 19.504 4.876s14.629 0 19.504-4.876l199.924-87.771c14.629-4.876 24.381-19.504 24.381-39.010v-156.039c0-63.39-24.381-126.781-68.267-175.543s-107.276-78.019-170.667-82.896h-9.753zM614.4 360.229v-126.781c0-92.647 68.267-170.667 160.914-175.543h4.876c92.647 9.753 160.914 87.771 160.914 175.543v126.781l-160.914 73.143-165.79-73.143zM160.914 179.81c-87.771 0-160.914 68.267-160.914 156.039v429.104c0 87.771 73.143 156.039 160.914 156.039h697.296c87.771 0 160.914-68.267 160.914-156.039v-209.676c0-19.504-19.504-39.010-39.010-39.010s-39.010 19.504-39.010 39.010v78.019h-858.21v-297.447c0-43.886 34.133-78.019 78.019-78.019h263.314c19.504 0 39.010-19.504 39.010-39.010s-19.504-39.010-39.010-39.010h-263.314zM82.896 764.953v-53.639h858.21v53.639c0 43.886-34.133 78.019-78.019 78.019h-702.171c-43.886 0-78.019-34.133-78.019-78.019v0z" />
<glyph unicode="&#xe92b;" glyph-name="icon-payment-cards" d="M913.129 857.299h-802.259c-63.593-4.891-112.512-63.593-107.62-127.188v-562.559c-4.891-63.593 44.026-122.295 107.62-127.188h807.15c63.593 4.891 112.512 63.593 107.62 127.188v562.559c0 63.593-44.026 122.295-112.512 127.188zM976.723 167.552c4.891-39.135-24.46-73.377-63.593-78.269h-802.259c-39.135 4.891-68.486 39.135-63.593 78.269v562.559c-4.891 39.135 24.46 73.377 63.593 78.269h807.15c39.135-4.891 68.486-39.135 63.593-78.269l-4.891-562.559zM1001.182 704.038h-978.365c-14.675 0-24.46-14.675-19.567-24.46v-151.646c0-14.675 9.784-24.46 19.567-24.46h978.365c14.675 0 24.46 14.675 19.567 24.46v151.646c0 9.784-9.784 24.46-19.567 24.46zM976.723 552.392h-934.338v102.728h934.338v-102.728zM489.156 346.446h-308.185c-14.675 0-24.46-9.784-24.46-24.46s9.784-24.46 24.46-24.46h308.185c14.675 0 24.46 9.784 24.46 24.46s-9.784 24.46-24.46 24.46zM489.156 244.256h-308.185c-14.675 0-24.46-9.784-24.46-24.46s9.784-24.46 24.46-24.46h308.185c14.675 0 24.46 9.784 24.46 24.46s-9.784 24.46-24.46 24.46zM792.204 397.516h-48.918c-44.026 0-78.269-34.242-78.269-78.269v-48.918c0-44.026 34.242-78.269 78.269-78.269h48.918c44.026 0 78.269 34.242 78.269 78.269v48.918c0 44.026-34.242 78.269-78.269 78.269zM816.662 270.329c0-14.675-9.784-24.46-24.46-24.46v0h-48.918c-14.675 0-24.46 9.784-24.46 24.46v0 48.918c0 14.675 9.784 24.46 24.46 24.46v0h48.918c14.675 0 24.46-9.784 24.46-24.46v0-48.918z" />
<glyph unicode="&#xe92c;" glyph-name="icon-review" d="M785.288 417.882v457.788h-686.683v-861.366h313.223c24.094 0 42.164-18.071 42.164-42.164s-18.071-36.141-42.164-42.164h-355.389c-24.094 0-42.164 18.071-42.164 42.164v939.672c0 24.094 18.071 42.164 42.164 42.164h771.013c24.094 0 42.164-18.071 42.164-42.164v-499.954c0-24.094-18.071-42.164-42.164-42.164-24.094 6.023-42.164 24.094-42.164 48.189 0 0 0 0 0 0zM996.112 315.483c-18.071 18.071-42.164 12.048-60.235-6.023 0 0 0 0 0 0l-228.895-252.989-114.447 108.424c-18.071 18.071-42.164 18.071-60.235 0s-18.071-42.164 0-60.235l144.565-138.542c6.023-6.023 18.071-12.048 30.118-12.048v0c12.048 0 24.094 6.023 30.118 12.048l252.989 283.107c24.094 24.094 24.094 54.212 6.023 66.259 0 0 0 0 0 0v0zM634.7 719.059h-373.46c-24.094 0-42.164-18.071-42.164-42.164s18.071-42.164 42.164-42.164c0 0 0 0 6.023 0h373.46c24.094 0 42.164 18.071 42.164 42.164-6.023 24.094-24.094 42.164-48.189 42.164 0 0 0 0 0 0zM670.841 454.023c0 24.094-18.071 42.164-42.164 42.164h-373.46c-24.094 0-42.164-18.071-42.164-42.164s18.071-42.164 42.164-42.164c0 0 0 0 6.023 0h373.46c18.071 0 36.141 18.071 36.141 42.164zM261.24 273.317c-24.094 0-42.164-18.071-42.164-42.164s18.071-42.164 42.164-42.164c0 0 0 0 6.023 0h108.424c24.094 0 42.164 18.071 42.164 42.164s-18.071 36.141-42.164 42.164h-114.447z" />
<glyph unicode="&#xe92d;" glyph-name="icon-shield" d="M949.998 683.845v0c0 9.627 0 19.252 0 33.692 0 57.758-43.319 101.077-101.077 105.889-105.889 0-211.78 43.319-288.79 120.329v0c-24.066 24.066-62.571 24.066-91.45 0v0c-77.010-77.010-178.087-120.329-288.79-120.329-57.758-4.813-101.077-48.131-101.077-105.889 0-9.627 0-24.066 0-33.692v0c0-120.329-4.813-269.538 43.319-404.306 24.066-72.198 67.385-139.582 125.143-192.526 67.385-67.385 154.022-115.516 240.659-144.395 4.813 0 4.813 0 9.627-4.813 9.627 0 19.252 0 28.879 0 4.813 0 4.813 0 9.627 4.813 91.45 28.879 173.274 77.010 240.659 144.395 52.945 52.945 96.264 120.329 125.143 192.526 52.945 134.768 48.131 283.977 48.131 404.306zM844.109 298.792c-52.945-144.395-158.835-240.659-327.296-298.417 0 0 0 0 0 0s-4.813 0-4.813 0c0 0 0 0 0 0-168.461 57.758-279.163 158.835-332.109 298.417-48.131 125.143-43.319 264.724-43.319 385.054v0c0 9.627 0 19.252 0 33.692 0 24.066 19.252 48.131 43.319 48.131 62.571 4.813 120.329 14.44 178.087 38.506 52.945 24.066 105.889 57.758 144.395 96.264 0 0 4.813 0 9.627 0 43.319-43.319 91.45-77.010 144.395-96.264 57.758-24.066 115.516-38.506 178.087-38.506 24.066 0 43.319-24.066 43.319-48.131 0-14.44 0-24.066 0-33.692 14.44-125.143 14.44-259.911-33.692-385.054v0zM512 703.098c-139.582 0-255.098-115.516-255.098-255.098s115.516-255.098 255.098-255.098c139.582 0 255.098 115.516 255.098 255.098s-115.516 255.098-255.098 255.098zM512 250.66c-105.889 0-197.34 86.637-197.34 197.34s86.637 197.34 197.34 197.34c105.889 0 197.34-86.637 197.34-197.34 0-105.889-91.45-197.34-197.34-197.34zM584.198 525.010l-120.329-120.329-33.692 33.692c-14.44 9.627-28.879 9.627-43.319 0-9.627-9.627-9.627-28.879 0-43.319l52.945-52.945c9.627-9.627 28.879-9.627 43.319 0l139.582 139.582c9.627 14.44 9.627 28.879 0 43.319s-24.066 14.44-38.506 0z" />
<glyph unicode="&#xe92e;" glyph-name="icon-attachment" d="M805.197 916.238c-43.761-4.375-87.52-30.633-118.153-61.265l-472.616-472.616c-21.881-21.881-35.009-48.136-43.761-74.393-13.127-91.897 61.265-170.668 153.162-153.162 30.633 4.375 56.89 21.881 74.393 39.384l437.607 428.853c8.752 8.752 8.752 21.881 0 30.633l-30.633 30.633c-8.752 8.752-21.881 8.752-30.633 0l-437.607-437.607c-8.752-8.752-21.881-13.127-35.009-13.127-26.257 0-48.136 21.881-48.136 48.136 0 13.127 4.375 26.257 13.127 35.009l485.743 485.743c21.881 21.881 48.136 30.633 78.769 30.633 61.265 0 109.402-48.136 109.402-109.402 0-26.257-8.752-56.89-30.633-74.393l-507.625-525.128c-30.633-30.633-70.017-52.512-113.778-61.265-113.778-13.127-214.428 83.145-205.674 196.923 4.375 43.761 26.257 87.52 56.89 118.153l472.616 472.616c8.752 8.752 8.752 21.881 0 30.633l-30.633 30.633c-8.752 8.752-21.881 8.752-30.633 0l-472.616-472.616c-52.512-52.512-78.769-118.153-78.769-192.546 0-70.017 26.257-135.659 78.769-183.795 118.153-118.153 288.821-100.651 385.094 0l507.625 525.128c35.009 35.009 52.512 83.145 52.512 135.659 0 113.778-100.651 205.674-218.804 192.546z" />
<glyph unicode="&#xe92f;" glyph-name="icon-external-link" d="M787.692 373.607h-35.009c-4.376 0-8.752 0-13.128-4.376s-8.752-8.752-8.752-13.128v-183.794c0-26.257-8.752-48.137-26.257-65.641s-39.384-26.257-65.641-26.257h-472.616c-26.257 0-48.137 8.752-65.641 26.257-17.504 21.88-26.257 43.761-26.257 65.641v476.991c0 26.257 8.752 48.137 26.257 65.641s39.384 26.257 65.641 26.257h402.598c4.376 0 8.752 0 13.128 4.376s4.376 8.752 4.376 13.128v35.009c0 4.376 0 8.752-4.376 13.128s-8.752 4.376-13.128 4.376h-402.598c-48.137 4.376-87.521-13.128-118.153-43.761-30.632-35.009-48.137-74.393-48.137-118.153v-476.991c0-43.761 17.504-83.146 48.137-118.153 30.632-30.632 70.017-43.761 118.153-43.761h476.991c43.761 0 83.146 17.504 118.153 48.137 30.632 30.632 48.137 70.017 48.137 118.153v183.794c0 4.376 0 8.752-4.376 13.128-8.752 0-13.128 0-17.504 0zM1015.248 876.854c-8.752 4.376-17.504 8.752-26.257 8.752h-293.197c-8.752 0-17.504-4.376-26.257-8.752-8.752-8.752-8.752-17.504-8.752-26.257s4.376-17.504 8.752-26.257l100.65-100.65-371.966-371.966c-4.376-4.376-4.376-8.752-4.376-13.128s0-8.752 4.376-13.128l65.641-65.641c4.376-4.376 8.752-4.376 13.128-4.376s8.752 0 13.128 4.376l371.966 371.966 100.65-100.65c8.752-8.752 17.504-8.752 26.257-8.752s17.504 4.376 26.257 8.752c8.752 8.752 8.752 17.504 8.752 26.257v293.197c0 8.752-4.376 17.504-8.752 26.257z" />
</font>
</defs>
</svg>
