<?xml version="1.0" encoding="UTF-8" standalone="no"?>
<!DOCTYPE svg PUBLIC "-//W3C//DTD SVG 1.1//EN"
 "http://www.w3.org/Graphics/SVG/1.1/DTD/svg11.dtd">
<!-- Generated by graphviz version 2.47.3 (20210619.1520)
 -->
<!-- Title: dependencies Pages: 1 -->
<svg width="174pt" height="247pt"
 viewBox="0.00 0.00 174.00 246.80" xmlns="http://www.w3.org/2000/svg" xmlns:xlink="http://www.w3.org/1999/xlink">
<g id="graph0" class="graph" transform="scale(1 1) rotate(0) translate(4 242.8)">
<title>dependencies</title>
<polygon fill="white" stroke="transparent" points="-4,4 -4,-242.8 170,-242.8 170,4 -4,4"/>
<text text-anchor="middle" x="83" y="-8.2" font-family="sans-serif" font-size="14.00">dependencies</text>
<g id="clust1" class="cluster">
<title>cluster_SortModule</title>
<polygon fill="none" stroke="black" stroke-dasharray="1,5" points="8,-32.8 8,-230.8 158,-230.8 158,-32.8 8,-32.8"/>
</g>
<g id="clust2" class="cluster">
<title>cluster_SortModule_declarations</title>
<polygon fill="none" stroke="black" points="18,-40.8 18,-92.8 148,-92.8 148,-40.8 18,-40.8"/>
</g>
<g id="clust5" class="cluster">
<title>cluster_SortModule_exports</title>
<polygon fill="none" stroke="black" points="16,-170.8 16,-222.8 150,-222.8 150,-170.8 16,-170.8"/>
</g>
<!-- SortByNamePipe -->
<g id="node1" class="node">
<title>SortByNamePipe</title>
<polygon fill="#ffffb3" stroke="black" points="139.98,-84.8 26.02,-84.8 26.02,-48.8 139.98,-48.8 139.98,-84.8"/>
<text text-anchor="middle" x="83" y="-62.6" font-family="Times,serif" font-size="14.00">SortByNamePipe</text>
</g>
<!-- SortModule -->
<g id="node2" class="node">
<title>SortModule</title>
<polygon fill="#8dd3c7" stroke="black" points="124.38,-149.8 121.38,-153.8 100.38,-153.8 97.38,-149.8 41.62,-149.8 41.62,-113.8 124.38,-113.8 124.38,-149.8"/>
<text text-anchor="middle" x="83" y="-127.6" font-family="Times,serif" font-size="14.00">SortModule</text>
</g>
<!-- SortByNamePipe&#45;&gt;SortModule -->
<g id="edge1" class="edge">
<title>SortByNamePipe&#45;&gt;SortModule</title>
<path fill="none" stroke="black" d="M83,-84.91C83,-84.91 83,-103.79 83,-103.79"/>
<polygon fill="black" stroke="black" points="79.5,-103.79 83,-113.79 86.5,-103.79 79.5,-103.79"/>
</g>
<!-- SortByNamePipe  -->
<g id="node3" class="node">
<title>SortByNamePipe </title>
<polygon fill="#fb8072" stroke="black" points="141.99,-214.8 24.01,-214.8 24.01,-178.8 141.99,-178.8 141.99,-214.8"/>
<text text-anchor="middle" x="83" y="-192.6" font-family="Times,serif" font-size="14.00">SortByNamePipe </text>
</g>
<!-- SortModule&#45;&gt;SortByNamePipe  -->
<g id="edge2" class="edge">
<title>SortModule&#45;&gt;SortByNamePipe </title>
<path fill="none" stroke="black" stroke-dasharray="5,2" d="M83,-149.91C83,-149.91 83,-168.79 83,-168.79"/>
<polygon fill="black" stroke="black" points="79.5,-168.79 83,-178.79 86.5,-168.79 79.5,-168.79"/>
</g>
</g>
</svg>
