<?xml version="1.0" encoding="UTF-8" standalone="no"?>
<!DOCTYPE svg PUBLIC "-//W3C//DTD SVG 1.1//EN"
 "http://www.w3.org/Graphics/SVG/1.1/DTD/svg11.dtd">
<!-- Generated by graphviz version 2.47.3 (20210619.1520)
 -->
<!-- Title: dependencies Pages: 1 -->
<svg width="408pt" height="247pt"
 viewBox="0.00 0.00 408.00 246.80" xmlns="http://www.w3.org/2000/svg" xmlns:xlink="http://www.w3.org/1999/xlink">
<g id="graph0" class="graph" transform="scale(1 1) rotate(0) translate(4 242.8)">
<title>dependencies</title>
<polygon fill="white" stroke="transparent" points="-4,4 -4,-242.8 404,-242.8 404,4 -4,4"/>
<text text-anchor="middle" x="200" y="-8.2" font-family="sans-serif" font-size="14.00">dependencies</text>
<g id="clust1" class="cluster">
<title>cluster_AppModule</title>
<polygon fill="none" stroke="black" stroke-dasharray="1,5" points="8,-32.8 8,-230.8 392,-230.8 392,-32.8 8,-32.8"/>
</g>
<g id="clust2" class="cluster">
<title>cluster_AppModule_declarations</title>
<polygon fill="none" stroke="black" points="262,-40.8 262,-92.8 384,-92.8 384,-40.8 262,-40.8"/>
</g>
<g id="clust4" class="cluster">
<title>cluster_AppModule_imports</title>
<polygon fill="none" stroke="black" points="16,-40.8 16,-92.8 254,-92.8 254,-40.8 16,-40.8"/>
</g>
<g id="clust6" class="cluster">
<title>cluster_AppModule_bootstrap</title>
<polygon fill="none" stroke="black" points="120,-170.8 120,-222.8 244,-222.8 244,-170.8 120,-170.8"/>
</g>
<!-- AppComponent -->
<g id="node1" class="node">
<title>AppComponent</title>
<polygon fill="#ffffb3" stroke="black" points="375.94,-84.8 270.06,-84.8 270.06,-48.8 375.94,-48.8 375.94,-84.8"/>
<text text-anchor="middle" x="323" y="-62.6" font-family="Times,serif" font-size="14.00">AppComponent</text>
</g>
<!-- AppModule -->
<g id="node2" class="node">
<title>AppModule</title>
<polygon fill="#8dd3c7" stroke="black" points="223.66,-149.8 220.66,-153.8 199.66,-153.8 196.66,-149.8 140.34,-149.8 140.34,-113.8 223.66,-113.8 223.66,-149.8"/>
<text text-anchor="middle" x="182" y="-127.6" font-family="Times,serif" font-size="14.00">AppModule</text>
</g>
<!-- AppComponent&#45;&gt;AppModule -->
<g id="edge1" class="edge">
<title>AppComponent&#45;&gt;AppModule</title>
<path fill="none" stroke="black" d="M323,-84.91C323,-104.14 323,-131.8 323,-131.8 323,-131.8 233.92,-131.8 233.92,-131.8"/>
<polygon fill="black" stroke="black" points="233.92,-128.3 223.92,-131.8 233.92,-135.3 233.92,-128.3"/>
</g>
<!-- AppComponent  -->
<g id="node5" class="node">
<title>AppComponent </title>
<polygon fill="#80b1d3" stroke="black" points="236.44,-214.8 127.56,-214.8 127.56,-178.8 236.44,-178.8 236.44,-214.8"/>
<text text-anchor="middle" x="182" y="-192.6" font-family="Times,serif" font-size="14.00">AppComponent </text>
</g>
<!-- AppModule&#45;&gt;AppComponent  -->
<g id="edge4" class="edge">
<title>AppModule&#45;&gt;AppComponent </title>
<path fill="none" stroke="black" stroke-dasharray="1,5" d="M182,-149.91C182,-149.91 182,-168.79 182,-168.79"/>
<polygon fill="black" stroke="black" points="178.5,-168.79 182,-178.79 185.5,-168.79 178.5,-168.79"/>
</g>
<!-- AppRoutingModule -->
<g id="node3" class="node">
<title>AppRoutingModule</title>
<polygon fill="#8dd3c7" stroke="black" points="246.27,-84.8 243.27,-88.8 222.27,-88.8 219.27,-84.8 117.73,-84.8 117.73,-48.8 246.27,-48.8 246.27,-84.8"/>
<text text-anchor="middle" x="182" y="-62.6" font-family="Times,serif" font-size="14.00">AppRoutingModule</text>
</g>
<!-- AppRoutingModule&#45;&gt;AppModule -->
<g id="edge2" class="edge">
<title>AppRoutingModule&#45;&gt;AppModule</title>
<path fill="none" stroke="black" d="M182,-84.91C182,-84.91 182,-103.79 182,-103.79"/>
<polygon fill="black" stroke="black" points="178.5,-103.79 182,-113.79 185.5,-103.79 178.5,-103.79"/>
</g>
<!-- FSModule -->
<g id="node4" class="node">
<title>FSModule</title>
<polygon fill="#8dd3c7" stroke="black" points="99.62,-84.8 96.62,-88.8 75.62,-88.8 72.62,-84.8 24.38,-84.8 24.38,-48.8 99.62,-48.8 99.62,-84.8"/>
<text text-anchor="middle" x="62" y="-62.6" font-family="Times,serif" font-size="14.00">FSModule</text>
</g>
<!-- FSModule&#45;&gt;AppModule -->
<g id="edge3" class="edge">
<title>FSModule&#45;&gt;AppModule</title>
<path fill="none" stroke="black" d="M62,-84.91C62,-104.14 62,-131.8 62,-131.8 62,-131.8 130.03,-131.8 130.03,-131.8"/>
<polygon fill="black" stroke="black" points="130.03,-135.3 140.03,-131.8 130.03,-128.3 130.03,-135.3"/>
</g>
</g>
</svg>
