<?xml version="1.0" encoding="UTF-8" standalone="no"?>
<!DOCTYPE svg PUBLIC "-//W3C//DTD SVG 1.1//EN"
 "http://www.w3.org/Graphics/SVG/1.1/DTD/svg11.dtd">
<!-- Generated by graphviz version 2.47.3 (20210619.1520)
 -->
<!-- Title: dependencies Pages: 1 -->
<svg width="318pt" height="247pt"
 viewBox="0.00 0.00 318.00 246.80" xmlns="http://www.w3.org/2000/svg" xmlns:xlink="http://www.w3.org/1999/xlink">
<g id="graph0" class="graph" transform="scale(1 1) rotate(0) translate(4 242.8)">
<title>dependencies</title>
<polygon fill="white" stroke="transparent" points="-4,4 -4,-242.8 314,-242.8 314,4 -4,4"/>
<text text-anchor="middle" x="155" y="-8.2" font-family="sans-serif" font-size="14.00">dependencies</text>
<g id="clust1" class="cluster">
<title>cluster_AppModule</title>
<polygon fill="none" stroke="black" stroke-dasharray="1,5" points="8,-32.8 8,-230.8 302,-230.8 302,-32.8 8,-32.8"/>
</g>
<g id="clust2" class="cluster">
<title>cluster_AppModule_declarations</title>
<polygon fill="none" stroke="black" points="172,-40.8 172,-92.8 294,-92.8 294,-40.8 172,-40.8"/>
</g>
<g id="clust4" class="cluster">
<title>cluster_AppModule_imports</title>
<polygon fill="none" stroke="black" points="16,-40.8 16,-92.8 164,-92.8 164,-40.8 16,-40.8"/>
</g>
<g id="clust6" class="cluster">
<title>cluster_AppModule_bootstrap</title>
<polygon fill="none" stroke="black" points="99,-170.8 99,-222.8 223,-222.8 223,-170.8 99,-170.8"/>
</g>
<!-- AppComponent -->
<g id="node1" class="node">
<title>AppComponent</title>
<polygon fill="#ffffb3" stroke="black" points="285.94,-84.8 180.06,-84.8 180.06,-48.8 285.94,-48.8 285.94,-84.8"/>
<text text-anchor="middle" x="233" y="-62.6" font-family="Times,serif" font-size="14.00">AppComponent</text>
</g>
<!-- AppModule -->
<g id="node2" class="node">
<title>AppModule</title>
<polygon fill="#8dd3c7" stroke="black" points="202.66,-149.8 199.66,-153.8 178.66,-153.8 175.66,-149.8 119.34,-149.8 119.34,-113.8 202.66,-113.8 202.66,-149.8"/>
<text text-anchor="middle" x="161" y="-127.6" font-family="Times,serif" font-size="14.00">AppModule</text>
</g>
<!-- AppComponent&#45;&gt;AppModule -->
<g id="edge1" class="edge">
<title>AppComponent&#45;&gt;AppModule</title>
<path fill="none" stroke="black" d="M191.55,-84.91C191.55,-84.91 191.55,-103.79 191.55,-103.79"/>
<polygon fill="black" stroke="black" points="188.05,-103.79 191.55,-113.79 195.05,-103.79 188.05,-103.79"/>
</g>
<!-- AppComponent  -->
<g id="node4" class="node">
<title>AppComponent </title>
<polygon fill="#80b1d3" stroke="black" points="215.44,-214.8 106.56,-214.8 106.56,-178.8 215.44,-178.8 215.44,-214.8"/>
<text text-anchor="middle" x="161" y="-192.6" font-family="Times,serif" font-size="14.00">AppComponent </text>
</g>
<!-- AppModule&#45;&gt;AppComponent  -->
<g id="edge3" class="edge">
<title>AppModule&#45;&gt;AppComponent </title>
<path fill="none" stroke="black" stroke-dasharray="1,5" d="M161,-149.91C161,-149.91 161,-168.79 161,-168.79"/>
<polygon fill="black" stroke="black" points="157.5,-168.79 161,-178.79 164.5,-168.79 157.5,-168.79"/>
</g>
<!-- FSStorefrontModule -->
<g id="node3" class="node">
<title>FSStorefrontModule</title>
<polygon fill="#8dd3c7" stroke="black" points="155.88,-84.8 152.88,-88.8 131.88,-88.8 128.88,-84.8 24.12,-84.8 24.12,-48.8 155.88,-48.8 155.88,-84.8"/>
<text text-anchor="middle" x="90" y="-62.6" font-family="Times,serif" font-size="14.00">FSStorefrontModule</text>
</g>
<!-- FSStorefrontModule&#45;&gt;AppModule -->
<g id="edge2" class="edge">
<title>FSStorefrontModule&#45;&gt;AppModule</title>
<path fill="none" stroke="black" d="M137.55,-84.91C137.55,-84.91 137.55,-103.79 137.55,-103.79"/>
<polygon fill="black" stroke="black" points="134.05,-103.79 137.55,-113.79 141.05,-103.79 134.05,-103.79"/>
</g>
</g>
</svg>
