<?xml version="1.0" encoding="UTF-8" standalone="no"?>
<!DOCTYPE svg PUBLIC "-//W3C//DTD SVG 1.1//EN"
 "http://www.w3.org/Graphics/SVG/1.1/DTD/svg11.dtd">
<!-- Generated by graphviz version 2.46.0 (20210119.1425)
 -->
<!-- Title: dependencies Pages: 1 -->
<svg width="607pt" height="284pt"
 viewBox="0.00 0.00 607.00 284.00" xmlns="http://www.w3.org/2000/svg" xmlns:xlink="http://www.w3.org/1999/xlink">
<g id="graph0" class="graph" transform="scale(1 1) rotate(0) translate(4 280)">
<title>dependencies</title>
<polygon fill="white" stroke="transparent" points="-4,4 -4,-280 603,-280 603,4 -4,4"/>
<text text-anchor="start" x="278.51" y="-42.4" font-family="sans-serif" font-weight="bold" font-size="14.00">Legend</text>
<polygon fill="#ffffb3" stroke="transparent" points="65.5,-10 65.5,-30 85.5,-30 85.5,-10 65.5,-10"/>
<text text-anchor="start" x="89.13" y="-15.4" font-family="sans-serif" font-size="14.00"> &#160;Declarations</text>
<polygon fill="#8dd3c7" stroke="transparent" points="178.5,-10 178.5,-30 198.5,-30 198.5,-10 178.5,-10"/>
<text text-anchor="start" x="202.23" y="-15.4" font-family="sans-serif" font-size="14.00"> &#160;Module</text>
<polygon fill="#80b1d3" stroke="transparent" points="264.5,-10 264.5,-30 284.5,-30 284.5,-10 264.5,-10"/>
<text text-anchor="start" x="288.28" y="-15.4" font-family="sans-serif" font-size="14.00"> &#160;Bootstrap</text>
<polygon fill="#fdb462" stroke="transparent" points="361.5,-10 361.5,-30 381.5,-30 381.5,-10 361.5,-10"/>
<text text-anchor="start" x="385.17" y="-15.4" font-family="sans-serif" font-size="14.00"> &#160;Providers</text>
<polygon fill="#fb8072" stroke="transparent" points="457.5,-10 457.5,-30 477.5,-30 477.5,-10 457.5,-10"/>
<text text-anchor="start" x="481.23" y="-15.4" font-family="sans-serif" font-size="14.00"> &#160;Exports</text>
<g id="clust1" class="cluster">
<title>cluster_DynamicFormModule</title>
<polygon fill="none" stroke="black" stroke-dasharray="1,5" points="8,-70 8,-268 591,-268 591,-70 8,-70"/>
</g>
<g id="clust3" class="cluster">
<title>cluster_DynamicFormModule_imports</title>
<polygon fill="none" stroke="black" points="16,-78 16,-130 583,-130 583,-78 16,-78"/>
</g>
<g id="clust4" class="cluster">
<title>cluster_DynamicFormModule_exports</title>
<polygon fill="none" stroke="black" points="209,-208 209,-260 373,-260 373,-208 209,-208"/>
</g>
<!-- FormCMSModule -->
<g id="node1" class="node">
<title>FormCMSModule</title>
<polygon fill="#8dd3c7" stroke="black" points="574.95,-122 571.95,-126 550.95,-126 547.95,-122 455.05,-122 455.05,-86 574.95,-86 574.95,-122"/>
<text text-anchor="middle" x="515" y="-99.8" font-family="Times,serif" font-size="14.00">FormCMSModule</text>
</g>
<!-- DynamicFormModule -->
<g id="node5" class="node">
<title>DynamicFormModule</title>
<polygon fill="#8dd3c7" stroke="black" points="361.7,-187 358.7,-191 337.7,-191 334.7,-187 220.3,-187 220.3,-151 361.7,-151 361.7,-187"/>
<text text-anchor="middle" x="291" y="-164.8" font-family="Times,serif" font-size="14.00">DynamicFormModule</text>
</g>
<!-- FormCMSModule&#45;&gt;DynamicFormModule -->
<g id="edge1" class="edge">
<title>FormCMSModule&#45;&gt;DynamicFormModule</title>
<path fill="none" stroke="black" d="M515,-122.11C515,-141.34 515,-169 515,-169 515,-169 371.88,-169 371.88,-169"/>
<polygon fill="black" stroke="black" points="371.88,-165.5 361.88,-169 371.87,-172.5 371.88,-165.5"/>
</g>
<!-- FormContainerModule -->
<g id="node2" class="node">
<title>FormContainerModule</title>
<polygon fill="#8dd3c7" stroke="black" points="437.59,-122 434.59,-126 413.59,-126 410.59,-122 292.41,-122 292.41,-86 437.59,-86 437.59,-122"/>
<text text-anchor="middle" x="365" y="-99.8" font-family="Times,serif" font-size="14.00">FormContainerModule</text>
</g>
<!-- FormContainerModule&#45;&gt;DynamicFormModule -->
<g id="edge2" class="edge">
<title>FormContainerModule&#45;&gt;DynamicFormModule</title>
<path fill="none" stroke="black" d="M327.03,-122.11C327.03,-122.11 327.03,-140.99 327.03,-140.99"/>
<polygon fill="black" stroke="black" points="323.53,-140.99 327.03,-150.99 330.53,-140.99 323.53,-140.99"/>
</g>
<!-- FormOccModule -->
<g id="node3" class="node">
<title>FormOccModule</title>
<polygon fill="#8dd3c7" stroke="black" points="274.42,-122 271.42,-126 250.42,-126 247.42,-122 161.58,-122 161.58,-86 274.42,-86 274.42,-122"/>
<text text-anchor="middle" x="218" y="-99.8" font-family="Times,serif" font-size="14.00">FormOccModule</text>
</g>
<!-- FormOccModule&#45;&gt;DynamicFormModule -->
<g id="edge3" class="edge">
<title>FormOccModule&#45;&gt;DynamicFormModule</title>
<path fill="none" stroke="black" d="M247.3,-122.11C247.3,-122.11 247.3,-140.99 247.3,-140.99"/>
<polygon fill="black" stroke="black" points="243.8,-140.99 247.3,-150.99 250.8,-140.99 243.8,-140.99"/>
</g>
<!-- FormStoreModule -->
<g id="node4" class="node">
<title>FormStoreModule</title>
<polygon fill="#8dd3c7" stroke="black" points="143.93,-122 140.93,-126 119.93,-126 116.93,-122 24.07,-122 24.07,-86 143.93,-86 143.93,-122"/>
<text text-anchor="middle" x="84" y="-99.8" font-family="Times,serif" font-size="14.00">FormStoreModule</text>
</g>
<!-- FormStoreModule&#45;&gt;DynamicFormModule -->
<g id="edge4" class="edge">
<title>FormStoreModule&#45;&gt;DynamicFormModule</title>
<path fill="none" stroke="black" d="M84,-122.11C84,-141.34 84,-169 84,-169 84,-169 210.34,-169 210.34,-169"/>
<polygon fill="black" stroke="black" points="210.34,-172.5 220.34,-169 210.34,-165.5 210.34,-172.5"/>
</g>
<!-- FormContainerModule  -->
<g id="node6" class="node">
<title>FormContainerModule </title>
<polygon fill="#fb8072" stroke="black" points="365.09,-252 216.91,-252 216.91,-216 365.09,-216 365.09,-252"/>
<text text-anchor="middle" x="291" y="-229.8" font-family="Times,serif" font-size="14.00">FormContainerModule </text>
</g>
<!-- DynamicFormModule&#45;&gt;FormContainerModule  -->
<g id="edge5" class="edge">
<title>DynamicFormModule&#45;&gt;FormContainerModule </title>
<path fill="none" stroke="black" stroke-dasharray="5,2" d="M291,-187.11C291,-187.11 291,-205.99 291,-205.99"/>
<polygon fill="black" stroke="black" points="287.5,-205.99 291,-215.99 294.5,-205.99 287.5,-205.99"/>
</g>
</g>
</svg>
