<?xml version="1.0" encoding="UTF-8" standalone="no"?>
<!DOCTYPE svg PUBLIC "-//W3C//DTD SVG 1.1//EN"
 "http://www.w3.org/Graphics/SVG/1.1/DTD/svg11.dtd">
<!-- Generated by graphviz version 2.47.3 (20210619.1520)
 -->
<!-- Title: dependencies Pages: 1 -->
<svg width="607pt" height="247pt"
 viewBox="0.00 0.00 607.00 246.80" xmlns="http://www.w3.org/2000/svg" xmlns:xlink="http://www.w3.org/1999/xlink">
<g id="graph0" class="graph" transform="scale(1 1) rotate(0) translate(4 242.8)">
<title>dependencies</title>
<polygon fill="white" stroke="transparent" points="-4,4 -4,-242.8 603,-242.8 603,4 -4,4"/>
<text text-anchor="middle" x="299.5" y="-8.2" font-family="sans-serif" font-size="14.00">dependencies</text>
<g id="clust1" class="cluster">
<title>cluster_DynamicFormModule</title>
<polygon fill="none" stroke="black" stroke-dasharray="1,5" points="8,-32.8 8,-230.8 591,-230.8 591,-32.8 8,-32.8"/>
</g>
<g id="clust4" class="cluster">
<title>cluster_DynamicFormModule_exports</title>
<polygon fill="none" stroke="black" points="209,-170.8 209,-222.8 373,-222.8 373,-170.8 209,-170.8"/>
</g>
<g id="clust3" class="cluster">
<title>cluster_DynamicFormModule_imports</title>
<polygon fill="none" stroke="black" points="16,-40.8 16,-92.8 583,-92.8 583,-40.8 16,-40.8"/>
</g>
<!-- FormCMSModule -->
<g id="node1" class="node">
<title>FormCMSModule</title>
<polygon fill="#8dd3c7" stroke="black" points="574.95,-84.8 571.95,-88.8 550.95,-88.8 547.95,-84.8 455.05,-84.8 455.05,-48.8 574.95,-48.8 574.95,-84.8"/>
<text text-anchor="middle" x="515" y="-62.6" font-family="Times,serif" font-size="14.00">FormCMSModule</text>
</g>
<!-- DynamicFormModule -->
<g id="node5" class="node">
<title>DynamicFormModule</title>
<polygon fill="#8dd3c7" stroke="black" points="361.7,-149.8 358.7,-153.8 337.7,-153.8 334.7,-149.8 220.3,-149.8 220.3,-113.8 361.7,-113.8 361.7,-149.8"/>
<text text-anchor="middle" x="291" y="-127.6" font-family="Times,serif" font-size="14.00">DynamicFormModule</text>
</g>
<!-- FormCMSModule&#45;&gt;DynamicFormModule -->
<g id="edge1" class="edge">
<title>FormCMSModule&#45;&gt;DynamicFormModule</title>
<path fill="none" stroke="black" d="M515,-84.91C515,-104.14 515,-131.8 515,-131.8 515,-131.8 371.88,-131.8 371.88,-131.8"/>
<polygon fill="black" stroke="black" points="371.88,-128.3 361.88,-131.8 371.87,-135.3 371.88,-128.3"/>
</g>
<!-- FormContainerModule -->
<g id="node2" class="node">
<title>FormContainerModule</title>
<polygon fill="#8dd3c7" stroke="black" points="437.59,-84.8 434.59,-88.8 413.59,-88.8 410.59,-84.8 292.41,-84.8 292.41,-48.8 437.59,-48.8 437.59,-84.8"/>
<text text-anchor="middle" x="365" y="-62.6" font-family="Times,serif" font-size="14.00">FormContainerModule</text>
</g>
<!-- FormContainerModule&#45;&gt;DynamicFormModule -->
<g id="edge2" class="edge">
<title>FormContainerModule&#45;&gt;DynamicFormModule</title>
<path fill="none" stroke="black" d="M327.03,-84.91C327.03,-84.91 327.03,-103.79 327.03,-103.79"/>
<polygon fill="black" stroke="black" points="323.53,-103.79 327.03,-113.79 330.53,-103.79 323.53,-103.79"/>
</g>
<!-- FormOccModule -->
<g id="node3" class="node">
<title>FormOccModule</title>
<polygon fill="#8dd3c7" stroke="black" points="274.42,-84.8 271.42,-88.8 250.42,-88.8 247.42,-84.8 161.58,-84.8 161.58,-48.8 274.42,-48.8 274.42,-84.8"/>
<text text-anchor="middle" x="218" y="-62.6" font-family="Times,serif" font-size="14.00">FormOccModule</text>
</g>
<!-- FormOccModule&#45;&gt;DynamicFormModule -->
<g id="edge3" class="edge">
<title>FormOccModule&#45;&gt;DynamicFormModule</title>
<path fill="none" stroke="black" d="M247.3,-84.91C247.3,-84.91 247.3,-103.79 247.3,-103.79"/>
<polygon fill="black" stroke="black" points="243.8,-103.79 247.3,-113.79 250.8,-103.79 243.8,-103.79"/>
</g>
<!-- FormStoreModule -->
<g id="node4" class="node">
<title>FormStoreModule</title>
<polygon fill="#8dd3c7" stroke="black" points="143.93,-84.8 140.93,-88.8 119.93,-88.8 116.93,-84.8 24.07,-84.8 24.07,-48.8 143.93,-48.8 143.93,-84.8"/>
<text text-anchor="middle" x="84" y="-62.6" font-family="Times,serif" font-size="14.00">FormStoreModule</text>
</g>
<!-- FormStoreModule&#45;&gt;DynamicFormModule -->
<g id="edge4" class="edge">
<title>FormStoreModule&#45;&gt;DynamicFormModule</title>
<path fill="none" stroke="black" d="M84,-84.91C84,-104.14 84,-131.8 84,-131.8 84,-131.8 210.34,-131.8 210.34,-131.8"/>
<polygon fill="black" stroke="black" points="210.34,-135.3 220.34,-131.8 210.34,-128.3 210.34,-135.3"/>
</g>
<!-- FormContainerModule  -->
<g id="node6" class="node">
<title>FormContainerModule </title>
<polygon fill="#fb8072" stroke="black" points="365.09,-214.8 216.91,-214.8 216.91,-178.8 365.09,-178.8 365.09,-214.8"/>
<text text-anchor="middle" x="291" y="-192.6" font-family="Times,serif" font-size="14.00">FormContainerModule </text>
</g>
<!-- DynamicFormModule&#45;&gt;FormContainerModule  -->
<g id="edge5" class="edge">
<title>DynamicFormModule&#45;&gt;FormContainerModule </title>
<path fill="none" stroke="black" stroke-dasharray="5,2" d="M291,-149.91C291,-149.91 291,-168.79 291,-168.79"/>
<polygon fill="black" stroke="black" points="287.5,-168.79 291,-178.79 294.5,-168.79 287.5,-168.79"/>
</g>
</g>
</svg>
