<?xml version="1.0" encoding="UTF-8" standalone="no"?>
<!DOCTYPE svg PUBLIC "-//W3C//DTD SVG 1.1//EN"
 "http://www.w3.org/Graphics/SVG/1.1/DTD/svg11.dtd">
<!-- Generated by graphviz version 2.47.3 (20210619.1520)
 -->
<!-- Title: dependencies Pages: 1 -->
<svg width="414pt" height="247pt"
 viewBox="0.00 0.00 414.00 246.80" xmlns="http://www.w3.org/2000/svg" xmlns:xlink="http://www.w3.org/1999/xlink">
<g id="graph0" class="graph" transform="scale(1 1) rotate(0) translate(4 242.8)">
<title>dependencies</title>
<polygon fill="white" stroke="transparent" points="-4,4 -4,-242.8 410,-242.8 410,4 -4,4"/>
<text text-anchor="middle" x="203" y="-8.2" font-family="sans-serif" font-size="14.00">dependencies</text>
<g id="clust1" class="cluster">
<title>cluster_NavigationModule</title>
<polygon fill="none" stroke="black" stroke-dasharray="1,5" points="8,-32.8 8,-230.8 398,-230.8 398,-32.8 8,-32.8"/>
</g>
<g id="clust2" class="cluster">
<title>cluster_NavigationModule_declarations</title>
<polygon fill="none" stroke="black" points="20,-40.8 20,-92.8 387,-92.8 387,-40.8 20,-40.8"/>
</g>
<g id="clust6" class="cluster">
<title>cluster_NavigationModule_exports</title>
<polygon fill="none" stroke="black" points="16,-170.8 16,-222.8 390,-222.8 390,-170.8 16,-170.8"/>
</g>
<!-- FSNavigationComponent -->
<g id="node1" class="node">
<title>FSNavigationComponent</title>
<polygon fill="#ffffb3" stroke="black" points="378.61,-84.8 219.39,-84.8 219.39,-48.8 378.61,-48.8 378.61,-84.8"/>
<text text-anchor="middle" x="299" y="-62.6" font-family="Times,serif" font-size="14.00">FSNavigationComponent</text>
</g>
<!-- NavigationModule -->
<g id="node3" class="node">
<title>NavigationModule</title>
<polygon fill="#8dd3c7" stroke="black" points="176.76,-149.8 173.76,-153.8 152.76,-153.8 149.76,-149.8 55.24,-149.8 55.24,-113.8 176.76,-113.8 176.76,-149.8"/>
<text text-anchor="middle" x="116" y="-127.6" font-family="Times,serif" font-size="14.00">NavigationModule</text>
</g>
<!-- FSNavigationComponent&#45;&gt;NavigationModule -->
<g id="edge1" class="edge">
<title>FSNavigationComponent&#45;&gt;NavigationModule</title>
<path fill="none" stroke="black" d="M325.6,-84.82C325.6,-102.17 325.6,-125.8 325.6,-125.8 325.6,-125.8 186.91,-125.8 186.91,-125.8"/>
<polygon fill="black" stroke="black" points="186.91,-122.3 176.91,-125.8 186.91,-129.3 186.91,-122.3"/>
</g>
<!-- FSNavigationUIComponent -->
<g id="node2" class="node">
<title>FSNavigationUIComponent</title>
<polygon fill="#ffffb3" stroke="black" points="201.87,-84.8 28.13,-84.8 28.13,-48.8 201.87,-48.8 201.87,-84.8"/>
<text text-anchor="middle" x="115" y="-62.6" font-family="Times,serif" font-size="14.00">FSNavigationUIComponent</text>
</g>
<!-- FSNavigationUIComponent&#45;&gt;NavigationModule -->
<g id="edge2" class="edge">
<title>FSNavigationUIComponent&#45;&gt;NavigationModule</title>
<path fill="none" stroke="black" d="M116,-84.91C116,-84.91 116,-103.79 116,-103.79"/>
<polygon fill="black" stroke="black" points="112.5,-103.79 116,-113.79 119.5,-103.79 112.5,-103.79"/>
</g>
<!-- FSNavigationComponent  -->
<g id="node4" class="node">
<title>FSNavigationComponent </title>
<polygon fill="#fb8072" stroke="black" points="382.11,-214.8 219.89,-214.8 219.89,-178.8 382.11,-178.8 382.11,-214.8"/>
<text text-anchor="middle" x="301" y="-192.6" font-family="Times,serif" font-size="14.00">FSNavigationComponent </text>
</g>
<!-- NavigationModule&#45;&gt;FSNavigationComponent  -->
<g id="edge3" class="edge">
<title>NavigationModule&#45;&gt;FSNavigationComponent </title>
<path fill="none" stroke="black" stroke-dasharray="5,2" d="M177.01,-137.8C221,-137.8 272.65,-137.8 272.65,-137.8 272.65,-137.8 272.65,-168.78 272.65,-168.78"/>
<polygon fill="black" stroke="black" points="269.15,-168.78 272.65,-178.78 276.15,-168.78 269.15,-168.78"/>
</g>
<!-- FSNavigationUIComponent  -->
<g id="node5" class="node">
<title>FSNavigationUIComponent </title>
<polygon fill="#fb8072" stroke="black" points="201.87,-214.8 24.13,-214.8 24.13,-178.8 201.87,-178.8 201.87,-214.8"/>
<text text-anchor="middle" x="113" y="-192.6" font-family="Times,serif" font-size="14.00">FSNavigationUIComponent </text>
</g>
<!-- NavigationModule&#45;&gt;FSNavigationUIComponent  -->
<g id="edge4" class="edge">
<title>NavigationModule&#45;&gt;FSNavigationUIComponent </title>
<path fill="none" stroke="black" stroke-dasharray="5,2" d="M116,-149.91C116,-149.91 116,-168.79 116,-168.79"/>
<polygon fill="black" stroke="black" points="112.5,-168.79 116,-178.79 119.5,-168.79 112.5,-168.79"/>
</g>
</g>
</svg>
