<?xml version="1.0" encoding="UTF-8" standalone="no"?>
<!DOCTYPE svg PUBLIC "-//W3C//DTD SVG 1.1//EN"
 "http://www.w3.org/Graphics/SVG/1.1/DTD/svg11.dtd">
<!-- Generated by graphviz version 2.46.0 (20210119.1425)
 -->
<!-- Title: dependencies Pages: 1 -->
<svg width="504pt" height="284pt"
 viewBox="0.00 0.00 504.00 284.00" xmlns="http://www.w3.org/2000/svg" xmlns:xlink="http://www.w3.org/1999/xlink">
<g id="graph0" class="graph" transform="scale(1 1) rotate(0) translate(4 280)">
<title>dependencies</title>
<polygon fill="white" stroke="transparent" points="-4,4 -4,-280 500,-280 500,4 -4,4"/>
<text text-anchor="start" x="227.01" y="-42.4" font-family="sans-serif" font-weight="bold" font-size="14.00">Legend</text>
<polygon fill="#ffffb3" stroke="transparent" points="14,-10 14,-30 34,-30 34,-10 14,-10"/>
<text text-anchor="start" x="37.63" y="-15.4" font-family="sans-serif" font-size="14.00"> &#160;Declarations</text>
<polygon fill="#8dd3c7" stroke="transparent" points="127,-10 127,-30 147,-30 147,-10 127,-10"/>
<text text-anchor="start" x="150.73" y="-15.4" font-family="sans-serif" font-size="14.00"> &#160;Module</text>
<polygon fill="#80b1d3" stroke="transparent" points="213,-10 213,-30 233,-30 233,-10 213,-10"/>
<text text-anchor="start" x="236.78" y="-15.4" font-family="sans-serif" font-size="14.00"> &#160;Bootstrap</text>
<polygon fill="#fdb462" stroke="transparent" points="310,-10 310,-30 330,-30 330,-10 310,-10"/>
<text text-anchor="start" x="333.67" y="-15.4" font-family="sans-serif" font-size="14.00"> &#160;Providers</text>
<polygon fill="#fb8072" stroke="transparent" points="406,-10 406,-30 426,-30 426,-10 406,-10"/>
<text text-anchor="start" x="429.73" y="-15.4" font-family="sans-serif" font-size="14.00"> &#160;Exports</text>
<g id="clust1" class="cluster">
<title>cluster_ProductModule</title>
<polygon fill="none" stroke="black" stroke-dasharray="1,5" points="55,-70 55,-268 441,-268 441,-70 55,-70"/>
</g>
<g id="clust6" class="cluster">
<title>cluster_ProductModule_exports</title>
<polygon fill="none" stroke="black" points="63,-208 63,-260 433,-260 433,-208 63,-208"/>
</g>
<g id="clust2" class="cluster">
<title>cluster_ProductModule_declarations</title>
<polygon fill="none" stroke="black" points="67,-78 67,-130 430,-130 430,-78 67,-78"/>
</g>
<!-- FSProductListComponent -->
<g id="node1" class="node">
<title>FSProductListComponent</title>
<polygon fill="#ffffb3" stroke="black" points="422.22,-122 259.78,-122 259.78,-86 422.22,-86 422.22,-122"/>
<text text-anchor="middle" x="341" y="-99.8" font-family="Times,serif" font-size="14.00">FSProductListComponent</text>
</g>
<!-- ProductModule -->
<g id="node3" class="node">
<title>ProductModule</title>
<polygon fill="#8dd3c7" stroke="black" points="210.6,-187 207.6,-191 186.6,-191 183.6,-187 107.4,-187 107.4,-151 210.6,-151 210.6,-187"/>
<text text-anchor="middle" x="159" y="-164.8" font-family="Times,serif" font-size="14.00">ProductModule</text>
</g>
<!-- FSProductListComponent&#45;&gt;ProductModule -->
<g id="edge1" class="edge">
<title>FSProductListComponent&#45;&gt;ProductModule</title>
<path fill="none" stroke="black" d="M368.04,-122.02C368.04,-139.37 368.04,-163 368.04,-163 368.04,-163 220.67,-163 220.67,-163"/>
<polygon fill="black" stroke="black" points="220.67,-159.5 210.67,-163 220.67,-166.5 220.67,-159.5"/>
</g>
<!-- ProductFeatureComponent -->
<g id="node2" class="node">
<title>ProductFeatureComponent</title>
<polygon fill="#ffffb3" stroke="black" points="241.36,-122 74.64,-122 74.64,-86 241.36,-86 241.36,-122"/>
<text text-anchor="middle" x="158" y="-99.8" font-family="Times,serif" font-size="14.00">ProductFeatureComponent</text>
</g>
<!-- ProductFeatureComponent&#45;&gt;ProductModule -->
<g id="edge2" class="edge">
<title>ProductFeatureComponent&#45;&gt;ProductModule</title>
<path fill="none" stroke="black" d="M159,-122.11C159,-122.11 159,-140.99 159,-140.99"/>
<polygon fill="black" stroke="black" points="155.5,-140.99 159,-150.99 162.5,-140.99 155.5,-140.99"/>
</g>
<!-- FSProductListComponent  -->
<g id="node4" class="node">
<title>FSProductListComponent </title>
<polygon fill="#fb8072" stroke="black" points="424.72,-252 259.28,-252 259.28,-216 424.72,-216 424.72,-252"/>
<text text-anchor="middle" x="342" y="-229.8" font-family="Times,serif" font-size="14.00">FSProductListComponent </text>
</g>
<!-- ProductModule&#45;&gt;FSProductListComponent  -->
<g id="edge3" class="edge">
<title>ProductModule&#45;&gt;FSProductListComponent </title>
<path fill="none" stroke="black" stroke-dasharray="5,2" d="M210.6,-175C255.68,-175 313.96,-175 313.96,-175 313.96,-175 313.96,-205.98 313.96,-205.98"/>
<polygon fill="black" stroke="black" points="310.46,-205.98 313.96,-215.98 317.46,-205.98 310.46,-205.98"/>
</g>
<!-- ProductFeatureComponent  -->
<g id="node5" class="node">
<title>ProductFeatureComponent </title>
<polygon fill="#fb8072" stroke="black" points="241.36,-252 70.64,-252 70.64,-216 241.36,-216 241.36,-252"/>
<text text-anchor="middle" x="156" y="-229.8" font-family="Times,serif" font-size="14.00">ProductFeatureComponent </text>
</g>
<!-- ProductModule&#45;&gt;ProductFeatureComponent  -->
<g id="edge4" class="edge">
<title>ProductModule&#45;&gt;ProductFeatureComponent </title>
<path fill="none" stroke="black" stroke-dasharray="5,2" d="M159,-187.11C159,-187.11 159,-205.99 159,-205.99"/>
<polygon fill="black" stroke="black" points="155.5,-205.99 159,-215.99 162.5,-205.99 155.5,-205.99"/>
</g>
</g>
</svg>
