<?xml version="1.0" encoding="UTF-8" standalone="no"?>
<!DOCTYPE svg PUBLIC "-//W3C//DTD SVG 1.1//EN"
 "http://www.w3.org/Graphics/SVG/1.1/DTD/svg11.dtd">
<!-- Generated by graphviz version 2.47.3 (20210619.1520)
 -->
<!-- Title: dependencies Pages: 1 -->
<svg width="410pt" height="247pt"
 viewBox="0.00 0.00 410.00 246.80" xmlns="http://www.w3.org/2000/svg" xmlns:xlink="http://www.w3.org/1999/xlink">
<g id="graph0" class="graph" transform="scale(1 1) rotate(0) translate(4 242.8)">
<title>dependencies</title>
<polygon fill="white" stroke="transparent" points="-4,4 -4,-242.8 406,-242.8 406,4 -4,4"/>
<text text-anchor="middle" x="201" y="-8.2" font-family="sans-serif" font-size="14.00">dependencies</text>
<g id="clust1" class="cluster">
<title>cluster_ProductModule</title>
<polygon fill="none" stroke="black" stroke-dasharray="1,5" points="8,-32.8 8,-230.8 394,-230.8 394,-32.8 8,-32.8"/>
</g>
<g id="clust2" class="cluster">
<title>cluster_ProductModule_declarations</title>
<polygon fill="none" stroke="black" points="20,-40.8 20,-92.8 383,-92.8 383,-40.8 20,-40.8"/>
</g>
<g id="clust6" class="cluster">
<title>cluster_ProductModule_exports</title>
<polygon fill="none" stroke="black" points="16,-170.8 16,-222.8 386,-222.8 386,-170.8 16,-170.8"/>
</g>
<!-- FSProductListComponent -->
<g id="node1" class="node">
<title>FSProductListComponent</title>
<polygon fill="#ffffb3" stroke="black" points="375.22,-84.8 212.78,-84.8 212.78,-48.8 375.22,-48.8 375.22,-84.8"/>
<text text-anchor="middle" x="294" y="-62.6" font-family="Times,serif" font-size="14.00">FSProductListComponent</text>
</g>
<!-- ProductModule -->
<g id="node3" class="node">
<title>ProductModule</title>
<polygon fill="#8dd3c7" stroke="black" points="163.6,-149.8 160.6,-153.8 139.6,-153.8 136.6,-149.8 60.4,-149.8 60.4,-113.8 163.6,-113.8 163.6,-149.8"/>
<text text-anchor="middle" x="112" y="-127.6" font-family="Times,serif" font-size="14.00">ProductModule</text>
</g>
<!-- FSProductListComponent&#45;&gt;ProductModule -->
<g id="edge1" class="edge">
<title>FSProductListComponent&#45;&gt;ProductModule</title>
<path fill="none" stroke="black" d="M321.04,-84.82C321.04,-102.17 321.04,-125.8 321.04,-125.8 321.04,-125.8 173.67,-125.8 173.67,-125.8"/>
<polygon fill="black" stroke="black" points="173.67,-122.3 163.67,-125.8 173.67,-129.3 173.67,-122.3"/>
</g>
<!-- ProductFeatureComponent -->
<g id="node2" class="node">
<title>ProductFeatureComponent</title>
<polygon fill="#ffffb3" stroke="black" points="194.36,-84.8 27.64,-84.8 27.64,-48.8 194.36,-48.8 194.36,-84.8"/>
<text text-anchor="middle" x="111" y="-62.6" font-family="Times,serif" font-size="14.00">ProductFeatureComponent</text>
</g>
<!-- ProductFeatureComponent&#45;&gt;ProductModule -->
<g id="edge2" class="edge">
<title>ProductFeatureComponent&#45;&gt;ProductModule</title>
<path fill="none" stroke="black" d="M112,-84.91C112,-84.91 112,-103.79 112,-103.79"/>
<polygon fill="black" stroke="black" points="108.5,-103.79 112,-113.79 115.5,-103.79 108.5,-103.79"/>
</g>
<!-- FSProductListComponent  -->
<g id="node4" class="node">
<title>FSProductListComponent </title>
<polygon fill="#fb8072" stroke="black" points="377.72,-214.8 212.28,-214.8 212.28,-178.8 377.72,-178.8 377.72,-214.8"/>
<text text-anchor="middle" x="295" y="-192.6" font-family="Times,serif" font-size="14.00">FSProductListComponent </text>
</g>
<!-- ProductModule&#45;&gt;FSProductListComponent  -->
<g id="edge3" class="edge">
<title>ProductModule&#45;&gt;FSProductListComponent </title>
<path fill="none" stroke="black" stroke-dasharray="5,2" d="M163.6,-137.8C208.68,-137.8 266.96,-137.8 266.96,-137.8 266.96,-137.8 266.96,-168.78 266.96,-168.78"/>
<polygon fill="black" stroke="black" points="263.46,-168.78 266.96,-178.78 270.46,-168.78 263.46,-168.78"/>
</g>
<!-- ProductFeatureComponent  -->
<g id="node5" class="node">
<title>ProductFeatureComponent </title>
<polygon fill="#fb8072" stroke="black" points="194.36,-214.8 23.64,-214.8 23.64,-178.8 194.36,-178.8 194.36,-214.8"/>
<text text-anchor="middle" x="109" y="-192.6" font-family="Times,serif" font-size="14.00">ProductFeatureComponent </text>
</g>
<!-- ProductModule&#45;&gt;ProductFeatureComponent  -->
<g id="edge4" class="edge">
<title>ProductModule&#45;&gt;ProductFeatureComponent </title>
<path fill="none" stroke="black" stroke-dasharray="5,2" d="M112,-149.91C112,-149.91 112,-168.79 112,-168.79"/>
<polygon fill="black" stroke="black" points="108.5,-168.79 112,-178.79 115.5,-168.79 108.5,-168.79"/>
</g>
</g>
</svg>
