<?xml version="1.0" encoding="UTF-8" standalone="no"?>
<!DOCTYPE svg PUBLIC "-//W3C//DTD SVG 1.1//EN"
 "http://www.w3.org/Graphics/SVG/1.1/DTD/svg11.dtd">
<!-- Generated by graphviz version 2.46.0 (20210119.1425)
 -->
<!-- Title: dependencies Pages: 1 -->
<svg width="1230pt" height="284pt"
 viewBox="0.00 0.00 1230.00 284.00" xmlns="http://www.w3.org/2000/svg" xmlns:xlink="http://www.w3.org/1999/xlink">
<g id="graph0" class="graph" transform="scale(1 1) rotate(0) translate(4 280)">
<title>dependencies</title>
<polygon fill="white" stroke="transparent" points="-4,4 -4,-280 1226,-280 1226,4 -4,4"/>
<text text-anchor="start" x="590.01" y="-42.4" font-family="sans-serif" font-weight="bold" font-size="14.00">Legend</text>
<polygon fill="#ffffb3" stroke="transparent" points="377,-10 377,-30 397,-30 397,-10 377,-10"/>
<text text-anchor="start" x="400.63" y="-15.4" font-family="sans-serif" font-size="14.00"> &#160;Declarations</text>
<polygon fill="#8dd3c7" stroke="transparent" points="490,-10 490,-30 510,-30 510,-10 490,-10"/>
<text text-anchor="start" x="513.73" y="-15.4" font-family="sans-serif" font-size="14.00"> &#160;Module</text>
<polygon fill="#80b1d3" stroke="transparent" points="576,-10 576,-30 596,-30 596,-10 576,-10"/>
<text text-anchor="start" x="599.78" y="-15.4" font-family="sans-serif" font-size="14.00"> &#160;Bootstrap</text>
<polygon fill="#fdb462" stroke="transparent" points="673,-10 673,-30 693,-30 693,-10 673,-10"/>
<text text-anchor="start" x="696.67" y="-15.4" font-family="sans-serif" font-size="14.00"> &#160;Providers</text>
<polygon fill="#fb8072" stroke="transparent" points="769,-10 769,-30 789,-30 789,-10 769,-10"/>
<text text-anchor="start" x="792.73" y="-15.4" font-family="sans-serif" font-size="14.00"> &#160;Exports</text>
<g id="clust1" class="cluster">
<title>cluster_ProductAssignmentModule</title>
<polygon fill="none" stroke="black" stroke-dasharray="1,5" points="8,-70 8,-268 1214,-268 1214,-70 8,-70"/>
</g>
<g id="clust8" class="cluster">
<title>cluster_ProductAssignmentModule_exports</title>
<polygon fill="none" stroke="black" points="121,-208 121,-260 1101,-260 1101,-208 121,-208"/>
</g>
<g id="clust7" class="cluster">
<title>cluster_ProductAssignmentModule_imports</title>
<polygon fill="none" stroke="black" points="990,-78 990,-130 1206,-130 1206,-78 990,-78"/>
</g>
<g id="clust2" class="cluster">
<title>cluster_ProductAssignmentModule_declarations</title>
<polygon fill="none" stroke="black" points="16,-78 16,-130 982,-130 982,-78 16,-78"/>
</g>
<!-- ActiveProductAssignmentsComponent -->
<g id="node1" class="node">
<title>ActiveProductAssignmentsComponent</title>
<polygon fill="#ffffb3" stroke="black" points="974.03,-122 739.97,-122 739.97,-86 974.03,-86 974.03,-122"/>
<text text-anchor="middle" x="857" y="-99.8" font-family="Times,serif" font-size="14.00">ActiveProductAssignmentsComponent</text>
</g>
<!-- ProductAssignmentModule -->
<g id="node5" class="node">
<title>ProductAssignmentModule</title>
<polygon fill="#8dd3c7" stroke="black" points="682.98,-187 679.98,-191 658.98,-191 655.98,-187 513.02,-187 513.02,-151 682.98,-151 682.98,-187"/>
<text text-anchor="middle" x="598" y="-164.8" font-family="Times,serif" font-size="14.00">ProductAssignmentModule</text>
</g>
<!-- ActiveProductAssignmentsComponent&#45;&gt;ProductAssignmentModule -->
<g id="edge1" class="edge">
<title>ActiveProductAssignmentsComponent&#45;&gt;ProductAssignmentModule</title>
<path fill="none" stroke="black" d="M788.49,-122.03C788.49,-138.4 788.49,-160 788.49,-160 788.49,-160 693.22,-160 693.22,-160"/>
<polygon fill="black" stroke="black" points="693.22,-156.5 683.22,-160 693.22,-163.5 693.22,-156.5"/>
</g>
<!-- PotentialProductAssignmentsComponent -->
<g id="node2" class="node">
<title>PotentialProductAssignmentsComponent</title>
<polygon fill="#ffffb3" stroke="black" points="721.48,-122 474.52,-122 474.52,-86 721.48,-86 721.48,-122"/>
<text text-anchor="middle" x="598" y="-99.8" font-family="Times,serif" font-size="14.00">PotentialProductAssignmentsComponent</text>
</g>
<!-- PotentialProductAssignmentsComponent&#45;&gt;ProductAssignmentModule -->
<g id="edge2" class="edge">
<title>PotentialProductAssignmentsComponent&#45;&gt;ProductAssignmentModule</title>
<path fill="none" stroke="black" d="M598,-122.11C598,-122.11 598,-140.99 598,-140.99"/>
<polygon fill="black" stroke="black" points="594.5,-140.99 598,-150.99 601.5,-140.99 594.5,-140.99"/>
</g>
<!-- ProductAssignmentItemComponent -->
<g id="node3" class="node">
<title>ProductAssignmentItemComponent</title>
<polygon fill="#ffffb3" stroke="black" points="456.92,-122 239.08,-122 239.08,-86 456.92,-86 456.92,-122"/>
<text text-anchor="middle" x="348" y="-99.8" font-family="Times,serif" font-size="14.00">ProductAssignmentItemComponent</text>
</g>
<!-- ProductAssignmentItemComponent&#45;&gt;ProductAssignmentModule -->
<g id="edge3" class="edge">
<title>ProductAssignmentItemComponent&#45;&gt;ProductAssignmentModule</title>
<path fill="none" stroke="black" d="M402.12,-122.03C402.12,-138.4 402.12,-160 402.12,-160 402.12,-160 502.94,-160 502.94,-160"/>
<polygon fill="black" stroke="black" points="502.94,-163.5 512.94,-160 502.94,-156.5 502.94,-163.5"/>
</g>
<!-- ProductAssignmentsComponent -->
<g id="node4" class="node">
<title>ProductAssignmentsComponent</title>
<polygon fill="#ffffb3" stroke="black" points="221.71,-122 24.29,-122 24.29,-86 221.71,-86 221.71,-122"/>
<text text-anchor="middle" x="123" y="-99.8" font-family="Times,serif" font-size="14.00">ProductAssignmentsComponent</text>
</g>
<!-- ProductAssignmentsComponent&#45;&gt;ProductAssignmentModule -->
<g id="edge4" class="edge">
<title>ProductAssignmentsComponent&#45;&gt;ProductAssignmentModule</title>
<path fill="none" stroke="black" d="M175.12,-122.11C175.12,-141.34 175.12,-169 175.12,-169 175.12,-169 502.93,-169 502.93,-169"/>
<polygon fill="black" stroke="black" points="502.93,-172.5 512.93,-169 502.93,-165.5 502.93,-172.5"/>
</g>
<!-- ActiveProductAssignmentsComponent  -->
<g id="node7" class="node">
<title>ActiveProductAssignmentsComponent </title>
<polygon fill="#fb8072" stroke="black" points="1093.02,-252 854.98,-252 854.98,-216 1093.02,-216 1093.02,-252"/>
<text text-anchor="middle" x="974" y="-229.8" font-family="Times,serif" font-size="14.00">ActiveProductAssignmentsComponent </text>
</g>
<!-- ProductAssignmentModule&#45;&gt;ActiveProductAssignmentsComponent  -->
<g id="edge6" class="edge">
<title>ProductAssignmentModule&#45;&gt;ActiveProductAssignmentsComponent </title>
<path fill="none" stroke="black" stroke-dasharray="5,2" d="M683.27,-178C777.05,-178 914.62,-178 914.62,-178 914.62,-178 914.62,-205.97 914.62,-205.97"/>
<polygon fill="black" stroke="black" points="911.13,-205.97 914.62,-215.97 918.13,-205.97 911.13,-205.97"/>
</g>
<!-- PotentialProductAssignmentsComponent  -->
<g id="node8" class="node">
<title>PotentialProductAssignmentsComponent </title>
<polygon fill="#fb8072" stroke="black" points="837.48,-252 586.52,-252 586.52,-216 837.48,-216 837.48,-252"/>
<text text-anchor="middle" x="712" y="-229.8" font-family="Times,serif" font-size="14.00">PotentialProductAssignmentsComponent </text>
</g>
<!-- ProductAssignmentModule&#45;&gt;PotentialProductAssignmentsComponent  -->
<g id="edge7" class="edge">
<title>ProductAssignmentModule&#45;&gt;PotentialProductAssignmentsComponent </title>
<path fill="none" stroke="black" stroke-dasharray="5,2" d="M634.87,-187.11C634.87,-187.11 634.87,-205.99 634.87,-205.99"/>
<polygon fill="black" stroke="black" points="631.37,-205.99 634.87,-215.99 638.37,-205.99 631.37,-205.99"/>
</g>
<!-- ProductAssignmentItemComponent  -->
<g id="node9" class="node">
<title>ProductAssignmentItemComponent </title>
<polygon fill="#fb8072" stroke="black" points="568.42,-252 347.58,-252 347.58,-216 568.42,-216 568.42,-252"/>
<text text-anchor="middle" x="458" y="-229.8" font-family="Times,serif" font-size="14.00">ProductAssignmentItemComponent </text>
</g>
<!-- ProductAssignmentModule&#45;&gt;ProductAssignmentItemComponent  -->
<g id="edge8" class="edge">
<title>ProductAssignmentModule&#45;&gt;ProductAssignmentItemComponent </title>
<path fill="none" stroke="black" stroke-dasharray="5,2" d="M540.73,-187.11C540.73,-187.11 540.73,-205.99 540.73,-205.99"/>
<polygon fill="black" stroke="black" points="537.23,-205.99 540.73,-215.99 544.23,-205.99 537.23,-205.99"/>
</g>
<!-- ProductAssignmentsComponent  -->
<g id="node10" class="node">
<title>ProductAssignmentsComponent </title>
<polygon fill="#fb8072" stroke="black" points="329.21,-252 128.79,-252 128.79,-216 329.21,-216 329.21,-252"/>
<text text-anchor="middle" x="229" y="-229.8" font-family="Times,serif" font-size="14.00">ProductAssignmentsComponent </text>
</g>
<!-- ProductAssignmentModule&#45;&gt;ProductAssignmentsComponent  -->
<g id="edge9" class="edge">
<title>ProductAssignmentModule&#45;&gt;ProductAssignmentsComponent </title>
<path fill="none" stroke="black" stroke-dasharray="5,2" d="M512.7,-178C419.81,-178 284.32,-178 284.32,-178 284.32,-178 284.32,-205.97 284.32,-205.97"/>
<polygon fill="black" stroke="black" points="280.82,-205.97 284.32,-215.97 287.82,-205.97 280.82,-205.97"/>
</g>
<!-- ProductAssignmentStoreModule -->
<g id="node6" class="node">
<title>ProductAssignmentStoreModule</title>
<polygon fill="#8dd3c7" stroke="black" points="1197.53,-122 1194.53,-126 1173.53,-126 1170.53,-122 998.47,-122 998.47,-86 1197.53,-86 1197.53,-122"/>
<text text-anchor="middle" x="1098" y="-99.8" font-family="Times,serif" font-size="14.00">ProductAssignmentStoreModule</text>
</g>
<!-- ProductAssignmentStoreModule&#45;&gt;ProductAssignmentModule -->
<g id="edge5" class="edge">
<title>ProductAssignmentStoreModule&#45;&gt;ProductAssignmentModule</title>
<path fill="none" stroke="black" d="M1045.62,-122.11C1045.62,-141.34 1045.62,-169 1045.62,-169 1045.62,-169 692.98,-169 692.98,-169"/>
<polygon fill="black" stroke="black" points="692.98,-165.5 682.98,-169 692.98,-172.5 692.98,-165.5"/>
</g>
</g>
</svg>
