<?xml version="1.0" encoding="UTF-8" standalone="no"?>
<!DOCTYPE svg PUBLIC "-//W3C//DTD SVG 1.1//EN"
 "http://www.w3.org/Graphics/SVG/1.1/DTD/svg11.dtd">
<!-- Generated by graphviz version 2.47.3 (20210619.1520)
 -->
<!-- Title: dependencies Pages: 1 -->
<svg width="804pt" height="312pt"
 viewBox="0.00 0.00 804.00 311.80" xmlns="http://www.w3.org/2000/svg" xmlns:xlink="http://www.w3.org/1999/xlink">
<g id="graph0" class="graph" transform="scale(1 1) rotate(0) translate(4 307.8)">
<title>dependencies</title>
<polygon fill="white" stroke="transparent" points="-4,4 -4,-307.8 800,-307.8 800,4 -4,4"/>
<text text-anchor="middle" x="398" y="-8.2" font-family="sans-serif" font-size="14.00">dependencies</text>
<g id="clust1" class="cluster">
<title>cluster_PoliciesChartModule</title>
<polygon fill="none" stroke="black" stroke-dasharray="1,5" points="8,-32.8 8,-295.8 788,-295.8 788,-32.8 8,-32.8"/>
</g>
<g id="clust5" class="cluster">
<title>cluster_PoliciesChartModule_exports</title>
<polygon fill="none" stroke="black" points="142,-235.8 142,-287.8 318,-287.8 318,-235.8 142,-235.8"/>
</g>
<g id="clust3" class="cluster">
<title>cluster_PoliciesChartModule_PoliciesChartComponent_providers</title>
<polygon fill="none" stroke="black" points="158,-40.8 158,-157.8 780,-157.8 780,-40.8 158,-40.8"/>
</g>
<g id="clust4" class="cluster">
<title>cluster_PoliciesChartModule_imports</title>
<polygon fill="none" stroke="black" points="16,-105.8 16,-157.8 150,-157.8 150,-105.8 16,-105.8"/>
</g>
<!-- PoliciesChartComponent -->
<g id="node1" class="node">
<title>PoliciesChartComponent</title>
<polygon fill="#ffffb3" stroke="black" points="434.26,-149.8 277.74,-149.8 277.74,-113.8 434.26,-113.8 434.26,-149.8"/>
<text text-anchor="middle" x="356" y="-127.6" font-family="Times,serif" font-size="14.00">PoliciesChartComponent</text>
</g>
<!-- PoliciesChartModule -->
<g id="node2" class="node">
<title>PoliciesChartModule</title>
<polygon fill="#8dd3c7" stroke="black" points="297.48,-214.8 294.48,-218.8 273.48,-218.8 270.48,-214.8 162.52,-214.8 162.52,-178.8 297.48,-178.8 297.48,-214.8"/>
<text text-anchor="middle" x="230" y="-192.6" font-family="Times,serif" font-size="14.00">PoliciesChartModule</text>
</g>
<!-- PoliciesChartComponent&#45;&gt;PoliciesChartModule -->
<g id="edge1" class="edge">
<title>PoliciesChartComponent&#45;&gt;PoliciesChartModule</title>
<path fill="none" stroke="black" d="M287.55,-149.91C287.55,-149.91 287.55,-168.79 287.55,-168.79"/>
<polygon fill="black" stroke="black" points="284.05,-168.79 287.55,-178.79 291.05,-168.79 284.05,-168.79"/>
</g>
<!-- PoliciesChartComponent  -->
<g id="node6" class="node">
<title>PoliciesChartComponent </title>
<polygon fill="#fb8072" stroke="black" points="310.26,-279.8 149.74,-279.8 149.74,-243.8 310.26,-243.8 310.26,-279.8"/>
<text text-anchor="middle" x="230" y="-257.6" font-family="Times,serif" font-size="14.00">PoliciesChartComponent </text>
</g>
<!-- PoliciesChartModule&#45;&gt;PoliciesChartComponent  -->
<g id="edge5" class="edge">
<title>PoliciesChartModule&#45;&gt;PoliciesChartComponent </title>
<path fill="none" stroke="black" stroke-dasharray="5,2" d="M230,-214.91C230,-214.91 230,-233.79 230,-233.79"/>
<polygon fill="black" stroke="black" points="226.5,-233.79 230,-243.79 233.5,-233.79 226.5,-233.79"/>
</g>
<!-- PolicyChartDataService -->
<g id="node3" class="node">
<title>PolicyChartDataService</title>
<ellipse fill="#fdb462" stroke="black" cx="668" cy="-66.8" rx="104.21" ry="18"/>
<text text-anchor="middle" x="668" y="-62.6" font-family="Times,serif" font-size="14.00">PolicyChartDataService</text>
</g>
<!-- PolicyChartDataService&#45;&gt;PoliciesChartComponent -->
<g id="edge2" class="edge">
<title>PolicyChartDataService&#45;&gt;PoliciesChartComponent</title>
<path fill="none" stroke="black" d="M668,-84.91C668,-104.14 668,-131.8 668,-131.8 668,-131.8 444.33,-131.8 444.33,-131.8"/>
<polygon fill="black" stroke="black" points="444.33,-128.3 434.33,-131.8 444.33,-135.3 444.33,-128.3"/>
</g>
<!-- { provide: ChartConfig, useExisting: Config } -->
<g id="node4" class="node">
<title>{ provide: ChartConfig, useExisting: Config }</title>
<ellipse fill="#fdb462" stroke="black" cx="356" cy="-66.8" rx="189.64" ry="18"/>
<text text-anchor="middle" x="356" y="-62.6" font-family="Times,serif" font-size="14.00">{ provide: ChartConfig, useExisting: Config }</text>
</g>
<!-- { provide: ChartConfig, useExisting: Config }&#45;&gt;PoliciesChartComponent -->
<g id="edge3" class="edge">
<title>{ provide: ChartConfig, useExisting: Config }&#45;&gt;PoliciesChartComponent</title>
<path fill="none" stroke="black" d="M356,-84.91C356,-84.91 356,-103.79 356,-103.79"/>
<polygon fill="black" stroke="black" points="352.5,-103.79 356,-113.79 359.5,-103.79 352.5,-103.79"/>
</g>
<!-- AccordionModule -->
<g id="node5" class="node">
<title>AccordionModule</title>
<polygon fill="#8dd3c7" stroke="black" points="142.14,-149.8 139.14,-153.8 118.14,-153.8 115.14,-149.8 23.86,-149.8 23.86,-113.8 142.14,-113.8 142.14,-149.8"/>
<text text-anchor="middle" x="83" y="-127.6" font-family="Times,serif" font-size="14.00">AccordionModule</text>
</g>
<!-- AccordionModule&#45;&gt;PoliciesChartModule -->
<g id="edge4" class="edge">
<title>AccordionModule&#45;&gt;PoliciesChartModule</title>
<path fill="none" stroke="black" d="M142.31,-131.8C180.06,-131.8 221.9,-131.8 221.9,-131.8 221.9,-131.8 221.9,-168.69 221.9,-168.69"/>
<polygon fill="black" stroke="black" points="218.4,-168.69 221.9,-178.69 225.4,-168.69 218.4,-168.69"/>
</g>
</g>
</svg>
