<?xml version="1.0" encoding="UTF-8" standalone="no"?>
<!DOCTYPE svg PUBLIC "-//W3C//DTD SVG 1.1//EN"
 "http://www.w3.org/Graphics/SVG/1.1/DTD/svg11.dtd">
<!-- Generated by graphviz version 2.47.3 (20210619.1520)
 -->
<!-- Title: dependencies Pages: 1 -->
<svg width="804pt" height="312pt"
 viewBox="0.00 0.00 804.00 311.80" xmlns="http://www.w3.org/2000/svg" xmlns:xlink="http://www.w3.org/1999/xlink">
<g id="graph0" class="graph" transform="scale(1 1) rotate(0) translate(4 307.8)">
<title>dependencies</title>
<polygon fill="white" stroke="transparent" points="-4,4 -4,-307.8 800,-307.8 800,4 -4,4"/>
<text text-anchor="middle" x="398" y="-8.2" font-family="sans-serif" font-size="14.00">dependencies</text>
<g id="clust1" class="cluster">
<title>cluster_PoliciesChartModule</title>
<polygon fill="none" stroke="black" stroke-dasharray="1,5" points="8,-32.8 8,-295.8 788,-295.8 788,-32.8 8,-32.8"/>
</g>
<g id="clust4" class="cluster">
<title>cluster_PoliciesChartModule_imports</title>
<polygon fill="none" stroke="black" points="646,-105.8 646,-157.8 780,-157.8 780,-105.8 646,-105.8"/>
</g>
<g id="clust5" class="cluster">
<title>cluster_PoliciesChartModule_exports</title>
<polygon fill="none" stroke="black" points="521,-235.8 521,-287.8 697,-287.8 697,-235.8 521,-235.8"/>
</g>
<g id="clust3" class="cluster">
<title>cluster_PoliciesChartModule_PoliciesChartComponent_providers</title>
<polygon fill="none" stroke="black" points="16,-40.8 16,-157.8 638,-157.8 638,-40.8 16,-40.8"/>
</g>
<!-- PoliciesChartComponent -->
<g id="node1" class="node">
<title>PoliciesChartComponent</title>
<polygon fill="#ffffb3" stroke="black" points="604.26,-149.8 447.74,-149.8 447.74,-113.8 604.26,-113.8 604.26,-149.8"/>
<text text-anchor="middle" x="526" y="-127.6" font-family="Times,serif" font-size="14.00">PoliciesChartComponent</text>
</g>
<!-- PoliciesChartModule -->
<g id="node2" class="node">
<title>PoliciesChartModule</title>
<polygon fill="#8dd3c7" stroke="black" points="676.48,-214.8 673.48,-218.8 652.48,-218.8 649.48,-214.8 541.52,-214.8 541.52,-178.8 676.48,-178.8 676.48,-214.8"/>
<text text-anchor="middle" x="609" y="-192.6" font-family="Times,serif" font-size="14.00">PoliciesChartModule</text>
</g>
<!-- PoliciesChartComponent&#45;&gt;PoliciesChartModule -->
<g id="edge1" class="edge">
<title>PoliciesChartComponent&#45;&gt;PoliciesChartModule</title>
<path fill="none" stroke="black" d="M572.95,-149.91C572.95,-149.91 572.95,-168.79 572.95,-168.79"/>
<polygon fill="black" stroke="black" points="569.45,-168.79 572.95,-178.79 576.45,-168.79 569.45,-168.79"/>
</g>
<!-- PoliciesChartComponent  -->
<g id="node6" class="node">
<title>PoliciesChartComponent </title>
<polygon fill="#fb8072" stroke="black" points="689.26,-279.8 528.74,-279.8 528.74,-243.8 689.26,-243.8 689.26,-279.8"/>
<text text-anchor="middle" x="609" y="-257.6" font-family="Times,serif" font-size="14.00">PoliciesChartComponent </text>
</g>
<!-- PoliciesChartModule&#45;&gt;PoliciesChartComponent  -->
<g id="edge5" class="edge">
<title>PoliciesChartModule&#45;&gt;PoliciesChartComponent </title>
<path fill="none" stroke="black" stroke-dasharray="5,2" d="M609,-214.91C609,-214.91 609,-233.79 609,-233.79"/>
<polygon fill="black" stroke="black" points="605.5,-233.79 609,-243.79 612.5,-233.79 605.5,-233.79"/>
</g>
<!-- PolicyChartDataService -->
<g id="node3" class="node">
<title>PolicyChartDataService</title>
<ellipse fill="#fdb462" stroke="black" cx="526" cy="-66.8" rx="104.21" ry="18"/>
<text text-anchor="middle" x="526" y="-62.6" font-family="Times,serif" font-size="14.00">PolicyChartDataService</text>
</g>
<!-- PolicyChartDataService&#45;&gt;PoliciesChartComponent -->
<g id="edge2" class="edge">
<title>PolicyChartDataService&#45;&gt;PoliciesChartComponent</title>
<path fill="none" stroke="black" d="M526,-84.91C526,-84.91 526,-103.79 526,-103.79"/>
<polygon fill="black" stroke="black" points="522.5,-103.79 526,-113.79 529.5,-103.79 522.5,-103.79"/>
</g>
<!-- { provide: ChartConfig, useExisting: Config } -->
<g id="node4" class="node">
<title>{ provide: ChartConfig, useExisting: Config }</title>
<ellipse fill="#fdb462" stroke="black" cx="214" cy="-66.8" rx="189.64" ry="18"/>
<text text-anchor="middle" x="214" y="-62.6" font-family="Times,serif" font-size="14.00">{ provide: ChartConfig, useExisting: Config }</text>
</g>
<!-- { provide: ChartConfig, useExisting: Config }&#45;&gt;PoliciesChartComponent -->
<g id="edge3" class="edge">
<title>{ provide: ChartConfig, useExisting: Config }&#45;&gt;PoliciesChartComponent</title>
<path fill="none" stroke="black" d="M214,-84.91C214,-104.14 214,-131.8 214,-131.8 214,-131.8 437.67,-131.8 437.67,-131.8"/>
<polygon fill="black" stroke="black" points="437.67,-135.3 447.67,-131.8 437.67,-128.3 437.67,-135.3"/>
</g>
<!-- AccordionModule -->
<g id="node5" class="node">
<title>AccordionModule</title>
<polygon fill="#8dd3c7" stroke="black" points="772.14,-149.8 769.14,-153.8 748.14,-153.8 745.14,-149.8 653.86,-149.8 653.86,-113.8 772.14,-113.8 772.14,-149.8"/>
<text text-anchor="middle" x="713" y="-127.6" font-family="Times,serif" font-size="14.00">AccordionModule</text>
</g>
<!-- AccordionModule&#45;&gt;PoliciesChartModule -->
<g id="edge4" class="edge">
<title>AccordionModule&#45;&gt;PoliciesChartModule</title>
<path fill="none" stroke="black" d="M665.09,-149.91C665.09,-149.91 665.09,-168.79 665.09,-168.79"/>
<polygon fill="black" stroke="black" points="661.59,-168.79 665.09,-178.79 668.59,-168.79 661.59,-168.79"/>
</g>
</g>
</svg>
