<?xml version="1.0" encoding="UTF-8" standalone="no"?>
<!DOCTYPE svg PUBLIC "-//W3C//DTD SVG 1.1//EN"
 "http://www.w3.org/Graphics/SVG/1.1/DTD/svg11.dtd">
<!-- Generated by graphviz version 2.47.3 (20210619.1520)
 -->
<!-- Title: dependencies Pages: 1 -->
<svg width="500pt" height="174pt"
 viewBox="0.00 0.00 500.00 173.80" xmlns="http://www.w3.org/2000/svg" xmlns:xlink="http://www.w3.org/1999/xlink">
<g id="graph0" class="graph" transform="scale(1 1) rotate(0) translate(4 169.8)">
<title>dependencies</title>
<polygon fill="white" stroke="transparent" points="-4,4 -4,-169.8 496,-169.8 496,4 -4,4"/>
<text text-anchor="middle" x="246" y="-8.2" font-family="sans-serif" font-size="14.00">dependencies</text>
<g id="clust1" class="cluster">
<title>cluster_FSModule</title>
<polygon fill="none" stroke="black" stroke-dasharray="1,5" points="8,-32.8 8,-157.8 484,-157.8 484,-32.8 8,-32.8"/>
</g>
<g id="clust3" class="cluster">
<title>cluster_FSModule_imports</title>
<polygon fill="none" stroke="black" points="16,-40.8 16,-92.8 476,-92.8 476,-40.8 16,-40.8"/>
</g>
<!-- FSConfigurationModule -->
<g id="node1" class="node">
<title>FSConfigurationModule</title>
<polygon fill="#8dd3c7" stroke="black" points="467.66,-84.8 464.66,-88.8 443.66,-88.8 440.66,-84.8 314.34,-84.8 314.34,-48.8 467.66,-48.8 467.66,-84.8"/>
<text text-anchor="middle" x="391" y="-62.6" font-family="Times,serif" font-size="14.00">FSConfigurationModule</text>
</g>
<!-- FSModule -->
<g id="node4" class="node">
<title>FSModule</title>
<polygon fill="#8dd3c7" stroke="black" points="272.62,-149.8 269.62,-153.8 248.62,-153.8 245.62,-149.8 197.38,-149.8 197.38,-113.8 272.62,-113.8 272.62,-149.8"/>
<text text-anchor="middle" x="235" y="-127.6" font-family="Times,serif" font-size="14.00">FSModule</text>
</g>
<!-- FSConfigurationModule&#45;&gt;FSModule -->
<g id="edge1" class="edge">
<title>FSConfigurationModule&#45;&gt;FSModule</title>
<path fill="none" stroke="black" d="M391,-84.91C391,-104.14 391,-131.8 391,-131.8 391,-131.8 282.76,-131.8 282.76,-131.8"/>
<polygon fill="black" stroke="black" points="282.76,-128.3 272.76,-131.8 282.76,-135.3 282.76,-128.3"/>
</g>
<!-- FSFeaturesModule -->
<g id="node2" class="node">
<title>FSFeaturesModule</title>
<polygon fill="#8dd3c7" stroke="black" points="296.04,-84.8 293.04,-88.8 272.04,-88.8 269.04,-84.8 173.96,-84.8 173.96,-48.8 296.04,-48.8 296.04,-84.8"/>
<text text-anchor="middle" x="235" y="-62.6" font-family="Times,serif" font-size="14.00">FSFeaturesModule</text>
</g>
<!-- FSFeaturesModule&#45;&gt;FSModule -->
<g id="edge2" class="edge">
<title>FSFeaturesModule&#45;&gt;FSModule</title>
<path fill="none" stroke="black" d="M235,-84.91C235,-84.91 235,-103.79 235,-103.79"/>
<polygon fill="black" stroke="black" points="231.5,-103.79 235,-113.79 238.5,-103.79 231.5,-103.79"/>
</g>
<!-- FSStorefrontModule -->
<g id="node3" class="node">
<title>FSStorefrontModule</title>
<polygon fill="#8dd3c7" stroke="black" points="155.88,-84.8 152.88,-88.8 131.88,-88.8 128.88,-84.8 24.12,-84.8 24.12,-48.8 155.88,-48.8 155.88,-84.8"/>
<text text-anchor="middle" x="90" y="-62.6" font-family="Times,serif" font-size="14.00">FSStorefrontModule</text>
</g>
<!-- FSStorefrontModule&#45;&gt;FSModule -->
<g id="edge3" class="edge">
<title>FSStorefrontModule&#45;&gt;FSModule</title>
<path fill="none" stroke="black" d="M90,-84.91C90,-104.14 90,-131.8 90,-131.8 90,-131.8 187.28,-131.8 187.28,-131.8"/>
<polygon fill="black" stroke="black" points="187.28,-135.3 197.28,-131.8 187.28,-128.3 187.28,-135.3"/>
</g>
</g>
</svg>
