<?xml version="1.0" encoding="UTF-8" standalone="no"?>
<!DOCTYPE svg PUBLIC "-//W3C//DTD SVG 1.1//EN"
 "http://www.w3.org/Graphics/SVG/1.1/DTD/svg11.dtd">
<!-- Generated by graphviz version 2.47.3 (20210619.1520)
 -->
<!-- Title: dependencies Pages: 1 -->
<svg width="893pt" height="247pt"
 viewBox="0.00 0.00 893.00 246.80" xmlns="http://www.w3.org/2000/svg" xmlns:xlink="http://www.w3.org/1999/xlink">
<g id="graph0" class="graph" transform="scale(1 1) rotate(0) translate(4 242.8)">
<title>dependencies</title>
<polygon fill="white" stroke="transparent" points="-4,4 -4,-242.8 889,-242.8 889,4 -4,4"/>
<text text-anchor="middle" x="442.5" y="-8.2" font-family="sans-serif" font-size="14.00">dependencies</text>
<g id="clust1" class="cluster">
<title>cluster_SellerDashboardModule</title>
<polygon fill="none" stroke="black" stroke-dasharray="1,5" points="8,-32.8 8,-230.8 877,-230.8 877,-32.8 8,-32.8"/>
</g>
<g id="clust2" class="cluster">
<title>cluster_SellerDashboardModule_declarations</title>
<polygon fill="none" stroke="black" points="244,-40.8 244,-92.8 869,-92.8 869,-40.8 244,-40.8"/>
</g>
<g id="clust7" class="cluster">
<title>cluster_SellerDashboardModule_exports</title>
<polygon fill="none" stroke="black" points="134,-170.8 134,-222.8 770,-222.8 770,-170.8 134,-170.8"/>
</g>
<g id="clust6" class="cluster">
<title>cluster_SellerDashboardModule_imports</title>
<polygon fill="none" stroke="black" points="16,-40.8 16,-92.8 236,-92.8 236,-40.8 16,-40.8"/>
</g>
<!-- CreateOBOCustomerComponent -->
<g id="node1" class="node">
<title>CreateOBOCustomerComponent</title>
<polygon fill="#ffffb3" stroke="black" points="860.85,-84.8 659.15,-84.8 659.15,-48.8 860.85,-48.8 860.85,-84.8"/>
<text text-anchor="middle" x="760" y="-62.6" font-family="Times,serif" font-size="14.00">CreateOBOCustomerComponent</text>
</g>
<!-- SellerDashboardModule -->
<g id="node4" class="node">
<title>SellerDashboardModule</title>
<polygon fill="#8dd3c7" stroke="black" points="525.34,-149.8 522.34,-153.8 501.34,-153.8 498.34,-149.8 372.66,-149.8 372.66,-113.8 525.34,-113.8 525.34,-149.8"/>
<text text-anchor="middle" x="449" y="-127.6" font-family="Times,serif" font-size="14.00">SellerDashboardModule</text>
</g>
<!-- CreateOBOCustomerComponent&#45;&gt;SellerDashboardModule -->
<g id="edge1" class="edge">
<title>CreateOBOCustomerComponent&#45;&gt;SellerDashboardModule</title>
<path fill="none" stroke="black" d="M710.38,-84.82C710.38,-102.17 710.38,-125.8 710.38,-125.8 710.38,-125.8 535.66,-125.8 535.66,-125.8"/>
<polygon fill="black" stroke="black" points="535.66,-122.3 525.66,-125.8 535.66,-129.3 535.66,-122.3"/>
</g>
<!-- SellerDashboardComponent -->
<g id="node2" class="node">
<title>SellerDashboardComponent</title>
<polygon fill="#ffffb3" stroke="black" points="641.13,-84.8 466.87,-84.8 466.87,-48.8 641.13,-48.8 641.13,-84.8"/>
<text text-anchor="middle" x="554" y="-62.6" font-family="Times,serif" font-size="14.00">SellerDashboardComponent</text>
</g>
<!-- SellerDashboardComponent&#45;&gt;SellerDashboardModule -->
<g id="edge2" class="edge">
<title>SellerDashboardComponent&#45;&gt;SellerDashboardModule</title>
<path fill="none" stroke="black" d="M496.05,-84.91C496.05,-84.91 496.05,-103.79 496.05,-103.79"/>
<polygon fill="black" stroke="black" points="492.55,-103.79 496.05,-113.79 499.55,-103.79 492.55,-103.79"/>
</g>
<!-- SellerDashboardListComponent -->
<g id="node3" class="node">
<title>SellerDashboardListComponent</title>
<polygon fill="#ffffb3" stroke="black" points="448.41,-84.8 251.59,-84.8 251.59,-48.8 448.41,-48.8 448.41,-84.8"/>
<text text-anchor="middle" x="350" y="-62.6" font-family="Times,serif" font-size="14.00">SellerDashboardListComponent</text>
</g>
<!-- SellerDashboardListComponent&#45;&gt;SellerDashboardModule -->
<g id="edge3" class="edge">
<title>SellerDashboardListComponent&#45;&gt;SellerDashboardModule</title>
<path fill="none" stroke="black" d="M410.39,-84.91C410.39,-84.91 410.39,-103.79 410.39,-103.79"/>
<polygon fill="black" stroke="black" points="406.89,-103.79 410.39,-113.79 413.89,-103.79 406.89,-103.79"/>
</g>
<!-- CreateOBOCustomerComponent  -->
<g id="node6" class="node">
<title>CreateOBOCustomerComponent </title>
<polygon fill="#fb8072" stroke="black" points="761.85,-214.8 556.15,-214.8 556.15,-178.8 761.85,-178.8 761.85,-214.8"/>
<text text-anchor="middle" x="659" y="-192.6" font-family="Times,serif" font-size="14.00">CreateOBOCustomerComponent </text>
</g>
<!-- SellerDashboardModule&#45;&gt;CreateOBOCustomerComponent  -->
<g id="edge5" class="edge">
<title>SellerDashboardModule&#45;&gt;CreateOBOCustomerComponent </title>
<path fill="none" stroke="black" stroke-dasharray="5,2" d="M525.66,-137.8C562.53,-137.8 598.82,-137.8 598.82,-137.8 598.82,-137.8 598.82,-168.78 598.82,-168.78"/>
<polygon fill="black" stroke="black" points="595.32,-168.78 598.82,-178.78 602.32,-168.78 595.32,-168.78"/>
</g>
<!-- SellerDashboardComponent  -->
<g id="node7" class="node">
<title>SellerDashboardComponent </title>
<polygon fill="#fb8072" stroke="black" points="538.13,-214.8 359.87,-214.8 359.87,-178.8 538.13,-178.8 538.13,-214.8"/>
<text text-anchor="middle" x="449" y="-192.6" font-family="Times,serif" font-size="14.00">SellerDashboardComponent </text>
</g>
<!-- SellerDashboardModule&#45;&gt;SellerDashboardComponent  -->
<g id="edge6" class="edge">
<title>SellerDashboardModule&#45;&gt;SellerDashboardComponent </title>
<path fill="none" stroke="black" stroke-dasharray="5,2" d="M449,-149.91C449,-149.91 449,-168.79 449,-168.79"/>
<polygon fill="black" stroke="black" points="445.5,-168.79 449,-178.79 452.5,-168.79 445.5,-168.79"/>
</g>
<!-- SellerDashboardListComponent  -->
<g id="node8" class="node">
<title>SellerDashboardListComponent </title>
<polygon fill="#fb8072" stroke="black" points="341.91,-214.8 142.09,-214.8 142.09,-178.8 341.91,-178.8 341.91,-214.8"/>
<text text-anchor="middle" x="242" y="-192.6" font-family="Times,serif" font-size="14.00">SellerDashboardListComponent </text>
</g>
<!-- SellerDashboardModule&#45;&gt;SellerDashboardListComponent  -->
<g id="edge7" class="edge">
<title>SellerDashboardModule&#45;&gt;SellerDashboardListComponent </title>
<path fill="none" stroke="black" stroke-dasharray="5,2" d="M372.49,-137.8C334.61,-137.8 296.88,-137.8 296.88,-137.8 296.88,-137.8 296.88,-168.78 296.88,-168.78"/>
<polygon fill="black" stroke="black" points="293.38,-168.78 296.88,-178.78 300.38,-168.78 293.38,-168.78"/>
</g>
<!-- DateFormatConfigurationModule -->
<g id="node5" class="node">
<title>DateFormatConfigurationModule</title>
<polygon fill="#8dd3c7" stroke="black" points="228.46,-84.8 225.46,-88.8 204.46,-88.8 201.46,-84.8 23.54,-84.8 23.54,-48.8 228.46,-48.8 228.46,-84.8"/>
<text text-anchor="middle" x="126" y="-62.6" font-family="Times,serif" font-size="14.00">DateFormatConfigurationModule</text>
</g>
<!-- DateFormatConfigurationModule&#45;&gt;SellerDashboardModule -->
<g id="edge4" class="edge">
<title>DateFormatConfigurationModule&#45;&gt;SellerDashboardModule</title>
<path fill="none" stroke="black" d="M185.26,-84.82C185.26,-102.17 185.26,-125.8 185.26,-125.8 185.26,-125.8 362.36,-125.8 362.36,-125.8"/>
<polygon fill="black" stroke="black" points="362.36,-129.3 372.36,-125.8 362.36,-122.3 362.36,-129.3"/>
</g>
</g>
</svg>
