<?xml version="1.0" encoding="UTF-8" standalone="no"?>
<!DOCTYPE svg PUBLIC "-//W3C//DTD SVG 1.1//EN"
 "http://www.w3.org/Graphics/SVG/1.1/DTD/svg11.dtd">
<!-- Generated by graphviz version 2.44.1 (20200629.0846)
 -->
<!-- Title: dependencies Pages: 1 -->
<svg width="518pt" height="284pt"
 viewBox="0.00 0.00 518.00 284.00" xmlns="http://www.w3.org/2000/svg" xmlns:xlink="http://www.w3.org/1999/xlink">
<g id="graph0" class="graph" transform="scale(1 1) rotate(0) translate(4 280)">
<title>dependencies</title>
<polygon fill="white" stroke="transparent" points="-4,4 -4,-280 514,-280 514,4 -4,4"/>
<text text-anchor="start" x="234.01" y="-42.4" font-family="sans-serif" font-weight="bold" font-size="14.00">Legend</text>
<polygon fill="#ffffb3" stroke="transparent" points="21,-10 21,-30 41,-30 41,-10 21,-10"/>
<text text-anchor="start" x="44.63" y="-15.4" font-family="sans-serif" font-size="14.00"> &#160;Declarations</text>
<polygon fill="#8dd3c7" stroke="transparent" points="134,-10 134,-30 154,-30 154,-10 134,-10"/>
<text text-anchor="start" x="157.73" y="-15.4" font-family="sans-serif" font-size="14.00"> &#160;Module</text>
<polygon fill="#80b1d3" stroke="transparent" points="220,-10 220,-30 240,-30 240,-10 220,-10"/>
<text text-anchor="start" x="243.78" y="-15.4" font-family="sans-serif" font-size="14.00"> &#160;Bootstrap</text>
<polygon fill="#fdb462" stroke="transparent" points="317,-10 317,-30 337,-30 337,-10 317,-10"/>
<text text-anchor="start" x="340.67" y="-15.4" font-family="sans-serif" font-size="14.00"> &#160;Providers</text>
<polygon fill="#fb8072" stroke="transparent" points="413,-10 413,-30 433,-30 433,-10 413,-10"/>
<text text-anchor="start" x="436.73" y="-15.4" font-family="sans-serif" font-size="14.00"> &#160;Exports</text>
<g id="clust1" class="cluster">
<title>cluster_AddOptionsModule</title>
<polygon fill="none" stroke="black" stroke-dasharray="1,5" points="8,-70 8,-268 502,-268 502,-70 8,-70"/>
</g>
<g id="clust7" class="cluster">
<title>cluster_AddOptionsModule_providers</title>
<polygon fill="none" stroke="black" points="190,-78 190,-130 494,-130 494,-78 190,-78"/>
</g>
<g id="clust5" class="cluster">
<title>cluster_AddOptionsModule_exports</title>
<polygon fill="none" stroke="black" points="180,-208 180,-260 350,-260 350,-208 180,-208"/>
</g>
<g id="clust2" class="cluster">
<title>cluster_AddOptionsModule_declarations</title>
<polygon fill="none" stroke="black" points="16,-78 16,-130 182,-130 182,-78 16,-78"/>
</g>
<!-- AddOptionsComponent -->
<g id="node1" class="node">
<title>AddOptionsComponent</title>
<polygon fill="#ffffb3" stroke="black" points="173.77,-122 24.23,-122 24.23,-86 173.77,-86 173.77,-122"/>
<text text-anchor="middle" x="99" y="-99.8" font-family="Times,serif" font-size="14.00">AddOptionsComponent</text>
</g>
<!-- AddOptionsModule -->
<g id="node2" class="node">
<title>AddOptionsModule</title>
<polygon fill="#8dd3c7" stroke="black" points="328.99,-187 325.99,-191 304.99,-191 301.99,-187 201.01,-187 201.01,-151 328.99,-151 328.99,-187"/>
<text text-anchor="middle" x="265" y="-164.8" font-family="Times,serif" font-size="14.00">AddOptionsModule</text>
</g>
<!-- AddOptionsComponent&#45;&gt;AddOptionsModule -->
<g id="edge1" class="edge">
<title>AddOptionsComponent&#45;&gt;AddOptionsModule</title>
<path fill="none" stroke="black" d="M99,-122.11C99,-141.34 99,-169 99,-169 99,-169 190.82,-169 190.82,-169"/>
<polygon fill="black" stroke="black" points="190.82,-172.5 200.82,-169 190.82,-165.5 190.82,-172.5"/>
</g>
<!-- AddOptionsComponent  -->
<g id="node3" class="node">
<title>AddOptionsComponent </title>
<polygon fill="#fb8072" stroke="black" points="341.77,-252 188.23,-252 188.23,-216 341.77,-216 341.77,-252"/>
<text text-anchor="middle" x="265" y="-229.8" font-family="Times,serif" font-size="14.00">AddOptionsComponent </text>
</g>
<!-- AddOptionsModule&#45;&gt;AddOptionsComponent  -->
<g id="edge2" class="edge">
<title>AddOptionsModule&#45;&gt;AddOptionsComponent </title>
<path fill="none" stroke="black" stroke-dasharray="5,2" d="M265,-187.11C265,-187.11 265,-205.99 265,-205.99"/>
<polygon fill="black" stroke="black" points="261.5,-205.99 265,-215.99 268.5,-205.99 261.5,-205.99"/>
</g>
<!-- CartConnector -->
<g id="node4" class="node">
<title>CartConnector</title>
<ellipse fill="#fdb462" stroke="black" cx="418" cy="-104" rx="67.78" ry="18"/>
<text text-anchor="middle" x="418" y="-99.8" font-family="Times,serif" font-size="14.00">CartConnector</text>
</g>
<!-- CartConnector&#45;&gt;AddOptionsModule -->
<g id="edge3" class="edge">
<title>CartConnector&#45;&gt;AddOptionsModule</title>
<path fill="none" stroke="black" d="M418,-122.11C418,-141.34 418,-169 418,-169 418,-169 339,-169 339,-169"/>
<polygon fill="black" stroke="black" points="339,-165.5 329,-169 339,-172.5 339,-165.5"/>
</g>
<!-- FSCartService -->
<g id="node5" class="node">
<title>FSCartService</title>
<ellipse fill="#fdb462" stroke="black" cx="265" cy="-104" rx="67.21" ry="18"/>
<text text-anchor="middle" x="265" y="-99.8" font-family="Times,serif" font-size="14.00">FSCartService</text>
</g>
<!-- FSCartService&#45;&gt;AddOptionsModule -->
<g id="edge4" class="edge">
<title>FSCartService&#45;&gt;AddOptionsModule</title>
<path fill="none" stroke="black" d="M265,-122.11C265,-122.11 265,-140.99 265,-140.99"/>
<polygon fill="black" stroke="black" points="261.5,-140.99 265,-150.99 268.5,-140.99 261.5,-140.99"/>
</g>
</g>
</svg>
