<?xml version="1.0" encoding="UTF-8" standalone="no"?>
<!DOCTYPE svg PUBLIC "-//W3C//DTD SVG 1.1//EN"
 "http://www.w3.org/Graphics/SVG/1.1/DTD/svg11.dtd">
<!-- Generated by graphviz version 2.47.3 (20210619.1520)
 -->
<!-- Title: dependencies Pages: 1 -->
<svg width="624pt" height="247pt"
 viewBox="0.00 0.00 624.00 246.80" xmlns="http://www.w3.org/2000/svg" xmlns:xlink="http://www.w3.org/1999/xlink">
<g id="graph0" class="graph" transform="scale(1 1) rotate(0) translate(4 242.8)">
<title>dependencies</title>
<polygon fill="white" stroke="transparent" points="-4,4 -4,-242.8 620,-242.8 620,4 -4,4"/>
<text text-anchor="middle" x="308" y="-8.2" font-family="sans-serif" font-size="14.00">dependencies</text>
<g id="clust1" class="cluster">
<title>cluster_AddOptionsModule</title>
<polygon fill="none" stroke="black" stroke-dasharray="1,5" points="8,-32.8 8,-230.8 608,-230.8 608,-32.8 8,-32.8"/>
</g>
<g id="clust2" class="cluster">
<title>cluster_AddOptionsModule_declarations</title>
<polygon fill="none" stroke="black" points="434,-40.8 434,-92.8 600,-92.8 600,-40.8 434,-40.8"/>
</g>
<g id="clust5" class="cluster">
<title>cluster_AddOptionsModule_exports</title>
<polygon fill="none" stroke="black" points="225,-170.8 225,-222.8 395,-222.8 395,-170.8 225,-170.8"/>
</g>
<g id="clust4" class="cluster">
<title>cluster_AddOptionsModule_imports</title>
<polygon fill="none" stroke="black" points="328,-40.8 328,-92.8 426,-92.8 426,-40.8 328,-40.8"/>
</g>
<g id="clust7" class="cluster">
<title>cluster_AddOptionsModule_providers</title>
<polygon fill="none" stroke="black" points="16,-40.8 16,-92.8 320,-92.8 320,-40.8 16,-40.8"/>
</g>
<!-- AddOptionsComponent -->
<g id="node1" class="node">
<title>AddOptionsComponent</title>
<polygon fill="#ffffb3" stroke="black" points="591.77,-84.8 442.23,-84.8 442.23,-48.8 591.77,-48.8 591.77,-84.8"/>
<text text-anchor="middle" x="517" y="-62.6" font-family="Times,serif" font-size="14.00">AddOptionsComponent</text>
</g>
<!-- AddOptionsModule -->
<g id="node2" class="node">
<title>AddOptionsModule</title>
<polygon fill="#8dd3c7" stroke="black" points="373.99,-149.8 370.99,-153.8 349.99,-153.8 346.99,-149.8 246.01,-149.8 246.01,-113.8 373.99,-113.8 373.99,-149.8"/>
<text text-anchor="middle" x="310" y="-127.6" font-family="Times,serif" font-size="14.00">AddOptionsModule</text>
</g>
<!-- AddOptionsComponent&#45;&gt;AddOptionsModule -->
<g id="edge1" class="edge">
<title>AddOptionsComponent&#45;&gt;AddOptionsModule</title>
<path fill="none" stroke="black" d="M517,-84.91C517,-104.14 517,-131.8 517,-131.8 517,-131.8 384.08,-131.8 384.08,-131.8"/>
<polygon fill="black" stroke="black" points="384.08,-128.3 374.08,-131.8 384.08,-135.3 384.08,-128.3"/>
</g>
<!-- AddOptionsComponent  -->
<g id="node4" class="node">
<title>AddOptionsComponent </title>
<polygon fill="#fb8072" stroke="black" points="386.77,-214.8 233.23,-214.8 233.23,-178.8 386.77,-178.8 386.77,-214.8"/>
<text text-anchor="middle" x="310" y="-192.6" font-family="Times,serif" font-size="14.00">AddOptionsComponent </text>
</g>
<!-- AddOptionsModule&#45;&gt;AddOptionsComponent  -->
<g id="edge3" class="edge">
<title>AddOptionsModule&#45;&gt;AddOptionsComponent </title>
<path fill="none" stroke="black" stroke-dasharray="5,2" d="M310,-149.91C310,-149.91 310,-168.79 310,-168.79"/>
<polygon fill="black" stroke="black" points="306.5,-168.79 310,-178.79 313.5,-168.79 306.5,-168.79"/>
</g>
<!-- SortModule -->
<g id="node3" class="node">
<title>SortModule</title>
<polygon fill="#8dd3c7" stroke="black" points="418.38,-84.8 415.38,-88.8 394.38,-88.8 391.38,-84.8 335.62,-84.8 335.62,-48.8 418.38,-48.8 418.38,-84.8"/>
<text text-anchor="middle" x="377" y="-62.6" font-family="Times,serif" font-size="14.00">SortModule</text>
</g>
<!-- SortModule&#45;&gt;AddOptionsModule -->
<g id="edge2" class="edge">
<title>SortModule&#45;&gt;AddOptionsModule</title>
<path fill="none" stroke="black" d="M354.78,-84.91C354.78,-84.91 354.78,-103.79 354.78,-103.79"/>
<polygon fill="black" stroke="black" points="351.28,-103.79 354.78,-113.79 358.28,-103.79 351.28,-103.79"/>
</g>
<!-- CartConnector -->
<g id="node5" class="node">
<title>CartConnector</title>
<ellipse fill="#fdb462" stroke="black" cx="244" cy="-66.8" rx="67.78" ry="18"/>
<text text-anchor="middle" x="244" y="-62.6" font-family="Times,serif" font-size="14.00">CartConnector</text>
</g>
<!-- CartConnector&#45;&gt;AddOptionsModule -->
<g id="edge4" class="edge">
<title>CartConnector&#45;&gt;AddOptionsModule</title>
<path fill="none" stroke="black" d="M278.95,-82.53C278.95,-82.53 278.95,-103.45 278.95,-103.45"/>
<polygon fill="black" stroke="black" points="275.45,-103.45 278.95,-113.45 282.45,-103.45 275.45,-103.45"/>
</g>
<!-- FSCartService -->
<g id="node6" class="node">
<title>FSCartService</title>
<ellipse fill="#fdb462" stroke="black" cx="91" cy="-66.8" rx="67.21" ry="18"/>
<text text-anchor="middle" x="91" y="-62.6" font-family="Times,serif" font-size="14.00">FSCartService</text>
</g>
<!-- FSCartService&#45;&gt;AddOptionsModule -->
<g id="edge5" class="edge">
<title>FSCartService&#45;&gt;AddOptionsModule</title>
<path fill="none" stroke="black" d="M91,-84.91C91,-104.14 91,-131.8 91,-131.8 91,-131.8 235.77,-131.8 235.77,-131.8"/>
<polygon fill="black" stroke="black" points="235.77,-135.3 245.77,-131.8 235.77,-128.3 235.77,-135.3"/>
</g>
</g>
</svg>
