<?xml version="1.0" encoding="UTF-8" standalone="no"?>
<!DOCTYPE svg PUBLIC "-//W3C//DTD SVG 1.1//EN"
 "http://www.w3.org/Graphics/SVG/1.1/DTD/svg11.dtd">
<!-- Generated by graphviz version 2.46.0 (20210119.1425)
 -->
<!-- Title: dependencies Pages: 1 -->
<svg width="518pt" height="284pt"
 viewBox="0.00 0.00 518.00 284.00" xmlns="http://www.w3.org/2000/svg" xmlns:xlink="http://www.w3.org/1999/xlink">
<g id="graph0" class="graph" transform="scale(1 1) rotate(0) translate(4 280)">
<title>dependencies</title>
<polygon fill="white" stroke="transparent" points="-4,4 -4,-280 514,-280 514,4 -4,4"/>
<text text-anchor="start" x="234.01" y="-42.4" font-family="sans-serif" font-weight="bold" font-size="14.00">Legend</text>
<polygon fill="#ffffb3" stroke="transparent" points="21,-10 21,-30 41,-30 41,-10 21,-10"/>
<text text-anchor="start" x="44.63" y="-15.4" font-family="sans-serif" font-size="14.00"> &#160;Declarations</text>
<polygon fill="#8dd3c7" stroke="transparent" points="134,-10 134,-30 154,-30 154,-10 134,-10"/>
<text text-anchor="start" x="157.73" y="-15.4" font-family="sans-serif" font-size="14.00"> &#160;Module</text>
<polygon fill="#80b1d3" stroke="transparent" points="220,-10 220,-30 240,-30 240,-10 220,-10"/>
<text text-anchor="start" x="243.78" y="-15.4" font-family="sans-serif" font-size="14.00"> &#160;Bootstrap</text>
<polygon fill="#fdb462" stroke="transparent" points="317,-10 317,-30 337,-30 337,-10 317,-10"/>
<text text-anchor="start" x="340.67" y="-15.4" font-family="sans-serif" font-size="14.00"> &#160;Providers</text>
<polygon fill="#fb8072" stroke="transparent" points="413,-10 413,-30 433,-30 433,-10 413,-10"/>
<text text-anchor="start" x="436.73" y="-15.4" font-family="sans-serif" font-size="14.00"> &#160;Exports</text>
<g id="clust1" class="cluster">
<title>cluster_AddOptionsModule</title>
<polygon fill="none" stroke="black" stroke-dasharray="1,5" points="8,-70 8,-268 502,-268 502,-70 8,-70"/>
</g>
<g id="clust2" class="cluster">
<title>cluster_AddOptionsModule_declarations</title>
<polygon fill="none" stroke="black" points="328,-78 328,-130 494,-130 494,-78 328,-78"/>
</g>
<g id="clust5" class="cluster">
<title>cluster_AddOptionsModule_exports</title>
<polygon fill="none" stroke="black" points="159,-208 159,-260 329,-260 329,-208 159,-208"/>
</g>
<g id="clust7" class="cluster">
<title>cluster_AddOptionsModule_providers</title>
<polygon fill="none" stroke="black" points="16,-78 16,-130 320,-130 320,-78 16,-78"/>
</g>
<!-- AddOptionsComponent -->
<g id="node1" class="node">
<title>AddOptionsComponent</title>
<polygon fill="#ffffb3" stroke="black" points="485.77,-122 336.23,-122 336.23,-86 485.77,-86 485.77,-122"/>
<text text-anchor="middle" x="411" y="-99.8" font-family="Times,serif" font-size="14.00">AddOptionsComponent</text>
</g>
<!-- AddOptionsModule -->
<g id="node2" class="node">
<title>AddOptionsModule</title>
<polygon fill="#8dd3c7" stroke="black" points="307.99,-187 304.99,-191 283.99,-191 280.99,-187 180.01,-187 180.01,-151 307.99,-151 307.99,-187"/>
<text text-anchor="middle" x="244" y="-164.8" font-family="Times,serif" font-size="14.00">AddOptionsModule</text>
</g>
<!-- AddOptionsComponent&#45;&gt;AddOptionsModule -->
<g id="edge1" class="edge">
<title>AddOptionsComponent&#45;&gt;AddOptionsModule</title>
<path fill="none" stroke="black" d="M411,-122.11C411,-141.34 411,-169 411,-169 411,-169 318.09,-169 318.09,-169"/>
<polygon fill="black" stroke="black" points="318.09,-165.5 308.09,-169 318.09,-172.5 318.09,-165.5"/>
</g>
<!-- AddOptionsComponent  -->
<g id="node3" class="node">
<title>AddOptionsComponent </title>
<polygon fill="#fb8072" stroke="black" points="320.77,-252 167.23,-252 167.23,-216 320.77,-216 320.77,-252"/>
<text text-anchor="middle" x="244" y="-229.8" font-family="Times,serif" font-size="14.00">AddOptionsComponent </text>
</g>
<!-- AddOptionsModule&#45;&gt;AddOptionsComponent  -->
<g id="edge2" class="edge">
<title>AddOptionsModule&#45;&gt;AddOptionsComponent </title>
<path fill="none" stroke="black" stroke-dasharray="5,2" d="M244,-187.11C244,-187.11 244,-205.99 244,-205.99"/>
<polygon fill="black" stroke="black" points="240.5,-205.99 244,-215.99 247.5,-205.99 240.5,-205.99"/>
</g>
<!-- CartConnector -->
<g id="node4" class="node">
<title>CartConnector</title>
<ellipse fill="#fdb462" stroke="black" cx="244" cy="-104" rx="67.78" ry="18"/>
<text text-anchor="middle" x="244" y="-99.8" font-family="Times,serif" font-size="14.00">CartConnector</text>
</g>
<!-- CartConnector&#45;&gt;AddOptionsModule -->
<g id="edge3" class="edge">
<title>CartConnector&#45;&gt;AddOptionsModule</title>
<path fill="none" stroke="black" d="M244,-122.11C244,-122.11 244,-140.99 244,-140.99"/>
<polygon fill="black" stroke="black" points="240.5,-140.99 244,-150.99 247.5,-140.99 240.5,-140.99"/>
</g>
<!-- FSCartService -->
<g id="node5" class="node">
<title>FSCartService</title>
<ellipse fill="#fdb462" stroke="black" cx="91" cy="-104" rx="67.21" ry="18"/>
<text text-anchor="middle" x="91" y="-99.8" font-family="Times,serif" font-size="14.00">FSCartService</text>
</g>
<!-- FSCartService&#45;&gt;AddOptionsModule -->
<g id="edge4" class="edge">
<title>FSCartService&#45;&gt;AddOptionsModule</title>
<path fill="none" stroke="black" d="M91,-122.11C91,-141.34 91,-169 91,-169 91,-169 170,-169 170,-169"/>
<polygon fill="black" stroke="black" points="170,-172.5 180,-169 170,-165.5 170,-172.5"/>
</g>
</g>
</svg>
