<?xml version="1.0" encoding="UTF-8" standalone="no"?>
<!DOCTYPE svg PUBLIC "-//W3C//DTD SVG 1.1//EN"
 "http://www.w3.org/Graphics/SVG/1.1/DTD/svg11.dtd">
<!-- Generated by graphviz version 2.44.1 (20200629.0846)
 -->
<!-- Title: dependencies Pages: 1 -->
<svg width="1593pt" height="284pt"
 viewBox="0.00 0.00 1593.00 284.00" xmlns="http://www.w3.org/2000/svg" xmlns:xlink="http://www.w3.org/1999/xlink">
<g id="graph0" class="graph" transform="scale(1 1) rotate(0) translate(4 280)">
<title>dependencies</title>
<polygon fill="white" stroke="transparent" points="-4,4 -4,-280 1589,-280 1589,4 -4,4"/>
<text text-anchor="start" x="771.51" y="-42.4" font-family="sans-serif" font-weight="bold" font-size="14.00">Legend</text>
<polygon fill="#ffffb3" stroke="transparent" points="558.5,-10 558.5,-30 578.5,-30 578.5,-10 558.5,-10"/>
<text text-anchor="start" x="582.13" y="-15.4" font-family="sans-serif" font-size="14.00"> &#160;Declarations</text>
<polygon fill="#8dd3c7" stroke="transparent" points="671.5,-10 671.5,-30 691.5,-30 691.5,-10 671.5,-10"/>
<text text-anchor="start" x="695.23" y="-15.4" font-family="sans-serif" font-size="14.00"> &#160;Module</text>
<polygon fill="#80b1d3" stroke="transparent" points="757.5,-10 757.5,-30 777.5,-30 777.5,-10 757.5,-10"/>
<text text-anchor="start" x="781.28" y="-15.4" font-family="sans-serif" font-size="14.00"> &#160;Bootstrap</text>
<polygon fill="#fdb462" stroke="transparent" points="854.5,-10 854.5,-30 874.5,-30 874.5,-10 854.5,-10"/>
<text text-anchor="start" x="878.17" y="-15.4" font-family="sans-serif" font-size="14.00"> &#160;Providers</text>
<polygon fill="#fb8072" stroke="transparent" points="950.5,-10 950.5,-30 970.5,-30 970.5,-10 950.5,-10"/>
<text text-anchor="start" x="974.23" y="-15.4" font-family="sans-serif" font-size="14.00"> &#160;Exports</text>
<g id="clust1" class="cluster">
<title>cluster_ChangeProcessModule</title>
<polygon fill="none" stroke="black" stroke-dasharray="1,5" points="8,-70 8,-268 1577,-268 1577,-70 8,-70"/>
</g>
<g id="clust2" class="cluster">
<title>cluster_ChangeProcessModule_declarations</title>
<polygon fill="none" stroke="black" points="168,-78 168,-130 1569,-130 1569,-78 168,-78"/>
</g>
<g id="clust9" class="cluster">
<title>cluster_ChangeProcessModule_imports</title>
<polygon fill="none" stroke="black" points="16,-78 16,-130 160,-130 160,-78 16,-78"/>
</g>
<g id="clust10" class="cluster">
<title>cluster_ChangeProcessModule_exports</title>
<polygon fill="none" stroke="black" points="82,-208 82,-260 1504,-260 1504,-208 82,-208"/>
</g>
<!-- AbstractChangeProcessStepComponent -->
<g id="node1" class="node">
<title>AbstractChangeProcessStepComponent</title>
<polygon fill="#ffffb3" stroke="black" points="1560.67,-122 1321.33,-122 1321.33,-86 1560.67,-86 1560.67,-122"/>
<text text-anchor="middle" x="1441" y="-99.8" font-family="Times,serif" font-size="14.00">AbstractChangeProcessStepComponent</text>
</g>
<!-- ChangeProcessModule -->
<g id="node7" class="node">
<title>ChangeProcessModule</title>
<polygon fill="#8dd3c7" stroke="black" points="826.58,-187 823.58,-191 802.58,-191 799.58,-187 681.42,-187 681.42,-151 826.58,-151 826.58,-187"/>
<text text-anchor="middle" x="754" y="-164.8" font-family="Times,serif" font-size="14.00">ChangeProcessModule</text>
</g>
<!-- AbstractChangeProcessStepComponent&#45;&gt;ChangeProcessModule -->
<g id="edge1" class="edge">
<title>AbstractChangeProcessStepComponent&#45;&gt;ChangeProcessModule</title>
<path fill="none" stroke="black" d="M1408.88,-122.11C1408.88,-141.34 1408.88,-169 1408.88,-169 1408.88,-169 836.59,-169 836.59,-169"/>
<polygon fill="black" stroke="black" points="836.59,-165.5 826.59,-169 836.59,-172.5 836.59,-165.5"/>
</g>
<!-- ChangeCarDetailsFormComponent -->
<g id="node2" class="node">
<title>ChangeCarDetailsFormComponent</title>
<polygon fill="#ffffb3" stroke="black" points="1303.3,-122 1088.7,-122 1088.7,-86 1303.3,-86 1303.3,-122"/>
<text text-anchor="middle" x="1196" y="-99.8" font-family="Times,serif" font-size="14.00">ChangeCarDetailsFormComponent</text>
</g>
<!-- ChangeCarDetailsFormComponent&#45;&gt;ChangeProcessModule -->
<g id="edge2" class="edge">
<title>ChangeCarDetailsFormComponent&#45;&gt;ChangeProcessModule</title>
<path fill="none" stroke="black" d="M1162.38,-122.02C1162.38,-139.37 1162.38,-163 1162.38,-163 1162.38,-163 836.54,-163 836.54,-163"/>
<polygon fill="black" stroke="black" points="836.54,-159.5 826.54,-163 836.54,-166.5 836.54,-159.5"/>
</g>
<!-- ChangeCoverageComponent -->
<g id="node3" class="node">
<title>ChangeCoverageComponent</title>
<polygon fill="#ffffb3" stroke="black" points="1070.74,-122 893.26,-122 893.26,-86 1070.74,-86 1070.74,-122"/>
<text text-anchor="middle" x="982" y="-99.8" font-family="Times,serif" font-size="14.00">ChangeCoverageComponent</text>
</g>
<!-- ChangeCoverageComponent&#45;&gt;ChangeProcessModule -->
<g id="edge3" class="edge">
<title>ChangeCoverageComponent&#45;&gt;ChangeProcessModule</title>
<path fill="none" stroke="black" d="M946.38,-122.24C946.38,-137.57 946.38,-157 946.38,-157 946.38,-157 836.73,-157 836.73,-157"/>
<polygon fill="black" stroke="black" points="836.73,-153.5 826.73,-157 836.73,-160.5 836.73,-153.5"/>
</g>
<!-- ChangeProcessConfirmationComponent -->
<g id="node4" class="node">
<title>ChangeProcessConfirmationComponent</title>
<polygon fill="#ffffb3" stroke="black" points="875.29,-122 632.71,-122 632.71,-86 875.29,-86 875.29,-122"/>
<text text-anchor="middle" x="754" y="-99.8" font-family="Times,serif" font-size="14.00">ChangeProcessConfirmationComponent</text>
</g>
<!-- ChangeProcessConfirmationComponent&#45;&gt;ChangeProcessModule -->
<g id="edge4" class="edge">
<title>ChangeProcessConfirmationComponent&#45;&gt;ChangeProcessModule</title>
<path fill="none" stroke="black" d="M754,-122.11C754,-122.11 754,-140.99 754,-140.99"/>
<polygon fill="black" stroke="black" points="750.5,-140.99 754,-150.99 757.5,-140.99 750.5,-140.99"/>
</g>
<!-- ChangeProcessProgressBarComponent -->
<g id="node5" class="node">
<title>ChangeProcessProgressBarComponent</title>
<polygon fill="#ffffb3" stroke="black" points="614.78,-122 379.22,-122 379.22,-86 614.78,-86 614.78,-122"/>
<text text-anchor="middle" x="497" y="-99.8" font-family="Times,serif" font-size="14.00">ChangeProcessProgressBarComponent</text>
</g>
<!-- ChangeProcessProgressBarComponent&#45;&gt;ChangeProcessModule -->
<g id="edge5" class="edge">
<title>ChangeProcessProgressBarComponent&#45;&gt;ChangeProcessModule</title>
<path fill="none" stroke="black" d="M584.37,-122.24C584.37,-137.57 584.37,-157 584.37,-157 584.37,-157 671.08,-157 671.08,-157"/>
<polygon fill="black" stroke="black" points="671.08,-160.5 681.08,-157 671.08,-153.5 671.08,-160.5"/>
</g>
<!-- ChangeSimulationComponent -->
<g id="node6" class="node">
<title>ChangeSimulationComponent</title>
<polygon fill="#ffffb3" stroke="black" points="361.55,-122 176.45,-122 176.45,-86 361.55,-86 361.55,-122"/>
<text text-anchor="middle" x="269" y="-99.8" font-family="Times,serif" font-size="14.00">ChangeSimulationComponent</text>
</g>
<!-- ChangeSimulationComponent&#45;&gt;ChangeProcessModule -->
<g id="edge6" class="edge">
<title>ChangeSimulationComponent&#45;&gt;ChangeProcessModule</title>
<path fill="none" stroke="black" d="M329.69,-122.02C329.69,-139.37 329.69,-163 329.69,-163 329.69,-163 671.06,-163 671.06,-163"/>
<polygon fill="black" stroke="black" points="671.06,-166.5 681.06,-163 671.06,-159.5 671.06,-166.5"/>
</g>
<!-- AbstractChangeProcessStepComponent  -->
<g id="node9" class="node">
<title>AbstractChangeProcessStepComponent </title>
<polygon fill="#fb8072" stroke="black" points="1496.17,-252 1253.83,-252 1253.83,-216 1496.17,-216 1496.17,-252"/>
<text text-anchor="middle" x="1375" y="-229.8" font-family="Times,serif" font-size="14.00">AbstractChangeProcessStepComponent </text>
</g>
<!-- ChangeProcessModule&#45;&gt;AbstractChangeProcessStepComponent  -->
<g id="edge8" class="edge">
<title>ChangeProcessModule&#45;&gt;AbstractChangeProcessStepComponent </title>
<path fill="none" stroke="black" stroke-dasharray="5,2" d="M826.64,-175C970.62,-175 1278.41,-175 1278.41,-175 1278.41,-175 1278.41,-205.98 1278.41,-205.98"/>
<polygon fill="black" stroke="black" points="1274.91,-205.98 1278.41,-215.98 1281.91,-205.98 1274.91,-205.98"/>
</g>
<!-- ChangeCarDetailsFormComponent  -->
<g id="node10" class="node">
<title>ChangeCarDetailsFormComponent </title>
<polygon fill="#fb8072" stroke="black" points="1235.8,-252 1018.2,-252 1018.2,-216 1235.8,-216 1235.8,-252"/>
<text text-anchor="middle" x="1127" y="-229.8" font-family="Times,serif" font-size="14.00">ChangeCarDetailsFormComponent </text>
</g>
<!-- ChangeProcessModule&#45;&gt;ChangeCarDetailsFormComponent  -->
<g id="edge9" class="edge">
<title>ChangeProcessModule&#45;&gt;ChangeCarDetailsFormComponent </title>
<path fill="none" stroke="black" stroke-dasharray="5,2" d="M826.55,-181C912.59,-181 1044.49,-181 1044.49,-181 1044.49,-181 1044.49,-205.76 1044.49,-205.76"/>
<polygon fill="black" stroke="black" points="1040.99,-205.76 1044.49,-215.76 1047.99,-205.76 1040.99,-205.76"/>
</g>
<!-- ChangeCoverageComponent  -->
<g id="node11" class="node">
<title>ChangeCoverageComponent </title>
<polygon fill="#fb8072" stroke="black" points="999.74,-252 818.26,-252 818.26,-216 999.74,-216 999.74,-252"/>
<text text-anchor="middle" x="909" y="-229.8" font-family="Times,serif" font-size="14.00">ChangeCoverageComponent </text>
</g>
<!-- ChangeProcessModule&#45;&gt;ChangeCoverageComponent  -->
<g id="edge10" class="edge">
<title>ChangeProcessModule&#45;&gt;ChangeCoverageComponent </title>
<path fill="none" stroke="black" stroke-dasharray="5,2" d="M822.46,-187.11C822.46,-187.11 822.46,-205.99 822.46,-205.99"/>
<polygon fill="black" stroke="black" points="818.96,-205.99 822.46,-215.99 825.96,-205.99 818.96,-205.99"/>
</g>
<!-- ChangeProcessConfirmationComponent  -->
<g id="node12" class="node">
<title>ChangeProcessConfirmationComponent </title>
<polygon fill="#fb8072" stroke="black" points="799.79,-252 554.21,-252 554.21,-216 799.79,-216 799.79,-252"/>
<text text-anchor="middle" x="677" y="-229.8" font-family="Times,serif" font-size="14.00">ChangeProcessConfirmationComponent </text>
</g>
<!-- ChangeProcessModule&#45;&gt;ChangeProcessConfirmationComponent  -->
<g id="edge11" class="edge">
<title>ChangeProcessModule&#45;&gt;ChangeProcessConfirmationComponent </title>
<path fill="none" stroke="black" stroke-dasharray="5,2" d="M740.68,-187.11C740.68,-187.11 740.68,-205.99 740.68,-205.99"/>
<polygon fill="black" stroke="black" points="737.18,-205.99 740.68,-215.99 744.18,-205.99 737.18,-205.99"/>
</g>
<!-- ChangeProcessProgressBarComponent  -->
<g id="node13" class="node">
<title>ChangeProcessProgressBarComponent </title>
<polygon fill="#fb8072" stroke="black" points="536.28,-252 297.72,-252 297.72,-216 536.28,-216 536.28,-252"/>
<text text-anchor="middle" x="417" y="-229.8" font-family="Times,serif" font-size="14.00">ChangeProcessProgressBarComponent </text>
</g>
<!-- ChangeProcessModule&#45;&gt;ChangeProcessProgressBarComponent  -->
<g id="edge12" class="edge">
<title>ChangeProcessModule&#45;&gt;ChangeProcessProgressBarComponent </title>
<path fill="none" stroke="black" stroke-dasharray="5,2" d="M681.18,-181C593.5,-181 457.88,-181 457.88,-181 457.88,-181 457.88,-205.76 457.88,-205.76"/>
<polygon fill="black" stroke="black" points="454.38,-205.76 457.88,-215.76 461.38,-205.76 454.38,-205.76"/>
</g>
<!-- ChangeSimulationComponent  -->
<g id="node14" class="node">
<title>ChangeSimulationComponent </title>
<polygon fill="#fb8072" stroke="black" points="279.55,-252 90.45,-252 90.45,-216 279.55,-216 279.55,-252"/>
<text text-anchor="middle" x="185" y="-229.8" font-family="Times,serif" font-size="14.00">ChangeSimulationComponent </text>
</g>
<!-- ChangeProcessModule&#45;&gt;ChangeSimulationComponent  -->
<g id="edge13" class="edge">
<title>ChangeProcessModule&#45;&gt;ChangeSimulationComponent </title>
<path fill="none" stroke="black" stroke-dasharray="5,2" d="M681.4,-175C537.07,-175 227.88,-175 227.88,-175 227.88,-175 227.88,-205.98 227.88,-205.98"/>
<polygon fill="black" stroke="black" points="224.38,-205.98 227.88,-215.98 231.38,-205.98 224.38,-205.98"/>
</g>
<!-- ProgressBarModule -->
<g id="node8" class="node">
<title>ProgressBarModule</title>
<polygon fill="#8dd3c7" stroke="black" points="151.97,-122 148.97,-126 127.97,-126 124.97,-122 24.03,-122 24.03,-86 151.97,-86 151.97,-122"/>
<text text-anchor="middle" x="88" y="-99.8" font-family="Times,serif" font-size="14.00">ProgressBarModule</text>
</g>
<!-- ProgressBarModule&#45;&gt;ChangeProcessModule -->
<g id="edge7" class="edge">
<title>ProgressBarModule&#45;&gt;ChangeProcessModule</title>
<path fill="none" stroke="black" d="M121.23,-122.11C121.23,-141.34 121.23,-169 121.23,-169 121.23,-169 671.41,-169 671.41,-169"/>
<polygon fill="black" stroke="black" points="671.41,-172.5 681.41,-169 671.41,-165.5 671.41,-172.5"/>
</g>
</g>
</svg>
