<?xml version="1.0" encoding="UTF-8" standalone="no"?>
<!DOCTYPE svg PUBLIC "-//W3C//DTD SVG 1.1//EN"
 "http://www.w3.org/Graphics/SVG/1.1/DTD/svg11.dtd">
<!-- Generated by graphviz version 2.44.1 (20200629.0846)
 -->
<!-- Title: dependencies Pages: 1 -->
<svg width="999pt" height="211pt"
 viewBox="0.00 0.00 999.00 211.00" xmlns="http://www.w3.org/2000/svg" xmlns:xlink="http://www.w3.org/1999/xlink">
<g id="graph0" class="graph" transform="scale(1 1) rotate(0) translate(4 207)">
<title>dependencies</title>
<polygon fill="white" stroke="transparent" points="-4,4 -4,-207 995,-207 995,4 -4,4"/>
<text text-anchor="start" x="474.51" y="-42.4" font-family="sans-serif" font-weight="bold" font-size="14.00">Legend</text>
<polygon fill="#ffffb3" stroke="transparent" points="261.5,-10 261.5,-30 281.5,-30 281.5,-10 261.5,-10"/>
<text text-anchor="start" x="285.13" y="-15.4" font-family="sans-serif" font-size="14.00"> &#160;Declarations</text>
<polygon fill="#8dd3c7" stroke="transparent" points="374.5,-10 374.5,-30 394.5,-30 394.5,-10 374.5,-10"/>
<text text-anchor="start" x="398.23" y="-15.4" font-family="sans-serif" font-size="14.00"> &#160;Module</text>
<polygon fill="#80b1d3" stroke="transparent" points="460.5,-10 460.5,-30 480.5,-30 480.5,-10 460.5,-10"/>
<text text-anchor="start" x="484.28" y="-15.4" font-family="sans-serif" font-size="14.00"> &#160;Bootstrap</text>
<polygon fill="#fdb462" stroke="transparent" points="557.5,-10 557.5,-30 577.5,-30 577.5,-10 557.5,-10"/>
<text text-anchor="start" x="581.17" y="-15.4" font-family="sans-serif" font-size="14.00"> &#160;Providers</text>
<polygon fill="#fb8072" stroke="transparent" points="653.5,-10 653.5,-30 673.5,-30 673.5,-10 653.5,-10"/>
<text text-anchor="start" x="677.23" y="-15.4" font-family="sans-serif" font-size="14.00"> &#160;Exports</text>
<g id="clust1" class="cluster">
<title>cluster_MyAccountModule</title>
<polygon fill="none" stroke="black" stroke-dasharray="1,5" points="8,-70 8,-195 983,-195 983,-70 8,-70"/>
</g>
<g id="clust3" class="cluster">
<title>cluster_MyAccountModule_imports</title>
<polygon fill="none" stroke="black" points="16,-78 16,-130 975,-130 975,-78 16,-78"/>
</g>
<!-- ClaimModule -->
<g id="node1" class="node">
<title>ClaimModule</title>
<polygon fill="#8dd3c7" stroke="black" points="966.77,-122 963.77,-126 942.77,-126 939.77,-122 873.23,-122 873.23,-86 966.77,-86 966.77,-122"/>
<text text-anchor="middle" x="920" y="-99.8" font-family="Times,serif" font-size="14.00">ClaimModule</text>
</g>
<!-- MyAccountModule -->
<g id="node8" class="node">
<title>MyAccountModule</title>
<polygon fill="#8dd3c7" stroke="black" points="614.42,-187 611.42,-191 590.42,-191 587.42,-187 487.58,-187 487.58,-151 614.42,-151 614.42,-187"/>
<text text-anchor="middle" x="551" y="-164.8" font-family="Times,serif" font-size="14.00">MyAccountModule</text>
</g>
<!-- ClaimModule&#45;&gt;MyAccountModule -->
<g id="edge1" class="edge">
<title>ClaimModule&#45;&gt;MyAccountModule</title>
<path fill="none" stroke="black" d="M920,-122.29C920,-144.21 920,-178 920,-178 920,-178 624.43,-178 624.43,-178"/>
<polygon fill="black" stroke="black" points="624.43,-174.5 614.43,-178 624.43,-181.5 624.43,-174.5"/>
</g>
<!-- InboxModule -->
<g id="node2" class="node">
<title>InboxModule</title>
<polygon fill="#8dd3c7" stroke="black" points="855.21,-122 852.21,-126 831.21,-126 828.21,-122 762.79,-122 762.79,-86 855.21,-86 855.21,-122"/>
<text text-anchor="middle" x="809" y="-99.8" font-family="Times,serif" font-size="14.00">InboxModule</text>
</g>
<!-- InboxModule&#45;&gt;MyAccountModule -->
<g id="edge2" class="edge">
<title>InboxModule&#45;&gt;MyAccountModule</title>
<path fill="none" stroke="black" d="M809,-122.11C809,-141.34 809,-169 809,-169 809,-169 624.44,-169 624.44,-169"/>
<polygon fill="black" stroke="black" points="624.44,-165.5 614.44,-169 624.44,-172.5 624.44,-165.5"/>
</g>
<!-- PolicyModule -->
<g id="node3" class="node">
<title>PolicyModule</title>
<polygon fill="#8dd3c7" stroke="black" points="744.83,-122 741.83,-126 720.83,-126 717.83,-122 649.17,-122 649.17,-86 744.83,-86 744.83,-122"/>
<text text-anchor="middle" x="697" y="-99.8" font-family="Times,serif" font-size="14.00">PolicyModule</text>
</g>
<!-- PolicyModule&#45;&gt;MyAccountModule -->
<g id="edge3" class="edge">
<title>PolicyModule&#45;&gt;MyAccountModule</title>
<path fill="none" stroke="black" d="M697,-122.03C697,-138.4 697,-160 697,-160 697,-160 624.61,-160 624.61,-160"/>
<polygon fill="black" stroke="black" points="624.61,-156.5 614.61,-160 624.61,-163.5 624.61,-156.5"/>
</g>
<!-- PremiumCalendarModule -->
<g id="node4" class="node">
<title>PremiumCalendarModule</title>
<polygon fill="#8dd3c7" stroke="black" points="631.91,-122 628.91,-126 607.91,-126 604.91,-122 470.09,-122 470.09,-86 631.91,-86 631.91,-122"/>
<text text-anchor="middle" x="551" y="-99.8" font-family="Times,serif" font-size="14.00">PremiumCalendarModule</text>
</g>
<!-- PremiumCalendarModule&#45;&gt;MyAccountModule -->
<g id="edge4" class="edge">
<title>PremiumCalendarModule&#45;&gt;MyAccountModule</title>
<path fill="none" stroke="black" d="M551,-122.11C551,-122.11 551,-140.99 551,-140.99"/>
<polygon fill="black" stroke="black" points="547.5,-140.99 551,-150.99 554.5,-140.99 547.5,-140.99"/>
</g>
<!-- QuoteModule -->
<g id="node5" class="node">
<title>QuoteModule</title>
<polygon fill="#8dd3c7" stroke="black" points="451.76,-122 448.76,-126 427.76,-126 424.76,-122 358.24,-122 358.24,-86 451.76,-86 451.76,-122"/>
<text text-anchor="middle" x="405" y="-99.8" font-family="Times,serif" font-size="14.00">QuoteModule</text>
</g>
<!-- QuoteModule&#45;&gt;MyAccountModule -->
<g id="edge5" class="edge">
<title>QuoteModule&#45;&gt;MyAccountModule</title>
<path fill="none" stroke="black" d="M405,-122.03C405,-138.4 405,-160 405,-160 405,-160 477.39,-160 477.39,-160"/>
<polygon fill="black" stroke="black" points="477.39,-163.5 487.39,-160 477.39,-156.5 477.39,-163.5"/>
</g>
<!-- UpdateProfileModule -->
<g id="node6" class="node">
<title>UpdateProfileModule</title>
<polygon fill="#8dd3c7" stroke="black" points="340.08,-122 337.08,-126 316.08,-126 313.08,-122 201.92,-122 201.92,-86 340.08,-86 340.08,-122"/>
<text text-anchor="middle" x="271" y="-99.8" font-family="Times,serif" font-size="14.00">UpdateProfileModule</text>
</g>
<!-- UpdateProfileModule&#45;&gt;MyAccountModule -->
<g id="edge6" class="edge">
<title>UpdateProfileModule&#45;&gt;MyAccountModule</title>
<path fill="none" stroke="black" d="M271,-122.11C271,-141.34 271,-169 271,-169 271,-169 477.46,-169 477.46,-169"/>
<polygon fill="black" stroke="black" points="477.46,-172.5 487.46,-169 477.46,-165.5 477.46,-172.5"/>
</g>
<!-- UserRequestStoreModule -->
<g id="node7" class="node">
<title>UserRequestStoreModule</title>
<polygon fill="#8dd3c7" stroke="black" points="184.13,-122 181.13,-126 160.13,-126 157.13,-122 23.87,-122 23.87,-86 184.13,-86 184.13,-122"/>
<text text-anchor="middle" x="104" y="-99.8" font-family="Times,serif" font-size="14.00">UserRequestStoreModule</text>
</g>
<!-- UserRequestStoreModule&#45;&gt;MyAccountModule -->
<g id="edge7" class="edge">
<title>UserRequestStoreModule&#45;&gt;MyAccountModule</title>
<path fill="none" stroke="black" d="M104,-122.29C104,-144.21 104,-178 104,-178 104,-178 477.43,-178 477.43,-178"/>
<polygon fill="black" stroke="black" points="477.43,-181.5 487.43,-178 477.43,-174.5 477.43,-181.5"/>
</g>
</g>
</svg>
