<?xml version="1.0" encoding="UTF-8" standalone="no"?>
<!DOCTYPE svg PUBLIC "-//W3C//DTD SVG 1.1//EN"
 "http://www.w3.org/Graphics/SVG/1.1/DTD/svg11.dtd">
<!-- Generated by graphviz version 2.47.3 (20210619.1520)
 -->
<!-- Title: dependencies Pages: 1 -->
<svg width="1629pt" height="174pt"
 viewBox="0.00 0.00 1629.00 173.80" xmlns="http://www.w3.org/2000/svg" xmlns:xlink="http://www.w3.org/1999/xlink">
<g id="graph0" class="graph" transform="scale(1 1) rotate(0) translate(4 169.8)">
<title>dependencies</title>
<polygon fill="white" stroke="transparent" points="-4,4 -4,-169.8 1625,-169.8 1625,4 -4,4"/>
<text text-anchor="middle" x="810.5" y="-8.2" font-family="sans-serif" font-size="14.00">dependencies</text>
<g id="clust1" class="cluster">
<title>cluster_MyAccountModule</title>
<polygon fill="none" stroke="black" stroke-dasharray="1,5" points="8,-32.8 8,-157.8 1613,-157.8 1613,-32.8 8,-32.8"/>
</g>
<g id="clust3" class="cluster">
<title>cluster_MyAccountModule_imports</title>
<polygon fill="none" stroke="black" points="214,-40.8 214,-92.8 1605,-92.8 1605,-40.8 214,-40.8"/>
</g>
<g id="clust6" class="cluster">
<title>cluster_MyAccountModule_providers</title>
<polygon fill="none" stroke="black" points="16,-40.8 16,-92.8 206,-92.8 206,-40.8 16,-40.8"/>
</g>
<!-- ClaimModule -->
<g id="node1" class="node">
<title>ClaimModule</title>
<polygon fill="#8dd3c7" stroke="black" points="1596.77,-84.8 1593.77,-88.8 1572.77,-88.8 1569.77,-84.8 1503.23,-84.8 1503.23,-48.8 1596.77,-48.8 1596.77,-84.8"/>
<text text-anchor="middle" x="1550" y="-62.6" font-family="Times,serif" font-size="14.00">ClaimModule</text>
</g>
<!-- MyAccountModule -->
<g id="node11" class="node">
<title>MyAccountModule</title>
<polygon fill="#8dd3c7" stroke="black" points="958.42,-149.8 955.42,-153.8 934.42,-153.8 931.42,-149.8 831.58,-149.8 831.58,-113.8 958.42,-113.8 958.42,-149.8"/>
<text text-anchor="middle" x="895" y="-127.6" font-family="Times,serif" font-size="14.00">MyAccountModule</text>
</g>
<!-- ClaimModule&#45;&gt;MyAccountModule -->
<g id="edge1" class="edge">
<title>ClaimModule&#45;&gt;MyAccountModule</title>
<path fill="none" stroke="black" d="M1550,-84.81C1550,-107.29 1550,-142.8 1550,-142.8 1550,-142.8 968.4,-142.8 968.4,-142.8"/>
<polygon fill="black" stroke="black" points="968.4,-139.3 958.4,-142.8 968.4,-146.3 968.4,-139.3"/>
</g>
<!-- DocumentModule -->
<g id="node2" class="node">
<title>DocumentModule</title>
<polygon fill="#8dd3c7" stroke="black" points="1484.87,-84.8 1481.87,-88.8 1460.87,-88.8 1457.87,-84.8 1367.13,-84.8 1367.13,-48.8 1484.87,-48.8 1484.87,-84.8"/>
<text text-anchor="middle" x="1426" y="-62.6" font-family="Times,serif" font-size="14.00">DocumentModule</text>
</g>
<!-- DocumentModule&#45;&gt;MyAccountModule -->
<g id="edge2" class="edge">
<title>DocumentModule&#45;&gt;MyAccountModule</title>
<path fill="none" stroke="black" d="M1426,-84.93C1426,-105.37 1426,-135.8 1426,-135.8 1426,-135.8 968.26,-135.8 968.26,-135.8"/>
<polygon fill="black" stroke="black" points="968.26,-132.3 958.26,-135.8 968.26,-139.3 968.26,-132.3"/>
</g>
<!-- FSAddressBookModule -->
<g id="node3" class="node">
<title>FSAddressBookModule</title>
<polygon fill="#8dd3c7" stroke="black" points="1348.82,-84.8 1345.82,-88.8 1324.82,-88.8 1321.82,-84.8 1197.18,-84.8 1197.18,-48.8 1348.82,-48.8 1348.82,-84.8"/>
<text text-anchor="middle" x="1273" y="-62.6" font-family="Times,serif" font-size="14.00">FSAddressBookModule</text>
</g>
<!-- FSAddressBookModule&#45;&gt;MyAccountModule -->
<g id="edge3" class="edge">
<title>FSAddressBookModule&#45;&gt;MyAccountModule</title>
<path fill="none" stroke="black" d="M1273,-85.07C1273,-103.36 1273,-128.8 1273,-128.8 1273,-128.8 968.27,-128.8 968.27,-128.8"/>
<polygon fill="black" stroke="black" points="968.27,-125.3 958.27,-128.8 968.27,-132.3 968.27,-125.3"/>
</g>
<!-- FSOrderModule -->
<g id="node4" class="node">
<title>FSOrderModule</title>
<polygon fill="#8dd3c7" stroke="black" points="1178.76,-84.8 1175.76,-88.8 1154.76,-88.8 1151.76,-84.8 1071.24,-84.8 1071.24,-48.8 1178.76,-48.8 1178.76,-84.8"/>
<text text-anchor="middle" x="1125" y="-62.6" font-family="Times,serif" font-size="14.00">FSOrderModule</text>
</g>
<!-- FSOrderModule&#45;&gt;MyAccountModule -->
<g id="edge4" class="edge">
<title>FSOrderModule&#45;&gt;MyAccountModule</title>
<path fill="none" stroke="black" d="M1125,-84.81C1125,-100.85 1125,-121.8 1125,-121.8 1125,-121.8 968.46,-121.8 968.46,-121.8"/>
<polygon fill="black" stroke="black" points="968.46,-118.3 958.46,-121.8 968.46,-125.3 968.46,-118.3"/>
</g>
<!-- InboxModule -->
<g id="node5" class="node">
<title>InboxModule</title>
<polygon fill="#8dd3c7" stroke="black" points="1053.21,-84.8 1050.21,-88.8 1029.21,-88.8 1026.21,-84.8 960.79,-84.8 960.79,-48.8 1053.21,-48.8 1053.21,-84.8"/>
<text text-anchor="middle" x="1007" y="-62.6" font-family="Times,serif" font-size="14.00">InboxModule</text>
</g>
<!-- InboxModule&#45;&gt;MyAccountModule -->
<g id="edge5" class="edge">
<title>InboxModule&#45;&gt;MyAccountModule</title>
<path fill="none" stroke="black" d="M960.81,-66.8C954.67,-66.8 950.44,-66.8 950.44,-66.8 950.44,-66.8 950.44,-103.69 950.44,-103.69"/>
<polygon fill="black" stroke="black" points="946.94,-103.69 950.44,-113.69 953.94,-103.69 946.94,-103.69"/>
</g>
<!-- PolicyModule -->
<g id="node6" class="node">
<title>PolicyModule</title>
<polygon fill="#8dd3c7" stroke="black" points="942.83,-84.8 939.83,-88.8 918.83,-88.8 915.83,-84.8 847.17,-84.8 847.17,-48.8 942.83,-48.8 942.83,-84.8"/>
<text text-anchor="middle" x="895" y="-62.6" font-family="Times,serif" font-size="14.00">PolicyModule</text>
</g>
<!-- PolicyModule&#45;&gt;MyAccountModule -->
<g id="edge6" class="edge">
<title>PolicyModule&#45;&gt;MyAccountModule</title>
<path fill="none" stroke="black" d="M895,-84.91C895,-84.91 895,-103.79 895,-103.79"/>
<polygon fill="black" stroke="black" points="891.5,-103.79 895,-113.79 898.5,-103.79 891.5,-103.79"/>
</g>
<!-- PremiumCalendarModule -->
<g id="node7" class="node">
<title>PremiumCalendarModule</title>
<polygon fill="#8dd3c7" stroke="black" points="829.91,-84.8 826.91,-88.8 805.91,-88.8 802.91,-84.8 668.09,-84.8 668.09,-48.8 829.91,-48.8 829.91,-84.8"/>
<text text-anchor="middle" x="749" y="-62.6" font-family="Times,serif" font-size="14.00">PremiumCalendarModule</text>
</g>
<!-- PremiumCalendarModule&#45;&gt;MyAccountModule -->
<g id="edge7" class="edge">
<title>PremiumCalendarModule&#45;&gt;MyAccountModule</title>
<path fill="none" stroke="black" d="M829.87,-66.8C835.83,-66.8 839.56,-66.8 839.56,-66.8 839.56,-66.8 839.56,-103.69 839.56,-103.69"/>
<polygon fill="black" stroke="black" points="836.06,-103.69 839.56,-113.69 843.06,-103.69 836.06,-103.69"/>
</g>
<!-- QuoteModule -->
<g id="node8" class="node">
<title>QuoteModule</title>
<polygon fill="#8dd3c7" stroke="black" points="649.76,-84.8 646.76,-88.8 625.76,-88.8 622.76,-84.8 556.24,-84.8 556.24,-48.8 649.76,-48.8 649.76,-84.8"/>
<text text-anchor="middle" x="603" y="-62.6" font-family="Times,serif" font-size="14.00">QuoteModule</text>
</g>
<!-- QuoteModule&#45;&gt;MyAccountModule -->
<g id="edge8" class="edge">
<title>QuoteModule&#45;&gt;MyAccountModule</title>
<path fill="none" stroke="black" d="M603,-84.81C603,-100.85 603,-121.8 603,-121.8 603,-121.8 821.64,-121.8 821.64,-121.8"/>
<polygon fill="black" stroke="black" points="821.64,-125.3 831.64,-121.8 821.64,-118.3 821.64,-125.3"/>
</g>
<!-- UpdateProfileModule -->
<g id="node9" class="node">
<title>UpdateProfileModule</title>
<polygon fill="#8dd3c7" stroke="black" points="538.08,-84.8 535.08,-88.8 514.08,-88.8 511.08,-84.8 399.92,-84.8 399.92,-48.8 538.08,-48.8 538.08,-84.8"/>
<text text-anchor="middle" x="469" y="-62.6" font-family="Times,serif" font-size="14.00">UpdateProfileModule</text>
</g>
<!-- UpdateProfileModule&#45;&gt;MyAccountModule -->
<g id="edge9" class="edge">
<title>UpdateProfileModule&#45;&gt;MyAccountModule</title>
<path fill="none" stroke="black" d="M469,-85.07C469,-103.36 469,-128.8 469,-128.8 469,-128.8 821.68,-128.8 821.68,-128.8"/>
<polygon fill="black" stroke="black" points="821.68,-132.3 831.68,-128.8 821.68,-125.3 821.68,-132.3"/>
</g>
<!-- UserRequestStoreModule -->
<g id="node10" class="node">
<title>UserRequestStoreModule</title>
<polygon fill="#8dd3c7" stroke="black" points="382.13,-84.8 379.13,-88.8 358.13,-88.8 355.13,-84.8 221.87,-84.8 221.87,-48.8 382.13,-48.8 382.13,-84.8"/>
<text text-anchor="middle" x="302" y="-62.6" font-family="Times,serif" font-size="14.00">UserRequestStoreModule</text>
</g>
<!-- UserRequestStoreModule&#45;&gt;MyAccountModule -->
<g id="edge10" class="edge">
<title>UserRequestStoreModule&#45;&gt;MyAccountModule</title>
<path fill="none" stroke="black" d="M302,-84.93C302,-105.37 302,-135.8 302,-135.8 302,-135.8 821.54,-135.8 821.54,-135.8"/>
<polygon fill="black" stroke="black" points="821.54,-139.3 831.54,-135.8 821.54,-132.3 821.54,-139.3"/>
</g>
<!-- OccFSUserAdapter -->
<g id="node12" class="node">
<title>OccFSUserAdapter</title>
<ellipse fill="#fdb462" stroke="black" cx="111" cy="-66.8" rx="86.79" ry="18"/>
<text text-anchor="middle" x="111" y="-62.6" font-family="Times,serif" font-size="14.00">OccFSUserAdapter</text>
</g>
<!-- OccFSUserAdapter&#45;&gt;MyAccountModule -->
<g id="edge11" class="edge">
<title>OccFSUserAdapter&#45;&gt;MyAccountModule</title>
<path fill="none" stroke="black" d="M111,-84.81C111,-107.29 111,-142.8 111,-142.8 111,-142.8 821.51,-142.8 821.51,-142.8"/>
<polygon fill="black" stroke="black" points="821.51,-146.3 831.51,-142.8 821.51,-139.3 821.51,-146.3"/>
</g>
</g>
</svg>
