<?xml version="1.0" encoding="UTF-8" standalone="no"?>
<!DOCTYPE svg PUBLIC "-//W3C//DTD SVG 1.1//EN"
 "http://www.w3.org/Graphics/SVG/1.1/DTD/svg11.dtd">
<!-- Generated by graphviz version 2.47.3 (20210619.1520)
 -->
<!-- Title: dependencies Pages: 1 -->
<svg width="1643pt" height="174pt"
 viewBox="0.00 0.00 1643.00 173.80" xmlns="http://www.w3.org/2000/svg" xmlns:xlink="http://www.w3.org/1999/xlink">
<g id="graph0" class="graph" transform="scale(1 1) rotate(0) translate(4 169.8)">
<title>dependencies</title>
<polygon fill="white" stroke="transparent" points="-4,4 -4,-169.8 1639,-169.8 1639,4 -4,4"/>
<text text-anchor="middle" x="817.5" y="-8.2" font-family="sans-serif" font-size="14.00">dependencies</text>
<g id="clust1" class="cluster">
<title>cluster_MyAccountModule</title>
<polygon fill="none" stroke="black" stroke-dasharray="1,5" points="8,-32.8 8,-157.8 1627,-157.8 1627,-32.8 8,-32.8"/>
</g>
<g id="clust3" class="cluster">
<title>cluster_MyAccountModule_imports</title>
<polygon fill="none" stroke="black" points="16,-40.8 16,-92.8 1619,-92.8 1619,-40.8 16,-40.8"/>
</g>
<!-- ClaimModule -->
<g id="node1" class="node">
<title>ClaimModule</title>
<polygon fill="#8dd3c7" stroke="black" points="1610.77,-84.8 1607.77,-88.8 1586.77,-88.8 1583.77,-84.8 1517.23,-84.8 1517.23,-48.8 1610.77,-48.8 1610.77,-84.8"/>
<text text-anchor="middle" x="1564" y="-62.6" font-family="Times,serif" font-size="14.00">ClaimModule</text>
</g>
<!-- MyAccountModule -->
<g id="node12" class="node">
<title>MyAccountModule</title>
<polygon fill="#8dd3c7" stroke="black" points="872.42,-149.8 869.42,-153.8 848.42,-153.8 845.42,-149.8 745.58,-149.8 745.58,-113.8 872.42,-113.8 872.42,-149.8"/>
<text text-anchor="middle" x="809" y="-127.6" font-family="Times,serif" font-size="14.00">MyAccountModule</text>
</g>
<!-- ClaimModule&#45;&gt;MyAccountModule -->
<g id="edge1" class="edge">
<title>ClaimModule&#45;&gt;MyAccountModule</title>
<path fill="none" stroke="black" d="M1564,-84.81C1564,-107.29 1564,-142.8 1564,-142.8 1564,-142.8 882.4,-142.8 882.4,-142.8"/>
<polygon fill="black" stroke="black" points="882.4,-139.3 872.4,-142.8 882.4,-146.3 882.4,-139.3"/>
</g>
<!-- DocumentModule -->
<g id="node2" class="node">
<title>DocumentModule</title>
<polygon fill="#8dd3c7" stroke="black" points="1498.87,-84.8 1495.87,-88.8 1474.87,-88.8 1471.87,-84.8 1381.13,-84.8 1381.13,-48.8 1498.87,-48.8 1498.87,-84.8"/>
<text text-anchor="middle" x="1440" y="-62.6" font-family="Times,serif" font-size="14.00">DocumentModule</text>
</g>
<!-- DocumentModule&#45;&gt;MyAccountModule -->
<g id="edge2" class="edge">
<title>DocumentModule&#45;&gt;MyAccountModule</title>
<path fill="none" stroke="black" d="M1440,-84.93C1440,-105.37 1440,-135.8 1440,-135.8 1440,-135.8 882.39,-135.8 882.39,-135.8"/>
<polygon fill="black" stroke="black" points="882.39,-132.3 872.39,-135.8 882.39,-139.3 882.39,-132.3"/>
</g>
<!-- FSAddressBookModule -->
<g id="node3" class="node">
<title>FSAddressBookModule</title>
<polygon fill="#8dd3c7" stroke="black" points="1362.82,-84.8 1359.82,-88.8 1338.82,-88.8 1335.82,-84.8 1211.18,-84.8 1211.18,-48.8 1362.82,-48.8 1362.82,-84.8"/>
<text text-anchor="middle" x="1287" y="-62.6" font-family="Times,serif" font-size="14.00">FSAddressBookModule</text>
</g>
<!-- FSAddressBookModule&#45;&gt;MyAccountModule -->
<g id="edge3" class="edge">
<title>FSAddressBookModule&#45;&gt;MyAccountModule</title>
<path fill="none" stroke="black" d="M1287,-85.07C1287,-103.36 1287,-128.8 1287,-128.8 1287,-128.8 882.47,-128.8 882.47,-128.8"/>
<polygon fill="black" stroke="black" points="882.47,-125.3 872.47,-128.8 882.47,-132.3 882.47,-125.3"/>
</g>
<!-- FSConsentManagementModule -->
<g id="node4" class="node">
<title>FSConsentManagementModule</title>
<polygon fill="#8dd3c7" stroke="black" points="1193.09,-84.8 1190.09,-88.8 1169.09,-88.8 1166.09,-84.8 998.91,-84.8 998.91,-48.8 1193.09,-48.8 1193.09,-84.8"/>
<text text-anchor="middle" x="1096" y="-62.6" font-family="Times,serif" font-size="14.00">FSConsentManagementModule</text>
</g>
<!-- FSConsentManagementModule&#45;&gt;MyAccountModule -->
<g id="edge4" class="edge">
<title>FSConsentManagementModule&#45;&gt;MyAccountModule</title>
<path fill="none" stroke="black" d="M1096,-84.81C1096,-100.85 1096,-121.8 1096,-121.8 1096,-121.8 882.34,-121.8 882.34,-121.8"/>
<polygon fill="black" stroke="black" points="882.34,-118.3 872.34,-121.8 882.34,-125.3 882.34,-118.3"/>
</g>
<!-- FSOrderModule -->
<g id="node5" class="node">
<title>FSOrderModule</title>
<polygon fill="#8dd3c7" stroke="black" points="980.76,-84.8 977.76,-88.8 956.76,-88.8 953.76,-84.8 873.24,-84.8 873.24,-48.8 980.76,-48.8 980.76,-84.8"/>
<text text-anchor="middle" x="927" y="-62.6" font-family="Times,serif" font-size="14.00">FSOrderModule</text>
</g>
<!-- FSOrderModule&#45;&gt;MyAccountModule -->
<g id="edge5" class="edge">
<title>FSOrderModule&#45;&gt;MyAccountModule</title>
<path fill="none" stroke="black" d="M873,-66.8C867.37,-66.8 863.66,-66.8 863.66,-66.8 863.66,-66.8 863.66,-103.69 863.66,-103.69"/>
<polygon fill="black" stroke="black" points="860.16,-103.69 863.66,-113.69 867.16,-103.69 860.16,-103.69"/>
</g>
<!-- InboxModule -->
<g id="node6" class="node">
<title>InboxModule</title>
<polygon fill="#8dd3c7" stroke="black" points="855.21,-84.8 852.21,-88.8 831.21,-88.8 828.21,-84.8 762.79,-84.8 762.79,-48.8 855.21,-48.8 855.21,-84.8"/>
<text text-anchor="middle" x="809" y="-62.6" font-family="Times,serif" font-size="14.00">InboxModule</text>
</g>
<!-- InboxModule&#45;&gt;MyAccountModule -->
<g id="edge6" class="edge">
<title>InboxModule&#45;&gt;MyAccountModule</title>
<path fill="none" stroke="black" d="M809,-84.91C809,-84.91 809,-103.79 809,-103.79"/>
<polygon fill="black" stroke="black" points="805.5,-103.79 809,-113.79 812.5,-103.79 805.5,-103.79"/>
</g>
<!-- PolicyModule -->
<g id="node7" class="node">
<title>PolicyModule</title>
<polygon fill="#8dd3c7" stroke="black" points="744.83,-84.8 741.83,-88.8 720.83,-88.8 717.83,-84.8 649.17,-84.8 649.17,-48.8 744.83,-48.8 744.83,-84.8"/>
<text text-anchor="middle" x="697" y="-62.6" font-family="Times,serif" font-size="14.00">PolicyModule</text>
</g>
<!-- PolicyModule&#45;&gt;MyAccountModule -->
<g id="edge7" class="edge">
<title>PolicyModule&#45;&gt;MyAccountModule</title>
<path fill="none" stroke="black" d="M744.87,-66.8C750.53,-66.8 754.34,-66.8 754.34,-66.8 754.34,-66.8 754.34,-103.69 754.34,-103.69"/>
<polygon fill="black" stroke="black" points="750.84,-103.69 754.34,-113.69 757.84,-103.69 750.84,-103.69"/>
</g>
<!-- PremiumCalendarModule -->
<g id="node8" class="node">
<title>PremiumCalendarModule</title>
<polygon fill="#8dd3c7" stroke="black" points="631.91,-84.8 628.91,-88.8 607.91,-88.8 604.91,-84.8 470.09,-84.8 470.09,-48.8 631.91,-48.8 631.91,-84.8"/>
<text text-anchor="middle" x="551" y="-62.6" font-family="Times,serif" font-size="14.00">PremiumCalendarModule</text>
</g>
<!-- PremiumCalendarModule&#45;&gt;MyAccountModule -->
<g id="edge8" class="edge">
<title>PremiumCalendarModule&#45;&gt;MyAccountModule</title>
<path fill="none" stroke="black" d="M551,-84.81C551,-100.85 551,-121.8 551,-121.8 551,-121.8 735.56,-121.8 735.56,-121.8"/>
<polygon fill="black" stroke="black" points="735.56,-125.3 745.56,-121.8 735.56,-118.3 735.56,-125.3"/>
</g>
<!-- QuoteModule -->
<g id="node9" class="node">
<title>QuoteModule</title>
<polygon fill="#8dd3c7" stroke="black" points="451.76,-84.8 448.76,-88.8 427.76,-88.8 424.76,-84.8 358.24,-84.8 358.24,-48.8 451.76,-48.8 451.76,-84.8"/>
<text text-anchor="middle" x="405" y="-62.6" font-family="Times,serif" font-size="14.00">QuoteModule</text>
</g>
<!-- QuoteModule&#45;&gt;MyAccountModule -->
<g id="edge9" class="edge">
<title>QuoteModule&#45;&gt;MyAccountModule</title>
<path fill="none" stroke="black" d="M405,-85.07C405,-103.36 405,-128.8 405,-128.8 405,-128.8 735.43,-128.8 735.43,-128.8"/>
<polygon fill="black" stroke="black" points="735.43,-132.3 745.43,-128.8 735.43,-125.3 735.43,-132.3"/>
</g>
<!-- UpdateProfileModule -->
<g id="node10" class="node">
<title>UpdateProfileModule</title>
<polygon fill="#8dd3c7" stroke="black" points="340.08,-84.8 337.08,-88.8 316.08,-88.8 313.08,-84.8 201.92,-84.8 201.92,-48.8 340.08,-48.8 340.08,-84.8"/>
<text text-anchor="middle" x="271" y="-62.6" font-family="Times,serif" font-size="14.00">UpdateProfileModule</text>
</g>
<!-- UpdateProfileModule&#45;&gt;MyAccountModule -->
<g id="edge10" class="edge">
<title>UpdateProfileModule&#45;&gt;MyAccountModule</title>
<path fill="none" stroke="black" d="M271,-84.93C271,-105.37 271,-135.8 271,-135.8 271,-135.8 735.7,-135.8 735.7,-135.8"/>
<polygon fill="black" stroke="black" points="735.7,-139.3 745.7,-135.8 735.7,-132.3 735.7,-139.3"/>
</g>
<!-- UserRequestStoreModule -->
<g id="node11" class="node">
<title>UserRequestStoreModule</title>
<polygon fill="#8dd3c7" stroke="black" points="184.13,-84.8 181.13,-88.8 160.13,-88.8 157.13,-84.8 23.87,-84.8 23.87,-48.8 184.13,-48.8 184.13,-84.8"/>
<text text-anchor="middle" x="104" y="-62.6" font-family="Times,serif" font-size="14.00">UserRequestStoreModule</text>
</g>
<!-- UserRequestStoreModule&#45;&gt;MyAccountModule -->
<g id="edge11" class="edge">
<title>UserRequestStoreModule&#45;&gt;MyAccountModule</title>
<path fill="none" stroke="black" d="M104,-84.81C104,-107.29 104,-142.8 104,-142.8 104,-142.8 735.5,-142.8 735.5,-142.8"/>
<polygon fill="black" stroke="black" points="735.5,-146.3 745.5,-142.8 735.5,-139.3 735.5,-146.3"/>
</g>
</g>
</svg>
