<?xml version="1.0" encoding="UTF-8" standalone="no"?>
<!DOCTYPE svg PUBLIC "-//W3C//DTD SVG 1.1//EN"
 "http://www.w3.org/Graphics/SVG/1.1/DTD/svg11.dtd">
<!-- Generated by graphviz version 2.46.0 (20210119.1425)
 -->
<!-- Title: dependencies Pages: 1 -->
<svg width="1125pt" height="211pt"
 viewBox="0.00 0.00 1125.00 211.00" xmlns="http://www.w3.org/2000/svg" xmlns:xlink="http://www.w3.org/1999/xlink">
<g id="graph0" class="graph" transform="scale(1 1) rotate(0) translate(4 207)">
<title>dependencies</title>
<polygon fill="white" stroke="transparent" points="-4,4 -4,-207 1121,-207 1121,4 -4,4"/>
<text text-anchor="start" x="537.51" y="-42.4" font-family="sans-serif" font-weight="bold" font-size="14.00">Legend</text>
<polygon fill="#ffffb3" stroke="transparent" points="324.5,-10 324.5,-30 344.5,-30 344.5,-10 324.5,-10"/>
<text text-anchor="start" x="348.13" y="-15.4" font-family="sans-serif" font-size="14.00"> &#160;Declarations</text>
<polygon fill="#8dd3c7" stroke="transparent" points="437.5,-10 437.5,-30 457.5,-30 457.5,-10 437.5,-10"/>
<text text-anchor="start" x="461.23" y="-15.4" font-family="sans-serif" font-size="14.00"> &#160;Module</text>
<polygon fill="#80b1d3" stroke="transparent" points="523.5,-10 523.5,-30 543.5,-30 543.5,-10 523.5,-10"/>
<text text-anchor="start" x="547.28" y="-15.4" font-family="sans-serif" font-size="14.00"> &#160;Bootstrap</text>
<polygon fill="#fdb462" stroke="transparent" points="620.5,-10 620.5,-30 640.5,-30 640.5,-10 620.5,-10"/>
<text text-anchor="start" x="644.17" y="-15.4" font-family="sans-serif" font-size="14.00"> &#160;Providers</text>
<polygon fill="#fb8072" stroke="transparent" points="716.5,-10 716.5,-30 736.5,-30 736.5,-10 716.5,-10"/>
<text text-anchor="start" x="740.23" y="-15.4" font-family="sans-serif" font-size="14.00"> &#160;Exports</text>
<g id="clust1" class="cluster">
<title>cluster_MyAccountModule</title>
<polygon fill="none" stroke="black" stroke-dasharray="1,5" points="8,-70 8,-195 1109,-195 1109,-70 8,-70"/>
</g>
<g id="clust3" class="cluster">
<title>cluster_MyAccountModule_imports</title>
<polygon fill="none" stroke="black" points="16,-78 16,-130 1101,-130 1101,-78 16,-78"/>
</g>
<!-- ClaimModule -->
<g id="node1" class="node">
<title>ClaimModule</title>
<polygon fill="#8dd3c7" stroke="black" points="1092.77,-122 1089.77,-126 1068.77,-126 1065.77,-122 999.23,-122 999.23,-86 1092.77,-86 1092.77,-122"/>
<text text-anchor="middle" x="1046" y="-99.8" font-family="Times,serif" font-size="14.00">ClaimModule</text>
</g>
<!-- MyAccountModule -->
<g id="node9" class="node">
<title>MyAccountModule</title>
<polygon fill="#8dd3c7" stroke="black" points="687.42,-187 684.42,-191 663.42,-191 660.42,-187 560.58,-187 560.58,-151 687.42,-151 687.42,-187"/>
<text text-anchor="middle" x="624" y="-164.8" font-family="Times,serif" font-size="14.00">MyAccountModule</text>
</g>
<!-- ClaimModule&#45;&gt;MyAccountModule -->
<g id="edge1" class="edge">
<title>ClaimModule&#45;&gt;MyAccountModule</title>
<path fill="none" stroke="black" d="M1046,-122.29C1046,-144.21 1046,-178 1046,-178 1046,-178 697.63,-178 697.63,-178"/>
<polygon fill="black" stroke="black" points="697.63,-174.5 687.63,-178 697.63,-181.5 697.63,-174.5"/>
</g>
<!-- FSOrderModule -->
<g id="node2" class="node">
<title>FSOrderModule</title>
<polygon fill="#8dd3c7" stroke="black" points="980.76,-122 977.76,-126 956.76,-126 953.76,-122 873.24,-122 873.24,-86 980.76,-86 980.76,-122"/>
<text text-anchor="middle" x="927" y="-99.8" font-family="Times,serif" font-size="14.00">FSOrderModule</text>
</g>
<!-- FSOrderModule&#45;&gt;MyAccountModule -->
<g id="edge2" class="edge">
<title>FSOrderModule&#45;&gt;MyAccountModule</title>
<path fill="none" stroke="black" d="M927,-122.11C927,-141.34 927,-169 927,-169 927,-169 697.52,-169 697.52,-169"/>
<polygon fill="black" stroke="black" points="697.52,-165.5 687.52,-169 697.52,-172.5 697.52,-165.5"/>
</g>
<!-- InboxModule -->
<g id="node3" class="node">
<title>InboxModule</title>
<polygon fill="#8dd3c7" stroke="black" points="855.21,-122 852.21,-126 831.21,-126 828.21,-122 762.79,-122 762.79,-86 855.21,-86 855.21,-122"/>
<text text-anchor="middle" x="809" y="-99.8" font-family="Times,serif" font-size="14.00">InboxModule</text>
</g>
<!-- InboxModule&#45;&gt;MyAccountModule -->
<g id="edge3" class="edge">
<title>InboxModule&#45;&gt;MyAccountModule</title>
<path fill="none" stroke="black" d="M809,-122.03C809,-138.4 809,-160 809,-160 809,-160 697.41,-160 697.41,-160"/>
<polygon fill="black" stroke="black" points="697.41,-156.5 687.41,-160 697.41,-163.5 697.41,-156.5"/>
</g>
<!-- PolicyModule -->
<g id="node4" class="node">
<title>PolicyModule</title>
<polygon fill="#8dd3c7" stroke="black" points="744.83,-122 741.83,-126 720.83,-126 717.83,-122 649.17,-122 649.17,-86 744.83,-86 744.83,-122"/>
<text text-anchor="middle" x="697" y="-99.8" font-family="Times,serif" font-size="14.00">PolicyModule</text>
</g>
<!-- PolicyModule&#45;&gt;MyAccountModule -->
<g id="edge4" class="edge">
<title>PolicyModule&#45;&gt;MyAccountModule</title>
<path fill="none" stroke="black" d="M668.27,-122.11C668.27,-122.11 668.27,-140.99 668.27,-140.99"/>
<polygon fill="black" stroke="black" points="664.77,-140.99 668.27,-150.99 671.77,-140.99 664.77,-140.99"/>
</g>
<!-- PremiumCalendarModule -->
<g id="node5" class="node">
<title>PremiumCalendarModule</title>
<polygon fill="#8dd3c7" stroke="black" points="631.91,-122 628.91,-126 607.91,-126 604.91,-122 470.09,-122 470.09,-86 631.91,-86 631.91,-122"/>
<text text-anchor="middle" x="551" y="-99.8" font-family="Times,serif" font-size="14.00">PremiumCalendarModule</text>
</g>
<!-- PremiumCalendarModule&#45;&gt;MyAccountModule -->
<g id="edge5" class="edge">
<title>PremiumCalendarModule&#45;&gt;MyAccountModule</title>
<path fill="none" stroke="black" d="M596.25,-122.11C596.25,-122.11 596.25,-140.99 596.25,-140.99"/>
<polygon fill="black" stroke="black" points="592.75,-140.99 596.25,-150.99 599.75,-140.99 592.75,-140.99"/>
</g>
<!-- QuoteModule -->
<g id="node6" class="node">
<title>QuoteModule</title>
<polygon fill="#8dd3c7" stroke="black" points="451.76,-122 448.76,-126 427.76,-126 424.76,-122 358.24,-122 358.24,-86 451.76,-86 451.76,-122"/>
<text text-anchor="middle" x="405" y="-99.8" font-family="Times,serif" font-size="14.00">QuoteModule</text>
</g>
<!-- QuoteModule&#45;&gt;MyAccountModule -->
<g id="edge6" class="edge">
<title>QuoteModule&#45;&gt;MyAccountModule</title>
<path fill="none" stroke="black" d="M405,-122.03C405,-138.4 405,-160 405,-160 405,-160 550.66,-160 550.66,-160"/>
<polygon fill="black" stroke="black" points="550.66,-163.5 560.66,-160 550.66,-156.5 550.66,-163.5"/>
</g>
<!-- UpdateProfileModule -->
<g id="node7" class="node">
<title>UpdateProfileModule</title>
<polygon fill="#8dd3c7" stroke="black" points="340.08,-122 337.08,-126 316.08,-126 313.08,-122 201.92,-122 201.92,-86 340.08,-86 340.08,-122"/>
<text text-anchor="middle" x="271" y="-99.8" font-family="Times,serif" font-size="14.00">UpdateProfileModule</text>
</g>
<!-- UpdateProfileModule&#45;&gt;MyAccountModule -->
<g id="edge7" class="edge">
<title>UpdateProfileModule&#45;&gt;MyAccountModule</title>
<path fill="none" stroke="black" d="M271,-122.11C271,-141.34 271,-169 271,-169 271,-169 550.48,-169 550.48,-169"/>
<polygon fill="black" stroke="black" points="550.48,-172.5 560.48,-169 550.48,-165.5 550.48,-172.5"/>
</g>
<!-- UserRequestStoreModule -->
<g id="node8" class="node">
<title>UserRequestStoreModule</title>
<polygon fill="#8dd3c7" stroke="black" points="184.13,-122 181.13,-126 160.13,-126 157.13,-122 23.87,-122 23.87,-86 184.13,-86 184.13,-122"/>
<text text-anchor="middle" x="104" y="-99.8" font-family="Times,serif" font-size="14.00">UserRequestStoreModule</text>
</g>
<!-- UserRequestStoreModule&#45;&gt;MyAccountModule -->
<g id="edge8" class="edge">
<title>UserRequestStoreModule&#45;&gt;MyAccountModule</title>
<path fill="none" stroke="black" d="M104,-122.29C104,-144.21 104,-178 104,-178 104,-178 550.76,-178 550.76,-178"/>
<polygon fill="black" stroke="black" points="550.76,-181.5 560.76,-178 550.76,-174.5 550.76,-181.5"/>
</g>
</g>
</svg>
