<?xml version="1.0" encoding="UTF-8" standalone="no"?>
<!DOCTYPE svg PUBLIC "-//W3C//DTD SVG 1.1//EN"
 "http://www.w3.org/Graphics/SVG/1.1/DTD/svg11.dtd">
<!-- Generated by graphviz version 2.47.3 (20210619.1520)
 -->
<!-- Title: dependencies Pages: 1 -->
<svg width="296pt" height="247pt"
 viewBox="0.00 0.00 296.00 246.80" xmlns="http://www.w3.org/2000/svg" xmlns:xlink="http://www.w3.org/1999/xlink">
<g id="graph0" class="graph" transform="scale(1 1) rotate(0) translate(4 242.8)">
<title>dependencies</title>
<polygon fill="white" stroke="transparent" points="-4,4 -4,-242.8 292,-242.8 292,4 -4,4"/>
<text text-anchor="middle" x="144" y="-8.2" font-family="sans-serif" font-size="14.00">dependencies</text>
<g id="clust1" class="cluster">
<title>cluster_BannerModule</title>
<polygon fill="none" stroke="black" stroke-dasharray="1,5" points="8,-32.8 8,-230.8 280,-230.8 280,-32.8 8,-32.8"/>
</g>
<g id="clust2" class="cluster">
<title>cluster_BannerModule_declarations</title>
<polygon fill="none" stroke="black" points="18,-40.8 18,-92.8 270,-92.8 270,-40.8 18,-40.8"/>
</g>
<g id="clust5" class="cluster">
<title>cluster_BannerModule_exports</title>
<polygon fill="none" stroke="black" points="16,-170.8 16,-222.8 272,-222.8 272,-170.8 16,-170.8"/>
</g>
<!-- EnrichedResponsiveBannerComponent -->
<g id="node1" class="node">
<title>EnrichedResponsiveBannerComponent</title>
<polygon fill="#ffffb3" stroke="black" points="262.34,-84.8 25.66,-84.8 25.66,-48.8 262.34,-48.8 262.34,-84.8"/>
<text text-anchor="middle" x="144" y="-62.6" font-family="Times,serif" font-size="14.00">EnrichedResponsiveBannerComponent</text>
</g>
<!-- BannerModule -->
<g id="node2" class="node">
<title>BannerModule</title>
<polygon fill="#8dd3c7" stroke="black" points="193.98,-149.8 190.98,-153.8 169.98,-153.8 166.98,-149.8 94.02,-149.8 94.02,-113.8 193.98,-113.8 193.98,-149.8"/>
<text text-anchor="middle" x="144" y="-127.6" font-family="Times,serif" font-size="14.00">BannerModule</text>
</g>
<!-- EnrichedResponsiveBannerComponent&#45;&gt;BannerModule -->
<g id="edge1" class="edge">
<title>EnrichedResponsiveBannerComponent&#45;&gt;BannerModule</title>
<path fill="none" stroke="black" d="M144,-84.91C144,-84.91 144,-103.79 144,-103.79"/>
<polygon fill="black" stroke="black" points="140.5,-103.79 144,-113.79 147.5,-103.79 140.5,-103.79"/>
</g>
<!-- EnrichedResponsiveBannerComponent  -->
<g id="node3" class="node">
<title>EnrichedResponsiveBannerComponent </title>
<polygon fill="#fb8072" stroke="black" points="264.34,-214.8 23.66,-214.8 23.66,-178.8 264.34,-178.8 264.34,-214.8"/>
<text text-anchor="middle" x="144" y="-192.6" font-family="Times,serif" font-size="14.00">EnrichedResponsiveBannerComponent </text>
</g>
<!-- BannerModule&#45;&gt;EnrichedResponsiveBannerComponent  -->
<g id="edge2" class="edge">
<title>BannerModule&#45;&gt;EnrichedResponsiveBannerComponent </title>
<path fill="none" stroke="black" stroke-dasharray="5,2" d="M144,-149.91C144,-149.91 144,-168.79 144,-168.79"/>
<polygon fill="black" stroke="black" points="140.5,-168.79 144,-178.79 147.5,-168.79 140.5,-168.79"/>
</g>
</g>
</svg>
