<?xml version="1.0" encoding="UTF-8" standalone="no"?>
<!DOCTYPE svg PUBLIC "-//W3C//DTD SVG 1.1//EN"
 "http://www.w3.org/Graphics/SVG/1.1/DTD/svg11.dtd">
<!-- Generated by graphviz version 2.47.3 (20210619.1520)
 -->
<!-- Title: dependencies Pages: 1 -->
<svg width="556pt" height="247pt"
 viewBox="0.00 0.00 556.00 246.80" xmlns="http://www.w3.org/2000/svg" xmlns:xlink="http://www.w3.org/1999/xlink">
<g id="graph0" class="graph" transform="scale(1 1) rotate(0) translate(4 242.8)">
<title>dependencies</title>
<polygon fill="white" stroke="transparent" points="-4,4 -4,-242.8 552,-242.8 552,4 -4,4"/>
<text text-anchor="middle" x="274" y="-8.2" font-family="sans-serif" font-size="14.00">dependencies</text>
<g id="clust1" class="cluster">
<title>cluster_UpdateProfileModule</title>
<polygon fill="none" stroke="black" stroke-dasharray="1,5" points="8,-32.8 8,-230.8 540,-230.8 540,-32.8 8,-32.8"/>
</g>
<g id="clust7" class="cluster">
<title>cluster_UpdateProfileModule_providers</title>
<polygon fill="none" stroke="black" points="216,-40.8 216,-92.8 532,-92.8 532,-40.8 216,-40.8"/>
</g>
<g id="clust5" class="cluster">
<title>cluster_UpdateProfileModule_exports</title>
<polygon fill="none" stroke="black" points="146,-170.8 146,-222.8 340,-222.8 340,-170.8 146,-170.8"/>
</g>
<g id="clust2" class="cluster">
<title>cluster_UpdateProfileModule_declarations</title>
<polygon fill="none" stroke="black" points="16,-40.8 16,-92.8 208,-92.8 208,-40.8 16,-40.8"/>
</g>
<!-- FSUpdateProfileComponent -->
<g id="node1" class="node">
<title>FSUpdateProfileComponent</title>
<polygon fill="#ffffb3" stroke="black" points="199.92,-84.8 24.08,-84.8 24.08,-48.8 199.92,-48.8 199.92,-84.8"/>
<text text-anchor="middle" x="112" y="-62.6" font-family="Times,serif" font-size="14.00">FSUpdateProfileComponent</text>
</g>
<!-- UpdateProfileModule -->
<g id="node2" class="node">
<title>UpdateProfileModule</title>
<polygon fill="#8dd3c7" stroke="black" points="312.08,-149.8 309.08,-153.8 288.08,-153.8 285.08,-149.8 173.92,-149.8 173.92,-113.8 312.08,-113.8 312.08,-149.8"/>
<text text-anchor="middle" x="243" y="-127.6" font-family="Times,serif" font-size="14.00">UpdateProfileModule</text>
</g>
<!-- FSUpdateProfileComponent&#45;&gt;UpdateProfileModule -->
<g id="edge1" class="edge">
<title>FSUpdateProfileComponent&#45;&gt;UpdateProfileModule</title>
<path fill="none" stroke="black" d="M186.84,-84.91C186.84,-84.91 186.84,-103.79 186.84,-103.79"/>
<polygon fill="black" stroke="black" points="183.34,-103.79 186.84,-113.79 190.34,-103.79 183.34,-103.79"/>
</g>
<!-- FSUpdateProfileComponent  -->
<g id="node3" class="node">
<title>FSUpdateProfileComponent </title>
<polygon fill="#fb8072" stroke="black" points="332.42,-214.8 153.58,-214.8 153.58,-178.8 332.42,-178.8 332.42,-214.8"/>
<text text-anchor="middle" x="243" y="-192.6" font-family="Times,serif" font-size="14.00">FSUpdateProfileComponent </text>
</g>
<!-- UpdateProfileModule&#45;&gt;FSUpdateProfileComponent  -->
<g id="edge2" class="edge">
<title>UpdateProfileModule&#45;&gt;FSUpdateProfileComponent </title>
<path fill="none" stroke="black" stroke-dasharray="5,2" d="M243,-149.91C243,-149.91 243,-168.79 243,-168.79"/>
<polygon fill="black" stroke="black" points="239.5,-168.79 243,-178.79 246.5,-168.79 239.5,-168.79"/>
</g>
<!-- FSUpdateProfileComponentService -->
<g id="node4" class="node">
<title>FSUpdateProfileComponentService</title>
<ellipse fill="#fdb462" stroke="black" cx="374" cy="-66.8" rx="149.92" ry="18"/>
<text text-anchor="middle" x="374" y="-62.6" font-family="Times,serif" font-size="14.00">FSUpdateProfileComponentService</text>
</g>
<!-- FSUpdateProfileComponentService&#45;&gt;UpdateProfileModule -->
<g id="edge3" class="edge">
<title>FSUpdateProfileComponentService&#45;&gt;UpdateProfileModule</title>
<path fill="none" stroke="black" d="M268.04,-79.64C268.04,-79.64 268.04,-103.32 268.04,-103.32"/>
<polygon fill="black" stroke="black" points="264.54,-103.32 268.04,-113.32 271.54,-103.32 264.54,-103.32"/>
</g>
</g>
</svg>
