<?xml version="1.0" encoding="UTF-8" standalone="no"?>
<!DOCTYPE svg PUBLIC "-//W3C//DTD SVG 1.1//EN"
 "http://www.w3.org/Graphics/SVG/1.1/DTD/svg11.dtd">
<!-- Generated by graphviz version 2.47.3 (20210619.1520)
 -->
<!-- Title: dependencies Pages: 1 -->
<svg width="462pt" height="247pt"
 viewBox="0.00 0.00 462.00 246.80" xmlns="http://www.w3.org/2000/svg" xmlns:xlink="http://www.w3.org/1999/xlink">
<g id="graph0" class="graph" transform="scale(1 1) rotate(0) translate(4 242.8)">
<title>dependencies</title>
<polygon fill="white" stroke="transparent" points="-4,4 -4,-242.8 458,-242.8 458,4 -4,4"/>
<text text-anchor="middle" x="227" y="-8.2" font-family="sans-serif" font-size="14.00">dependencies</text>
<g id="clust1" class="cluster">
<title>cluster_UpdateProfileModule</title>
<polygon fill="none" stroke="black" stroke-dasharray="1,5" points="8,-32.8 8,-230.8 446,-230.8 446,-32.8 8,-32.8"/>
</g>
<g id="clust6" class="cluster">
<title>cluster_UpdateProfileModule_exports</title>
<polygon fill="none" stroke="black" points="16,-170.8 16,-222.8 438,-222.8 438,-170.8 16,-170.8"/>
</g>
<g id="clust2" class="cluster">
<title>cluster_UpdateProfileModule_declarations</title>
<polygon fill="none" stroke="black" points="19,-40.8 19,-92.8 435,-92.8 435,-40.8 19,-40.8"/>
</g>
<!-- FSUpdateProfileComponent -->
<g id="node1" class="node">
<title>FSUpdateProfileComponent</title>
<polygon fill="#ffffb3" stroke="black" points="426.92,-84.8 251.08,-84.8 251.08,-48.8 426.92,-48.8 426.92,-84.8"/>
<text text-anchor="middle" x="339" y="-62.6" font-family="Times,serif" font-size="14.00">FSUpdateProfileComponent</text>
</g>
<!-- UpdateProfileModule -->
<g id="node3" class="node">
<title>UpdateProfileModule</title>
<polygon fill="#8dd3c7" stroke="black" points="200.08,-149.8 197.08,-153.8 176.08,-153.8 173.08,-149.8 61.92,-149.8 61.92,-113.8 200.08,-113.8 200.08,-149.8"/>
<text text-anchor="middle" x="131" y="-127.6" font-family="Times,serif" font-size="14.00">UpdateProfileModule</text>
</g>
<!-- FSUpdateProfileComponent&#45;&gt;UpdateProfileModule -->
<g id="edge1" class="edge">
<title>FSUpdateProfileComponent&#45;&gt;UpdateProfileModule</title>
<path fill="none" stroke="black" d="M368.32,-84.82C368.32,-102.17 368.32,-125.8 368.32,-125.8 368.32,-125.8 210.28,-125.8 210.28,-125.8"/>
<polygon fill="black" stroke="black" points="210.28,-122.3 200.28,-125.8 210.28,-129.3 210.28,-122.3"/>
</g>
<!-- FSUpdateProfileFormComponent -->
<g id="node2" class="node">
<title>FSUpdateProfileFormComponent</title>
<polygon fill="#ffffb3" stroke="black" points="232.76,-84.8 27.24,-84.8 27.24,-48.8 232.76,-48.8 232.76,-84.8"/>
<text text-anchor="middle" x="130" y="-62.6" font-family="Times,serif" font-size="14.00">FSUpdateProfileFormComponent</text>
</g>
<!-- FSUpdateProfileFormComponent&#45;&gt;UpdateProfileModule -->
<g id="edge2" class="edge">
<title>FSUpdateProfileFormComponent&#45;&gt;UpdateProfileModule</title>
<path fill="none" stroke="black" d="M131,-84.91C131,-84.91 131,-103.79 131,-103.79"/>
<polygon fill="black" stroke="black" points="127.5,-103.79 131,-113.79 134.5,-103.79 127.5,-103.79"/>
</g>
<!-- FSUpdateProfileComponent  -->
<g id="node4" class="node">
<title>FSUpdateProfileComponent </title>
<polygon fill="#fb8072" stroke="black" points="430.42,-214.8 251.58,-214.8 251.58,-178.8 430.42,-178.8 430.42,-214.8"/>
<text text-anchor="middle" x="341" y="-192.6" font-family="Times,serif" font-size="14.00">FSUpdateProfileComponent </text>
</g>
<!-- UpdateProfileModule&#45;&gt;FSUpdateProfileComponent  -->
<g id="edge3" class="edge">
<title>UpdateProfileModule&#45;&gt;FSUpdateProfileComponent </title>
<path fill="none" stroke="black" stroke-dasharray="5,2" d="M200.18,-137.8C250.53,-137.8 309.93,-137.8 309.93,-137.8 309.93,-137.8 309.93,-168.78 309.93,-168.78"/>
<polygon fill="black" stroke="black" points="306.43,-168.78 309.93,-178.78 313.43,-168.78 306.43,-168.78"/>
</g>
<!-- FSUpdateProfileFormComponent  -->
<g id="node5" class="node">
<title>FSUpdateProfileFormComponent </title>
<polygon fill="#fb8072" stroke="black" points="233.76,-214.8 24.24,-214.8 24.24,-178.8 233.76,-178.8 233.76,-214.8"/>
<text text-anchor="middle" x="129" y="-192.6" font-family="Times,serif" font-size="14.00">FSUpdateProfileFormComponent </text>
</g>
<!-- UpdateProfileModule&#45;&gt;FSUpdateProfileFormComponent  -->
<g id="edge4" class="edge">
<title>UpdateProfileModule&#45;&gt;FSUpdateProfileFormComponent </title>
<path fill="none" stroke="black" stroke-dasharray="5,2" d="M131,-149.91C131,-149.91 131,-168.79 131,-168.79"/>
<polygon fill="black" stroke="black" points="127.5,-168.79 131,-178.79 134.5,-168.79 127.5,-168.79"/>
</g>
</g>
</svg>
