<?xml version="1.0" encoding="UTF-8" standalone="no"?>
<!DOCTYPE svg PUBLIC "-//W3C//DTD SVG 1.1//EN"
 "http://www.w3.org/Graphics/SVG/1.1/DTD/svg11.dtd">
<!-- Generated by graphviz version 2.46.0 (20210119.1425)
 -->
<!-- Title: dependencies Pages: 1 -->
<svg width="504pt" height="284pt"
 viewBox="0.00 0.00 504.00 284.00" xmlns="http://www.w3.org/2000/svg" xmlns:xlink="http://www.w3.org/1999/xlink">
<g id="graph0" class="graph" transform="scale(1 1) rotate(0) translate(4 280)">
<title>dependencies</title>
<polygon fill="white" stroke="transparent" points="-4,4 -4,-280 500,-280 500,4 -4,4"/>
<text text-anchor="start" x="227.01" y="-42.4" font-family="sans-serif" font-weight="bold" font-size="14.00">Legend</text>
<polygon fill="#ffffb3" stroke="transparent" points="14,-10 14,-30 34,-30 34,-10 14,-10"/>
<text text-anchor="start" x="37.63" y="-15.4" font-family="sans-serif" font-size="14.00"> &#160;Declarations</text>
<polygon fill="#8dd3c7" stroke="transparent" points="127,-10 127,-30 147,-30 147,-10 127,-10"/>
<text text-anchor="start" x="150.73" y="-15.4" font-family="sans-serif" font-size="14.00"> &#160;Module</text>
<polygon fill="#80b1d3" stroke="transparent" points="213,-10 213,-30 233,-30 233,-10 213,-10"/>
<text text-anchor="start" x="236.78" y="-15.4" font-family="sans-serif" font-size="14.00"> &#160;Bootstrap</text>
<polygon fill="#fdb462" stroke="transparent" points="310,-10 310,-30 330,-30 330,-10 310,-10"/>
<text text-anchor="start" x="333.67" y="-15.4" font-family="sans-serif" font-size="14.00"> &#160;Providers</text>
<polygon fill="#fb8072" stroke="transparent" points="406,-10 406,-30 426,-30 426,-10 406,-10"/>
<text text-anchor="start" x="429.73" y="-15.4" font-family="sans-serif" font-size="14.00"> &#160;Exports</text>
<g id="clust1" class="cluster">
<title>cluster_UpdateProfileModule</title>
<polygon fill="none" stroke="black" stroke-dasharray="1,5" points="32,-70 32,-268 464,-268 464,-70 32,-70"/>
</g>
<g id="clust6" class="cluster">
<title>cluster_UpdateProfileModule_exports</title>
<polygon fill="none" stroke="black" points="158,-208 158,-260 352,-260 352,-208 158,-208"/>
</g>
<g id="clust2" class="cluster">
<title>cluster_UpdateProfileModule_declarations</title>
<polygon fill="none" stroke="black" points="40,-78 40,-130 456,-130 456,-78 40,-78"/>
</g>
<!-- FSUpdateProfileComponent -->
<g id="node1" class="node">
<title>FSUpdateProfileComponent</title>
<polygon fill="#ffffb3" stroke="black" points="447.92,-122 272.08,-122 272.08,-86 447.92,-86 447.92,-122"/>
<text text-anchor="middle" x="360" y="-99.8" font-family="Times,serif" font-size="14.00">FSUpdateProfileComponent</text>
</g>
<!-- UpdateProfileModule -->
<g id="node3" class="node">
<title>UpdateProfileModule</title>
<polygon fill="#8dd3c7" stroke="black" points="324.08,-187 321.08,-191 300.08,-191 297.08,-187 185.92,-187 185.92,-151 324.08,-151 324.08,-187"/>
<text text-anchor="middle" x="255" y="-164.8" font-family="Times,serif" font-size="14.00">UpdateProfileModule</text>
</g>
<!-- FSUpdateProfileComponent&#45;&gt;UpdateProfileModule -->
<g id="edge1" class="edge">
<title>FSUpdateProfileComponent&#45;&gt;UpdateProfileModule</title>
<path fill="none" stroke="black" d="M298.16,-122.11C298.16,-122.11 298.16,-140.99 298.16,-140.99"/>
<polygon fill="black" stroke="black" points="294.66,-140.99 298.16,-150.99 301.66,-140.99 294.66,-140.99"/>
</g>
<!-- FSUpdateProfileFormComponent -->
<g id="node2" class="node">
<title>FSUpdateProfileFormComponent</title>
<polygon fill="#ffffb3" stroke="black" points="253.76,-122 48.24,-122 48.24,-86 253.76,-86 253.76,-122"/>
<text text-anchor="middle" x="151" y="-99.8" font-family="Times,serif" font-size="14.00">FSUpdateProfileFormComponent</text>
</g>
<!-- FSUpdateProfileFormComponent&#45;&gt;UpdateProfileModule -->
<g id="edge2" class="edge">
<title>FSUpdateProfileFormComponent&#45;&gt;UpdateProfileModule</title>
<path fill="none" stroke="black" d="M219.92,-122.11C219.92,-122.11 219.92,-140.99 219.92,-140.99"/>
<polygon fill="black" stroke="black" points="216.42,-140.99 219.92,-150.99 223.42,-140.99 216.42,-140.99"/>
</g>
<!-- FSUpdateProfileComponent  -->
<g id="node4" class="node">
<title>FSUpdateProfileComponent </title>
<polygon fill="#fb8072" stroke="black" points="344.42,-252 165.58,-252 165.58,-216 344.42,-216 344.42,-252"/>
<text text-anchor="middle" x="255" y="-229.8" font-family="Times,serif" font-size="14.00">FSUpdateProfileComponent </text>
</g>
<!-- UpdateProfileModule&#45;&gt;FSUpdateProfileComponent  -->
<g id="edge3" class="edge">
<title>UpdateProfileModule&#45;&gt;FSUpdateProfileComponent </title>
<path fill="none" stroke="black" stroke-dasharray="5,2" d="M255,-187.11C255,-187.11 255,-205.99 255,-205.99"/>
<polygon fill="black" stroke="black" points="251.5,-205.99 255,-215.99 258.5,-205.99 251.5,-205.99"/>
</g>
</g>
</svg>
