<?xml version="1.0" encoding="UTF-8" standalone="no"?>
<!DOCTYPE svg PUBLIC "-//W3C//DTD SVG 1.1//EN"
 "http://www.w3.org/Graphics/SVG/1.1/DTD/svg11.dtd">
<!-- Generated by graphviz version 2.47.3 (20210619.1520)
 -->
<!-- Title: dependencies Pages: 1 -->
<svg width="1005pt" height="247pt"
 viewBox="0.00 0.00 1005.00 246.80" xmlns="http://www.w3.org/2000/svg" xmlns:xlink="http://www.w3.org/1999/xlink">
<g id="graph0" class="graph" transform="scale(1 1) rotate(0) translate(4 242.8)">
<title>dependencies</title>
<polygon fill="white" stroke="transparent" points="-4,4 -4,-242.8 1001,-242.8 1001,4 -4,4"/>
<text text-anchor="middle" x="498.5" y="-8.2" font-family="sans-serif" font-size="14.00">dependencies</text>
<g id="clust1" class="cluster">
<title>cluster_InboxModule</title>
<polygon fill="none" stroke="black" stroke-dasharray="1,5" points="8,-32.8 8,-230.8 989,-230.8 989,-32.8 8,-32.8"/>
</g>
<g id="clust2" class="cluster">
<title>cluster_InboxModule_declarations</title>
<polygon fill="none" stroke="black" points="511,-40.8 511,-92.8 981,-92.8 981,-40.8 511,-40.8"/>
</g>
<g id="clust7" class="cluster">
<title>cluster_InboxModule_exports</title>
<polygon fill="none" stroke="black" points="252,-170.8 252,-222.8 734,-222.8 734,-170.8 252,-170.8"/>
</g>
<g id="clust9" class="cluster">
<title>cluster_InboxModule_providers</title>
<polygon fill="none" stroke="black" points="16,-40.8 16,-92.8 503,-92.8 503,-40.8 16,-40.8"/>
</g>
<!-- InboxComponent -->
<g id="node1" class="node">
<title>InboxComponent</title>
<polygon fill="#ffffb3" stroke="black" points="972.99,-84.8 859.01,-84.8 859.01,-48.8 972.99,-48.8 972.99,-84.8"/>
<text text-anchor="middle" x="916" y="-62.6" font-family="Times,serif" font-size="14.00">InboxComponent</text>
</g>
<!-- InboxModule -->
<g id="node4" class="node">
<title>InboxModule</title>
<polygon fill="#8dd3c7" stroke="black" points="550.21,-149.8 547.21,-153.8 526.21,-153.8 523.21,-149.8 457.79,-149.8 457.79,-113.8 550.21,-113.8 550.21,-149.8"/>
<text text-anchor="middle" x="504" y="-127.6" font-family="Times,serif" font-size="14.00">InboxModule</text>
</g>
<!-- InboxComponent&#45;&gt;InboxModule -->
<g id="edge1" class="edge">
<title>InboxComponent&#45;&gt;InboxModule</title>
<path fill="none" stroke="black" d="M916,-84.91C916,-104.14 916,-131.8 916,-131.8 916,-131.8 560.46,-131.8 560.46,-131.8"/>
<polygon fill="black" stroke="black" points="560.46,-128.3 550.46,-131.8 560.46,-135.3 560.46,-128.3"/>
</g>
<!-- InboxMessagesComponent -->
<g id="node2" class="node">
<title>InboxMessagesComponent</title>
<polygon fill="#ffffb3" stroke="black" points="841.42,-84.8 672.58,-84.8 672.58,-48.8 841.42,-48.8 841.42,-84.8"/>
<text text-anchor="middle" x="757" y="-62.6" font-family="Times,serif" font-size="14.00">InboxMessagesComponent</text>
</g>
<!-- InboxMessagesComponent&#45;&gt;InboxModule -->
<g id="edge2" class="edge">
<title>InboxMessagesComponent&#45;&gt;InboxModule</title>
<path fill="none" stroke="black" d="M699.27,-84.83C699.27,-101.2 699.27,-122.8 699.27,-122.8 699.27,-122.8 560.28,-122.8 560.28,-122.8"/>
<polygon fill="black" stroke="black" points="560.28,-119.3 550.28,-122.8 560.28,-126.3 560.28,-119.3"/>
</g>
<!-- InboxTabComponent -->
<g id="node3" class="node">
<title>InboxTabComponent</title>
<polygon fill="#ffffb3" stroke="black" points="654.76,-84.8 519.24,-84.8 519.24,-48.8 654.76,-48.8 654.76,-84.8"/>
<text text-anchor="middle" x="587" y="-62.6" font-family="Times,serif" font-size="14.00">InboxTabComponent</text>
</g>
<!-- InboxTabComponent&#45;&gt;InboxModule -->
<g id="edge3" class="edge">
<title>InboxTabComponent&#45;&gt;InboxModule</title>
<path fill="none" stroke="black" d="M534.61,-84.91C534.61,-84.91 534.61,-103.79 534.61,-103.79"/>
<polygon fill="black" stroke="black" points="531.11,-103.79 534.61,-113.79 538.11,-103.79 531.11,-103.79"/>
</g>
<!-- InboxComponent  -->
<g id="node5" class="node">
<title>InboxComponent </title>
<polygon fill="#fb8072" stroke="black" points="725.99,-214.8 608.01,-214.8 608.01,-178.8 725.99,-178.8 725.99,-214.8"/>
<text text-anchor="middle" x="667" y="-192.6" font-family="Times,serif" font-size="14.00">InboxComponent </text>
</g>
<!-- InboxModule&#45;&gt;InboxComponent  -->
<g id="edge4" class="edge">
<title>InboxModule&#45;&gt;InboxComponent </title>
<path fill="none" stroke="black" stroke-dasharray="5,2" d="M550.42,-140.8C586.89,-140.8 631.57,-140.8 631.57,-140.8 631.57,-140.8 631.57,-168.77 631.57,-168.77"/>
<polygon fill="black" stroke="black" points="628.07,-168.77 631.57,-178.77 635.07,-168.77 628.07,-168.77"/>
</g>
<!-- InboxMessagesComponent  -->
<g id="node6" class="node">
<title>InboxMessagesComponent </title>
<polygon fill="#fb8072" stroke="black" points="589.92,-214.8 418.08,-214.8 418.08,-178.8 589.92,-178.8 589.92,-214.8"/>
<text text-anchor="middle" x="504" y="-192.6" font-family="Times,serif" font-size="14.00">InboxMessagesComponent </text>
</g>
<!-- InboxModule&#45;&gt;InboxMessagesComponent  -->
<g id="edge5" class="edge">
<title>InboxModule&#45;&gt;InboxMessagesComponent </title>
<path fill="none" stroke="black" stroke-dasharray="5,2" d="M504,-149.91C504,-149.91 504,-168.79 504,-168.79"/>
<polygon fill="black" stroke="black" points="500.5,-168.79 504,-178.79 507.5,-168.79 500.5,-168.79"/>
</g>
<!-- InboxTabComponent  -->
<g id="node7" class="node">
<title>InboxTabComponent </title>
<polygon fill="#fb8072" stroke="black" points="399.76,-214.8 260.24,-214.8 260.24,-178.8 399.76,-178.8 399.76,-214.8"/>
<text text-anchor="middle" x="330" y="-192.6" font-family="Times,serif" font-size="14.00">InboxTabComponent </text>
</g>
<!-- InboxModule&#45;&gt;InboxTabComponent  -->
<g id="edge6" class="edge">
<title>InboxModule&#45;&gt;InboxTabComponent </title>
<path fill="none" stroke="black" stroke-dasharray="5,2" d="M457.59,-140.8C420.06,-140.8 373.42,-140.8 373.42,-140.8 373.42,-140.8 373.42,-168.77 373.42,-168.77"/>
<polygon fill="black" stroke="black" points="369.92,-168.77 373.42,-178.77 376.92,-168.77 369.92,-168.77"/>
</g>
<!-- InboxConnector -->
<g id="node8" class="node">
<title>InboxConnector</title>
<ellipse fill="#fdb462" stroke="black" cx="421" cy="-66.8" rx="73.58" ry="18"/>
<text text-anchor="middle" x="421" y="-62.6" font-family="Times,serif" font-size="14.00">InboxConnector</text>
</g>
<!-- InboxConnector&#45;&gt;InboxModule -->
<g id="edge7" class="edge">
<title>InboxConnector&#45;&gt;InboxModule</title>
<path fill="none" stroke="black" d="M476.34,-78.72C476.34,-78.72 476.34,-103.57 476.34,-103.57"/>
<polygon fill="black" stroke="black" points="472.84,-103.57 476.34,-113.57 479.84,-103.57 472.84,-103.57"/>
</g>
<!-- InboxDataService -->
<g id="node9" class="node">
<title>InboxDataService</title>
<ellipse fill="#fdb462" stroke="black" cx="248" cy="-66.8" rx="81" ry="18"/>
<text text-anchor="middle" x="248" y="-62.6" font-family="Times,serif" font-size="14.00">InboxDataService</text>
</g>
<!-- InboxDataService&#45;&gt;InboxModule -->
<g id="edge8" class="edge">
<title>InboxDataService&#45;&gt;InboxModule</title>
<path fill="none" stroke="black" d="M294.56,-81.51C294.56,-98.11 294.56,-122.8 294.56,-122.8 294.56,-122.8 447.78,-122.8 447.78,-122.8"/>
<polygon fill="black" stroke="black" points="447.78,-126.3 457.78,-122.8 447.78,-119.3 447.78,-126.3"/>
</g>
<!-- InboxService -->
<g id="node10" class="node">
<title>InboxService</title>
<ellipse fill="#fdb462" stroke="black" cx="87" cy="-66.8" rx="62.54" ry="18"/>
<text text-anchor="middle" x="87" y="-62.6" font-family="Times,serif" font-size="14.00">InboxService</text>
</g>
<!-- InboxService&#45;&gt;InboxModule -->
<g id="edge9" class="edge">
<title>InboxService&#45;&gt;InboxModule</title>
<path fill="none" stroke="black" d="M87,-84.91C87,-104.14 87,-131.8 87,-131.8 87,-131.8 447.78,-131.8 447.78,-131.8"/>
<polygon fill="black" stroke="black" points="447.78,-135.3 457.78,-131.8 447.78,-128.3 447.78,-135.3"/>
</g>
</g>
</svg>
