<?xml version="1.0" encoding="UTF-8" standalone="no"?>
<!DOCTYPE svg PUBLIC "-//W3C//DTD SVG 1.1//EN"
 "http://www.w3.org/Graphics/SVG/1.1/DTD/svg11.dtd">
<!-- Generated by graphviz version 2.47.3 (20210619.1520)
 -->
<!-- Title: dependencies Pages: 1 -->
<svg width="1005pt" height="247pt"
 viewBox="0.00 0.00 1005.00 246.80" xmlns="http://www.w3.org/2000/svg" xmlns:xlink="http://www.w3.org/1999/xlink">
<g id="graph0" class="graph" transform="scale(1 1) rotate(0) translate(4 242.8)">
<title>dependencies</title>
<polygon fill="white" stroke="transparent" points="-4,4 -4,-242.8 1001,-242.8 1001,4 -4,4"/>
<text text-anchor="middle" x="498.5" y="-8.2" font-family="sans-serif" font-size="14.00">dependencies</text>
<g id="clust1" class="cluster">
<title>cluster_InboxModule</title>
<polygon fill="none" stroke="black" stroke-dasharray="1,5" points="8,-32.8 8,-230.8 989,-230.8 989,-32.8 8,-32.8"/>
</g>
<g id="clust9" class="cluster">
<title>cluster_InboxModule_providers</title>
<polygon fill="none" stroke="black" points="494,-40.8 494,-92.8 981,-92.8 981,-40.8 494,-40.8"/>
</g>
<g id="clust7" class="cluster">
<title>cluster_InboxModule_exports</title>
<polygon fill="none" stroke="black" points="241,-170.8 241,-222.8 723,-222.8 723,-170.8 241,-170.8"/>
</g>
<g id="clust2" class="cluster">
<title>cluster_InboxModule_declarations</title>
<polygon fill="none" stroke="black" points="16,-40.8 16,-92.8 486,-92.8 486,-40.8 16,-40.8"/>
</g>
<!-- InboxComponent -->
<g id="node1" class="node">
<title>InboxComponent</title>
<polygon fill="#ffffb3" stroke="black" points="477.99,-84.8 364.01,-84.8 364.01,-48.8 477.99,-48.8 477.99,-84.8"/>
<text text-anchor="middle" x="421" y="-62.6" font-family="Times,serif" font-size="14.00">InboxComponent</text>
</g>
<!-- InboxModule -->
<g id="node4" class="node">
<title>InboxModule</title>
<polygon fill="#8dd3c7" stroke="black" points="539.21,-149.8 536.21,-153.8 515.21,-153.8 512.21,-149.8 446.79,-149.8 446.79,-113.8 539.21,-113.8 539.21,-149.8"/>
<text text-anchor="middle" x="493" y="-127.6" font-family="Times,serif" font-size="14.00">InboxModule</text>
</g>
<!-- InboxComponent&#45;&gt;InboxModule -->
<g id="edge1" class="edge">
<title>InboxComponent&#45;&gt;InboxModule</title>
<path fill="none" stroke="black" d="M462.45,-84.91C462.45,-84.91 462.45,-103.79 462.45,-103.79"/>
<polygon fill="black" stroke="black" points="458.95,-103.79 462.45,-113.79 465.95,-103.79 458.95,-103.79"/>
</g>
<!-- InboxMessagesComponent -->
<g id="node2" class="node">
<title>InboxMessagesComponent</title>
<polygon fill="#ffffb3" stroke="black" points="346.42,-84.8 177.58,-84.8 177.58,-48.8 346.42,-48.8 346.42,-84.8"/>
<text text-anchor="middle" x="262" y="-62.6" font-family="Times,serif" font-size="14.00">InboxMessagesComponent</text>
</g>
<!-- InboxMessagesComponent&#45;&gt;InboxModule -->
<g id="edge2" class="edge">
<title>InboxMessagesComponent&#45;&gt;InboxModule</title>
<path fill="none" stroke="black" d="M297.79,-84.83C297.79,-101.2 297.79,-122.8 297.79,-122.8 297.79,-122.8 436.74,-122.8 436.74,-122.8"/>
<polygon fill="black" stroke="black" points="436.74,-126.3 446.74,-122.8 436.74,-119.3 436.74,-126.3"/>
</g>
<!-- InboxTabComponent -->
<g id="node3" class="node">
<title>InboxTabComponent</title>
<polygon fill="#ffffb3" stroke="black" points="159.76,-84.8 24.24,-84.8 24.24,-48.8 159.76,-48.8 159.76,-84.8"/>
<text text-anchor="middle" x="92" y="-62.6" font-family="Times,serif" font-size="14.00">InboxTabComponent</text>
</g>
<!-- InboxTabComponent&#45;&gt;InboxModule -->
<g id="edge3" class="edge">
<title>InboxTabComponent&#45;&gt;InboxModule</title>
<path fill="none" stroke="black" d="M92,-84.91C92,-104.14 92,-131.8 92,-131.8 92,-131.8 436.61,-131.8 436.61,-131.8"/>
<polygon fill="black" stroke="black" points="436.61,-135.3 446.61,-131.8 436.61,-128.3 436.61,-135.3"/>
</g>
<!-- InboxComponent  -->
<g id="node5" class="node">
<title>InboxComponent </title>
<polygon fill="#fb8072" stroke="black" points="714.99,-214.8 597.01,-214.8 597.01,-178.8 714.99,-178.8 714.99,-214.8"/>
<text text-anchor="middle" x="656" y="-192.6" font-family="Times,serif" font-size="14.00">InboxComponent </text>
</g>
<!-- InboxModule&#45;&gt;InboxComponent  -->
<g id="edge4" class="edge">
<title>InboxModule&#45;&gt;InboxComponent </title>
<path fill="none" stroke="black" stroke-dasharray="5,2" d="M539.16,-140.8C572.75,-140.8 612.39,-140.8 612.39,-140.8 612.39,-140.8 612.39,-168.77 612.39,-168.77"/>
<polygon fill="black" stroke="black" points="608.89,-168.77 612.39,-178.77 615.89,-168.77 608.89,-168.77"/>
</g>
<!-- InboxMessagesComponent  -->
<g id="node6" class="node">
<title>InboxMessagesComponent </title>
<polygon fill="#fb8072" stroke="black" points="578.92,-214.8 407.08,-214.8 407.08,-178.8 578.92,-178.8 578.92,-214.8"/>
<text text-anchor="middle" x="493" y="-192.6" font-family="Times,serif" font-size="14.00">InboxMessagesComponent </text>
</g>
<!-- InboxModule&#45;&gt;InboxMessagesComponent  -->
<g id="edge5" class="edge">
<title>InboxModule&#45;&gt;InboxMessagesComponent </title>
<path fill="none" stroke="black" stroke-dasharray="5,2" d="M493,-149.91C493,-149.91 493,-168.79 493,-168.79"/>
<polygon fill="black" stroke="black" points="489.5,-168.79 493,-178.79 496.5,-168.79 489.5,-168.79"/>
</g>
<!-- InboxTabComponent  -->
<g id="node7" class="node">
<title>InboxTabComponent </title>
<polygon fill="#fb8072" stroke="black" points="388.76,-214.8 249.24,-214.8 249.24,-178.8 388.76,-178.8 388.76,-214.8"/>
<text text-anchor="middle" x="319" y="-192.6" font-family="Times,serif" font-size="14.00">InboxTabComponent </text>
</g>
<!-- InboxModule&#45;&gt;InboxTabComponent  -->
<g id="edge6" class="edge">
<title>InboxModule&#45;&gt;InboxTabComponent </title>
<path fill="none" stroke="black" stroke-dasharray="5,2" d="M446.88,-140.8C414.27,-140.8 376.32,-140.8 376.32,-140.8 376.32,-140.8 376.32,-168.77 376.32,-168.77"/>
<polygon fill="black" stroke="black" points="372.82,-168.77 376.32,-178.77 379.82,-168.77 372.82,-168.77"/>
</g>
<!-- InboxConnector -->
<g id="node8" class="node">
<title>InboxConnector</title>
<ellipse fill="#fdb462" stroke="black" cx="899" cy="-66.8" rx="73.58" ry="18"/>
<text text-anchor="middle" x="899" y="-62.6" font-family="Times,serif" font-size="14.00">InboxConnector</text>
</g>
<!-- InboxConnector&#45;&gt;InboxModule -->
<g id="edge7" class="edge">
<title>InboxConnector&#45;&gt;InboxModule</title>
<path fill="none" stroke="black" d="M899,-84.91C899,-104.14 899,-131.8 899,-131.8 899,-131.8 549.18,-131.8 549.18,-131.8"/>
<polygon fill="black" stroke="black" points="549.18,-128.3 539.18,-131.8 549.18,-135.3 549.18,-128.3"/>
</g>
<!-- InboxDataService -->
<g id="node9" class="node">
<title>InboxDataService</title>
<ellipse fill="#fdb462" stroke="black" cx="726" cy="-66.8" rx="81" ry="18"/>
<text text-anchor="middle" x="726" y="-62.6" font-family="Times,serif" font-size="14.00">InboxDataService</text>
</g>
<!-- InboxDataService&#45;&gt;InboxModule -->
<g id="edge8" class="edge">
<title>InboxDataService&#45;&gt;InboxModule</title>
<path fill="none" stroke="black" d="M680,-81.81C680,-98.39 680,-122.8 680,-122.8 680,-122.8 549.22,-122.8 549.22,-122.8"/>
<polygon fill="black" stroke="black" points="549.22,-119.3 539.22,-122.8 549.22,-126.3 549.22,-119.3"/>
</g>
<!-- InboxService -->
<g id="node10" class="node">
<title>InboxService</title>
<ellipse fill="#fdb462" stroke="black" cx="565" cy="-66.8" rx="62.54" ry="18"/>
<text text-anchor="middle" x="565" y="-62.6" font-family="Times,serif" font-size="14.00">InboxService</text>
</g>
<!-- InboxService&#45;&gt;InboxModule -->
<g id="edge9" class="edge">
<title>InboxService&#45;&gt;InboxModule</title>
<path fill="none" stroke="black" d="M520.79,-79.64C520.79,-79.64 520.79,-103.32 520.79,-103.32"/>
<polygon fill="black" stroke="black" points="517.29,-103.32 520.79,-113.32 524.29,-103.32 517.29,-103.32"/>
</g>
</g>
</svg>
