<?xml version="1.0" encoding="UTF-8" standalone="no"?>
<!DOCTYPE svg PUBLIC "-//W3C//DTD SVG 1.1//EN"
 "http://www.w3.org/Graphics/SVG/1.1/DTD/svg11.dtd">
<!-- Generated by graphviz version 2.44.1 (20200629.0846)
 -->
<!-- Title: dependencies Pages: 1 -->
<svg width="1005pt" height="284pt"
 viewBox="0.00 0.00 1005.00 284.00" xmlns="http://www.w3.org/2000/svg" xmlns:xlink="http://www.w3.org/1999/xlink">
<g id="graph0" class="graph" transform="scale(1 1) rotate(0) translate(4 280)">
<title>dependencies</title>
<polygon fill="white" stroke="transparent" points="-4,4 -4,-280 1001,-280 1001,4 -4,4"/>
<text text-anchor="start" x="477.51" y="-42.4" font-family="sans-serif" font-weight="bold" font-size="14.00">Legend</text>
<polygon fill="#ffffb3" stroke="transparent" points="264.5,-10 264.5,-30 284.5,-30 284.5,-10 264.5,-10"/>
<text text-anchor="start" x="288.13" y="-15.4" font-family="sans-serif" font-size="14.00"> &#160;Declarations</text>
<polygon fill="#8dd3c7" stroke="transparent" points="377.5,-10 377.5,-30 397.5,-30 397.5,-10 377.5,-10"/>
<text text-anchor="start" x="401.23" y="-15.4" font-family="sans-serif" font-size="14.00"> &#160;Module</text>
<polygon fill="#80b1d3" stroke="transparent" points="463.5,-10 463.5,-30 483.5,-30 483.5,-10 463.5,-10"/>
<text text-anchor="start" x="487.28" y="-15.4" font-family="sans-serif" font-size="14.00"> &#160;Bootstrap</text>
<polygon fill="#fdb462" stroke="transparent" points="560.5,-10 560.5,-30 580.5,-30 580.5,-10 560.5,-10"/>
<text text-anchor="start" x="584.17" y="-15.4" font-family="sans-serif" font-size="14.00"> &#160;Providers</text>
<polygon fill="#fb8072" stroke="transparent" points="656.5,-10 656.5,-30 676.5,-30 676.5,-10 656.5,-10"/>
<text text-anchor="start" x="680.23" y="-15.4" font-family="sans-serif" font-size="14.00"> &#160;Exports</text>
<g id="clust1" class="cluster">
<title>cluster_InboxModule</title>
<polygon fill="none" stroke="black" stroke-dasharray="1,5" points="8,-70 8,-268 989,-268 989,-70 8,-70"/>
</g>
<g id="clust2" class="cluster">
<title>cluster_InboxModule_declarations</title>
<polygon fill="none" stroke="black" points="511,-78 511,-130 981,-130 981,-78 511,-78"/>
</g>
<g id="clust9" class="cluster">
<title>cluster_InboxModule_providers</title>
<polygon fill="none" stroke="black" points="16,-78 16,-130 503,-130 503,-78 16,-78"/>
</g>
<g id="clust7" class="cluster">
<title>cluster_InboxModule_exports</title>
<polygon fill="none" stroke="black" points="252,-208 252,-260 734,-260 734,-208 252,-208"/>
</g>
<!-- InboxComponent -->
<g id="node1" class="node">
<title>InboxComponent</title>
<polygon fill="#ffffb3" stroke="black" points="972.99,-122 859.01,-122 859.01,-86 972.99,-86 972.99,-122"/>
<text text-anchor="middle" x="916" y="-99.8" font-family="Times,serif" font-size="14.00">InboxComponent</text>
</g>
<!-- InboxModule -->
<g id="node4" class="node">
<title>InboxModule</title>
<polygon fill="#8dd3c7" stroke="black" points="550.21,-187 547.21,-191 526.21,-191 523.21,-187 457.79,-187 457.79,-151 550.21,-151 550.21,-187"/>
<text text-anchor="middle" x="504" y="-164.8" font-family="Times,serif" font-size="14.00">InboxModule</text>
</g>
<!-- InboxComponent&#45;&gt;InboxModule -->
<g id="edge1" class="edge">
<title>InboxComponent&#45;&gt;InboxModule</title>
<path fill="none" stroke="black" d="M916,-122.11C916,-141.34 916,-169 916,-169 916,-169 560.46,-169 560.46,-169"/>
<polygon fill="black" stroke="black" points="560.46,-165.5 550.46,-169 560.46,-172.5 560.46,-165.5"/>
</g>
<!-- InboxMessagesComponent -->
<g id="node2" class="node">
<title>InboxMessagesComponent</title>
<polygon fill="#ffffb3" stroke="black" points="841.42,-122 672.58,-122 672.58,-86 841.42,-86 841.42,-122"/>
<text text-anchor="middle" x="757" y="-99.8" font-family="Times,serif" font-size="14.00">InboxMessagesComponent</text>
</g>
<!-- InboxMessagesComponent&#45;&gt;InboxModule -->
<g id="edge2" class="edge">
<title>InboxMessagesComponent&#45;&gt;InboxModule</title>
<path fill="none" stroke="black" d="M699.27,-122.03C699.27,-138.4 699.27,-160 699.27,-160 699.27,-160 560.28,-160 560.28,-160"/>
<polygon fill="black" stroke="black" points="560.28,-156.5 550.28,-160 560.28,-163.5 560.28,-156.5"/>
</g>
<!-- InboxTabComponent -->
<g id="node3" class="node">
<title>InboxTabComponent</title>
<polygon fill="#ffffb3" stroke="black" points="654.76,-122 519.24,-122 519.24,-86 654.76,-86 654.76,-122"/>
<text text-anchor="middle" x="587" y="-99.8" font-family="Times,serif" font-size="14.00">InboxTabComponent</text>
</g>
<!-- InboxTabComponent&#45;&gt;InboxModule -->
<g id="edge3" class="edge">
<title>InboxTabComponent&#45;&gt;InboxModule</title>
<path fill="none" stroke="black" d="M534.61,-122.11C534.61,-122.11 534.61,-140.99 534.61,-140.99"/>
<polygon fill="black" stroke="black" points="531.11,-140.99 534.61,-150.99 538.11,-140.99 531.11,-140.99"/>
</g>
<!-- InboxComponent  -->
<g id="node5" class="node">
<title>InboxComponent </title>
<polygon fill="#fb8072" stroke="black" points="725.99,-252 608.01,-252 608.01,-216 725.99,-216 725.99,-252"/>
<text text-anchor="middle" x="667" y="-229.8" font-family="Times,serif" font-size="14.00">InboxComponent </text>
</g>
<!-- InboxModule&#45;&gt;InboxComponent  -->
<g id="edge4" class="edge">
<title>InboxModule&#45;&gt;InboxComponent </title>
<path fill="none" stroke="black" stroke-dasharray="5,2" d="M550.42,-178C586.89,-178 631.57,-178 631.57,-178 631.57,-178 631.57,-205.97 631.57,-205.97"/>
<polygon fill="black" stroke="black" points="628.07,-205.97 631.57,-215.97 635.07,-205.97 628.07,-205.97"/>
</g>
<!-- InboxMessagesComponent  -->
<g id="node6" class="node">
<title>InboxMessagesComponent </title>
<polygon fill="#fb8072" stroke="black" points="589.92,-252 418.08,-252 418.08,-216 589.92,-216 589.92,-252"/>
<text text-anchor="middle" x="504" y="-229.8" font-family="Times,serif" font-size="14.00">InboxMessagesComponent </text>
</g>
<!-- InboxModule&#45;&gt;InboxMessagesComponent  -->
<g id="edge5" class="edge">
<title>InboxModule&#45;&gt;InboxMessagesComponent </title>
<path fill="none" stroke="black" stroke-dasharray="5,2" d="M504,-187.11C504,-187.11 504,-205.99 504,-205.99"/>
<polygon fill="black" stroke="black" points="500.5,-205.99 504,-215.99 507.5,-205.99 500.5,-205.99"/>
</g>
<!-- InboxTabComponent  -->
<g id="node7" class="node">
<title>InboxTabComponent </title>
<polygon fill="#fb8072" stroke="black" points="399.76,-252 260.24,-252 260.24,-216 399.76,-216 399.76,-252"/>
<text text-anchor="middle" x="330" y="-229.8" font-family="Times,serif" font-size="14.00">InboxTabComponent </text>
</g>
<!-- InboxModule&#45;&gt;InboxTabComponent  -->
<g id="edge6" class="edge">
<title>InboxModule&#45;&gt;InboxTabComponent </title>
<path fill="none" stroke="black" stroke-dasharray="5,2" d="M457.59,-178C420.06,-178 373.42,-178 373.42,-178 373.42,-178 373.42,-205.97 373.42,-205.97"/>
<polygon fill="black" stroke="black" points="369.92,-205.97 373.42,-215.97 376.92,-205.97 369.92,-205.97"/>
</g>
<!-- InboxConnector -->
<g id="node8" class="node">
<title>InboxConnector</title>
<ellipse fill="#fdb462" stroke="black" cx="421" cy="-104" rx="73.58" ry="18"/>
<text text-anchor="middle" x="421" y="-99.8" font-family="Times,serif" font-size="14.00">InboxConnector</text>
</g>
<!-- InboxConnector&#45;&gt;InboxModule -->
<g id="edge7" class="edge">
<title>InboxConnector&#45;&gt;InboxModule</title>
<path fill="none" stroke="black" d="M476.34,-115.92C476.34,-115.92 476.34,-140.77 476.34,-140.77"/>
<polygon fill="black" stroke="black" points="472.84,-140.77 476.34,-150.77 479.84,-140.77 472.84,-140.77"/>
</g>
<!-- InboxDataService -->
<g id="node9" class="node">
<title>InboxDataService</title>
<ellipse fill="#fdb462" stroke="black" cx="248" cy="-104" rx="81" ry="18"/>
<text text-anchor="middle" x="248" y="-99.8" font-family="Times,serif" font-size="14.00">InboxDataService</text>
</g>
<!-- InboxDataService&#45;&gt;InboxModule -->
<g id="edge8" class="edge">
<title>InboxDataService&#45;&gt;InboxModule</title>
<path fill="none" stroke="black" d="M294.56,-118.71C294.56,-135.31 294.56,-160 294.56,-160 294.56,-160 447.78,-160 447.78,-160"/>
<polygon fill="black" stroke="black" points="447.78,-163.5 457.78,-160 447.78,-156.5 447.78,-163.5"/>
</g>
<!-- InboxService -->
<g id="node10" class="node">
<title>InboxService</title>
<ellipse fill="#fdb462" stroke="black" cx="87" cy="-104" rx="62.54" ry="18"/>
<text text-anchor="middle" x="87" y="-99.8" font-family="Times,serif" font-size="14.00">InboxService</text>
</g>
<!-- InboxService&#45;&gt;InboxModule -->
<g id="edge9" class="edge">
<title>InboxService&#45;&gt;InboxModule</title>
<path fill="none" stroke="black" d="M87,-122.11C87,-141.34 87,-169 87,-169 87,-169 447.78,-169 447.78,-169"/>
<polygon fill="black" stroke="black" points="447.78,-172.5 457.78,-169 447.78,-165.5 447.78,-172.5"/>
</g>
</g>
</svg>
