<?xml version="1.0" encoding="UTF-8" standalone="no"?>
<!DOCTYPE svg PUBLIC "-//W3C//DTD SVG 1.1//EN"
 "http://www.w3.org/Graphics/SVG/1.1/DTD/svg11.dtd">
<!-- Generated by graphviz version 2.47.3 (20210619.1520)
 -->
<!-- Title: dependencies Pages: 1 -->
<svg width="640pt" height="358pt"
 viewBox="0.00 0.00 640.00 358.39" xmlns="http://www.w3.org/2000/svg" xmlns:xlink="http://www.w3.org/1999/xlink">
<g id="graph0" class="graph" transform="scale(1 1) rotate(0) translate(4 354.39)">
<title>dependencies</title>
<polygon fill="white" stroke="transparent" points="-4,4 -4,-354.39 636,-354.39 636,4 -4,4"/>
<text text-anchor="middle" x="316" y="-8.2" font-family="sans-serif" font-size="14.00">dependencies</text>
<g id="clust1" class="cluster">
<title>cluster_PotentialAssignmentsModule</title>
<polygon fill="none" stroke="black" stroke-dasharray="1,5" points="8,-32.8 8,-342.39 624,-342.39 624,-32.8 8,-32.8"/>
</g>
<g id="clust2" class="cluster">
<title>cluster_PotentialAssignmentsModule_declarations</title>
<polygon fill="none" stroke="black" points="191,-152.39 191,-204.39 616,-204.39 616,-152.39 191,-152.39"/>
</g>
<g id="clust6" class="cluster">
<title>cluster_PotentialAssignmentsModule_exports</title>
<polygon fill="none" stroke="black" points="101,-282.39 101,-334.39 532,-334.39 532,-282.39 101,-282.39"/>
</g>
<g id="clust4" class="cluster">
<title>cluster_PotentialAssignmentsModule_PotentialAssignmentsComponent_providers</title>
<polygon fill="none" stroke="black" points="16,-40.8 16,-139.39 616,-139.39 616,-40.8 16,-40.8"/>
</g>
<!-- AssignProductCellComponent -->
<g id="node1" class="node">
<title>AssignProductCellComponent</title>
<polygon fill="#ffffb3" stroke="black" points="607.6,-196.39 420.4,-196.39 420.4,-160.39 607.6,-160.39 607.6,-196.39"/>
<text text-anchor="middle" x="514" y="-174.19" font-family="Times,serif" font-size="14.00">AssignProductCellComponent</text>
</g>
<!-- PotentialAssignmentsModule -->
<g id="node3" class="node">
<title>PotentialAssignmentsModule</title>
<polygon fill="#8dd3c7" stroke="black" points="455.65,-261.39 452.65,-265.39 431.65,-265.39 428.65,-261.39 274.35,-261.39 274.35,-225.39 455.65,-225.39 455.65,-261.39"/>
<text text-anchor="middle" x="365" y="-239.19" font-family="Times,serif" font-size="14.00">PotentialAssignmentsModule</text>
</g>
<!-- AssignProductCellComponent&#45;&gt;PotentialAssignmentsModule -->
<g id="edge1" class="edge">
<title>AssignProductCellComponent&#45;&gt;PotentialAssignmentsModule</title>
<path fill="none" stroke="black" d="M438.14,-196.5C438.14,-196.5 438.14,-215.38 438.14,-215.38"/>
<polygon fill="black" stroke="black" points="434.64,-215.38 438.14,-225.38 441.64,-215.38 434.64,-215.38"/>
</g>
<!-- PotentialAssignmentsComponent -->
<g id="node2" class="node">
<title>PotentialAssignmentsComponent</title>
<polygon fill="#ffffb3" stroke="black" points="402.93,-196.39 199.07,-196.39 199.07,-160.39 402.93,-160.39 402.93,-196.39"/>
<text text-anchor="middle" x="301" y="-174.19" font-family="Times,serif" font-size="14.00">PotentialAssignmentsComponent</text>
</g>
<!-- PotentialAssignmentsComponent&#45;&gt;PotentialAssignmentsModule -->
<g id="edge2" class="edge">
<title>PotentialAssignmentsComponent&#45;&gt;PotentialAssignmentsModule</title>
<path fill="none" stroke="black" d="M338.45,-196.5C338.45,-196.5 338.45,-215.38 338.45,-215.38"/>
<polygon fill="black" stroke="black" points="334.95,-215.38 338.45,-225.38 341.95,-215.38 334.95,-215.38"/>
</g>
<!-- AssignProductCellComponent  -->
<g id="node5" class="node">
<title>AssignProductCellComponent </title>
<polygon fill="#fb8072" stroke="black" points="524.1,-326.39 333.9,-326.39 333.9,-290.39 524.1,-290.39 524.1,-326.39"/>
<text text-anchor="middle" x="429" y="-304.19" font-family="Times,serif" font-size="14.00">AssignProductCellComponent </text>
</g>
<!-- PotentialAssignmentsModule&#45;&gt;AssignProductCellComponent  -->
<g id="edge4" class="edge">
<title>PotentialAssignmentsModule&#45;&gt;AssignProductCellComponent </title>
<path fill="none" stroke="black" stroke-dasharray="5,2" d="M394.76,-261.5C394.76,-261.5 394.76,-280.38 394.76,-280.38"/>
<polygon fill="black" stroke="black" points="391.26,-280.38 394.76,-290.38 398.26,-280.38 391.26,-280.38"/>
</g>
<!-- PotentialAssignmentsComponent  -->
<g id="node6" class="node">
<title>PotentialAssignmentsComponent </title>
<polygon fill="#fb8072" stroke="black" points="315.43,-326.39 108.57,-326.39 108.57,-290.39 315.43,-290.39 315.43,-326.39"/>
<text text-anchor="middle" x="212" y="-304.19" font-family="Times,serif" font-size="14.00">PotentialAssignmentsComponent </text>
</g>
<!-- PotentialAssignmentsModule&#45;&gt;PotentialAssignmentsComponent  -->
<g id="edge5" class="edge">
<title>PotentialAssignmentsModule&#45;&gt;PotentialAssignmentsComponent </title>
<path fill="none" stroke="black" stroke-dasharray="5,2" d="M294.82,-261.5C294.82,-261.5 294.82,-280.38 294.82,-280.38"/>
<polygon fill="black" stroke="black" points="291.32,-280.38 294.82,-290.38 298.32,-280.38 291.32,-280.38"/>
</g>
<!-- {
 &#160;&#160;&#160;provide: ListService, useExisting: PotentialAssignmentsListService,
} -->
<g id="node4" class="node">
<title>{
 &#160;&#160;&#160;provide: ListService, useExisting: PotentialAssignmentsListService,
}</title>
<ellipse fill="#fdb462" stroke="black" cx="316" cy="-90.1" rx="292.05" ry="41.09"/>
<text text-anchor="middle" x="316" y="-102.7" font-family="Times,serif" font-size="14.00">{</text>
<text text-anchor="middle" x="316" y="-85.9" font-family="Times,serif" font-size="14.00"> &#160;&#160;&#160;provide: ListService, useExisting: PotentialAssignmentsListService,</text>
<text text-anchor="middle" x="316" y="-69.1" font-family="Times,serif" font-size="14.00">}</text>
</g>
<!-- {
 &#160;&#160;&#160;provide: ListService, useExisting: PotentialAssignmentsListService,
}&#45;&gt;PotentialAssignmentsComponent -->
<g id="edge3" class="edge">
<title>{
 &#160;&#160;&#160;provide: ListService, useExisting: PotentialAssignmentsListService,
}&#45;&gt;PotentialAssignmentsComponent</title>
<path fill="none" stroke="black" d="M301,-131.4C301,-131.4 301,-150.06 301,-150.06"/>
<polygon fill="black" stroke="black" points="297.5,-150.06 301,-160.06 304.5,-150.06 297.5,-150.06"/>
</g>
</g>
</svg>
