<?xml version="1.0" encoding="UTF-8" standalone="no"?>
<!DOCTYPE svg PUBLIC "-//W3C//DTD SVG 1.1//EN"
 "http://www.w3.org/Graphics/SVG/1.1/DTD/svg11.dtd">
<!-- Generated by graphviz version 2.47.3 (20210619.1520)
 -->
<!-- Title: dependencies Pages: 1 -->
<svg width="852pt" height="358pt"
 viewBox="0.00 0.00 852.00 358.39" xmlns="http://www.w3.org/2000/svg" xmlns:xlink="http://www.w3.org/1999/xlink">
<g id="graph0" class="graph" transform="scale(1 1) rotate(0) translate(4 354.39)">
<title>dependencies</title>
<polygon fill="white" stroke="transparent" points="-4,4 -4,-354.39 848,-354.39 848,4 -4,4"/>
<text text-anchor="middle" x="422" y="-8.2" font-family="sans-serif" font-size="14.00">dependencies</text>
<g id="clust1" class="cluster">
<title>cluster_PotentialAssignmentsModule</title>
<polygon fill="none" stroke="black" stroke-dasharray="1,5" points="8,-32.8 8,-342.39 836,-342.39 836,-32.8 8,-32.8"/>
</g>
<g id="clust6" class="cluster">
<title>cluster_PotentialAssignmentsModule_exports</title>
<polygon fill="none" stroke="black" points="121,-282.39 121,-334.39 552,-334.39 552,-282.39 121,-282.39"/>
</g>
<g id="clust4" class="cluster">
<title>cluster_PotentialAssignmentsModule_PotentialAssignmentsComponent_providers</title>
<polygon fill="none" stroke="black" points="228,-40.8 228,-204.39 828,-204.39 828,-40.8 228,-40.8"/>
</g>
<g id="clust2" class="cluster">
<title>cluster_PotentialAssignmentsModule_declarations</title>
<polygon fill="none" stroke="black" points="16,-152.39 16,-204.39 220,-204.39 220,-152.39 16,-152.39"/>
</g>
<!-- AssignProductCellComponent -->
<g id="node1" class="node">
<title>AssignProductCellComponent</title>
<polygon fill="#ffffb3" stroke="black" points="211.6,-196.39 24.4,-196.39 24.4,-160.39 211.6,-160.39 211.6,-196.39"/>
<text text-anchor="middle" x="118" y="-174.19" font-family="Times,serif" font-size="14.00">AssignProductCellComponent</text>
</g>
<!-- PotentialAssignmentsModule -->
<g id="node3" class="node">
<title>PotentialAssignmentsModule</title>
<polygon fill="#8dd3c7" stroke="black" points="422.65,-261.39 419.65,-265.39 398.65,-265.39 395.65,-261.39 241.35,-261.39 241.35,-225.39 422.65,-225.39 422.65,-261.39"/>
<text text-anchor="middle" x="332" y="-239.19" font-family="Times,serif" font-size="14.00">PotentialAssignmentsModule</text>
</g>
<!-- AssignProductCellComponent&#45;&gt;PotentialAssignmentsModule -->
<g id="edge1" class="edge">
<title>AssignProductCellComponent&#45;&gt;PotentialAssignmentsModule</title>
<path fill="none" stroke="black" d="M170.04,-196.5C170.04,-215.73 170.04,-243.39 170.04,-243.39 170.04,-243.39 231.08,-243.39 231.08,-243.39"/>
<polygon fill="black" stroke="black" points="231.08,-246.89 241.08,-243.39 231.08,-239.89 231.08,-246.89"/>
</g>
<!-- PotentialAssignmentsComponent -->
<g id="node2" class="node">
<title>PotentialAssignmentsComponent</title>
<polygon fill="#ffffb3" stroke="black" points="534.93,-196.39 331.07,-196.39 331.07,-160.39 534.93,-160.39 534.93,-196.39"/>
<text text-anchor="middle" x="433" y="-174.19" font-family="Times,serif" font-size="14.00">PotentialAssignmentsComponent</text>
</g>
<!-- PotentialAssignmentsComponent&#45;&gt;PotentialAssignmentsModule -->
<g id="edge2" class="edge">
<title>PotentialAssignmentsComponent&#45;&gt;PotentialAssignmentsModule</title>
<path fill="none" stroke="black" d="M377.05,-196.5C377.05,-196.5 377.05,-215.38 377.05,-215.38"/>
<polygon fill="black" stroke="black" points="373.55,-215.38 377.05,-225.38 380.55,-215.38 373.55,-215.38"/>
</g>
<!-- AssignProductCellComponent  -->
<g id="node5" class="node">
<title>AssignProductCellComponent </title>
<polygon fill="#fb8072" stroke="black" points="544.1,-326.39 353.9,-326.39 353.9,-290.39 544.1,-290.39 544.1,-326.39"/>
<text text-anchor="middle" x="449" y="-304.19" font-family="Times,serif" font-size="14.00">AssignProductCellComponent </text>
</g>
<!-- PotentialAssignmentsModule&#45;&gt;AssignProductCellComponent  -->
<g id="edge4" class="edge">
<title>PotentialAssignmentsModule&#45;&gt;AssignProductCellComponent </title>
<path fill="none" stroke="black" stroke-dasharray="5,2" d="M388.26,-261.5C388.26,-261.5 388.26,-280.38 388.26,-280.38"/>
<polygon fill="black" stroke="black" points="384.76,-280.38 388.26,-290.38 391.76,-280.38 384.76,-280.38"/>
</g>
<!-- PotentialAssignmentsComponent  -->
<g id="node6" class="node">
<title>PotentialAssignmentsComponent </title>
<polygon fill="#fb8072" stroke="black" points="335.43,-326.39 128.57,-326.39 128.57,-290.39 335.43,-290.39 335.43,-326.39"/>
<text text-anchor="middle" x="232" y="-304.19" font-family="Times,serif" font-size="14.00">PotentialAssignmentsComponent </text>
</g>
<!-- PotentialAssignmentsModule&#45;&gt;PotentialAssignmentsComponent  -->
<g id="edge5" class="edge">
<title>PotentialAssignmentsModule&#45;&gt;PotentialAssignmentsComponent </title>
<path fill="none" stroke="black" stroke-dasharray="5,2" d="M288.32,-261.5C288.32,-261.5 288.32,-280.38 288.32,-280.38"/>
<polygon fill="black" stroke="black" points="284.82,-280.38 288.32,-290.38 291.82,-280.38 284.82,-280.38"/>
</g>
<!-- {
 &#160;&#160;&#160;provide: ListService, useExisting: PotentialAssignmentsListService,
} -->
<g id="node4" class="node">
<title>{
 &#160;&#160;&#160;provide: ListService, useExisting: PotentialAssignmentsListService,
}</title>
<ellipse fill="#fdb462" stroke="black" cx="528" cy="-90.1" rx="292.05" ry="41.09"/>
<text text-anchor="middle" x="528" y="-102.7" font-family="Times,serif" font-size="14.00">{</text>
<text text-anchor="middle" x="528" y="-85.9" font-family="Times,serif" font-size="14.00"> &#160;&#160;&#160;provide: ListService, useExisting: PotentialAssignmentsListService,</text>
<text text-anchor="middle" x="528" y="-69.1" font-family="Times,serif" font-size="14.00">}</text>
</g>
<!-- {
 &#160;&#160;&#160;provide: ListService, useExisting: PotentialAssignmentsListService,
}&#45;&gt;PotentialAssignmentsComponent -->
<g id="edge3" class="edge">
<title>{
 &#160;&#160;&#160;provide: ListService, useExisting: PotentialAssignmentsListService,
}&#45;&gt;PotentialAssignmentsComponent</title>
<path fill="none" stroke="black" d="M433,-129.34C433,-129.34 433,-150.01 433,-150.01"/>
<polygon fill="black" stroke="black" points="429.5,-150.01 433,-160.01 436.5,-150.01 429.5,-150.01"/>
</g>
</g>
</svg>
