<?xml version="1.0" encoding="UTF-8" standalone="no"?>
<!DOCTYPE svg PUBLIC "-//W3C//DTD SVG 1.1//EN"
 "http://www.w3.org/Graphics/SVG/1.1/DTD/svg11.dtd">
<!-- Generated by graphviz version 2.47.3 (20210619.1520)
 -->
<!-- Title: dependencies Pages: 1 -->
<svg width="266pt" height="247pt"
 viewBox="0.00 0.00 266.00 246.80" xmlns="http://www.w3.org/2000/svg" xmlns:xlink="http://www.w3.org/1999/xlink">
<g id="graph0" class="graph" transform="scale(1 1) rotate(0) translate(4 242.8)">
<title>dependencies</title>
<polygon fill="white" stroke="transparent" points="-4,4 -4,-242.8 262,-242.8 262,4 -4,4"/>
<text text-anchor="middle" x="129" y="-8.2" font-family="sans-serif" font-size="14.00">dependencies</text>
<g id="clust1" class="cluster">
<title>cluster_CustomContainerModule</title>
<polygon fill="none" stroke="black" stroke-dasharray="1,5" points="8,-32.8 8,-230.8 250,-230.8 250,-32.8 8,-32.8"/>
</g>
<g id="clust2" class="cluster">
<title>cluster_CustomContainerModule_declarations</title>
<polygon fill="none" stroke="black" points="18,-40.8 18,-92.8 240,-92.8 240,-40.8 18,-40.8"/>
</g>
<g id="clust5" class="cluster">
<title>cluster_CustomContainerModule_exports</title>
<polygon fill="none" stroke="black" points="16,-170.8 16,-222.8 242,-222.8 242,-170.8 16,-170.8"/>
</g>
<!-- CmsCustomContainerComponent -->
<g id="node1" class="node">
<title>CmsCustomContainerComponent</title>
<polygon fill="#ffffb3" stroke="black" points="231.77,-84.8 26.23,-84.8 26.23,-48.8 231.77,-48.8 231.77,-84.8"/>
<text text-anchor="middle" x="129" y="-62.6" font-family="Times,serif" font-size="14.00">CmsCustomContainerComponent</text>
</g>
<!-- CustomContainerModule -->
<g id="node2" class="node">
<title>CustomContainerModule</title>
<polygon fill="#8dd3c7" stroke="black" points="208.32,-149.8 205.32,-153.8 184.32,-153.8 181.32,-149.8 49.68,-149.8 49.68,-113.8 208.32,-113.8 208.32,-149.8"/>
<text text-anchor="middle" x="129" y="-127.6" font-family="Times,serif" font-size="14.00">CustomContainerModule</text>
</g>
<!-- CmsCustomContainerComponent&#45;&gt;CustomContainerModule -->
<g id="edge1" class="edge">
<title>CmsCustomContainerComponent&#45;&gt;CustomContainerModule</title>
<path fill="none" stroke="black" d="M129,-84.91C129,-84.91 129,-103.79 129,-103.79"/>
<polygon fill="black" stroke="black" points="125.5,-103.79 129,-113.79 132.5,-103.79 125.5,-103.79"/>
</g>
<!-- CmsCustomContainerComponent  -->
<g id="node3" class="node">
<title>CmsCustomContainerComponent </title>
<polygon fill="#fb8072" stroke="black" points="233.77,-214.8 24.23,-214.8 24.23,-178.8 233.77,-178.8 233.77,-214.8"/>
<text text-anchor="middle" x="129" y="-192.6" font-family="Times,serif" font-size="14.00">CmsCustomContainerComponent </text>
</g>
<!-- CustomContainerModule&#45;&gt;CmsCustomContainerComponent  -->
<g id="edge2" class="edge">
<title>CustomContainerModule&#45;&gt;CmsCustomContainerComponent </title>
<path fill="none" stroke="black" stroke-dasharray="5,2" d="M129,-149.91C129,-149.91 129,-168.79 129,-168.79"/>
<polygon fill="black" stroke="black" points="125.5,-168.79 129,-178.79 132.5,-168.79 125.5,-168.79"/>
</g>
</g>
</svg>
