<?xml version="1.0" encoding="UTF-8" standalone="no"?>
<!DOCTYPE svg PUBLIC "-//W3C//DTD SVG 1.1//EN"
 "http://www.w3.org/Graphics/SVG/1.1/DTD/svg11.dtd">
<!-- Generated by graphviz version 2.44.1 (20200629.0846)
 -->
<!-- Title: dependencies Pages: 1 -->
<svg width="504pt" height="284pt"
 viewBox="0.00 0.00 504.00 284.00" xmlns="http://www.w3.org/2000/svg" xmlns:xlink="http://www.w3.org/1999/xlink">
<g id="graph0" class="graph" transform="scale(1 1) rotate(0) translate(4 280)">
<title>dependencies</title>
<polygon fill="white" stroke="transparent" points="-4,4 -4,-280 500,-280 500,4 -4,4"/>
<text text-anchor="start" x="227.01" y="-42.4" font-family="sans-serif" font-weight="bold" font-size="14.00">Legend</text>
<polygon fill="#ffffb3" stroke="transparent" points="14,-10 14,-30 34,-30 34,-10 14,-10"/>
<text text-anchor="start" x="37.63" y="-15.4" font-family="sans-serif" font-size="14.00"> &#160;Declarations</text>
<polygon fill="#8dd3c7" stroke="transparent" points="127,-10 127,-30 147,-30 147,-10 127,-10"/>
<text text-anchor="start" x="150.73" y="-15.4" font-family="sans-serif" font-size="14.00"> &#160;Module</text>
<polygon fill="#80b1d3" stroke="transparent" points="213,-10 213,-30 233,-30 233,-10 213,-10"/>
<text text-anchor="start" x="236.78" y="-15.4" font-family="sans-serif" font-size="14.00"> &#160;Bootstrap</text>
<polygon fill="#fdb462" stroke="transparent" points="310,-10 310,-30 330,-30 330,-10 310,-10"/>
<text text-anchor="start" x="333.67" y="-15.4" font-family="sans-serif" font-size="14.00"> &#160;Providers</text>
<polygon fill="#fb8072" stroke="transparent" points="406,-10 406,-30 426,-30 426,-10 406,-10"/>
<text text-anchor="start" x="429.73" y="-15.4" font-family="sans-serif" font-size="14.00"> &#160;Exports</text>
<g id="clust1" class="cluster">
<title>cluster_GeneralInformationModule</title>
<polygon fill="none" stroke="black" stroke-dasharray="1,5" points="53,-70 53,-268 443,-268 443,-70 53,-70"/>
</g>
<g id="clust5" class="cluster">
<title>cluster_GeneralInformationModule_exports</title>
<polygon fill="none" stroke="black" points="142,-208 142,-260 354,-260 354,-208 142,-208"/>
</g>
<g id="clust4" class="cluster">
<title>cluster_GeneralInformationModule_imports</title>
<polygon fill="none" stroke="black" points="277,-78 277,-130 435,-130 435,-78 277,-78"/>
</g>
<g id="clust2" class="cluster">
<title>cluster_GeneralInformationModule_declarations</title>
<polygon fill="none" stroke="black" points="61,-78 61,-130 269,-130 269,-78 61,-78"/>
</g>
<!-- GeneralInformationComponent -->
<g id="node1" class="node">
<title>GeneralInformationComponent</title>
<polygon fill="#ffffb3" stroke="black" points="261,-122 69,-122 69,-86 261,-86 261,-122"/>
<text text-anchor="middle" x="165" y="-99.8" font-family="Times,serif" font-size="14.00">GeneralInformationComponent</text>
</g>
<!-- GeneralInformationModule -->
<g id="node2" class="node">
<title>GeneralInformationModule</title>
<polygon fill="#8dd3c7" stroke="black" points="333.22,-187 330.22,-191 309.22,-191 306.22,-187 162.78,-187 162.78,-151 333.22,-151 333.22,-187"/>
<text text-anchor="middle" x="248" y="-164.8" font-family="Times,serif" font-size="14.00">GeneralInformationModule</text>
</g>
<!-- GeneralInformationComponent&#45;&gt;GeneralInformationModule -->
<g id="edge1" class="edge">
<title>GeneralInformationComponent&#45;&gt;GeneralInformationModule</title>
<path fill="none" stroke="black" d="M211.95,-122.11C211.95,-122.11 211.95,-140.99 211.95,-140.99"/>
<polygon fill="black" stroke="black" points="208.45,-140.99 211.95,-150.99 215.45,-140.99 208.45,-140.99"/>
</g>
<!-- GeneralInformationComponent  -->
<g id="node4" class="node">
<title>GeneralInformationComponent </title>
<polygon fill="#fb8072" stroke="black" points="346,-252 150,-252 150,-216 346,-216 346,-252"/>
<text text-anchor="middle" x="248" y="-229.8" font-family="Times,serif" font-size="14.00">GeneralInformationComponent </text>
</g>
<!-- GeneralInformationModule&#45;&gt;GeneralInformationComponent  -->
<g id="edge3" class="edge">
<title>GeneralInformationModule&#45;&gt;GeneralInformationComponent </title>
<path fill="none" stroke="black" stroke-dasharray="5,2" d="M248,-187.11C248,-187.11 248,-205.99 248,-205.99"/>
<polygon fill="black" stroke="black" points="244.5,-205.99 248,-215.99 251.5,-205.99 244.5,-205.99"/>
</g>
<!-- DynamicFormModule -->
<g id="node3" class="node">
<title>DynamicFormModule</title>
<polygon fill="#8dd3c7" stroke="black" points="426.7,-122 423.7,-126 402.7,-126 399.7,-122 285.3,-122 285.3,-86 426.7,-86 426.7,-122"/>
<text text-anchor="middle" x="356" y="-99.8" font-family="Times,serif" font-size="14.00">DynamicFormModule</text>
</g>
<!-- DynamicFormModule&#45;&gt;GeneralInformationModule -->
<g id="edge2" class="edge">
<title>DynamicFormModule&#45;&gt;GeneralInformationModule</title>
<path fill="none" stroke="black" d="M309.38,-122.11C309.38,-122.11 309.38,-140.99 309.38,-140.99"/>
<polygon fill="black" stroke="black" points="305.88,-140.99 309.38,-150.99 312.88,-140.99 305.88,-140.99"/>
</g>
</g>
</svg>
