<?xml version="1.0" encoding="UTF-8" standalone="no"?>
<!DOCTYPE svg PUBLIC "-//W3C//DTD SVG 1.1//EN"
 "http://www.w3.org/Graphics/SVG/1.1/DTD/svg11.dtd">
<!-- Generated by graphviz version 2.47.3 (20210619.1520)
 -->
<!-- Title: dependencies Pages: 1 -->
<svg width="414pt" height="247pt"
 viewBox="0.00 0.00 414.00 246.80" xmlns="http://www.w3.org/2000/svg" xmlns:xlink="http://www.w3.org/1999/xlink">
<g id="graph0" class="graph" transform="scale(1 1) rotate(0) translate(4 242.8)">
<title>dependencies</title>
<polygon fill="white" stroke="transparent" points="-4,4 -4,-242.8 410,-242.8 410,4 -4,4"/>
<text text-anchor="middle" x="203" y="-8.2" font-family="sans-serif" font-size="14.00">dependencies</text>
<g id="clust1" class="cluster">
<title>cluster_GeneralInformationModule</title>
<polygon fill="none" stroke="black" stroke-dasharray="1,5" points="8,-32.8 8,-230.8 398,-230.8 398,-32.8 8,-32.8"/>
</g>
<g id="clust5" class="cluster">
<title>cluster_GeneralInformationModule_exports</title>
<polygon fill="none" stroke="black" points="97,-170.8 97,-222.8 309,-222.8 309,-170.8 97,-170.8"/>
</g>
<g id="clust2" class="cluster">
<title>cluster_GeneralInformationModule_declarations</title>
<polygon fill="none" stroke="black" points="182,-40.8 182,-92.8 390,-92.8 390,-40.8 182,-40.8"/>
</g>
<g id="clust4" class="cluster">
<title>cluster_GeneralInformationModule_imports</title>
<polygon fill="none" stroke="black" points="16,-40.8 16,-92.8 174,-92.8 174,-40.8 16,-40.8"/>
</g>
<!-- GeneralInformationComponent -->
<g id="node1" class="node">
<title>GeneralInformationComponent</title>
<polygon fill="#ffffb3" stroke="black" points="382,-84.8 190,-84.8 190,-48.8 382,-48.8 382,-84.8"/>
<text text-anchor="middle" x="286" y="-62.6" font-family="Times,serif" font-size="14.00">GeneralInformationComponent</text>
</g>
<!-- GeneralInformationModule -->
<g id="node2" class="node">
<title>GeneralInformationModule</title>
<polygon fill="#8dd3c7" stroke="black" points="288.22,-149.8 285.22,-153.8 264.22,-153.8 261.22,-149.8 117.78,-149.8 117.78,-113.8 288.22,-113.8 288.22,-149.8"/>
<text text-anchor="middle" x="203" y="-127.6" font-family="Times,serif" font-size="14.00">GeneralInformationModule</text>
</g>
<!-- GeneralInformationComponent&#45;&gt;GeneralInformationModule -->
<g id="edge1" class="edge">
<title>GeneralInformationComponent&#45;&gt;GeneralInformationModule</title>
<path fill="none" stroke="black" d="M239.05,-84.91C239.05,-84.91 239.05,-103.79 239.05,-103.79"/>
<polygon fill="black" stroke="black" points="235.55,-103.79 239.05,-113.79 242.55,-103.79 235.55,-103.79"/>
</g>
<!-- GeneralInformationComponent  -->
<g id="node4" class="node">
<title>GeneralInformationComponent </title>
<polygon fill="#fb8072" stroke="black" points="301,-214.8 105,-214.8 105,-178.8 301,-178.8 301,-214.8"/>
<text text-anchor="middle" x="203" y="-192.6" font-family="Times,serif" font-size="14.00">GeneralInformationComponent </text>
</g>
<!-- GeneralInformationModule&#45;&gt;GeneralInformationComponent  -->
<g id="edge3" class="edge">
<title>GeneralInformationModule&#45;&gt;GeneralInformationComponent </title>
<path fill="none" stroke="black" stroke-dasharray="5,2" d="M203,-149.91C203,-149.91 203,-168.79 203,-168.79"/>
<polygon fill="black" stroke="black" points="199.5,-168.79 203,-178.79 206.5,-168.79 199.5,-168.79"/>
</g>
<!-- DynamicFormModule -->
<g id="node3" class="node">
<title>DynamicFormModule</title>
<polygon fill="#8dd3c7" stroke="black" points="165.7,-84.8 162.7,-88.8 141.7,-88.8 138.7,-84.8 24.3,-84.8 24.3,-48.8 165.7,-48.8 165.7,-84.8"/>
<text text-anchor="middle" x="95" y="-62.6" font-family="Times,serif" font-size="14.00">DynamicFormModule</text>
</g>
<!-- DynamicFormModule&#45;&gt;GeneralInformationModule -->
<g id="edge2" class="edge">
<title>DynamicFormModule&#45;&gt;GeneralInformationModule</title>
<path fill="none" stroke="black" d="M141.62,-84.91C141.62,-84.91 141.62,-103.79 141.62,-103.79"/>
<polygon fill="black" stroke="black" points="138.12,-103.79 141.62,-113.79 145.12,-103.79 138.12,-103.79"/>
</g>
</g>
</svg>
