<?xml version="1.0" encoding="UTF-8" standalone="no"?>
<!DOCTYPE svg PUBLIC "-//W3C//DTD SVG 1.1//EN"
 "http://www.w3.org/Graphics/SVG/1.1/DTD/svg11.dtd">
<!-- Generated by graphviz version 2.47.3 (20210619.1520)
 -->
<!-- Title: dependencies Pages: 1 -->
<svg width="3407pt" height="174pt"
 viewBox="0.00 0.00 3407.00 173.80" xmlns="http://www.w3.org/2000/svg" xmlns:xlink="http://www.w3.org/1999/xlink">
<g id="graph0" class="graph" transform="scale(1 1) rotate(0) translate(4 169.8)">
<title>dependencies</title>
<polygon fill="white" stroke="transparent" points="-4,4 -4,-169.8 3403,-169.8 3403,4 -4,4"/>
<text text-anchor="middle" x="1699.5" y="-8.2" font-family="sans-serif" font-size="14.00">dependencies</text>
<g id="clust1" class="cluster">
<title>cluster_FSFeaturesModule</title>
<polygon fill="none" stroke="black" stroke-dasharray="1,5" points="8,-32.8 8,-157.8 3391,-157.8 3391,-32.8 8,-32.8"/>
</g>
<g id="clust3" class="cluster">
<title>cluster_FSFeaturesModule_imports</title>
<polygon fill="none" stroke="black" points="16,-40.8 16,-92.8 3383,-92.8 3383,-40.8 16,-40.8"/>
</g>
<!-- AdministrationFeatureModule -->
<g id="node1" class="node">
<title>AdministrationFeatureModule</title>
<polygon fill="#8dd3c7" stroke="black" points="3375.3,-84.8 3372.3,-88.8 3351.3,-88.8 3348.3,-84.8 3188.7,-84.8 3188.7,-48.8 3375.3,-48.8 3375.3,-84.8"/>
<text text-anchor="middle" x="3282" y="-62.6" font-family="Times,serif" font-size="14.00">AdministrationFeatureModule</text>
</g>
<!-- FSFeaturesModule -->
<g id="node21" class="node">
<title>FSFeaturesModule</title>
<polygon fill="#8dd3c7" stroke="black" points="1742.04,-149.8 1739.04,-153.8 1718.04,-153.8 1715.04,-149.8 1619.96,-149.8 1619.96,-113.8 1742.04,-113.8 1742.04,-149.8"/>
<text text-anchor="middle" x="1681" y="-127.6" font-family="Times,serif" font-size="14.00">FSFeaturesModule</text>
</g>
<!-- AdministrationFeatureModule&#45;&gt;FSFeaturesModule -->
<g id="edge1" class="edge">
<title>AdministrationFeatureModule&#45;&gt;FSFeaturesModule</title>
<path fill="none" stroke="black" d="M3282,-84.95C3282,-108.56 3282,-146.8 3282,-146.8 3282,-146.8 1752.29,-146.8 1752.29,-146.8"/>
<polygon fill="black" stroke="black" points="1752.29,-143.3 1742.29,-146.8 1752.29,-150.3 1752.29,-143.3"/>
</g>
<!-- AsmFeatureModule -->
<g id="node2" class="node">
<title>AsmFeatureModule</title>
<polygon fill="#8dd3c7" stroke="black" points="3170.97,-84.8 3167.97,-88.8 3146.97,-88.8 3143.97,-84.8 3043.03,-84.8 3043.03,-48.8 3170.97,-48.8 3170.97,-84.8"/>
<text text-anchor="middle" x="3107" y="-62.6" font-family="Times,serif" font-size="14.00">AsmFeatureModule</text>
</g>
<!-- AsmFeatureModule&#45;&gt;FSFeaturesModule -->
<g id="edge2" class="edge">
<title>AsmFeatureModule&#45;&gt;FSFeaturesModule</title>
<path fill="none" stroke="black" d="M3107,-84.81C3107,-107.29 3107,-142.8 3107,-142.8 3107,-142.8 1752.27,-142.8 1752.27,-142.8"/>
<polygon fill="black" stroke="black" points="1752.27,-139.3 1742.27,-142.8 1752.27,-146.3 1752.27,-139.3"/>
</g>
<!-- BannerModule -->
<g id="node3" class="node">
<title>BannerModule</title>
<polygon fill="#8dd3c7" stroke="black" points="3024.98,-84.8 3021.98,-88.8 3000.98,-88.8 2997.98,-84.8 2925.02,-84.8 2925.02,-48.8 3024.98,-48.8 3024.98,-84.8"/>
<text text-anchor="middle" x="2975" y="-62.6" font-family="Times,serif" font-size="14.00">BannerModule</text>
</g>
<!-- BannerModule&#45;&gt;FSFeaturesModule -->
<g id="edge3" class="edge">
<title>BannerModule&#45;&gt;FSFeaturesModule</title>
<path fill="none" stroke="black" d="M2975,-84.84C2975,-106.46 2975,-139.8 2975,-139.8 2975,-139.8 1752.11,-139.8 1752.11,-139.8"/>
<polygon fill="black" stroke="black" points="1752.11,-136.3 1742.11,-139.8 1752.11,-143.3 1752.11,-136.3"/>
</g>
<!-- BulkPricingFeatureModule -->
<g id="node4" class="node">
<title>BulkPricingFeatureModule</title>
<polygon fill="#8dd3c7" stroke="black" points="2906.69,-84.8 2903.69,-88.8 2882.69,-88.8 2879.69,-84.8 2737.31,-84.8 2737.31,-48.8 2906.69,-48.8 2906.69,-84.8"/>
<text text-anchor="middle" x="2822" y="-62.6" font-family="Times,serif" font-size="14.00">BulkPricingFeatureModule</text>
</g>
<!-- BulkPricingFeatureModule&#45;&gt;FSFeaturesModule -->
<g id="edge4" class="edge">
<title>BulkPricingFeatureModule&#45;&gt;FSFeaturesModule</title>
<path fill="none" stroke="black" d="M2822,-84.93C2822,-105.37 2822,-135.8 2822,-135.8 2822,-135.8 1752.35,-135.8 1752.35,-135.8"/>
<polygon fill="black" stroke="black" points="1752.35,-132.3 1742.35,-135.8 1752.35,-139.3 1752.35,-132.3"/>
</g>
<!-- CheckoutFeatureModule -->
<g id="node5" class="node">
<title>CheckoutFeatureModule</title>
<polygon fill="#8dd3c7" stroke="black" points="2719.68,-84.8 2716.68,-88.8 2695.68,-88.8 2692.68,-84.8 2564.32,-84.8 2564.32,-48.8 2719.68,-48.8 2719.68,-84.8"/>
<text text-anchor="middle" x="2642" y="-62.6" font-family="Times,serif" font-size="14.00">CheckoutFeatureModule</text>
</g>
<!-- CheckoutFeatureModule&#45;&gt;FSFeaturesModule -->
<g id="edge5" class="edge">
<title>CheckoutFeatureModule&#45;&gt;FSFeaturesModule</title>
<path fill="none" stroke="black" d="M2642,-84.91C2642,-104.14 2642,-131.8 2642,-131.8 2642,-131.8 1752.21,-131.8 1752.21,-131.8"/>
<polygon fill="black" stroke="black" points="1752.21,-128.3 1742.21,-131.8 1752.21,-135.3 1752.21,-128.3"/>
</g>
<!-- CheckoutModule -->
<g id="node6" class="node">
<title>CheckoutModule</title>
<polygon fill="#8dd3c7" stroke="black" points="2546.71,-84.8 2543.71,-88.8 2522.71,-88.8 2519.71,-84.8 2433.29,-84.8 2433.29,-48.8 2546.71,-48.8 2546.71,-84.8"/>
<text text-anchor="middle" x="2490" y="-62.6" font-family="Times,serif" font-size="14.00">CheckoutModule</text>
</g>
<!-- CheckoutModule&#45;&gt;FSFeaturesModule -->
<g id="edge6" class="edge">
<title>CheckoutModule&#45;&gt;FSFeaturesModule</title>
<path fill="none" stroke="black" d="M2490,-85.07C2490,-103.36 2490,-128.8 2490,-128.8 2490,-128.8 1752.14,-128.8 1752.14,-128.8"/>
<polygon fill="black" stroke="black" points="1752.14,-125.3 1742.14,-128.8 1752.14,-132.3 1752.14,-125.3"/>
</g>
<!-- CheckoutOccModule -->
<g id="node7" class="node">
<title>CheckoutOccModule</title>
<polygon fill="#8dd3c7" stroke="black" points="2415.74,-84.8 2412.74,-88.8 2391.74,-88.8 2388.74,-84.8 2280.26,-84.8 2280.26,-48.8 2415.74,-48.8 2415.74,-84.8"/>
<text text-anchor="middle" x="2348" y="-62.6" font-family="Times,serif" font-size="14.00">CheckoutOccModule</text>
</g>
<!-- CheckoutOccModule&#45;&gt;FSFeaturesModule -->
<g id="edge7" class="edge">
<title>CheckoutOccModule&#45;&gt;FSFeaturesModule</title>
<path fill="none" stroke="black" d="M2348,-84.83C2348,-101.86 2348,-124.8 2348,-124.8 2348,-124.8 1752.26,-124.8 1752.26,-124.8"/>
<polygon fill="black" stroke="black" points="1752.26,-121.3 1742.26,-124.8 1752.26,-128.3 1752.26,-121.3"/>
</g>
<!-- NavigationModule -->
<g id="node8" class="node">
<title>NavigationModule</title>
<polygon fill="#8dd3c7" stroke="black" points="2261.76,-84.8 2258.76,-88.8 2237.76,-88.8 2234.76,-84.8 2140.24,-84.8 2140.24,-48.8 2261.76,-48.8 2261.76,-84.8"/>
<text text-anchor="middle" x="2201" y="-62.6" font-family="Times,serif" font-size="14.00">NavigationModule</text>
</g>
<!-- NavigationModule&#45;&gt;FSFeaturesModule -->
<g id="edge8" class="edge">
<title>NavigationModule&#45;&gt;FSFeaturesModule</title>
<path fill="none" stroke="black" d="M2201,-84.81C2201,-100.85 2201,-121.8 2201,-121.8 2201,-121.8 1752.18,-121.8 1752.18,-121.8"/>
<polygon fill="black" stroke="black" points="1752.18,-118.3 1742.18,-121.8 1752.18,-125.3 1752.18,-118.3"/>
</g>
<!-- OrderApprovalFeatureModule -->
<g id="node9" class="node">
<title>OrderApprovalFeatureModule</title>
<polygon fill="#8dd3c7" stroke="black" points="2122.54,-84.8 2119.54,-88.8 2098.54,-88.8 2095.54,-84.8 1935.46,-84.8 1935.46,-48.8 2122.54,-48.8 2122.54,-84.8"/>
<text text-anchor="middle" x="2029" y="-62.6" font-family="Times,serif" font-size="14.00">OrderApprovalFeatureModule</text>
</g>
<!-- OrderApprovalFeatureModule&#45;&gt;FSFeaturesModule -->
<g id="edge9" class="edge">
<title>OrderApprovalFeatureModule&#45;&gt;FSFeaturesModule</title>
<path fill="none" stroke="black" d="M2029,-84.92C2029,-99.58 2029,-117.8 2029,-117.8 2029,-117.8 1752.41,-117.8 1752.41,-117.8"/>
<polygon fill="black" stroke="black" points="1752.41,-114.3 1742.41,-117.8 1752.41,-121.3 1752.41,-114.3"/>
</g>
<!-- ProductConfiguratorTextfieldFeatureModule -->
<g id="node10" class="node">
<title>ProductConfiguratorTextfieldFeatureModule</title>
<polygon fill="#8dd3c7" stroke="black" points="1917.2,-84.8 1914.2,-88.8 1893.2,-88.8 1890.2,-84.8 1648.8,-84.8 1648.8,-48.8 1917.2,-48.8 1917.2,-84.8"/>
<text text-anchor="middle" x="1783" y="-62.6" font-family="Times,serif" font-size="14.00">ProductConfiguratorTextfieldFeatureModule</text>
</g>
<!-- ProductConfiguratorTextfieldFeatureModule&#45;&gt;FSFeaturesModule -->
<g id="edge10" class="edge">
<title>ProductConfiguratorTextfieldFeatureModule&#45;&gt;FSFeaturesModule</title>
<path fill="none" stroke="black" d="M1695.46,-84.91C1695.46,-84.91 1695.46,-103.79 1695.46,-103.79"/>
<polygon fill="black" stroke="black" points="1691.96,-103.79 1695.46,-113.79 1698.96,-103.79 1691.96,-103.79"/>
</g>
<!-- ProductModule -->
<g id="node11" class="node">
<title>ProductModule</title>
<polygon fill="#8dd3c7" stroke="black" points="1630.6,-84.8 1627.6,-88.8 1606.6,-88.8 1603.6,-84.8 1527.4,-84.8 1527.4,-48.8 1630.6,-48.8 1630.6,-84.8"/>
<text text-anchor="middle" x="1579" y="-62.6" font-family="Times,serif" font-size="14.00">ProductModule</text>
</g>
<!-- ProductModule&#45;&gt;FSFeaturesModule -->
<g id="edge11" class="edge">
<title>ProductModule&#45;&gt;FSFeaturesModule</title>
<path fill="none" stroke="black" d="M1625.14,-84.91C1625.14,-84.91 1625.14,-103.79 1625.14,-103.79"/>
<polygon fill="black" stroke="black" points="1621.64,-103.79 1625.14,-113.79 1628.64,-103.79 1621.64,-103.79"/>
</g>
<!-- QuickOrderFeatureModule -->
<g id="node12" class="node">
<title>QuickOrderFeatureModule</title>
<polygon fill="#8dd3c7" stroke="black" points="1509.38,-84.8 1506.38,-88.8 1485.38,-88.8 1482.38,-84.8 1340.62,-84.8 1340.62,-48.8 1509.38,-48.8 1509.38,-84.8"/>
<text text-anchor="middle" x="1425" y="-62.6" font-family="Times,serif" font-size="14.00">QuickOrderFeatureModule</text>
</g>
<!-- QuickOrderFeatureModule&#45;&gt;FSFeaturesModule -->
<g id="edge12" class="edge">
<title>QuickOrderFeatureModule&#45;&gt;FSFeaturesModule</title>
<path fill="none" stroke="black" d="M1425,-84.92C1425,-99.58 1425,-117.8 1425,-117.8 1425,-117.8 1609.68,-117.8 1609.68,-117.8"/>
<polygon fill="black" stroke="black" points="1609.68,-121.3 1619.68,-117.8 1609.68,-114.3 1609.68,-121.3"/>
</g>
<!-- SavedCartFeatureModule -->
<g id="node13" class="node">
<title>SavedCartFeatureModule</title>
<polygon fill="#8dd3c7" stroke="black" points="1322.84,-84.8 1319.84,-88.8 1298.84,-88.8 1295.84,-84.8 1163.16,-84.8 1163.16,-48.8 1322.84,-48.8 1322.84,-84.8"/>
<text text-anchor="middle" x="1243" y="-62.6" font-family="Times,serif" font-size="14.00">SavedCartFeatureModule</text>
</g>
<!-- SavedCartFeatureModule&#45;&gt;FSFeaturesModule -->
<g id="edge13" class="edge">
<title>SavedCartFeatureModule&#45;&gt;FSFeaturesModule</title>
<path fill="none" stroke="black" d="M1243,-84.81C1243,-100.85 1243,-121.8 1243,-121.8 1243,-121.8 1609.64,-121.8 1609.64,-121.8"/>
<polygon fill="black" stroke="black" points="1609.64,-125.3 1619.64,-121.8 1609.64,-118.3 1609.64,-125.3"/>
</g>
<!-- SmartEditFeatureModule -->
<g id="node14" class="node">
<title>SmartEditFeatureModule</title>
<polygon fill="#8dd3c7" stroke="black" points="1145.3,-84.8 1142.3,-88.8 1121.3,-88.8 1118.3,-84.8 986.7,-84.8 986.7,-48.8 1145.3,-48.8 1145.3,-84.8"/>
<text text-anchor="middle" x="1066" y="-62.6" font-family="Times,serif" font-size="14.00">SmartEditFeatureModule</text>
</g>
<!-- SmartEditFeatureModule&#45;&gt;FSFeaturesModule -->
<g id="edge14" class="edge">
<title>SmartEditFeatureModule&#45;&gt;FSFeaturesModule</title>
<path fill="none" stroke="black" d="M1066,-84.83C1066,-101.86 1066,-124.8 1066,-124.8 1066,-124.8 1609.78,-124.8 1609.78,-124.8"/>
<polygon fill="black" stroke="black" points="1609.78,-128.3 1619.78,-124.8 1609.78,-121.3 1609.78,-128.3"/>
</g>
<!-- StorefinderFeatureModule -->
<g id="node15" class="node">
<title>StorefinderFeatureModule</title>
<polygon fill="#8dd3c7" stroke="black" points="969,-84.8 966,-88.8 945,-88.8 942,-84.8 805,-84.8 805,-48.8 969,-48.8 969,-84.8"/>
<text text-anchor="middle" x="887" y="-62.6" font-family="Times,serif" font-size="14.00">StorefinderFeatureModule</text>
</g>
<!-- StorefinderFeatureModule&#45;&gt;FSFeaturesModule -->
<g id="edge15" class="edge">
<title>StorefinderFeatureModule&#45;&gt;FSFeaturesModule</title>
<path fill="none" stroke="black" d="M887,-85.07C887,-103.36 887,-128.8 887,-128.8 887,-128.8 1609.69,-128.8 1609.69,-128.8"/>
<polygon fill="black" stroke="black" points="1609.69,-132.3 1619.69,-128.8 1609.69,-125.3 1609.69,-132.3"/>
</g>
<!-- TrackingFeatureModule -->
<g id="node16" class="node">
<title>TrackingFeatureModule</title>
<polygon fill="#8dd3c7" stroke="black" points="787.06,-84.8 784.06,-88.8 763.06,-88.8 760.06,-84.8 634.94,-84.8 634.94,-48.8 787.06,-48.8 787.06,-84.8"/>
<text text-anchor="middle" x="711" y="-62.6" font-family="Times,serif" font-size="14.00">TrackingFeatureModule</text>
</g>
<!-- TrackingFeatureModule&#45;&gt;FSFeaturesModule -->
<g id="edge16" class="edge">
<title>TrackingFeatureModule&#45;&gt;FSFeaturesModule</title>
<path fill="none" stroke="black" d="M711,-84.91C711,-104.14 711,-131.8 711,-131.8 711,-131.8 1609.95,-131.8 1609.95,-131.8"/>
<polygon fill="black" stroke="black" points="1609.95,-135.3 1619.95,-131.8 1609.95,-128.3 1609.95,-135.3"/>
</g>
<!-- UpdateProfileModule -->
<g id="node17" class="node">
<title>UpdateProfileModule</title>
<polygon fill="#8dd3c7" stroke="black" points="617.08,-84.8 614.08,-88.8 593.08,-88.8 590.08,-84.8 478.92,-84.8 478.92,-48.8 617.08,-48.8 617.08,-84.8"/>
<text text-anchor="middle" x="548" y="-62.6" font-family="Times,serif" font-size="14.00">UpdateProfileModule</text>
</g>
<!-- UpdateProfileModule&#45;&gt;FSFeaturesModule -->
<g id="edge17" class="edge">
<title>UpdateProfileModule&#45;&gt;FSFeaturesModule</title>
<path fill="none" stroke="black" d="M548,-84.93C548,-105.37 548,-135.8 548,-135.8 548,-135.8 1609.68,-135.8 1609.68,-135.8"/>
<polygon fill="black" stroke="black" points="1609.68,-139.3 1619.68,-135.8 1609.68,-132.3 1609.68,-139.3"/>
</g>
<!-- UserFeatureModule -->
<g id="node18" class="node">
<title>UserFeatureModule</title>
<polygon fill="#8dd3c7" stroke="black" points="460.95,-84.8 457.95,-88.8 436.95,-88.8 433.95,-84.8 333.05,-84.8 333.05,-48.8 460.95,-48.8 460.95,-84.8"/>
<text text-anchor="middle" x="397" y="-62.6" font-family="Times,serif" font-size="14.00">UserFeatureModule</text>
</g>
<!-- UserFeatureModule&#45;&gt;FSFeaturesModule -->
<g id="edge18" class="edge">
<title>UserFeatureModule&#45;&gt;FSFeaturesModule</title>
<path fill="none" stroke="black" d="M397,-84.84C397,-106.46 397,-139.8 397,-139.8 397,-139.8 1609.93,-139.8 1609.93,-139.8"/>
<polygon fill="black" stroke="black" points="1609.93,-143.3 1619.93,-139.8 1609.93,-136.3 1609.93,-143.3"/>
</g>
<!-- UserProfileModule -->
<g id="node19" class="node">
<title>UserProfileModule</title>
<polygon fill="#8dd3c7" stroke="black" points="315.08,-84.8 312.08,-88.8 291.08,-88.8 288.08,-84.8 190.92,-84.8 190.92,-48.8 315.08,-48.8 315.08,-84.8"/>
<text text-anchor="middle" x="253" y="-62.6" font-family="Times,serif" font-size="14.00">UserProfileModule</text>
</g>
<!-- UserProfileModule&#45;&gt;FSFeaturesModule -->
<g id="edge19" class="edge">
<title>UserProfileModule&#45;&gt;FSFeaturesModule</title>
<path fill="none" stroke="black" d="M253,-84.81C253,-107.29 253,-142.8 253,-142.8 253,-142.8 1609.64,-142.8 1609.64,-142.8"/>
<polygon fill="black" stroke="black" points="1609.64,-146.3 1619.64,-142.8 1609.64,-139.3 1609.64,-146.3"/>
</g>
<!-- VariantsFeatureModule -->
<g id="node20" class="node">
<title>VariantsFeatureModule</title>
<polygon fill="#8dd3c7" stroke="black" points="172.45,-84.8 169.45,-88.8 148.45,-88.8 145.45,-84.8 23.55,-84.8 23.55,-48.8 172.45,-48.8 172.45,-84.8"/>
<text text-anchor="middle" x="98" y="-62.6" font-family="Times,serif" font-size="14.00">VariantsFeatureModule</text>
</g>
<!-- VariantsFeatureModule&#45;&gt;FSFeaturesModule -->
<g id="edge20" class="edge">
<title>VariantsFeatureModule&#45;&gt;FSFeaturesModule</title>
<path fill="none" stroke="black" d="M98,-84.95C98,-108.56 98,-146.8 98,-146.8 98,-146.8 1609.91,-146.8 1609.91,-146.8"/>
<polygon fill="black" stroke="black" points="1609.91,-150.3 1619.91,-146.8 1609.91,-143.3 1609.91,-150.3"/>
</g>
</g>
</svg>
