<?xml version="1.0" encoding="UTF-8" standalone="no"?>
<!DOCTYPE svg PUBLIC "-//W3C//DTD SVG 1.1//EN"
 "http://www.w3.org/Graphics/SVG/1.1/DTD/svg11.dtd">
<!-- Generated by graphviz version 2.47.3 (20210619.1520)
 -->
<!-- Title: dependencies Pages: 1 -->
<svg width="418pt" height="247pt"
 viewBox="0.00 0.00 418.00 246.80" xmlns="http://www.w3.org/2000/svg" xmlns:xlink="http://www.w3.org/1999/xlink">
<g id="graph0" class="graph" transform="scale(1 1) rotate(0) translate(4 242.8)">
<title>dependencies</title>
<polygon fill="white" stroke="transparent" points="-4,4 -4,-242.8 414,-242.8 414,4 -4,4"/>
<text text-anchor="middle" x="205" y="-8.2" font-family="sans-serif" font-size="14.00">dependencies</text>
<g id="clust1" class="cluster">
<title>cluster_FSLoginFormModule</title>
<polygon fill="none" stroke="black" stroke-dasharray="1,5" points="8,-32.8 8,-230.8 402,-230.8 402,-32.8 8,-32.8"/>
</g>
<g id="clust2" class="cluster">
<title>cluster_FSLoginFormModule_declarations</title>
<polygon fill="none" stroke="black" points="20,-40.8 20,-92.8 391,-92.8 391,-40.8 20,-40.8"/>
</g>
<g id="clust6" class="cluster">
<title>cluster_FSLoginFormModule_exports</title>
<polygon fill="none" stroke="black" points="16,-170.8 16,-222.8 394,-222.8 394,-170.8 16,-170.8"/>
</g>
<!-- FSLoginFormComponent -->
<g id="node1" class="node">
<title>FSLoginFormComponent</title>
<polygon fill="#ffffb3" stroke="black" points="383.17,-84.8 222.83,-84.8 222.83,-48.8 383.17,-48.8 383.17,-84.8"/>
<text text-anchor="middle" x="303" y="-62.6" font-family="Times,serif" font-size="14.00">FSLoginFormComponent</text>
</g>
<!-- FSLoginFormModule -->
<g id="node3" class="node">
<title>FSLoginFormModule</title>
<polygon fill="#8dd3c7" stroke="black" points="186.39,-149.8 183.39,-153.8 162.39,-153.8 159.39,-149.8 47.61,-149.8 47.61,-113.8 186.39,-113.8 186.39,-149.8"/>
<text text-anchor="middle" x="117" y="-127.6" font-family="Times,serif" font-size="14.00">FSLoginFormModule</text>
</g>
<!-- FSLoginFormComponent&#45;&gt;FSLoginFormModule -->
<g id="edge1" class="edge">
<title>FSLoginFormComponent&#45;&gt;FSLoginFormModule</title>
<path fill="none" stroke="black" d="M329.78,-84.82C329.78,-102.17 329.78,-125.8 329.78,-125.8 329.78,-125.8 196.67,-125.8 196.67,-125.8"/>
<polygon fill="black" stroke="black" points="196.67,-122.3 186.67,-125.8 196.67,-129.3 196.67,-122.3"/>
</g>
<!-- FSLoginRegisterComponent -->
<g id="node2" class="node">
<title>FSLoginRegisterComponent</title>
<polygon fill="#ffffb3" stroke="black" points="204.49,-84.8 27.51,-84.8 27.51,-48.8 204.49,-48.8 204.49,-84.8"/>
<text text-anchor="middle" x="116" y="-62.6" font-family="Times,serif" font-size="14.00">FSLoginRegisterComponent</text>
</g>
<!-- FSLoginRegisterComponent&#45;&gt;FSLoginFormModule -->
<g id="edge2" class="edge">
<title>FSLoginRegisterComponent&#45;&gt;FSLoginFormModule</title>
<path fill="none" stroke="black" d="M117,-84.91C117,-84.91 117,-103.79 117,-103.79"/>
<polygon fill="black" stroke="black" points="113.5,-103.79 117,-113.79 120.5,-103.79 113.5,-103.79"/>
</g>
<!-- FSLoginFormComponent  -->
<g id="node4" class="node">
<title>FSLoginFormComponent </title>
<polygon fill="#fb8072" stroke="black" points="386.17,-214.8 221.83,-214.8 221.83,-178.8 386.17,-178.8 386.17,-214.8"/>
<text text-anchor="middle" x="304" y="-192.6" font-family="Times,serif" font-size="14.00">FSLoginFormComponent </text>
</g>
<!-- FSLoginFormModule&#45;&gt;FSLoginFormComponent  -->
<g id="edge3" class="edge">
<title>FSLoginFormModule&#45;&gt;FSLoginFormComponent </title>
<path fill="none" stroke="black" stroke-dasharray="5,2" d="M186.84,-137.8C229.62,-137.8 276.22,-137.8 276.22,-137.8 276.22,-137.8 276.22,-168.78 276.22,-168.78"/>
<polygon fill="black" stroke="black" points="272.72,-168.78 276.22,-178.78 279.72,-168.78 272.72,-168.78"/>
</g>
<!-- FSLoginRegisterComponent  -->
<g id="node5" class="node">
<title>FSLoginRegisterComponent </title>
<polygon fill="#fb8072" stroke="black" points="204.49,-214.8 23.51,-214.8 23.51,-178.8 204.49,-178.8 204.49,-214.8"/>
<text text-anchor="middle" x="114" y="-192.6" font-family="Times,serif" font-size="14.00">FSLoginRegisterComponent </text>
</g>
<!-- FSLoginFormModule&#45;&gt;FSLoginRegisterComponent  -->
<g id="edge4" class="edge">
<title>FSLoginFormModule&#45;&gt;FSLoginRegisterComponent </title>
<path fill="none" stroke="black" stroke-dasharray="5,2" d="M117,-149.91C117,-149.91 117,-168.79 117,-168.79"/>
<polygon fill="black" stroke="black" points="113.5,-168.79 117,-178.79 120.5,-168.79 113.5,-168.79"/>
</g>
</g>
</svg>
