<?xml version="1.0" encoding="UTF-8" standalone="no"?>
<!DOCTYPE svg PUBLIC "-//W3C//DTD SVG 1.1//EN"
 "http://www.w3.org/Graphics/SVG/1.1/DTD/svg11.dtd">
<!-- Generated by graphviz version 2.46.0 (20210119.1425)
 -->
<!-- Title: dependencies Pages: 1 -->
<svg width="1066pt" height="284pt"
 viewBox="0.00 0.00 1066.00 284.00" xmlns="http://www.w3.org/2000/svg" xmlns:xlink="http://www.w3.org/1999/xlink">
<g id="graph0" class="graph" transform="scale(1 1) rotate(0) translate(4 280)">
<title>dependencies</title>
<polygon fill="white" stroke="transparent" points="-4,4 -4,-280 1062,-280 1062,4 -4,4"/>
<text text-anchor="start" x="508.01" y="-42.4" font-family="sans-serif" font-weight="bold" font-size="14.00">Legend</text>
<polygon fill="#ffffb3" stroke="transparent" points="295,-10 295,-30 315,-30 315,-10 295,-10"/>
<text text-anchor="start" x="318.63" y="-15.4" font-family="sans-serif" font-size="14.00"> &#160;Declarations</text>
<polygon fill="#8dd3c7" stroke="transparent" points="408,-10 408,-30 428,-30 428,-10 408,-10"/>
<text text-anchor="start" x="431.73" y="-15.4" font-family="sans-serif" font-size="14.00"> &#160;Module</text>
<polygon fill="#80b1d3" stroke="transparent" points="494,-10 494,-30 514,-30 514,-10 494,-10"/>
<text text-anchor="start" x="517.78" y="-15.4" font-family="sans-serif" font-size="14.00"> &#160;Bootstrap</text>
<polygon fill="#fdb462" stroke="transparent" points="591,-10 591,-30 611,-30 611,-10 591,-10"/>
<text text-anchor="start" x="614.67" y="-15.4" font-family="sans-serif" font-size="14.00"> &#160;Providers</text>
<polygon fill="#fb8072" stroke="transparent" points="687,-10 687,-30 707,-30 707,-10 687,-10"/>
<text text-anchor="start" x="710.73" y="-15.4" font-family="sans-serif" font-size="14.00"> &#160;Exports</text>
<g id="clust1" class="cluster">
<title>cluster_PolicyModule</title>
<polygon fill="none" stroke="black" stroke-dasharray="1,5" points="8,-70 8,-268 1050,-268 1050,-70 8,-70"/>
</g>
<g id="clust6" class="cluster">
<title>cluster_PolicyModule_exports</title>
<polygon fill="none" stroke="black" points="350,-208 350,-260 674,-260 674,-208 350,-208"/>
</g>
<g id="clust8" class="cluster">
<title>cluster_PolicyModule_providers</title>
<polygon fill="none" stroke="black" points="677,-78 677,-130 1042,-130 1042,-78 677,-78"/>
</g>
<g id="clust5" class="cluster">
<title>cluster_PolicyModule_imports</title>
<polygon fill="none" stroke="black" points="340,-78 340,-130 669,-130 669,-78 340,-78"/>
</g>
<g id="clust2" class="cluster">
<title>cluster_PolicyModule_declarations</title>
<polygon fill="none" stroke="black" points="16,-78 16,-130 332,-130 332,-78 16,-78"/>
</g>
<!-- PoliciesComponent -->
<g id="node1" class="node">
<title>PoliciesComponent</title>
<polygon fill="#ffffb3" stroke="black" points="323.66,-122 198.34,-122 198.34,-86 323.66,-86 323.66,-122"/>
<text text-anchor="middle" x="261" y="-99.8" font-family="Times,serif" font-size="14.00">PoliciesComponent</text>
</g>
<!-- PolicyModule -->
<g id="node3" class="node">
<title>PolicyModule</title>
<polygon fill="#8dd3c7" stroke="black" points="566.83,-187 563.83,-191 542.83,-191 539.83,-187 471.17,-187 471.17,-151 566.83,-151 566.83,-187"/>
<text text-anchor="middle" x="519" y="-164.8" font-family="Times,serif" font-size="14.00">PolicyModule</text>
</g>
<!-- PoliciesComponent&#45;&gt;PolicyModule -->
<g id="edge1" class="edge">
<title>PoliciesComponent&#45;&gt;PolicyModule</title>
<path fill="none" stroke="black" d="M261,-122.02C261,-139.37 261,-163 261,-163 261,-163 461.08,-163 461.08,-163"/>
<polygon fill="black" stroke="black" points="461.08,-166.5 471.08,-163 461.08,-159.5 461.08,-166.5"/>
</g>
<!-- PolicyDetailsComponent -->
<g id="node2" class="node">
<title>PolicyDetailsComponent</title>
<polygon fill="#ffffb3" stroke="black" points="180.26,-122 23.74,-122 23.74,-86 180.26,-86 180.26,-122"/>
<text text-anchor="middle" x="102" y="-99.8" font-family="Times,serif" font-size="14.00">PolicyDetailsComponent</text>
</g>
<!-- PolicyDetailsComponent&#45;&gt;PolicyModule -->
<g id="edge2" class="edge">
<title>PolicyDetailsComponent&#45;&gt;PolicyModule</title>
<path fill="none" stroke="black" d="M102,-122.28C102,-143.32 102,-175 102,-175 102,-175 461.16,-175 461.16,-175"/>
<polygon fill="black" stroke="black" points="461.16,-178.5 471.16,-175 461.16,-171.5 461.16,-178.5"/>
</g>
<!-- PoliciesComponent  -->
<g id="node6" class="node">
<title>PoliciesComponent </title>
<polygon fill="#fb8072" stroke="black" points="665.66,-252 536.34,-252 536.34,-216 665.66,-216 665.66,-252"/>
<text text-anchor="middle" x="601" y="-229.8" font-family="Times,serif" font-size="14.00">PoliciesComponent </text>
</g>
<!-- PolicyModule&#45;&gt;PoliciesComponent  -->
<g id="edge5" class="edge">
<title>PolicyModule&#45;&gt;PoliciesComponent </title>
<path fill="none" stroke="black" stroke-dasharray="5,2" d="M551.54,-187.11C551.54,-187.11 551.54,-205.99 551.54,-205.99"/>
<polygon fill="black" stroke="black" points="548.04,-205.99 551.54,-215.99 555.04,-205.99 548.04,-205.99"/>
</g>
<!-- PolicyDetailsComponent  -->
<g id="node7" class="node">
<title>PolicyDetailsComponent </title>
<polygon fill="#fb8072" stroke="black" points="518.26,-252 357.74,-252 357.74,-216 518.26,-216 518.26,-252"/>
<text text-anchor="middle" x="438" y="-229.8" font-family="Times,serif" font-size="14.00">PolicyDetailsComponent </text>
</g>
<!-- PolicyModule&#45;&gt;PolicyDetailsComponent  -->
<g id="edge6" class="edge">
<title>PolicyModule&#45;&gt;PolicyDetailsComponent </title>
<path fill="none" stroke="black" stroke-dasharray="5,2" d="M494.73,-187.11C494.73,-187.11 494.73,-205.99 494.73,-205.99"/>
<polygon fill="black" stroke="black" points="491.23,-205.99 494.73,-215.99 498.23,-205.99 491.23,-205.99"/>
</g>
<!-- AccordionModule -->
<g id="node4" class="node">
<title>AccordionModule</title>
<polygon fill="#8dd3c7" stroke="black" points="661.14,-122 658.14,-126 637.14,-126 634.14,-122 542.86,-122 542.86,-86 661.14,-86 661.14,-122"/>
<text text-anchor="middle" x="602" y="-99.8" font-family="Times,serif" font-size="14.00">AccordionModule</text>
</g>
<!-- AccordionModule&#45;&gt;PolicyModule -->
<g id="edge3" class="edge">
<title>AccordionModule&#45;&gt;PolicyModule</title>
<path fill="none" stroke="black" d="M554.67,-122.11C554.67,-122.11 554.67,-140.99 554.67,-140.99"/>
<polygon fill="black" stroke="black" points="551.17,-140.99 554.67,-150.99 558.17,-140.99 551.17,-140.99"/>
</g>
<!-- ChangeRequestStoreModule -->
<g id="node5" class="node">
<title>ChangeRequestStoreModule</title>
<polygon fill="#8dd3c7" stroke="black" points="524.47,-122 521.47,-126 500.47,-126 497.47,-122 347.53,-122 347.53,-86 524.47,-86 524.47,-122"/>
<text text-anchor="middle" x="436" y="-99.8" font-family="Times,serif" font-size="14.00">ChangeRequestStoreModule</text>
</g>
<!-- ChangeRequestStoreModule&#45;&gt;PolicyModule -->
<g id="edge4" class="edge">
<title>ChangeRequestStoreModule&#45;&gt;PolicyModule</title>
<path fill="none" stroke="black" d="M497.91,-122.11C497.91,-122.11 497.91,-140.99 497.91,-140.99"/>
<polygon fill="black" stroke="black" points="494.41,-140.99 497.91,-150.99 501.41,-140.99 494.41,-140.99"/>
</g>
<!-- ChangeRequestService -->
<g id="node8" class="node">
<title>ChangeRequestService</title>
<ellipse fill="#fdb462" stroke="black" cx="933" cy="-104" rx="100.7" ry="18"/>
<text text-anchor="middle" x="933" y="-99.8" font-family="Times,serif" font-size="14.00">ChangeRequestService</text>
</g>
<!-- ChangeRequestService&#45;&gt;PolicyModule -->
<g id="edge7" class="edge">
<title>ChangeRequestService&#45;&gt;PolicyModule</title>
<path fill="none" stroke="black" d="M933,-122.28C933,-143.32 933,-175 933,-175 933,-175 576.9,-175 576.9,-175"/>
<polygon fill="black" stroke="black" points="576.9,-171.5 566.9,-175 576.9,-178.5 576.9,-171.5"/>
</g>
<!-- PolicyService -->
<g id="node9" class="node">
<title>PolicyService</title>
<ellipse fill="#fdb462" stroke="black" cx="750" cy="-104" rx="64.84" ry="18"/>
<text text-anchor="middle" x="750" y="-99.8" font-family="Times,serif" font-size="14.00">PolicyService</text>
</g>
<!-- PolicyService&#45;&gt;PolicyModule -->
<g id="edge8" class="edge">
<title>PolicyService&#45;&gt;PolicyModule</title>
<path fill="none" stroke="black" d="M750,-122.02C750,-139.37 750,-163 750,-163 750,-163 576.86,-163 576.86,-163"/>
<polygon fill="black" stroke="black" points="576.86,-159.5 566.86,-163 576.86,-166.5 576.86,-159.5"/>
</g>
</g>
</svg>
