<?xml version="1.0" encoding="UTF-8" standalone="no"?>
<!DOCTYPE svg PUBLIC "-//W3C//DTD SVG 1.1//EN"
 "http://www.w3.org/Graphics/SVG/1.1/DTD/svg11.dtd">
<!-- Generated by graphviz version 2.44.1 (20200629.0846)
 -->
<!-- Title: dependencies Pages: 1 -->
<svg width="1245pt" height="284pt"
 viewBox="0.00 0.00 1245.00 284.00" xmlns="http://www.w3.org/2000/svg" xmlns:xlink="http://www.w3.org/1999/xlink">
<g id="graph0" class="graph" transform="scale(1 1) rotate(0) translate(4 280)">
<title>dependencies</title>
<polygon fill="white" stroke="transparent" points="-4,4 -4,-280 1241,-280 1241,4 -4,4"/>
<text text-anchor="start" x="597.51" y="-42.4" font-family="sans-serif" font-weight="bold" font-size="14.00">Legend</text>
<polygon fill="#ffffb3" stroke="transparent" points="384.5,-10 384.5,-30 404.5,-30 404.5,-10 384.5,-10"/>
<text text-anchor="start" x="408.13" y="-15.4" font-family="sans-serif" font-size="14.00"> &#160;Declarations</text>
<polygon fill="#8dd3c7" stroke="transparent" points="497.5,-10 497.5,-30 517.5,-30 517.5,-10 497.5,-10"/>
<text text-anchor="start" x="521.23" y="-15.4" font-family="sans-serif" font-size="14.00"> &#160;Module</text>
<polygon fill="#80b1d3" stroke="transparent" points="583.5,-10 583.5,-30 603.5,-30 603.5,-10 583.5,-10"/>
<text text-anchor="start" x="607.28" y="-15.4" font-family="sans-serif" font-size="14.00"> &#160;Bootstrap</text>
<polygon fill="#fdb462" stroke="transparent" points="680.5,-10 680.5,-30 700.5,-30 700.5,-10 680.5,-10"/>
<text text-anchor="start" x="704.17" y="-15.4" font-family="sans-serif" font-size="14.00"> &#160;Providers</text>
<polygon fill="#fb8072" stroke="transparent" points="776.5,-10 776.5,-30 796.5,-30 796.5,-10 776.5,-10"/>
<text text-anchor="start" x="800.23" y="-15.4" font-family="sans-serif" font-size="14.00"> &#160;Exports</text>
<g id="clust1" class="cluster">
<title>cluster_PolicyModule</title>
<polygon fill="none" stroke="black" stroke-dasharray="1,5" points="8,-70 8,-268 1229,-268 1229,-70 8,-70"/>
</g>
<g id="clust8" class="cluster">
<title>cluster_PolicyModule_providers</title>
<polygon fill="none" stroke="black" points="677,-78 677,-130 1221,-130 1221,-78 677,-78"/>
</g>
<g id="clust2" class="cluster">
<title>cluster_PolicyModule_declarations</title>
<polygon fill="none" stroke="black" points="353,-78 353,-130 669,-130 669,-78 353,-78"/>
</g>
<g id="clust6" class="cluster">
<title>cluster_PolicyModule_exports</title>
<polygon fill="none" stroke="black" points="429,-208 429,-260 753,-260 753,-208 429,-208"/>
</g>
<g id="clust5" class="cluster">
<title>cluster_PolicyModule_imports</title>
<polygon fill="none" stroke="black" points="16,-78 16,-130 345,-130 345,-78 16,-78"/>
</g>
<!-- PoliciesComponent -->
<g id="node1" class="node">
<title>PoliciesComponent</title>
<polygon fill="#ffffb3" stroke="black" points="660.66,-122 535.34,-122 535.34,-86 660.66,-86 660.66,-122"/>
<text text-anchor="middle" x="598" y="-99.8" font-family="Times,serif" font-size="14.00">PoliciesComponent</text>
</g>
<!-- PolicyModule -->
<g id="node3" class="node">
<title>PolicyModule</title>
<polygon fill="#8dd3c7" stroke="black" points="645.83,-187 642.83,-191 621.83,-191 618.83,-187 550.17,-187 550.17,-151 645.83,-151 645.83,-187"/>
<text text-anchor="middle" x="598" y="-164.8" font-family="Times,serif" font-size="14.00">PolicyModule</text>
</g>
<!-- PoliciesComponent&#45;&gt;PolicyModule -->
<g id="edge1" class="edge">
<title>PoliciesComponent&#45;&gt;PolicyModule</title>
<path fill="none" stroke="black" d="M598,-122.11C598,-122.11 598,-140.99 598,-140.99"/>
<polygon fill="black" stroke="black" points="594.5,-140.99 598,-150.99 601.5,-140.99 594.5,-140.99"/>
</g>
<!-- PolicyDetailsComponent -->
<g id="node2" class="node">
<title>PolicyDetailsComponent</title>
<polygon fill="#ffffb3" stroke="black" points="517.26,-122 360.74,-122 360.74,-86 517.26,-86 517.26,-122"/>
<text text-anchor="middle" x="439" y="-99.8" font-family="Times,serif" font-size="14.00">PolicyDetailsComponent</text>
</g>
<!-- PolicyDetailsComponent&#45;&gt;PolicyModule -->
<g id="edge2" class="edge">
<title>PolicyDetailsComponent&#45;&gt;PolicyModule</title>
<path fill="none" stroke="black" d="M477.12,-122.03C477.12,-138.4 477.12,-160 477.12,-160 477.12,-160 540.23,-160 540.23,-160"/>
<polygon fill="black" stroke="black" points="540.23,-163.5 550.23,-160 540.23,-156.5 540.23,-163.5"/>
</g>
<!-- PoliciesComponent  -->
<g id="node6" class="node">
<title>PoliciesComponent </title>
<polygon fill="#fb8072" stroke="black" points="744.66,-252 615.34,-252 615.34,-216 744.66,-216 744.66,-252"/>
<text text-anchor="middle" x="680" y="-229.8" font-family="Times,serif" font-size="14.00">PoliciesComponent </text>
</g>
<!-- PolicyModule&#45;&gt;PoliciesComponent  -->
<g id="edge5" class="edge">
<title>PolicyModule&#45;&gt;PoliciesComponent </title>
<path fill="none" stroke="black" stroke-dasharray="5,2" d="M630.54,-187.11C630.54,-187.11 630.54,-205.99 630.54,-205.99"/>
<polygon fill="black" stroke="black" points="627.04,-205.99 630.54,-215.99 634.04,-205.99 627.04,-205.99"/>
</g>
<!-- PolicyDetailsComponent  -->
<g id="node7" class="node">
<title>PolicyDetailsComponent </title>
<polygon fill="#fb8072" stroke="black" points="597.26,-252 436.74,-252 436.74,-216 597.26,-216 597.26,-252"/>
<text text-anchor="middle" x="517" y="-229.8" font-family="Times,serif" font-size="14.00">PolicyDetailsComponent </text>
</g>
<!-- PolicyModule&#45;&gt;PolicyDetailsComponent  -->
<g id="edge6" class="edge">
<title>PolicyModule&#45;&gt;PolicyDetailsComponent </title>
<path fill="none" stroke="black" stroke-dasharray="5,2" d="M573.73,-187.11C573.73,-187.11 573.73,-205.99 573.73,-205.99"/>
<polygon fill="black" stroke="black" points="570.23,-205.99 573.73,-215.99 577.23,-205.99 570.23,-205.99"/>
</g>
<!-- AccordionModule -->
<g id="node4" class="node">
<title>AccordionModule</title>
<polygon fill="#8dd3c7" stroke="black" points="337.14,-122 334.14,-126 313.14,-126 310.14,-122 218.86,-122 218.86,-86 337.14,-86 337.14,-122"/>
<text text-anchor="middle" x="278" y="-99.8" font-family="Times,serif" font-size="14.00">AccordionModule</text>
</g>
<!-- AccordionModule&#45;&gt;PolicyModule -->
<g id="edge3" class="edge">
<title>AccordionModule&#45;&gt;PolicyModule</title>
<path fill="none" stroke="black" d="M278,-122.11C278,-141.34 278,-169 278,-169 278,-169 540.09,-169 540.09,-169"/>
<polygon fill="black" stroke="black" points="540.09,-172.5 550.09,-169 540.09,-165.5 540.09,-172.5"/>
</g>
<!-- ChangeRequestStoreModule -->
<g id="node5" class="node">
<title>ChangeRequestStoreModule</title>
<polygon fill="#8dd3c7" stroke="black" points="200.47,-122 197.47,-126 176.47,-126 173.47,-122 23.53,-122 23.53,-86 200.47,-86 200.47,-122"/>
<text text-anchor="middle" x="112" y="-99.8" font-family="Times,serif" font-size="14.00">ChangeRequestStoreModule</text>
</g>
<!-- ChangeRequestStoreModule&#45;&gt;PolicyModule -->
<g id="edge4" class="edge">
<title>ChangeRequestStoreModule&#45;&gt;PolicyModule</title>
<path fill="none" stroke="black" d="M112,-122.29C112,-144.21 112,-178 112,-178 112,-178 540.07,-178 540.07,-178"/>
<polygon fill="black" stroke="black" points="540.07,-181.5 550.07,-178 540.07,-174.5 540.07,-181.5"/>
</g>
<!-- ChangeRequestService -->
<g id="node8" class="node">
<title>ChangeRequestService</title>
<ellipse fill="#fdb462" stroke="black" cx="1112" cy="-104" rx="100.7" ry="18"/>
<text text-anchor="middle" x="1112" y="-99.8" font-family="Times,serif" font-size="14.00">ChangeRequestService</text>
</g>
<!-- ChangeRequestService&#45;&gt;PolicyModule -->
<g id="edge7" class="edge">
<title>ChangeRequestService&#45;&gt;PolicyModule</title>
<path fill="none" stroke="black" d="M1112,-122.29C1112,-144.21 1112,-178 1112,-178 1112,-178 655.89,-178 655.89,-178"/>
<polygon fill="black" stroke="black" points="655.89,-174.5 645.89,-178 655.89,-181.5 655.89,-174.5"/>
</g>
<!-- DocumentService -->
<g id="node9" class="node">
<title>DocumentService</title>
<ellipse fill="#fdb462" stroke="black" cx="913" cy="-104" rx="80.44" ry="18"/>
<text text-anchor="middle" x="913" y="-99.8" font-family="Times,serif" font-size="14.00">DocumentService</text>
</g>
<!-- DocumentService&#45;&gt;PolicyModule -->
<g id="edge8" class="edge">
<title>DocumentService&#45;&gt;PolicyModule</title>
<path fill="none" stroke="black" d="M913,-122.11C913,-141.34 913,-169 913,-169 913,-169 655.84,-169 655.84,-169"/>
<polygon fill="black" stroke="black" points="655.84,-165.5 645.84,-169 655.84,-172.5 655.84,-165.5"/>
</g>
<!-- PolicyService -->
<g id="node10" class="node">
<title>PolicyService</title>
<ellipse fill="#fdb462" stroke="black" cx="750" cy="-104" rx="64.84" ry="18"/>
<text text-anchor="middle" x="750" y="-99.8" font-family="Times,serif" font-size="14.00">PolicyService</text>
</g>
<!-- PolicyService&#45;&gt;PolicyModule -->
<g id="edge9" class="edge">
<title>PolicyService&#45;&gt;PolicyModule</title>
<path fill="none" stroke="black" d="M714.95,-119.3C714.95,-135.88 714.95,-160 714.95,-160 714.95,-160 655.91,-160 655.91,-160"/>
<polygon fill="black" stroke="black" points="655.91,-156.5 645.91,-160 655.91,-163.5 655.91,-156.5"/>
</g>
</g>
</svg>
