<?xml version="1.0" encoding="UTF-8" standalone="no"?>
<!DOCTYPE svg PUBLIC "-//W3C//DTD SVG 1.1//EN"
 "http://www.w3.org/Graphics/SVG/1.1/DTD/svg11.dtd">
<!-- Generated by graphviz version 2.47.3 (20210619.1520)
 -->
<!-- Title: dependencies Pages: 1 -->
<svg width="1392pt" height="247pt"
 viewBox="0.00 0.00 1392.00 246.80" xmlns="http://www.w3.org/2000/svg" xmlns:xlink="http://www.w3.org/1999/xlink">
<g id="graph0" class="graph" transform="scale(1 1) rotate(0) translate(4 242.8)">
<title>dependencies</title>
<polygon fill="white" stroke="transparent" points="-4,4 -4,-242.8 1388,-242.8 1388,4 -4,4"/>
<text text-anchor="middle" x="692" y="-8.2" font-family="sans-serif" font-size="14.00">dependencies</text>
<g id="clust1" class="cluster">
<title>cluster_PolicyModule</title>
<polygon fill="none" stroke="black" stroke-dasharray="1,5" points="8,-32.8 8,-230.8 1376,-230.8 1376,-32.8 8,-32.8"/>
</g>
<g id="clust5" class="cluster">
<title>cluster_PolicyModule_imports</title>
<polygon fill="none" stroke="black" points="713,-40.8 713,-92.8 1368,-92.8 1368,-40.8 713,-40.8"/>
</g>
<g id="clust6" class="cluster">
<title>cluster_PolicyModule_exports</title>
<polygon fill="none" stroke="black" points="523,-170.8 523,-222.8 847,-222.8 847,-170.8 523,-170.8"/>
</g>
<g id="clust8" class="cluster">
<title>cluster_PolicyModule_providers</title>
<polygon fill="none" stroke="black" points="340,-40.8 340,-92.8 705,-92.8 705,-40.8 340,-40.8"/>
</g>
<g id="clust2" class="cluster">
<title>cluster_PolicyModule_declarations</title>
<polygon fill="none" stroke="black" points="16,-40.8 16,-92.8 332,-92.8 332,-40.8 16,-40.8"/>
</g>
<!-- PoliciesComponent -->
<g id="node1" class="node">
<title>PoliciesComponent</title>
<polygon fill="#ffffb3" stroke="black" points="323.66,-84.8 198.34,-84.8 198.34,-48.8 323.66,-48.8 323.66,-84.8"/>
<text text-anchor="middle" x="261" y="-62.6" font-family="Times,serif" font-size="14.00">PoliciesComponent</text>
</g>
<!-- PolicyModule -->
<g id="node3" class="node">
<title>PolicyModule</title>
<polygon fill="#8dd3c7" stroke="black" points="739.83,-149.8 736.83,-153.8 715.83,-153.8 712.83,-149.8 644.17,-149.8 644.17,-113.8 739.83,-113.8 739.83,-149.8"/>
<text text-anchor="middle" x="692" y="-127.6" font-family="Times,serif" font-size="14.00">PolicyModule</text>
</g>
<!-- PoliciesComponent&#45;&gt;PolicyModule -->
<g id="edge1" class="edge">
<title>PoliciesComponent&#45;&gt;PolicyModule</title>
<path fill="none" stroke="black" d="M261,-84.91C261,-104.14 261,-131.8 261,-131.8 261,-131.8 634.23,-131.8 634.23,-131.8"/>
<polygon fill="black" stroke="black" points="634.23,-135.3 644.23,-131.8 634.23,-128.3 634.23,-135.3"/>
</g>
<!-- PolicyDetailsComponent -->
<g id="node2" class="node">
<title>PolicyDetailsComponent</title>
<polygon fill="#ffffb3" stroke="black" points="180.26,-84.8 23.74,-84.8 23.74,-48.8 180.26,-48.8 180.26,-84.8"/>
<text text-anchor="middle" x="102" y="-62.6" font-family="Times,serif" font-size="14.00">PolicyDetailsComponent</text>
</g>
<!-- PolicyDetailsComponent&#45;&gt;PolicyModule -->
<g id="edge2" class="edge">
<title>PolicyDetailsComponent&#45;&gt;PolicyModule</title>
<path fill="none" stroke="black" d="M102,-85.09C102,-107.01 102,-140.8 102,-140.8 102,-140.8 634.22,-140.8 634.22,-140.8"/>
<polygon fill="black" stroke="black" points="634.22,-144.3 644.22,-140.8 634.22,-137.3 634.22,-144.3"/>
</g>
<!-- PoliciesComponent  -->
<g id="node8" class="node">
<title>PoliciesComponent </title>
<polygon fill="#fb8072" stroke="black" points="838.66,-214.8 709.34,-214.8 709.34,-178.8 838.66,-178.8 838.66,-214.8"/>
<text text-anchor="middle" x="774" y="-192.6" font-family="Times,serif" font-size="14.00">PoliciesComponent </text>
</g>
<!-- PolicyModule&#45;&gt;PoliciesComponent  -->
<g id="edge7" class="edge">
<title>PolicyModule&#45;&gt;PoliciesComponent </title>
<path fill="none" stroke="black" stroke-dasharray="5,2" d="M724.54,-149.91C724.54,-149.91 724.54,-168.79 724.54,-168.79"/>
<polygon fill="black" stroke="black" points="721.04,-168.79 724.54,-178.79 728.04,-168.79 721.04,-168.79"/>
</g>
<!-- PolicyDetailsComponent  -->
<g id="node9" class="node">
<title>PolicyDetailsComponent </title>
<polygon fill="#fb8072" stroke="black" points="691.26,-214.8 530.74,-214.8 530.74,-178.8 691.26,-178.8 691.26,-214.8"/>
<text text-anchor="middle" x="611" y="-192.6" font-family="Times,serif" font-size="14.00">PolicyDetailsComponent </text>
</g>
<!-- PolicyModule&#45;&gt;PolicyDetailsComponent  -->
<g id="edge8" class="edge">
<title>PolicyModule&#45;&gt;PolicyDetailsComponent </title>
<path fill="none" stroke="black" stroke-dasharray="5,2" d="M667.73,-149.91C667.73,-149.91 667.73,-168.79 667.73,-168.79"/>
<polygon fill="black" stroke="black" points="664.23,-168.79 667.73,-178.79 671.23,-168.79 664.23,-168.79"/>
</g>
<!-- AccordionModule -->
<g id="node4" class="node">
<title>AccordionModule</title>
<polygon fill="#8dd3c7" stroke="black" points="1360.14,-84.8 1357.14,-88.8 1336.14,-88.8 1333.14,-84.8 1241.86,-84.8 1241.86,-48.8 1360.14,-48.8 1360.14,-84.8"/>
<text text-anchor="middle" x="1301" y="-62.6" font-family="Times,serif" font-size="14.00">AccordionModule</text>
</g>
<!-- AccordionModule&#45;&gt;PolicyModule -->
<g id="edge3" class="edge">
<title>AccordionModule&#45;&gt;PolicyModule</title>
<path fill="none" stroke="black" d="M1301,-85.09C1301,-107.01 1301,-140.8 1301,-140.8 1301,-140.8 749.79,-140.8 749.79,-140.8"/>
<polygon fill="black" stroke="black" points="749.79,-137.3 739.79,-140.8 749.79,-144.3 749.79,-137.3"/>
</g>
<!-- ChangeRequestStoreModule -->
<g id="node5" class="node">
<title>ChangeRequestStoreModule</title>
<polygon fill="#8dd3c7" stroke="black" points="1223.47,-84.8 1220.47,-88.8 1199.47,-88.8 1196.47,-84.8 1046.53,-84.8 1046.53,-48.8 1223.47,-48.8 1223.47,-84.8"/>
<text text-anchor="middle" x="1135" y="-62.6" font-family="Times,serif" font-size="14.00">ChangeRequestStoreModule</text>
</g>
<!-- ChangeRequestStoreModule&#45;&gt;PolicyModule -->
<g id="edge4" class="edge">
<title>ChangeRequestStoreModule&#45;&gt;PolicyModule</title>
<path fill="none" stroke="black" d="M1135,-84.91C1135,-104.14 1135,-131.8 1135,-131.8 1135,-131.8 749.83,-131.8 749.83,-131.8"/>
<polygon fill="black" stroke="black" points="749.83,-128.3 739.83,-131.8 749.83,-135.3 749.83,-128.3"/>
</g>
<!-- DocumentsTableModule -->
<g id="node6" class="node">
<title>DocumentsTableModule</title>
<polygon fill="#8dd3c7" stroke="black" points="1028.68,-84.8 1025.68,-88.8 1004.68,-88.8 1001.68,-84.8 873.32,-84.8 873.32,-48.8 1028.68,-48.8 1028.68,-84.8"/>
<text text-anchor="middle" x="951" y="-62.6" font-family="Times,serif" font-size="14.00">DocumentsTableModule</text>
</g>
<!-- DocumentsTableModule&#45;&gt;PolicyModule -->
<g id="edge5" class="edge">
<title>DocumentsTableModule&#45;&gt;PolicyModule</title>
<path fill="none" stroke="black" d="M951,-84.83C951,-101.2 951,-122.8 951,-122.8 951,-122.8 749.81,-122.8 749.81,-122.8"/>
<polygon fill="black" stroke="black" points="749.81,-119.3 739.81,-122.8 749.81,-126.3 749.81,-119.3"/>
</g>
<!-- PoliciesChartModule -->
<g id="node7" class="node">
<title>PoliciesChartModule</title>
<polygon fill="#8dd3c7" stroke="black" points="855.48,-84.8 852.48,-88.8 831.48,-88.8 828.48,-84.8 720.52,-84.8 720.52,-48.8 855.48,-48.8 855.48,-84.8"/>
<text text-anchor="middle" x="788" y="-62.6" font-family="Times,serif" font-size="14.00">PoliciesChartModule</text>
</g>
<!-- PoliciesChartModule&#45;&gt;PolicyModule -->
<g id="edge6" class="edge">
<title>PoliciesChartModule&#45;&gt;PolicyModule</title>
<path fill="none" stroke="black" d="M730.09,-84.91C730.09,-84.91 730.09,-103.79 730.09,-103.79"/>
<polygon fill="black" stroke="black" points="726.59,-103.79 730.09,-113.79 733.59,-103.79 726.59,-103.79"/>
</g>
<!-- ChangeRequestService -->
<g id="node10" class="node">
<title>ChangeRequestService</title>
<ellipse fill="#fdb462" stroke="black" cx="596" cy="-66.8" rx="100.7" ry="18"/>
<text text-anchor="middle" x="596" y="-62.6" font-family="Times,serif" font-size="14.00">ChangeRequestService</text>
</g>
<!-- ChangeRequestService&#45;&gt;PolicyModule -->
<g id="edge9" class="edge">
<title>ChangeRequestService&#45;&gt;PolicyModule</title>
<path fill="none" stroke="black" d="M670.47,-79.03C670.47,-79.03 670.47,-103.48 670.47,-103.48"/>
<polygon fill="black" stroke="black" points="666.97,-103.48 670.47,-113.48 673.97,-103.48 666.97,-103.48"/>
</g>
<!-- PolicyService -->
<g id="node11" class="node">
<title>PolicyService</title>
<ellipse fill="#fdb462" stroke="black" cx="413" cy="-66.8" rx="64.84" ry="18"/>
<text text-anchor="middle" x="413" y="-62.6" font-family="Times,serif" font-size="14.00">PolicyService</text>
</g>
<!-- PolicyService&#45;&gt;PolicyModule -->
<g id="edge10" class="edge">
<title>PolicyService&#45;&gt;PolicyModule</title>
<path fill="none" stroke="black" d="M413,-84.83C413,-101.2 413,-122.8 413,-122.8 413,-122.8 634.04,-122.8 634.04,-122.8"/>
<polygon fill="black" stroke="black" points="634.04,-126.3 644.04,-122.8 634.04,-119.3 634.04,-126.3"/>
</g>
</g>
</svg>
