<?xml version="1.0" encoding="UTF-8" standalone="no"?>
<!DOCTYPE svg PUBLIC "-//W3C//DTD SVG 1.1//EN"
 "http://www.w3.org/Graphics/SVG/1.1/DTD/svg11.dtd">
<!-- Generated by graphviz version 2.46.0 (20210119.1425)
 -->
<!-- Title: dependencies Pages: 1 -->
<svg width="4291pt" height="284pt"
 viewBox="0.00 0.00 4291.00 284.00" xmlns="http://www.w3.org/2000/svg" xmlns:xlink="http://www.w3.org/1999/xlink">
<g id="graph0" class="graph" transform="scale(1 1) rotate(0) translate(4 280)">
<title>dependencies</title>
<polygon fill="white" stroke="transparent" points="-4,4 -4,-280 4287,-280 4287,4 -4,4"/>
<text text-anchor="start" x="2120.51" y="-42.4" font-family="sans-serif" font-weight="bold" font-size="14.00">Legend</text>
<polygon fill="#ffffb3" stroke="transparent" points="1907.5,-10 1907.5,-30 1927.5,-30 1927.5,-10 1907.5,-10"/>
<text text-anchor="start" x="1931.13" y="-15.4" font-family="sans-serif" font-size="14.00"> &#160;Declarations</text>
<polygon fill="#8dd3c7" stroke="transparent" points="2020.5,-10 2020.5,-30 2040.5,-30 2040.5,-10 2020.5,-10"/>
<text text-anchor="start" x="2044.23" y="-15.4" font-family="sans-serif" font-size="14.00"> &#160;Module</text>
<polygon fill="#80b1d3" stroke="transparent" points="2106.5,-10 2106.5,-30 2126.5,-30 2126.5,-10 2106.5,-10"/>
<text text-anchor="start" x="2130.28" y="-15.4" font-family="sans-serif" font-size="14.00"> &#160;Bootstrap</text>
<polygon fill="#fdb462" stroke="transparent" points="2203.5,-10 2203.5,-30 2223.5,-30 2223.5,-10 2203.5,-10"/>
<text text-anchor="start" x="2227.17" y="-15.4" font-family="sans-serif" font-size="14.00"> &#160;Providers</text>
<polygon fill="#fb8072" stroke="transparent" points="2299.5,-10 2299.5,-30 2319.5,-30 2319.5,-10 2299.5,-10"/>
<text text-anchor="start" x="2323.23" y="-15.4" font-family="sans-serif" font-size="14.00"> &#160;Exports</text>
<g id="clust1" class="cluster">
<title>cluster_CheckoutModule</title>
<polygon fill="none" stroke="black" stroke-dasharray="1,5" points="8,-70 8,-268 4275,-268 4275,-70 8,-70"/>
</g>
<g id="clust2" class="cluster">
<title>cluster_CheckoutModule_declarations</title>
<polygon fill="none" stroke="black" points="2345,-78 2345,-130 4267,-130 4267,-78 2345,-78"/>
</g>
<g id="clust13" class="cluster">
<title>cluster_CheckoutModule_exports</title>
<polygon fill="none" stroke="black" points="1187,-208 1187,-260 2684,-260 2684,-208 1187,-208"/>
</g>
<g id="clust12" class="cluster">
<title>cluster_CheckoutModule_imports</title>
<polygon fill="none" stroke="black" points="1068,-78 1068,-130 2337,-130 2337,-78 1068,-78"/>
</g>
<g id="clust15" class="cluster">
<title>cluster_CheckoutModule_providers</title>
<polygon fill="none" stroke="black" points="16,-78 16,-130 1060,-130 1060,-78 16,-78"/>
</g>
<!-- BindQuoteDialogComponent -->
<g id="node1" class="node">
<title>BindQuoteDialogComponent</title>
<polygon fill="#ffffb3" stroke="black" points="4259.37,-122 4078.63,-122 4078.63,-86 4259.37,-86 4259.37,-122"/>
<text text-anchor="middle" x="4169" y="-99.8" font-family="Times,serif" font-size="14.00">BindQuoteDialogComponent</text>
</g>
<!-- CheckoutModule -->
<g id="node10" class="node">
<title>CheckoutModule</title>
<polygon fill="#8dd3c7" stroke="black" points="2015.71,-187 2012.71,-191 1991.71,-191 1988.71,-187 1902.29,-187 1902.29,-151 2015.71,-151 2015.71,-187"/>
<text text-anchor="middle" x="1959" y="-164.8" font-family="Times,serif" font-size="14.00">CheckoutModule</text>
</g>
<!-- BindQuoteDialogComponent&#45;&gt;CheckoutModule -->
<g id="edge1" class="edge">
<title>BindQuoteDialogComponent&#45;&gt;CheckoutModule</title>
<path fill="none" stroke="black" d="M4169,-122.29C4169,-144.21 4169,-178 4169,-178 4169,-178 2025.85,-178 2025.85,-178"/>
<polygon fill="black" stroke="black" points="2025.85,-174.5 2015.85,-178 2025.85,-181.5 2025.85,-174.5"/>
</g>
<!-- ChooseCoverNavigationComponent -->
<g id="node2" class="node">
<title>ChooseCoverNavigationComponent</title>
<polygon fill="#ffffb3" stroke="black" points="4060.75,-122 3841.25,-122 3841.25,-86 4060.75,-86 4060.75,-122"/>
<text text-anchor="middle" x="3951" y="-99.8" font-family="Times,serif" font-size="14.00">ChooseCoverNavigationComponent</text>
</g>
<!-- ChooseCoverNavigationComponent&#45;&gt;CheckoutModule -->
<g id="edge2" class="edge">
<title>ChooseCoverNavigationComponent&#45;&gt;CheckoutModule</title>
<path fill="none" stroke="black" d="M3951,-122.28C3951,-143.32 3951,-175 3951,-175 3951,-175 2025.67,-175 2025.67,-175"/>
<polygon fill="black" stroke="black" points="2025.67,-171.5 2015.67,-175 2025.67,-178.5 2025.67,-171.5"/>
</g>
<!-- FSPaymentMethodComponent -->
<g id="node3" class="node">
<title>FSPaymentMethodComponent</title>
<polygon fill="#ffffb3" stroke="black" points="3822.94,-122 3633.06,-122 3633.06,-86 3822.94,-86 3822.94,-122"/>
<text text-anchor="middle" x="3728" y="-99.8" font-family="Times,serif" font-size="14.00">FSPaymentMethodComponent</text>
</g>
<!-- FSPaymentMethodComponent&#45;&gt;CheckoutModule -->
<g id="edge3" class="edge">
<title>FSPaymentMethodComponent&#45;&gt;CheckoutModule</title>
<path fill="none" stroke="black" d="M3728,-122.13C3728,-142.57 3728,-173 3728,-173 3728,-173 2025.85,-173 2025.85,-173"/>
<polygon fill="black" stroke="black" points="2025.85,-169.5 2015.85,-173 2025.85,-176.5 2025.85,-169.5"/>
</g>
<!-- FinalReviewComponent -->
<g id="node4" class="node">
<title>FinalReviewComponent</title>
<polygon fill="#ffffb3" stroke="black" points="3615.37,-122 3462.63,-122 3462.63,-86 3615.37,-86 3615.37,-122"/>
<text text-anchor="middle" x="3539" y="-99.8" font-family="Times,serif" font-size="14.00">FinalReviewComponent</text>
</g>
<!-- FinalReviewComponent&#45;&gt;CheckoutModule -->
<g id="edge4" class="edge">
<title>FinalReviewComponent&#45;&gt;CheckoutModule</title>
<path fill="none" stroke="black" d="M3539,-122.31C3539,-142.15 3539,-171 3539,-171 3539,-171 2025.7,-171 2025.7,-171"/>
<polygon fill="black" stroke="black" points="2025.7,-167.5 2015.7,-171 2025.7,-174.5 2025.7,-167.5"/>
</g>
<!-- OrderConfirmationComponent -->
<g id="node5" class="node">
<title>OrderConfirmationComponent</title>
<polygon fill="#ffffb3" stroke="black" points="3444.91,-122 3255.09,-122 3255.09,-86 3444.91,-86 3444.91,-122"/>
<text text-anchor="middle" x="3350" y="-99.8" font-family="Times,serif" font-size="14.00">OrderConfirmationComponent</text>
</g>
<!-- OrderConfirmationComponent&#45;&gt;CheckoutModule -->
<g id="edge5" class="edge">
<title>OrderConfirmationComponent&#45;&gt;CheckoutModule</title>
<path fill="none" stroke="black" d="M3350,-122.17C3350,-141.09 3350,-168 3350,-168 3350,-168 2025.69,-168 2025.69,-168"/>
<polygon fill="black" stroke="black" points="2025.69,-164.5 2015.69,-168 2025.69,-171.5 2025.69,-164.5"/>
</g>
<!-- OrderConfirmationMessageComponent -->
<g id="node6" class="node">
<title>OrderConfirmationMessageComponent</title>
<polygon fill="#ffffb3" stroke="black" points="3237.39,-122 2998.61,-122 2998.61,-86 3237.39,-86 3237.39,-122"/>
<text text-anchor="middle" x="3118" y="-99.8" font-family="Times,serif" font-size="14.00">OrderConfirmationMessageComponent</text>
</g>
<!-- OrderConfirmationMessageComponent&#45;&gt;CheckoutModule -->
<g id="edge6" class="edge">
<title>OrderConfirmationMessageComponent&#45;&gt;CheckoutModule</title>
<path fill="none" stroke="black" d="M3118,-122.27C3118,-140.56 3118,-166 3118,-166 3118,-166 2025.69,-166 2025.69,-166"/>
<polygon fill="black" stroke="black" points="2025.69,-162.5 2015.69,-166 2025.69,-169.5 2025.69,-162.5"/>
</g>
<!-- PersonalDetailsNavigationComponent -->
<g id="node7" class="node">
<title>PersonalDetailsNavigationComponent</title>
<polygon fill="#ffffb3" stroke="black" points="2980.9,-122 2749.1,-122 2749.1,-86 2980.9,-86 2980.9,-122"/>
<text text-anchor="middle" x="2865" y="-99.8" font-family="Times,serif" font-size="14.00">PersonalDetailsNavigationComponent</text>
</g>
<!-- PersonalDetailsNavigationComponent&#45;&gt;CheckoutModule -->
<g id="edge7" class="edge">
<title>PersonalDetailsNavigationComponent&#45;&gt;CheckoutModule</title>
<path fill="none" stroke="black" d="M2865,-122.02C2865,-139.37 2865,-163 2865,-163 2865,-163 2025.67,-163 2025.67,-163"/>
<polygon fill="black" stroke="black" points="2025.67,-159.5 2015.67,-163 2025.67,-166.5 2025.67,-159.5"/>
</g>
<!-- QuoteReviewComponent -->
<g id="node8" class="node">
<title>QuoteReviewComponent</title>
<polygon fill="#ffffb3" stroke="black" points="2731.31,-122 2572.69,-122 2572.69,-86 2731.31,-86 2731.31,-122"/>
<text text-anchor="middle" x="2652" y="-99.8" font-family="Times,serif" font-size="14.00">QuoteReviewComponent</text>
</g>
<!-- QuoteReviewComponent&#45;&gt;CheckoutModule -->
<g id="edge8" class="edge">
<title>QuoteReviewComponent&#45;&gt;CheckoutModule</title>
<path fill="none" stroke="black" d="M2624.52,-122.04C2624.52,-138.73 2624.52,-161 2624.52,-161 2624.52,-161 2025.74,-161 2025.74,-161"/>
<polygon fill="black" stroke="black" points="2025.74,-157.5 2015.74,-161 2025.74,-164.5 2025.74,-157.5"/>
</g>
<!-- ReferredQuoteDialogComponent -->
<g id="node9" class="node">
<title>ReferredQuoteDialogComponent</title>
<polygon fill="#ffffb3" stroke="black" points="2555.11,-122 2352.89,-122 2352.89,-86 2555.11,-86 2555.11,-122"/>
<text text-anchor="middle" x="2454" y="-99.8" font-family="Times,serif" font-size="14.00">ReferredQuoteDialogComponent</text>
</g>
<!-- ReferredQuoteDialogComponent&#45;&gt;CheckoutModule -->
<g id="edge9" class="edge">
<title>ReferredQuoteDialogComponent&#45;&gt;CheckoutModule</title>
<path fill="none" stroke="black" d="M2413.08,-122.01C2413.08,-138.05 2413.08,-159 2413.08,-159 2413.08,-159 2026.05,-159 2026.05,-159"/>
<polygon fill="black" stroke="black" points="2026.05,-155.5 2016.05,-159 2026.05,-162.5 2026.05,-155.5"/>
</g>
<!-- BindQuoteDialogComponent  -->
<g id="node19" class="node">
<title>BindQuoteDialogComponent </title>
<polygon fill="#fb8072" stroke="black" points="2676.37,-252 2491.63,-252 2491.63,-216 2676.37,-216 2676.37,-252"/>
<text text-anchor="middle" x="2584" y="-229.8" font-family="Times,serif" font-size="14.00">BindQuoteDialogComponent </text>
</g>
<!-- CheckoutModule&#45;&gt;BindQuoteDialogComponent  -->
<g id="edge18" class="edge">
<title>CheckoutModule&#45;&gt;BindQuoteDialogComponent </title>
<path fill="none" stroke="black" stroke-dasharray="5,2" d="M2015.72,-180C2158.88,-180 2523.56,-180 2523.56,-180 2523.56,-180 2523.56,-205.72 2523.56,-205.72"/>
<polygon fill="black" stroke="black" points="2520.06,-205.72 2523.56,-215.72 2527.06,-205.72 2520.06,-205.72"/>
</g>
<!-- FSPaymentMethodComponent  -->
<g id="node20" class="node">
<title>FSPaymentMethodComponent </title>
<polygon fill="#fb8072" stroke="black" points="2473.44,-252 2280.56,-252 2280.56,-216 2473.44,-216 2473.44,-252"/>
<text text-anchor="middle" x="2377" y="-229.8" font-family="Times,serif" font-size="14.00">FSPaymentMethodComponent </text>
</g>
<!-- CheckoutModule&#45;&gt;FSPaymentMethodComponent  -->
<g id="edge19" class="edge">
<title>CheckoutModule&#45;&gt;FSPaymentMethodComponent </title>
<path fill="none" stroke="black" stroke-dasharray="5,2" d="M2015.73,-183C2113.87,-183 2304.92,-183 2304.92,-183 2304.92,-183 2304.92,-205.88 2304.92,-205.88"/>
<polygon fill="black" stroke="black" points="2301.42,-205.88 2304.92,-215.88 2308.42,-205.88 2301.42,-205.88"/>
</g>
<!-- FinalReviewComponent  -->
<g id="node21" class="node">
<title>FinalReviewComponent </title>
<polygon fill="#fb8072" stroke="black" points="2262.37,-252 2105.63,-252 2105.63,-216 2262.37,-216 2262.37,-252"/>
<text text-anchor="middle" x="2184" y="-229.8" font-family="Times,serif" font-size="14.00">FinalReviewComponent </text>
</g>
<!-- CheckoutModule&#45;&gt;FinalReviewComponent  -->
<g id="edge20" class="edge">
<title>CheckoutModule&#45;&gt;FinalReviewComponent </title>
<path fill="none" stroke="black" stroke-dasharray="5,2" d="M2015.61,-185C2071.74,-185 2149.4,-185 2149.4,-185 2149.4,-185 2149.4,-205.75 2149.4,-205.75"/>
<polygon fill="black" stroke="black" points="2145.9,-205.75 2149.4,-215.75 2152.9,-205.75 2145.9,-205.75"/>
</g>
<!-- LegalModule  -->
<g id="node22" class="node">
<title>LegalModule </title>
<polygon fill="#fb8072" stroke="black" points="2087.42,-252 1992.58,-252 1992.58,-216 2087.42,-216 2087.42,-252"/>
<text text-anchor="middle" x="2040" y="-229.8" font-family="Times,serif" font-size="14.00">LegalModule </text>
</g>
<!-- CheckoutModule&#45;&gt;LegalModule  -->
<g id="edge21" class="edge">
<title>CheckoutModule&#45;&gt;LegalModule </title>
<path fill="none" stroke="black" stroke-dasharray="5,2" d="M2004.07,-187.11C2004.07,-187.11 2004.07,-205.99 2004.07,-205.99"/>
<polygon fill="black" stroke="black" points="2000.57,-205.99 2004.07,-215.99 2007.57,-205.99 2000.57,-205.99"/>
</g>
<!-- OrderConfirmationComponent  -->
<g id="node23" class="node">
<title>OrderConfirmationComponent </title>
<polygon fill="#fb8072" stroke="black" points="1974.41,-252 1781.59,-252 1781.59,-216 1974.41,-216 1974.41,-252"/>
<text text-anchor="middle" x="1878" y="-229.8" font-family="Times,serif" font-size="14.00">OrderConfirmationComponent </text>
</g>
<!-- CheckoutModule&#45;&gt;OrderConfirmationComponent  -->
<g id="edge22" class="edge">
<title>CheckoutModule&#45;&gt;OrderConfirmationComponent </title>
<path fill="none" stroke="black" stroke-dasharray="5,2" d="M1938.43,-187.11C1938.43,-187.11 1938.43,-205.99 1938.43,-205.99"/>
<polygon fill="black" stroke="black" points="1934.93,-205.99 1938.43,-215.99 1941.93,-205.99 1934.93,-205.99"/>
</g>
<!-- QuoteReviewComponent  -->
<g id="node24" class="node">
<title>QuoteReviewComponent </title>
<polygon fill="#fb8072" stroke="black" points="1763.81,-252 1602.19,-252 1602.19,-216 1763.81,-216 1763.81,-252"/>
<text text-anchor="middle" x="1683" y="-229.8" font-family="Times,serif" font-size="14.00">QuoteReviewComponent </text>
</g>
<!-- CheckoutModule&#45;&gt;QuoteReviewComponent  -->
<g id="edge23" class="edge">
<title>CheckoutModule&#45;&gt;QuoteReviewComponent </title>
<path fill="none" stroke="black" stroke-dasharray="5,2" d="M1902.11,-185C1833.97,-185 1728.87,-185 1728.87,-185 1728.87,-185 1728.87,-205.75 1728.87,-205.75"/>
<polygon fill="black" stroke="black" points="1725.37,-205.75 1728.87,-215.75 1732.37,-205.75 1725.37,-205.75"/>
</g>
<!-- ReferredQuoteDialogComponent  -->
<g id="node25" class="node">
<title>ReferredQuoteDialogComponent </title>
<polygon fill="#fb8072" stroke="black" points="1584.11,-252 1377.89,-252 1377.89,-216 1584.11,-216 1584.11,-252"/>
<text text-anchor="middle" x="1481" y="-229.8" font-family="Times,serif" font-size="14.00">ReferredQuoteDialogComponent </text>
</g>
<!-- CheckoutModule&#45;&gt;ReferredQuoteDialogComponent  -->
<g id="edge24" class="edge">
<title>CheckoutModule&#45;&gt;ReferredQuoteDialogComponent </title>
<path fill="none" stroke="black" stroke-dasharray="5,2" d="M1902.38,-183C1795.63,-183 1575.25,-183 1575.25,-183 1575.25,-183 1575.25,-205.88 1575.25,-205.88"/>
<polygon fill="black" stroke="black" points="1571.75,-205.88 1575.25,-215.88 1578.75,-205.88 1571.75,-205.88"/>
</g>
<!-- UserIdentificationModule  -->
<g id="node26" class="node">
<title>UserIdentificationModule </title>
<polygon fill="#fb8072" stroke="black" points="1359.39,-252 1194.61,-252 1194.61,-216 1359.39,-216 1359.39,-252"/>
<text text-anchor="middle" x="1277" y="-229.8" font-family="Times,serif" font-size="14.00">UserIdentificationModule </text>
</g>
<!-- CheckoutModule&#45;&gt;UserIdentificationModule  -->
<g id="edge25" class="edge">
<title>CheckoutModule&#45;&gt;UserIdentificationModule </title>
<path fill="none" stroke="black" stroke-dasharray="5,2" d="M1902.35,-180C1743.92,-180 1307.81,-180 1307.81,-180 1307.81,-180 1307.81,-205.72 1307.81,-205.72"/>
<polygon fill="black" stroke="black" points="1304.31,-205.72 1307.81,-215.72 1311.31,-205.72 1304.31,-205.72"/>
</g>
<!-- AccordionModule -->
<g id="node11" class="node">
<title>AccordionModule</title>
<polygon fill="#8dd3c7" stroke="black" points="2329.14,-122 2326.14,-126 2305.14,-126 2302.14,-122 2210.86,-122 2210.86,-86 2329.14,-86 2329.14,-122"/>
<text text-anchor="middle" x="2270" y="-99.8" font-family="Times,serif" font-size="14.00">AccordionModule</text>
</g>
<!-- AccordionModule&#45;&gt;CheckoutModule -->
<g id="edge10" class="edge">
<title>AccordionModule&#45;&gt;CheckoutModule</title>
<path fill="none" stroke="black" d="M2236.43,-122.19C2236.43,-137.18 2236.43,-156 2236.43,-156 2236.43,-156 2025.81,-156 2025.81,-156"/>
<polygon fill="black" stroke="black" points="2025.81,-152.5 2015.81,-156 2025.81,-159.5 2025.81,-152.5"/>
</g>
<!-- AddOptionsModule -->
<g id="node12" class="node">
<title>AddOptionsModule</title>
<polygon fill="#8dd3c7" stroke="black" points="2192.99,-122 2189.99,-126 2168.99,-126 2165.99,-122 2065.01,-122 2065.01,-86 2192.99,-86 2192.99,-122"/>
<text text-anchor="middle" x="2129" y="-99.8" font-family="Times,serif" font-size="14.00">AddOptionsModule</text>
</g>
<!-- AddOptionsModule&#45;&gt;CheckoutModule -->
<g id="edge11" class="edge">
<title>AddOptionsModule&#45;&gt;CheckoutModule</title>
<path fill="none" stroke="black" d="M2076.23,-122.05C2076.23,-136.37 2076.23,-154 2076.23,-154 2076.23,-154 2025.9,-154 2025.9,-154"/>
<polygon fill="black" stroke="black" points="2025.9,-150.5 2015.9,-154 2025.9,-157.5 2025.9,-150.5"/>
</g>
<!-- FSCheckoutProgressModule -->
<g id="node13" class="node">
<title>FSCheckoutProgressModule</title>
<polygon fill="#8dd3c7" stroke="black" points="2047.48,-122 2044.48,-126 2023.48,-126 2020.48,-122 1870.52,-122 1870.52,-86 2047.48,-86 2047.48,-122"/>
<text text-anchor="middle" x="1959" y="-99.8" font-family="Times,serif" font-size="14.00">FSCheckoutProgressModule</text>
</g>
<!-- FSCheckoutProgressModule&#45;&gt;CheckoutModule -->
<g id="edge12" class="edge">
<title>FSCheckoutProgressModule&#45;&gt;CheckoutModule</title>
<path fill="none" stroke="black" d="M1959,-122.11C1959,-122.11 1959,-140.99 1959,-140.99"/>
<polygon fill="black" stroke="black" points="1955.5,-140.99 1959,-150.99 1962.5,-140.99 1955.5,-140.99"/>
</g>
<!-- FSCheckoutStoreModule -->
<g id="node14" class="node">
<title>FSCheckoutStoreModule</title>
<polygon fill="#8dd3c7" stroke="black" points="1852.32,-122 1849.32,-126 1828.32,-126 1825.32,-122 1693.68,-122 1693.68,-86 1852.32,-86 1852.32,-122"/>
<text text-anchor="middle" x="1773" y="-99.8" font-family="Times,serif" font-size="14.00">FSCheckoutStoreModule</text>
</g>
<!-- FSCheckoutStoreModule&#45;&gt;CheckoutModule -->
<g id="edge13" class="edge">
<title>FSCheckoutStoreModule&#45;&gt;CheckoutModule</title>
<path fill="none" stroke="black" d="M1816.85,-122.05C1816.85,-136.37 1816.85,-154 1816.85,-154 1816.85,-154 1892,-154 1892,-154"/>
<polygon fill="black" stroke="black" points="1892,-157.5 1902,-154 1892,-150.5 1892,-157.5"/>
</g>
<!-- LegalModule -->
<g id="node15" class="node">
<title>LegalModule</title>
<polygon fill="#8dd3c7" stroke="black" points="1675.92,-122 1672.92,-126 1651.92,-126 1648.92,-122 1584.08,-122 1584.08,-86 1675.92,-86 1675.92,-122"/>
<text text-anchor="middle" x="1630" y="-99.8" font-family="Times,serif" font-size="14.00">LegalModule</text>
</g>
<!-- LegalModule&#45;&gt;CheckoutModule -->
<g id="edge14" class="edge">
<title>LegalModule&#45;&gt;CheckoutModule</title>
<path fill="none" stroke="black" d="M1638.9,-122.19C1638.9,-137.18 1638.9,-156 1638.9,-156 1638.9,-156 1892.14,-156 1892.14,-156"/>
<polygon fill="black" stroke="black" points="1892.14,-159.5 1902.14,-156 1892.14,-152.5 1892.14,-159.5"/>
</g>
<!-- MiniCartModule -->
<g id="node16" class="node">
<title>MiniCartModule</title>
<polygon fill="#8dd3c7" stroke="black" points="1566.38,-122 1563.38,-126 1542.38,-126 1539.38,-122 1455.62,-122 1455.62,-86 1566.38,-86 1566.38,-122"/>
<text text-anchor="middle" x="1511" y="-99.8" font-family="Times,serif" font-size="14.00">MiniCartModule</text>
</g>
<!-- MiniCartModule&#45;&gt;CheckoutModule -->
<g id="edge15" class="edge">
<title>MiniCartModule&#45;&gt;CheckoutModule</title>
<path fill="none" stroke="black" d="M1511,-122.01C1511,-138.05 1511,-159 1511,-159 1511,-159 1892.26,-159 1892.26,-159"/>
<polygon fill="black" stroke="black" points="1892.26,-162.5 1902.26,-159 1892.26,-155.5 1892.26,-162.5"/>
</g>
<!-- ProductConfigurationModule -->
<g id="node17" class="node">
<title>ProductConfigurationModule</title>
<polygon fill="#8dd3c7" stroke="black" points="1437.64,-122 1434.64,-126 1413.64,-126 1410.64,-122 1256.36,-122 1256.36,-86 1437.64,-86 1437.64,-122"/>
<text text-anchor="middle" x="1347" y="-99.8" font-family="Times,serif" font-size="14.00">ProductConfigurationModule</text>
</g>
<!-- ProductConfigurationModule&#45;&gt;CheckoutModule -->
<g id="edge16" class="edge">
<title>ProductConfigurationModule&#45;&gt;CheckoutModule</title>
<path fill="none" stroke="black" d="M1407.88,-122.04C1407.88,-138.73 1407.88,-161 1407.88,-161 1407.88,-161 1892.35,-161 1892.35,-161"/>
<polygon fill="black" stroke="black" points="1892.35,-164.5 1902.35,-161 1892.35,-157.5 1892.35,-164.5"/>
</g>
<!-- UserIdentificationModule -->
<g id="node18" class="node">
<title>UserIdentificationModule</title>
<polygon fill="#8dd3c7" stroke="black" points="1237.89,-122 1234.89,-126 1213.89,-126 1210.89,-122 1076.11,-122 1076.11,-86 1237.89,-86 1237.89,-122"/>
<text text-anchor="middle" x="1157" y="-99.8" font-family="Times,serif" font-size="14.00">UserIdentificationModule</text>
</g>
<!-- UserIdentificationModule&#45;&gt;CheckoutModule -->
<g id="edge17" class="edge">
<title>UserIdentificationModule&#45;&gt;CheckoutModule</title>
<path fill="none" stroke="black" d="M1216.12,-122.02C1216.12,-139.37 1216.12,-163 1216.12,-163 1216.12,-163 1892.25,-163 1892.25,-163"/>
<polygon fill="black" stroke="black" points="1892.25,-166.5 1902.25,-163 1892.25,-159.5 1892.25,-166.5"/>
</g>
<!-- CartConnector -->
<g id="node27" class="node">
<title>CartConnector</title>
<ellipse fill="#fdb462" stroke="black" cx="984" cy="-104" rx="67.78" ry="18"/>
<text text-anchor="middle" x="984" y="-99.8" font-family="Times,serif" font-size="14.00">CartConnector</text>
</g>
<!-- CartConnector&#45;&gt;CheckoutModule -->
<g id="edge26" class="edge">
<title>CartConnector&#45;&gt;CheckoutModule</title>
<path fill="none" stroke="black" d="M984,-122.27C984,-140.56 984,-166 984,-166 984,-166 1892.37,-166 1892.37,-166"/>
<polygon fill="black" stroke="black" points="1892.37,-169.5 1902.37,-166 1892.37,-162.5 1892.37,-169.5"/>
</g>
<!-- CategoryService -->
<g id="node28" class="node">
<title>CategoryService</title>
<ellipse fill="#fdb462" stroke="black" cx="823" cy="-104" rx="75.28" ry="18"/>
<text text-anchor="middle" x="823" y="-99.8" font-family="Times,serif" font-size="14.00">CategoryService</text>
</g>
<!-- CategoryService&#45;&gt;CheckoutModule -->
<g id="edge27" class="edge">
<title>CategoryService&#45;&gt;CheckoutModule</title>
<path fill="none" stroke="black" d="M823,-122.17C823,-141.09 823,-168 823,-168 823,-168 1892.28,-168 1892.28,-168"/>
<polygon fill="black" stroke="black" points="1892.28,-171.5 1902.28,-168 1892.28,-164.5 1892.28,-171.5"/>
</g>
<!-- CheckoutConnector -->
<g id="node29" class="node">
<title>CheckoutConnector</title>
<ellipse fill="#fdb462" stroke="black" cx="641" cy="-104" rx="88.05" ry="18"/>
<text text-anchor="middle" x="641" y="-99.8" font-family="Times,serif" font-size="14.00">CheckoutConnector</text>
</g>
<!-- CheckoutConnector&#45;&gt;CheckoutModule -->
<g id="edge28" class="edge">
<title>CheckoutConnector&#45;&gt;CheckoutModule</title>
<path fill="none" stroke="black" d="M641,-122.31C641,-142.15 641,-171 641,-171 641,-171 1892.37,-171 1892.37,-171"/>
<polygon fill="black" stroke="black" points="1892.37,-174.5 1902.37,-171 1892.37,-167.5 1892.37,-174.5"/>
</g>
<!-- FSCartService -->
<g id="node30" class="node">
<title>FSCartService</title>
<ellipse fill="#fdb462" stroke="black" cx="467" cy="-104" rx="67.21" ry="18"/>
<text text-anchor="middle" x="467" y="-99.8" font-family="Times,serif" font-size="14.00">FSCartService</text>
</g>
<!-- FSCartService&#45;&gt;CheckoutModule -->
<g id="edge29" class="edge">
<title>FSCartService&#45;&gt;CheckoutModule</title>
<path fill="none" stroke="black" d="M467,-122.13C467,-142.57 467,-173 467,-173 467,-173 1892.33,-173 1892.33,-173"/>
<polygon fill="black" stroke="black" points="1892.33,-176.5 1902.33,-173 1892.33,-169.5 1892.33,-176.5"/>
</g>
<!-- FSTranslationService -->
<g id="node31" class="node">
<title>FSTranslationService</title>
<ellipse fill="#fdb462" stroke="black" cx="287" cy="-104" rx="94.92" ry="18"/>
<text text-anchor="middle" x="287" y="-99.8" font-family="Times,serif" font-size="14.00">FSTranslationService</text>
</g>
<!-- FSTranslationService&#45;&gt;CheckoutModule -->
<g id="edge30" class="edge">
<title>FSTranslationService&#45;&gt;CheckoutModule</title>
<path fill="none" stroke="black" d="M287,-122.28C287,-143.32 287,-175 287,-175 287,-175 1891.93,-175 1891.93,-175"/>
<polygon fill="black" stroke="black" points="1891.93,-178.5 1901.93,-175 1891.93,-171.5 1891.93,-178.5"/>
</g>
<!-- QuoteConnector -->
<g id="node32" class="node">
<title>QuoteConnector</title>
<ellipse fill="#fdb462" stroke="black" cx="99" cy="-104" rx="74.72" ry="18"/>
<text text-anchor="middle" x="99" y="-99.8" font-family="Times,serif" font-size="14.00">QuoteConnector</text>
</g>
<!-- QuoteConnector&#45;&gt;CheckoutModule -->
<g id="edge31" class="edge">
<title>QuoteConnector&#45;&gt;CheckoutModule</title>
<path fill="none" stroke="black" d="M99,-122.29C99,-144.21 99,-178 99,-178 99,-178 1892.32,-178 1892.32,-178"/>
<polygon fill="black" stroke="black" points="1892.32,-181.5 1902.32,-178 1892.32,-174.5 1892.32,-181.5"/>
</g>
</g>
</svg>
