<?xml version="1.0" encoding="UTF-8" standalone="no"?>
<!DOCTYPE svg PUBLIC "-//W3C//DTD SVG 1.1//EN"
 "http://www.w3.org/Graphics/SVG/1.1/DTD/svg11.dtd">
<!-- Generated by graphviz version 2.44.1 (20200629.0846)
 -->
<!-- Title: dependencies Pages: 1 -->
<svg width="4083pt" height="284pt"
 viewBox="0.00 0.00 4083.00 284.00" xmlns="http://www.w3.org/2000/svg" xmlns:xlink="http://www.w3.org/1999/xlink">
<g id="graph0" class="graph" transform="scale(1 1) rotate(0) translate(4 280)">
<title>dependencies</title>
<polygon fill="white" stroke="transparent" points="-4,4 -4,-280 4079,-280 4079,4 -4,4"/>
<text text-anchor="start" x="2016.51" y="-42.4" font-family="sans-serif" font-weight="bold" font-size="14.00">Legend</text>
<polygon fill="#ffffb3" stroke="transparent" points="1803.5,-10 1803.5,-30 1823.5,-30 1823.5,-10 1803.5,-10"/>
<text text-anchor="start" x="1827.13" y="-15.4" font-family="sans-serif" font-size="14.00"> &#160;Declarations</text>
<polygon fill="#8dd3c7" stroke="transparent" points="1916.5,-10 1916.5,-30 1936.5,-30 1936.5,-10 1916.5,-10"/>
<text text-anchor="start" x="1940.23" y="-15.4" font-family="sans-serif" font-size="14.00"> &#160;Module</text>
<polygon fill="#80b1d3" stroke="transparent" points="2002.5,-10 2002.5,-30 2022.5,-30 2022.5,-10 2002.5,-10"/>
<text text-anchor="start" x="2026.28" y="-15.4" font-family="sans-serif" font-size="14.00"> &#160;Bootstrap</text>
<polygon fill="#fdb462" stroke="transparent" points="2099.5,-10 2099.5,-30 2119.5,-30 2119.5,-10 2099.5,-10"/>
<text text-anchor="start" x="2123.17" y="-15.4" font-family="sans-serif" font-size="14.00"> &#160;Providers</text>
<polygon fill="#fb8072" stroke="transparent" points="2195.5,-10 2195.5,-30 2215.5,-30 2215.5,-10 2195.5,-10"/>
<text text-anchor="start" x="2219.23" y="-15.4" font-family="sans-serif" font-size="14.00"> &#160;Exports</text>
<g id="clust1" class="cluster">
<title>cluster_CheckoutModule</title>
<polygon fill="none" stroke="black" stroke-dasharray="1,5" points="8,-70 8,-268 4067,-268 4067,-70 8,-70"/>
</g>
<g id="clust14" class="cluster">
<title>cluster_CheckoutModule_providers</title>
<polygon fill="none" stroke="black" points="3015,-78 3015,-130 4059,-130 4059,-78 3015,-78"/>
</g>
<g id="clust2" class="cluster">
<title>cluster_CheckoutModule_declarations</title>
<polygon fill="none" stroke="black" points="1293,-78 1293,-130 3007,-130 3007,-78 1293,-78"/>
</g>
<g id="clust11" class="cluster">
<title>cluster_CheckoutModule_imports</title>
<polygon fill="none" stroke="black" points="16,-78 16,-130 1285,-130 1285,-78 16,-78"/>
</g>
<g id="clust12" class="cluster">
<title>cluster_CheckoutModule_exports</title>
<polygon fill="none" stroke="black" points="1248,-208 1248,-260 2533,-260 2533,-208 1248,-208"/>
</g>
<!-- BindQuoteDialogComponent -->
<g id="node1" class="node">
<title>BindQuoteDialogComponent</title>
<polygon fill="#ffffb3" stroke="black" points="2999.37,-122 2818.63,-122 2818.63,-86 2999.37,-86 2999.37,-122"/>
<text text-anchor="middle" x="2909" y="-99.8" font-family="Times,serif" font-size="14.00">BindQuoteDialogComponent</text>
</g>
<!-- CheckoutModule -->
<g id="node9" class="node">
<title>CheckoutModule</title>
<polygon fill="#8dd3c7" stroke="black" points="1995.71,-187 1992.71,-191 1971.71,-191 1968.71,-187 1882.29,-187 1882.29,-151 1995.71,-151 1995.71,-187"/>
<text text-anchor="middle" x="1939" y="-164.8" font-family="Times,serif" font-size="14.00">CheckoutModule</text>
</g>
<!-- BindQuoteDialogComponent&#45;&gt;CheckoutModule -->
<g id="edge1" class="edge">
<title>BindQuoteDialogComponent&#45;&gt;CheckoutModule</title>
<path fill="none" stroke="black" d="M2909,-122.03C2909,-139.06 2909,-162 2909,-162 2909,-162 2005.7,-162 2005.7,-162"/>
<polygon fill="black" stroke="black" points="2005.7,-158.5 1995.7,-162 2005.7,-165.5 2005.7,-158.5"/>
</g>
<!-- ChooseCoverNavigationComponent -->
<g id="node2" class="node">
<title>ChooseCoverNavigationComponent</title>
<polygon fill="#ffffb3" stroke="black" points="2800.75,-122 2581.25,-122 2581.25,-86 2800.75,-86 2800.75,-122"/>
<text text-anchor="middle" x="2691" y="-99.8" font-family="Times,serif" font-size="14.00">ChooseCoverNavigationComponent</text>
</g>
<!-- ChooseCoverNavigationComponent&#45;&gt;CheckoutModule -->
<g id="edge2" class="edge">
<title>ChooseCoverNavigationComponent&#45;&gt;CheckoutModule</title>
<path fill="none" stroke="black" d="M2691,-122.01C2691,-138.05 2691,-159 2691,-159 2691,-159 2005.83,-159 2005.83,-159"/>
<polygon fill="black" stroke="black" points="2005.83,-155.5 1995.83,-159 2005.83,-162.5 2005.83,-155.5"/>
</g>
<!-- FinalReviewComponent -->
<g id="node3" class="node">
<title>FinalReviewComponent</title>
<polygon fill="#ffffb3" stroke="black" points="2563.37,-122 2410.63,-122 2410.63,-86 2563.37,-86 2563.37,-122"/>
<text text-anchor="middle" x="2487" y="-99.8" font-family="Times,serif" font-size="14.00">FinalReviewComponent</text>
</g>
<!-- FinalReviewComponent&#45;&gt;CheckoutModule -->
<g id="edge3" class="edge">
<title>FinalReviewComponent&#45;&gt;CheckoutModule</title>
<path fill="none" stroke="black" d="M2467.88,-122.24C2467.88,-137.57 2467.88,-157 2467.88,-157 2467.88,-157 2005.85,-157 2005.85,-157"/>
<polygon fill="black" stroke="black" points="2005.85,-153.5 1995.85,-157 2005.85,-160.5 2005.85,-153.5"/>
</g>
<!-- OrderConfirmationComponent -->
<g id="node4" class="node">
<title>OrderConfirmationComponent</title>
<polygon fill="#ffffb3" stroke="black" points="2392.91,-122 2203.09,-122 2203.09,-86 2392.91,-86 2392.91,-122"/>
<text text-anchor="middle" x="2298" y="-99.8" font-family="Times,serif" font-size="14.00">OrderConfirmationComponent</text>
</g>
<!-- OrderConfirmationComponent&#45;&gt;CheckoutModule -->
<g id="edge4" class="edge">
<title>OrderConfirmationComponent&#45;&gt;CheckoutModule</title>
<path fill="none" stroke="black" d="M2263.24,-122.05C2263.24,-136.37 2263.24,-154 2263.24,-154 2263.24,-154 2005.85,-154 2005.85,-154"/>
<polygon fill="black" stroke="black" points="2005.85,-150.5 1995.85,-154 2005.85,-157.5 2005.85,-150.5"/>
</g>
<!-- OrderConfirmationMessageComponent -->
<g id="node5" class="node">
<title>OrderConfirmationMessageComponent</title>
<polygon fill="#ffffb3" stroke="black" points="2185.39,-122 1946.61,-122 1946.61,-86 2185.39,-86 2185.39,-122"/>
<text text-anchor="middle" x="2066" y="-99.8" font-family="Times,serif" font-size="14.00">OrderConfirmationMessageComponent</text>
</g>
<!-- OrderConfirmationMessageComponent&#45;&gt;CheckoutModule -->
<g id="edge5" class="edge">
<title>OrderConfirmationMessageComponent&#45;&gt;CheckoutModule</title>
<path fill="none" stroke="black" d="M1971.2,-122.11C1971.2,-122.11 1971.2,-140.99 1971.2,-140.99"/>
<polygon fill="black" stroke="black" points="1967.7,-140.99 1971.2,-150.99 1974.7,-140.99 1967.7,-140.99"/>
</g>
<!-- PersonalDetailsNavigationComponent -->
<g id="node6" class="node">
<title>PersonalDetailsNavigationComponent</title>
<polygon fill="#ffffb3" stroke="black" points="1928.9,-122 1697.1,-122 1697.1,-86 1928.9,-86 1928.9,-122"/>
<text text-anchor="middle" x="1813" y="-99.8" font-family="Times,serif" font-size="14.00">PersonalDetailsNavigationComponent</text>
</g>
<!-- PersonalDetailsNavigationComponent&#45;&gt;CheckoutModule -->
<g id="edge6" class="edge">
<title>PersonalDetailsNavigationComponent&#45;&gt;CheckoutModule</title>
<path fill="none" stroke="black" d="M1905.55,-122.11C1905.55,-122.11 1905.55,-140.99 1905.55,-140.99"/>
<polygon fill="black" stroke="black" points="1902.05,-140.99 1905.55,-150.99 1909.05,-140.99 1902.05,-140.99"/>
</g>
<!-- QuoteReviewComponent -->
<g id="node7" class="node">
<title>QuoteReviewComponent</title>
<polygon fill="#ffffb3" stroke="black" points="1679.31,-122 1520.69,-122 1520.69,-86 1679.31,-86 1679.31,-122"/>
<text text-anchor="middle" x="1600" y="-99.8" font-family="Times,serif" font-size="14.00">QuoteReviewComponent</text>
</g>
<!-- QuoteReviewComponent&#45;&gt;CheckoutModule -->
<g id="edge7" class="edge">
<title>QuoteReviewComponent&#45;&gt;CheckoutModule</title>
<path fill="none" stroke="black" d="M1671.12,-122.05C1671.12,-136.37 1671.12,-154 1671.12,-154 1671.12,-154 1872.19,-154 1872.19,-154"/>
<polygon fill="black" stroke="black" points="1872.19,-157.5 1882.19,-154 1872.19,-150.5 1872.19,-157.5"/>
</g>
<!-- ReferredQuoteDialogComponent -->
<g id="node8" class="node">
<title>ReferredQuoteDialogComponent</title>
<polygon fill="#ffffb3" stroke="black" points="1503.11,-122 1300.89,-122 1300.89,-86 1503.11,-86 1503.11,-122"/>
<text text-anchor="middle" x="1402" y="-99.8" font-family="Times,serif" font-size="14.00">ReferredQuoteDialogComponent</text>
</g>
<!-- ReferredQuoteDialogComponent&#45;&gt;CheckoutModule -->
<g id="edge8" class="edge">
<title>ReferredQuoteDialogComponent&#45;&gt;CheckoutModule</title>
<path fill="none" stroke="black" d="M1471.12,-122.24C1471.12,-137.57 1471.12,-157 1471.12,-157 1471.12,-157 1872.1,-157 1872.1,-157"/>
<polygon fill="black" stroke="black" points="1872.1,-160.5 1882.1,-157 1872.1,-153.5 1872.1,-160.5"/>
</g>
<!-- BindQuoteDialogComponent  -->
<g id="node18" class="node">
<title>BindQuoteDialogComponent </title>
<polygon fill="#fb8072" stroke="black" points="2525.37,-252 2340.63,-252 2340.63,-216 2525.37,-216 2525.37,-252"/>
<text text-anchor="middle" x="2433" y="-229.8" font-family="Times,serif" font-size="14.00">BindQuoteDialogComponent </text>
</g>
<!-- CheckoutModule&#45;&gt;BindQuoteDialogComponent  -->
<g id="edge17" class="edge">
<title>CheckoutModule&#45;&gt;BindQuoteDialogComponent </title>
<path fill="none" stroke="black" stroke-dasharray="5,2" d="M1995.8,-180C2112.16,-180 2366.76,-180 2366.76,-180 2366.76,-180 2366.76,-205.72 2366.76,-205.72"/>
<polygon fill="black" stroke="black" points="2363.26,-205.72 2366.76,-215.72 2370.26,-205.72 2363.26,-205.72"/>
</g>
<!-- FinalReviewComponent  -->
<g id="node19" class="node">
<title>FinalReviewComponent </title>
<polygon fill="#fb8072" stroke="black" points="2323.37,-252 2166.63,-252 2166.63,-216 2323.37,-216 2323.37,-252"/>
<text text-anchor="middle" x="2245" y="-229.8" font-family="Times,serif" font-size="14.00">FinalReviewComponent </text>
</g>
<!-- CheckoutModule&#45;&gt;FinalReviewComponent  -->
<g id="edge18" class="edge">
<title>CheckoutModule&#45;&gt;FinalReviewComponent </title>
<path fill="none" stroke="black" stroke-dasharray="5,2" d="M1995.77,-182C2065.88,-182 2176,-182 2176,-182 2176,-182 2176,-205.81 2176,-205.81"/>
<polygon fill="black" stroke="black" points="2172.5,-205.81 2176,-215.81 2179.5,-205.81 2172.5,-205.81"/>
</g>
<!-- LegalModule  -->
<g id="node20" class="node">
<title>LegalModule </title>
<polygon fill="#fb8072" stroke="black" points="2148.42,-252 2053.58,-252 2053.58,-216 2148.42,-216 2148.42,-252"/>
<text text-anchor="middle" x="2101" y="-229.8" font-family="Times,serif" font-size="14.00">LegalModule </text>
</g>
<!-- CheckoutModule&#45;&gt;LegalModule  -->
<g id="edge19" class="edge">
<title>CheckoutModule&#45;&gt;LegalModule </title>
<path fill="none" stroke="black" stroke-dasharray="5,2" d="M1995.66,-185C2042.38,-185 2101,-185 2101,-185 2101,-185 2101,-205.75 2101,-205.75"/>
<polygon fill="black" stroke="black" points="2097.5,-205.75 2101,-215.75 2104.5,-205.75 2097.5,-205.75"/>
</g>
<!-- OrderConfirmationComponent  -->
<g id="node21" class="node">
<title>OrderConfirmationComponent </title>
<polygon fill="#fb8072" stroke="black" points="2035.41,-252 1842.59,-252 1842.59,-216 2035.41,-216 2035.41,-252"/>
<text text-anchor="middle" x="1939" y="-229.8" font-family="Times,serif" font-size="14.00">OrderConfirmationComponent </text>
</g>
<!-- CheckoutModule&#45;&gt;OrderConfirmationComponent  -->
<g id="edge20" class="edge">
<title>CheckoutModule&#45;&gt;OrderConfirmationComponent </title>
<path fill="none" stroke="black" stroke-dasharray="5,2" d="M1939,-187.11C1939,-187.11 1939,-205.99 1939,-205.99"/>
<polygon fill="black" stroke="black" points="1935.5,-205.99 1939,-215.99 1942.5,-205.99 1935.5,-205.99"/>
</g>
<!-- QuoteReviewComponent  -->
<g id="node22" class="node">
<title>QuoteReviewComponent </title>
<polygon fill="#fb8072" stroke="black" points="1824.81,-252 1663.19,-252 1663.19,-216 1824.81,-216 1824.81,-252"/>
<text text-anchor="middle" x="1744" y="-229.8" font-family="Times,serif" font-size="14.00">QuoteReviewComponent </text>
</g>
<!-- CheckoutModule&#45;&gt;QuoteReviewComponent  -->
<g id="edge21" class="edge">
<title>CheckoutModule&#45;&gt;QuoteReviewComponent </title>
<path fill="none" stroke="black" stroke-dasharray="5,2" d="M1882.22,-185C1830.16,-185 1761.1,-185 1761.1,-185 1761.1,-185 1761.1,-205.75 1761.1,-205.75"/>
<polygon fill="black" stroke="black" points="1757.6,-205.75 1761.1,-215.75 1764.6,-205.75 1757.6,-205.75"/>
</g>
<!-- ReferredQuoteDialogComponent  -->
<g id="node23" class="node">
<title>ReferredQuoteDialogComponent </title>
<polygon fill="#fb8072" stroke="black" points="1645.11,-252 1438.89,-252 1438.89,-216 1645.11,-216 1645.11,-252"/>
<text text-anchor="middle" x="1542" y="-229.8" font-family="Times,serif" font-size="14.00">ReferredQuoteDialogComponent </text>
</g>
<!-- CheckoutModule&#45;&gt;ReferredQuoteDialogComponent  -->
<g id="edge22" class="edge">
<title>CheckoutModule&#45;&gt;ReferredQuoteDialogComponent </title>
<path fill="none" stroke="black" stroke-dasharray="5,2" d="M1882.19,-182C1781.67,-182 1582.95,-182 1582.95,-182 1582.95,-182 1582.95,-205.81 1582.95,-205.81"/>
<polygon fill="black" stroke="black" points="1579.45,-205.81 1582.95,-215.81 1586.45,-205.81 1579.45,-205.81"/>
</g>
<!-- UserIdentificationModule  -->
<g id="node24" class="node">
<title>UserIdentificationModule </title>
<polygon fill="#fb8072" stroke="black" points="1420.39,-252 1255.61,-252 1255.61,-216 1420.39,-216 1420.39,-252"/>
<text text-anchor="middle" x="1338" y="-229.8" font-family="Times,serif" font-size="14.00">UserIdentificationModule </text>
</g>
<!-- CheckoutModule&#45;&gt;UserIdentificationModule  -->
<g id="edge23" class="edge">
<title>CheckoutModule&#45;&gt;UserIdentificationModule </title>
<path fill="none" stroke="black" stroke-dasharray="5,2" d="M1882.22,-180C1736.48,-180 1360.57,-180 1360.57,-180 1360.57,-180 1360.57,-205.72 1360.57,-205.72"/>
<polygon fill="black" stroke="black" points="1357.07,-205.72 1360.57,-215.72 1364.07,-205.72 1357.07,-205.72"/>
</g>
<!-- AccordionModule -->
<g id="node10" class="node">
<title>AccordionModule</title>
<polygon fill="#8dd3c7" stroke="black" points="1277.14,-122 1274.14,-126 1253.14,-126 1250.14,-122 1158.86,-122 1158.86,-86 1277.14,-86 1277.14,-122"/>
<text text-anchor="middle" x="1218" y="-99.8" font-family="Times,serif" font-size="14.00">AccordionModule</text>
</g>
<!-- AccordionModule&#45;&gt;CheckoutModule -->
<g id="edge9" class="edge">
<title>AccordionModule&#45;&gt;CheckoutModule</title>
<path fill="none" stroke="black" d="M1266.44,-122.01C1266.44,-138.05 1266.44,-159 1266.44,-159 1266.44,-159 1872.24,-159 1872.24,-159"/>
<polygon fill="black" stroke="black" points="1872.24,-162.5 1882.24,-159 1872.24,-155.5 1872.24,-162.5"/>
</g>
<!-- AddOptionsModule -->
<g id="node11" class="node">
<title>AddOptionsModule</title>
<polygon fill="#8dd3c7" stroke="black" points="1140.99,-122 1137.99,-126 1116.99,-126 1113.99,-122 1013.01,-122 1013.01,-86 1140.99,-86 1140.99,-122"/>
<text text-anchor="middle" x="1077" y="-99.8" font-family="Times,serif" font-size="14.00">AddOptionsModule</text>
</g>
<!-- AddOptionsModule&#45;&gt;CheckoutModule -->
<g id="edge10" class="edge">
<title>AddOptionsModule&#45;&gt;CheckoutModule</title>
<path fill="none" stroke="black" d="M1077,-122.03C1077,-139.06 1077,-162 1077,-162 1077,-162 1872.11,-162 1872.11,-162"/>
<polygon fill="black" stroke="black" points="1872.11,-165.5 1882.11,-162 1872.11,-158.5 1872.11,-165.5"/>
</g>
<!-- FSCheckoutProgressModule -->
<g id="node12" class="node">
<title>FSCheckoutProgressModule</title>
<polygon fill="#8dd3c7" stroke="black" points="995.48,-122 992.48,-126 971.48,-126 968.48,-122 818.52,-122 818.52,-86 995.48,-86 995.48,-122"/>
<text text-anchor="middle" x="907" y="-99.8" font-family="Times,serif" font-size="14.00">FSCheckoutProgressModule</text>
</g>
<!-- FSCheckoutProgressModule&#45;&gt;CheckoutModule -->
<g id="edge11" class="edge">
<title>FSCheckoutProgressModule&#45;&gt;CheckoutModule</title>
<path fill="none" stroke="black" d="M907,-122C907,-139.68 907,-164 907,-164 907,-164 1872.05,-164 1872.05,-164"/>
<polygon fill="black" stroke="black" points="1872.05,-167.5 1882.05,-164 1872.05,-160.5 1872.05,-167.5"/>
</g>
<!-- FSCheckoutStoreModule -->
<g id="node13" class="node">
<title>FSCheckoutStoreModule</title>
<polygon fill="#8dd3c7" stroke="black" points="800.32,-122 797.32,-126 776.32,-126 773.32,-122 641.68,-122 641.68,-86 800.32,-86 800.32,-122"/>
<text text-anchor="middle" x="721" y="-99.8" font-family="Times,serif" font-size="14.00">FSCheckoutStoreModule</text>
</g>
<!-- FSCheckoutStoreModule&#45;&gt;CheckoutModule -->
<g id="edge12" class="edge">
<title>FSCheckoutStoreModule&#45;&gt;CheckoutModule</title>
<path fill="none" stroke="black" d="M721,-122.22C721,-140.83 721,-167 721,-167 721,-167 1872.29,-167 1872.29,-167"/>
<polygon fill="black" stroke="black" points="1872.29,-170.5 1882.29,-167 1872.29,-163.5 1872.29,-170.5"/>
</g>
<!-- LegalModule -->
<g id="node14" class="node">
<title>LegalModule</title>
<polygon fill="#8dd3c7" stroke="black" points="623.92,-122 620.92,-126 599.92,-126 596.92,-122 532.08,-122 532.08,-86 623.92,-86 623.92,-122"/>
<text text-anchor="middle" x="578" y="-99.8" font-family="Times,serif" font-size="14.00">LegalModule</text>
</g>
<!-- LegalModule&#45;&gt;CheckoutModule -->
<g id="edge13" class="edge">
<title>LegalModule&#45;&gt;CheckoutModule</title>
<path fill="none" stroke="black" d="M578,-122.11C578,-141.34 578,-169 578,-169 578,-169 1872.25,-169 1872.25,-169"/>
<polygon fill="black" stroke="black" points="1872.25,-172.5 1882.25,-169 1872.25,-165.5 1872.25,-172.5"/>
</g>
<!-- MiniCartModule -->
<g id="node15" class="node">
<title>MiniCartModule</title>
<polygon fill="#8dd3c7" stroke="black" points="514.38,-122 511.38,-126 490.38,-126 487.38,-122 403.62,-122 403.62,-86 514.38,-86 514.38,-122"/>
<text text-anchor="middle" x="459" y="-99.8" font-family="Times,serif" font-size="14.00">MiniCartModule</text>
</g>
<!-- MiniCartModule&#45;&gt;CheckoutModule -->
<g id="edge14" class="edge">
<title>MiniCartModule&#45;&gt;CheckoutModule</title>
<path fill="none" stroke="black" d="M459,-122.22C459,-142.37 459,-172 459,-172 459,-172 1872.34,-172 1872.34,-172"/>
<polygon fill="black" stroke="black" points="1872.34,-175.5 1882.34,-172 1872.34,-168.5 1872.34,-175.5"/>
</g>
<!-- ProductConfigurationModule -->
<g id="node16" class="node">
<title>ProductConfigurationModule</title>
<polygon fill="#8dd3c7" stroke="black" points="385.64,-122 382.64,-126 361.64,-126 358.64,-122 204.36,-122 204.36,-86 385.64,-86 385.64,-122"/>
<text text-anchor="middle" x="295" y="-99.8" font-family="Times,serif" font-size="14.00">ProductConfigurationModule</text>
</g>
<!-- ProductConfigurationModule&#45;&gt;CheckoutModule -->
<g id="edge15" class="edge">
<title>ProductConfigurationModule&#45;&gt;CheckoutModule</title>
<path fill="none" stroke="black" d="M295,-122.28C295,-143.32 295,-175 295,-175 295,-175 1871.93,-175 1871.93,-175"/>
<polygon fill="black" stroke="black" points="1871.93,-178.5 1881.93,-175 1871.93,-171.5 1871.93,-178.5"/>
</g>
<!-- UserIdentificationModule -->
<g id="node17" class="node">
<title>UserIdentificationModule</title>
<polygon fill="#8dd3c7" stroke="black" points="185.89,-122 182.89,-126 161.89,-126 158.89,-122 24.11,-122 24.11,-86 185.89,-86 185.89,-122"/>
<text text-anchor="middle" x="105" y="-99.8" font-family="Times,serif" font-size="14.00">UserIdentificationModule</text>
</g>
<!-- UserIdentificationModule&#45;&gt;CheckoutModule -->
<g id="edge16" class="edge">
<title>UserIdentificationModule&#45;&gt;CheckoutModule</title>
<path fill="none" stroke="black" d="M105,-122.04C105,-143.66 105,-177 105,-177 105,-177 1872.35,-177 1872.35,-177"/>
<polygon fill="black" stroke="black" points="1872.35,-180.5 1882.35,-177 1872.35,-173.5 1872.35,-180.5"/>
</g>
<!-- CartConnector -->
<g id="node25" class="node">
<title>CartConnector</title>
<ellipse fill="#fdb462" stroke="black" cx="3983" cy="-104" rx="67.78" ry="18"/>
<text text-anchor="middle" x="3983" y="-99.8" font-family="Times,serif" font-size="14.00">CartConnector</text>
</g>
<!-- CartConnector&#45;&gt;CheckoutModule -->
<g id="edge24" class="edge">
<title>CartConnector&#45;&gt;CheckoutModule</title>
<path fill="none" stroke="black" d="M3983,-122.04C3983,-143.66 3983,-177 3983,-177 3983,-177 2005.8,-177 2005.8,-177"/>
<polygon fill="black" stroke="black" points="2005.8,-173.5 1995.8,-177 2005.8,-180.5 2005.8,-173.5"/>
</g>
<!-- CategoryService -->
<g id="node26" class="node">
<title>CategoryService</title>
<ellipse fill="#fdb462" stroke="black" cx="3822" cy="-104" rx="75.28" ry="18"/>
<text text-anchor="middle" x="3822" y="-99.8" font-family="Times,serif" font-size="14.00">CategoryService</text>
</g>
<!-- CategoryService&#45;&gt;CheckoutModule -->
<g id="edge25" class="edge">
<title>CategoryService&#45;&gt;CheckoutModule</title>
<path fill="none" stroke="black" d="M3822,-122.28C3822,-143.32 3822,-175 3822,-175 3822,-175 2005.61,-175 2005.61,-175"/>
<polygon fill="black" stroke="black" points="2005.61,-171.5 1995.61,-175 2005.61,-178.5 2005.61,-171.5"/>
</g>
<!-- CheckoutConnector -->
<g id="node27" class="node">
<title>CheckoutConnector</title>
<ellipse fill="#fdb462" stroke="black" cx="3640" cy="-104" rx="88.05" ry="18"/>
<text text-anchor="middle" x="3640" y="-99.8" font-family="Times,serif" font-size="14.00">CheckoutConnector</text>
</g>
<!-- CheckoutConnector&#45;&gt;CheckoutModule -->
<g id="edge26" class="edge">
<title>CheckoutConnector&#45;&gt;CheckoutModule</title>
<path fill="none" stroke="black" d="M3640,-122.22C3640,-142.37 3640,-172 3640,-172 3640,-172 2006.08,-172 2006.08,-172"/>
<polygon fill="black" stroke="black" points="2006.08,-168.5 1996.08,-172 2006.08,-175.5 2006.08,-168.5"/>
</g>
<!-- FSCartService -->
<g id="node28" class="node">
<title>FSCartService</title>
<ellipse fill="#fdb462" stroke="black" cx="3466" cy="-104" rx="67.21" ry="18"/>
<text text-anchor="middle" x="3466" y="-99.8" font-family="Times,serif" font-size="14.00">FSCartService</text>
</g>
<!-- FSCartService&#45;&gt;CheckoutModule -->
<g id="edge27" class="edge">
<title>FSCartService&#45;&gt;CheckoutModule</title>
<path fill="none" stroke="black" d="M3466,-122.11C3466,-141.34 3466,-169 3466,-169 3466,-169 2005.61,-169 2005.61,-169"/>
<polygon fill="black" stroke="black" points="2005.61,-165.5 1995.61,-169 2005.61,-172.5 2005.61,-165.5"/>
</g>
<!-- FSTranslationService -->
<g id="node29" class="node">
<title>FSTranslationService</title>
<ellipse fill="#fdb462" stroke="black" cx="3286" cy="-104" rx="94.92" ry="18"/>
<text text-anchor="middle" x="3286" y="-99.8" font-family="Times,serif" font-size="14.00">FSTranslationService</text>
</g>
<!-- FSTranslationService&#45;&gt;CheckoutModule -->
<g id="edge28" class="edge">
<title>FSTranslationService&#45;&gt;CheckoutModule</title>
<path fill="none" stroke="black" d="M3286,-122.22C3286,-140.83 3286,-167 3286,-167 3286,-167 2006.02,-167 2006.02,-167"/>
<polygon fill="black" stroke="black" points="2006.02,-163.5 1996.02,-167 2006.02,-170.5 2006.02,-163.5"/>
</g>
<!-- QuoteConnector -->
<g id="node30" class="node">
<title>QuoteConnector</title>
<ellipse fill="#fdb462" stroke="black" cx="3098" cy="-104" rx="74.72" ry="18"/>
<text text-anchor="middle" x="3098" y="-99.8" font-family="Times,serif" font-size="14.00">QuoteConnector</text>
</g>
<!-- QuoteConnector&#45;&gt;CheckoutModule -->
<g id="edge29" class="edge">
<title>QuoteConnector&#45;&gt;CheckoutModule</title>
<path fill="none" stroke="black" d="M3098,-122C3098,-139.68 3098,-164 3098,-164 3098,-164 2005.69,-164 2005.69,-164"/>
<polygon fill="black" stroke="black" points="2005.69,-160.5 1995.69,-164 2005.69,-167.5 2005.69,-160.5"/>
</g>
</g>
</svg>
