<?xml version="1.0" encoding="UTF-8" standalone="no"?>
<!DOCTYPE svg PUBLIC "-//W3C//DTD SVG 1.1//EN"
 "http://www.w3.org/Graphics/SVG/1.1/DTD/svg11.dtd">
<!-- Generated by graphviz version 2.47.3 (20210619.1520)
 -->
<!-- Title: dependencies Pages: 1 -->
<svg width="260pt" height="247pt"
 viewBox="0.00 0.00 260.00 246.80" xmlns="http://www.w3.org/2000/svg" xmlns:xlink="http://www.w3.org/1999/xlink">
<g id="graph0" class="graph" transform="scale(1 1) rotate(0) translate(4 242.8)">
<title>dependencies</title>
<polygon fill="white" stroke="transparent" points="-4,4 -4,-242.8 256,-242.8 256,4 -4,4"/>
<text text-anchor="middle" x="126" y="-8.2" font-family="sans-serif" font-size="14.00">dependencies</text>
<g id="clust1" class="cluster">
<title>cluster_SyncPilotModule</title>
<polygon fill="none" stroke="black" stroke-dasharray="1,5" points="8,-32.8 8,-230.8 244,-230.8 244,-32.8 8,-32.8"/>
</g>
<g id="clust5" class="cluster">
<title>cluster_SyncPilotModule_exports</title>
<polygon fill="none" stroke="black" points="16,-170.8 16,-222.8 236,-222.8 236,-170.8 16,-170.8"/>
</g>
<g id="clust2" class="cluster">
<title>cluster_SyncPilotModule_declarations</title>
<polygon fill="none" stroke="black" points="18,-40.8 18,-92.8 234,-92.8 234,-40.8 18,-40.8"/>
</g>
<!-- SyncPilotConnectionComponent -->
<g id="node1" class="node">
<title>SyncPilotConnectionComponent</title>
<polygon fill="#ffffb3" stroke="black" points="226.33,-84.8 25.67,-84.8 25.67,-48.8 226.33,-48.8 226.33,-84.8"/>
<text text-anchor="middle" x="126" y="-62.6" font-family="Times,serif" font-size="14.00">SyncPilotConnectionComponent</text>
</g>
<!-- SyncPilotModule -->
<g id="node2" class="node">
<title>SyncPilotModule</title>
<polygon fill="#8dd3c7" stroke="black" points="183,-149.8 180,-153.8 159,-153.8 156,-149.8 69,-149.8 69,-113.8 183,-113.8 183,-149.8"/>
<text text-anchor="middle" x="126" y="-127.6" font-family="Times,serif" font-size="14.00">SyncPilotModule</text>
</g>
<!-- SyncPilotConnectionComponent&#45;&gt;SyncPilotModule -->
<g id="edge1" class="edge">
<title>SyncPilotConnectionComponent&#45;&gt;SyncPilotModule</title>
<path fill="none" stroke="black" d="M126,-84.91C126,-84.91 126,-103.79 126,-103.79"/>
<polygon fill="black" stroke="black" points="122.5,-103.79 126,-113.79 129.5,-103.79 122.5,-103.79"/>
</g>
<!-- SyncPilotConnectionComponent  -->
<g id="node3" class="node">
<title>SyncPilotConnectionComponent </title>
<polygon fill="#fb8072" stroke="black" points="227.83,-214.8 24.17,-214.8 24.17,-178.8 227.83,-178.8 227.83,-214.8"/>
<text text-anchor="middle" x="126" y="-192.6" font-family="Times,serif" font-size="14.00">SyncPilotConnectionComponent </text>
</g>
<!-- SyncPilotModule&#45;&gt;SyncPilotConnectionComponent  -->
<g id="edge2" class="edge">
<title>SyncPilotModule&#45;&gt;SyncPilotConnectionComponent </title>
<path fill="none" stroke="black" stroke-dasharray="5,2" d="M126,-149.91C126,-149.91 126,-168.79 126,-168.79"/>
<polygon fill="black" stroke="black" points="122.5,-168.79 126,-178.79 129.5,-168.79 122.5,-168.79"/>
</g>
</g>
</svg>
