<?xml version="1.0" encoding="UTF-8" standalone="no"?>
<!DOCTYPE svg PUBLIC "-//W3C//DTD SVG 1.1//EN"
 "http://www.w3.org/Graphics/SVG/1.1/DTD/svg11.dtd">
<!-- Generated by graphviz version 2.47.3 (20210619.1520)
 -->
<!-- Title: dependencies Pages: 1 -->
<svg width="368pt" height="247pt"
 viewBox="0.00 0.00 368.00 246.80" xmlns="http://www.w3.org/2000/svg" xmlns:xlink="http://www.w3.org/1999/xlink">
<g id="graph0" class="graph" transform="scale(1 1) rotate(0) translate(4 242.8)">
<title>dependencies</title>
<polygon fill="white" stroke="transparent" points="-4,4 -4,-242.8 364,-242.8 364,4 -4,4"/>
<text text-anchor="middle" x="180" y="-8.2" font-family="sans-serif" font-size="14.00">dependencies</text>
<g id="clust1" class="cluster">
<title>cluster_FormCMSModule</title>
<polygon fill="none" stroke="black" stroke-dasharray="1,5" points="8,-32.8 8,-230.8 352,-230.8 352,-32.8 8,-32.8"/>
</g>
<g id="clust5" class="cluster">
<title>cluster_FormCMSModule_exports</title>
<polygon fill="none" stroke="black" points="100,-170.8 100,-222.8 260,-222.8 260,-170.8 100,-170.8"/>
</g>
<g id="clust2" class="cluster">
<title>cluster_FormCMSModule_declarations</title>
<polygon fill="none" stroke="black" points="186,-40.8 186,-92.8 344,-92.8 344,-40.8 186,-40.8"/>
</g>
<g id="clust4" class="cluster">
<title>cluster_FormCMSModule_imports</title>
<polygon fill="none" stroke="black" points="16,-40.8 16,-92.8 178,-92.8 178,-40.8 16,-40.8"/>
</g>
<!-- FormCMSComponent -->
<g id="node1" class="node">
<title>FormCMSComponent</title>
<polygon fill="#ffffb3" stroke="black" points="335.73,-84.8 194.27,-84.8 194.27,-48.8 335.73,-48.8 335.73,-84.8"/>
<text text-anchor="middle" x="265" y="-62.6" font-family="Times,serif" font-size="14.00">FormCMSComponent</text>
</g>
<!-- FormCMSModule -->
<g id="node2" class="node">
<title>FormCMSModule</title>
<polygon fill="#8dd3c7" stroke="black" points="239.95,-149.8 236.95,-153.8 215.95,-153.8 212.95,-149.8 120.05,-149.8 120.05,-113.8 239.95,-113.8 239.95,-149.8"/>
<text text-anchor="middle" x="180" y="-127.6" font-family="Times,serif" font-size="14.00">FormCMSModule</text>
</g>
<!-- FormCMSComponent&#45;&gt;FormCMSModule -->
<g id="edge1" class="edge">
<title>FormCMSComponent&#45;&gt;FormCMSModule</title>
<path fill="none" stroke="black" d="M217.05,-84.91C217.05,-84.91 217.05,-103.79 217.05,-103.79"/>
<polygon fill="black" stroke="black" points="213.55,-103.79 217.05,-113.79 220.55,-103.79 213.55,-103.79"/>
</g>
<!-- FormCMSComponent  -->
<g id="node4" class="node">
<title>FormCMSComponent </title>
<polygon fill="#fb8072" stroke="black" points="252.23,-214.8 107.77,-214.8 107.77,-178.8 252.23,-178.8 252.23,-214.8"/>
<text text-anchor="middle" x="180" y="-192.6" font-family="Times,serif" font-size="14.00">FormCMSComponent </text>
</g>
<!-- FormCMSModule&#45;&gt;FormCMSComponent  -->
<g id="edge3" class="edge">
<title>FormCMSModule&#45;&gt;FormCMSComponent </title>
<path fill="none" stroke="black" stroke-dasharray="5,2" d="M180,-149.91C180,-149.91 180,-168.79 180,-168.79"/>
<polygon fill="black" stroke="black" points="176.5,-168.79 180,-178.79 183.5,-168.79 176.5,-168.79"/>
</g>
<!-- FormContainerModule -->
<g id="node3" class="node">
<title>FormContainerModule</title>
<polygon fill="#8dd3c7" stroke="black" points="169.59,-84.8 166.59,-88.8 145.59,-88.8 142.59,-84.8 24.41,-84.8 24.41,-48.8 169.59,-48.8 169.59,-84.8"/>
<text text-anchor="middle" x="97" y="-62.6" font-family="Times,serif" font-size="14.00">FormContainerModule</text>
</g>
<!-- FormContainerModule&#45;&gt;FormCMSModule -->
<g id="edge2" class="edge">
<title>FormContainerModule&#45;&gt;FormCMSModule</title>
<path fill="none" stroke="black" d="M144.91,-84.91C144.91,-84.91 144.91,-103.79 144.91,-103.79"/>
<polygon fill="black" stroke="black" points="141.41,-103.79 144.91,-113.79 148.41,-103.79 141.41,-103.79"/>
</g>
</g>
</svg>
