<?xml version="1.0" encoding="UTF-8" standalone="no"?>
<!DOCTYPE svg PUBLIC "-//W3C//DTD SVG 1.1//EN"
 "http://www.w3.org/Graphics/SVG/1.1/DTD/svg11.dtd">
<!-- Generated by graphviz version 2.44.1 (20200629.0846)
 -->
<!-- Title: dependencies Pages: 1 -->
<svg width="504pt" height="284pt"
 viewBox="0.00 0.00 504.00 284.00" xmlns="http://www.w3.org/2000/svg" xmlns:xlink="http://www.w3.org/1999/xlink">
<g id="graph0" class="graph" transform="scale(1 1) rotate(0) translate(4 280)">
<title>dependencies</title>
<polygon fill="white" stroke="transparent" points="-4,4 -4,-280 500,-280 500,4 -4,4"/>
<text text-anchor="start" x="227.01" y="-42.4" font-family="sans-serif" font-weight="bold" font-size="14.00">Legend</text>
<polygon fill="#ffffb3" stroke="transparent" points="14,-10 14,-30 34,-30 34,-10 14,-10"/>
<text text-anchor="start" x="37.63" y="-15.4" font-family="sans-serif" font-size="14.00"> &#160;Declarations</text>
<polygon fill="#8dd3c7" stroke="transparent" points="127,-10 127,-30 147,-30 147,-10 127,-10"/>
<text text-anchor="start" x="150.73" y="-15.4" font-family="sans-serif" font-size="14.00"> &#160;Module</text>
<polygon fill="#80b1d3" stroke="transparent" points="213,-10 213,-30 233,-30 233,-10 213,-10"/>
<text text-anchor="start" x="236.78" y="-15.4" font-family="sans-serif" font-size="14.00"> &#160;Bootstrap</text>
<polygon fill="#fdb462" stroke="transparent" points="310,-10 310,-30 330,-30 330,-10 310,-10"/>
<text text-anchor="start" x="333.67" y="-15.4" font-family="sans-serif" font-size="14.00"> &#160;Providers</text>
<polygon fill="#fb8072" stroke="transparent" points="406,-10 406,-30 426,-30 426,-10 406,-10"/>
<text text-anchor="start" x="429.73" y="-15.4" font-family="sans-serif" font-size="14.00"> &#160;Exports</text>
<g id="clust1" class="cluster">
<title>cluster_FormCMSModule</title>
<polygon fill="none" stroke="black" stroke-dasharray="1,5" points="76,-70 76,-268 420,-268 420,-70 76,-70"/>
</g>
<g id="clust2" class="cluster">
<title>cluster_FormCMSModule_declarations</title>
<polygon fill="none" stroke="black" points="254,-78 254,-130 412,-130 412,-78 254,-78"/>
</g>
<g id="clust4" class="cluster">
<title>cluster_FormCMSModule_imports</title>
<polygon fill="none" stroke="black" points="84,-78 84,-130 246,-130 246,-78 84,-78"/>
</g>
<g id="clust5" class="cluster">
<title>cluster_FormCMSModule_exports</title>
<polygon fill="none" stroke="black" points="168,-208 168,-260 328,-260 328,-208 168,-208"/>
</g>
<!-- FormCMSComponent -->
<g id="node1" class="node">
<title>FormCMSComponent</title>
<polygon fill="#ffffb3" stroke="black" points="403.73,-122 262.27,-122 262.27,-86 403.73,-86 403.73,-122"/>
<text text-anchor="middle" x="333" y="-99.8" font-family="Times,serif" font-size="14.00">FormCMSComponent</text>
</g>
<!-- FormCMSModule -->
<g id="node2" class="node">
<title>FormCMSModule</title>
<polygon fill="#8dd3c7" stroke="black" points="307.95,-187 304.95,-191 283.95,-191 280.95,-187 188.05,-187 188.05,-151 307.95,-151 307.95,-187"/>
<text text-anchor="middle" x="248" y="-164.8" font-family="Times,serif" font-size="14.00">FormCMSModule</text>
</g>
<!-- FormCMSComponent&#45;&gt;FormCMSModule -->
<g id="edge1" class="edge">
<title>FormCMSComponent&#45;&gt;FormCMSModule</title>
<path fill="none" stroke="black" d="M285.05,-122.11C285.05,-122.11 285.05,-140.99 285.05,-140.99"/>
<polygon fill="black" stroke="black" points="281.55,-140.99 285.05,-150.99 288.55,-140.99 281.55,-140.99"/>
</g>
<!-- FormCMSComponent  -->
<g id="node4" class="node">
<title>FormCMSComponent </title>
<polygon fill="#fb8072" stroke="black" points="320.23,-252 175.77,-252 175.77,-216 320.23,-216 320.23,-252"/>
<text text-anchor="middle" x="248" y="-229.8" font-family="Times,serif" font-size="14.00">FormCMSComponent </text>
</g>
<!-- FormCMSModule&#45;&gt;FormCMSComponent  -->
<g id="edge3" class="edge">
<title>FormCMSModule&#45;&gt;FormCMSComponent </title>
<path fill="none" stroke="black" stroke-dasharray="5,2" d="M248,-187.11C248,-187.11 248,-205.99 248,-205.99"/>
<polygon fill="black" stroke="black" points="244.5,-205.99 248,-215.99 251.5,-205.99 244.5,-205.99"/>
</g>
<!-- FormContainerModule -->
<g id="node3" class="node">
<title>FormContainerModule</title>
<polygon fill="#8dd3c7" stroke="black" points="237.59,-122 234.59,-126 213.59,-126 210.59,-122 92.41,-122 92.41,-86 237.59,-86 237.59,-122"/>
<text text-anchor="middle" x="165" y="-99.8" font-family="Times,serif" font-size="14.00">FormContainerModule</text>
</g>
<!-- FormContainerModule&#45;&gt;FormCMSModule -->
<g id="edge2" class="edge">
<title>FormContainerModule&#45;&gt;FormCMSModule</title>
<path fill="none" stroke="black" d="M212.91,-122.11C212.91,-122.11 212.91,-140.99 212.91,-140.99"/>
<polygon fill="black" stroke="black" points="209.41,-140.99 212.91,-150.99 216.41,-140.99 209.41,-140.99"/>
</g>
</g>
</svg>
