<?xml version="1.0" encoding="UTF-8" standalone="no"?>
<!DOCTYPE svg PUBLIC "-//W3C//DTD SVG 1.1//EN"
 "http://www.w3.org/Graphics/SVG/1.1/DTD/svg11.dtd">
<!-- Generated by graphviz version 2.47.3 (20210619.1520)
 -->
<!-- Title: dependencies Pages: 1 -->
<svg width="368pt" height="247pt"
 viewBox="0.00 0.00 368.00 246.80" xmlns="http://www.w3.org/2000/svg" xmlns:xlink="http://www.w3.org/1999/xlink">
<g id="graph0" class="graph" transform="scale(1 1) rotate(0) translate(4 242.8)">
<title>dependencies</title>
<polygon fill="white" stroke="transparent" points="-4,4 -4,-242.8 364,-242.8 364,4 -4,4"/>
<text text-anchor="middle" x="180" y="-8.2" font-family="sans-serif" font-size="14.00">dependencies</text>
<g id="clust1" class="cluster">
<title>cluster_FormCMSModule</title>
<polygon fill="none" stroke="black" stroke-dasharray="1,5" points="8,-32.8 8,-230.8 352,-230.8 352,-32.8 8,-32.8"/>
</g>
<g id="clust5" class="cluster">
<title>cluster_FormCMSModule_exports</title>
<polygon fill="none" stroke="black" points="99,-170.8 99,-222.8 259,-222.8 259,-170.8 99,-170.8"/>
</g>
<g id="clust4" class="cluster">
<title>cluster_FormCMSModule_imports</title>
<polygon fill="none" stroke="black" points="182,-40.8 182,-92.8 344,-92.8 344,-40.8 182,-40.8"/>
</g>
<g id="clust2" class="cluster">
<title>cluster_FormCMSModule_declarations</title>
<polygon fill="none" stroke="black" points="16,-40.8 16,-92.8 174,-92.8 174,-40.8 16,-40.8"/>
</g>
<!-- FormCMSComponent -->
<g id="node1" class="node">
<title>FormCMSComponent</title>
<polygon fill="#ffffb3" stroke="black" points="165.73,-84.8 24.27,-84.8 24.27,-48.8 165.73,-48.8 165.73,-84.8"/>
<text text-anchor="middle" x="95" y="-62.6" font-family="Times,serif" font-size="14.00">FormCMSComponent</text>
</g>
<!-- FormCMSModule -->
<g id="node2" class="node">
<title>FormCMSModule</title>
<polygon fill="#8dd3c7" stroke="black" points="238.95,-149.8 235.95,-153.8 214.95,-153.8 211.95,-149.8 119.05,-149.8 119.05,-113.8 238.95,-113.8 238.95,-149.8"/>
<text text-anchor="middle" x="179" y="-127.6" font-family="Times,serif" font-size="14.00">FormCMSModule</text>
</g>
<!-- FormCMSComponent&#45;&gt;FormCMSModule -->
<g id="edge1" class="edge">
<title>FormCMSComponent&#45;&gt;FormCMSModule</title>
<path fill="none" stroke="black" d="M142.45,-84.91C142.45,-84.91 142.45,-103.79 142.45,-103.79"/>
<polygon fill="black" stroke="black" points="138.95,-103.79 142.45,-113.79 145.95,-103.79 138.95,-103.79"/>
</g>
<!-- FormCMSComponent  -->
<g id="node4" class="node">
<title>FormCMSComponent </title>
<polygon fill="#fb8072" stroke="black" points="251.23,-214.8 106.77,-214.8 106.77,-178.8 251.23,-178.8 251.23,-214.8"/>
<text text-anchor="middle" x="179" y="-192.6" font-family="Times,serif" font-size="14.00">FormCMSComponent </text>
</g>
<!-- FormCMSModule&#45;&gt;FormCMSComponent  -->
<g id="edge3" class="edge">
<title>FormCMSModule&#45;&gt;FormCMSComponent </title>
<path fill="none" stroke="black" stroke-dasharray="5,2" d="M179,-149.91C179,-149.91 179,-168.79 179,-168.79"/>
<polygon fill="black" stroke="black" points="175.5,-168.79 179,-178.79 182.5,-168.79 175.5,-168.79"/>
</g>
<!-- FormContainerModule -->
<g id="node3" class="node">
<title>FormContainerModule</title>
<polygon fill="#8dd3c7" stroke="black" points="335.59,-84.8 332.59,-88.8 311.59,-88.8 308.59,-84.8 190.41,-84.8 190.41,-48.8 335.59,-48.8 335.59,-84.8"/>
<text text-anchor="middle" x="263" y="-62.6" font-family="Times,serif" font-size="14.00">FormContainerModule</text>
</g>
<!-- FormContainerModule&#45;&gt;FormCMSModule -->
<g id="edge2" class="edge">
<title>FormContainerModule&#45;&gt;FormCMSModule</title>
<path fill="none" stroke="black" d="M214.59,-84.91C214.59,-84.91 214.59,-103.79 214.59,-103.79"/>
<polygon fill="black" stroke="black" points="211.09,-103.79 214.59,-113.79 218.09,-103.79 211.09,-103.79"/>
</g>
</g>
</svg>
