<?xml version="1.0" encoding="UTF-8" standalone="no"?>
<!DOCTYPE svg PUBLIC "-//W3C//DTD SVG 1.1//EN"
 "http://www.w3.org/Graphics/SVG/1.1/DTD/svg11.dtd">
<!-- Generated by graphviz version 2.47.3 (20210619.1520)
 -->
<!-- Title: dependencies Pages: 1 -->
<svg width="572pt" height="247pt"
 viewBox="0.00 0.00 572.00 246.80" xmlns="http://www.w3.org/2000/svg" xmlns:xlink="http://www.w3.org/1999/xlink">
<g id="graph0" class="graph" transform="scale(1 1) rotate(0) translate(4 242.8)">
<title>dependencies</title>
<polygon fill="white" stroke="transparent" points="-4,4 -4,-242.8 568,-242.8 568,4 -4,4"/>
<text text-anchor="middle" x="282" y="-8.2" font-family="sans-serif" font-size="14.00">dependencies</text>
<g id="clust1" class="cluster">
<title>cluster_FSStorefrontModule</title>
<polygon fill="none" stroke="black" stroke-dasharray="1,5" points="8,-32.8 8,-230.8 556,-230.8 556,-32.8 8,-32.8"/>
</g>
<g id="clust4" class="cluster">
<title>cluster_FSStorefrontModule_exports</title>
<polygon fill="none" stroke="black" points="218,-170.8 218,-222.8 342,-222.8 342,-170.8 218,-170.8"/>
</g>
<g id="clust3" class="cluster">
<title>cluster_FSStorefrontModule_imports</title>
<polygon fill="none" stroke="black" points="16,-40.8 16,-92.8 548,-92.8 548,-40.8 16,-40.8"/>
</g>
<!-- CheckoutModule -->
<g id="node1" class="node">
<title>CheckoutModule</title>
<polygon fill="#8dd3c7" stroke="black" points="539.71,-84.8 536.71,-88.8 515.71,-88.8 512.71,-84.8 426.29,-84.8 426.29,-48.8 539.71,-48.8 539.71,-84.8"/>
<text text-anchor="middle" x="483" y="-62.6" font-family="Times,serif" font-size="14.00">CheckoutModule</text>
</g>
<!-- FSStorefrontModule -->
<g id="node5" class="node">
<title>FSStorefrontModule</title>
<polygon fill="#8dd3c7" stroke="black" points="345.88,-149.8 342.88,-153.8 321.88,-153.8 318.88,-149.8 214.12,-149.8 214.12,-113.8 345.88,-113.8 345.88,-149.8"/>
<text text-anchor="middle" x="280" y="-127.6" font-family="Times,serif" font-size="14.00">FSStorefrontModule</text>
</g>
<!-- CheckoutModule&#45;&gt;FSStorefrontModule -->
<g id="edge1" class="edge">
<title>CheckoutModule&#45;&gt;FSStorefrontModule</title>
<path fill="none" stroke="black" d="M483,-84.91C483,-104.14 483,-131.8 483,-131.8 483,-131.8 355.91,-131.8 355.91,-131.8"/>
<polygon fill="black" stroke="black" points="355.91,-128.3 345.91,-131.8 355.91,-135.3 355.91,-128.3"/>
</g>
<!-- CmsLibModule -->
<g id="node2" class="node">
<title>CmsLibModule</title>
<polygon fill="#8dd3c7" stroke="black" points="408.17,-84.8 405.17,-88.8 384.17,-88.8 381.17,-84.8 303.83,-84.8 303.83,-48.8 408.17,-48.8 408.17,-84.8"/>
<text text-anchor="middle" x="356" y="-62.6" font-family="Times,serif" font-size="14.00">CmsLibModule</text>
</g>
<!-- CmsLibModule&#45;&gt;FSStorefrontModule -->
<g id="edge2" class="edge">
<title>CmsLibModule&#45;&gt;FSStorefrontModule</title>
<path fill="none" stroke="black" d="M324.8,-84.91C324.8,-84.91 324.8,-103.79 324.8,-103.79"/>
<polygon fill="black" stroke="black" points="321.3,-103.79 324.8,-113.79 328.3,-103.79 321.3,-103.79"/>
</g>
<!-- FSGlobalMessageModule -->
<g id="node3" class="node">
<title>FSGlobalMessageModule</title>
<polygon fill="#8dd3c7" stroke="black" points="286.2,-84.8 283.2,-88.8 262.2,-88.8 259.2,-84.8 123.8,-84.8 123.8,-48.8 286.2,-48.8 286.2,-84.8"/>
<text text-anchor="middle" x="205" y="-62.6" font-family="Times,serif" font-size="14.00">FSGlobalMessageModule</text>
</g>
<!-- FSGlobalMessageModule&#45;&gt;FSStorefrontModule -->
<g id="edge3" class="edge">
<title>FSGlobalMessageModule&#45;&gt;FSStorefrontModule</title>
<path fill="none" stroke="black" d="M250.08,-84.91C250.08,-84.91 250.08,-103.79 250.08,-103.79"/>
<polygon fill="black" stroke="black" points="246.58,-103.79 250.08,-113.79 253.58,-103.79 246.58,-103.79"/>
</g>
<!-- OccModule -->
<g id="node4" class="node">
<title>OccModule</title>
<polygon fill="#8dd3c7" stroke="black" points="106.09,-84.8 103.09,-88.8 82.09,-88.8 79.09,-84.8 23.91,-84.8 23.91,-48.8 106.09,-48.8 106.09,-84.8"/>
<text text-anchor="middle" x="65" y="-62.6" font-family="Times,serif" font-size="14.00">OccModule</text>
</g>
<!-- OccModule&#45;&gt;FSStorefrontModule -->
<g id="edge4" class="edge">
<title>OccModule&#45;&gt;FSStorefrontModule</title>
<path fill="none" stroke="black" d="M65,-84.91C65,-104.14 65,-131.8 65,-131.8 65,-131.8 204.03,-131.8 204.03,-131.8"/>
<polygon fill="black" stroke="black" points="204.03,-135.3 214.03,-131.8 204.03,-128.3 204.03,-135.3"/>
</g>
<!-- CmsLibModule  -->
<g id="node6" class="node">
<title>CmsLibModule </title>
<polygon fill="#fb8072" stroke="black" points="334.16,-214.8 225.84,-214.8 225.84,-178.8 334.16,-178.8 334.16,-214.8"/>
<text text-anchor="middle" x="280" y="-192.6" font-family="Times,serif" font-size="14.00">CmsLibModule </text>
</g>
<!-- FSStorefrontModule&#45;&gt;CmsLibModule  -->
<g id="edge5" class="edge">
<title>FSStorefrontModule&#45;&gt;CmsLibModule </title>
<path fill="none" stroke="black" stroke-dasharray="5,2" d="M280,-149.91C280,-149.91 280,-168.79 280,-168.79"/>
<polygon fill="black" stroke="black" points="276.5,-168.79 280,-178.79 283.5,-168.79 276.5,-168.79"/>
</g>
</g>
</svg>
