<?xml version="1.0" encoding="UTF-8" standalone="no"?>
<!DOCTYPE svg PUBLIC "-//W3C//DTD SVG 1.1//EN"
 "http://www.w3.org/Graphics/SVG/1.1/DTD/svg11.dtd">
<!-- Generated by graphviz version 2.46.0 (20210119.1425)
 -->
<!-- Title: dependencies Pages: 1 -->
<svg width="504pt" height="284pt"
 viewBox="0.00 0.00 504.00 284.00" xmlns="http://www.w3.org/2000/svg" xmlns:xlink="http://www.w3.org/1999/xlink">
<g id="graph0" class="graph" transform="scale(1 1) rotate(0) translate(4 280)">
<title>dependencies</title>
<polygon fill="white" stroke="transparent" points="-4,4 -4,-280 500,-280 500,4 -4,4"/>
<text text-anchor="start" x="227.01" y="-42.4" font-family="sans-serif" font-weight="bold" font-size="14.00">Legend</text>
<polygon fill="#ffffb3" stroke="transparent" points="14,-10 14,-30 34,-30 34,-10 14,-10"/>
<text text-anchor="start" x="37.63" y="-15.4" font-family="sans-serif" font-size="14.00"> &#160;Declarations</text>
<polygon fill="#8dd3c7" stroke="transparent" points="127,-10 127,-30 147,-30 147,-10 127,-10"/>
<text text-anchor="start" x="150.73" y="-15.4" font-family="sans-serif" font-size="14.00"> &#160;Module</text>
<polygon fill="#80b1d3" stroke="transparent" points="213,-10 213,-30 233,-30 233,-10 213,-10"/>
<text text-anchor="start" x="236.78" y="-15.4" font-family="sans-serif" font-size="14.00"> &#160;Bootstrap</text>
<polygon fill="#fdb462" stroke="transparent" points="310,-10 310,-30 330,-30 330,-10 310,-10"/>
<text text-anchor="start" x="333.67" y="-15.4" font-family="sans-serif" font-size="14.00"> &#160;Providers</text>
<polygon fill="#fb8072" stroke="transparent" points="406,-10 406,-30 426,-30 426,-10 406,-10"/>
<text text-anchor="start" x="429.73" y="-15.4" font-family="sans-serif" font-size="14.00"> &#160;Exports</text>
<g id="clust1" class="cluster">
<title>cluster_FSStorefrontModule</title>
<polygon fill="none" stroke="black" stroke-dasharray="1,5" points="64,-70 64,-268 432,-268 432,-70 64,-70"/>
</g>
<g id="clust3" class="cluster">
<title>cluster_FSStorefrontModule_imports</title>
<polygon fill="none" stroke="black" points="72,-78 72,-130 424,-130 424,-78 72,-78"/>
</g>
<g id="clust4" class="cluster">
<title>cluster_FSStorefrontModule_exports</title>
<polygon fill="none" stroke="black" points="170,-208 170,-260 294,-260 294,-208 170,-208"/>
</g>
<!-- CheckoutModule -->
<g id="node1" class="node">
<title>CheckoutModule</title>
<polygon fill="#8dd3c7" stroke="black" points="415.71,-122 412.71,-126 391.71,-126 388.71,-122 302.29,-122 302.29,-86 415.71,-86 415.71,-122"/>
<text text-anchor="middle" x="359" y="-99.8" font-family="Times,serif" font-size="14.00">CheckoutModule</text>
</g>
<!-- FSStorefrontModule -->
<g id="node4" class="node">
<title>FSStorefrontModule</title>
<polygon fill="#8dd3c7" stroke="black" points="297.88,-187 294.88,-191 273.88,-191 270.88,-187 166.12,-187 166.12,-151 297.88,-151 297.88,-187"/>
<text text-anchor="middle" x="232" y="-164.8" font-family="Times,serif" font-size="14.00">FSStorefrontModule</text>
</g>
<!-- CheckoutModule&#45;&gt;FSStorefrontModule -->
<g id="edge1" class="edge">
<title>CheckoutModule&#45;&gt;FSStorefrontModule</title>
<path fill="none" stroke="black" d="M302.34,-104C295.65,-104 291.13,-104 291.13,-104 291.13,-104 291.13,-140.89 291.13,-140.89"/>
<polygon fill="black" stroke="black" points="287.64,-140.89 291.13,-150.89 294.64,-140.89 287.64,-140.89"/>
</g>
<!-- CmsLibModule -->
<g id="node2" class="node">
<title>CmsLibModule</title>
<polygon fill="#8dd3c7" stroke="black" points="284.17,-122 281.17,-126 260.17,-126 257.17,-122 179.83,-122 179.83,-86 284.17,-86 284.17,-122"/>
<text text-anchor="middle" x="232" y="-99.8" font-family="Times,serif" font-size="14.00">CmsLibModule</text>
</g>
<!-- CmsLibModule&#45;&gt;FSStorefrontModule -->
<g id="edge2" class="edge">
<title>CmsLibModule&#45;&gt;FSStorefrontModule</title>
<path fill="none" stroke="black" d="M232,-122.11C232,-122.11 232,-140.99 232,-140.99"/>
<polygon fill="black" stroke="black" points="228.5,-140.99 232,-150.99 235.5,-140.99 228.5,-140.99"/>
</g>
<!-- OccModule -->
<g id="node3" class="node">
<title>OccModule</title>
<polygon fill="#8dd3c7" stroke="black" points="162.09,-122 159.09,-126 138.09,-126 135.09,-122 79.91,-122 79.91,-86 162.09,-86 162.09,-122"/>
<text text-anchor="middle" x="121" y="-99.8" font-family="Times,serif" font-size="14.00">OccModule</text>
</g>
<!-- OccModule&#45;&gt;FSStorefrontModule -->
<g id="edge3" class="edge">
<title>OccModule&#45;&gt;FSStorefrontModule</title>
<path fill="none" stroke="black" d="M162.12,-104C168.41,-104 172.87,-104 172.87,-104 172.87,-104 172.87,-140.89 172.87,-140.89"/>
<polygon fill="black" stroke="black" points="169.37,-140.89 172.87,-150.89 176.37,-140.89 169.37,-140.89"/>
</g>
<!-- CmsLibModule  -->
<g id="node5" class="node">
<title>CmsLibModule </title>
<polygon fill="#fb8072" stroke="black" points="286.16,-252 177.84,-252 177.84,-216 286.16,-216 286.16,-252"/>
<text text-anchor="middle" x="232" y="-229.8" font-family="Times,serif" font-size="14.00">CmsLibModule </text>
</g>
<!-- FSStorefrontModule&#45;&gt;CmsLibModule  -->
<g id="edge4" class="edge">
<title>FSStorefrontModule&#45;&gt;CmsLibModule </title>
<path fill="none" stroke="black" stroke-dasharray="5,2" d="M232,-187.11C232,-187.11 232,-205.99 232,-205.99"/>
<polygon fill="black" stroke="black" points="228.5,-205.99 232,-215.99 235.5,-205.99 228.5,-205.99"/>
</g>
</g>
</svg>
