<?xml version="1.0" encoding="UTF-8" standalone="no"?>
<!DOCTYPE svg PUBLIC "-//W3C//DTD SVG 1.1//EN"
 "http://www.w3.org/Graphics/SVG/1.1/DTD/svg11.dtd">
<!-- Generated by graphviz version 2.47.3 (20210619.1520)
 -->
<!-- Title: dependencies Pages: 1 -->
<svg width="3052pt" height="247pt"
 viewBox="0.00 0.00 3052.00 246.80" xmlns="http://www.w3.org/2000/svg" xmlns:xlink="http://www.w3.org/1999/xlink">
<g id="graph0" class="graph" transform="scale(1 1) rotate(0) translate(4 242.8)">
<title>dependencies</title>
<polygon fill="white" stroke="transparent" points="-4,4 -4,-242.8 3048,-242.8 3048,4 -4,4"/>
<text text-anchor="middle" x="1522" y="-8.2" font-family="sans-serif" font-size="14.00">dependencies</text>
<g id="clust1" class="cluster">
<title>cluster_ComponentsModule</title>
<polygon fill="none" stroke="black" stroke-dasharray="1,5" points="8,-32.8 8,-230.8 3036,-230.8 3036,-32.8 8,-32.8"/>
</g>
<g id="clust2" class="cluster">
<title>cluster_ComponentsModule_declarations</title>
<polygon fill="none" stroke="black" points="252,-40.8 252,-92.8 3028,-92.8 3028,-40.8 252,-40.8"/>
</g>
<g id="clust24" class="cluster">
<title>cluster_ComponentsModule_providers</title>
<polygon fill="none" stroke="black" points="16,-40.8 16,-92.8 244,-92.8 244,-40.8 16,-40.8"/>
</g>
<g id="clust22" class="cluster">
<title>cluster_ComponentsModule_exports</title>
<polygon fill="none" stroke="black" points="110,-170.8 110,-222.8 2949,-222.8 2949,-170.8 110,-170.8"/>
</g>
<!-- AbstractFormComponent -->
<g id="node1" class="node">
<title>AbstractFormComponent</title>
<polygon fill="#ffffb3" stroke="black" points="3019.59,-84.8 2860.41,-84.8 2860.41,-48.8 3019.59,-48.8 3019.59,-84.8"/>
<text text-anchor="middle" x="2940" y="-62.6" font-family="Times,serif" font-size="14.00">AbstractFormComponent</text>
</g>
<!-- ComponentsModule -->
<g id="node19" class="node">
<title>ComponentsModule</title>
<polygon fill="#8dd3c7" stroke="black" points="1509.33,-149.8 1506.33,-153.8 1485.33,-153.8 1482.33,-149.8 1378.67,-149.8 1378.67,-113.8 1509.33,-113.8 1509.33,-149.8"/>
<text text-anchor="middle" x="1444" y="-127.6" font-family="Times,serif" font-size="14.00">ComponentsModule</text>
</g>
<!-- AbstractFormComponent&#45;&gt;ComponentsModule -->
<g id="edge1" class="edge">
<title>AbstractFormComponent&#45;&gt;ComponentsModule</title>
<path fill="none" stroke="black" d="M2900.88,-84.91C2900.88,-104.14 2900.88,-131.8 2900.88,-131.8 2900.88,-131.8 1519.43,-131.8 1519.43,-131.8"/>
<polygon fill="black" stroke="black" points="1519.43,-128.3 1509.43,-131.8 1519.43,-135.3 1519.43,-128.3"/>
</g>
<!-- AbstractOptionsComponent -->
<g id="node2" class="node">
<title>AbstractOptionsComponent</title>
<polygon fill="#ffffb3" stroke="black" points="2842.59,-84.8 2669.41,-84.8 2669.41,-48.8 2842.59,-48.8 2842.59,-84.8"/>
<text text-anchor="middle" x="2756" y="-62.6" font-family="Times,serif" font-size="14.00">AbstractOptionsComponent</text>
</g>
<!-- AbstractOptionsComponent&#45;&gt;ComponentsModule -->
<g id="edge2" class="edge">
<title>AbstractOptionsComponent&#45;&gt;ComponentsModule</title>
<path fill="none" stroke="black" d="M2714.88,-85.02C2714.88,-103.63 2714.88,-129.8 2714.88,-129.8 2714.88,-129.8 1519.21,-129.8 1519.21,-129.8"/>
<polygon fill="black" stroke="black" points="1519.21,-126.3 1509.21,-129.8 1519.21,-133.3 1519.21,-126.3"/>
</g>
<!-- ButtonComponent -->
<g id="node3" class="node">
<title>ButtonComponent</title>
<polygon fill="#ffffb3" stroke="black" points="2651.95,-84.8 2532.05,-84.8 2532.05,-48.8 2651.95,-48.8 2651.95,-84.8"/>
<text text-anchor="middle" x="2592" y="-62.6" font-family="Times,serif" font-size="14.00">ButtonComponent</text>
</g>
<!-- ButtonComponent&#45;&gt;ComponentsModule -->
<g id="edge3" class="edge">
<title>ButtonComponent&#45;&gt;ComponentsModule</title>
<path fill="none" stroke="black" d="M2548.88,-85.1C2548.88,-103.07 2548.88,-127.8 2548.88,-127.8 2548.88,-127.8 1519.4,-127.8 1519.4,-127.8"/>
<polygon fill="black" stroke="black" points="1519.4,-124.3 1509.4,-127.8 1519.4,-131.3 1519.4,-124.3"/>
</g>
<!-- CheckboxComponent -->
<g id="node4" class="node">
<title>CheckboxComponent</title>
<polygon fill="#ffffb3" stroke="black" points="2514.1,-84.8 2375.9,-84.8 2375.9,-48.8 2514.1,-48.8 2514.1,-84.8"/>
<text text-anchor="middle" x="2445" y="-62.6" font-family="Times,serif" font-size="14.00">CheckboxComponent</text>
</g>
<!-- CheckboxComponent&#45;&gt;ComponentsModule -->
<g id="edge4" class="edge">
<title>CheckboxComponent&#45;&gt;ComponentsModule</title>
<path fill="none" stroke="black" d="M2400.38,-84.82C2400.38,-102.17 2400.38,-125.8 2400.38,-125.8 2400.38,-125.8 1519.36,-125.8 1519.36,-125.8"/>
<polygon fill="black" stroke="black" points="1519.36,-122.3 1509.36,-125.8 1519.36,-129.3 1519.36,-122.3"/>
</g>
<!-- CurrencyComponent -->
<g id="node5" class="node">
<title>CurrencyComponent</title>
<polygon fill="#ffffb3" stroke="black" points="2357.92,-84.8 2224.08,-84.8 2224.08,-48.8 2357.92,-48.8 2357.92,-84.8"/>
<text text-anchor="middle" x="2291" y="-62.6" font-family="Times,serif" font-size="14.00">CurrencyComponent</text>
</g>
<!-- CurrencyComponent&#45;&gt;ComponentsModule -->
<g id="edge5" class="edge">
<title>CurrencyComponent&#45;&gt;ComponentsModule</title>
<path fill="none" stroke="black" d="M2244.88,-84.84C2244.88,-101.53 2244.88,-123.8 2244.88,-123.8 2244.88,-123.8 1519.2,-123.8 1519.2,-123.8"/>
<polygon fill="black" stroke="black" points="1519.2,-120.3 1509.2,-123.8 1519.2,-127.3 1519.2,-120.3"/>
</g>
<!-- DataHolderComponent -->
<g id="node6" class="node">
<title>DataHolderComponent</title>
<polygon fill="#ffffb3" stroke="black" points="2206.13,-84.8 2059.87,-84.8 2059.87,-48.8 2206.13,-48.8 2206.13,-84.8"/>
<text text-anchor="middle" x="2133" y="-62.6" font-family="Times,serif" font-size="14.00">DataHolderComponent</text>
</g>
<!-- DataHolderComponent&#45;&gt;ComponentsModule -->
<g id="edge6" class="edge">
<title>DataHolderComponent&#45;&gt;ComponentsModule</title>
<path fill="none" stroke="black" d="M2084.88,-84.81C2084.88,-100.85 2084.88,-121.8 2084.88,-121.8 2084.88,-121.8 1519.27,-121.8 1519.27,-121.8"/>
<polygon fill="black" stroke="black" points="1519.27,-118.3 1509.27,-121.8 1519.27,-125.3 1519.27,-118.3"/>
</g>
<!-- DatePickerComponent -->
<g id="node7" class="node">
<title>DatePickerComponent</title>
<polygon fill="#ffffb3" stroke="black" points="2041.52,-84.8 1898.48,-84.8 1898.48,-48.8 2041.52,-48.8 2041.52,-84.8"/>
<text text-anchor="middle" x="1970" y="-62.6" font-family="Times,serif" font-size="14.00">DatePickerComponent</text>
</g>
<!-- DatePickerComponent&#45;&gt;ComponentsModule -->
<g id="edge7" class="edge">
<title>DatePickerComponent&#45;&gt;ComponentsModule</title>
<path fill="none" stroke="black" d="M1919.88,-85.04C1919.88,-100.37 1919.88,-119.8 1919.88,-119.8 1919.88,-119.8 1519.17,-119.8 1519.17,-119.8"/>
<polygon fill="black" stroke="black" points="1519.17,-116.3 1509.17,-119.8 1519.17,-123.3 1519.17,-116.3"/>
</g>
<!-- ErrorNoticeComponent -->
<g id="node8" class="node">
<title>ErrorNoticeComponent</title>
<polygon fill="#ffffb3" stroke="black" points="1880.18,-84.8 1731.82,-84.8 1731.82,-48.8 1880.18,-48.8 1880.18,-84.8"/>
<text text-anchor="middle" x="1806" y="-62.6" font-family="Times,serif" font-size="14.00">ErrorNoticeComponent</text>
</g>
<!-- ErrorNoticeComponent&#45;&gt;ComponentsModule -->
<g id="edge8" class="edge">
<title>ErrorNoticeComponent&#45;&gt;ComponentsModule</title>
<path fill="none" stroke="black" d="M1754.38,-84.92C1754.38,-99.58 1754.38,-117.8 1754.38,-117.8 1754.38,-117.8 1519.44,-117.8 1519.44,-117.8"/>
<polygon fill="black" stroke="black" points="1519.44,-114.3 1509.44,-117.8 1519.44,-121.3 1519.44,-114.3"/>
</g>
<!-- FormComponentDirective -->
<g id="node9" class="node">
<title>FormComponentDirective</title>
<polygon fill="#ffffb3" stroke="black" points="1713.75,-84.8 1550.25,-84.8 1550.25,-48.8 1713.75,-48.8 1713.75,-84.8"/>
<text text-anchor="middle" x="1632" y="-62.6" font-family="Times,serif" font-size="14.00">FormComponentDirective</text>
</g>
<!-- FormComponentDirective&#45;&gt;ComponentsModule -->
<g id="edge9" class="edge">
<title>FormComponentDirective&#45;&gt;ComponentsModule</title>
<path fill="none" stroke="black" d="M1578.88,-85.05C1578.88,-98.98 1578.88,-115.8 1578.88,-115.8 1578.88,-115.8 1519.46,-115.8 1519.46,-115.8"/>
<polygon fill="black" stroke="black" points="1519.46,-112.3 1509.46,-115.8 1519.46,-119.3 1519.46,-112.3"/>
</g>
<!-- FormPopupErrorComponent -->
<g id="node10" class="node">
<title>FormPopupErrorComponent</title>
<polygon fill="#ffffb3" stroke="black" points="1532.48,-84.8 1355.52,-84.8 1355.52,-48.8 1532.48,-48.8 1532.48,-84.8"/>
<text text-anchor="middle" x="1444" y="-62.6" font-family="Times,serif" font-size="14.00">FormPopupErrorComponent</text>
</g>
<!-- FormPopupErrorComponent&#45;&gt;ComponentsModule -->
<g id="edge10" class="edge">
<title>FormPopupErrorComponent&#45;&gt;ComponentsModule</title>
<path fill="none" stroke="black" d="M1444,-84.91C1444,-84.91 1444,-103.79 1444,-103.79"/>
<polygon fill="black" stroke="black" points="1440.5,-103.79 1444,-113.79 1447.5,-103.79 1440.5,-103.79"/>
</g>
<!-- InputComponent -->
<g id="node11" class="node">
<title>InputComponent</title>
<polygon fill="#ffffb3" stroke="black" points="1337.38,-84.8 1226.62,-84.8 1226.62,-48.8 1337.38,-48.8 1337.38,-84.8"/>
<text text-anchor="middle" x="1282" y="-62.6" font-family="Times,serif" font-size="14.00">InputComponent</text>
</g>
<!-- InputComponent&#45;&gt;ComponentsModule -->
<g id="edge11" class="edge">
<title>InputComponent&#45;&gt;ComponentsModule</title>
<path fill="none" stroke="black" d="M1289.6,-85.05C1289.6,-98.98 1289.6,-115.8 1289.6,-115.8 1289.6,-115.8 1368.52,-115.8 1368.52,-115.8"/>
<polygon fill="black" stroke="black" points="1368.52,-119.3 1378.52,-115.8 1368.52,-112.3 1368.52,-119.3"/>
</g>
<!-- RadioComponent -->
<g id="node12" class="node">
<title>RadioComponent</title>
<polygon fill="#ffffb3" stroke="black" points="1208.27,-84.8 1093.73,-84.8 1093.73,-48.8 1208.27,-48.8 1208.27,-84.8"/>
<text text-anchor="middle" x="1151" y="-62.6" font-family="Times,serif" font-size="14.00">RadioComponent</text>
</g>
<!-- RadioComponent&#45;&gt;ComponentsModule -->
<g id="edge12" class="edge">
<title>RadioComponent&#45;&gt;ComponentsModule</title>
<path fill="none" stroke="black" d="M1159.1,-84.92C1159.1,-99.58 1159.1,-117.8 1159.1,-117.8 1159.1,-117.8 1368.64,-117.8 1368.64,-117.8"/>
<polygon fill="black" stroke="black" points="1368.64,-121.3 1378.64,-117.8 1368.64,-114.3 1368.64,-121.3"/>
</g>
<!-- SelectComponent -->
<g id="node13" class="node">
<title>SelectComponent</title>
<polygon fill="#ffffb3" stroke="black" points="1075.54,-84.8 960.46,-84.8 960.46,-48.8 1075.54,-48.8 1075.54,-84.8"/>
<text text-anchor="middle" x="1018" y="-62.6" font-family="Times,serif" font-size="14.00">SelectComponent</text>
</g>
<!-- SelectComponent&#45;&gt;ComponentsModule -->
<g id="edge13" class="edge">
<title>SelectComponent&#45;&gt;ComponentsModule</title>
<path fill="none" stroke="black" d="M1024.82,-85.04C1024.82,-100.37 1024.82,-119.8 1024.82,-119.8 1024.82,-119.8 1368.5,-119.8 1368.5,-119.8"/>
<polygon fill="black" stroke="black" points="1368.5,-123.3 1378.5,-119.8 1368.5,-116.3 1368.5,-123.3"/>
</g>
<!-- SeparatorComponent -->
<g id="node14" class="node">
<title>SeparatorComponent</title>
<polygon fill="#ffffb3" stroke="black" points="942.47,-84.8 807.53,-84.8 807.53,-48.8 942.47,-48.8 942.47,-84.8"/>
<text text-anchor="middle" x="875" y="-62.6" font-family="Times,serif" font-size="14.00">SeparatorComponent</text>
</g>
<!-- SeparatorComponent&#45;&gt;ComponentsModule -->
<g id="edge14" class="edge">
<title>SeparatorComponent&#45;&gt;ComponentsModule</title>
<path fill="none" stroke="black" d="M889.48,-84.81C889.48,-100.85 889.48,-121.8 889.48,-121.8 889.48,-121.8 1368.76,-121.8 1368.76,-121.8"/>
<polygon fill="black" stroke="black" points="1368.76,-125.3 1378.76,-121.8 1368.76,-118.3 1368.76,-125.3"/>
</g>
<!-- TextAreaComponent -->
<g id="node15" class="node">
<title>TextAreaComponent</title>
<polygon fill="#ffffb3" stroke="black" points="789.19,-84.8 654.81,-84.8 654.81,-48.8 789.19,-48.8 789.19,-84.8"/>
<text text-anchor="middle" x="722" y="-62.6" font-family="Times,serif" font-size="14.00">TextAreaComponent</text>
</g>
<!-- TextAreaComponent&#45;&gt;ComponentsModule -->
<g id="edge15" class="edge">
<title>TextAreaComponent&#45;&gt;ComponentsModule</title>
<path fill="none" stroke="black" d="M734.43,-84.84C734.43,-101.53 734.43,-123.8 734.43,-123.8 734.43,-123.8 1368.83,-123.8 1368.83,-123.8"/>
<polygon fill="black" stroke="black" points="1368.83,-127.3 1378.83,-123.8 1368.83,-120.3 1368.83,-127.3"/>
</g>
<!-- TimeComponent -->
<g id="node16" class="node">
<title>TimeComponent</title>
<polygon fill="#ffffb3" stroke="black" points="636.38,-84.8 525.62,-84.8 525.62,-48.8 636.38,-48.8 636.38,-84.8"/>
<text text-anchor="middle" x="581" y="-62.6" font-family="Times,serif" font-size="14.00">TimeComponent</text>
</g>
<!-- TimeComponent&#45;&gt;ComponentsModule -->
<g id="edge16" class="edge">
<title>TimeComponent&#45;&gt;ComponentsModule</title>
<path fill="none" stroke="black" d="M581,-84.82C581,-102.17 581,-125.8 581,-125.8 581,-125.8 1368.78,-125.8 1368.78,-125.8"/>
<polygon fill="black" stroke="black" points="1368.78,-129.3 1378.78,-125.8 1368.78,-122.3 1368.78,-129.3"/>
</g>
<!-- TitleComponent -->
<g id="node17" class="node">
<title>TitleComponent</title>
<polygon fill="#ffffb3" stroke="black" points="507.77,-84.8 400.23,-84.8 400.23,-48.8 507.77,-48.8 507.77,-84.8"/>
<text text-anchor="middle" x="454" y="-62.6" font-family="Times,serif" font-size="14.00">TitleComponent</text>
</g>
<!-- TitleComponent&#45;&gt;ComponentsModule -->
<g id="edge17" class="edge">
<title>TitleComponent&#45;&gt;ComponentsModule</title>
<path fill="none" stroke="black" d="M470.83,-85.1C470.83,-103.07 470.83,-127.8 470.83,-127.8 470.83,-127.8 1368.64,-127.8 1368.64,-127.8"/>
<polygon fill="black" stroke="black" points="1368.64,-131.3 1378.64,-127.8 1368.64,-124.3 1368.64,-131.3"/>
</g>
<!-- UploadComponent -->
<g id="node18" class="node">
<title>UploadComponent</title>
<polygon fill="#ffffb3" stroke="black" points="382.05,-84.8 259.95,-84.8 259.95,-48.8 382.05,-48.8 382.05,-84.8"/>
<text text-anchor="middle" x="321" y="-62.6" font-family="Times,serif" font-size="14.00">UploadComponent</text>
</g>
<!-- UploadComponent&#45;&gt;ComponentsModule -->
<g id="edge18" class="edge">
<title>UploadComponent&#45;&gt;ComponentsModule</title>
<path fill="none" stroke="black" d="M377.95,-85.02C377.95,-103.63 377.95,-129.8 377.95,-129.8 377.95,-129.8 1368.52,-129.8 1368.52,-129.8"/>
<polygon fill="black" stroke="black" points="1368.52,-133.3 1378.52,-129.8 1368.52,-126.3 1368.52,-133.3"/>
</g>
<!-- AbstractFormComponent  -->
<g id="node20" class="node">
<title>AbstractFormComponent </title>
<polygon fill="#fb8072" stroke="black" points="2941.09,-214.8 2778.91,-214.8 2778.91,-178.8 2941.09,-178.8 2941.09,-214.8"/>
<text text-anchor="middle" x="2860" y="-192.6" font-family="Times,serif" font-size="14.00">AbstractFormComponent </text>
</g>
<!-- ComponentsModule&#45;&gt;AbstractFormComponent  -->
<g id="edge19" class="edge">
<title>ComponentsModule&#45;&gt;AbstractFormComponent </title>
<path fill="none" stroke="black" stroke-dasharray="5,2" d="M1509.45,-133.8C1781.75,-133.8 2810.62,-133.8 2810.62,-133.8 2810.62,-133.8 2810.62,-168.58 2810.62,-168.58"/>
<polygon fill="black" stroke="black" points="2807.12,-168.58 2810.62,-178.58 2814.12,-168.58 2807.12,-168.58"/>
</g>
<!-- AbstractOptionsComponent  -->
<g id="node21" class="node">
<title>AbstractOptionsComponent </title>
<polygon fill="#fb8072" stroke="black" points="2760.09,-214.8 2583.91,-214.8 2583.91,-178.8 2760.09,-178.8 2760.09,-214.8"/>
<text text-anchor="middle" x="2672" y="-192.6" font-family="Times,serif" font-size="14.00">AbstractOptionsComponent </text>
</g>
<!-- ComponentsModule&#45;&gt;AbstractOptionsComponent  -->
<g id="edge20" class="edge">
<title>ComponentsModule&#45;&gt;AbstractOptionsComponent </title>
<path fill="none" stroke="black" stroke-dasharray="5,2" d="M1509.2,-135.8C1755.81,-135.8 2617.72,-135.8 2617.72,-135.8 2617.72,-135.8 2617.72,-168.5 2617.72,-168.5"/>
<polygon fill="black" stroke="black" points="2614.22,-168.5 2617.72,-178.5 2621.22,-168.5 2614.22,-168.5"/>
</g>
<!-- ButtonComponent  -->
<g id="node22" class="node">
<title>ButtonComponent </title>
<polygon fill="#fb8072" stroke="black" points="2565.45,-214.8 2442.55,-214.8 2442.55,-178.8 2565.45,-178.8 2565.45,-214.8"/>
<text text-anchor="middle" x="2504" y="-192.6" font-family="Times,serif" font-size="14.00">ButtonComponent </text>
</g>
<!-- ComponentsModule&#45;&gt;ButtonComponent  -->
<g id="edge21" class="edge">
<title>ComponentsModule&#45;&gt;ButtonComponent </title>
<path fill="none" stroke="black" stroke-dasharray="5,2" d="M1509.48,-137.8C1736.84,-137.8 2478.29,-137.8 2478.29,-137.8 2478.29,-137.8 2478.29,-168.78 2478.29,-168.78"/>
<polygon fill="black" stroke="black" points="2474.79,-168.78 2478.29,-178.78 2481.79,-168.78 2474.79,-168.78"/>
</g>
<!-- CheckboxComponent  -->
<g id="node23" class="node">
<title>CheckboxComponent </title>
<polygon fill="#fb8072" stroke="black" points="2424.6,-214.8 2283.4,-214.8 2283.4,-178.8 2424.6,-178.8 2424.6,-214.8"/>
<text text-anchor="middle" x="2354" y="-192.6" font-family="Times,serif" font-size="14.00">CheckboxComponent </text>
</g>
<!-- ComponentsModule&#45;&gt;CheckboxComponent  -->
<g id="edge22" class="edge">
<title>ComponentsModule&#45;&gt;CheckboxComponent </title>
<path fill="none" stroke="black" stroke-dasharray="5,2" d="M1509.52,-139.8C1712.99,-139.8 2320.46,-139.8 2320.46,-139.8 2320.46,-139.8 2320.46,-168.76 2320.46,-168.76"/>
<polygon fill="black" stroke="black" points="2316.96,-168.76 2320.46,-178.76 2323.96,-168.76 2316.96,-168.76"/>
</g>
<!-- CurrencyComponent  -->
<g id="node24" class="node">
<title>CurrencyComponent </title>
<polygon fill="#fb8072" stroke="black" points="2265.42,-214.8 2128.58,-214.8 2128.58,-178.8 2265.42,-178.8 2265.42,-214.8"/>
<text text-anchor="middle" x="2197" y="-192.6" font-family="Times,serif" font-size="14.00">CurrencyComponent </text>
</g>
<!-- ComponentsModule&#45;&gt;CurrencyComponent  -->
<g id="edge23" class="edge">
<title>ComponentsModule&#45;&gt;CurrencyComponent </title>
<path fill="none" stroke="black" stroke-dasharray="5,2" d="M1509.48,-141.8C1687.55,-141.8 2167.43,-141.8 2167.43,-141.8 2167.43,-141.8 2167.43,-168.79 2167.43,-168.79"/>
<polygon fill="black" stroke="black" points="2163.93,-168.79 2167.43,-178.79 2170.93,-168.79 2163.93,-168.79"/>
</g>
<!-- DataHolderComponent  -->
<g id="node25" class="node">
<title>DataHolderComponent </title>
<polygon fill="#fb8072" stroke="black" points="2110.13,-214.8 1959.87,-214.8 1959.87,-178.8 2110.13,-178.8 2110.13,-214.8"/>
<text text-anchor="middle" x="2035" y="-192.6" font-family="Times,serif" font-size="14.00">DataHolderComponent </text>
</g>
<!-- ComponentsModule&#45;&gt;DataHolderComponent  -->
<g id="edge24" class="edge">
<title>ComponentsModule&#45;&gt;DataHolderComponent </title>
<path fill="none" stroke="black" stroke-dasharray="5,2" d="M1509.24,-143.8C1656.29,-143.8 2000.85,-143.8 2000.85,-143.8 2000.85,-143.8 2000.85,-168.56 2000.85,-168.56"/>
<polygon fill="black" stroke="black" points="1997.35,-168.56 2000.85,-178.56 2004.35,-168.56 1997.35,-168.56"/>
</g>
<!-- DatePickerComponent  -->
<g id="node26" class="node">
<title>DatePickerComponent </title>
<polygon fill="#fb8072" stroke="black" points="1941.52,-214.8 1794.48,-214.8 1794.48,-178.8 1941.52,-178.8 1941.52,-214.8"/>
<text text-anchor="middle" x="1868" y="-192.6" font-family="Times,serif" font-size="14.00">DatePickerComponent </text>
</g>
<!-- ComponentsModule&#45;&gt;DatePickerComponent  -->
<g id="edge25" class="edge">
<title>ComponentsModule&#45;&gt;DatePickerComponent </title>
<path fill="none" stroke="black" stroke-dasharray="5,2" d="M1509.39,-145.8C1621.22,-145.8 1837.29,-145.8 1837.29,-145.8 1837.29,-145.8 1837.29,-168.68 1837.29,-168.68"/>
<polygon fill="black" stroke="black" points="1833.79,-168.68 1837.29,-178.68 1840.79,-168.68 1833.79,-168.68"/>
</g>
<!-- ErrorNoticeComponent  -->
<g id="node27" class="node">
<title>ErrorNoticeComponent </title>
<polygon fill="#fb8072" stroke="black" points="1776.68,-214.8 1625.32,-214.8 1625.32,-178.8 1776.68,-178.8 1776.68,-214.8"/>
<text text-anchor="middle" x="1701" y="-192.6" font-family="Times,serif" font-size="14.00">ErrorNoticeComponent </text>
</g>
<!-- ComponentsModule&#45;&gt;ErrorNoticeComponent  -->
<g id="edge26" class="edge">
<title>ComponentsModule&#45;&gt;ErrorNoticeComponent </title>
<path fill="none" stroke="black" stroke-dasharray="5,2" d="M1509.23,-147.8C1575.83,-147.8 1669.52,-147.8 1669.52,-147.8 1669.52,-147.8 1669.52,-168.55 1669.52,-168.55"/>
<polygon fill="black" stroke="black" points="1666.02,-168.55 1669.52,-178.55 1673.02,-168.55 1666.02,-168.55"/>
</g>
<!-- FormComponentDirective  -->
<g id="node28" class="node">
<title>FormComponentDirective </title>
<polygon fill="#fb8072" stroke="black" points="1607.75,-214.8 1440.25,-214.8 1440.25,-178.8 1607.75,-178.8 1607.75,-214.8"/>
<text text-anchor="middle" x="1524" y="-192.6" font-family="Times,serif" font-size="14.00">FormComponentDirective </text>
</g>
<!-- ComponentsModule&#45;&gt;FormComponentDirective  -->
<g id="edge27" class="edge">
<title>ComponentsModule&#45;&gt;FormComponentDirective </title>
<path fill="none" stroke="black" stroke-dasharray="5,2" d="M1474.77,-149.91C1474.77,-149.91 1474.77,-168.79 1474.77,-168.79"/>
<polygon fill="black" stroke="black" points="1471.27,-168.79 1474.77,-178.79 1478.27,-168.79 1471.27,-168.79"/>
</g>
<!-- FormPopupErrorComponent  -->
<g id="node29" class="node">
<title>FormPopupErrorComponent </title>
<polygon fill="#fb8072" stroke="black" points="1422.48,-214.8 1241.52,-214.8 1241.52,-178.8 1422.48,-178.8 1422.48,-214.8"/>
<text text-anchor="middle" x="1332" y="-192.6" font-family="Times,serif" font-size="14.00">FormPopupErrorComponent </text>
</g>
<!-- ComponentsModule&#45;&gt;FormPopupErrorComponent  -->
<g id="edge28" class="edge">
<title>ComponentsModule&#45;&gt;FormPopupErrorComponent </title>
<path fill="none" stroke="black" stroke-dasharray="5,2" d="M1400.54,-149.91C1400.54,-149.91 1400.54,-168.79 1400.54,-168.79"/>
<polygon fill="black" stroke="black" points="1397.04,-168.79 1400.54,-178.79 1404.04,-168.79 1397.04,-168.79"/>
</g>
<!-- InputComponent  -->
<g id="node30" class="node">
<title>InputComponent </title>
<polygon fill="#fb8072" stroke="black" points="1224.38,-214.8 1109.62,-214.8 1109.62,-178.8 1224.38,-178.8 1224.38,-214.8"/>
<text text-anchor="middle" x="1167" y="-192.6" font-family="Times,serif" font-size="14.00">InputComponent </text>
</g>
<!-- ComponentsModule&#45;&gt;InputComponent  -->
<g id="edge29" class="edge">
<title>ComponentsModule&#45;&gt;InputComponent </title>
<path fill="none" stroke="black" stroke-dasharray="5,2" d="M1378.75,-147.8C1311.46,-147.8 1216.29,-147.8 1216.29,-147.8 1216.29,-147.8 1216.29,-168.55 1216.29,-168.55"/>
<polygon fill="black" stroke="black" points="1212.79,-168.55 1216.29,-178.55 1219.79,-168.55 1212.79,-168.55"/>
</g>
<!-- RadioComponent  -->
<g id="node31" class="node">
<title>RadioComponent </title>
<polygon fill="#fb8072" stroke="black" points="1092.27,-214.8 973.73,-214.8 973.73,-178.8 1092.27,-178.8 1092.27,-214.8"/>
<text text-anchor="middle" x="1033" y="-192.6" font-family="Times,serif" font-size="14.00">RadioComponent </text>
</g>
<!-- ComponentsModule&#45;&gt;RadioComponent  -->
<g id="edge30" class="edge">
<title>ComponentsModule&#45;&gt;RadioComponent </title>
<path fill="none" stroke="black" stroke-dasharray="5,2" d="M1378.8,-145.8C1275.04,-145.8 1083.95,-145.8 1083.95,-145.8 1083.95,-145.8 1083.95,-168.68 1083.95,-168.68"/>
<polygon fill="black" stroke="black" points="1080.45,-168.68 1083.95,-178.68 1087.45,-168.68 1080.45,-168.68"/>
</g>
<!-- SelectComponent  -->
<g id="node32" class="node">
<title>SelectComponent </title>
<polygon fill="#fb8072" stroke="black" points="955.54,-214.8 836.46,-214.8 836.46,-178.8 955.54,-178.8 955.54,-214.8"/>
<text text-anchor="middle" x="896" y="-192.6" font-family="Times,serif" font-size="14.00">SelectComponent </text>
</g>
<!-- ComponentsModule&#45;&gt;SelectComponent  -->
<g id="edge31" class="edge">
<title>ComponentsModule&#45;&gt;SelectComponent </title>
<path fill="none" stroke="black" stroke-dasharray="5,2" d="M1378.78,-143.8C1244.37,-143.8 949,-143.8 949,-143.8 949,-143.8 949,-168.56 949,-168.56"/>
<polygon fill="black" stroke="black" points="945.5,-168.56 949,-178.56 952.5,-168.56 945.5,-168.56"/>
</g>
<!-- SeparatorComponent  -->
<g id="node33" class="node">
<title>SeparatorComponent </title>
<polygon fill="#fb8072" stroke="black" points="818.47,-214.8 679.53,-214.8 679.53,-178.8 818.47,-178.8 818.47,-214.8"/>
<text text-anchor="middle" x="749" y="-192.6" font-family="Times,serif" font-size="14.00">SeparatorComponent </text>
</g>
<!-- ComponentsModule&#45;&gt;SeparatorComponent  -->
<g id="edge32" class="edge">
<title>ComponentsModule&#45;&gt;SeparatorComponent </title>
<path fill="none" stroke="black" stroke-dasharray="5,2" d="M1378.84,-141.8C1217.58,-141.8 812.88,-141.8 812.88,-141.8 812.88,-141.8 812.88,-168.79 812.88,-168.79"/>
<polygon fill="black" stroke="black" points="809.38,-168.79 812.88,-178.79 816.38,-168.79 809.38,-168.79"/>
</g>
<!-- TextAreaComponent  -->
<g id="node34" class="node">
<title>TextAreaComponent </title>
<polygon fill="#fb8072" stroke="black" points="661.69,-214.8 524.31,-214.8 524.31,-178.8 661.69,-178.8 661.69,-214.8"/>
<text text-anchor="middle" x="593" y="-192.6" font-family="Times,serif" font-size="14.00">TextAreaComponent </text>
</g>
<!-- ComponentsModule&#45;&gt;TextAreaComponent  -->
<g id="edge33" class="edge">
<title>ComponentsModule&#45;&gt;TextAreaComponent </title>
<path fill="none" stroke="black" stroke-dasharray="5,2" d="M1378.67,-139.8C1188.01,-139.8 645.67,-139.8 645.67,-139.8 645.67,-139.8 645.67,-168.76 645.67,-168.76"/>
<polygon fill="black" stroke="black" points="642.17,-168.76 645.67,-178.76 649.17,-168.76 642.17,-168.76"/>
</g>
<!-- TimeComponent  -->
<g id="node35" class="node">
<title>TimeComponent </title>
<polygon fill="#fb8072" stroke="black" points="506.38,-214.8 391.62,-214.8 391.62,-178.8 506.38,-178.8 506.38,-214.8"/>
<text text-anchor="middle" x="449" y="-192.6" font-family="Times,serif" font-size="14.00">TimeComponent </text>
</g>
<!-- ComponentsModule&#45;&gt;TimeComponent  -->
<g id="edge34" class="edge">
<title>ComponentsModule&#45;&gt;TimeComponent </title>
<path fill="none" stroke="black" stroke-dasharray="5,2" d="M1378.6,-137.8C1155.12,-137.8 435.47,-137.8 435.47,-137.8 435.47,-137.8 435.47,-168.78 435.47,-168.78"/>
<polygon fill="black" stroke="black" points="431.97,-168.78 435.47,-178.78 438.97,-168.78 431.97,-168.78"/>
</g>
<!-- TitleComponent  -->
<g id="node36" class="node">
<title>TitleComponent </title>
<polygon fill="#fb8072" stroke="black" points="373.77,-214.8 262.23,-214.8 262.23,-178.8 373.77,-178.8 373.77,-214.8"/>
<text text-anchor="middle" x="318" y="-192.6" font-family="Times,serif" font-size="14.00">TitleComponent </text>
</g>
<!-- ComponentsModule&#45;&gt;TitleComponent  -->
<g id="edge35" class="edge">
<title>ComponentsModule&#45;&gt;TitleComponent </title>
<path fill="none" stroke="black" stroke-dasharray="5,2" d="M1378.59,-135.8C1138.28,-135.8 318,-135.8 318,-135.8 318,-135.8 318,-168.5 318,-168.5"/>
<polygon fill="black" stroke="black" points="314.5,-168.5 318,-178.5 321.5,-168.5 314.5,-168.5"/>
</g>
<!-- UploadComponent  -->
<g id="node37" class="node">
<title>UploadComponent </title>
<polygon fill="#fb8072" stroke="black" points="244.04,-214.8 117.96,-214.8 117.96,-178.8 244.04,-178.8 244.04,-214.8"/>
<text text-anchor="middle" x="181" y="-192.6" font-family="Times,serif" font-size="14.00">UploadComponent </text>
</g>
<!-- ComponentsModule&#45;&gt;UploadComponent  -->
<g id="edge36" class="edge">
<title>ComponentsModule&#45;&gt;UploadComponent </title>
<path fill="none" stroke="black" stroke-dasharray="5,2" d="M1378.41,-133.8C1127.17,-133.8 240,-133.8 240,-133.8 240,-133.8 240,-168.58 240,-168.58"/>
<polygon fill="black" stroke="black" points="236.5,-168.58 240,-178.58 243.5,-168.58 236.5,-168.58"/>
</g>
<!-- FormComponentService -->
<g id="node38" class="node">
<title>FormComponentService</title>
<ellipse fill="#fdb462" stroke="black" cx="130" cy="-66.8" rx="105.96" ry="18"/>
<text text-anchor="middle" x="130" y="-62.6" font-family="Times,serif" font-size="14.00">FormComponentService</text>
</g>
<!-- FormComponentService&#45;&gt;ComponentsModule -->
<g id="edge37" class="edge">
<title>FormComponentService&#45;&gt;ComponentsModule</title>
<path fill="none" stroke="black" d="M176.98,-83.2C176.98,-102.46 176.98,-131.8 176.98,-131.8 176.98,-131.8 1368.55,-131.8 1368.55,-131.8"/>
<polygon fill="black" stroke="black" points="1368.55,-135.3 1378.55,-131.8 1368.55,-128.3 1368.55,-135.3"/>
</g>
</g>
</svg>
