<?xml version="1.0" encoding="UTF-8" standalone="no"?>
<!DOCTYPE svg PUBLIC "-//W3C//DTD SVG 1.1//EN"
 "http://www.w3.org/Graphics/SVG/1.1/DTD/svg11.dtd">
<!-- Generated by graphviz version 2.47.3 (20210619.1520)
 -->
<!-- Title: dependencies Pages: 1 -->
<svg width="576pt" height="247pt"
 viewBox="0.00 0.00 576.00 246.80" xmlns="http://www.w3.org/2000/svg" xmlns:xlink="http://www.w3.org/1999/xlink">
<g id="graph0" class="graph" transform="scale(1 1) rotate(0) translate(4 242.8)">
<title>dependencies</title>
<polygon fill="white" stroke="transparent" points="-4,4 -4,-242.8 572,-242.8 572,4 -4,4"/>
<text text-anchor="middle" x="284" y="-8.2" font-family="sans-serif" font-size="14.00">dependencies</text>
<g id="clust1" class="cluster">
<title>cluster_UserProfileModule</title>
<polygon fill="none" stroke="black" stroke-dasharray="1,5" points="8,-32.8 8,-230.8 560,-230.8 560,-32.8 8,-32.8"/>
</g>
<g id="clust4" class="cluster">
<title>cluster_UserProfileModule_imports</title>
<polygon fill="none" stroke="black" points="186,-40.8 186,-92.8 552,-92.8 552,-40.8 186,-40.8"/>
</g>
<g id="clust2" class="cluster">
<title>cluster_UserProfileModule_declarations</title>
<polygon fill="none" stroke="black" points="16,-40.8 16,-92.8 178,-92.8 178,-40.8 16,-40.8"/>
</g>
<g id="clust5" class="cluster">
<title>cluster_UserProfileModule_exports</title>
<polygon fill="none" stroke="black" points="213,-170.8 213,-222.8 379,-222.8 379,-170.8 213,-170.8"/>
</g>
<!-- UserProfileComponent -->
<g id="node1" class="node">
<title>UserProfileComponent</title>
<polygon fill="#ffffb3" stroke="black" points="169.86,-84.8 24.14,-84.8 24.14,-48.8 169.86,-48.8 169.86,-84.8"/>
<text text-anchor="middle" x="97" y="-62.6" font-family="Times,serif" font-size="14.00">UserProfileComponent</text>
</g>
<!-- UserProfileModule -->
<g id="node2" class="node">
<title>UserProfileModule</title>
<polygon fill="#8dd3c7" stroke="black" points="358.08,-149.8 355.08,-153.8 334.08,-153.8 331.08,-149.8 233.92,-149.8 233.92,-113.8 358.08,-113.8 358.08,-149.8"/>
<text text-anchor="middle" x="296" y="-127.6" font-family="Times,serif" font-size="14.00">UserProfileModule</text>
</g>
<!-- UserProfileComponent&#45;&gt;UserProfileModule -->
<g id="edge1" class="edge">
<title>UserProfileComponent&#45;&gt;UserProfileModule</title>
<path fill="none" stroke="black" d="M97,-84.91C97,-104.14 97,-131.8 97,-131.8 97,-131.8 223.85,-131.8 223.85,-131.8"/>
<polygon fill="black" stroke="black" points="223.85,-135.3 233.85,-131.8 223.85,-128.3 223.85,-135.3"/>
</g>
<!-- UserProfileComponent  -->
<g id="node5" class="node">
<title>UserProfileComponent </title>
<polygon fill="#fb8072" stroke="black" points="370.86,-214.8 221.14,-214.8 221.14,-178.8 370.86,-178.8 370.86,-214.8"/>
<text text-anchor="middle" x="296" y="-192.6" font-family="Times,serif" font-size="14.00">UserProfileComponent </text>
</g>
<!-- UserProfileModule&#45;&gt;UserProfileComponent  -->
<g id="edge4" class="edge">
<title>UserProfileModule&#45;&gt;UserProfileComponent </title>
<path fill="none" stroke="black" stroke-dasharray="5,2" d="M296,-149.91C296,-149.91 296,-168.79 296,-168.79"/>
<polygon fill="black" stroke="black" points="292.5,-168.79 296,-178.79 299.5,-168.79 292.5,-168.79"/>
</g>
<!-- AssetsTableModule -->
<g id="node3" class="node">
<title>AssetsTableModule</title>
<polygon fill="#8dd3c7" stroke="black" points="543.97,-84.8 540.97,-88.8 519.97,-88.8 516.97,-84.8 416.03,-84.8 416.03,-48.8 543.97,-48.8 543.97,-84.8"/>
<text text-anchor="middle" x="480" y="-62.6" font-family="Times,serif" font-size="14.00">AssetsTableModule</text>
</g>
<!-- AssetsTableModule&#45;&gt;UserProfileModule -->
<g id="edge2" class="edge">
<title>AssetsTableModule&#45;&gt;UserProfileModule</title>
<path fill="none" stroke="black" d="M480,-84.91C480,-104.14 480,-131.8 480,-131.8 480,-131.8 368.29,-131.8 368.29,-131.8"/>
<polygon fill="black" stroke="black" points="368.29,-128.3 358.29,-131.8 368.29,-135.3 368.29,-128.3"/>
</g>
<!-- DateFormatConfigurationModule -->
<g id="node4" class="node">
<title>DateFormatConfigurationModule</title>
<polygon fill="#8dd3c7" stroke="black" points="398.46,-84.8 395.46,-88.8 374.46,-88.8 371.46,-84.8 193.54,-84.8 193.54,-48.8 398.46,-48.8 398.46,-84.8"/>
<text text-anchor="middle" x="296" y="-62.6" font-family="Times,serif" font-size="14.00">DateFormatConfigurationModule</text>
</g>
<!-- DateFormatConfigurationModule&#45;&gt;UserProfileModule -->
<g id="edge3" class="edge">
<title>DateFormatConfigurationModule&#45;&gt;UserProfileModule</title>
<path fill="none" stroke="black" d="M296,-84.91C296,-84.91 296,-103.79 296,-103.79"/>
<polygon fill="black" stroke="black" points="292.5,-103.79 296,-113.79 299.5,-103.79 292.5,-103.79"/>
</g>
</g>
</svg>
