<?xml version="1.0" encoding="UTF-8" standalone="no"?>
<!DOCTYPE svg PUBLIC "-//W3C//DTD SVG 1.1//EN"
 "http://www.w3.org/Graphics/SVG/1.1/DTD/svg11.dtd">
<!-- Generated by graphviz version 2.47.3 (20210619.1520)
 -->
<!-- Title: dependencies Pages: 1 -->
<svg width="590pt" height="247pt"
 viewBox="0.00 0.00 590.00 246.80" xmlns="http://www.w3.org/2000/svg" xmlns:xlink="http://www.w3.org/1999/xlink">
<g id="graph0" class="graph" transform="scale(1 1) rotate(0) translate(4 242.8)">
<title>dependencies</title>
<polygon fill="white" stroke="transparent" points="-4,4 -4,-242.8 586,-242.8 586,4 -4,4"/>
<text text-anchor="middle" x="291" y="-8.2" font-family="sans-serif" font-size="14.00">dependencies</text>
<g id="clust1" class="cluster">
<title>cluster_FSDynamicformsModule</title>
<polygon fill="none" stroke="black" stroke-dasharray="1,5" points="8,-32.8 8,-230.8 574,-230.8 574,-32.8 8,-32.8"/>
</g>
<g id="clust2" class="cluster">
<title>cluster_FSDynamicformsModule_declarations</title>
<polygon fill="none" stroke="black" points="182,-40.8 182,-92.8 566,-92.8 566,-40.8 182,-40.8"/>
</g>
<g id="clust6" class="cluster">
<title>cluster_FSDynamicformsModule_exports</title>
<polygon fill="none" stroke="black" points="95,-170.8 95,-222.8 487,-222.8 487,-170.8 95,-170.8"/>
</g>
<g id="clust5" class="cluster">
<title>cluster_FSDynamicformsModule_imports</title>
<polygon fill="none" stroke="black" points="16,-40.8 16,-92.8 174,-92.8 174,-40.8 16,-40.8"/>
</g>
<!-- CalculationButtonComponent -->
<g id="node1" class="node">
<title>CalculationButtonComponent</title>
<polygon fill="#ffffb3" stroke="black" points="557.99,-84.8 374.01,-84.8 374.01,-48.8 557.99,-48.8 557.99,-84.8"/>
<text text-anchor="middle" x="466" y="-62.6" font-family="Times,serif" font-size="14.00">CalculationButtonComponent</text>
</g>
<!-- FSDynamicformsModule -->
<g id="node3" class="node">
<title>FSDynamicformsModule</title>
<polygon fill="#8dd3c7" stroke="black" points="352.59,-149.8 349.59,-153.8 328.59,-153.8 325.59,-149.8 193.41,-149.8 193.41,-113.8 352.59,-113.8 352.59,-149.8"/>
<text text-anchor="middle" x="273" y="-127.6" font-family="Times,serif" font-size="14.00">FSDynamicformsModule</text>
</g>
<!-- CalculationButtonComponent&#45;&gt;FSDynamicformsModule -->
<g id="edge1" class="edge">
<title>CalculationButtonComponent&#45;&gt;FSDynamicformsModule</title>
<path fill="none" stroke="black" d="M426.38,-84.91C426.38,-104.14 426.38,-131.8 426.38,-131.8 426.38,-131.8 362.83,-131.8 362.83,-131.8"/>
<polygon fill="black" stroke="black" points="362.83,-128.3 352.83,-131.8 362.83,-135.3 362.83,-128.3"/>
</g>
<!-- DynamicSelectComponent -->
<g id="node2" class="node">
<title>DynamicSelectComponent</title>
<polygon fill="#ffffb3" stroke="black" points="356.36,-84.8 189.64,-84.8 189.64,-48.8 356.36,-48.8 356.36,-84.8"/>
<text text-anchor="middle" x="273" y="-62.6" font-family="Times,serif" font-size="14.00">DynamicSelectComponent</text>
</g>
<!-- DynamicSelectComponent&#45;&gt;FSDynamicformsModule -->
<g id="edge2" class="edge">
<title>DynamicSelectComponent&#45;&gt;FSDynamicformsModule</title>
<path fill="none" stroke="black" d="M273,-84.91C273,-84.91 273,-103.79 273,-103.79"/>
<polygon fill="black" stroke="black" points="269.5,-103.79 273,-113.79 276.5,-103.79 269.5,-103.79"/>
</g>
<!-- CalculationButtonComponent  -->
<g id="node5" class="node">
<title>CalculationButtonComponent </title>
<polygon fill="#fb8072" stroke="black" points="478.99,-214.8 291.01,-214.8 291.01,-178.8 478.99,-178.8 478.99,-214.8"/>
<text text-anchor="middle" x="385" y="-192.6" font-family="Times,serif" font-size="14.00">CalculationButtonComponent </text>
</g>
<!-- FSDynamicformsModule&#45;&gt;CalculationButtonComponent  -->
<g id="edge4" class="edge">
<title>FSDynamicformsModule&#45;&gt;CalculationButtonComponent </title>
<path fill="none" stroke="black" stroke-dasharray="5,2" d="M321.9,-149.91C321.9,-149.91 321.9,-168.79 321.9,-168.79"/>
<polygon fill="black" stroke="black" points="318.4,-168.79 321.9,-178.79 325.4,-168.79 318.4,-168.79"/>
</g>
<!-- DynamicSelectComponent  -->
<g id="node6" class="node">
<title>DynamicSelectComponent </title>
<polygon fill="#fb8072" stroke="black" points="273.36,-214.8 102.64,-214.8 102.64,-178.8 273.36,-178.8 273.36,-214.8"/>
<text text-anchor="middle" x="188" y="-192.6" font-family="Times,serif" font-size="14.00">DynamicSelectComponent </text>
</g>
<!-- FSDynamicformsModule&#45;&gt;DynamicSelectComponent  -->
<g id="edge5" class="edge">
<title>FSDynamicformsModule&#45;&gt;DynamicSelectComponent </title>
<path fill="none" stroke="black" stroke-dasharray="5,2" d="M233.32,-149.91C233.32,-149.91 233.32,-168.79 233.32,-168.79"/>
<polygon fill="black" stroke="black" points="229.82,-168.79 233.32,-178.79 236.82,-168.79 229.82,-168.79"/>
</g>
<!-- DynamicFormModule -->
<g id="node4" class="node">
<title>DynamicFormModule</title>
<polygon fill="#8dd3c7" stroke="black" points="165.7,-84.8 162.7,-88.8 141.7,-88.8 138.7,-84.8 24.3,-84.8 24.3,-48.8 165.7,-48.8 165.7,-84.8"/>
<text text-anchor="middle" x="95" y="-62.6" font-family="Times,serif" font-size="14.00">DynamicFormModule</text>
</g>
<!-- DynamicFormModule&#45;&gt;FSDynamicformsModule -->
<g id="edge3" class="edge">
<title>DynamicFormModule&#45;&gt;FSDynamicformsModule</title>
<path fill="none" stroke="black" d="M134.21,-84.91C134.21,-104.14 134.21,-131.8 134.21,-131.8 134.21,-131.8 183.07,-131.8 183.07,-131.8"/>
<polygon fill="black" stroke="black" points="183.07,-135.3 193.07,-131.8 183.07,-128.3 183.07,-135.3"/>
</g>
</g>
</svg>
