<?xml version="1.0" encoding="UTF-8" standalone="no"?>
<!DOCTYPE svg PUBLIC "-//W3C//DTD SVG 1.1//EN"
 "http://www.w3.org/Graphics/SVG/1.1/DTD/svg11.dtd">
<!-- Generated by graphviz version 2.47.3 (20210619.1520)
 -->
<!-- Title: dependencies Pages: 1 -->
<svg width="590pt" height="247pt"
 viewBox="0.00 0.00 590.00 246.80" xmlns="http://www.w3.org/2000/svg" xmlns:xlink="http://www.w3.org/1999/xlink">
<g id="graph0" class="graph" transform="scale(1 1) rotate(0) translate(4 242.8)">
<title>dependencies</title>
<polygon fill="white" stroke="transparent" points="-4,4 -4,-242.8 586,-242.8 586,4 -4,4"/>
<text text-anchor="middle" x="291" y="-8.2" font-family="sans-serif" font-size="14.00">dependencies</text>
<g id="clust1" class="cluster">
<title>cluster_FSDynamicformsModule</title>
<polygon fill="none" stroke="black" stroke-dasharray="1,5" points="8,-32.8 8,-230.8 574,-230.8 574,-32.8 8,-32.8"/>
</g>
<g id="clust6" class="cluster">
<title>cluster_FSDynamicformsModule_exports</title>
<polygon fill="none" stroke="black" points="95,-170.8 95,-222.8 487,-222.8 487,-170.8 95,-170.8"/>
</g>
<g id="clust5" class="cluster">
<title>cluster_FSDynamicformsModule_imports</title>
<polygon fill="none" stroke="black" points="408,-40.8 408,-92.8 566,-92.8 566,-40.8 408,-40.8"/>
</g>
<g id="clust2" class="cluster">
<title>cluster_FSDynamicformsModule_declarations</title>
<polygon fill="none" stroke="black" points="16,-40.8 16,-92.8 400,-92.8 400,-40.8 16,-40.8"/>
</g>
<!-- CalculationButtonComponent -->
<g id="node1" class="node">
<title>CalculationButtonComponent</title>
<polygon fill="#ffffb3" stroke="black" points="391.99,-84.8 208.01,-84.8 208.01,-48.8 391.99,-48.8 391.99,-84.8"/>
<text text-anchor="middle" x="300" y="-62.6" font-family="Times,serif" font-size="14.00">CalculationButtonComponent</text>
</g>
<!-- FSDynamicformsModule -->
<g id="node3" class="node">
<title>FSDynamicformsModule</title>
<polygon fill="#8dd3c7" stroke="black" points="379.59,-149.8 376.59,-153.8 355.59,-153.8 352.59,-149.8 220.41,-149.8 220.41,-113.8 379.59,-113.8 379.59,-149.8"/>
<text text-anchor="middle" x="300" y="-127.6" font-family="Times,serif" font-size="14.00">FSDynamicformsModule</text>
</g>
<!-- CalculationButtonComponent&#45;&gt;FSDynamicformsModule -->
<g id="edge1" class="edge">
<title>CalculationButtonComponent&#45;&gt;FSDynamicformsModule</title>
<path fill="none" stroke="black" d="M300,-84.91C300,-84.91 300,-103.79 300,-103.79"/>
<polygon fill="black" stroke="black" points="296.5,-103.79 300,-113.79 303.5,-103.79 296.5,-103.79"/>
</g>
<!-- DynamicSelectComponent -->
<g id="node2" class="node">
<title>DynamicSelectComponent</title>
<polygon fill="#ffffb3" stroke="black" points="190.36,-84.8 23.64,-84.8 23.64,-48.8 190.36,-48.8 190.36,-84.8"/>
<text text-anchor="middle" x="107" y="-62.6" font-family="Times,serif" font-size="14.00">DynamicSelectComponent</text>
</g>
<!-- DynamicSelectComponent&#45;&gt;FSDynamicformsModule -->
<g id="edge2" class="edge">
<title>DynamicSelectComponent&#45;&gt;FSDynamicformsModule</title>
<path fill="none" stroke="black" d="M146.62,-84.91C146.62,-104.14 146.62,-131.8 146.62,-131.8 146.62,-131.8 210.17,-131.8 210.17,-131.8"/>
<polygon fill="black" stroke="black" points="210.17,-135.3 220.17,-131.8 210.17,-128.3 210.17,-135.3"/>
</g>
<!-- CalculationButtonComponent  -->
<g id="node5" class="node">
<title>CalculationButtonComponent </title>
<polygon fill="#fb8072" stroke="black" points="478.99,-214.8 291.01,-214.8 291.01,-178.8 478.99,-178.8 478.99,-214.8"/>
<text text-anchor="middle" x="385" y="-192.6" font-family="Times,serif" font-size="14.00">CalculationButtonComponent </text>
</g>
<!-- FSDynamicformsModule&#45;&gt;CalculationButtonComponent  -->
<g id="edge4" class="edge">
<title>FSDynamicformsModule&#45;&gt;CalculationButtonComponent </title>
<path fill="none" stroke="black" stroke-dasharray="5,2" d="M335.4,-149.91C335.4,-149.91 335.4,-168.79 335.4,-168.79"/>
<polygon fill="black" stroke="black" points="331.9,-168.79 335.4,-178.79 338.9,-168.79 331.9,-168.79"/>
</g>
<!-- DynamicSelectComponent  -->
<g id="node6" class="node">
<title>DynamicSelectComponent </title>
<polygon fill="#fb8072" stroke="black" points="273.36,-214.8 102.64,-214.8 102.64,-178.8 273.36,-178.8 273.36,-214.8"/>
<text text-anchor="middle" x="188" y="-192.6" font-family="Times,serif" font-size="14.00">DynamicSelectComponent </text>
</g>
<!-- FSDynamicformsModule&#45;&gt;DynamicSelectComponent  -->
<g id="edge5" class="edge">
<title>FSDynamicformsModule&#45;&gt;DynamicSelectComponent </title>
<path fill="none" stroke="black" stroke-dasharray="5,2" d="M246.82,-149.91C246.82,-149.91 246.82,-168.79 246.82,-168.79"/>
<polygon fill="black" stroke="black" points="243.32,-168.79 246.82,-178.79 250.32,-168.79 243.32,-168.79"/>
</g>
<!-- DynamicFormModule -->
<g id="node4" class="node">
<title>DynamicFormModule</title>
<polygon fill="#8dd3c7" stroke="black" points="557.7,-84.8 554.7,-88.8 533.7,-88.8 530.7,-84.8 416.3,-84.8 416.3,-48.8 557.7,-48.8 557.7,-84.8"/>
<text text-anchor="middle" x="487" y="-62.6" font-family="Times,serif" font-size="14.00">DynamicFormModule</text>
</g>
<!-- DynamicFormModule&#45;&gt;FSDynamicformsModule -->
<g id="edge3" class="edge">
<title>DynamicFormModule&#45;&gt;FSDynamicformsModule</title>
<path fill="none" stroke="black" d="M447.57,-84.91C447.57,-104.14 447.57,-131.8 447.57,-131.8 447.57,-131.8 389.83,-131.8 389.83,-131.8"/>
<polygon fill="black" stroke="black" points="389.83,-128.3 379.83,-131.8 389.83,-135.3 389.83,-128.3"/>
</g>
</g>
</svg>
